<?xml version="1.0" standalone="no"?>
<!DOCTYPE svg PUBLIC "-//W3C//DTD SVG 20010904//EN"
 "http://www.w3.org/TR/2001/REC-SVG-20010904/DTD/svg10.dtd">
<svg version="1.0" xmlns="http://www.w3.org/2000/svg"
 width="292.000000pt" height="101.000000pt" viewBox="0 0 292.000000 101.000000"
 preserveAspectRatio="xMidYMid meet">
<metadata>
Created by potrace 1.10, written by Peter Selinger 2001-2011
</metadata>
<g transform="translate(0.000000,101.000000) scale(0.050000,-0.050000)"
fill="White" stroke="none">
<path d="M655 1514 c-53 -134 -117 -302 -143 -374 -26 -71 -79 -215 -118 -320
-244 -657 -241 -603 -32 -596 l162 6 80 220 c44 121 89 246 101 277 20 53 27
56 103 44 45 -7 135 -19 200 -27 l119 -14 91 -230 c106 -265 114 -280 153
-280 50 0 -9 184 -186 580 -22 50 -55 135 -74 190 -20 55 -43 118 -53 140 -10
22 -40 100 -67 174 -28 74 -68 173 -89 220 -22 47 -53 120 -70 161 -47 118
-75 92 -177 -171z m167 -239 c-26 -69 -76 -206 -112 -305 -36 -99 -105 -283
-154 -410 l-87 -230 -75 -6 c-41 -4 -74 0 -74 9 0 15 230 644 262 717 44 100
158 416 158 438 0 75 51 71 89 -7 l39 -81 -46 -125z m172 -183 c39 -86 35 -92
-71 -92 -126 0 -126 -1 -66 152 l52 131 29 -66 c16 -37 41 -93 56 -125z"/>
<path d="M1460 990 l0 -770 341 0 c572 0 735 66 755 308 22 264 -94 417 -347
463 -114 20 -115 24 -50 105 133 168 126 412 -17 560 -91 94 -135 104 -444
104 l-238 0 0 -770z m235 17 l-5 -693 -77 -2 -76 -2 2 678 c3 753 -3 712 92
712 l70 0 -6 -693z m371 601 c227 -166 91 -564 -197 -575 l-90 -3 -1 315 c0
173 5 323 11 333 16 26 214 -24 277 -70z m20 -689 c140 -39 201 -115 210 -262
16 -254 -71 -338 -359 -344 l-160 -3 -3 315 -4 315 120 0 c66 0 154 -10 196
-21z"/>
<path d="M2854 1660 c-360 -329 -383 -978 -48 -1326 464 -480 948 641 542
1256 -136 208 -316 233 -494 70z m369 -61 c284 -298 267 -931 -32 -1219 -79
-76 -195 -95 -259 -41 -34 27 -35 492 -3 1031 5 88 10 183 10 212 2 121 176
131 284 17z m-394 -584 c-14 -572 -16 -587 -67 -504 -149 245 -145 607 9 912
72 140 71 144 58 -408z"/>
<path d="M3560 1264 c0 -646 38 -796 246 -974 233 -200 522 53 583 511 33 248
18 949 -21 955 -36 5 -38 -15 -38 -430 0 -703 -111 -1016 -360 -1016 -118 0
-112 -33 -90 501 10 264 19 585 20 714 l0 235 -170 0 -170 0 0 -496z m255 206
c3 -121 -2 -409 -10 -640 l-15 -420 -53 90 c-90 151 -94 210 -77 1186 0 9 34
14 75 10 l75 -6 5 -220z"/>
<path d="M4484 1725 c5 -29 35 -37 183 -45 l176 -10 4 -720 3 -720 165 -6 165
-6 0 731 0 731 200 0 c187 0 200 3 200 40 0 39 -13 40 -551 40 -515 0 -551 -2
-545 -35z m631 -740 l6 -685 -101 0 -100 0 0 691 0 691 95 -6 95 -6 5 -685z"/>
</g>
</svg>
