<?xml version="1.0" standalone="no"?>
<!DOCTYPE svg PUBLIC "-//W3C//DTD SVG 20010904//EN"
 "http://www.w3.org/TR/2001/REC-SVG-20010904/DTD/svg10.dtd">
<svg version="1.0" xmlns="http://www.w3.org/2000/svg"
 width="300.000000pt" height="79.000000pt" viewBox="0 0 300.000000 79.000000"
 preserveAspectRatio="xMidYMid meet">
<metadata>
Created by potrace 1.10, written by Peter Selinger 2001-2011
</metadata>
<g transform="translate(0.000000,79.000000) scale(0.050000,-0.050000)"
fill="White" stroke="none">
<path d="M140 790 l0 -670 150 0 150 0 0 440 c0 242 7 440 16 440 9 0 68 -63
131 -140 114 -139 159 -166 180 -112 10 27 352 512 360 512 3 0 4 -263 4 -585
-1 -507 3 -585 29 -585 26 0 31 92 35 686 l6 686 -105 -6 c-115 -7 -173 -66
-391 -401 -41 -63 -80 -115 -87 -115 -14 0 -239 267 -348 415 -132 177 -130
184 -130 -565z m230 300 c6 -22 9 -233 6 -470 l-6 -430 -75 -6 -75 -6 0 556 1
556 69 -80 c38 -44 74 -98 80 -120z"/>
<path d="M1293 796 c-7 -365 -6 -670 2 -678 37 -36 714 -29 721 6 6 31 -18 35
-209 40 l-216 6 -1 255 0 255 145 0 145 0 0 119 0 119 -145 6 c-80 3 -143 13
-140 21 3 8 5 114 5 235 l0 220 177 -13 c198 -14 283 -1 283 43 0 25 -57 30
-377 30 l-377 0 -13 -664z m230 307 c5 -164 5 -438 1 -610 l-9 -313 -81 0 -80
0 13 315 c7 173 13 448 13 610 l0 295 68 0 67 0 8 -297z"/>
<path d="M2110 795 l0 -665 150 0 150 0 0 435 c0 239 5 435 12 435 7 0 69 -68
138 -150 69 -83 128 -148 131 -145 3 3 82 113 176 245 93 132 184 258 201 280
29 37 31 -11 29 -550 -1 -486 3 -590 26 -590 22 0 28 122 32 686 l6 686 -105
-6 -105 -6 -177 -250 c-98 -137 -184 -253 -192 -256 -9 -3 -109 112 -224 255
-114 143 -217 261 -228 261 -13 0 -20 -231 -20 -665z m225 -145 l-5 -460 -70
0 -70 0 -5 550 -4 550 79 -90 79 -90 -4 -460z"/>
<path d="M3260 782 l0 -682 335 0 c184 0 371 10 414 22 321 89 288 552 -46
638 -51 13 -105 27 -119 32 -18 5 -6 33 39 89 126 156 93 407 -69 527 -49 36
-91 43 -305 49 l-249 7 0 -682z m200 -2 l0 -620 -65 6 -65 5 -5 589 c-6 660
-9 640 74 640 l61 0 0 -620z m280 569 c213 -107 173 -464 -59 -529 -147 -41
-141 -54 -141 281 l0 301 75 -14 c41 -7 98 -25 125 -39z m94 -651 c102 -32
166 -123 166 -237 0 -210 -67 -274 -307 -294 l-151 -13 -6 285 c-3 156 -1 289
4 294 14 14 215 -11 294 -35z"/>
<path d="M4273 787 c-7 -370 -11 -675 -8 -678 27 -26 725 -15 725 11 0 24 -41
32 -210 40 l-210 10 -6 255 -5 255 150 0 151 0 0 120 0 120 -145 0 -145 0 2
235 2 235 208 -6 c204 -6 277 10 249 54 -9 15 -132 22 -379 22 l-366 0 -13
-673z m227 3 l0 -610 -91 0 -92 0 13 215 c7 118 16 382 20 585 4 204 8 381 9
395 1 15 29 25 71 25 l70 0 0 -610z"/>
<path d="M5080 780 l0 -680 150 0 150 0 0 330 c0 362 0 362 118 301 148 -76
217 -214 238 -475 17 -205 70 -242 80 -56 14 225 -81 473 -205 540 -66 35 -64
51 9 77 294 102 356 472 102 602 -70 36 -118 41 -361 41 l-281 0 0 -680z m235
5 l6 -605 -93 0 -93 0 13 62 c6 35 12 310 12 612 l0 548 75 -6 75 -6 5 -605z
m234 587 c228 -96 144 -462 -124 -541 l-45 -14 0 292 0 291 51 0 c27 0 81 -13
118 -28z"/>
</g>
</svg>
