<?xml version="1.0" standalone="no"?>
<!DOCTYPE svg PUBLIC "-//W3C//DTD SVG 20010904//EN"
 "http://www.w3.org/TR/2001/REC-SVG-20010904/DTD/svg10.dtd">
<svg version="1.0" xmlns="http://www.w3.org/2000/svg"
 width="181.000000pt" height="66.000000pt" viewBox="0 0 181.000000 66.000000"
 preserveAspectRatio="xMidYMid meet">
<metadata>
Created by potrace 1.10, written by Peter Selinger 2001-2011
</metadata>
<g transform="translate(0.000000,66.000000) scale(0.100000,-0.100000)"
fill="#000000" stroke="none">
<path d="M152 538 c-9 -9 -12 -68 -12 -205 0 -191 0 -193 24 -208 31 -20 73
-5 82 29 3 13 4 58 2 100 -2 42 0 75 3 74 4 -2 44 -50 90 -108 90 -112 113
-126 148 -91 20 20 21 33 21 202 0 105 -4 188 -10 200 -13 22 -71 27 -88 6 -6
-7 -13 -57 -14 -110 l-3 -96 -75 96 c-41 53 -81 102 -88 110 -17 16 -64 17
-80 1z m164 -158 l109 -140 3 141 c3 139 3 140 25 137 22 -3 22 -6 25 -179 2
-150 0 -178 -13 -189 -19 -16 -7 -27 -135 135 -56 72 -105 131 -108 133 -4 1
-6 -55 -4 -124 3 -128 -4 -159 -34 -147 -11 4 -14 39 -14 189 0 172 1 184 18
184 12 0 58 -51 128 -140z"/>
<path d="M610 428 c-44 -31 -70 -82 -70 -141 0 -121 87 -199 189 -168 50 15
85 53 79 85 -3 17 1 31 13 42 37 33 10 126 -50 177 -43 36 -113 38 -161 5z
m142 -31 c29 -23 55 -78 54 -112 -1 -18 -9 -20 -93 -23 -51 -1 -93 -6 -93 -11
0 -5 9 -20 21 -35 24 -31 57 -33 92 -6 23 18 26 18 38 4 11 -14 9 -20 -19 -45
-36 -33 -69 -36 -113 -14 -86 45 -93 181 -13 244 36 28 91 27 126 -2z m-55
-173 c-3 -3 -12 -4 -19 -1 -8 3 -5 6 6 6 11 1 17 -2 13 -5z"/>
<path d="M636 348 c-9 -12 -16 -26 -16 -30 0 -5 32 -8 71 -8 l70 0 -21 30
c-27 38 -80 42 -104 8z m67 -12 c4 -10 1 -13 -9 -9 -15 6 -19 23 -5 23 5 0 11
-7 14 -14z"/>
<path d="M888 439 c-28 -16 -22 -55 33 -192 42 -105 55 -128 75 -133 39 -10
54 3 82 66 l27 60 30 -63 c24 -50 35 -63 56 -65 15 -2 33 4 42 12 8 9 39 75
67 147 49 125 51 131 35 155 -13 20 -23 24 -48 22 -26 -2 -36 -11 -53 -45 -12
-23 -24 -52 -28 -65 -6 -20 -10 -14 -32 39 -27 65 -46 80 -88 69 -18 -4 -29
-21 -46 -67 l-23 -62 -31 64 c-33 67 -58 82 -98 58z m82 -101 c18 -46 36 -87
40 -91 4 -5 23 31 42 80 46 118 60 118 107 0 19 -48 38 -84 41 -80 4 5 20 40
35 78 33 81 42 95 61 95 24 0 15 -41 -34 -160 -30 -73 -53 -116 -63 -118 -13
-2 -26 21 -55 94 -29 73 -40 92 -46 78 -4 -11 -21 -53 -37 -94 -42 -109 -54
-104 -114 48 -27 68 -46 130 -43 138 13 33 35 10 66 -68z"/>
<path d="M1443 431 c-17 -11 -37 -29 -42 -40 -17 -31 -13 -86 8 -112 18 -23
18 -24 -2 -51 l-21 -28 20 -28 c42 -56 128 -77 198 -48 70 29 97 106 55 160
-19 24 -19 27 -5 42 24 24 19 57 -14 89 -27 25 -40 30 -98 33 -54 2 -73 -1
-99 -17z m165 -31 c17 -11 32 -27 32 -35 0 -23 -28 -30 -49 -11 -18 16 -75 21
-105 10 -20 -8 -21 -40 -2 -47 7 -3 35 -9 60 -12 55 -9 106 -47 106 -79 0 -27
-45 -72 -83 -81 -38 -10 -90 2 -121 26 -21 17 -24 24 -15 40 10 20 10 20 43
-1 51 -31 126 -22 126 16 0 17 -5 19 -81 34 -66 13 -99 39 -99 80 0 69 113
105 188 60z m-53 -60 c3 -5 -1 -10 -9 -10 -8 0 -18 5 -21 10 -3 6 1 10 9 10 8
0 18 -4 21 -10z m-25 -113 c10 -4 8 -6 -6 -6 -12 -1 -25 6 -28 15 -5 13 -3 14
6 7 7 -6 20 -13 28 -16z"/>
</g>
</svg>
