<?xml version="1.0" standalone="no"?>
<!DOCTYPE svg PUBLIC "-//W3C//DTD SVG 20010904//EN"
 "http://www.w3.org/TR/2001/REC-SVG-20010904/DTD/svg10.dtd">
<svg version="1.0" xmlns="http://www.w3.org/2000/svg"
 width="300.000000pt" height="95.000000pt" viewBox="0 0 300.000000 95.000000"
 preserveAspectRatio="xMidYMid meet">
<metadata>
Created by potrace 1.10, written by Peter Selinger 2001-2011
</metadata>
<g transform="translate(0.000000,95.000000) scale(0.100000,-0.100000)"
fill="#000000" stroke="none">
<path d="M20 817 c0 -27 4 -37 13 -34 20 7 67 -25 90 -63 21 -33 22 -46 21
-233 -2 -230 -11 -272 -69 -303 -28 -15 -35 -25 -35 -48 l0 -29 153 7 c83 4
153 8 154 9 1 1 3 16 5 32 2 25 -1 31 -21 33 -36 5 -67 29 -80 60 -8 18 -11
90 -9 206 l3 180 26 -40 c15 -22 71 -88 125 -148 55 -59 132 -149 172 -199 96
-122 103 -127 168 -127 l53 0 -2 103 c-1 56 2 196 7 310 8 182 12 212 28 233
11 13 27 24 37 24 13 0 16 7 13 33 l-4 33 -124 3 c-179 3 -197 -7 -124 -75 21
-20 44 -51 49 -68 6 -17 13 -94 17 -170 l7 -139 -37 34 c-32 29 -111 119 -322
366 l-45 52 -134 -2 -135 -2 0 -38z m96 -34 c60 -54 118 -122 111 -130 -4 -3
-16 6 -28 20 -11 15 -26 27 -32 27 -6 0 6 -18 28 -40 21 -22 36 -42 33 -45
-10 -10 -80 66 -74 81 6 16 -91 117 -105 109 -5 -4 -9 3 -9 15 0 26 16 18 76
-37z m171 47 c-1 -4 18 -27 43 -51 56 -54 185 -206 185 -217 0 -5 57 -66 128
-136 70 -71 127 -135 127 -144 0 -15 -82 63 -402 382 -93 92 -168 164 -168
159 0 -5 128 -136 285 -292 157 -155 285 -287 285 -293 0 -6 -136 124 -302
290 -166 165 -305 299 -307 296 -3 -2 134 -142 303 -310 219 -219 306 -311
303 -324 -2 -9 0 -25 5 -34 5 -9 7 -16 4 -16 -3 0 -116 111 -252 248 -136 136
-250 247 -254 247 -4 0 -25 23 -47 50 -22 28 -63 71 -92 98 -29 26 -46 47 -38
47 16 0 46 -28 238 -226 69 -71 137 -138 150 -150 13 -11 79 -78 147 -148 68
-71 125 -126 128 -124 2 3 -138 148 -311 323 -173 176 -315 322 -315 325 0 3
36 6 80 7 43 1 78 -2 77 -7z m422 -58 l54 -67 -46 44 c-69 66 -66 44 3 -24 33
-33 60 -66 60 -74 0 -9 -16 0 -40 24 -22 21 -40 34 -40 28 0 -6 18 -27 39 -46
36 -32 40 -41 38 -77 -2 -23 1 -44 5 -46 5 -3 6 -10 3 -15 -4 -5 -17 3 -30 19
-14 15 -25 22 -25 16 0 -6 11 -21 25 -34 14 -13 25 -30 25 -39 0 -10 -12 -3
-35 19 -19 19 -35 29 -35 22 0 -6 15 -23 34 -37 26 -20 34 -33 34 -56 -1 -16
-5 -32 -9 -35 -5 -2 -5 -12 -2 -22 5 -12 -1 -11 -20 7 -15 14 -29 22 -32 19
-3 -3 8 -17 25 -31 16 -14 30 -33 30 -43 0 -12 -10 -6 -35 22 -22 25 -34 49
-35 68 l0 30 30 -29 c17 -16 30 -24 30 -18 0 7 -13 21 -28 32 -27 19 -29 25
-31 98 -4 171 -7 192 -36 233 -15 22 -36 42 -46 45 -30 10 -23 35 9 34 21 0
39 -15 81 -67z m58 37 c14 -16 30 -29 36 -29 6 0 -2 14 -18 30 l-29 30 29 0
c16 0 38 -8 49 -17 20 -17 20 -17 7 0 -12 15 -11 17 3 17 20 0 21 -29 1 -37
-9 -3 -26 3 -38 13 l-22 19 19 -23 c18 -20 18 -24 5 -38 -14 -13 -20 -11 -54
20 -21 20 -41 33 -44 30 -3 -3 13 -21 37 -40 38 -32 55 -64 34 -64 -8 0 -57
50 -95 97 -18 21 -18 21 19 21 29 0 43 -7 61 -29z m13 -115 c0 -8 -4 -12 -10
-9 -5 3 -10 10 -10 16 0 5 5 9 10 9 6 0 10 -7 10 -16z m-583 -76 c14 -15 21
-36 21 -61 l0 -39 -25 24 -26 23 18 -27 c9 -16 21 -28 25 -28 4 0 8 -17 8 -37
0 -37 -1 -38 -15 -15 -9 12 -20 22 -26 22 -6 0 1 -12 15 -27 23 -24 26 -36 26
-93 0 -36 3 -74 7 -85 5 -12 -5 -6 -23 15 -17 19 -31 31 -32 25 0 -20 129
-145 150 -145 15 0 20 -5 18 -17 -2 -10 -11 -16 -19 -14 -8 2 -25 3 -39 3 -17
0 -40 16 -72 52 -26 28 -47 46 -48 41 0 -6 18 -29 40 -50 22 -21 40 -42 40
-46 0 -3 -13 -6 -29 -7 -20 0 -38 10 -62 34 -46 48 -27 56 21 9 22 -22 40 -34
40 -28 0 6 -16 25 -36 41 -30 25 -34 33 -28 56 l7 28 63 -63 c35 -35 64 -59
64 -53 0 5 -27 36 -59 68 l-60 59 2 118 1 119 25 -23 26 -22 -26 30 c-17 20
-26 41 -26 63 l0 32 24 -22 c13 -12 23 -17 23 -11 0 5 -11 20 -25 33 -25 24
-32 40 -17 40 5 0 18 -10 29 -22z m188 -113 c23 -22 61 -58 85 -80 54 -48 280
-282 280 -290 0 -16 -24 1 -71 50 -29 30 -57 55 -63 55 -6 -1 5 -15 25 -33 50
-45 65 -67 48 -67 -14 0 -124 127 -124 142 0 5 -49 60 -108 122 -113 120 -187
208 -187 222 0 5 17 -11 37 -36 21 -25 56 -63 78 -85z m-242 -345 c19 -18 26
-30 18 -30 -16 0 -61 38 -61 52 0 14 10 9 43 -22z m-28 -10 c18 -19 17 -20 -3
-20 -12 0 -22 5 -22 10 0 6 -4 10 -10 10 -5 0 -7 -8 -3 -17 4 -14 3 -15 -6 -7
-14 13 -4 44 14 44 6 0 20 -9 30 -20z"/>
<path d="M240 827 c0 -7 219 -228 250 -252 14 -11 -10 15 -52 57 -43 42 -78
81 -78 86 0 6 -27 33 -60 62 -33 29 -60 50 -60 47z"/>
<path d="M708 655 c12 -25 50 -60 57 -53 3 2 -12 20 -31 39 -23 21 -33 26 -26
14z"/>
<path d="M710 614 c0 -6 14 -23 30 -39 17 -16 30 -24 30 -19 0 6 -13 23 -30
39 -16 16 -30 24 -30 19z"/>
<path d="M730 455 c13 -14 28 -25 33 -25 6 0 0 11 -13 25 -13 14 -28 25 -33
25 -6 0 0 -11 13 -25z"/>
<path d="M185 410 c10 -11 20 -20 23 -20 3 0 -3 9 -13 20 -10 11 -20 20 -23
20 -3 0 3 -9 13 -20z"/>
<path d="M179 383 c12 -24 31 -39 31 -25 0 5 -10 17 -21 28 -22 19 -22 19 -10
-3z"/>
<path d="M185 330 c10 -11 20 -20 22 -20 2 0 -1 9 -7 20 -6 11 -16 20 -22 20
-6 0 -3 -9 7 -20z"/>
<path d="M585 260 c10 -11 20 -20 23 -20 3 0 -3 9 -13 20 -10 11 -20 20 -23
20 -3 0 3 -9 13 -20z"/>
<path d="M2597 646 c-102 -37 -157 -100 -157 -178 0 -70 37 -107 175 -173 124
-59 140 -73 131 -110 -8 -31 -64 -48 -118 -36 -70 16 -139 74 -149 125 -3 13
-14 20 -36 22 -18 2 -33 -1 -33 -6 0 -6 4 -10 9 -10 5 0 9 -44 8 -98 l0 -97
26 -3 c25 -3 27 -1 27 33 l0 36 29 -21 c17 -11 59 -28 95 -36 198 -49 377 85
307 229 -24 50 -85 88 -201 127 -82 27 -110 45 -110 70 0 11 11 27 26 36 22
15 32 15 82 5 76 -17 99 -33 113 -81 11 -38 15 -41 43 -38 17 2 30 6 29 11 -2
4 -3 51 -3 106 l0 99 -32 -4 c-18 -1 -37 -3 -41 -3 -5 -1 -6 -5 -3 -9 2 -4 1
-13 -3 -20 -6 -10 -18 -8 -52 7 -63 27 -117 33 -162 17z m100 -38 c36 -35 46
-28 12 8 l-21 23 21 -6 c11 -3 21 -10 21 -15 0 -5 4 -6 10 -3 14 9 44 -10 95
-59 43 -43 56 -66 35 -66 -5 0 -10 5 -10 10 0 6 -5 10 -12 10 -6 0 -1 -11 12
-25 19 -20 20 -25 7 -25 -17 0 -41 35 -33 49 3 4 -17 30 -44 56 -46 45 -71 55
-33 13 15 -16 5 -27 -11 -11 -7 7 -38 13 -70 14 -20 0 -77 39 -71 48 2 4 16 8
31 9 20 1 38 -7 61 -30z m166 24 c2 7 4 -5 4 -27 -1 -22 2 -46 7 -53 12 -20
-9 -13 -31 11 -24 25 -22 87 2 67 9 -8 14 -7 18 2z m-236 -58 c-4 -4 -18 3
-32 16 -27 25 -35 17 -10 -10 14 -15 11 -60 -4 -60 -4 0 -22 16 -41 35 -21 22
-28 35 -19 35 7 0 25 9 39 20 25 19 25 19 49 -5 14 -13 22 -28 18 -31z m65
-184 c101 -99 187 -180 192 -180 4 0 -46 54 -112 120 -67 66 -119 120 -116
120 24 0 107 -36 118 -51 7 -10 40 -48 75 -84 62 -66 62 -66 49 -101 -6 -18
-16 -34 -21 -34 -4 0 -94 87 -199 193 -105 105 -168 165 -140 132 28 -33 113
-124 190 -202 77 -78 137 -145 134 -148 -3 -3 -25 14 -49 37 -52 51 -58 39 -6
-14 20 -21 33 -38 27 -38 -13 0 -69 60 -77 83 -4 10 -21 25 -39 35 -18 9 -84
67 -147 127 -62 61 -108 100 -102 88 8 -16 8 -23 1 -23 -6 0 -8 -5 -4 -12 6
-9 9 -9 12 0 5 15 69 -36 113 -90 45 -56 12 -35 -46 30 -26 28 -52 52 -58 52
-6 0 9 -20 33 -45 24 -25 39 -45 33 -45 -5 0 -31 22 -56 49 -40 43 -45 53 -42
86 2 20 6 39 10 43 3 3 50 -41 104 -99 55 -58 116 -118 137 -134 36 -27 -159
183 -214 232 -22 18 -24 24 -13 37 8 9 17 16 22 16 5 0 91 -81 191 -180z m169
-39 c27 -26 49 -56 49 -67 0 -10 -3 -14 -8 -8 -5 5 -32 35 -62 67 -64 69 -47
77 21 8z m-389 -101 c9 -23 8 -23 -12 -5 -22 20 -27 39 -8 33 6 -2 15 -15 20
-28z m69 -91 c40 -51 20 -50 -35 1 -24 22 -47 40 -52 40 -5 0 0 -7 10 -15 17
-13 18 -15 2 -21 -13 -5 -14 -9 -5 -20 6 -8 9 -21 5 -29 -12 -33 -21 -11 -23
60 l-2 75 35 -26 c19 -15 48 -44 65 -65z m279 -30 c0 -15 -12 -11 -37 13 -33
31 -28 43 7 18 17 -12 30 -26 30 -31z m-234 16 c10 -8 28 -15 39 -15 11 0 29
-7 39 -15 20 -15 20 -15 0 -15 -11 0 -26 6 -33 13 -11 10 -13 10 -7 0 13 -23
-13 -14 -46 17 -34 30 -28 42 8 15z m188 -14 c16 -18 16 -19 -10 -25 -18 -5
-32 -2 -42 8 -24 23 -6 32 20 10 13 -10 17 -12 11 -4 -7 8 -13 18 -13 22 0 14
16 9 34 -11z m-64 -16 c17 -20 -7 -20 -34 0 -19 15 -19 15 1 15 11 0 26 -7 33
-15z"/>
<path d="M2645 610 c10 -11 23 -20 28 -20 6 0 2 9 -8 20 -10 11 -23 20 -28 20
-6 0 -2 -9 8 -20z"/>
<path d="M2830 596 c0 -2 7 -9 15 -16 9 -7 15 -8 15 -2 0 5 -7 12 -15 16 -8 3
-15 4 -15 2z"/>
<path d="M2555 570 c10 -11 20 -18 23 -15 7 6 -18 35 -31 35 -5 0 -2 -9 8 -20z"/>
<path d="M2785 338 c82 -87 149 -143 80 -67 -86 95 -140 149 -148 149 -5 0 26
-37 68 -82z"/>
<path d="M2740 256 c0 -2 8 -10 18 -17 15 -13 16 -12 3 4 -13 16 -21 21 -21
13z"/>
<path d="M1050 634 c-60 -26 -98 -62 -126 -121 -36 -77 -38 -189 -4 -255 28
-56 85 -114 135 -141 59 -31 162 -29 235 5 48 22 168 113 169 129 1 3 -13 15
-30 28 l-30 22 -41 -36 c-44 -40 -94 -65 -130 -65 -58 0 -117 68 -132 153 l-7
37 108 3 c59 1 140 1 180 1 l72 -1 -5 31 c-9 51 -63 154 -92 174 -70 50 -227
69 -302 36z m85 -14 c22 -24 9 -27 -17 -3 -20 18 -25 4 -6 -15 20 -20 -1 -26
-22 -7 -30 27 -26 35 21 44 3 0 14 -8 24 -19z m45 5 c7 -9 10 -18 7 -21 -7 -8
-47 14 -47 26 0 15 26 12 40 -5z m139 -100 c63 -63 108 -115 100 -115 -14 0
-229 208 -229 222 0 19 22 1 129 -107z m10 33 c42 -40 66 -62 56 -48 -11 13
-38 41 -60 62 -48 45 -30 51 20 7 32 -28 63 -74 66 -96 1 -5 4 -14 7 -21 12
-32 -10 -15 -98 73 -110 111 -102 130 9 23z m-250 38 c16 -17 21 -31 16 -45
-6 -21 -7 -21 -43 6 l-37 27 40 -43 c49 -53 34 -51 -26 3 -24 22 -38 41 -32
43 5 2 19 10 29 18 25 19 27 19 53 -9z m133 -23 c8 -10 18 -31 22 -48 4 -16 9
-38 12 -47 5 -16 -3 -18 -74 -18 l-79 0 8 48 c10 51 37 82 74 82 12 0 29 -8
37 -17z m-178 -52 c27 -27 46 -55 43 -63 -2 -7 2 -21 11 -31 8 -9 12 -20 9
-23 -3 -4 -38 24 -76 61 -61 59 -68 69 -58 86 6 10 14 19 17 19 3 0 27 -22 54
-49z m339 -111 c-7 -7 -133 126 -133 141 0 7 31 -21 69 -62 38 -41 67 -76 64
-79z m-361 45 c37 -36 66 -73 66 -82 -1 -31 11 -74 27 -99 33 -51 -7 -20 -89
68 -47 51 -88 90 -91 86 -8 -7 204 -220 213 -214 12 7 47 -17 81 -57 23 -25
28 -37 18 -37 -8 0 -33 21 -56 47 -22 27 -40 44 -41 38 0 -5 16 -27 35 -47 19
-20 35 -39 35 -41 0 -2 -14 -4 -31 -5 -24 -1 -38 8 -67 41 -20 23 -74 81 -120
129 -46 47 -82 92 -80 98 2 6 59 -49 127 -122 68 -73 129 -135 135 -137 16 -6
-33 50 -155 178 -93 97 -108 117 -103 138 6 24 8 23 68 -34 33 -33 70 -65 81
-72 11 -7 -16 22 -60 65 -72 71 -80 81 -70 102 5 12 10 22 10 22 1 0 31 -29
67 -65z m328 -41 c0 -7 -100 -1 -105 6 -3 6 -11 10 -17 10 -7 0 -7 -5 1 -14
19 -23 -54 -18 -75 5 -22 24 1 26 28 2 10 -9 18 -11 18 -5 0 6 -6 12 -12 15
-7 2 -10 8 -6 12 4 4 13 3 20 -1 7 -5 23 -7 36 -5 12 1 22 -2 22 -8 0 -6 4
-11 10 -11 5 0 7 8 3 18 -6 15 -4 15 15 -2 30 -26 28 -11 -3 26 -43 51 -27 53
20 2 25 -26 45 -49 45 -50z m-205 6 c15 -16 15 -20 3 -20 -8 0 -23 9 -33 20
-15 16 -15 20 -3 20 8 0 23 -9 33 -20z m-35 -273 c17 -20 27 -37 22 -37 -6 0
-14 5 -17 10 -4 6 -10 8 -15 5 -35 -21 -187 140 -165 175 3 5 1 11 -5 15 -5 3
-10 13 -10 20 0 13 110 -96 190 -188z m320 118 c18 -22 3 -32 -23 -16 -21 13
-22 13 -4 -6 22 -26 10 -38 -16 -16 -19 17 -19 17 -6 -4 12 -19 10 -24 -12
-42 -29 -25 -43 -26 -59 -6 -19 23 -3 31 20 10 21 -19 29 -8 9 12 -8 8 0 21
28 47 44 41 46 41 63 21z m-160 -100 c35 -37 14 -44 -23 -7 -22 22 -27 32 -16
32 9 0 26 -11 39 -25z m32 8 c10 -9 18 -20 18 -25 0 -16 -18 -8 -34 17 -19 29
-11 33 16 8z"/>
<path d="M1060 575 c13 -14 26 -23 28 -20 6 6 -33 45 -44 45 -4 0 3 -11 16
-25z"/>
<path d="M970 544 c0 -12 89 -98 95 -92 3 2 -18 26 -45 53 -28 27 -50 45 -50
39z"/>
<path d="M980 444 c25 -25 54 -50 65 -56 11 -6 -7 15 -40 46 -72 68 -86 74
-25 10z"/>
<path d="M967 255 c48 -58 123 -132 123 -122 0 3 -10 17 -22 29 -13 13 -44 47
-70 75 -63 68 -84 80 -31 18z"/>
<path d="M1340 211 c0 -5 5 -13 10 -16 6 -3 10 -2 10 4 0 5 -4 13 -10 16 -5 3
-10 2 -10 -4z"/>
<path d="M2380 636 c-3 -3 -52 -6 -108 -7 l-102 -1 0 -29 c0 -24 4 -29 23 -29
13 0 31 -6 41 -13 17 -12 15 -19 -23 -111 -45 -111 -48 -116 -61 -96 -18 29
-101 223 -106 249 -5 24 -9 26 -52 25 -66 -1 -74 -3 -68 -13 7 -10 -43 -166
-74 -235 l-22 -48 -27 48 c-15 27 -38 75 -52 107 -23 58 -23 59 -4 73 10 8 28
14 40 14 18 0 21 5 18 28 l-5 27 -165 -3 c-132 -2 -164 -6 -160 -16 3 -8 0
-19 -6 -25 -6 -6 -7 -11 -2 -12 57 -4 87 -34 116 -112 12 -34 41 -103 65 -154
23 -50 49 -113 58 -140 l16 -48 43 3 c49 4 42 -7 123 182 25 58 47 107 49 109
6 5 71 -129 106 -219 18 -47 34 -79 37 -72 2 7 22 12 51 12 l47 0 43 123 c24
67 54 154 67 192 23 68 60 115 88 115 8 0 16 6 18 13 5 16 -5 71 -12 63z m-16
-35 c12 -13 14 -21 6 -26 -10 -6 -50 25 -50 40 0 12 28 4 44 -14z m16 9 c0 -5
-2 -10 -4 -10 -3 0 -8 5 -11 10 -3 6 -1 10 4 10 6 0 11 -4 11 -10z m-727 -88
c48 -48 87 -82 87 -77 1 6 -37 45 -82 87 -46 43 -76 78 -68 78 29 0 172 -152
157 -166 -3 -3 8 -24 24 -47 33 -45 40 -76 8 -37 -38 47 -233 239 -238 234 -3
-2 48 -56 113 -120 65 -63 116 -117 114 -120 -3 -2 -32 22 -65 53 -91 89 -183
168 -199 171 -14 3 -18 14 -9 24 3 2 20 5 38 5 27 1 45 -12 120 -85z m26 56
c31 -30 33 -30 19 -7 -16 26 -16 26 13 27 16 0 31 -4 35 -9 10 -18 -5 -23 -23
-8 -16 13 -17 12 -5 -3 9 -12 10 -18 2 -23 -6 -4 -9 -14 -5 -23 3 -8 -16 4
-42 28 -27 24 -50 45 -52 47 -2 2 2 3 9 3 8 0 30 -15 49 -32z m109 14 c3 -9
-2 -13 -14 -10 -9 1 -19 9 -22 16 -3 9 2 13 14 10 9 -1 19 -9 22 -16z m243 -4
c6 -11 8 -22 6 -25 -3 -2 -10 5 -17 16 -6 12 -16 21 -22 21 -7 0 2 -15 19 -32
58 -62 59 -87 1 -30 -84 82 -80 61 5 -27 42 -43 77 -83 77 -87 0 -5 -36 28
-80 73 -49 51 -77 88 -74 97 9 22 72 18 85 -6z m228 -17 c34 -31 41 -44 36
-61 -4 -13 -12 -19 -21 -16 -8 3 -14 1 -14 -4 0 -6 5 -10 10 -10 6 0 10 -8 10
-17 0 -13 -3 -14 -12 -5 -20 20 -32 13 -13 -8 22 -24 13 -38 -12 -19 -17 13
-17 13 0 -7 20 -24 11 -40 -12 -21 -14 10 -14 10 -3 -4 12 -16 11 -45 -3 -81
-6 -15 -11 -16 -28 -6 -22 11 -22 11 -3 -10 14 -16 16 -27 9 -48 -9 -26 -11
-24 -136 106 -70 73 -130 130 -133 128 -2 -3 54 -66 126 -141 103 -107 129
-140 122 -152 -7 -14 -28 3 -115 89 -59 58 -107 111 -107 118 0 7 11 0 24 -17
13 -16 27 -28 30 -25 3 3 -20 30 -52 60 -31 30 -51 48 -44 40 17 -20 15 -33
-5 -25 -15 5 -16 4 -5 -6 17 -18 15 -32 -4 -25 -14 5 -15 4 -5 -8 8 -9 8 -16
2 -20 -22 -14 -21 19 5 99 16 47 31 85 35 85 9 0 180 -184 192 -207 5 -10 -34
25 -86 77 -52 52 -101 96 -108 99 -7 2 34 -44 91 -102 57 -59 107 -104 112
-101 4 3 8 -1 8 -8 1 -14 34 -58 44 -58 4 0 0 10 -8 23 -9 12 -13 32 -9 45 6
25 14 27 31 10 7 -7 12 -8 12 -4 0 5 -8 15 -17 23 -16 13 -16 14 7 8 21 -4 22
-3 9 6 -15 11 -14 16 2 58 10 25 25 61 35 80 17 34 17 34 -10 58 -15 13 -34
23 -42 23 -8 0 -14 5 -14 10 0 21 28 9 69 -29z m36 9 c42 -44 21 -50 -23 -7
-24 24 -31 37 -21 37 8 0 28 -13 44 -30z m30 10 c28 -31 8 -37 -23 -7 -19 20
-22 27 -11 27 9 0 24 -9 34 -20z m-587 -235 c100 -98 111 -115 92 -145 -8 -12
-25 0 -89 64 -44 44 -83 77 -86 74 -3 -3 33 -41 79 -86 46 -44 81 -83 78 -87
-3 -3 -35 23 -70 57 -41 40 -57 51 -43 31 12 -18 40 -47 61 -66 22 -19 40 -40
40 -47 0 -8 -18 4 -40 25 -22 21 -40 34 -40 28 0 -6 14 -23 32 -37 18 -14 29
-28 25 -32 -4 -4 -16 1 -27 11 -20 18 -21 18 -14 0 5 -13 4 -16 -5 -11 -6 4
-10 13 -9 19 1 7 -3 22 -10 35 -10 17 -10 22 -1 22 7 0 2 11 -11 25 -13 14
-24 33 -25 44 -1 11 -7 26 -14 35 -7 8 -14 21 -15 28 -1 7 -12 32 -24 56 -13
23 -20 47 -17 51 2 5 -2 14 -10 21 -8 7 -15 17 -15 23 0 13 30 -13 158 -138z
m147 15 c11 -18 -15 -82 -31 -76 -8 3 -14 1 -14 -3 0 -5 6 -11 13 -14 6 -2 8
-8 4 -13 -4 -4 -26 11 -49 34 -23 23 -40 44 -37 47 3 3 18 -7 33 -22 23 -22
29 -25 37 -13 5 8 9 21 9 29 0 8 6 11 18 6 14 -5 15 -4 5 6 -7 7 -13 17 -13
21 0 11 18 10 25 -2z m283 -215 c-3 -3 -29 19 -58 49 -29 31 -58 56 -64 56 -5
0 14 -25 44 -55 29 -30 51 -58 47 -62 -11 -10 -96 78 -100 104 -1 11 -8 27
-14 35 -6 7 -16 24 -23 38 -7 14 30 -16 81 -67 51 -51 90 -95 87 -98z m-72
-12 c-4 -4 -14 1 -22 11 -22 31 -17 43 8 19 12 -13 18 -26 14 -30z"/>
<path d="M2021 354 c1 -5 38 -43 82 -84 44 -41 72 -63 61 -49 -25 33 -144 144
-143 133z"/>
<path d="M1610 445 c1 -14 207 -231 213 -225 3 3 -44 57 -104 120 -60 63 -109
111 -109 105z"/>
</g>
</svg>
