<?xml version="1.0" standalone="no"?>
<!DOCTYPE svg PUBLIC "-//W3C//DTD SVG 20010904//EN"
 "http://www.w3.org/TR/2001/REC-SVG-20010904/DTD/svg10.dtd">
<svg version="1.0" xmlns="http://www.w3.org/2000/svg"
 width="300.000000pt" height="300.000000pt" viewBox="0 0 300.000000 300.000000"
 preserveAspectRatio="xMidYMid meet">
<metadata>
Created by potrace 1.10, written by Peter Selinger 2001-2011
</metadata>
<g transform="translate(0.000000,300.000000) scale(0.050000,-0.050000)"
fill="#000000" stroke="none">
<path d="M162 5987 c11 -66 -3 -86 -50 -68 -74 28 -79 -1 -6 -37 69 -35 94
-104 53 -153 -27 -33 -28 -32 138 -67 152 -32 185 -28 118 13 -30 19 -55 42
-55 51 0 9 -8 11 -18 5 -10 -6 -14 9 -8 34 7 33 4 38 -10 18 -24 -34 -53 4
-36 48 6 16 4 28 -4 26 -39 -6 -65 5 -54 23 7 11 4 20 -7 20 -11 0 -23 -7 -28
-15 -5 -8 -4 -1 0 15 18 58 15 86 -11 95 -14 5 -24 1 -22 -8z"/>
<path d="M4610 5980 c-7 -11 -3 -20 10 -20 15 0 15 -13 -2 -43 -20 -37 -18
-41 11 -30 19 7 38 13 43 13 5 0 0 17 -11 37 -11 21 -14 43 -7 50 7 7 3 13 -9
13 -13 0 -28 -9 -35 -20z"/>
<path d="M404 5859 c24 -32 53 -59 65 -60 11 0 5 -12 -14 -27 -19 -14 -29 -31
-22 -38 6 -7 24 0 38 14 29 29 16 119 -13 101 -10 -7 -23 2 -30 18 -6 17 -24
35 -40 41 -18 7 -12 -11 16 -49z"/>
<path d="M1554 5885 c-18 -32 1 -111 31 -127 21 -12 29 -40 25 -88 -5 -48 1
-70 19 -70 27 0 65 212 43 235 -7 6 -12 -6 -12 -27 -1 -34 -5 -32 -39 11 -21
28 -34 57 -28 65 5 9 0 16 -11 16 -11 0 -23 -7 -28 -15z"/>
<path d="M55 5815 c-64 -21 -74 -85 -16 -100 48 -13 101 43 84 87 -10 25 -24
28 -68 13z"/>
<path d="M1305 5799 c-45 -18 -53 -36 -46 -109 4 -40 4 -40 -26 0 -16 22 -24
49 -18 60 6 11 -1 9 -15 -4 -21 -20 -22 -30 -1 -55 21 -25 21 -37 1 -61 -23
-27 -28 -27 -48 1 -20 28 -23 26 -23 -11 0 -34 9 -40 44 -31 25 6 47 1 52 -13
4 -14 20 3 35 38 19 42 38 58 59 50 25 -9 25 -4 -4 29 -46 53 -44 87 5 87 22
0 40 9 40 20 0 11 -2 19 -5 19 -3 -1 -25 -10 -50 -20z"/>
<path d="M1793 5705 c2 -30 5 -73 6 -95 2 -38 3 -38 23 -4 12 20 16 50 10 66
-7 17 -3 25 8 18 30 -18 24 9 -9 41 -39 40 -43 37 -38 -26z"/>
<path d="M3870 5720 c6 -9 29 -14 50 -10 22 4 40 -1 40 -12 0 -11 11 -18 25
-16 39 6 96 -24 84 -44 -6 -10 -3 -18 8 -18 10 0 24 13 30 30 12 31 71 20 98
-19 9 -13 14 -11 15 7 0 22 9 20 39 -7 21 -19 47 -29 58 -23 11 7 24 1 30 -13
6 -16 10 -14 11 7 2 28 -155 94 -198 84 -5 -2 -21 7 -35 18 -18 15 -35 13 -59
-7 -23 -18 -29 -19 -19 -2 9 15 5 26 -11 28 -131 13 -176 13 -166 -3z"/>
<path d="M465 5707 c-19 -8 -17 -18 5 -40 17 -17 26 -38 20 -47 -6 -10 -11
-115 -11 -234 -1 -339 -17 -463 -56 -453 -18 4 -121 19 -228 34 l-195 26 0
-57 c0 -39 10 -56 35 -58 21 -1 25 -5 10 -11 -14 -6 -25 -20 -25 -31 0 -12 13
-10 31 5 17 14 26 37 21 52 -6 15 2 27 18 27 17 0 24 -12 18 -29 -7 -16 -6
-38 1 -49 14 -24 71 -7 71 21 0 11 -9 14 -20 7 -11 -7 -20 -2 -20 11 0 13 14
18 32 11 17 -7 35 -12 39 -12 4 0 3 -13 -4 -30 -7 -20 1 -30 26 -30 28 -1 31
-5 10 -18 -17 -11 -20 -22 -7 -30 11 -7 24 -5 27 5 4 9 38 23 76 30 37 7 63 8
56 2 -29 -30 70 -88 165 -97 107 -11 160 -45 160 -106 1 -29 4 -30 18 -8 10
16 13 43 7 60 -8 25 -5 27 14 9 14 -13 38 -19 53 -13 16 6 28 0 28 -12 0 -12
10 -22 21 -22 12 0 16 9 9 20 -19 31 18 24 61 -11 22 -18 28 -26 14 -19 -14 7
-25 3 -25 -9 0 -11 8 -21 17 -21 9 0 16 -13 16 -30 0 -16 -8 -30 -18 -30 -9 0
-13 -8 -7 -17 6 -10 -11 -15 -39 -12 -27 3 -49 -5 -50 -18 0 -13 -14 7 -29 43
-24 54 -70 75 -70 32 0 -6 8 -5 18 1 18 11 42 -33 42 -79 0 -16 -15 -22 -40
-16 -23 6 -40 27 -40 50 0 21 -9 33 -20 26 -11 -7 -20 -1 -20 14 -1 21 -4 21
-18 -1 -16 -25 -50 39 -44 82 1 8 -7 15 -18 15 -26 0 -26 -34 0 -50 32 -20
-73 -112 -111 -97 -26 10 -27 16 -6 30 16 10 -20 14 -90 8 -103 -8 -115 -5
-104 25 10 26 8 29 -10 10 -16 -15 -40 -17 -72 -5 -31 12 -47 11 -47 -4 0 -12
-20 -17 -45 -11 -25 6 -63 3 -85 -6 -22 -10 -29 -18 -15 -19 14 0 25 -11 25
-22 0 -12 -9 -16 -20 -9 -11 7 -20 0 -20 -16 0 -27 317 -82 610 -105 55 -4
159 -16 230 -27 170 -26 278 -39 237 -28 -57 15 -60 186 -3 186 36 0 45 -13
50 -75 l6 -75 210 -24 c116 -13 314 -34 440 -46 285 -28 404 -55 354 -83 -19
-11 -53 -14 -75 -7 -23 8 -54 3 -69 -10 -16 -13 -36 -18 -46 -12 -10 6 -66 13
-123 15 -85 3 -108 11 -120 44 -14 39 -15 39 -26 -4 -7 -28 0 -50 22 -62 38
-23 -90 -30 -145 -9 -57 22 -34 47 33 38 57 -8 59 -7 15 8 -81 29 -126 26
-113 -8 16 -41 52 -44 -637 39 -55 6 -171 17 -258 23 -87 7 -191 22 -230 35
-86 27 -397 13 -332 -16 22 -9 58 -31 80 -49 37 -30 38 -30 12 3 -33 43 63 48
302 15 127 -17 1388 -140 1438 -140 10 0 18 -8 18 -18 0 -20 -103 -45 -185
-44 -30 0 -55 -8 -55 -18 0 -10 13 -14 28 -8 15 6 33 2 40 -9 7 -10 -15 -29
-48 -40 -36 -13 -60 -13 -60 -2 0 10 -18 19 -40 19 -22 0 -40 10 -40 22 0 12
-12 18 -26 12 -15 -5 -38 7 -51 28 -13 21 -35 38 -48 37 -15 0 -11 -11 10 -27
43 -32 46 -55 5 -39 -16 6 -30 2 -30 -9 0 -20 80 -50 167 -62 10 -1 6 -16 -8
-34 -22 -26 -22 -34 2 -49 18 -12 -8 -14 -71 -6 -55 7 -102 19 -105 25 -3 7
-50 9 -105 5 -55 -4 -100 1 -100 12 0 10 28 14 63 9 42 -6 58 -2 49 12 -13 22
-78 19 -167 -8 -38 -11 -43 -7 -33 25 13 36 12 36 -15 0 -43 -54 -317 -28
-302 29 7 29 -1 38 -35 38 -32 0 -41 -9 -32 -31 10 -27 -7 -30 -133 -18 -159
16 -178 22 -135 49 24 15 25 23 5 43 -19 19 -25 19 -25 1 0 -13 -19 -24 -41
-24 -23 0 -36 -9 -29 -20 7 -12 -18 -19 -64 -18 -42 2 -60 7 -41 12 20 5 31
17 25 27 -6 9 -25 12 -41 6 -21 -8 -27 -1 -19 26 6 20 -3 10 -19 -23 -16 -33
-30 -48 -30 -34 -1 15 -10 21 -21 14 -11 -7 -34 2 -52 19 -17 17 -41 31 -54
30 -13 0 -7 -13 15 -30 34 -25 34 -29 5 -29 -58 0 -37 -40 21 -41 30 -1 213
-17 405 -36 l350 -33 -7 -280 c-5 -154 -14 -347 -22 -430 -8 -82 -7 -153 2
-157 9 -3 17 -18 17 -32 0 -15 11 -26 25 -26 105 4 115 -3 115 -86 0 -84 -28
-129 -80 -129 -20 0 -28 -16 -24 -50 3 -27 8 -95 12 -150 9 -143 10 -145 42
-90 22 38 29 42 29 15 1 -19 10 -35 20 -35 11 0 14 -14 8 -31 -9 -23 -28 -28
-75 -18 -34 8 -55 7 -47 -2 8 -9 0 -32 -18 -52 -18 -21 -25 -37 -15 -37 10 0
-4 -12 -32 -27 -27 -14 -48 -37 -45 -50 3 -12 -4 -23 -15 -23 -11 0 -20 -15
-20 -32 0 -27 -5 -28 -30 -8 -19 15 -30 17 -30 4 0 -12 20 -27 45 -34 134 -39
126 -39 89 -1 -42 42 -43 59 -3 92 28 23 30 19 19 -33 l-12 -58 32 55 c17 30
36 55 42 55 6 0 4 -10 -4 -23 -9 -14 -5 -18 8 -9 12 7 17 26 12 41 -6 15 9 48
34 73 32 32 41 35 32 11 -7 -18 -5 -33 5 -33 10 0 21 11 26 25 7 20 16 19 41
-2 29 -24 32 -20 24 37 -4 35 -21 74 -37 87 -28 21 -41 68 -35 127 1 15 16 19
36 12 30 -12 29 -14 -5 -26 -32 -12 -30 -15 17 -24 72 -14 82 7 31 63 -27 29
-45 78 -49 138 -6 88 -6 89 9 20 24 -109 75 -174 164 -210 43 -17 79 -40 79
-52 0 -11 -15 -8 -33 8 -30 24 -32 22 -20 -28 8 -30 6 -55 -3 -55 -10 0 -17
-13 -17 -30 0 -46 20 -36 57 30 l34 59 81 -53 c44 -29 77 -57 71 -62 -5 -5
-23 2 -39 16 -17 13 -49 20 -71 14 -22 -6 -35 -2 -29 8 6 10 2 18 -10 18 -41
0 -20 -61 28 -83 58 -27 58 -82 0 -127 -33 -25 -34 -32 -10 -48 23 -15 24 -25
4 -49 -17 -20 -18 -34 -4 -43 12 -7 16 -23 8 -34 -7 -12 3 -34 24 -49 43 -32
23 -36 -32 -6 -47 25 -50 13 -8 -30 18 -17 22 -31 10 -31 -11 0 -21 -9 -21
-19 0 -11 15 -14 33 -7 26 10 31 5 20 -22 -7 -19 -13 -50 -13 -67 0 -17 -6
-26 -13 -19 -14 14 -67 -21 -67 -44 0 -8 20 -15 45 -17 35 -3 38 1 15 16 -27
16 -26 18 0 18 55 -1 99 -52 105 -121 5 -66 49 -126 124 -169 21 -12 39 -43
41 -70 7 -95 61 -179 116 -179 10 0 8 -13 -5 -28 -19 -24 -15 -27 23 -19 37 8
40 6 16 -11 -26 -18 -25 -21 7 -22 27 0 34 -9 24 -35 -11 -28 -8 -30 12 -10
30 30 65 33 47 5 -7 -11 -4 -20 6 -20 28 0 43 -73 20 -96 -13 -13 -4 -25 27
-35 70 -22 143 -83 112 -94 -14 -5 -18 -17 -10 -25 8 -9 29 -3 48 12 23 19 30
20 20 3 -19 -32 28 -81 65 -69 17 6 22 0 14 -13 -8 -13 -30 -23 -48 -23 -28
-1 -29 -4 -5 -19 17 -11 43 -11 64 0 42 23 62 -3 44 -54 -7 -20 -6 -30 3 -22
9 8 30 3 47 -10 17 -14 25 -16 18 -4 -7 11 -4 34 6 50 14 23 18 19 19 -15 0
-39 9 -44 72 -39 46 4 76 -4 82 -20 11 -29 66 -38 66 -11 0 9 41 17 90 17 50
0 90 -8 90 -17 0 -10 19 -7 42 5 23 12 59 18 80 13 21 -6 38 -1 38 10 0 11 12
16 27 10 47 -18 164 17 157 47 -5 19 6 16 35 -10 41 -37 41 -37 41 17 0 47 6
53 45 42 33 -9 38 -7 16 7 -24 17 -24 25 -2 51 26 32 103 45 99 17 -7 -39 4
-52 21 -25 15 23 18 20 16 -16 -2 -28 -13 -41 -29 -35 -14 5 -26 1 -26 -10 0
-10 14 -19 30 -19 17 0 30 -9 30 -20 0 -11 10 -20 23 -20 12 0 35 -16 51 -35
16 -19 24 -25 18 -12 -7 13 2 28 18 34 17 7 30 22 30 35 0 17 -8 17 -29 -1
-21 -17 -39 -18 -65 -3 -22 12 -26 21 -10 21 15 1 21 9 15 20 -6 10 -3 24 9
31 11 7 20 -7 20 -31 0 -35 6 -39 28 -21 41 34 54 102 20 102 -50 0 -12 86 54
121 38 20 39 19 18 -24 -22 -46 -21 -46 10 -7 18 22 47 38 66 34 29 -4 28 0
-5 25 -21 17 -30 31 -20 31 11 0 29 31 41 70 18 58 17 66 -5 48 -38 -32 -34
-8 6 32 26 26 28 37 7 56 -18 17 -22 17 -13 1 7 -13 -2 -28 -19 -35 -22 -9
-29 -4 -22 15 6 15 -11 51 -38 79 -32 35 -40 56 -25 66 27 17 -35 56 -93 58
-22 1 -38 13 -35 26 3 13 -4 24 -15 24 -11 0 -20 -13 -20 -30 0 -16 -8 -30
-18 -30 -12 0 -12 26 -1 66 10 36 15 84 10 108 -11 56 9 128 31 115 10 -6 18
-3 18 8 0 10 28 29 63 41 35 12 58 28 51 34 -6 7 -39 3 -73 -8 -43 -16 -64
-15 -74 0 -8 13 -4 17 9 9 12 -8 40 6 63 30 49 53 53 86 8 69 -28 -11 -29 -8
-7 18 19 23 30 26 41 8 10 -16 26 -6 49 29 19 29 45 52 57 51 15 -1 14 -5 -2
-11 -14 -6 -25 -23 -25 -39 0 -15 -9 -28 -20 -28 -11 0 -20 -18 -20 -39 0 -28
9 -36 32 -28 25 10 26 16 5 29 -19 13 -20 17 -3 18 14 0 38 25 55 55 21 39 30
45 30 20 1 -57 33 -41 100 49 48 67 75 85 122 86 34 1 69 14 79 30 10 16 23
23 30 17 7 -7 44 -5 84 4 114 26 200 -121 210 -358 3 -58 12 -110 20 -116 9
-5 16 -27 16 -48 0 -22 10 -39 22 -39 12 0 17 13 11 30 -7 16 -5 30 3 30 28 0
22 82 -6 93 -43 16 -12 63 36 55 24 -5 33 -3 19 3 -35 17 -31 62 5 76 17 7 39
33 49 58 14 35 19 37 20 9 2 -61 141 -88 141 -26 0 37 -76 94 -92 69 -22 -36
-47 26 -48 118 0 105 78 122 160 35 26 -27 66 -50 88 -50 105 -1 128 -20 124
-102 -3 -43 4 -78 14 -78 11 0 7 -15 -8 -33 -15 -17 -24 -58 -21 -90 4 -42 -3
-57 -28 -57 -26 0 -30 11 -21 50 12 47 10 49 -26 27 -31 -20 -35 -33 -19 -63
11 -20 15 -42 9 -48 -18 -19 -153 -21 -164 -3 -18 29 -47 19 -35 -12 6 -17 17
-29 24 -28 36 5 63 -5 63 -22 0 -11 -12 -15 -27 -9 -18 7 -31 -8 -38 -42 -7
-35 0 -57 18 -64 23 -9 23 -16 3 -42 -20 -25 -20 -28 -1 -17 16 10 25 3 25
-21 0 -26 10 -20 37 24 43 68 38 90 -19 90 -22 0 -35 9 -28 20 7 11 46 20 87
20 103 0 168 48 118 88 -34 25 -33 28 9 39 25 6 54 3 65 -8 12 -12 7 -19 -14
-19 -21 0 -30 -11 -23 -28 6 -16 27 -23 49 -17 22 5 39 0 39 -13 0 -12 -13
-22 -29 -22 -18 0 -25 -12 -18 -30 9 -24 -1 -27 -46 -18 -49 9 -63 1 -96 -56
-21 -36 -52 -76 -69 -89 -26 -19 -26 -26 -1 -50 32 -31 110 22 82 56 -7 8 3 4
22 -11 29 -22 36 -22 47 6 9 23 26 29 55 21 34 -9 37 -7 13 9 -27 19 -15 31
25 24 15 -2 19 14 23 88 1 26 16 40 42 40 22 0 38 -11 35 -25 -8 -38 11 -30
35 15 18 33 16 37 -13 26 -24 -9 -29 -6 -17 14 11 17 8 21 -7 12 -32 -20 -30
52 2 88 14 16 3 11 -23 -11 -27 -21 -42 -28 -34 -14 8 14 4 25 -8 25 -12 0
-16 10 -9 22 8 12 2 31 -13 42 -19 13 -13 14 22 5 41 -11 45 -9 25 13 -14 14
-25 35 -24 47 0 12 17 1 38 -24 24 -29 50 -41 74 -33 31 10 32 8 7 -11 -23
-17 -2 -19 85 -10 83 9 115 6 115 -11 0 -17 17 -13 53 10 61 40 79 24 98 -90
7 -38 17 -83 24 -100 6 -16 9 -41 7 -55 -2 -14 7 -25 20 -25 16 0 20 27 11 89
-10 73 -6 90 23 97 25 7 22 10 -11 12 -35 1 -45 14 -45 57 1 39 6 47 18 28 13
-22 19 -22 26 -2 6 19 20 17 58 -8 42 -27 57 -28 86 -7 31 23 28 26 -31 30
-83 7 -77 -4 -79 152 -3 169 -32 158 287 108 l273 -43 7 -92 8 -91 3 105 c2
59 -5 105 -16 105 -11 0 -20 19 -20 41 0 23 9 36 20 29 11 -7 20 -3 20 9 0 29
-32 26 -64 -6 -14 -14 -39 -22 -54 -17 -19 6 -22 1 -11 -18 14 -24 12 -24 -17
-1 -18 15 -48 22 -67 15 -25 -10 -28 -7 -11 13 17 20 13 26 -15 26 -23 0 -32
-10 -26 -27 7 -19 -1 -25 -27 -20 -21 5 -36 19 -33 33 4 19 -4 19 -35 3 -28
-15 -52 -15 -80 0 -23 13 -40 14 -40 2 0 -11 -25 -9 -60 4 -33 13 -60 30 -60
40 0 9 -8 11 -18 5 -20 -12 -19 26 1 59 12 20 9 46 -14 125 -9 30 -5 45 12 45
18 0 15 11 -8 37 -52 57 -40 69 61 53 80 -12 90 -9 70 15 -13 16 -18 35 -10
42 7 7 2 13 -11 13 -13 0 -23 -10 -23 -21 0 -12 -20 -19 -45 -15 -28 4 -44 19
-42 41 1 19 -5 35 -15 35 -10 0 -18 -18 -18 -40 0 -42 -16 -48 -68 -28 -18 7
-27 20 -21 30 6 10 4 19 -5 21 -73 11 -101 7 -124 -18 -24 -26 -21 -28 20 -15
26 8 41 8 33 -1 -8 -9 -31 -17 -50 -20 -19 -2 -51 -10 -70 -18 -20 -9 -53 -11
-75 -5 -22 6 -40 2 -40 -7 0 -10 -22 -10 -50 1 -27 10 -50 12 -51 5 0 -8 -8
-1 -18 15 -11 20 -46 29 -99 28 -133 -5 -142 -7 -142 -36 0 -15 -15 -34 -34
-41 -27 -10 -29 -17 -8 -29 34 -22 18 -94 -19 -85 -16 4 -60 12 -99 17 -38 6
-73 18 -76 28 -10 25 -101 -40 -114 -82 -7 -21 -26 -33 -46 -30 -19 4 -46 8
-61 8 -19 2 -24 18 -15 57 11 47 9 50 -10 18 -12 -21 -18 -73 -12 -116 l10
-78 -38 49 c-116 147 52 314 234 233 49 -21 88 -32 88 -23 0 9 28 24 63 34
l63 18 -58 63 c-70 76 -119 89 -195 52 -42 -21 -53 -22 -42 -3 11 18 5 21 -23
10 -30 -11 -33 -9 -13 11 31 31 35 245 4 226 -11 -7 -15 -32 -9 -56 11 -39 10
-40 -11 -6 -19 29 -15 45 19 81 23 25 36 51 29 58 -8 8 -2 14 12 14 17 0 21
16 13 50 -7 28 -6 49 3 48 45 -8 59 7 50 52 -6 30 0 50 14 50 13 0 18 -8 12
-19 -6 -10 -1 -25 12 -33 15 -9 18 -5 7 12 -12 20 -7 23 20 13 31 -12 32 -10
9 19 -38 45 -40 82 -6 110 20 17 22 29 6 38 -15 10 -12 18 9 27 18 6 32 3 32
-8 0 -10 10 -19 21 -19 12 0 16 8 10 18 -6 11 0 23 14 28 14 4 9 6 -10 3 -19
-3 -35 3 -35 14 0 11 -8 14 -19 8 -10 -6 -24 -3 -31 9 -10 17 61 31 115 22 8
-1 15 8 15 19 0 13 -17 16 -43 8 -37 -12 -39 -10 -15 16 20 21 36 24 60 9 38
-24 106 -4 88 26 -7 11 -3 20 9 20 12 0 18 -21 13 -46 -8 -47 32 -123 54 -101
7 7 9 -7 5 -30 -5 -24 1 -43 12 -43 12 0 17 -19 10 -43 -9 -36 -1 -33 56 22
43 42 69 56 75 39 14 -42 92 -37 81 6 -5 20 -2 36 8 36 37 0 71 82 46 112 -16
18 -17 28 -3 28 12 0 27 -9 35 -21 8 -14 21 -14 41 2 15 13 41 18 57 12 16 -6
35 -3 41 6 6 10 -39 18 -100 18 -60 0 -159 6 -219 14 -96 12 -111 9 -134 -29
-33 -52 -57 -55 -43 -5 8 32 -8 41 -107 59 -97 18 -66 19 177 10 l294 -11 -24
52 c-20 44 -38 53 -109 55 -47 2 -94 5 -105 8 -11 3 -66 6 -122 8 -70 1 -99
10 -93 26 6 18 57 23 176 19 93 -4 163 -1 156 6 -10 11 -198 34 -293 37 -14 0
-21 13 -15 29 7 17 1 25 -14 19 -14 -5 -23 -19 -20 -32 3 -12 -2 -22 -12 -22
-9 0 -13 -25 -9 -55 10 -73 -20 -115 -67 -96 -35 15 -35 16 3 31 37 14 36 16
-10 25 -49 9 -49 10 5 12 66 4 71 30 12 71 -82 57 -33 100 98 83 136 -17 186
-17 201 -2 20 21 -14 36 -105 46 -100 11 -100 11 -70 66 15 30 41 39 105 38
83 -1 268 -32 218 -37 -15 -1 -21 -10 -15 -21 6 -10 -13 -22 -44 -27 -53 -8
-53 -9 -10 -24 25 -8 45 -31 45 -52 0 -21 10 -38 21 -38 12 0 16 -17 10 -38
-13 -39 20 -77 45 -53 7 7 2 20 -11 28 -14 9 -16 25 -5 43 11 18 9 39 -6 58
-21 24 -18 25 20 5 67 -35 286 -54 286 -25 0 14 -9 19 -20 12 -11 -7 -20 -5
-20 5 0 10 -42 20 -94 22 -114 6 -153 26 -86 45 l50 14 -54 2 c-52 2 -103 42
-53 42 19 0 20 5 1 24 -42 42 -26 53 47 33 39 -11 100 -16 135 -12 48 5 34 11
-61 24 -101 13 -125 23 -125 52 0 57 32 64 193 49 l150 -14 -11 -79 c-12 -85
-42 -127 -103 -143 -24 -6 -14 -10 27 -12 57 -2 65 -8 54 -42 -10 -33 -4 -39
35 -36 56 5 64 54 17 90 -28 22 -28 25 8 27 39 2 39 2 1 17 -24 10 -30 20 -16
29 12 7 18 37 13 67 -9 48 -7 50 25 24 31 -25 33 -24 21 9 -8 20 -14 40 -14
45 0 4 -12 8 -28 8 -15 0 -39 16 -55 35 -24 31 -23 32 5 10 32 -25 58 -15 58
20 0 18 -46 15 -263 -15 -61 -9 -97 -6 -107 10 -22 35 -3 41 66 21 39 -11 68
-11 75 0 6 11 -7 19 -29 19 -74 0 -144 43 -119 73 15 19 16 27 0 27 -24 0 -7
62 22 82 10 7 4 18 -13 25 -18 6 -32 4 -32 -6 0 -10 -25 -27 -55 -38 -30 -11
-41 -21 -25 -21 22 -2 31 -26 33 -89 2 -97 18 -93 -205 -51 -81 16 -107 31
-126 71 -22 48 -20 51 22 41 108 -26 285 -38 266 -18 -11 11 -77 24 -147 28
-126 9 -170 35 -149 89 6 15 24 27 41 27 18 0 28 4 23 9 -11 11 -375 74 -423
74 -45 -1 -25 36 21 39 19 2 7 8 -26 15 -52 12 -61 23 -66 88 -4 41 -15 75
-26 75 -11 0 -14 -10 -6 -23 9 -15 5 -18 -10 -8 -14 8 -20 27 -15 41 6 16 -11
30 -47 37 -47 9 -55 19 -45 55 8 31 4 40 -12 30 -13 -8 -23 -30 -23 -48 -1
-29 -3 -30 -19 -5 -11 18 -12 34 -1 41 45 28 -5 104 -63 95 -38 -5 -57 1 -57
18 0 15 -10 27 -21 27 -12 0 -15 10 -8 21 8 14 26 10 51 -13 21 -19 38 -26 37
-16 0 10 -24 35 -53 56 -29 22 -46 29 -39 16 10 -15 -5 -21 -44 -18 -33 2 -55
11 -50 19 5 8 -2 15 -17 15 -30 1 -275 34 -371 51 -52 9 -62 5 -53 -20 7 -17
7 -31 -1 -31 -7 0 -20 20 -30 45 -14 34 -19 37 -20 10 0 -19 -10 -35 -20 -35
-11 0 -14 15 -7 33 9 23 5 29 -11 19 -12 -8 -23 -4 -23 9 0 18 -8 18 -30 -1
-21 -17 -30 -18 -30 -2 0 12 -10 22 -22 22 -12 0 -17 -13 -11 -30 9 -22 -2
-30 -38 -30 -27 0 -49 -10 -49 -21 0 -12 8 -17 17 -11 9 6 16 -3 16 -20 0 -20
-6 -23 -20 -9 -12 12 -37 21 -57 21 -20 0 -36 9 -36 20 0 11 -9 20 -19 20 -11
0 -14 -15 -7 -33 10 -27 4 -31 -36 -20 -26 7 -56 13 -65 13 -10 0 -12 31 -5
68 8 38 5 74 -6 81 -11 7 -17 -6 -12 -28 10 -52 -23 -54 -40 -2 -6 21 -30 45
-52 52 -33 10 -36 18 -16 42 13 16 36 24 51 19 15 -6 27 -2 27 9 0 10 -14 19
-32 19 -22 0 -28 11 -20 33 11 28 8 29 -19 6 -25 -20 -35 -21 -47 -2 -9 14
-43 20 -89 14 -56 -7 -83 0 -106 27 -18 22 -48 33 -69 27 -27 -7 -38 1 -38 28
1 24 6 29 15 14 12 -18 23 -18 49 1 23 17 27 33 15 53 -15 24 -18 23 -19 -6 0
-41 -22 -45 -56 -11 -19 19 -24 15 -24 -18 0 -90 -21 -109 -63 -61 -28 31 -43
37 -50 20 -23 -57 -37 -18 -30 87 5 77 0 109 -14 100 -12 -8 -27 7 -34 33 -7
32 -27 48 -62 51 -36 3 -48 -4 -41 -24 6 -15 2 -36 -10 -48 -14 -14 -4 -31 32
-54 60 -40 69 -105 17 -125 -105 -39 -81 -60 111 -92 107 -18 221 -38 254 -44
33 -7 95 -18 137 -26 101 -17 143 -207 44 -198 -28 2 -51 10 -51 17 0 8 -24
20 -53 27 -40 10 -47 19 -30 36 38 38 26 75 -22 73 -35 -2 -37 -5 -9 -12 48
-12 7 -66 -51 -66 -32 0 -38 10 -30 50 12 62 -12 64 -56 5 -33 -44 -33 -44
-24 -2 8 31 -3 49 -39 65 -27 12 -44 15 -39 7 20 -33 -42 -65 -68 -34 -28 34
-99 39 -99 7 0 -12 -11 -18 -25 -13 -14 5 -25 25 -25 45 0 47 -46 63 -62 22
-7 -18 -31 -32 -53 -32 -23 0 -36 6 -29 13 39 38 -57 62 -107 27 -52 -38 -93
-30 -87 15 2 14 4 44 6 68 2 44 73 45 219 4 43 -12 45 -10 21 29 -20 32 -33
37 -53 20 -20 -17 -23 -14 -14 10 9 24 0 30 -39 25 -29 -3 -52 1 -52 8 0 8
-27 10 -60 5 -101 -15 -131 7 -92 66 45 68 39 111 -7 51 -21 -28 -34 -57 -28
-65 5 -9 -4 -16 -20 -16 -16 0 -35 -11 -41 -25 -10 -20 -14 -20 -24 0 -9 20
-20 20 -55 0 -51 -29 -155 -35 -138 -7 6 11 -3 13 -22 6 -39 -15 -41 -6 -11
50 16 30 16 37 0 27 -12 -7 -33 -7 -45 1 -46 29 -133 20 -123 -12 8 -25 5 -25
-17 2 -17 20 -49 29 -85 24 -32 -5 -64 0 -70 10 -24 36 -117 45 -142 14 -22
-27 -28 -26 -51 5 -14 19 -33 28 -42 19 -9 -9 -4 -24 11 -33 18 -11 20 -20 4
-30 -12 -7 -22 -4 -22 8 0 11 -13 21 -30 21 -16 0 -30 7 -30 16 0 29 44 61 70
51 14 -5 33 1 41 15 11 18 5 21 -20 11 -25 -9 -32 -5 -25 13 6 15 -2 27 -16
27 -14 0 -22 -12 -16 -27 7 -18 0 -22 -22 -14 -17 7 -27 20 -21 30 12 20 11
20 -26 5z m385 -247 c121 -23 286 -55 367 -71 81 -16 169 -29 196 -29 l49 0
-3 -287 c-2 -158 -10 -298 -18 -312 -29 -47 -381 18 -381 70 0 16 -18 29 -40
29 -23 0 -40 -13 -40 -32 0 -24 -12 -29 -46 -21 -25 6 -125 21 -222 32 -216
24 -196 -1 -174 223 11 103 16 242 12 308 -8 135 -1 156 47 142 18 -6 132 -29
253 -52z m889 -333 c105 -11 121 -18 122 -55 2 -40 3 -40 17 -3 10 26 20 31
30 15 8 -13 9 -33 2 -44 -7 -11 -2 -20 11 -20 14 0 19 17 13 40 -16 61 35 48
60 -15 20 -51 22 -51 24 -10 2 34 14 45 53 45 47 0 49 -3 20 -31 -17 -18 -31
-38 -31 -44 0 -7 10 -3 23 10 18 18 29 16 47 -9 14 -19 38 -27 57 -20 47 18
41 50 -12 60 -39 7 -37 9 10 11 42 2 55 -6 55 -35 0 -21 14 -43 30 -49 19 -7
30 0 30 19 0 17 -9 25 -20 18 -11 -7 -20 -3 -20 9 0 17 250 11 273 -7 12 -9
14 -363 2 -369 -40 -18 -435 46 -435 71 0 31 -74 35 -84 5 -5 -17 -447 28
-469 48 -6 5 -11 193 -9 309 2 98 5 104 41 84 22 -11 94 -26 160 -33z m1474
-145 c228 -45 370 -69 472 -80 8 -1 15 -11 15 -23 0 -13 -27 -16 -75 -7 -41 8
-124 15 -185 15 -63 1 -121 12 -137 27 -14 15 -50 25 -80 24 -105 -6 -223 28
-223 63 0 24 -18 26 213 -19z m-373 -25 c0 -7 11 -12 25 -12 69 3 95 -8 95
-40 1 -28 4 -29 18 -7 10 15 28 21 40 13 12 -7 18 -22 11 -32 -6 -10 -1 -37
12 -61 13 -25 15 -38 3 -30 -12 7 -34 -1 -51 -18 -17 -16 -36 -30 -43 -30 -7
0 -27 -14 -44 -31 -17 -17 -49 -26 -73 -20 -24 6 -31 5 -17 -1 21 -10 21 -18
0 -44 -22 -27 -21 -30 9 -18 19 7 35 4 35 -7 0 -10 -19 -19 -42 -19 -28 0 -39
-9 -31 -28 6 -16 -3 -34 -20 -40 -16 -7 -24 -21 -17 -32 7 -11 -5 -20 -27 -20
-55 0 -103 20 -103 43 0 11 10 13 23 5 13 -8 18 -3 12 14 -12 36 21 103 45 88
9 -6 24 0 32 13 9 14 6 18 -9 9 -14 -9 -23 -1 -23 19 0 24 12 31 40 23 22 -6
35 -2 29 8 -6 10 -27 18 -47 18 -19 0 -41 5 -47 12 -21 20 7 66 33 56 14 -5
25 3 25 19 0 16 -12 25 -27 19 -28 -11 -31 113 -3 134 19 15 137 12 137 -3z
m438 -110 c-25 -30 -23 -32 27 -20 33 8 55 6 55 -7 0 -11 -26 -20 -57 -20 -32
0 -100 -18 -150 -41 -95 -42 -125 -71 -53 -50 22 6 58 16 80 22 28 8 40 2 40
-21 0 -22 -12 -29 -35 -22 -38 11 -122 -27 -123 -57 -1 -17 -27 -26 -104 -35
-21 -3 -29 -17 -22 -42 7 -26 14 -30 25 -13 20 32 79 9 79 -30 0 -17 -14 -31
-30 -31 -17 0 -40 -23 -50 -51 -11 -28 -28 -46 -38 -40 -30 18 -43 -77 -13
-106 29 -29 85 38 63 75 -6 9 14 12 44 6 30 -6 43 -14 29 -19 -37 -12 -75 -87
-41 -80 14 3 37 19 50 35 20 25 22 23 13 -15 -7 -28 -3 -45 12 -45 13 0 21
-16 17 -35 -4 -19 -14 -32 -24 -28 -10 3 -25 -6 -34 -20 -14 -22 -17 -22 -18
-1 0 18 -14 22 -40 14 -30 -9 -37 -5 -28 17 8 22 25 25 69 13 63 -18 81 6 27
36 -35 20 -128 8 -128 -16 0 -8 -22 -15 -49 -15 -43 0 -46 3 -19 30 27 27 26
34 -10 68 -49 45 -98 50 -53 6 39 -40 40 -69 1 -69 -16 0 -30 10 -30 21 0 12
-9 16 -20 9 -11 -7 -20 -34 -20 -60 0 -28 -17 -58 -40 -70 -43 -23 -54 -2 -18
34 16 16 15 34 -2 67 -21 39 -20 43 7 33 19 -7 27 -3 22 12 -5 13 -33 25 -62
27 -38 2 -45 -2 -25 -15 15 -9 20 -18 10 -18 -10 0 -2 -18 18 -40 27 -30 31
-47 15 -63 -16 -16 -36 -8 -72 31 -34 37 -52 46 -59 28 -8 -18 -11 -16 -12 6
-3 62 73 122 167 133 81 9 92 17 112 77 12 37 34 75 48 83 32 19 81 109 74
135 -4 11 0 14 7 6 8 -7 58 18 112 55 54 38 109 69 123 69 14 0 51 23 83 50
63 54 95 52 50 -3z m310 -44 c27 -42 60 -77 75 -77 57 -1 207 -97 214 -136 9
-53 28 -71 80 -75 24 -2 43 -16 43 -32 0 -23 -6 -23 -30 -3 -17 14 -37 20 -44
13 -7 -7 -3 -13 9 -13 11 0 25 -12 31 -26 6 -17 -19 -12 -77 15 -48 23 -88 53
-88 67 -2 44 -108 123 -166 123 -30 1 -55 10 -55 21 0 11 -27 20 -60 20 -38 0
-60 10 -60 28 0 35 49 76 70 57 8 -8 11 10 6 40 -14 73 -6 70 52 -22z m-148
-76 c0 -16 -8 -24 -18 -18 -10 6 -14 -7 -8 -29 7 -26 27 -40 57 -40 88 0 149
-42 149 -102 0 -38 13 -59 41 -68 27 -9 38 -25 30 -43 -7 -19 -1 -27 13 -22
14 4 31 30 38 56 l14 49 5 -50 c3 -27 6 -66 7 -86 1 -19 11 -42 22 -50 14 -9
13 -43 -3 -104 -13 -49 -25 -75 -25 -56 -1 18 -12 40 -25 48 -14 9 -18 5 -9
-9 8 -13 5 -23 -7 -23 -11 0 -21 19 -21 42 0 35 -9 41 -51 33 -41 -8 -49 -3
-39 23 10 25 7 27 -11 8 -15 -14 -18 -38 -9 -60 22 -50 12 -109 -25 -151 -38
-43 -88 -47 -72 -5 7 18 0 30 -19 30 -16 0 -35 -13 -41 -30 -7 -16 -34 -30
-61 -30 -27 0 -55 -9 -62 -20 -7 -11 8 -20 34 -20 25 0 37 -7 26 -15 -42 -31
-32 -68 14 -55 36 10 39 8 16 -8 -38 -27 -106 -28 -90 -2 7 11 -2 20 -20 20
-18 0 -28 -7 -22 -17 8 -13 -36 -15 -88 -4 -5 1 19 16 54 34 36 17 64 37 63
44 -5 40 6 63 32 63 15 0 42 14 59 31 17 17 35 30 41 30 37 -3 44 2 44 26 0
22 -10 22 -56 -2 -31 -15 -57 -37 -57 -48 0 -10 -8 -14 -18 -8 -9 6 -59 -2
-110 -17 -50 -16 -93 -22 -93 -15 -1 7 -10 -9 -21 -35 -11 -27 -12 -54 -3 -60
18 -13 17 -66 -4 -144 -13 -48 -10 -51 47 -42 34 4 57 16 51 26 -6 10 3 12 20
6 17 -7 26 -20 20 -30 -6 -10 3 -12 21 -5 19 7 44 -3 61 -25 28 -36 29 -34 17
17 -7 30 -5 56 5 57 59 5 95 19 110 42 22 35 21 76 -1 76 -10 0 -13 19 -7 42
8 31 15 35 27 15 11 -17 17 -19 18 -4 0 32 127 75 137 47 5 -15 17 -13 38 4
34 28 30 11 -26 -144 -27 -74 -37 -50 -29 69 3 52 0 56 -28 33 -17 -15 -27
-34 -21 -44 18 -29 -48 -110 -121 -150 -82 -44 -89 -68 -20 -68 28 0 50 -9 50
-21 0 -12 31 2 68 31 l69 52 6 -46 c4 -25 18 -47 32 -48 73 -8 75 -9 45 -28
-45 -29 -100 -24 -100 10 0 17 -14 30 -31 30 -34 0 -25 -64 16 -115 14 -17 13
-25 -3 -25 -12 0 -22 10 -22 22 0 16 -9 15 -30 -2 -16 -13 -26 -31 -21 -38 21
-35 -26 -70 -58 -43 -18 15 -38 20 -46 12 -8 -8 1 -23 21 -34 43 -24 24 -63
-25 -47 -30 9 -38 -5 -49 -91 -12 -89 -18 -100 -53 -89 -22 7 -39 3 -39 -9 0
-11 33 -21 73 -21 71 0 72 -1 39 -38 -58 -64 -111 -66 -122 -5 -6 29 -19 89
-29 133 -19 84 1 120 57 99 15 -5 45 8 66 30 21 23 29 41 18 41 -10 0 0 22 24
48 39 44 45 45 68 15 23 -30 25 -30 25 2 1 19 10 35 21 35 11 0 20 9 20 19 0
11 -11 15 -25 10 -14 -5 -50 14 -80 42 -30 28 -55 46 -55 40 0 -5 -22 -1 -50
9 -65 25 -68 -18 -5 -102 51 -69 40 -83 -92 -119 -77 -22 -228 21 -206 57 5 8
-4 26 -19 40 -23 21 -28 20 -28 -5 0 -68 -64 -27 -106 69 -41 92 -93 134 -95
75 0 -25 -157 142 -158 169 -1 7 17 19 39 26 22 7 50 31 62 54 20 37 18 40
-15 28 -28 -11 -31 -9 -14 9 12 12 56 26 97 29 42 4 91 25 113 48 38 41 38 41
108 1 80 -45 129 -50 129 -14 1 17 7 15 20 -5 17 -26 19 -25 20 3 0 19 -10 37
-21 41 -38 12 4 76 50 76 24 0 51 6 58 14 36 36 72 22 51 -19 -18 -32 -26 -35
-40 -13 -14 23 -17 22 -18 -5 0 -18 -13 -38 -30 -44 -16 -7 -29 -23 -28 -37 1
-20 3 -21 11 -1 6 14 27 25 48 25 21 0 48 19 60 42 17 31 29 36 45 20 12 -12
31 -22 43 -22 12 0 8 9 -9 20 -22 15 -12 19 41 20 69 0 119 28 119 67 0 11
-16 4 -37 -14 -20 -18 -57 -33 -82 -33 l-47 0 53 49 c63 59 72 120 15 102 -91
-29 -122 -28 -141 8 -11 19 -14 41 -8 47 6 6 -17 11 -51 10 -38 -1 -62 -13
-62 -29 0 -15 -9 -27 -20 -27 -32 0 -23 37 20 80 33 33 60 39 135 32 51 -5
112 1 134 13 38 20 39 19 11 -15 -28 -34 -27 -36 14 -26 33 9 41 4 34 -21 -5
-18 3 -8 18 22 14 31 31 51 38 45 6 -7 16 7 22 31 10 40 9 40 -37 10 -36 -23
-60 -26 -99 -11 -29 11 -48 12 -42 3 5 -9 -32 -17 -84 -17 -106 -2 -260 -63
-252 -102 3 -14 1 -16 -5 -6 -5 11 -23 15 -38 9 -80 -31 -15 31 71 67 63 27
100 55 100 76 0 24 11 29 40 20 56 -18 174 9 139 31 -15 9 -42 8 -62 -2 -51
-28 -65 -23 -37 11 20 25 19 30 -7 30 -27 0 -28 8 -10 49 32 70 177 85 177 18z
m-2080 -154 c28 3 68 6 90 8 40 4 313 -37 370 -55 17 -6 71 -13 120 -16 101
-7 519 -62 607 -80 34 -7 51 -4 44 8 -19 31 18 42 81 23 32 -10 42 -18 23 -19
-19 -1 -35 -10 -35 -19 0 -9 -28 -18 -61 -19 -34 -1 -76 -13 -94 -28 -24 -19
-29 -19 -18 -1 17 28 10 30 -35 13 -18 -7 -26 -22 -18 -35 9 -15 4 -15 -16 1
-31 25 -98 -26 -98 -75 0 -16 -80 -59 -109 -59 -14 0 -32 103 -21 120 7 11 30
11 59 0 62 -23 108 21 61 60 -16 14 -30 20 -30 15 0 -6 -33 -3 -74 6 -48 11
-84 9 -100 -5 -35 -28 -33 -57 2 -44 15 6 33 3 38 -6 6 -10 -18 -17 -52 -17
-52 1 -63 8 -57 39 6 35 4 36 -27 5 -44 -44 -56 -42 -31 6 14 26 14 43 1 51
-11 7 -20 -2 -20 -19 0 -25 -8 -23 -40 9 -45 45 -71 50 -92 17 -9 -14 -5 -18
9 -9 29 18 71 -24 79 -78 4 -28 0 -32 -12 -14 -9 14 -32 20 -51 13 -20 -8 -33
-3 -33 11 0 15 -16 20 -40 14 -22 -6 -35 -2 -29 8 6 10 3 18 -8 18 -11 0 -24
-11 -30 -25 -7 -18 -10 -18 -11 -1 -1 13 12 37 29 55 29 28 27 31 -17 31 -31
0 -49 -11 -47 -29 5 -47 -35 -40 -63 11 l-27 48 8 -52 c5 -32 -1 -51 -17 -51
-13 0 -19 13 -13 29 9 23 3 24 -29 7 -51 -27 -126 -22 -126 9 0 13 -13 29 -30
35 -16 7 -30 4 -30 -5 0 -10 -15 -23 -33 -30 -26 -10 -28 -7 -10 14 12 15 16
34 8 43 -8 8 8 13 35 11 79 -7 100 -2 100 24 0 17 -6 18 -21 3 -28 -28 -112
-11 -143 30 -22 28 -21 30 4 13 17 -12 53 -19 80 -17z m2565 -162 c62 -71 89
-127 45 -91 -34 28 -36 26 -21 -30 18 -70 18 -72 14 -190 -3 -70 -8 -83 -25
-60 -16 23 -19 18 -10 -23 8 -36 2 -56 -18 -64 -19 -8 -31 1 -32 23 -1 20 -5
24 -11 9 -6 -14 -20 -25 -31 -25 -11 0 -15 13 -9 29 6 17 -4 39 -23 50 -21 12
-24 20 -8 20 15 1 21 9 15 20 -6 10 -3 24 9 31 23 14 25 201 2 260 -40 102 27
129 103 41z m563 -148 c20 -62 42 -126 48 -141 7 -18 2 -23 -11 -15 -13 8 -32
-2 -43 -22 -18 -30 -21 -28 -21 18 -1 30 10 57 23 62 13 4 -16 48 -67 99 -106
108 -106 108 -199 -74 -39 -77 -81 -139 -94 -137 -47 4 -49 7 -26 35 18 21 18
30 1 36 -28 9 -31 152 -3 180 13 13 30 4 51 -26 18 -25 39 -39 47 -31 8 8 2
23 -14 33 -29 18 -25 21 76 52 15 4 21 16 15 26 -16 26 19 34 105 26 70 -7 76
-13 112 -121z m-1318 77 c21 18 25 14 16 -19 -6 -23 -1 -41 12 -41 12 0 22
-10 22 -23 0 -14 -15 -10 -37 10 -20 18 -42 27 -50 20 -7 -8 -12 8 -11 35 0
26 6 36 12 22 7 -19 17 -20 36 -4z m1136 -145 c4 -14 -8 -58 -29 -99 -20 -41
-37 -89 -37 -108 0 -28 -5 -29 -33 -5 -31 25 -30 22 0 -38 36 -68 61 -89 39
-32 -10 26 -5 31 21 21 26 -10 33 -1 34 42 0 45 4 48 20 20 20 -35 -12 -136
-44 -136 -8 0 -11 -13 -4 -30 6 -16 1 -30 -11 -30 -12 0 -22 12 -22 27 0 49
-69 96 -101 68 -15 -14 -11 -5 10 20 20 25 28 45 17 45 -35 0 -67 -53 -54 -88
11 -27 18 -29 45 -8 29 23 30 22 6 -9 -15 -19 -22 -49 -15 -68 10 -26 7 -28
-14 -10 -15 12 -34 16 -42 8 -8 -7 -8 2 -1 20 9 23 1 39 -20 47 -29 12 -26 21
20 69 29 31 49 63 44 72 -5 10 7 32 27 51 25 24 39 27 47 10 6 -13 8 -3 3 22
-5 28 2 51 20 57 15 6 28 28 28 49 0 43 32 52 46 13z m-1790 -64 c5 -5 -1 -35
-12 -67 -27 -79 12 -261 106 -493 76 -189 71 -232 -29 -231 -27 1 -27 3 -1 20
17 11 20 20 9 20 -12 0 -69 -58 -126 -130 -57 -71 -115 -131 -129 -131 -13 -1
-64 -64 -113 -140 -49 -77 -103 -140 -120 -140 -25 -2 -24 -5 4 -16 144 -57
463 64 430 163 -5 13 0 32 10 44 10 11 47 74 82 140 137 259 303 272 500 41
42 -50 84 -87 93 -81 25 15 37 -35 18 -72 -9 -18 -58 -73 -109 -123 -88 -87
-100 -175 -23 -175 9 0 11 -9 4 -20 -7 -11 -4 -20 5 -20 27 0 85 -136 72 -170
-14 -38 -39 -39 -54 -1 -7 19 -1 25 18 18 33 -13 37 9 11 51 -10 16 -28 21
-43 11 -16 -10 -20 -7 -11 8 57 92 -29 73 -114 -25 -126 -146 -119 -171 8 -32
56 61 84 83 62 50 -22 -33 -59 -77 -82 -98 -40 -37 -41 -40 -7 -77 69 -77 102
-81 154 -21 l48 56 -1 -65 c-2 -52 -7 -60 -29 -42 -32 26 -37 -5 -5 -37 16
-16 12 -36 -12 -74 -22 -33 -26 -52 -11 -52 35 0 81 127 81 222 0 70 15 101
91 190 90 105 90 107 57 158 -23 35 -41 45 -54 32 -14 -14 -12 -31 6 -52 14
-17 20 -36 14 -43 -7 -7 -23 11 -36 40 -14 29 -33 53 -42 53 -10 0 -13 9 -6
20 7 11 3 20 -9 20 -27 0 -26 -12 1 -63 28 -53 11 -68 -30 -27 -43 44 -41 56
19 116 28 28 43 56 33 62 -19 12 -124 -95 -124 -126 0 -10 11 -22 24 -27 15
-5 16 -12 4 -20 -76 -47 -57 65 26 151 101 106 106 109 92 54 -7 -25 1 -44 22
-52 17 -7 27 -20 21 -30 -6 -10 -1 -18 11 -18 12 0 17 -9 10 -20 -7 -11 -4
-20 6 -20 11 0 24 -20 31 -44 10 -41 14 -41 47 -12 36 32 76 15 76 -34 0 -11
22 -82 48 -158 39 -115 45 -161 34 -277 -12 -128 -10 -136 20 -106 24 24 30
56 23 121 l-10 88 63 -10 c56 -8 57 -7 16 11 -27 12 -41 30 -33 43 10 16 19
14 31 -5 13 -20 17 -15 18 18 0 25 8 45 18 45 25 0 42 -52 42 -132 0 -37 7
-68 16 -68 9 0 12 60 7 132 -9 145 21 199 72 127 20 -29 22 -60 6 -133 l-20
-96 8 110 c5 72 2 96 -9 70 -24 -55 -24 -214 0 -250 15 -24 20 -20 21 20 2 40
7 34 28 -30 15 -44 28 -69 29 -57 1 13 8 39 15 59 8 19 6 30 -5 23 -17 -11
-23 197 -11 405 9 155 36 34 61 -278 27 -332 32 -313 -69 -260 -284 148 -771
-175 -818 -542 -104 -805 -572 -1162 -1009 -767 -64 58 -124 99 -133 91 -8 -8
-10 -4 -3 8 7 13 -6 44 -29 70 -37 43 -166 227 -205 293 -8 14 -5 25 7 25 11
0 21 -8 21 -18 0 -10 29 -49 65 -87 36 -37 97 -106 135 -151 39 -46 81 -84 94
-84 13 0 40 -27 59 -60 20 -33 46 -60 58 -60 13 0 44 -18 70 -40 25 -23 56
-38 68 -34 11 4 30 -5 41 -19 11 -15 40 -32 65 -37 25 -6 62 -14 82 -18 21 -5
36 3 36 18 0 15 -12 21 -30 15 -20 -8 -25 -4 -14 13 10 16 0 29 -27 36 -23 6
-42 20 -42 30 0 11 -14 15 -31 8 -17 -6 -26 -4 -20 6 11 19 -88 94 -114 86 -8
-2 -15 6 -15 17 0 12 -9 16 -20 9 -11 -7 -20 -4 -20 6 0 24 -72 106 -83 94 -5
-5 -45 23 -88 61 -85 76 -85 77 -186 180 -36 38 -81 69 -100 69 -29 1 -29 3
-3 20 27 17 15 28 -24 23 -8 -2 -9 12 -2 30 10 26 5 28 -29 10 -95 -51 -229
332 -222 641 l4 195 85 -78 c46 -43 128 -101 182 -128 53 -27 141 -86 196
-131 55 -45 115 -82 133 -82 19 0 41 -10 48 -22 8 -12 45 -35 82 -51 40 -16
95 -67 133 -121 173 -250 278 -354 306 -303 37 65 34 93 -12 152 -51 64 -47
67 50 45 61 -14 87 -11 112 12 48 44 123 261 107 311 -9 28 -6 38 9 28 12 -7
22 -31 22 -54 0 -27 11 -38 35 -33 24 5 34 24 31 61 -2 37 8 57 35 65 22 7 39
31 39 53 0 23 23 59 50 81 47 37 73 113 29 86 -11 -7 -53 6 -93 30 l-73 43 55
-72 c49 -65 51 -81 5 -73 -9 2 -10 -17 -2 -40 14 -46 3 -47 -101 -7 -33 12
-36 10 -15 -12 33 -36 32 -59 -5 -59 -16 0 -30 17 -30 39 0 21 -11 50 -25 65
-14 14 -41 51 -60 81 -46 71 -188 143 -203 103 -16 -41 -46 -34 -58 12 -12 48
-50 50 -147 10 -72 -30 -309 -42 -334 -17 -7 8 39 32 102 53 63 22 129 50 145
64 17 14 59 40 95 58 75 38 92 103 21 81 -24 -8 -58 -28 -74 -44 -41 -41 -150
-85 -206 -84 -25 1 -95 -14 -156 -32 -151 -46 -293 -53 -330 -16 -16 16 -37
25 -47 19 -9 -6 -16 2 -16 18 0 16 12 33 26 39 102 38 14 107 -124 97 -107 -8
-209 43 -209 105 0 15 -18 37 -40 49 -22 12 -40 29 -40 39 0 22 182 62 207 46
11 -6 13 -1 5 12 -8 13 -5 23 7 23 11 0 22 -11 23 -25 0 -14 10 0 21 30 11 30
33 55 49 55 15 0 28 8 28 18 0 47 165 140 226 128 52 -11 59 -7 47 22 -7 20
-13 43 -13 53 0 65 -364 141 -529 111 -141 -27 -55 -58 121 -45 158 12 268 -8
268 -49 0 -8 20 -18 43 -22 54 -7 71 -47 22 -50 -160 -10 -265 -61 -265 -129
0 -28 -9 -38 -29 -30 -16 6 -56 -2 -88 -19 -85 -42 -199 -31 -216 21 -7 22
-27 51 -43 63 -27 20 -23 39 32 154 35 72 58 145 52 163 -14 35 -59 42 -78 11
-18 -30 -96 -25 -85 5 6 14 -1 36 -15 48 -23 22 -64 -246 -41 -269 24 -24 51
28 51 97 0 54 9 79 28 79 30 0 60 -82 35 -99 -9 -6 -33 -40 -54 -76 -28 -49
-52 -65 -93 -65 -54 0 -81 48 -36 63 11 4 29 133 41 287 46 620 -2 550 343
501 113 -16 258 -34 321 -41 107 -12 140 -32 98 -58 -10 -6 -164 7 -342 30
-332 42 -354 41 -335 -9 8 -21 62 -33 183 -43 156 -13 235 -46 126 -53 -40 -2
-40 -3 -5 -10 55 -11 58 -288 4 -342 -32 -31 -34 -30 -34 31 0 44 10 64 30 64
17 0 30 13 30 28 0 30 -230 67 -283 46 -15 -6 11 -12 56 -12 95 -2 147 -18
147 -44 0 -25 -53 -22 -97 5 -26 16 -58 17 -115 2 -51 -14 -62 -22 -33 -23 40
-2 44 -10 35 -67 -8 -52 -6 -58 11 -30 12 19 43 35 70 35 27 0 49 9 49 20 0
11 18 20 40 20 43 0 57 -39 15 -42 -20 -1 -20 -3 0 -11 41 -17 29 -47 -20 -50
l-45 -2 45 -9 c52 -10 61 -46 12 -46 -19 0 -28 -6 -20 -13 18 -19 113 34 113
63 0 140 353 69 446 -89 42 -72 84 -64 50 9 -39 87 -252 207 -371 209 -25 1
-45 11 -45 23 0 12 13 17 28 12 15 -6 48 11 73 37 28 30 69 49 102 49 62 0 76
28 25 48 -17 7 -76 12 -130 12 -99 0 -118 18 -80 77 13 21 39 23 105 11 l87
-16 -80 -13 -80 -13 74 -3 c105 -4 173 28 198 92 61 161 231 191 322 57 8 -12
19 -15 26 -8 33 32 -130 120 -210 113 -100 -10 -101 -12 29 62 119 68 322 113
362 80 42 -34 89 1 89 66 l0 60 93 -12 c52 -7 98 -17 103 -22z m1236 -81 c-7
-28 2 -94 19 -149 46 -139 -42 -261 -92 -128 -21 55 -6 147 24 147 11 0 15 8
9 17 -6 9 0 49 12 90 25 82 47 100 28 23z m1024 6 c87 -4 159 -80 125 -134
-16 -26 -281 -6 -281 22 0 10 -8 13 -18 7 -9 -6 -29 3 -42 19 -14 17 -18 30
-10 30 8 0 5 12 -7 27 -33 39 -4 56 76 44 39 -6 109 -13 157 -15z m-268 -32
c17 -29 -18 -62 -64 -59 -50 4 -55 16 -20 51 27 27 69 31 84 8z m-45 -116 c71
-36 53 -70 -28 -54 -45 9 -51 16 -33 38 13 16 14 28 4 28 -11 0 -30 -22 -42
-50 -13 -27 -33 -50 -45 -50 -12 0 -6 26 14 60 41 69 48 71 130 28z m-395 -96
c-12 -30 68 -97 95 -80 9 6 17 1 17 -11 0 -12 36 -61 80 -109 44 -47 80 -96
80 -108 0 -51 -48 -44 -101 14 -31 34 -75 62 -98 62 -44 0 -56 32 -17 45 26 8
4 55 -26 55 -11 0 -14 -10 -6 -23 9 -15 5 -18 -9 -9 -13 8 -19 22 -13 32 6 9
-7 20 -28 24 -36 6 -37 11 -11 71 26 62 59 95 37 37z m-230 -264 c-25 -26 -34
-48 -21 -48 12 0 23 11 23 23 0 13 6 18 13 11 7 -7 2 -26 -11 -42 -13 -15 -15
-31 -5 -35 10 -4 24 -29 31 -57 12 -46 11 -46 -19 7 -29 51 -36 54 -63 28 -27
-27 -26 -36 4 -82 32 -49 32 -54 -21 -122 -57 -76 -81 -91 -61 -40 7 19 3 26
-10 18 -11 -7 -16 -26 -10 -41 6 -16 -4 -45 -23 -65 -60 -62 -125 -143 -125
-154 0 -6 -28 -37 -63 -69 l-63 -58 -54 69 c-30 37 -61 62 -68 54 -8 -8 -8 2
-1 21 7 19 4 46 -8 60 -15 19 -11 32 18 50 43 27 53 6 15 -32 -37 -37 6 -28
52 11 40 35 40 34 9 -15 -32 -53 -5 -179 32 -145 10 8 11 4 3 -10 -8 -14 -5
-25 6 -25 42 0 39 37 -6 86 -49 53 -49 79 0 61 15 -6 23 -19 17 -29 -6 -10 -2
-18 10 -18 11 0 21 -16 21 -35 1 -29 4 -30 19 -6 13 20 11 35 -5 45 -13 9 -17
16 -8 16 8 0 4 13 -10 28 -14 15 -35 23 -46 16 -11 -6 -9 2 4 18 13 16 49 31
79 34 62 5 150 93 134 134 -5 14 0 32 12 39 11 7 21 35 21 62 0 27 8 49 17 49
10 0 15 33 12 74 -8 92 142 257 177 195 13 -23 5 -46 -28 -81z m164 47 c23
-44 23 -44 -16 -9 -35 30 -44 31 -64 6 -50 -60 173 -334 248 -305 33 13 40 -8
13 -38 -10 -10 -36 -73 -58 -139 -32 -96 -69 -150 -183 -268 -124 -130 -180
-215 -92 -142 25 21 30 18 30 -18 0 -47 -40 -55 -98 -19 -22 14 -52 17 -74 7
-33 -14 -30 -18 22 -31 33 -8 44 -15 25 -17 -41 -2 -45 -24 -11 -58 19 -19 10
-24 -39 -24 -52 0 -73 15 -124 91 -67 100 -84 202 -30 181 18 -6 51 -1 75 12
24 14 49 25 54 25 6 1 42 21 80 44 39 24 115 58 170 76 139 47 156 65 109 112
-56 56 -50 99 16 101 30 0 44 6 30 11 -14 6 -25 26 -25 44 0 33 -39 76 -101
113 -19 11 -17 3 6 -23 50 -58 43 -74 -25 -60 -48 10 -60 5 -60 -22 1 -62 24
-125 42 -114 29 18 21 -6 -14 -40 -26 -26 -38 -27 -61 -8 -16 13 -28 15 -26 5
11 -58 -3 -99 -21 -58 -15 35 -17 33 -19 -16 0 -31 -9 -51 -20 -45 -10 6 -23
-5 -30 -26 -13 -42 -142 -119 -164 -97 -7 8 -3 14 10 14 13 0 23 14 23 32 0
17 11 28 25 23 26 -9 75 69 75 118 0 16 7 26 15 21 19 -11 125 100 110 115 -7
6 -1 11 12 11 13 0 23 20 24 45 0 25 13 67 28 94 14 27 22 62 16 77 -6 15 2
36 17 46 23 16 22 23 -7 45 -19 15 -29 33 -21 40 7 7 1 13 -14 13 -17 0 -10
18 20 50 58 62 72 62 102 5z m-2482 -35 c0 -11 -31 -20 -70 -20 -38 0 -70 9
-70 20 0 11 32 20 70 20 39 0 70 -9 70 -20z m2677 -51 c4 -21 21 -48 38 -60
34 -25 18 -69 -24 -69 -14 0 -37 14 -51 30 -14 17 -53 37 -87 46 -95 25 -99
91 -5 73 50 -9 72 -6 72 10 0 38 49 12 57 -30z m531 -146 c6 -10 47 -14 92 -9
50 6 80 2 80 -12 0 -12 -11 -23 -25 -24 -138 -12 -167 -11 -180 9 -8 13 -15
30 -15 38 0 21 35 19 48 -2z m-709 -811 c2 -235 -12 -177 -23 98 -7 147 -4
205 5 150 9 -49 17 -161 18 -248z m663 -90 c-18 -11 44 -23 170 -31 109 -8
239 -17 288 -21 50 -3 119 -7 155 -8 61 -2 63 -4 43 -56 -19 -50 -16 -118 13
-276 40 -220 3 -384 -50 -223 -41 123 -132 244 -213 282 -43 20 -112 52 -153
72 -61 29 -75 30 -75 7 0 -15 14 -28 30 -28 17 0 30 -9 30 -20 0 -11 18 -20
40 -20 22 0 40 -13 40 -28 0 -31 -138 -23 -205 11 -48 25 -44 77 6 77 71 0 23
36 -91 69 -134 39 -169 212 -43 211 33 -1 36 -5 15 -18z m-199 -192 c105 -8
219 -54 213 -85 -3 -15 -15 -27 -26 -26 -61 3 -165 26 -195 42 -47 26 -95 25
-55 -1 22 -14 7 -19 -55 -20 -94 0 -116 33 -30 46 51 7 50 8 -10 11 -46 2 -65
13 -65 36 0 27 13 30 75 17 41 -8 108 -17 148 -20z m-2286 -55 c25 -25 33 -27
93 -32 17 -2 47 -20 68 -41 38 -38 39 -38 75 4 22 26 25 35 7 22 -22 -15 -48
-11 -100 16 l-70 36 100 -11 c176 -19 264 -51 325 -116 81 -86 108 -208 29
-129 -23 23 -35 0 -26 -52 2 -9 -13 -13 -34 -7 -27 7 -38 0 -36 -23 1 -20 -14
-32 -41 -33 -23 0 -57 -12 -75 -27 -18 -15 -32 -18 -32 -6 0 11 -17 16 -37 11
-21 -6 -42 2 -48 16 -6 15 -64 99 -129 187 -150 203 -154 210 -121 210 15 0
38 -11 52 -25z m-207 -55 c-7 -11 -4 -20 6 -20 9 0 28 -22 40 -50 28 -62 18
-63 -35 -6 -44 47 -54 96 -20 96 12 0 16 -9 9 -20z m2283 -90 c6 -16 21 -25
34 -18 13 6 6 -3 -14 -19 -40 -33 -93 -24 -93 16 0 53 54 69 73 21z m753 -41
l156 -33 49 -98 c58 -115 60 -126 14 -109 -19 7 -119 26 -223 42 -222 33 -196
16 -214 147 -13 98 -11 106 24 96 21 -6 108 -26 194 -45z m-2696 -249 c7 -12
20 -16 29 -11 27 17 63 -41 49 -81 -9 -30 -8 -32 9 -9 17 24 25 19 45 -26 53
-115 -13 -98 -100 26 -46 67 -76 121 -64 121 11 0 25 -9 32 -20z m1046 -685
c-26 -123 -16 -119 -193 -83 -29 6 -42 2 -33 -11 8 -13 -16 -21 -63 -21 l-75
0 109 69 c60 39 118 71 129 71 11 1 47 23 79 50 75 61 75 60 47 -75z m-316
-267 c0 -16 -11 -33 -25 -39 -56 -20 -277 -41 -286 -27 -15 24 50 52 156 68
53 8 101 23 107 33 15 25 48 1 48 -35z"/>
<path d="M731 5362 c-7 -12 -5 -22 5 -22 10 0 14 -22 9 -50 -8 -41 -2 -50 35
-50 38 0 42 8 31 52 -8 33 -5 47 8 38 12 -7 21 -2 21 11 0 13 -12 19 -28 13
-15 -6 -36 -2 -47 9 -14 14 -25 13 -34 -1z"/>
<path d="M929 5315 c-8 -25 -13 -72 -10 -104 4 -52 1 -56 -27 -33 -18 15 -32
20 -32 12 0 -8 -15 -3 -34 13 -29 24 -32 23 -20 -8 7 -19 6 -33 -2 -32 -8 2
-41 -8 -74 -23 -33 -15 -72 -24 -87 -22 -15 3 -21 -4 -15 -15 7 -11 -1 -28
-18 -38 -45 -25 -18 -90 27 -67 48 26 122 16 143 -18 14 -22 19 -11 20 42 l0
72 124 4 c69 2 131 13 138 26 8 12 28 17 45 10 16 -6 40 0 52 15 19 22 37 22
113 -1 88 -26 90 -26 77 16 -11 33 -7 39 19 30 36 -14 44 16 9 38 -12 7 -64
15 -115 18 -123 5 -122 5 -122 45 -1 28 -4 29 -18 7 -10 -15 -27 -21 -40 -14
-13 9 -17 3 -11 -14 6 -15 -4 -40 -21 -54 -27 -22 -31 -22 -26 1 4 19 -12 27
-49 26 -54 -1 -69 13 -42 39 7 8 25 4 38 -7 16 -13 30 -14 37 -2 7 10 -2 24
-19 31 -18 6 -26 21 -19 32 7 11 4 20 -6 20 -11 0 -26 -20 -35 -45z"/>
<path d="M1588 4988 c7 -17 12 -40 12 -50 0 -10 14 -18 30 -18 19 0 30 19 30
50 0 38 -11 50 -42 50 -30 0 -39 -9 -30 -32z"/>
<path d="M1789 5004 c-12 -8 -15 -39 -7 -74 7 -33 14 -50 16 -37 3 30 68 24
88 -8 9 -14 26 -25 37 -25 15 0 15 8 2 25 -11 14 -17 41 -14 60 4 25 -8 35
-41 35 -26 0 -50 9 -53 19 -4 11 -16 13 -28 5z"/>
<path d="M1680 4972 c0 -18 11 -32 25 -32 17 -1 15 -7 -5 -20 -25 -16 -24 -19
6 -20 26 0 35 12 30 43 -7 51 -56 76 -56 29z"/>
<path d="M2106 4898 c3 -42 33 -53 35 -13 1 14 10 7 19 -15 17 -39 17 -39 19
3 0 26 -14 46 -38 52 -28 8 -37 1 -35 -27z"/>
<path d="M2440 4848 c0 -32 9 -48 25 -43 37 12 41 68 6 82 -23 9 -31 -1 -31
-39z"/>
<path d="M3514 4185 c-19 -21 -25 -46 -16 -62 12 -19 24 -12 49 25 52 79 29
105 -33 37z"/>
<path d="M2924 3986 c-27 -51 6 -126 55 -126 28 0 41 13 41 42 0 33 9 40 40
32 22 -6 40 -2 40 8 0 10 -13 18 -30 18 -16 0 -28 11 -25 25 8 42 -100 43
-121 1z"/>
<path d="M2125 3529 c-14 -15 -25 -42 -25 -60 0 -22 -11 -28 -37 -20 -33 11
-39 -3 -52 -110 -7 -67 -22 -141 -33 -165 -15 -34 -17 -26 -9 36 11 84 -11 52
-37 -57 -9 -39 -7 -52 9 -43 12 8 4 -21 -18 -64 -26 -50 -34 -89 -23 -107 23
-36 25 -33 109 136 135 272 206 554 116 454z"/>
<path d="M1620 3519 c-38 -11 -41 -15 -12 -17 54 -3 164 -91 233 -187 45 -62
59 -72 59 -41 0 111 -185 273 -280 245z"/>
<path d="M1380 3120 c-20 -14 2 -16 70 -7 55 7 104 16 108 20 20 17 -151 4
-178 -13z"/>
<path d="M1834 3127 c-20 -20 -17 -143 4 -156 35 -21 71 108 39 141 -16 16
-36 23 -43 15z"/>
<path d="M1216 3069 c-30 -16 -64 -47 -75 -68 -29 -54 -26 -68 8 -37 65 58 90
76 107 76 9 0 17 14 17 30 0 17 0 30 -1 29 -1 0 -27 -14 -56 -30z"/>
<path d="M1619 2904 c-29 -20 -47 -48 -43 -69 4 -19 -18 -57 -50 -86 l-56 -51
60 10 c33 6 103 16 155 24 100 13 170 77 169 153 -1 54 -26 42 -73 -33 -53
-87 -81 -97 -139 -50 -25 21 -38 38 -27 38 10 0 29 23 41 50 13 28 21 49 19
49 -3 -1 -28 -17 -56 -35z"/>
<path d="M1911 2835 c-20 -36 -56 -81 -79 -101 l-42 -37 50 13 c33 9 13 -12
-56 -59 -107 -74 -116 -98 -44 -117 22 -6 35 -3 29 7 -5 9 10 31 36 47 69 46
182 243 161 281 -14 25 -24 19 -55 -34z"/>
<path d="M2792 2798 c-79 -62 -136 -178 -87 -178 14 0 51 -27 82 -60 73 -78
75 -78 176 45 47 58 96 112 107 122 13 10 11 20 -5 26 -14 6 -25 22 -25 36 0
61 -174 67 -248 9z m183 -2 c-4 -13 -25 -33 -46 -44 -22 -12 -61 -35 -89 -51
-27 -16 -58 -28 -67 -25 -10 3 -12 -9 -6 -26 7 -18 4 -27 -6 -21 -10 7 -17 29
-16 50 2 21 9 35 15 31 7 -4 39 18 71 50 58 57 160 83 144 36z m63 -61 c-5 -3
-54 -45 -108 -95 l-100 -90 85 91 c47 50 85 103 85 119 0 22 5 23 24 4 13 -13
19 -26 14 -29z"/>
<path d="M1983 2769 c-31 -68 -30 -135 2 -123 14 5 23 18 21 29 -3 11 4 49 13
83 22 75 -3 83 -36 11z"/>
<path d="M2161 2692 c-17 -22 -17 -31 3 -38 18 -7 15 -11 -7 -12 -18 -1 -37
-21 -43 -43 -16 -60 29 -38 72 36 37 63 18 107 -25 57z"/>
<path d="M2440 2693 c0 -4 18 -28 40 -53 23 -26 41 -77 42 -118 l1 -72 28 60
c30 67 21 128 -27 165 -29 23 -84 35 -84 18z"/>
<path d="M4604 4009 c6 -6 69 -15 139 -19 86 -5 111 -3 77 9 -56 19 -233 27
-216 10z"/>
<path d="M3772 3542 c-31 -32 -50 -68 -43 -80 7 -12 6 -33 -2 -47 -43 -68 4
-204 51 -147 31 37 9 79 -33 63 -25 -10 -26 -7 -5 19 20 24 20 30 -1 30 -16 0
-8 19 20 49 25 26 39 58 31 71 -8 12 2 40 21 61 56 62 22 45 -39 -19z"/>
<path d="M2452 2116 c-17 -24 -27 -48 -21 -53 10 -10 89 67 89 86 0 27 -40 7
-68 -33z"/>
<path d="M2563 2054 c-50 -55 -58 -91 -10 -51 18 15 49 24 68 21 20 -3 42 4
50 17 10 16 1 19 -28 10 -33 -11 -40 -7 -31 18 17 43 2 39 -49 -15z"/>
<path d="M4330 4840 c-7 -11 -6 -30 1 -42 9 -15 0 -18 -28 -10 -24 7 -61 17
-83 23 -22 7 -40 2 -40 -10 0 -11 -13 -21 -30 -21 -16 0 -30 -8 -30 -19 0 -55
547 -144 617 -100 26 17 21 19 -25 9 -50 -11 -55 -8 -35 16 19 23 18 32 -5 40
-16 7 -41 -3 -56 -21 -22 -27 -22 -30 2 -16 19 12 24 10 14 -6 -22 -35 -52
-28 -52 12 -1 30 -3 31 -21 5 -17 -26 -26 -23 -59 17 -22 26 -40 36 -40 23 0
-15 -13 -19 -35 -10 -19 8 -45 15 -57 16 -11 0 -20 26 -18 57 4 61 0 69 -20
37z"/>
<path d="M4350 4601 c-10 -32 -7 -52 7 -57 13 -4 19 -14 14 -23 -6 -8 10 -14
35 -13 59 3 76 92 17 92 -22 0 -44 11 -48 25 -5 14 -16 3 -25 -24z"/>
<path d="M4616 4537 c-12 -119 60 -249 91 -166 13 32 -17 57 -47 39 -11 -7
-20 7 -20 30 0 27 8 37 23 28 14 -9 18 -5 9 9 -8 12 -18 42 -23 66 -13 68 -26
66 -33 -6z"/>
<path d="M5143 4457 c-3 -50 -7 -52 -93 -42 -53 6 -90 2 -90 -10 0 -18 181
-50 196 -35 4 3 3 36 -1 73 -7 54 -9 57 -12 14z"/>
<path d="M4448 4458 c-31 -12 -32 -15 -5 -17 17 0 60 -7 95 -13 37 -8 62 -5
62 7 0 26 -104 42 -152 23z"/>
<path d="M4795 4404 c8 -47 6 -50 -18 -24 -15 17 -25 27 -22 22 2 -5 -5 -20
-18 -35 -17 -21 -11 -27 31 -27 52 0 79 81 35 108 -10 6 -13 -14 -8 -44z"/>
<path d="M5256 4351 c14 -122 -9 -177 -69 -162 -32 8 -46 5 -37 -8 14 -24 76
-28 98 -6 15 14 22 17 77 23 18 2 18 7 -3 20 -16 11 -24 38 -18 68 6 28 -4 68
-23 93 -33 43 -33 43 -25 -28z"/>
<path d="M130 4140 c-8 -13 -32 -29 -54 -37 -36 -14 -35 -17 15 -40 50 -22 53
-21 44 15 -6 22 0 44 12 48 13 5 17 15 10 23 -7 7 -19 3 -27 -9z"/>
<path d="M711 4118 c8 -12 2 -30 -12 -39 -19 -12 -12 -20 27 -30 35 -9 54 -27
54 -51 0 -21 4 -38 8 -38 5 0 25 -6 45 -13 35 -12 35 -11 1 16 -20 15 -37 50
-39 77 -2 28 -17 61 -34 74 -39 31 -68 33 -50 4z"/>
<path d="M1091 4066 c-7 -29 -21 -42 -35 -34 -12 8 -17 5 -9 -7 16 -26 113
-45 113 -22 0 9 -10 17 -22 17 -16 0 -15 10 3 31 14 17 37 26 52 21 15 -6 27
-3 27 6 0 46 -118 34 -129 -12z"/>
<path d="M1282 4086 c-43 -17 -102 -73 -102 -95 0 -12 9 -7 20 9 11 17 20 20
20 7 0 -54 59 -43 89 17 42 83 40 88 -27 62z"/>
<path d="M0 3875 c0 -36 41 -55 122 -55 32 0 58 -9 58 -20 0 -11 -11 -20 -25
-20 -15 0 -17 -6 -5 -15 11 -8 20 -37 20 -65 -1 -61 25 -100 65 -100 23 0 27
15 18 60 -10 52 -6 60 33 62 33 2 36 5 9 12 -90 23 -28 51 88 39 68 -7 162
-13 210 -13 83 0 87 -3 87 -60 0 -55 -6 -60 -70 -60 -38 0 -70 8 -70 17 0 23
-234 28 -248 6 -6 -9 76 -23 183 -31 235 -16 213 10 221 -258 9 -319 -4 -390
-72 -398 -47 -5 -55 -16 -60 -83 -6 -70 -11 -76 -55 -68 -66 13 -114 -42 -52
-58 32 -9 41 -22 32 -49 -8 -26 -2 -38 20 -38 59 0 41 -173 -25 -239 -64 -64
-192 -69 -139 -6 14 17 22 48 19 68 -4 25 6 37 30 37 28 1 30 5 9 18 -19 12
-21 21 -5 31 33 20 27 52 -7 38 -37 -14 -31 221 6 258 33 33 28 64 -5 36 -24
-19 -27 -16 -18 18 6 24 1 41 -12 41 -15 0 -12 21 10 63 30 59 30 62 -2 50
-18 -7 -41 -13 -50 -13 -9 0 -12 -18 -6 -40 9 -35 1 -40 -62 -40 -59 0 -72 -7
-72 -40 0 -22 -13 -40 -29 -40 -17 0 -25 -12 -19 -27 6 -17 -6 -32 -31 -38
-24 -7 -41 -28 -41 -51 0 -32 9 -38 45 -29 40 11 42 8 18 -21 -35 -42 -102 -5
-88 49 5 20 0 37 -13 37 -29 0 -29 -153 0 -171 12 -7 32 -3 44 9 32 32 50 27
64 -18 7 -22 21 -35 31 -29 11 6 19 0 20 -15 0 -15 9 -12 21 10 16 27 13 48
-10 84 -18 27 -31 65 -31 84 1 28 5 26 20 -9 10 -25 41 -56 68 -68 55 -25 64
-47 28 -69 -14 -9 -18 -5 -9 9 8 13 10 23 4 23 -36 0 -72 -134 -72 -270 l0
-153 60 43 c44 31 60 35 60 15 0 -15 -37 -47 -81 -71 l-82 -43 -67 53 -66 53
10 144 c7 87 3 148 -9 156 -13 8 -21 -64 -22 -204 -2 -206 0 -218 42 -239 28
-13 34 -22 15 -23 -21 -1 -30 -23 -30 -74 1 -88 34 -106 78 -44 24 35 32 38
32 13 0 -18 -11 -37 -25 -42 -14 -6 -5 -9 19 -8 24 1 39 9 33 18 -5 9 5 16 23
16 19 0 27 -9 18 -23 -9 -14 -5 -18 9 -9 33 20 29 52 -7 52 -16 0 -30 9 -30
21 0 27 72 -11 88 -46 6 -14 6 -4 0 23 -8 31 -5 43 10 33 14 -8 17 -1 8 21
-10 27 -5 32 22 22 20 -8 29 -6 22 6 -7 12 15 20 54 20 48 1 58 6 37 19 -23
14 -18 21 24 32 70 17 107 60 66 76 -17 6 -31 22 -31 35 0 15 14 12 37 -9 20
-18 43 -26 51 -18 9 8 12 2 9 -15 -4 -16 -18 -34 -30 -40 -16 -7 -11 -26 17
-60 23 -28 38 -37 36 -20 -9 58 0 79 30 67 19 -7 30 0 30 20 0 18 23 47 51 65
65 43 111 121 59 101 -26 -10 -31 -6 -22 18 6 18 12 38 12 46 0 7 8 1 18 -14
11 -18 18 -1 18 52 1 73 -3 80 -42 69 -24 -6 -33 -14 -20 -19 17 -5 15 -25 -5
-74 -15 -36 -22 -72 -15 -78 7 -7 2 -13 -11 -13 -13 0 -23 -17 -23 -39 0 -47
-23 -64 -57 -43 -37 23 -22 152 17 152 17 0 33 22 37 50 3 28 27 73 53 100
103 110 104 387 2 348 -13 -5 -25 9 -26 32 -2 22 3 40 10 40 8 0 16 124 19
275 3 151 10 334 17 407 l11 132 -276 24 c-152 13 -324 30 -382 36 -86 9 -105
6 -105 -19z m255 -1000 c-12 -38 -88 -43 -88 -6 0 19 18 31 48 31 30 0 45 -10
40 -25z m406 -114 c-26 -16 -25 -21 5 -32 51 -20 41 -49 -16 -49 -27 0 -50 5
-50 11 0 30 44 89 66 89 15 -1 13 -7 -5 -19z m-324 -181 c-2 -57 -13 -100 -25
-100 -24 0 -26 85 -4 155 23 71 33 53 29 -55z"/>
<path d="M5305 3667 c-14 -6 -20 -19 -14 -29 6 -10 2 -18 -10 -18 -36 0 -23
-35 16 -45 30 -8 37 1 35 48 -1 31 -2 56 -2 55 0 0 -11 -6 -25 -11z"/>
<path d="M30 3600 c-34 -15 -35 -17 -5 -19 19 0 35 -9 35 -20 0 -10 -16 -22
-35 -27 -33 -9 -33 -9 0 -12 19 -1 35 -11 35 -22 0 -11 -16 -21 -35 -21 -30
-2 -30 -4 4 -17 39 -15 39 -16 0 -38 -23 -14 -28 -23 -12 -23 27 -1 22 -317
-8 -443 -10 -42 -4 -55 29 -63 48 -13 51 6 44 261 -4 163 7 198 50 163 40 -34
35 -13 -10 38 -28 33 -36 70 -32 153 5 116 4 117 -60 90z"/>
<path d="M479 3545 c-27 -19 -71 -35 -97 -36 -34 0 -50 -13 -52 -40 -2 -21
-10 -61 -18 -89 -8 -27 -7 -40 2 -29 9 12 31 27 49 34 23 8 30 27 23 54 -6 23
-1 41 12 41 14 0 19 -22 12 -60 -12 -69 6 -75 67 -23 43 37 60 76 24 54 -10
-7 -17 6 -16 29 5 54 27 50 68 -12 32 -49 36 -50 49 -15 24 58 20 74 -10 49
-30 -25 -63 24 -41 60 18 29 -18 21 -72 -17z"/>
<path d="M4972 3557 c6 -9 26 -17 45 -17 20 0 55 -18 78 -40 46 -42 125 -54
125 -19 0 12 8 16 18 10 10 -6 23 2 29 18 8 21 -7 32 -53 40 -130 20 -252 24
-242 8z"/>
<path d="M185 3458 c-16 -44 -18 -73 -5 -86 13 -13 20 0 20 39 1 41 6 51 18
32 12 -19 21 -21 31 -5 7 12 4 22 -6 22 -11 0 -23 14 -27 32 -4 20 -15 7 -31
-34z"/>
<path d="M222 3345 c-1 -44 -12 -65 -32 -65 -16 0 -30 -10 -30 -22 0 -12 13
-17 29 -11 17 6 45 -4 63 -22 22 -22 25 -36 11 -41 -30 -10 -30 -84 -1 -84 12
0 17 14 10 31 -8 21 -4 26 13 16 37 -23 75 -26 75 -5 0 10 -12 18 -27 18 -24
0 -28 25 -16 107 2 10 17 12 33 6 17 -7 30 -3 30 8 0 34 -77 20 -84 -16 -5
-22 -20 -2 -40 55 -32 89 -33 89 -34 25z"/>
<path d="M460 3289 c0 -7 10 -30 21 -52 17 -30 14 -51 -10 -88 -37 -56 -20
-63 45 -17 25 17 59 26 76 20 17 -7 25 -3 18 8 -7 11 -25 20 -41 20 -15 0 -42
27 -59 60 -29 55 -50 76 -50 49z"/>
<path d="M405 2994 c19 -16 35 -43 35 -61 0 -22 17 -33 50 -33 28 0 50 8 50
18 0 10 5 31 11 47 6 16 -1 29 -15 30 -14 0 -57 7 -96 14 -63 12 -66 11 -35
-15z"/>
<path d="M4689 2898 c0 -32 16 -39 100 -42 208 -8 221 -6 253 32 22 27 36 32
46 15 9 -14 1 -23 -18 -23 -18 0 -27 -9 -20 -20 7 -11 101 -20 215 -20 187 0
200 2 164 31 -22 18 -28 26 -14 19 14 -7 25 -3 25 9 0 26 -140 28 -209 1 -35
-13 -51 -12 -51 3 0 12 -13 16 -29 10 -17 -6 -34 -4 -40 5 -18 29 -182 10
-175 -20 5 -18 -7 -15 -33 9 -25 23 -44 28 -52 14 -7 -11 -22 -21 -33 -21 -11
0 -16 7 -10 16 5 9 -20 17 -55 18 -51 1 -64 -6 -64 -36z"/>
<path d="M4280 2877 c0 -22 195 -22 208 0 6 9 -38 17 -99 17 -60 0 -109 -8
-109 -17z"/>
<path d="M4293 2787 c-34 -34 -11 -87 37 -87 52 0 71 49 25 66 -14 6 -6 9 17
8 30 -2 39 -12 33 -38 -8 -30 4 -36 68 -38 219 -8 217 -8 223 49 l7 53 -198 0
c-109 0 -204 -6 -212 -13z"/>
<path d="M5173 2747 c-7 -8 -13 -39 -13 -69 0 -61 67 -99 106 -60 16 16 14 22
-7 22 -16 0 -41 18 -54 40 -15 24 -17 40 -5 40 11 0 20 9 20 20 0 23 -27 27
-47 7z"/>
<path d="M4840 2643 c0 -33 9 -44 29 -36 17 6 35 3 42 -8 6 -10 2 -19 -9 -19
-11 0 -16 -13 -9 -30 6 -17 0 -30 -15 -30 -16 0 -19 -7 -7 -17 10 -10 64 -12
119 -5 l100 12 -50 37 c-29 22 -35 33 -15 26 26 -9 35 -1 35 33 -1 33 -5 37
-18 16 -10 -16 -32 -22 -51 -15 -19 7 -29 21 -22 31 6 9 -7 22 -28 28 -22 5
-43 -1 -49 -13 -6 -16 -16 -13 -30 7 -18 25 -21 22 -22 -17z"/>
<path d="M5658 2664 c-18 -8 -30 -31 -26 -53 13 -85 -14 -147 -59 -136 -33 8
-38 5 -21 -14 42 -45 157 -18 164 39 4 37 1 43 -13 22 -27 -39 -40 30 -21 103
9 30 14 54 12 54 -2 -1 -18 -8 -36 -15z"/>
<path d="M4480 2620 c0 -10 -13 -14 -30 -7 -16 6 -30 1 -30 -11 0 -12 26 -22
57 -22 32 0 101 -6 153 -13 69 -9 92 -7 82 9 -7 12 -28 17 -46 10 -22 -9 -28
-5 -18 11 10 16 0 21 -32 16 -25 -4 -66 0 -91 9 -27 10 -45 9 -45 -2z"/>
<path d="M105 2525 c-46 -16 -27 -65 25 -65 29 0 50 11 50 28 0 31 -38 50 -75
37z"/>
<path d="M5524 2403 c-16 -10 12 -17 70 -18 76 -1 85 2 46 15 -68 22 -86 22
-116 3z"/>
<path d="M5716 2396 c21 -21 240 -48 221 -27 -7 8 -30 17 -50 21 -20 4 -37 9
-37 11 0 2 -34 5 -76 8 -43 3 -68 -3 -58 -13z"/>
<path d="M4537 1948 c-1 -32 -4 -78 -7 -103 -3 -34 2 -40 20 -25 16 13 22 49
16 96 -13 93 -25 108 -29 32z"/>
<path d="M3781 1898 c-34 -21 -90 -78 -125 -128 -35 -49 -71 -90 -80 -90 -9 0
-16 -13 -16 -30 0 -16 10 -30 21 -30 12 0 16 9 10 19 -7 10 8 30 33 43 25 13
52 34 60 46 8 12 31 22 50 23 20 0 34 10 32 22 -2 13 31 9 87 -9 78 -26 89
-36 82 -77 -5 -26 -1 -47 8 -47 10 0 9 -18 -3 -40 -28 -52 -9 -51 46 3 24 24
33 37 21 30 -17 -10 -23 19 -23 97 2 170 -84 240 -203 168z"/>
<path d="M4618 1930 c-13 -59 -10 -130 6 -130 29 0 38 50 18 101 -11 27 -21
40 -24 29z"/>
<path d="M3451 1762 c-6 -10 -1 -22 12 -26 16 -6 18 -19 6 -37 -25 -41 -29
-79 -7 -79 10 0 18 19 18 41 0 23 8 36 19 30 10 -6 24 -3 30 8 7 10 25 14 42
8 54 -21 29 10 -34 42 -74 37 -71 36 -86 13z"/>
<path d="M5980 1730 c0 -59 -3 -59 -208 -20 -87 17 -163 26 -168 20 -6 -5 -1
-10 12 -10 12 0 34 -25 48 -55 27 -55 74 -73 99 -37 9 12 25 11 42 -4 16 -13
35 -18 42 -10 24 24 13 -26 -12 -54 -14 -16 -6 -13 17 6 23 19 49 27 58 19 9
-8 11 1 4 20 -7 19 -8 35 -2 35 5 0 19 -27 31 -60 34 -97 57 -69 57 70 0 72
-4 130 -10 130 -5 0 -10 -22 -10 -50z"/>
<path d="M660 1678 c0 -13 -18 -18 -43 -11 -30 7 -56 -3 -80 -31 -21 -23 -37
-32 -37 -19 0 13 -10 23 -21 23 -12 0 -15 -11 -7 -23 10 -16 4 -20 -18 -11
-18 7 -37 5 -43 -4 -16 -26 229 -27 261 -1 20 17 28 18 28 1 0 -12 2 -29 5
-37 3 -8 -67 -18 -155 -21 -227 -8 -225 -7 -214 -51 7 -26 3 -35 -13 -25 -15
10 -23 -4 -23 -42 -1 -43 -5 -49 -20 -26 -16 25 -20 23 -23 -10 -7 -86 6 -132
54 -179 27 -27 49 -65 49 -85 1 -29 4 -30 18 -8 10 16 32 22 51 15 19 -7 28
-21 22 -31 -6 -11 -3 -25 9 -32 11 -7 30 11 43 39 23 50 57 69 57 32 0 -10 17
-17 39 -16 21 2 34 10 30 17 -19 30 15 75 46 63 24 -9 29 -3 19 22 -9 24 1 41
34 56 37 16 45 33 39 83 -4 35 4 68 18 77 18 12 16 16 -8 17 -18 0 -38 -20
-46 -45 -9 -28 -18 -35 -24 -19 -18 42 9 84 54 84 23 0 36 9 29 20 -7 11 8 21
34 22 44 1 44 2 -8 25 -47 21 -50 27 -21 45 26 17 28 24 6 38 -18 11 -22 9
-13 -7 8 -13 10 -23 4 -23 -6 0 -21 19 -33 42 -18 34 -18 39 2 27 16 -10 20
-7 11 8 -18 30 -112 30 -112 1z m-64 -304 c12 -60 -34 -94 -128 -94 -95 0 -99
3 -67 62 41 77 182 100 195 32z"/>
<path d="M1181 1680 c-36 -21 -12 -53 48 -65 27 -5 45 -2 39 8 -6 9 -23 17
-39 17 -16 0 -29 9 -29 19 0 11 14 15 30 8 17 -6 30 -7 30 -1 0 20 -54 30 -79
14z"/>
<path d="M1184 1591 c7 -8 -9 -53 -38 -98 l-51 -83 62 59 c49 46 63 51 63 25
0 -19 8 -34 18 -34 9 0 17 23 17 51 0 36 -8 48 -29 40 -15 -6 -23 -2 -17 8 7
10 0 25 -14 33 -14 8 -19 7 -11 -1z"/>
<path d="M5400 1443 c0 -10 24 -34 52 -53 35 -23 48 -25 37 -7 -9 15 5 9 31
-13 41 -35 45 -36 34 -5 -11 29 -6 32 21 18 19 -10 45 -14 58 -9 13 4 29 -1
36 -13 8 -12 1 -16 -16 -9 -45 17 -51 -18 -10 -57 31 -29 37 -30 37 -5 0 17 9
30 19 30 11 0 14 15 7 32 -10 26 -3 30 31 19 24 -8 43 -5 43 6 0 16 -52 28
-325 74 -30 5 -55 1 -55 -8z"/>
<path d="M4092 1424 c-8 -14 -21 -21 -29 -16 -8 5 -14 -8 -14 -28 0 -20 9 -36
20 -34 19 4 19 -15 3 -120 -2 -14 -12 -32 -21 -40 -9 -9 -12 9 -7 39 6 30 3
55 -7 55 -9 0 -17 -20 -17 -46 0 -25 -14 -64 -30 -88 -27 -38 -27 -46 1 -74
18 -18 27 -33 20 -34 -6 -2 -19 -4 -29 -5 -10 -2 -26 -11 -35 -21 -10 -11 -6
-12 9 -4 19 12 23 -3 17 -61 -11 -100 2 -136 39 -105 22 18 28 17 28 -5 1 -21
5 -21 20 3 17 26 19 25 20 -5 0 -19 -10 -35 -22 -35 -13 0 -18 -18 -11 -44 6
-24 2 -56 -10 -70 -17 -20 -14 -26 11 -26 19 0 32 -16 32 -40 0 -22 10 -40 21
-40 12 0 15 -10 7 -23 -8 -13 -3 -18 14 -13 15 6 25 27 21 48 -39 207 -60 277
-86 286 -26 11 -26 27 2 142 l31 130 80 -6 c98 -8 92 -2 95 -112 2 -56 13 -95
30 -101 15 -6 21 -21 13 -34 -9 -14 -5 -18 9 -9 13 8 23 6 23 -5 0 -11 -10
-23 -23 -27 -15 -5 -13 -17 6 -37 16 -16 30 -51 31 -79 1 -27 5 -119 8 -204 3
-108 13 -157 32 -165 22 -8 22 -2 4 32 -16 31 -16 46 1 56 16 10 20 63 12 168
-6 94 -3 153 9 153 11 0 20 27 20 60 0 33 -10 60 -22 60 -16 0 -14 10 3 31 21
26 21 30 -3 25 -16 -3 -25 6 -22 22 5 24 1 24 -24 4 -44 -37 -77 -9 -47 38 20
32 18 44 -10 65 -18 14 -36 50 -40 81 -4 30 -13 55 -21 55 -8 -1 -23 -1 -34
-1 -11 0 -20 -12 -20 -27 0 -18 -16 -24 -50 -18 -45 9 -48 17 -40 97 6 61 1
88 -16 88 -17 1 -16 6 3 18 16 10 24 29 19 44 -7 20 -12 20 -24 2z"/>
<path d="M4311 1408 c-18 -18 -27 -38 -19 -45 7 -7 17 -2 22 12 5 14 18 25 29
25 11 0 14 -9 7 -20 -7 -11 -4 -20 7 -20 11 0 33 -5 50 -12 22 -8 30 0 28 30
-2 23 -16 42 -30 42 -15 0 -22 -11 -15 -25 7 -14 0 -9 -16 11 -28 33 -32 33
-63 2z"/>
<path d="M980 1350 c0 -16 -10 -30 -21 -30 -12 0 -15 10 -7 23 8 13 3 19 -14
13 -15 -5 -27 -29 -26 -53 2 -24 -4 -43 -12 -43 -9 0 -20 -17 -25 -39 -9 -34
-6 -36 28 -15 22 14 35 39 30 59 -6 24 2 35 29 35 25 0 38 14 38 40 0 22 -4
40 -10 40 -5 0 -10 -13 -10 -30z"/>
<path d="M4385 1204 c-25 -4 -55 -25 -67 -47 -18 -34 -15 -39 15 -34 21 3 51
-2 67 -12 25 -16 26 -14 4 14 -22 27 -20 35 10 52 44 25 31 37 -29 27z"/>
<path d="M13 1047 c-7 -8 -12 -41 -12 -75 2 -53 4 -56 19 -22 17 39 18 39 31
-3 10 -36 28 -42 111 -42 104 0 128 24 53 54 -25 10 -38 19 -29 20 8 0 4 13
-10 28 -14 16 -36 24 -49 19 -13 -5 -29 1 -36 13 -15 24 -57 28 -78 8z"/>
<path d="M4961 932 c-19 -24 -16 -27 18 -18 28 7 41 1 41 -20 0 -18 8 -37 18
-43 20 -12 17 18 -7 74 -18 42 -38 44 -70 7z"/>
<path d="M79 837 c-69 -31 -79 -43 -75 -94 l4 -58 69 39 c38 21 84 36 101 32
18 -4 52 13 76 38 25 25 35 46 24 46 -11 0 -16 8 -10 17 19 30 -107 17 -189
-20z"/>
<path d="M5091 530 c7 -55 20 -108 29 -118 26 -27 10 135 -18 179 -20 32 -22
22 -11 -61z"/>
<path d="M5013 585 c-8 -14 -10 -34 -3 -45 7 -11 1 -20 -13 -20 -13 0 -7 -13
14 -28 49 -36 49 -36 32 48 -9 45 -20 61 -30 45z"/>
<path d="M2872 466 c-30 -8 -32 -14 -10 -28 18 -12 4 -15 -42 -9 -38 4 -70 10
-70 11 0 2 -20 6 -44 8 -24 3 -39 -3 -33 -13 6 -10 -10 -16 -36 -12 -26 3 -58
-1 -72 -10 -14 -8 -25 -7 -25 4 0 11 -18 15 -40 9 -22 -6 -40 -25 -40 -42 0
-17 -6 -25 -12 -18 -16 15 -68 -35 -68 -66 0 -14 25 -8 65 16 37 22 122 45
200 52 74 7 150 19 170 25 27 10 30 7 12 -12 -12 -13 -53 -27 -91 -31 -134
-12 -229 -49 -255 -98 -14 -27 -37 -44 -51 -39 -33 12 -67 -89 -51 -153 l13
-50 374 -5 c405 -6 387 -11 377 100 -1 19 7 35 18 35 12 0 16 9 9 20 -7 12
-19 17 -27 12 -23 -15 -18 77 6 93 12 8 4 15 -19 15 -37 1 -37 3 -5 21 23 14
47 14 75 -1 49 -26 52 -43 5 -27 -30 9 -30 7 -5 -11 52 -37 62 -24 57 78 -3
79 -9 95 -30 77 -15 -12 -22 -29 -17 -37 5 -9 -6 -22 -25 -30 -84 -33 -119
-28 -182 31 -37 33 -76 53 -88 46 -14 -9 -17 -2 -9 20 7 18 11 32 8 31 -2 -2
-21 -7 -42 -12z m128 -304 l0 -118 -120 -7 c-113 -7 -120 -4 -120 38 0 25 9
45 20 45 11 0 20 10 20 21 0 12 -9 16 -20 9 -11 -7 -20 9 -20 37 0 43 12 50
115 68 63 11 117 21 120 22 3 2 5 -50 5 -115z m-260 -27 l0 -106 -78 -2 c-141
-3 -143 182 -2 198 39 5 72 10 75 12 3 2 5 -44 5 -102z m-200 -20 c-1 -62 -6
-77 -20 -55 -26 39 -26 140 0 140 11 0 20 -38 20 -85z"/>
<path d="M5251 461 c-6 -10 6 -31 29 -46 22 -16 35 -34 29 -40 -7 -6 -3 -16 7
-23 11 -6 24 11 29 37 8 41 2 49 -33 45 -25 -2 -40 6 -37 21 6 29 -8 33 -24 6z"/>
<path d="M3386 419 c-8 -28 -22 -37 -48 -28 -32 10 -38 1 -38 -51 0 -34 -9
-79 -20 -100 -14 -26 -13 -42 3 -52 14 -9 18 -5 9 9 -8 13 -5 23 7 23 11 0 19
7 17 15 -5 20 75 147 86 137 4 -5 8 13 8 40 0 59 -10 62 -24 7z"/>
<path d="M4150 420 c-7 -12 -21 -15 -31 -9 -11 6 -19 0 -19 -15 -1 -19 -6 -18
-20 4 -13 21 -19 22 -20 5 0 -15 23 -35 50 -45 28 -10 50 -27 50 -37 0 -10 14
-24 30 -30 24 -10 28 -1 17 43 -7 29 -21 57 -30 61 -10 3 -12 15 -6 25 6 10 7
18 1 18 -5 0 -15 -9 -22 -20z"/>
<path d="M5838 408 c-1 -10 -4 -37 -6 -61 -3 -29 4 -40 21 -33 16 6 27 -4 27
-25 0 -20 6 -30 12 -23 7 7 6 28 -3 48 -8 20 -18 48 -21 63 -6 34 -27 56 -30
31z"/>
<path d="M2293 247 c-24 -25 -13 -38 35 -42 27 -2 53 9 59 25 7 17 4 30 -6 30
-10 0 -22 -11 -28 -25 -8 -20 -10 -20 -11 0 -2 27 -27 33 -49 12z"/>
</g>
</svg>
