<?xml version="1.0" standalone="no"?>
<!DOCTYPE svg PUBLIC "-//W3C//DTD SVG 20010904//EN"
 "http://www.w3.org/TR/2001/REC-SVG-20010904/DTD/svg10.dtd">
<svg version="1.0" xmlns="http://www.w3.org/2000/svg"
 width="247.000000pt" height="100.000000pt" viewBox="0 0 247.000000 100.000000"
 preserveAspectRatio="xMidYMid meet">
<metadata>
Created by potrace 1.10, written by Peter Selinger 2001-2011
</metadata>
<g transform="translate(0.000000,100.000000) scale(0.100000,-0.100000)"
fill="#000000" stroke="none">
<path d="M120 508 l0 -383 80 0 80 0 0 137 c0 85 4 138 10 138 6 0 10 -6 10
-13 0 -8 16 -36 35 -63 19 -27 40 -57 47 -68 7 -10 31 -44 53 -74 l40 -55 63
-1 62 -2 0 383 c0 334 -2 383 -15 383 -13 0 -15 -43 -15 -325 0 -179 -3 -325
-7 -325 -5 0 -15 12 -25 28 -9 15 -39 61 -67 102 -71 104 -66 96 -123 185 -28
44 -64 99 -80 123 -15 24 -28 47 -28 52 0 4 -4 10 -8 12 -5 2 -28 36 -51 76
-24 39 -47 72 -52 72 -5 0 -9 -167 -9 -382z m108 171 c21 -35 22 -46 22 -284
0 -221 -2 -247 -16 -241 -9 3 -31 6 -50 6 l-34 0 0 317 0 316 28 -39 c15 -21
38 -55 50 -75z m177 -267 c60 -90 119 -171 132 -181 14 -12 23 -29 23 -46 0
-24 -3 -26 -37 -23 -36 3 -43 10 -120 118 -45 63 -91 122 -103 132 -17 14 -20
28 -20 99 0 46 4 79 8 74 5 -6 58 -83 117 -173z"/>
<path d="M670 717 c0 -96 -3 -268 -7 -383 l-6 -209 204 2 c163 1 204 4 204 15
0 10 -28 14 -122 16 l-123 3 0 151 0 151 85 -5 85 -4 0 68 0 68 -85 0 -85 0 0
135 0 135 136 0 c104 0 135 3 132 13 -4 9 -57 13 -211 15 l-207 2 0 -173z
m120 -202 l0 -345 -52 0 -51 0 6 173 c4 94 7 250 7 345 l0 172 45 0 45 0 0
-345z m153 35 c4 0 7 -13 7 -30 0 -30 0 -30 -60 -30 l-60 0 0 33 0 32 53 -2
c28 -1 55 -2 60 -3z"/>
<path d="M1115 853 c4 -21 10 -42 15 -48 4 -5 11 -29 15 -52 4 -24 10 -45 15
-48 4 -3 11 -25 14 -50 4 -24 11 -47 17 -50 5 -4 9 -14 9 -24 0 -18 35 -141
50 -176 5 -11 12 -36 16 -55 3 -19 10 -39 14 -45 4 -5 11 -26 15 -45 4 -19 11
-39 15 -45 4 -5 11 -29 15 -52 7 -47 20 -56 30 -20 3 12 10 31 15 42 13 31 50
157 50 172 0 25 18 13 25 -17 6 -28 24 -73 46 -112 5 -10 9 -23 9 -29 0 -6 7
-26 15 -43 l16 -33 77 2 c73 2 77 3 80 26 2 13 7 29 12 34 4 6 11 27 14 49 4
21 11 46 16 55 5 9 13 34 19 56 5 22 17 64 25 93 9 28 23 76 32 105 8 28 20
70 25 92 6 22 14 47 18 55 5 9 12 36 16 60 4 25 11 50 15 55 12 16 20 74 11
80 -17 10 -43 -49 -57 -130 -3 -22 -10 -44 -14 -50 -4 -5 -11 -30 -15 -55 -4
-24 -11 -51 -16 -60 -4 -8 -12 -34 -18 -57 -6 -24 -16 -62 -22 -85 -6 -24 -14
-50 -19 -59 -5 -9 -12 -34 -16 -55 -3 -22 -10 -43 -14 -49 -5 -5 -11 -31 -15
-57 -8 -54 -21 -62 -31 -20 -4 15 -10 32 -14 37 -5 6 -11 27 -15 48 -4 20 -11
37 -15 37 -5 0 -11 18 -15 40 -4 22 -11 40 -16 40 -5 0 -9 8 -9 18 -1 9 -9 35
-20 57 -11 22 -19 48 -20 57 0 9 -4 19 -9 22 -5 4 -12 24 -16 46 -8 50 -22 51
-31 3 -4 -21 -10 -42 -14 -48 -4 -5 -11 -26 -15 -45 -4 -19 -11 -39 -15 -45
-4 -5 -11 -26 -14 -45 -4 -19 -11 -44 -16 -55 -5 -11 -19 -55 -31 -98 -13 -42
-25 -77 -29 -77 -3 0 -11 24 -17 53 -6 28 -18 77 -28 107 -9 30 -21 73 -26 95
-6 22 -14 47 -19 56 -5 9 -12 34 -16 55 -3 22 -10 44 -14 49 -4 6 -11 27 -14
49 -4 21 -11 46 -16 55 -5 9 -19 51 -32 94 -14 49 -27 77 -36 77 -11 0 -13 -8
-7 -37z m390 -355 c4 -18 11 -39 16 -48 21 -40 38 -83 44 -110 4 -16 11 -32
16 -35 5 -4 9 -13 9 -21 0 -8 9 -34 19 -58 31 -66 30 -69 -12 -71 -42 -2 -52
6 -62 55 -4 19 -11 41 -16 50 -5 8 -18 38 -29 65 -12 28 -26 60 -32 73 -8 16
-8 28 0 45 6 12 14 37 17 55 8 41 21 41 30 0z"/>
<path d="M2040 862 c-70 -35 -111 -86 -118 -148 -6 -57 16 -105 63 -134 48
-30 88 -25 171 19 l74 40 0 -218 0 -219 -25 -16 c-68 -45 -172 -26 -217 39
-31 46 -35 79 -13 123 32 63 90 50 101 -24 3 -25 12 -64 20 -87 12 -39 13 -31
13 105 l1 148 -27 -12 c-101 -44 -153 -107 -153 -183 0 -72 59 -145 133 -163
42 -11 134 5 164 29 42 33 83 86 114 147 31 59 34 72 34 151 0 76 -3 91 -27
127 -14 23 -43 51 -63 63 -43 25 -66 21 -165 -31 -65 -34 -89 -35 -124 -7 -82
64 -44 183 73 229 69 27 99 25 165 -9 52 -28 56 -28 56 -11 0 13 -16 28 -50
45 -66 34 -128 33 -200 -3z m274 -285 c27 -35 30 -44 31 -115 0 -69 -4 -86
-35 -149 -19 -40 -38 -72 -42 -73 -5 0 -8 86 -8 191 0 209 1 211 54 146z
m-244 -163 c0 -8 -4 -12 -10 -9 -5 3 -10 10 -10 16 0 5 5 9 10 9 6 0 10 -7 10
-16z"/>
</g>
</svg>
