<?xml version="1.0" standalone="no"?>
<!DOCTYPE svg PUBLIC "-//W3C//DTD SVG 20010904//EN"
 "http://www.w3.org/TR/2001/REC-SVG-20010904/DTD/svg10.dtd">
<svg version="1.0" xmlns="http://www.w3.org/2000/svg"
 width="268.000000pt" height="91.000000pt" viewBox="0 0 268.000000 91.000000"
 preserveAspectRatio="xMidYMid meet">
<metadata>
Created by potrace 1.10, written by Peter Selinger 2001-2011
</metadata>
<g transform="translate(0.000000,91.000000) scale(0.050000,-0.050000)"
fill="#000000" stroke="none">
<path d="M157 1205 c-3 -261 -6 -605 -6 -765 l-1 -290 405 -5 c395 -6 405 -5
405 35 0 42 22 40 -410 49 l-60 1 0 290 0 290 160 0 160 0 6 135 6 135 -166 0
-166 0 1 263 2 264 271 1 272 2 20 -60 c11 -33 40 -127 64 -210 108 -365 394
-1188 417 -1196 9 -3 62 128 118 290 55 163 143 413 195 556 261 722 252 690
189 690 -22 0 -43 -11 -47 -25 -13 -49 -150 -449 -227 -665 -87 -244 -103
-257 -141 -117 -15 54 -48 156 -73 227 -26 72 -66 193 -90 270 -24 77 -51 158
-61 180 -10 22 -23 60 -30 84 l-12 45 -598 0 -598 1 -5 -475z m260 -275 l-7
-690 -95 0 -95 0 11 665 c14 774 5 715 110 715 l82 0 -6 -690z m861 663 c12
-15 35 -67 50 -115 15 -48 70 -205 121 -348 52 -143 113 -315 136 -383 l42
-124 -41 -124 c-22 -68 -45 -116 -51 -106 -21 33 -395 1170 -395 1198 0 38
107 39 138 2z"/>
<path d="M2159 1675 c-6 -22 -29 -1024 -29 -1245 l0 -280 405 -5 c395 -6 405
-5 405 35 0 37 -14 40 -175 43 -96 2 -202 4 -235 5 l-60 2 0 290 0 290 160 0
160 0 6 135 6 135 -166 0 -166 0 1 265 2 265 238 -6 c233 -6 308 9 280 54 -11
19 -828 36 -832 17z m238 -745 l-7 -690 -95 0 -95 0 11 665 c14 774 5 715 110
715 l82 0 -6 -690z"/>
<path d="M3025 915 l5 -765 164 -6 165 -6 5 276 6 276 157 -233 c218 -324 213
-320 350 -313 l113 6 5 765 c5 758 5 765 -35 765 -40 0 -41 -9 -39 -642 0
-354 -3 -646 -8 -651 -9 -10 -323 458 -517 773 -307 498 -321 519 -361 520 -9
0 -13 -344 -10 -765z m205 359 l74 -123 -9 -461 -9 -460 -93 -6 -93 -6 0 613
c0 686 -5 670 130 443z"/>
<path d="M4100 1640 c0 -37 13 -40 180 -40 l180 0 5 -725 5 -725 165 -6 165
-6 0 730 0 731 195 5 c167 5 195 11 201 41 6 33 -30 35 -545 35 -538 0 -551
-1 -551 -40z m626 -730 l-4 -680 -91 -6 -91 -6 0 692 0 692 95 -6 95 -6 -4
-680z"/>
</g>
</svg>
