<?xml version="1.0" standalone="no"?>
<!DOCTYPE svg PUBLIC "-//W3C//DTD SVG 20010904//EN"
 "http://www.w3.org/TR/2001/REC-SVG-20010904/DTD/svg10.dtd">
<svg version="1.0" xmlns="http://www.w3.org/2000/svg"
 width="242.000000pt" height="99.000000pt" viewBox="0 0 242.000000 99.000000"
 preserveAspectRatio="xMidYMid meet">
<metadata>
Created by potrace 1.10, written by Peter Selinger 2001-2011
</metadata>
<g transform="translate(0.000000,99.000000) scale(0.050000,-0.050000)"
fill="#000000" stroke="none">
<path d="M160 951 l0 -773 165 6 165 6 1 250 c1 138 3 258 5 268 2 11 64 -70
137 -180 236 -352 232 -348 368 -348 l118 0 6 750 c5 797 6 790 -35 790 -40 0
-41 -11 -40 -665 0 -401 -7 -613 -20 -608 -26 8 -229 313 -561 842 -145 231
-274 423 -286 427 -17 5 -23 -196 -23 -765z m182 383 l78 -120 0 -478 0 -478
-95 6 -95 6 -5 606 c-6 669 -10 655 117 458z"/>
<path d="M1260 1385 c0 -184 -6 -531 -13 -770 l-13 -435 413 0 c400 0 413 1
413 40 0 37 -14 40 -185 43 -102 2 -212 4 -244 5 l-59 2 2 290 3 290 161 -5
162 -6 0 141 0 140 -161 0 -160 0 5 264 6 264 250 1 c221 1 250 5 256 36 6 32
-24 35 -415 35 l-421 0 0 -335z m240 -415 l0 -690 -101 0 -101 0 12 235 c7
129 16 429 20 665 5 237 9 441 9 455 1 16 31 25 81 25 l80 0 0 -690z"/>
<path d="M2140 1681 c0 -22 13 -78 28 -125 15 -47 48 -153 72 -236 325 -1101
359 -1194 399 -1095 33 83 121 377 121 406 0 45 36 34 50 -16 30 -102 138
-387 156 -411 14 -18 66 -24 171 -20 l151 6 84 270 c46 149 126 419 177 600
52 182 106 371 121 420 51 171 58 240 23 240 -37 0 -63 -44 -82 -140 -7 -38
-26 -115 -42 -170 -16 -55 -52 -181 -81 -280 -87 -305 -106 -373 -163 -595
-65 -251 -66 -253 -124 -90 -64 183 -161 440 -178 475 -9 17 -37 95 -62 175
-25 80 -53 145 -62 145 -9 0 -35 -65 -60 -145 -93 -309 -162 -527 -180 -571
-11 -25 -19 -63 -19 -84 0 -45 -37 -73 -48 -36 -5 14 -41 139 -80 276 -89 312
-243 826 -303 1015 -13 40 -69 29 -69 -14z m796 -766 c10 -36 69 -192 131
-347 134 -333 130 -308 43 -308 -55 0 -75 10 -89 45 -10 25 -58 140 -107 257
l-89 212 31 103 c37 120 55 128 80 38z"/>
<path d="M4001 1679 c-319 -145 -325 -584 -8 -614 83 -8 117 2 237 64 l140 73
6 -416 5 -416 -54 -44 c-237 -190 -629 133 -418 345 88 88 139 40 171 -160 24
-153 34 -177 62 -160 16 10 4 545 -13 565 -10 12 -164 -74 -227 -127 -197
-166 -157 -449 79 -570 450 -229 943 598 576 966 -116 116 -151 119 -346 25
-207 -100 -293 -92 -356 33 -125 246 257 494 534 347 95 -51 131 -51 131 1 0
104 -351 164 -519 88z m534 -579 c104 -153 106 -290 9 -505 -91 -201 -101
-179 -101 226 1 387 7 405 92 279z"/>
</g>
</svg>
