<?xml version="1.0" standalone="no"?>
<!DOCTYPE svg PUBLIC "-//W3C//DTD SVG 20010904//EN"
 "http://www.w3.org/TR/2001/REC-SVG-20010904/DTD/svg10.dtd">
<svg version="1.0" xmlns="http://www.w3.org/2000/svg"
 width="300.000000pt" height="300.000000pt" viewBox="0 0 300.000000 300.000000"
 preserveAspectRatio="xMidYMid meet">
<metadata>
Created by potrace 1.10, written by Peter Selinger 2001-2011
</metadata>
<g transform="translate(0.000000,300.000000) scale(0.050000,-0.050000)"
fill="#ffffff" stroke="none">
<path d="M90 5966 c33 -17 65 -38 70 -46 6 -8 33 -21 60 -29 39 -11 44 -9 20
8 -45 34 -176 101 -194 100 -9 0 11 -15 44 -33z"/>
<path d="M860 5970 c89 -29 140 -27 140 6 0 9 -52 18 -115 20 l-115 3 90 -29z"/>
<path d="M1131 5981 c-75 -121 736 -374 846 -264 34 34 43 35 110 8 84 -34 92
-54 28 -75 -40 -13 -41 -15 -8 -24 20 -5 47 6 61 25 20 28 33 30 64 12 36 -21
36 -23 -7 -35 -49 -14 -62 -48 -17 -48 23 0 92 80 92 106 0 36 -289 117 -310
87 -14 -18 -35 -33 -47 -33 -13 0 -23 -10 -23 -21 0 -12 -10 -15 -23 -7 -13 8
-47 17 -75 20 -188 22 -233 57 -163 127 22 22 31 45 21 51 -10 6 -30 -7 -44
-29 -14 -23 -37 -41 -51 -41 -39 0 -29 -35 19 -69 58 -40 47 -39 -113 10 -112
35 -130 46 -110 70 19 24 16 29 -17 29 -22 0 -44 -9 -48 -21 -4 -12 -22 -9
-46 10 -36 27 -36 30 -5 30 19 1 35 8 35 16 1 48 36 68 78 46 24 -13 39 -30
33 -39 -5 -9 11 -12 37 -7 60 11 92 -34 34 -49 -48 -12 -57 -46 -13 -46 28 0
91 73 91 104 0 24 -139 76 -202 76 -38 0 -58 -10 -58 -30 0 -16 -13 -30 -30
-30 -16 0 -30 -10 -30 -22 0 -12 -11 -18 -25 -13 -14 5 -25 25 -25 45 0 42
-40 63 -59 31z"/>
<path d="M3469 5939 c-49 -96 -263 -452 -347 -579 -100 -150 -106 -160 -94
-160 36 0 508 771 485 793 -5 6 -25 -18 -44 -54z"/>
<path d="M3772 5968 c-17 -45 -16 -48 20 -48 25 0 29 -13 20 -55 l-12 -55 29
50 c16 28 30 39 30 25 1 -14 15 -25 33 -25 20 0 28 11 21 30 -7 17 -3 30 7 30
10 0 18 -31 16 -69 -1 -38 -10 -65 -19 -59 -9 6 -17 -4 -17 -21 0 -17 -10 -31
-22 -31 -12 0 -18 12 -12 27 6 14 -2 26 -18 26 -15 0 -28 -7 -28 -16 0 -9 -10
-17 -21 -17 -12 0 -15 10 -7 23 9 15 5 18 -11 8 -19 -12 -22 -4 -13 31 8 27
-18 -15 -57 -92 -73 -147 -84 -180 -51 -160 11 7 20 4 20 -6 0 -11 26 -17 58
-14 46 4 57 -2 50 -28 -5 -17 19 24 52 93 33 69 68 125 78 125 57 0 64 160 10
215 -35 35 -69 31 -55 -5 7 -19 0 -30 -20 -30 -43 0 -64 41 -31 62 23 14 22
17 -5 18 -18 0 -38 -14 -45 -32z m-30 -305 c14 21 17 22 18 1 0 -15 9 -21 20
-14 23 14 25 6 8 -38 -23 -59 -111 -12 -91 48 8 24 11 25 19 3 7 -23 12 -23
26 0z"/>
<path d="M5390 5855 c-40 -80 -82 -145 -94 -145 -12 0 -58 -83 -101 -185 -44
-102 -91 -185 -105 -185 -30 0 -56 -55 -39 -82 16 -25 -41 -101 -61 -83 -9 8
-10 4 -2 -10 8 -14 5 -25 -5 -25 -36 0 -85 -64 -74 -97 5 -18 0 -46 -11 -63
-18 -25 -20 -24 -11 5 7 19 7 35 1 35 -19 0 -71 -60 -76 -85 -7 -48 -145 -275
-159 -262 -7 8 -13 -2 -13 -21 0 -37 -111 -221 -168 -277 -19 -19 -28 -35 -20
-35 8 0 -6 -22 -32 -50 -26 -27 -39 -50 -28 -50 10 0 9 -7 -3 -15 -12 -8 -42
-49 -67 -91 -25 -41 -56 -86 -69 -100 -27 -28 -173 -244 -204 -304 -12 -22
-38 -67 -59 -100 -67 -108 1 -24 131 160 110 157 381 551 648 940 140 205 318
506 521 880 108 198 199 367 204 375 5 8 -1 15 -11 15 -11 0 -53 -65 -93 -145z"/>
<path d="M0 5911 c0 -17 13 -31 30 -31 17 0 30 -13 30 -30 0 -16 -13 -30 -30
-30 -17 0 -30 -9 -30 -20 0 -39 62 -19 78 25 20 52 14 67 -39 96 -31 16 -39
14 -39 -10z"/>
<path d="M2640 5880 c0 -21 59 -49 151 -72 36 -9 49 -4 49 19 0 21 -11 28 -33
19 -21 -8 -29 -5 -21 8 8 12 -13 26 -49 34 -84 16 -97 15 -97 -8z"/>
<path d="M201 5821 c-12 -22 -36 -41 -52 -41 -16 0 -29 -10 -29 -21 0 -13 -19
-17 -45 -9 -37 10 -39 8 -12 -9 41 -26 125 2 152 50 21 37 107 33 120 -6 5
-14 -15 -34 -43 -44 -66 -25 -67 -49 -2 -36 28 5 50 3 50 -5 0 -30 159 -18
177 13 9 18 36 28 63 24 62 -9 77 -57 18 -57 -24 0 -39 -6 -32 -13 8 -7 4 -25
-9 -40 -44 -54 10 -25 68 35 64 67 58 87 -37 107 -45 9 -66 5 -74 -15 -12 -31
-94 -61 -94 -34 0 9 -18 12 -40 6 -22 -6 -40 -2 -40 8 0 35 25 45 61 25 24
-12 41 -12 49 1 18 30 -15 70 -60 72 -22 1 -69 8 -104 16 -52 12 -67 7 -85
-27z"/>
<path d="M4535 5825 c-6 -19 -16 -49 -24 -67 -7 -19 -2 -32 13 -33 14 -1 49
-8 76 -15 49 -13 49 -13 -5 23 -49 32 -83 87 -36 58 10 -7 29 4 41 24 20 31
22 30 13 -9 -5 -25 -3 -43 4 -42 48 10 127 -32 101 -52 -15 -13 -38 -40 -50
-61 -22 -40 -128 -81 -128 -50 0 10 -18 27 -40 39 -33 18 -37 16 -27 -15 30
-82 107 -136 107 -74 0 21 12 28 35 21 25 -7 54 16 99 77 66 89 66 111 3 111
-41 0 -52 59 -12 62 35 3 -66 34 -118 36 -24 1 -47 -13 -52 -33z"/>
<path d="M5720 5835 c0 -22 126 -75 180 -75 51 0 13 40 -50 51 -39 8 -75 22
-81 31 -17 27 -49 22 -49 -7z"/>
<path d="M540 5828 c480 -92 885 -202 1065 -288 41 -20 75 -29 75 -20 0 57
-808 291 -1065 309 -69 5 -102 5 -75 -1z"/>
<path d="M1820 5808 c-48 -30 -33 -29 50 4 35 13 37 11 14 -16 -38 -47 3 -61
42 -15 19 21 25 39 15 39 -10 0 -30 4 -44 9 -15 5 -49 -4 -77 -21z"/>
<path d="M2900 5810 c-18 -21 -18 -31 -2 -32 41 -5 52 -9 79 -26 15 -10 36 -7
48 5 24 24 13 44 -28 50 -15 2 -37 11 -50 18 -12 8 -34 1 -47 -15z"/>
<path d="M5619 5744 c-97 -103 -88 -181 13 -114 39 25 45 39 29 59 -16 20 -14
29 8 38 31 12 44 74 16 72 -8 0 -38 -25 -66 -55z"/>
<path d="M2400 5740 c233 -50 618 -195 529 -199 -12 -1 -39 -15 -60 -32 -37
-30 -37 -31 11 -17 44 12 47 10 22 -19 -29 -35 -82 -45 -82 -15 0 10 -18 14
-40 8 -48 -13 -51 10 -9 70 19 26 22 44 10 44 -12 0 -27 -13 -34 -30 -6 -16
-25 -30 -41 -30 -43 0 -21 -46 36 -75 112 -57 259 24 204 113 -39 63 -528 224
-665 221 -28 -1 26 -18 119 -39z"/>
<path d="M730 5720 c-27 -12 -30 -18 -10 -19 22 -2 17 -13 -17 -42 -35 -28
-39 -39 -16 -39 17 0 38 -13 47 -29 21 -37 108 -19 93 20 -6 15 14 40 46 59
32 18 41 27 20 21 -20 -6 -44 -11 -53 -11 -10 0 -23 -17 -29 -38 -8 -25 -25
-35 -51 -28 -31 8 -34 16 -15 47 13 20 30 32 39 27 8 -6 10 4 4 21 -7 17 -14
30 -15 30 -2 -1 -21 -10 -43 -19z"/>
<path d="M5723 5669 c-29 -65 -29 -69 5 -69 15 0 33 16 40 35 6 19 17 46 24
60 6 14 -1 25 -17 25 -16 0 -39 -23 -52 -51z"/>
<path d="M2360 5640 c-12 -22 -35 -40 -51 -40 -16 0 -29 -9 -29 -20 0 -35 49
-22 75 20 27 43 75 53 95 20 7 -11 -8 -28 -32 -37 -33 -12 -38 -21 -19 -33 17
-10 39 0 61 30 26 34 45 42 72 30 21 -9 58 -14 83 -12 25 3 45 -4 45 -14 0
-11 -20 -25 -45 -33 -29 -9 -36 -17 -19 -24 29 -12 104 47 104 82 0 13 -63 34
-140 47 -180 31 -175 31 -200 -16z"/>
<path d="M991 5642 c-122 -48 23 -179 201 -181 35 -1 102 -18 150 -39 97 -41
278 -67 278 -40 0 10 14 18 30 18 17 0 30 18 30 40 0 46 -36 54 -52 11 -11
-29 -122 -64 -141 -44 -6 5 24 28 66 51 42 22 68 41 57 41 -11 0 -50 -18 -87
-40 -47 -29 -85 -37 -125 -29 -77 17 -73 33 17 75 69 32 51 33 -30 1 -32 -12
-32 -10 -5 24 27 34 27 36 -7 24 -20 -8 -41 -14 -46 -14 -5 0 -4 -9 3 -20 7
-11 4 -20 -7 -20 -11 0 -36 -6 -56 -13 -30 -11 -28 -3 11 40 27 29 39 53 27
53 -12 0 -34 5 -49 10 -15 6 -45 -3 -67 -20 -37 -29 -36 -29 16 -11 58 21 82
-10 25 -32 -16 -6 -25 -19 -20 -28 9 -14 -130 15 -147 32 -4 3 28 24 70 47 42
22 65 41 50 41 -15 1 -53 -18 -85 -40 -32 -23 -74 -38 -93 -33 -25 6 -14 17
40 41 81 36 103 64 32 42 -28 -9 -38 -6 -28 9 15 25 -1 26 -58 4z"/>
<path d="M5834 5621 l-57 -36 55 -14 c29 -7 63 -4 74 7 13 13 4 16 -26 8 -33
-9 -42 -5 -31 12 8 13 34 23 58 21 80 -6 106 2 63 21 -56 24 -72 22 -136 -19z"/>
<path d="M4359 5549 c-10 -29 -28 -69 -40 -90 -11 -22 -13 -39 -3 -39 10 0 28
23 40 50 25 55 97 72 76 18 -31 -80 -35 -128 -12 -128 13 0 19 13 13 28 -6 16
4 34 23 41 28 11 29 16 3 32 -24 15 -23 18 6 19 53 0 42 34 -15 48 -58 15 -66
45 -15 58 26 7 23 10 -10 12 -32 1 -52 -14 -66 -49z"/>
<path d="M0 5510 c0 -15 11 -32 25 -38 20 -10 20 -14 0 -24 -14 -6 -25 -22
-24 -35 0 -25 79 61 79 87 0 8 -18 20 -40 26 -25 6 -40 0 -40 -16z"/>
<path d="M3612 5508 c-5 -14 1 -30 14 -35 15 -6 12 -10 -7 -11 -26 -2 -175
-262 -149 -262 5 0 37 54 70 120 54 108 95 163 68 93 -11 -30 34 -57 105 -63
30 -2 40 5 32 25 -6 15 -27 24 -46 19 -20 -5 -41 2 -46 16 -14 35 5 50 55 48
37 -2 36 -4 -8 -19 -49 -16 -48 -17 8 -13 33 2 63 16 67 30 5 14 1 24 -8 22
-47 -8 -87 5 -87 29 0 34 -55 35 -68 1z"/>
<path d="M126 5453 c-9 -14 -34 -33 -56 -42 -28 -11 -32 -19 -14 -25 15 -6 48
10 74 34 32 30 60 40 88 31 39 -13 62 -54 27 -49 -51 8 -72 -3 -49 -26 30 -30
117 46 95 82 -19 31 -146 27 -165 -5z"/>
<path d="M420 5430 c-14 -16 -37 -30 -52 -30 -16 0 -28 -9 -28 -20 0 -30 52
-24 78 8 19 22 36 23 83 6 63 -24 79 -54 29 -54 -16 0 -30 -9 -30 -20 0 -31
43 -23 70 13 13 18 34 27 47 19 36 -22 27 -46 -22 -62 -43 -14 -43 -15 -5 -24
22 -6 45 -18 51 -28 6 -9 28 12 49 47 35 62 35 63 1 35 -34 -27 -36 -26 -23
12 11 36 -2 48 -90 85 -123 51 -126 51 -158 13z"/>
<path d="M1718 5445 c-2 -8 -4 -27 -5 -41 -2 -14 -15 -33 -30 -42 -19 -12 -12
-20 28 -30 30 -8 64 -5 75 6 13 13 5 16 -23 9 -63 -17 -53 8 22 54 l65 39 -70
-11 c-53 -9 -63 -7 -40 9 20 15 22 21 5 22 -14 0 -26 -7 -27 -15z"/>
<path d="M5426 5395 c-85 -95 -70 -165 24 -103 37 24 45 40 30 58 -15 18 -12
29 9 37 17 6 31 21 31 32 0 36 -51 23 -94 -24z"/>
<path d="M1840 5390 c-14 -16 -18 -30 -10 -30 8 0 4 -13 -9 -28 -24 -29 86
-72 114 -44 6 7 1 12 -12 12 -40 0 -25 35 22 51 116 39 374 1 620 -91 108 -40
191 -101 98 -71 -29 9 -49 1 -67 -28 -27 -43 -96 -57 -96 -20 0 12 -9 16 -20
9 -25 -15 -160 10 -160 30 0 8 20 21 45 29 32 10 37 17 16 25 -30 12 -108 -67
-91 -93 30 -49 256 -68 291 -24 43 52 104 59 85 10 -17 -46 27 -17 55 35 63
118 -713 306 -821 198 -44 -44 -51 -37 -19 21 24 46 -5 52 -41 9z"/>
<path d="M5585 5380 c-35 -55 -34 -56 48 -78 80 -22 107 -15 107 29 0 16 12
23 30 16 29 -11 42 15 18 38 -19 20 -68 -7 -68 -37 0 -30 -36 -36 -88 -16 -40
16 -42 48 -2 48 17 0 30 9 30 20 0 35 -49 22 -75 -20z"/>
<path d="M5867 5333 l-43 -86 88 -32 88 -33 0 54 c-1 39 -6 46 -18 26 -12 -18
-35 -23 -70 -14 -59 15 -68 47 -19 66 64 24 108 81 74 94 -49 19 -55 15 -100
-75z"/>
<path d="M2079 5305 c-15 -30 -31 -61 -35 -69 -18 -36 156 -63 193 -29 20 18
47 33 60 33 12 0 23 9 23 20 0 30 -52 24 -80 -10 -28 -33 -95 -39 -138 -12
-38 25 -9 62 49 62 27 0 49 10 49 21 0 12 -8 16 -19 10 -10 -6 -24 -3 -31 9
-21 33 -42 23 -71 -35z"/>
<path d="M3569 5338 c-18 -29 13 -57 78 -69 41 -8 53 -2 53 26 -1 30 -3 31
-20 5 -14 -22 -19 -23 -20 -4 0 15 -9 21 -20 14 -11 -7 -20 2 -20 19 0 36 -31
41 -51 9z"/>
<path d="M4315 5346 c-39 -10 -101 -113 -81 -133 30 -31 82 -12 72 25 -6 23 7
55 32 80 42 42 40 45 -23 28z"/>
<path d="M80 5306 c86 -38 408 -106 490 -104 33 1 -30 18 -140 38 -110 20
-245 50 -300 68 -124 39 -142 38 -50 -2z"/>
<path d="M4390 5325 c-11 -8 -20 -37 -19 -65 0 -27 -8 -56 -19 -64 -38 -25 2
-37 55 -17 56 21 72 87 28 114 -17 10 -9 20 25 29 l50 14 -50 2 c-27 1 -59 -5
-70 -13z"/>
<path d="M765 5280 c-14 -22 -41 -40 -59 -40 -27 0 -29 -5 -9 -25 21 -20 33
-16 64 22 33 40 46 44 94 26 54 -20 54 -21 10 -34 -26 -8 -45 -30 -45 -52 0
-35 5 -34 54 11 39 36 62 45 87 32 32 -18 59 -8 59 20 0 12 -36 25 -200 71
-17 5 -42 -9 -55 -31z"/>
<path d="M3792 5267 c-7 -18 -10 -36 -5 -40 16 -17 73 19 73 45 0 39 -53 35
-68 -5z"/>
<path d="M3535 5268 c-25 -24 -17 -48 15 -48 17 0 30 -7 30 -17 0 -9 13 -16
28 -16 16 0 24 12 18 26 -6 15 -22 27 -36 27 -15 0 -30 10 -34 21 -4 12 -13
15 -21 7z"/>
<path d="M1066 5214 c-9 -15 -32 -33 -51 -40 -19 -7 -35 -22 -35 -33 0 -34 38
-24 75 19 35 41 145 56 145 20 0 -11 -13 -20 -30 -20 -16 0 -30 -10 -30 -21 0
-32 62 -14 87 25 27 42 21 47 -71 64 -52 9 -78 5 -90 -14z"/>
<path d="M1365 5180 c-14 -22 -39 -40 -55 -40 -17 0 -30 -9 -30 -20 0 -32 60
-23 73 10 14 37 62 37 127 0 l50 -29 -45 -13 c-24 -7 -39 -21 -33 -32 7 -10
27 -5 47 13 44 40 141 35 125 -7 -6 -17 -15 -20 -19 -8 -8 24 -105 -12 -105
-39 0 -28 102 -6 135 30 41 46 15 73 -115 124 -49 20 -99 39 -110 43 -11 5
-31 -10 -45 -32z"/>
<path d="M3420 5190 c0 -16 16 -31 35 -31 27 -1 24 -6 -10 -20 -60 -24 -57
-52 7 -73 l53 -18 -73 -64 c-40 -35 -61 -64 -46 -64 14 0 48 20 75 45 26 25
55 43 63 40 8 -2 23 11 34 31 16 30 10 36 -34 40 -29 2 -62 14 -73 27 -15 16
3 19 69 11 50 -6 73 -6 52 0 -31 8 -33 14 -10 30 21 14 17 17 -17 10 -25 -6
-45 -4 -45 3 0 7 -18 25 -40 38 -33 21 -40 20 -40 -5z"/>
<path d="M873 5119 c57 -55 540 -181 680 -177 31 1 -37 18 -153 38 -115 21
-285 64 -377 96 -91 33 -159 52 -150 43z"/>
<path d="M4194 5091 c-43 -70 -72 -146 -59 -159 21 -22 49 -12 40 13 -8 19 12
24 72 19 49 -4 73 1 59 11 -18 12 -15 31 15 76 51 78 51 79 -32 80 -49 0 -78
-12 -95 -40z m73 -13 c40 6 58 0 45 -13 -9 -8 -34 -15 -57 -15 -23 0 -46 -13
-51 -28 -5 -16 0 -22 12 -14 12 7 27 4 34 -8 7 -11 -1 -20 -18 -20 -45 0 -55
31 -29 89 15 32 29 44 38 30 7 -12 19 -22 26 -21z"/>
<path d="M0 5085 c0 -14 13 -25 30 -25 40 0 38 -20 -5 -52 -31 -24 -31 -27 -2
-27 33 -1 111 97 82 102 -8 1 21 9 65 18 70 13 64 14 -45 12 -86 -2 -125 -10
-125 -28z"/>
<path d="M5234 5058 c-61 -71 -68 -98 -23 -98 61 0 113 41 90 69 -16 20 -14
29 8 38 17 6 31 21 31 32 0 41 -52 20 -106 -41z"/>
<path d="M5387 5029 c-41 -63 -31 -73 132 -126 113 -38 131 -39 146 -13 9 16
30 30 46 30 16 0 29 14 29 31 0 24 -8 26 -40 9 -22 -12 -40 -29 -40 -39 0 -9
-18 -13 -40 -7 -22 6 -40 19 -40 28 0 10 18 18 40 18 22 0 40 13 40 29 0 34
-57 20 -90 -22 -16 -20 -36 -20 -95 -1 -73 23 -104 74 -46 74 16 0 34 9 41 20
28 46 -52 16 -83 -31z"/>
<path d="M182 5032 c-15 -18 -39 -32 -54 -32 -16 0 -28 -9 -28 -20 0 -32 44
-23 89 19 33 30 55 35 111 22 l70 -15 -60 -26 c-37 -15 -50 -29 -33 -35 15 -5
48 1 73 15 25 14 58 20 73 14 19 -7 16 -11 -8 -12 -41 -2 -48 -42 -7 -42 56 0
97 94 46 107 -140 34 -246 36 -272 5z"/>
<path d="M740 4989 c149 -37 279 -64 290 -61 24 7 -489 133 -531 130 -16 -1
93 -32 241 -69z"/>
<path d="M1699 5017 c-12 -21 -29 -33 -39 -27 -9 6 -23 2 -30 -10 -20 -32 33
-23 72 12 28 25 47 28 92 11 55 -20 55 -21 11 -34 -51 -16 -61 -49 -14 -49 17
0 26 -8 20 -19 -7 -11 10 -12 44 -2 39 11 63 7 81 -12 21 -22 19 -27 -10 -29
-20 -1 -4 -10 34 -20 88 -22 213 -4 228 33 12 33 68 37 112 9 25 -17 22 -22
-16 -33 -30 -8 -42 -23 -35 -41 6 -16 11 -33 11 -38 0 -4 16 -8 35 -8 30 1 31
3 5 20 -26 16 -24 23 10 49 46 34 90 40 90 11 0 -11 -13 -20 -30 -20 -16 0
-30 -9 -30 -21 0 -13 13 -14 35 -2 19 9 45 14 57 10 12 -5 38 16 58 45 31 49
32 53 2 42 -38 -15 -236 26 -254 52 -7 10 -26 0 -42 -23 -17 -25 -61 -47 -110
-54 -88 -14 -125 11 -76 51 17 14 30 34 30 46 0 11 -16 5 -37 -13 -59 -53
-117 -35 -62 20 15 15 -14 30 -100 52 -117 29 -123 29 -142 -8z"/>
<path d="M493 4948 c-26 -35 -29 -49 -10 -45 15 3 57 -11 93 -30 95 -51 314
-74 365 -38 32 22 53 23 114 3 136 -43 138 -44 90 -53 -25 -4 -45 -16 -45 -26
0 -29 52 -23 78 9 13 15 41 23 63 18 46 -12 53 -46 9 -46 -16 0 -30 -9 -30
-20 0 -34 52 -22 90 20 48 53 33 65 -160 118 -149 42 -164 42 -220 13 -65 -34
-179 -43 -161 -12 7 11 -15 15 -54 9 -99 -14 -138 22 -78 72 56 47 31 52 -49
11 -64 -34 -85 -26 -48 19 14 16 17 30 7 29 -9 0 -34 -23 -54 -51z"/>
<path d="M3240 4970 c0 -16 7 -30 16 -30 8 0 17 -16 19 -35 11 -94 22 -115 61
-121 27 -4 38 -17 31 -35 -12 -32 -67 -40 -67 -10 0 10 -17 15 -39 11 -27 -5
-35 1 -28 21 7 18 -1 29 -22 29 -25 0 -30 -11 -21 -40 7 -23 4 -40 -9 -40 -11
0 -21 -9 -21 -20 0 -11 14 -20 31 -20 19 0 26 9 17 23 -10 17 8 20 66 10 66
-10 86 -5 120 32 54 59 92 135 69 135 -10 0 -24 -14 -31 -31 -6 -17 -21 -26
-32 -19 -11 7 -14 -2 -7 -21 11 -28 7 -30 -27 -12 -60 32 -74 100 -18 90 42
-8 42 -8 -1 11 -24 11 -49 38 -57 61 -15 47 -50 55 -50 11z"/>
<path d="M5815 4934 c-30 -25 -55 -52 -55 -60 0 -28 41 -13 75 26 40 48 145
55 145 10 0 -17 -18 -30 -40 -30 -51 0 -52 -32 -1 -59 52 -29 50 -31 55 57 4
65 -2 79 -40 90 -67 18 -79 14 -139 -34z"/>
<path d="M4212 4917 c15 -24 -31 -100 -53 -87 -10 7 -13 -3 -5 -22 9 -25 6
-30 -14 -18 -17 11 -21 8 -12 -7 24 -38 46 -27 90 44 49 80 53 106 13 106 -16
0 -25 -7 -19 -16z"/>
<path d="M4086 4881 c-19 -30 -19 -40 0 -48 13 -5 6 -11 -15 -11 -31 -2 -34
-7 -14 -27 30 -30 69 17 52 62 -7 20 2 25 32 17 34 -9 37 -6 18 18 -32 37 -45
35 -73 -11z"/>
<path d="M30 4881 c22 -10 176 -50 342 -91 166 -40 355 -89 420 -109 l118 -37
-74 -14 c-40 -8 -89 -31 -108 -52 -42 -47 -15 -50 35 -5 22 20 37 24 37 10 0
-13 9 -23 20 -23 11 0 20 15 20 32 0 27 15 30 93 19 119 -18 201 -49 176 -67
-84 -61 -74 -81 63 -123 115 -36 139 -38 166 -14 18 15 46 33 62 39 20 7 16
11 -14 12 -24 1 -48 -6 -54 -15 -12 -20 -152 19 -152 42 0 8 20 16 45 17 37 2
38 4 8 12 -21 5 -47 0 -59 -12 -27 -27 -74 -29 -74 -2 0 11 14 20 30 20 97 0
14 63 -170 129 -220 79 -1062 288 -930 232z"/>
<path d="M1376 4813 c42 -23 43 -29 15 -52 -17 -14 -31 -35 -31 -47 0 -12 22
0 49 25 26 25 58 39 70 32 30 -19 7 -50 -54 -73 -63 -24 -45 -47 24 -30 28 7
51 26 51 43 0 17 14 36 31 42 21 8 -5 25 -75 49 -125 43 -142 46 -80 11z"/>
<path d="M5086 4793 c-9 -15 -29 -31 -44 -36 -33 -11 -52 -97 -21 -97 46 0
102 44 91 72 -6 15 -2 28 9 28 10 0 19 14 19 30 0 37 -33 39 -54 3z"/>
<path d="M120 4770 c-14 -16 -49 -30 -77 -31 -69 0 -21 -29 79 -47 53 -9 79
-4 98 18 14 16 37 30 52 30 16 0 28 9 28 20 0 30 -42 24 -83 -12 -23 -22 -48
-27 -71 -17 -32 14 -31 17 9 24 25 4 40 16 34 26 -16 27 -41 23 -69 -11z"/>
<path d="M3975 4693 c-65 -104 -66 -106 -16 -118 33 -9 36 -4 20 37 -10 26
-11 45 -3 43 8 -3 16 2 18 11 10 36 68 75 91 61 17 -10 17 -4 -2 19 -39 48
-46 44 -108 -53z"/>
<path d="M4112 4709 c-6 -17 -21 -26 -32 -19 -12 7 -14 -2 -6 -22 9 -25 6 -30
-14 -18 -18 11 -21 8 -11 -8 8 -13 4 -37 -10 -53 -13 -16 -17 -29 -9 -29 19 0
61 52 101 125 16 30 22 55 12 55 -10 0 -24 -14 -31 -31z"/>
<path d="M5238 4671 c-23 -38 -59 -75 -81 -82 -58 -18 -32 -33 31 -18 28 7 47
21 41 31 -6 10 8 18 31 18 23 0 37 -8 31 -18 -6 -10 5 -14 24 -9 19 5 98 -5
175 -21 132 -28 142 -28 170 7 17 20 44 40 60 46 35 10 -91 95 -140 94 -16 -1
3 -15 43 -32 90 -37 59 -109 -39 -91 l-52 10 49 19 49 19 -50 21 c-87 36 -140
38 -152 6 -15 -37 -95 -43 -83 -6 5 14 18 25 30 25 12 0 29 8 38 18 10 10 -2
13 -28 7 -25 -6 -45 -3 -45 7 0 44 -65 12 -102 -51z m253 -29 c-6 -10 0 -23
14 -29 14 -5 0 -11 -30 -11 -53 -2 -70 16 -42 45 21 20 71 16 58 -5z"/>
<path d="M326 4662 l-45 -57 165 -33 c146 -29 166 -29 186 -2 12 16 37 30 55
30 18 0 33 9 33 20 0 31 -52 24 -81 -11 -14 -17 -39 -25 -57 -18 -18 7 -53 15
-78 18 -65 8 -80 31 -28 44 24 6 44 20 44 29 0 29 -24 21 -71 -23 -25 -24 -56
-35 -76 -27 -39 15 -25 44 34 68 41 16 41 17 3 18 -22 0 -60 -25 -84 -56z"/>
<path d="M1736 4676 c-31 -31 -36 -46 -18 -52 15 -5 48 15 75 44 62 66 9 74
-57 8z"/>
<path d="M1860 4671 c0 -16 -16 -38 -35 -49 -19 -12 -24 -21 -11 -21 13 -1 47
22 74 49 46 46 47 50 11 50 -21 0 -39 -13 -39 -29z"/>
<path d="M1951 4662 c-6 -10 0 -23 14 -29 14 -5 5 -11 -19 -11 -24 -1 -50 -12
-58 -25 -10 -16 -1 -20 29 -12 24 6 48 3 54 -7 19 -30 74 -21 63 10 -7 18 6
31 37 37 58 11 67 -32 14 -63 -32 -19 -31 -21 8 -21 24 -1 57 21 75 49 36 55
43 50 -92 59 -19 1 -40 9 -48 17 -20 20 -63 18 -77 -4z"/>
<path d="M3086 4667 c23 -22 -25 -86 -56 -74 -17 6 -30 1 -30 -11 0 -12 7 -22
16 -22 8 0 17 -16 19 -35 14 -116 47 -160 72 -95 7 18 5 27 -5 21 -27 -17 -40
63 -15 90 18 19 16 21 -5 9 -18 -11 -24 -7 -18 12 6 15 29 27 53 26 33 -1 37
5 20 25 -16 20 -16 27 2 27 13 0 18 9 11 20 -7 11 -27 20 -45 20 -17 0 -26 -6
-19 -13z"/>
<path d="M3252 4657 c10 -16 0 -20 -30 -12 -37 10 -40 7 -21 -17 14 -17 16
-28 4 -28 -12 0 -26 -14 -32 -30 -14 -35 54 -8 77 30 7 12 21 16 30 10 10 -6
27 5 37 25 17 30 12 37 -30 41 -33 2 -44 -4 -35 -19z"/>
<path d="M5768 4589 c-40 -60 -34 -67 65 -90 102 -24 167 -23 167 1 0 11 -22
20 -50 20 -27 0 -50 9 -50 20 0 11 14 20 30 20 17 0 30 9 30 20 0 32 -60 23
-73 -10 -13 -35 -78 -40 -98 -9 -7 12 6 27 29 33 48 12 57 46 12 46 -16 0 -44
-23 -62 -51z"/>
<path d="M2194 4580 c-41 -49 -42 -60 -7 -60 27 0 93 61 93 87 0 28 -53 11
-86 -27z"/>
<path d="M3865 4543 c-14 -9 -30 -36 -34 -60 -5 -24 -1 -39 9 -33 9 6 23 2 30
-10 18 -29 55 -25 44 5 -5 14 -19 23 -31 20 -30 -7 -29 41 1 71 27 27 18 31
-19 7z"/>
<path d="M3913 4531 c-6 -16 1 -43 17 -58 15 -16 24 -34 19 -41 -5 -6 -3 -8 4
-2 7 5 26 -1 42 -14 27 -23 103 42 105 89 1 32 -60 13 -80 -26 -27 -49 -64
-32 -56 26 7 49 -34 70 -51 26z"/>
<path d="M3200 4479 c-12 -22 -30 -35 -41 -29 -10 7 -13 -3 -5 -22 10 -26 6
-30 -16 -18 -15 9 -22 9 -14 1 8 -9 5 -35 -6 -59 -11 -23 12 -7 51 36 39 43
71 91 71 105 0 39 -15 33 -40 -14z"/>
<path d="M4867 4482 c-53 -43 -68 -104 -29 -118 17 -5 22 0 14 13 -8 13 -3 19
12 13 41 -15 93 26 59 47 -21 14 -20 20 5 30 38 14 43 53 7 52 -14 0 -45 -17
-68 -37z"/>
<path d="M60 4424 c-28 -30 -42 -47 -31 -39 10 8 34 15 53 15 19 0 38 11 42
23 9 26 447 -31 486 -63 24 -19 324 -80 448 -90 48 -4 93 -16 100 -26 7 -10
50 -24 96 -31 46 -7 108 -22 138 -34 l54 -20 -57 -60 c-31 -32 -50 -59 -42
-59 20 0 152 88 153 101 1 48 -527 189 -1010 268 -176 30 -333 57 -350 61 -16
4 -53 -17 -80 -46z"/>
<path d="M1700 4467 c17 -6 43 -14 58 -19 53 -17 -42 -63 -133 -64 -86 -2
-123 34 -40 38 37 2 38 4 8 12 -21 5 -47 0 -59 -12 -12 -12 -40 -21 -63 -21
-36 1 -35 4 9 23 33 13 41 24 23 31 -28 10 -119 -66 -100 -84 32 -32 311 -35
323 -4 7 18 31 33 53 33 45 0 52 -19 21 -56 -15 -17 -13 -19 4 -4 13 11 39 20
58 20 19 0 38 9 42 21 9 28 84 -3 92 -38 3 -15 -5 -40 -18 -56 -13 -15 -19
-33 -14 -38 6 -6 26 13 44 40 24 38 26 51 7 52 -14 1 -7 9 15 18 41 16 -250
123 -326 119 -27 -1 -28 -3 -4 -11z"/>
<path d="M5194 4447 c-7 -7 -37 -14 -66 -15 -61 -2 -139 -92 -80 -92 17 0 32
-9 32 -19 0 -11 12 -15 26 -10 15 6 84 -3 155 -20 122 -29 131 -29 160 6 17
20 42 41 57 46 20 6 17 16 -10 38 -19 16 -30 19 -22 7 20 -35 -51 -90 -86 -67
-25 15 -24 18 5 19 50 0 43 33 -10 47 -56 15 -97 -21 -55 -48 22 -14 14 -18
-35 -19 -71 0 -89 38 -25 54 22 6 40 20 40 30 0 11 -13 15 -30 9 -16 -7 -30
-4 -30 6 0 10 16 22 35 27 28 8 27 10 -7 12 -23 1 -47 -4 -54 -11z m-10 -52
c28 7 38 4 29 -11 -15 -24 -133 -27 -133 -3 0 21 49 37 56 18 3 -8 25 -10 48
-4z"/>
<path d="M2390 4420 c-7 -12 -23 -15 -36 -7 -13 7 -17 6 -9 -3 8 -9 -19 -53
-60 -99 -297 -330 -378 -422 -430 -487 -32 -40 -65 -78 -73 -84 -7 -5 -108
-113 -223 -240 -114 -126 -213 -234 -219 -240 -7 -5 -69 -77 -139 -160 -70
-82 -133 -154 -140 -160 -7 -5 -75 -82 -150 -170 -76 -88 -186 -212 -245 -275
l-108 -115 -84 19 c-46 10 -131 24 -189 31 -57 7 -134 21 -170 31 -94 28 -115
24 -115 -21 0 -22 9 -40 20 -40 11 0 20 9 20 20 0 11 31 8 75 -8 81 -31 245
-57 375 -60 44 -1 86 -10 93 -20 7 -10 37 6 66 35 33 33 76 54 117 55 35 2 48
7 29 12 -43 11 -45 43 -4 59 18 7 44 -4 61 -25 28 -36 29 -36 24 12 -3 28 -17
50 -31 50 -43 0 -29 28 69 140 70 79 110 110 148 110 68 0 77 12 58 79 -15 52
-11 58 44 69 168 33 259 3 192 -64 -19 -19 -14 -24 20 -24 47 0 61 55 23 93
-24 24 392 67 644 67 121 0 155 -7 165 -32 20 -53 14 -68 -29 -68 -23 0 -36 9
-30 19 20 31 -65 64 -145 56 l-74 -7 95 -26 c52 -15 95 -35 95 -44 0 -10 52
-17 115 -15 63 2 90 7 60 11 -65 10 -80 96 -20 112 92 24 -463 10 -751 -19
-179 -18 -331 -27 -337 -20 -16 15 115 169 146 171 12 1 27 20 33 42 14 54 71
51 93 -5 14 -34 19 -37 20 -10 0 19 10 35 21 35 11 0 20 9 20 20 0 11 -20 17
-45 15 -29 -3 -45 6 -45 25 0 34 163 53 502 57 l202 3 21 -65 c21 -64 21 -64
23 -10 1 41 12 55 42 55 44 0 54 -31 15 -46 -14 -5 -18 -16 -10 -25 8 -8 36
-6 61 6 30 13 59 14 81 2 19 -11 54 -17 79 -13 40 7 38 10 -23 43 -37 20 -84
32 -104 27 -21 -5 -41 1 -45 13 -5 16 -122 22 -401 21 -217 -1 -392 5 -389 13
23 60 204 219 252 220 l54 2 -48 19 c-78 31 -3 98 111 98 101 0 109 16 32 67
-30 20 -39 31 -19 25 22 -7 34 -2 32 13 -6 53 3 77 25 63 13 -8 18 -5 11 6 -7
10 0 19 16 19 21 0 23 -9 8 -37 -11 -20 -27 -33 -35 -28 -8 5 -14 -7 -14 -27
0 -21 10 -32 25 -27 14 6 21 17 16 26 -5 8 12 38 38 66 36 38 42 57 25 75 -17
19 -17 22 0 12 14 -8 73 60 148 171 69 100 140 198 157 216 68 71 108 120 96
120 -6 0 -17 -9 -24 -20z"/>
<path d="M2988 4389 c6 -17 3 -26 -7 -20 -10 7 -24 3 -31 -9 -14 -22 75 -29
96 -7 16 16 -23 67 -51 67 -10 0 -14 -14 -7 -31z"/>
<path d="M3779 4373 c-21 -42 -20 -42 10 -4 17 21 31 28 31 15 0 -13 19 -24
41 -24 26 0 36 -8 27 -23 -9 -14 -5 -18 9 -9 37 23 27 42 -37 66 -54 20 -63
18 -81 -21z"/>
<path d="M162 4353 l-44 -48 44 -11 c26 -7 54 -1 66 15 12 14 49 33 82 42 56
15 57 17 13 24 -30 5 -66 -9 -99 -38 l-52 -47 34 55 c43 67 17 72 -44 8z"/>
<path d="M5590 4366 c-37 -9 -109 -80 -110 -108 -1 -35 306 -64 330 -31 13 18
41 33 62 34 32 0 30 7 -18 50 -31 27 -76 48 -100 47 -33 -1 -27 -6 21 -20 36
-11 65 -26 65 -35 0 -30 -49 -63 -89 -61 -34 2 -35 4 -6 12 43 11 46 46 4 46
-16 0 -35 -13 -42 -30 -6 -16 -18 -26 -26 -21 -8 5 -45 15 -82 21 -37 7 -71
15 -75 19 -7 7 90 55 156 78 39 13 -34 12 -90 -1z"/>
<path d="M360 4310 c-26 -27 -39 -50 -28 -50 26 1 82 39 58 40 -11 1 3 14 30
30 33 19 39 29 18 29 -17 1 -52 -21 -78 -49z"/>
<path d="M487 4310 c-6 -16 -23 -30 -38 -30 -15 0 -33 -10 -41 -23 -23 -37 95
0 124 39 19 26 29 28 54 7 29 -24 66 -2 40 24 -25 25 -127 13 -139 -17z"/>
<path d="M3814 4326 c-21 -5 -33 -21 -27 -34 5 -14 -4 -25 -20 -25 -17 0 -24
12 -18 31 7 21 0 18 -20 -8 -18 -22 -41 -37 -53 -34 -11 3 -16 -8 -9 -25 7
-20 0 -31 -19 -31 -17 0 -25 -9 -18 -20 20 -33 42 -23 66 30 13 27 34 45 48
40 60 -21 136 -26 125 -9 -6 11 5 19 25 19 30 1 31 4 7 19 -19 12 -40 10 -59
-5 -24 -21 -25 -18 -5 21 14 25 22 44 19 43 -3 -2 -22 -7 -42 -12z"/>
<path d="M2923 4302 c5 -39 -6 -63 -23 -52 -11 7 -14 -1 -8 -19 7 -17 25 -31
41 -31 16 0 24 9 17 20 -7 11 -5 20 5 20 9 0 16 17 16 37 0 20 -11 36 -24 36
-14 0 -24 -5 -24 -11z"/>
<path d="M676 4274 c-14 -15 -44 -37 -66 -50 -40 -23 -40 -23 2 -23 22 -1 62
22 88 49 47 50 25 73 -24 24z"/>
<path d="M3110 4240 c-20 -22 -49 -40 -64 -40 -16 0 -23 -8 -17 -18 6 -10 -16
-21 -48 -26 -38 -6 -63 1 -70 18 -5 14 -23 26 -40 26 -18 0 -25 -12 -18 -30 6
-16 19 -25 29 -19 10 7 24 -3 30 -20 7 -17 25 -31 41 -31 16 0 24 9 17 20 -7
11 8 20 35 20 28 0 75 29 115 70 37 39 58 70 47 70 -11 0 -37 -18 -57 -40z"/>
<path d="M1030 4240 c-6 -10 -23 -14 -37 -9 -14 6 -46 -13 -72 -40 -27 -28
-38 -51 -26 -51 13 0 28 9 34 19 7 11 25 14 42 8 16 -6 24 -19 18 -29 -6 -10
-2 -18 9 -18 11 0 25 9 32 20 7 11 2 20 -10 20 -12 0 -17 9 -10 21 7 11 27 18
44 15 18 -4 35 4 40 17 10 27 -48 52 -64 27z"/>
<path d="M4706 4213 c-9 -14 -31 -31 -48 -38 -47 -17 -64 -95 -20 -95 52 0 98
43 113 105 14 58 -16 77 -45 28z"/>
<path d="M5940 4200 c-18 -34 -15 -40 19 -40 28 0 41 13 41 40 0 22 -9 40 -19
40 -11 0 -29 -18 -41 -40z"/>
<path d="M3752 4187 c-7 -16 -22 -23 -35 -15 -14 9 -18 5 -9 -8 8 -13 3 -43
-9 -67 -21 -37 -19 -41 10 -30 19 7 39 13 44 13 5 0 4 9 -3 20 -7 11 -1 20 12
20 14 0 19 6 12 13 -8 7 1 24 19 37 29 21 29 25 1 36 -18 6 -36 -1 -42 -19z"/>
<path d="M5099 4199 c-16 -10 -21 -19 -12 -19 9 0 -7 -29 -37 -63 -59 -71 -51
-83 74 -105 62 -11 79 -7 100 27 14 23 41 41 61 41 38 0 47 -30 15 -50 -11 -7
-20 -23 -20 -36 1 -13 18 -2 38 25 30 38 32 53 13 73 -34 34 -153 20 -184 -23
-21 -29 -35 -31 -72 -14 l-45 21 50 21 c28 11 41 21 30 22 -11 2 1 14 26 28
38 21 42 30 20 48 -18 15 -38 16 -57 4z"/>
<path d="M1190 4129 c-55 -44 -56 -49 -17 -49 23 0 57 22 75 50 41 63 19 63
-58 -1z"/>
<path d="M4810 4140 c-43 -47 -38 -55 46 -72 48 -10 66 -5 76 20 7 17 25 32
40 32 15 0 28 9 28 20 0 36 -54 21 -84 -23 -24 -36 -35 -39 -67 -20 -38 22
-38 23 6 35 25 7 45 21 45 30 0 32 -53 19 -90 -22z"/>
<path d="M2721 4102 c-49 -69 -49 -74 -13 -88 17 -7 26 2 25 23 -2 18 9 31 23
28 15 -4 21 3 14 15 -7 11 1 20 18 20 39 0 59 -34 27 -46 -14 -4 -18 -16 -8
-26 9 -10 23 -5 33 12 23 42 23 70 0 73 -11 1 -30 3 -41 5 -12 1 -16 11 -9 22
30 48 -31 14 -69 -38z"/>
<path d="M3595 4135 c-6 -14 -9 -30 -7 -36 1 -7 -14 -28 -34 -48 -20 -20 -32
-48 -26 -64 6 -15 -2 -27 -20 -27 -17 0 -25 -9 -18 -20 20 -33 46 -23 61 24 8
24 27 57 43 73 15 15 24 40 18 56 -6 15 -2 27 9 27 10 0 19 9 19 20 0 29 -34
25 -45 -5z"/>
<path d="M5409 4122 c6 -9 -9 -41 -32 -71 -52 -66 -36 -83 96 -101 92 -12 105
-9 116 27 7 22 33 44 57 48 24 4 2 9 -49 10 -66 1 -97 -7 -105 -28 -7 -17 -31
-27 -55 -23 -52 7 -75 56 -27 56 18 0 27 9 20 19 -6 11 12 26 41 33 39 10 46
18 26 30 -36 23 -102 23 -88 0z"/>
<path d="M11 4102 c-6 -9 10 -23 34 -29 67 -18 95 -16 95 9 0 13 -18 18 -40
12 -22 -6 -40 -2 -40 8 0 23 -34 23 -49 0z"/>
<path d="M223 4071 c-52 -37 -79 -44 -123 -31 -56 16 -80 9 -80 -23 0 -30 154
-18 180 13 14 17 37 30 52 30 16 0 28 9 28 20 0 11 24 20 54 20 l53 0 -53 -56
-54 -56 130 -42 c71 -23 135 -34 141 -25 6 10 43 33 82 52 85 40 75 48 -134
106 -183 51 -193 50 -276 -8z m315 -23 c4 -4 -3 -20 -16 -36 -20 -24 -17 -27
17 -18 22 6 41 2 41 -8 0 -46 -24 -43 -219 26 -48 16 61 65 119 53 28 -6 54
-14 58 -17z"/>
<path d="M1595 4079 c-57 -34 -45 -86 17 -70 33 8 47 5 38 -8 -23 -39 83 -22
120 19 20 22 33 44 28 48 -23 21 -173 29 -203 11z"/>
<path d="M5727 4083 c-11 -7 -26 -26 -33 -43 -7 -16 -27 -49 -44 -72 -30 -41
-28 -43 84 -66 108 -22 118 -20 143 17 16 23 40 41 55 41 16 0 28 9 28 21 0
30 -145 1 -174 -35 -18 -23 -36 -26 -80 -10 -50 17 -52 21 -18 35 37 15 112
80 112 97 0 16 -55 28 -73 15z"/>
<path d="M3604 3940 c-25 -44 -38 -80 -29 -80 24 0 84 75 70 88 -6 6 4 17 22
24 18 7 28 20 22 30 -20 32 -38 19 -85 -62z"/>
<path d="M726 3988 c7 -13 -5 -39 -26 -58 -52 -47 -38 -63 70 -79 103 -15 169
8 90 33 -35 10 -27 12 25 5 57 -8 79 -3 87 20 12 31 147 45 174 18 21 -21 -79
-87 -129 -86 l-47 2 45 21 c25 12 45 30 45 39 0 31 -37 18 -94 -32 l-56 -50
81 0 c94 -1 189 37 189 76 0 20 22 24 85 15 74 -10 77 -9 25 8 -108 35 -288
47 -318 22 -15 -13 -50 -18 -77 -12 -31 8 -57 2 -74 -19 -29 -35 -92 -41 -111
-11 -7 11 1 20 18 20 46 0 55 32 18 63 -19 15 -28 17 -20 5z"/>
<path d="M2610 3899 c-17 -32 -24 -60 -16 -61 9 0 31 -4 50 -8 23 -4 30 3 21
25 -6 18 -3 26 7 20 11 -7 19 5 19 26 0 63 -48 62 -81 -2z"/>
<path d="M2738 3942 c-2 -7 -1 -27 1 -45 1 -19 -7 -39 -18 -46 -28 -18 -27
-71 1 -71 12 0 17 13 11 29 -7 19 -1 25 18 18 16 -6 24 -21 17 -34 -6 -13 7
-2 29 23 25 28 36 59 28 80 -11 28 -16 26 -29 -16 -14 -45 -15 -44 -9 12 4 51
-40 96 -49 50z"/>
<path d="M4470 3889 c-33 -27 -51 -49 -40 -49 11 0 7 -9 -9 -19 -26 -16 -25
-21 3 -31 45 -18 122 26 108 62 -6 15 -2 28 9 28 10 0 19 14 19 30 0 41 -20
37 -90 -21z"/>
<path d="M4623 3855 l-42 -65 111 -37 c101 -34 113 -35 146 -5 19 18 46 32 59
32 12 0 23 14 23 31 0 32 -64 10 -90 -31 -17 -27 -50 -25 -50 2 0 12 18 26 40
32 45 12 54 46 12 46 -15 0 -38 14 -52 30 -43 51 -112 36 -157 -35z m91 -3
c-23 -26 -54 -43 -68 -38 -33 13 -14 44 41 66 68 28 73 23 27 -28z m66 -32
c-22 -40 -43 -50 -65 -28 -23 23 9 68 48 68 32 0 35 -6 17 -40z"/>
<path d="M1211 3841 c-64 -71 134 -159 208 -92 54 49 87 41 59 -14 -22 -43
-21 -43 31 5 l54 50 -65 26 c-36 15 -79 23 -97 18 -18 -4 -44 4 -57 19 -36 38
-92 33 -133 -12z m89 -11 c-27 -32 -80 -41 -80 -13 0 27 24 43 66 43 32 0 35
-5 14 -30z m140 -33 c0 -28 -67 -47 -75 -22 -4 13 -21 18 -36 12 -16 -6 -29
-2 -29 9 0 11 32 20 70 20 39 0 70 -8 70 -19z"/>
<path d="M3480 3854 c-31 -16 -52 -45 -56 -79 -4 -30 -17 -55 -29 -55 -17 0
-17 -6 0 -23 33 -33 79 20 76 88 -1 31 8 55 22 55 14 0 30 9 37 20 16 25 11
25 -50 -6z"/>
<path d="M4958 3785 c-28 -19 -48 -47 -43 -62 7 -19 24 -12 63 25 49 47 59 49
128 28 80 -25 99 -56 33 -56 -23 0 -36 8 -30 18 6 10 -7 14 -29 8 -22 -6 -40
-24 -40 -41 0 -23 7 -25 26 -8 20 16 33 16 50 -1 17 -17 33 -14 64 14 49 45
52 90 5 90 -19 0 -66 5 -105 10 -46 6 -88 -3 -122 -25z"/>
<path d="M3531 3778 c16 -25 -41 -101 -61 -83 -9 8 -10 4 -2 -10 25 -44 82
-27 119 35 19 33 28 61 19 62 -9 0 -32 4 -51 8 -19 3 -30 -2 -24 -12z"/>
<path d="M2609 3759 c-10 -18 24 -27 87 -24 14 0 22 -9 17 -22 -4 -13 -19 -21
-31 -18 -13 3 -46 7 -73 10 -34 2 -46 13 -39 32 9 24 5 24 -20 3 -35 -29 -41
-69 -7 -48 16 10 20 4 11 -20 -9 -23 -6 -29 10 -19 47 28 118 20 106 -12 -6
-19 3 -15 21 9 36 45 82 127 60 107 -8 -7 -40 -6 -72 3 -34 10 -63 9 -70 -1z"/>
<path d="M5343 3738 c-14 -23 -21 -47 -15 -53 6 -6 17 4 24 22 7 18 29 33 50
33 24 0 33 -10 25 -30 -6 -16 -19 -25 -28 -20 -9 6 -22 2 -28 -9 -7 -11 -41
-14 -75 -7 -44 9 -58 6 -48 -11 20 -33 115 -29 166 7 26 18 48 23 55 11 14
-21 71 -6 71 19 0 9 -18 12 -40 6 -22 -6 -40 -1 -40 10 0 12 36 21 80 20 81
-1 110 -27 45 -40 -24 -5 -28 -12 -11 -22 27 -17 111 62 94 89 -25 40 -297 19
-325 -25z"/>
<path d="M150 3701 c-6 -21 -31 -41 -54 -45 -49 -7 -74 -56 -29 -56 16 0 33 9
36 20 4 11 39 22 77 25 39 3 66 15 60 26 -5 10 -17 17 -25 14 -8 -3 -15 9 -15
25 0 43 -35 37 -50 -9z"/>
<path d="M413 3650 c-18 -17 -33 -21 -37 -9 -4 13 -31 9 -71 -11 -82 -41 -110
-82 -43 -62 26 7 70 18 98 24 27 6 66 28 85 49 42 45 12 54 -32 9z"/>
<path d="M5845 3649 c-25 -17 -45 -22 -45 -10 0 36 -58 23 -85 -19 -13 -22
-43 -39 -65 -38 -34 2 -34 4 -5 12 42 11 47 46 6 46 -33 0 -80 -72 -56 -87 70
-43 278 -18 340 41 77 73 85 104 16 59 -42 -28 -49 -28 -55 -2 -5 26 -11 26
-51 -2z"/>
<path d="M470 3606 l-60 -53 54 14 c47 11 53 8 42 -22 -12 -33 -11 -33 27 0
61 53 167 69 167 25 0 -22 10 -30 30 -23 17 7 30 4 30 -6 0 -36 130 -59 240
-43 61 10 92 19 70 22 -53 6 -50 7 -128 -10 -41 -9 -62 -7 -55 5 6 10 -25 30
-70 43 -44 14 -77 29 -72 34 5 5 35 -1 67 -14 32 -13 103 -26 158 -30 116 -7
151 -14 184 -34 13 -8 29 -6 36 6 25 41 45 18 38 -45 l-7 -65 39 47 c78 93 6
138 -200 126 -38 -2 -110 7 -160 21 -53 16 -141 22 -215 16 -92 -7 -125 -3
-125 15 0 37 -23 30 -90 -29z"/>
<path d="M2465 3646 c-42 -8 -64 -44 -30 -48 21 -2 66 -13 135 -33 62 -18 130
-12 130 12 0 28 -72 56 -110 43 -47 -17 -95 -4 -79 22 6 10 9 17 5 15 -3 -1
-26 -6 -51 -11z"/>
<path d="M4262 3579 c-49 -45 -61 -68 -45 -84 31 -31 131 16 116 55 -6 16 -3
34 8 41 23 14 25 49 3 49 -8 0 -45 -28 -82 -61z"/>
<path d="M3302 3583 c-14 -26 -13 -37 4 -39 13 -1 60 -8 104 -14 56 -8 71 -6
51 8 -16 10 -38 14 -48 7 -11 -6 -14 2 -7 21 10 27 4 29 -39 13 -43 -16 -50
-15 -40 11 16 42 -2 38 -25 -7z"/>
<path d="M4441 3581 c-29 -54 -27 -61 24 -63 36 -2 33 -5 -15 -17 -66 -17
-266 -134 -319 -187 -19 -19 -49 -35 -67 -35 -19 -1 -250 -130 -514 -287 -318
-190 -488 -280 -503 -268 -15 11 -29 9 -38 -6 -10 -15 -7 -19 8 -10 13 8 23 5
23 -7 0 -11 -12 -21 -27 -21 -15 0 -49 -18 -75 -40 -26 -21 -57 -46 -68 -55
-11 -9 -87 -55 -170 -103 -82 -48 -193 -118 -245 -155 -105 -74 -135 -82 -135
-37 0 20 -20 30 -60 30 -46 0 -60 -9 -60 -38 0 -21 -11 -43 -25 -48 -14 -5
-19 -15 -11 -23 21 -24 56 8 56 50 0 26 14 39 40 39 45 0 51 -21 16 -56 -19
-19 -18 -24 2 -24 14 0 -29 -46 -96 -103 -67 -57 -122 -114 -122 -128 0 -29
-43 -48 -117 -51 -45 -2 -42 -5 22 -22 94 -25 102 -72 10 -62 l-65 7 70 -26
c60 -22 71 -21 77 5 4 16 18 37 30 45 17 11 15 20 -5 33 -21 14 -18 21 17 32
27 8 40 25 33 42 -13 34 224 194 265 178 18 -7 24 0 16 18 -11 30 38 60 69 41
9 -6 13 1 7 16 -10 26 95 100 316 221 41 23 75 49 75 58 0 43 80 12 92 -35 16
-62 12 -66 -152 -154 -71 -39 -191 -107 -265 -153 -75 -46 -183 -101 -240
-122 -58 -22 -118 -49 -135 -60 -66 -43 99 -19 240 35 17 6 35 13 40 14 29 7
122 65 210 131 55 42 152 103 215 136 63 34 139 80 170 104 110 87 524 323
544 310 12 -7 29 9 39 35 23 59 74 102 102 85 12 -7 112 39 222 103 110 64
220 128 244 141 24 13 52 36 64 50 73 93 255 168 192 79 l-41 -58 84 -31 c150
-55 169 -57 182 -25 6 17 26 31 42 31 57 0 32 37 -34 51 -36 8 -71 23 -78 34
-15 24 -77 5 -77 -22 0 -11 18 -15 40 -9 24 6 40 1 40 -14 0 -14 16 -21 39
-15 25 7 35 2 28 -15 -7 -19 -24 -19 -83 2 -41 14 -89 27 -108 27 -48 1 -22
61 26 61 48 0 50 31 3 49 -45 18 121 172 183 170 41 -2 41 -2 2 -17 -25 -10
-1 -15 69 -14 66 2 111 12 116 27 9 27 85 35 85 9 0 -9 -11 -27 -24 -40 -13
-13 -18 -28 -12 -34 6 -6 25 11 43 39 39 59 -39 99 -98 50 -16 -13 -36 -19
-43 -12 -7 8 4 27 25 43 35 26 36 29 4 29 -19 1 -45 -16 -58 -36 -15 -24 -39
-33 -70 -27 -57 11 -62 44 -7 58 22 6 40 19 40 28 0 26 -48 22 -75 -5 -18 -18
-27 -16 -36 10 -17 43 -55 42 -96 -4 -39 -43 -137 -36 -120 8 6 14 23 22 39
16 15 -6 28 -1 28 11 0 37 -57 25 -79 -17z m46 -131 c-8 -22 -2 -27 21 -18 17
7 32 2 32 -10 0 -12 -9 -22 -20 -22 -11 0 -20 -11 -20 -25 0 -23 -137 -126
-149 -111 -69 81 -58 112 59 174 95 50 92 50 77 12z m-239 -196 c22 -35 -29
-92 -83 -93 -42 -1 -28 75 17 89 22 8 37 18 31 23 -5 6 -29 0 -53 -13 -24 -13
-48 -18 -55 -12 -13 13 76 52 104 44 10 -2 28 -19 39 -38z"/>
<path d="M1855 3505 c-92 -9 -79 -45 16 -45 48 0 69 9 69 30 0 17 -2 28 -5 27
-3 -2 -39 -7 -80 -12z"/>
<path d="M2150 3506 c21 -20 330 -73 344 -58 5 4 -49 18 -118 31 -69 12 -153
28 -186 34 -39 8 -53 5 -40 -7z"/>
<path d="M3202 3501 c-26 -16 24 -55 64 -50 19 3 34 0 34 -8 0 -7 41 -14 90
-16 50 -2 90 4 90 12 0 27 -104 62 -145 49 -22 -7 -35 -4 -29 6 12 19 -75 25
-104 7z"/>
<path d="M1091 3482 c-14 -23 83 -48 114 -29 15 9 9 19 -16 29 -54 21 -85 21
-98 0z"/>
<path d="M5033 3451 c-39 -59 -34 -63 110 -81 88 -11 117 -8 130 14 9 16 33
35 52 42 19 7 35 22 35 33 0 11 -14 15 -30 8 -17 -6 -45 0 -63 15 -27 23 -38
19 -78 -28 -48 -55 -116 -71 -140 -33 -7 12 6 27 29 33 47 12 57 46 14 46 -15
0 -42 -22 -59 -49z m242 -16 c-4 -14 -28 -28 -51 -31 -33 -5 -41 1 -32 25 14
37 95 43 83 6z"/>
<path d="M0 3460 c0 -11 34 -21 75 -21 59 -1 66 -5 35 -18 -49 -20 -125 -101
-94 -101 12 0 27 9 34 20 19 30 50 24 38 -7 -6 -15 4 -33 22 -40 18 -7 27 -22
20 -33 -7 -11 -3 -20 8 -20 11 0 25 9 33 21 7 11 28 16 47 10 70 -23 170 47
130 91 -19 21 -44 38 -55 38 -11 0 -5 -12 15 -26 33 -24 33 -27 -4 -60 -38
-35 -115 -27 -93 8 7 10 18 15 26 10 8 -5 28 -1 44 9 23 15 22 18 -9 19 -22 0
-53 -13 -71 -29 -21 -19 -42 -23 -61 -11 -23 14 -19 22 20 38 35 14 40 20 15
21 -19 0 -35 11 -35 23 0 13 22 16 60 8 87 -19 74 5 -15 27 -160 40 -185 43
-185 23z"/>
<path d="M5351 3396 c-38 -55 -29 -64 109 -103 95 -27 111 -28 126 -2 9 16 32
29 52 29 19 0 35 14 35 30 0 20 -12 27 -35 19 -19 -6 -40 -2 -47 9 -7 11 -25
15 -42 9 -16 -6 -29 -1 -29 12 0 15 -16 19 -40 11 -23 -7 -40 -4 -40 9 0 37
-57 23 -89 -23z m172 -41 c7 -11 28 -15 47 -8 22 9 30 5 24 -12 -5 -14 -21
-21 -36 -17 -16 4 -66 17 -113 28 -47 11 -85 29 -85 40 0 24 146 -3 163 -31z"/>
<path d="M2631 3331 c36 -27 33 -28 -31 -10 -38 10 -106 19 -150 18 l-80 -1
75 -39 c109 -58 266 -77 248 -31 -7 20 -13 48 -13 64 0 15 -19 28 -44 28 -43
0 -43 -1 -5 -29z"/>
<path d="M450 3326 c-118 -30 -111 -78 19 -128 94 -35 169 -23 141 22 -6 9 7
12 29 6 21 -5 34 -21 29 -35 -18 -45 165 -84 209 -44 20 18 47 33 60 33 12 0
23 8 23 18 0 31 -57 66 -94 56 -29 -8 -27 -10 8 -12 24 -1 49 -11 56 -22 7
-12 -10 -15 -45 -8 -38 8 -66 1 -82 -18 -13 -17 -42 -25 -64 -20 -51 14 -50
46 1 46 22 0 40 10 40 22 0 14 -19 18 -50 10 -30 -8 -50 -4 -50 9 0 23 -123
80 -164 77 -14 -2 -44 -7 -66 -12z m160 -35 l60 -27 -71 10 c-48 7 -79 0 -96
-20 -23 -28 -103 -25 -103 4 0 48 130 69 210 33z"/>
<path d="M5790 3325 c-40 -10 -88 -60 -89 -93 -1 -10 15 -3 36 15 20 18 46 33
57 33 12 0 27 14 33 30 7 17 10 29 7 28 -2 -2 -22 -7 -44 -13z"/>
<path d="M5850 3271 c-33 -27 -52 -50 -42 -50 11 -1 35 14 55 32 35 31 37 31
37 -10 0 -54 21 -55 65 -3 33 39 33 40 -20 40 -43 1 -48 5 -25 20 17 11 21 19
10 20 -11 0 -47 -22 -80 -49z"/>
<path d="M1740 3277 c0 -19 -11 -38 -25 -43 -49 -17 0 -34 127 -44 100 -9 118
-6 80 10 -27 12 -58 18 -70 14 -12 -4 -42 16 -67 44 -35 40 -45 44 -45 19z"/>
<path d="M1848 3284 c18 -29 143 -64 231 -64 69 0 70 0 25 31 -55 39 -277 67
-256 33z"/>
<path d="M3159 3145 c-56 -64 -71 -125 -30 -125 15 0 58 16 94 35 37 19 70 37
74 39 4 2 0 14 -8 27 -10 18 -20 15 -33 -9 -10 -18 -27 -27 -38 -21 -13 8 -11
23 4 42 48 58 -12 70 -63 12z"/>
<path d="M4868 3140 c-23 -9 -48 -32 -56 -51 -11 -29 -8 -31 18 -9 18 15 55
20 95 13 53 -10 58 -8 28 10 -31 17 -33 25 -10 39 37 24 -16 22 -75 -2z"/>
<path d="M5902 3132 l-48 -27 63 -9 c51 -7 63 -2 63 27 0 43 -13 45 -78 9z"/>
<path d="M3422 3113 c-1 -20 -20 -41 -42 -47 -45 -12 -54 -46 -12 -46 40 0 77
52 66 94 -9 34 -9 34 -12 -1z"/>
<path d="M5066 3068 l-53 -53 49 -27 c26 -15 35 -27 20 -27 -16 -1 -23 -7 -16
-14 7 -7 26 -2 41 10 15 13 42 18 59 12 19 -8 39 4 53 30 13 23 31 37 41 31 9
-6 23 -2 30 10 7 11 -4 20 -24 20 -27 1 -30 5 -9 18 20 12 15 20 -20 29 -83
22 -118 14 -171 -39z m148 -35 c-5 -13 -21 -19 -36 -15 -16 4 -44 7 -63 6 -19
-1 -35 6 -35 15 0 9 32 17 71 17 45 0 68 -8 63 -23z"/>
<path d="M5437 3067 c-69 -18 -105 -105 -53 -125 110 -41 131 -42 156 -12 31
37 88 40 74 4 -14 -39 159 -102 181 -66 8 14 31 31 51 38 103 38 -49 129 -176
105 -40 -7 -70 -5 -70 6 0 15 -119 71 -128 61 -1 -2 -17 -7 -35 -11z m112 -89
c-29 -31 -135 -38 -164 -10 -20 21 20 52 67 52 29 0 45 9 38 20 -7 12 9 10 39
-3 47 -22 49 -26 20 -59z m258 -49 c-42 -32 -104 -36 -145 -11 -41 26 -4 67
50 57 27 -5 48 -1 48 8 0 10 19 8 42 -4 40 -21 40 -23 5 -50z"/>
<path d="M95 3020 c-28 -22 -61 -40 -73 -40 -12 0 -22 -13 -22 -28 0 -23 11
-24 60 -6 33 13 60 34 60 47 0 14 16 34 35 45 19 12 25 21 13 21 -13 1 -45
-17 -73 -39z"/>
<path d="M4451 3041 c-8 -12 2 -21 23 -21 20 0 72 -5 116 -11 57 -7 68 -5 40
8 -75 34 -166 46 -179 24z"/>
<path d="M2685 3026 c19 -5 35 -22 35 -39 0 -25 -6 -25 -44 2 -27 19 -85 31
-145 30 l-101 -1 83 -34 c100 -41 128 -64 75 -64 -46 1 -209 56 -240 81 -14
13 -30 1 -45 -33 -24 -52 -23 -52 46 -44 39 4 71 -1 71 -11 0 -18 318 -2 337
17 26 26 -22 110 -62 108 -34 -2 -37 -5 -10 -12z"/>
<path d="M287 2988 c-7 -17 -32 -39 -55 -48 l-42 -17 42 -2 c38 -1 108 54 108
86 0 26 -42 12 -53 -19z"/>
<path d="M4714 3007 c-28 -27 -13 -39 56 -44 39 -2 70 5 70 16 0 12 -13 21
-28 21 -16 0 -41 5 -56 11 -16 5 -34 4 -42 -4z"/>
<path d="M378 2990 c-2 -5 -4 -17 -6 -25 -7 -38 -38 -65 -75 -65 -24 0 -37
-10 -31 -25 5 -14 21 -21 37 -17 15 4 50 12 77 17 76 13 186 105 125 105 -24
0 -56 -18 -70 -40 -13 -22 -32 -40 -42 -40 -10 0 -3 23 15 50 29 44 29 50 2
50 -16 0 -31 -4 -32 -10z"/>
<path d="M1846 2946 c8 -38 2 -44 -48 -40 -32 2 -58 15 -58 29 0 14 -10 25
-22 25 -14 0 -18 -18 -11 -45 7 -25 13 -53 13 -62 0 -10 29 -11 65 -3 36 8
124 15 195 15 72 0 103 4 70 9 -33 5 -69 17 -79 28 -10 10 -32 18 -48 18 -16
0 -42 16 -57 35 -27 33 -28 32 -20 -9z"/>
<path d="M520 2910 c-73 -54 -62 -63 35 -29 63 22 105 79 58 79 -14 0 -56 -22
-93 -50z"/>
<path d="M5905 2920 c-39 -61 -28 -75 16 -22 47 56 79 39 42 -21 -21 -34 -21
-40 0 -33 15 5 30 33 33 63 8 65 -53 75 -91 13z"/>
<path d="M690 2920 c13 -20 -24 -46 -79 -55 -21 -3 -44 -11 -50 -17 -6 -7 7
-9 29 -5 22 3 52 -1 66 -11 25 -15 136 63 117 82 -17 17 -93 22 -83 6z"/>
<path d="M4163 2925 c10 -45 -28 -77 -81 -70 -32 5 -63 0 -70 -11 -7 -12 57
-30 161 -44 155 -22 175 -22 191 8 10 17 31 32 47 32 16 0 29 14 29 31 0 24
-8 26 -40 9 -22 -12 -40 -30 -40 -41 0 -10 -22 -19 -49 -19 -36 0 -47 8 -38
30 6 17 28 30 49 30 21 0 38 9 38 20 0 34 -52 22 -90 -20 -38 -42 -110 -55
-110 -20 0 11 19 20 42 20 36 0 39 5 18 30 -26 31 -62 41 -57 15z"/>
<path d="M4702 2883 c-24 -29 -55 -68 -68 -86 -19 -27 -40 -31 -104 -18 -44 9
-65 17 -46 19 38 2 93 82 57 82 -12 0 -21 -9 -21 -20 0 -11 -13 -20 -28 -20
-27 0 -52 -41 -52 -84 0 -30 235 -9 265 23 20 22 18 25 -10 14 -31 -10 -33 -6
-14 29 13 23 34 36 51 30 16 -6 28 1 28 17 0 15 11 31 24 36 16 5 13 12 -7 20
-20 7 -48 -8 -75 -42z"/>
<path d="M1200 2883 c0 -22 -11 -44 -25 -49 -14 -5 -19 -15 -11 -24 8 -8 28
-10 45 -3 35 13 42 84 11 103 -11 7 -20 -5 -20 -27z"/>
<path d="M1564 2899 c-26 -10 -41 -28 -34 -39 7 -11 -4 -21 -24 -21 -32 -2
-32 -4 4 -18 45 -18 76 -7 59 20 -6 11 -3 19 8 19 10 0 24 14 30 30 7 17 10
29 7 29 -2 -1 -25 -10 -50 -20z"/>
<path d="M4924 2839 c-24 -22 -44 -58 -44 -80 0 -21 -10 -39 -23 -39 -13 0
-18 -6 -11 -13 17 -17 77 33 64 53 -5 9 4 27 20 40 17 14 30 18 30 10 0 -8 13
-4 29 9 31 26 182 12 200 -18 5 -8 -3 -32 -19 -53 -49 -65 -35 -77 139 -125
176 -49 273 -38 300 32 13 33 -2 32 -69 -8 -34 -20 -70 -27 -93 -18 -34 14
-33 16 9 33 26 10 41 27 34 38 -13 22 -81 -5 -93 -37 -4 -11 -27 -11 -53 -1
-48 18 -43 58 7 58 16 0 29 9 29 20 0 32 -36 23 -75 -19 -24 -26 -51 -36 -81
-28 -55 15 -57 47 -4 61 82 22 30 58 -150 105 -103 27 -95 28 -146 -20z"/>
<path d="M4804 2783 c-42 -31 -42 -63 -1 -63 17 0 64 79 53 90 -3 4 -27 -8
-52 -27z"/>
<path d="M4990 2731 c-62 -38 -70 -50 -38 -50 22 -1 62 22 88 49 59 62 51 62
-50 1z"/>
<path d="M2382 2672 c35 -35 320 -86 314 -56 -3 18 -29 38 -56 46 -54 15 -272
23 -258 10z"/>
<path d="M2158 2651 c-63 -63 35 -134 154 -111 l78 15 -75 3 c-94 3 -100 42
-6 42 38 0 74 -9 81 -20 7 -11 64 -19 126 -18 l114 2 -140 39 c-243 69 -287
70 -275 9 5 -29 0 -52 -11 -52 -12 0 -24 23 -28 52 -3 28 -11 46 -18 39z"/>
<path d="M4765 2647 c-14 -6 -25 -19 -25 -29 0 -27 45 -21 89 13 42 31 0 42
-64 16z"/>
<path d="M5642 2607 c-33 -74 -17 -77 35 -7 31 43 36 60 17 60 -15 0 -38 -24
-52 -53z"/>
<path d="M1128 2611 c-201 -37 -293 -108 -208 -161 11 -7 20 6 20 29 0 50 82
56 160 11 28 -16 98 -28 160 -27 100 1 103 3 40 17 -38 8 -104 30 -145 48 -41
18 -79 32 -85 32 -188 -4 90 40 330 52 204 11 268 7 346 -19 121 -42 147 -42
114 -3 -21 25 -18 30 20 30 35 0 42 -9 34 -39 -14 -56 23 -75 116 -60 l80 13
-77 3 c-66 3 -74 8 -54 32 17 20 45 25 88 18 53 -10 59 -8 37 15 -37 39 -777
46 -976 9z"/>
<path d="M5740 2614 c-27 -14 -52 -43 -56 -65 -5 -36 -4 -36 16 -4 12 19 41
35 65 35 42 0 42 -1 4 -29 -37 -28 -37 -28 11 -16 85 21 180 85 126 85 -24 0
-49 -9 -55 -19 -7 -11 -26 -14 -43 -7 -25 9 -26 15 -5 28 42 27 -7 20 -63 -8z"/>
<path d="M1474 2562 c5 -21 -2 -44 -15 -53 -17 -10 -20 -7 -11 8 8 13 8 22 -2
20 -9 -2 -41 7 -72 20 -31 13 -99 22 -150 21 l-94 -2 89 -28 c50 -15 115 -30
145 -32 31 -3 56 -12 56 -20 0 -9 41 -16 91 -16 58 0 87 8 78 21 -7 11 -1 34
12 50 30 36 16 54 -28 37 -18 -7 -33 -32 -34 -55 0 -39 -2 -40 -21 -8 -11 19
-15 44 -8 55 7 11 -1 20 -17 20 -19 0 -26 -13 -19 -38z"/>
<path d="M5890 2549 c-80 -52 -53 -60 60 -20 39 14 39 14 1 -17 -38 -31 -38
-32 4 -32 34 0 42 12 41 60 -2 73 -5 73 -106 9z"/>
<path d="M1640 2568 c0 -33 76 -67 150 -66 81 1 45 23 -70 44 -16 3 -41 12
-55 21 -14 8 -25 9 -25 1z"/>
<path d="M5211 2542 c-30 -12 -12 -19 70 -30 257 -33 271 -32 129 8 -157 44
-146 43 -199 22z"/>
<path d="M5571 2462 c-14 -23 58 -41 109 -28 56 15 29 46 -40 46 -32 0 -63 -8
-69 -18z"/>
<path d="M1585 2286 c-27 -5 -45 -23 -45 -46 0 -20 -11 -41 -25 -47 -41 -16
26 -53 89 -48 30 2 50 7 45 12 -5 5 0 20 10 32 20 24 6 113 -16 108 -7 -1 -33
-6 -58 -11z m54 -41 c-3 -68 -79 -101 -79 -35 0 37 11 50 40 50 22 0 40 -7 39
-15z"/>
<path d="M1980 2260 c0 -22 -9 -40 -20 -40 -36 0 -21 -37 21 -50 80 -26 139 5
139 70 0 55 -6 60 -70 60 -57 0 -70 -8 -70 -40z m120 -11 c0 -19 -56 -69 -77
-69 -10 0 -15 18 -9 40 9 35 86 60 86 29z"/>
<path d="M1811 2259 c7 -11 1 -34 -12 -51 -19 -22 -20 -35 -2 -53 17 -17 26
-7 35 40 7 35 27 67 45 72 18 4 8 9 -23 11 -35 1 -51 -6 -43 -19z"/>
<path d="M1314 2246 c-36 -9 -36 -10 0 -37 34 -26 34 -28 1 -28 -48 -1 -44
-35 6 -51 80 -26 139 5 139 70 0 62 -38 74 -146 46z m126 -37 c0 -19 -56 -69
-77 -69 -10 0 -15 18 -9 40 9 35 86 60 86 29z"/>
<path d="M2788 2205 c-49 -74 -56 -125 -16 -125 44 0 94 56 81 90 -6 16 -3 34
8 41 28 17 23 49 -9 49 -15 0 -44 -25 -64 -55z"/>
<path d="M1151 2199 c-8 -27 -14 -56 -13 -64 1 -8 -11 -15 -28 -15 -17 0 -30
18 -30 39 0 29 10 37 35 28 30 -9 30 -7 5 11 -50 36 -181 28 -166 -10 6 -18 0
-39 -14 -48 -14 -8 -19 -26 -11 -38 21 -34 51 -6 51 49 0 65 55 64 72 -1 8
-34 26 -50 55 -50 54 0 92 57 73 109 -12 36 -14 35 -29 -10z"/>
<path d="M5060 2159 c377 -88 927 -199 937 -189 14 14 -13 20 -581 139 -569
118 -770 146 -356 50z"/>
<path d="M750 2186 c66 -16 84 -46 43 -70 -30 -16 -32 -24 -11 -37 35 -22 58
-5 58 42 0 26 14 39 41 39 23 0 36 9 29 20 -7 11 -55 19 -106 18 -52 -2 -76
-7 -54 -12z"/>
<path d="M3060 2167 c0 -25 -41 -37 -90 -28 -11 2 -10 -7 3 -19 41 -42 167
-46 250 -9 42 19 84 29 91 21 8 -7 -6 -19 -30 -25 -66 -17 -53 -47 21 -47 63
1 235 66 235 89 0 14 -102 -9 -130 -29 -45 -31 -88 -38 -78 -12 6 15 39 36 74
47 l64 21 -72 2 c-39 1 -124 -16 -188 -38 -139 -48 -152 -49 -137 -10 6 17 35
31 64 31 29 1 71 10 93 19 29 13 11 17 -65 16 -73 -2 -105 -10 -105 -29z"/>
<path d="M440 2164 c0 -9 -32 -12 -70 -8 -39 5 -82 -1 -97 -13 -14 -12 -61
-18 -104 -13 -44 5 -63 4 -44 -2 40 -12 47 -61 11 -73 -12 -4 -16 -18 -8 -32
22 -35 52 -8 52 48 0 47 51 50 82 5 6 -9 56 -22 110 -29 l100 -12 4 73 c3 39
-4 72 -15 72 -12 0 -21 -7 -21 -16z m-50 -39 c35 -26 32 -65 -5 -65 -43 1 -73
22 -80 55 -5 27 52 34 85 10z"/>
<path d="M513 2165 c12 -8 26 -33 30 -55 6 -32 25 -41 97 -44 72 -3 80 0 40
13 -27 9 -38 18 -24 19 15 1 21 11 14 22 -7 11 4 21 24 22 25 1 21 7 -14 18
-64 20 -197 24 -167 5z"/>
<path d="M3580 2133 c0 -18 -2 -33 -5 -33 -3 0 -41 -14 -85 -29 l-80 -29 73
-1 c42 -1 83 12 98 30 21 26 139 31 214 10 20 -5 -1 -41 -25 -41 -16 0 -30 -9
-30 -20 0 -38 75 -20 86 20 10 41 94 58 94 20 0 -11 -13 -20 -30 -20 -16 0
-30 -9 -30 -20 0 -75 98 6 100 82 0 7 -59 18 -131 26 -71 7 -157 19 -190 25
-46 9 -59 5 -59 -20z"/>
<path d="M4084 2050 c-48 -48 -57 -65 -30 -60 20 4 42 8 50 8 7 1 19 20 26 42
13 41 110 59 110 20 0 -11 -13 -20 -29 -20 -16 0 -34 -9 -41 -20 -7 -11 7 -20
31 -20 26 0 47 16 53 40 7 26 27 40 58 40 57 0 61 -16 13 -52 -33 -25 -33 -27
-1 -27 19 -1 44 17 56 39 22 41 100 56 100 20 0 -11 -13 -20 -30 -20 -16 0
-30 -9 -30 -20 0 -35 58 -21 79 19 40 74 27 81 -164 80 -183 -1 -186 -2 -251
-69z"/>
<path d="M4563 2023 c-46 -46 -56 -83 -23 -83 11 0 20 14 20 30 0 17 14 30 30
30 17 0 30 9 30 20 0 11 25 19 55 19 53 -1 53 -2 10 -20 -67 -27 -54 -39 20
-18 95 28 149 25 119 -5 -58 -58 -28 -112 76 -134 233 -50 249 -50 310 6 45
42 49 52 20 52 -20 0 -46 -14 -58 -31 -18 -24 -35 -27 -72 -12 l-50 19 48 19
c37 14 42 23 22 35 -17 10 -38 3 -58 -22 -20 -23 -51 -35 -81 -31 l-49 7 49
37 c48 38 48 38 5 39 -25 0 -48 -16 -55 -37 -9 -27 -25 -35 -61 -28 -62 12
-64 33 -5 59 l44 20 -46 24 c-92 50 -253 52 -300 5z"/>
<path d="M2331 1962 c-25 -41 -2 -122 35 -122 33 0 34 3 5 31 -44 45 -39 63
24 86 l55 20 -54 1 c-29 1 -59 -6 -65 -16z"/>
<path d="M2205 1946 c43 -7 55 -20 55 -57 0 -27 10 -49 22 -49 14 0 18 18 11
45 -7 25 -13 52 -13 60 0 8 -29 14 -65 12 -60 -3 -61 -4 -10 -11z"/>
<path d="M5420 1938 c0 -12 -20 -38 -45 -59 -32 -27 -36 -38 -15 -38 39 0 70
22 84 60 9 23 31 29 84 23 84 -10 87 -15 27 -65 -25 -21 -34 -38 -22 -38 45
-2 87 24 87 52 0 15 16 34 35 42 25 10 13 18 -45 28 -119 22 -190 20 -190 -5z"/>
<path d="M1082 1898 c-111 -21 -182 -68 -182 -118 0 -22 -10 -40 -22 -40 -13
0 -18 18 -12 40 13 50 10 52 -138 68 -141 15 -224 -26 -200 -100 10 -34 30
-40 127 -40 63 0 99 3 80 8 -54 11 -43 81 14 96 60 15 94 -4 87 -49 -5 -26 12
-34 84 -36 50 -2 70 1 45 6 -59 13 -57 35 6 76 49 32 58 32 174 -8 68 -22 164
-40 214 -39 l91 3 -90 20 c-49 11 -139 37 -200 58 l-110 37 96 -11 c53 -7 143
-25 200 -42 57 -16 154 -33 214 -37 61 -5 94 -4 75 2 -42 13 -43 26 -6 74 34
46 158 40 167 -7 4 -25 -10 -30 -70 -24 -57 6 -69 2 -46 -13 17 -12 80 -21
140 -20 64 1 93 7 70 15 -51 16 -61 63 -15 64 29 1 28 4 -6 18 -54 22 -675 21
-787 -1z m356 -10 c34 -7 62 -25 62 -40 0 -34 -29 -36 -86 -4 -24 14 -93 30
-154 37 l-110 13 113 3 c61 2 140 -3 175 -9z m-758 -98 c0 -42 -9 -50 -60 -50
-33 0 -60 9 -60 20 0 11 9 20 20 20 11 0 20 14 20 30 0 17 18 30 40 30 29 0
40 -13 40 -50z"/>
<path d="M5786 1894 c-9 -15 -38 -42 -66 -61 l-50 -35 60 14 c33 8 62 20 65
26 25 56 44 64 112 51 71 -13 103 -49 44 -49 -16 0 -34 -9 -41 -20 -7 -11 6
-20 27 -20 50 0 80 77 40 102 -42 27 -173 21 -191 -8z"/>
<path d="M255 1792 c-19 -14 -35 -46 -35 -69 0 -24 -2 -43 -5 -43 -3 0 -34 8
-70 19 -36 10 -65 11 -65 2 0 -60 296 -54 319 7 10 26 30 52 45 58 16 5 4 18
-30 32 -73 29 -116 27 -159 -6z m125 -42 c0 -44 -9 -50 -70 -50 -72 0 -94 27
-39 48 17 6 26 21 19 32 -7 11 10 20 39 20 41 0 51 -10 51 -50z"/>
<path d="M1006 1772 c4 -12 56 -25 115 -28 132 -8 125 6 -17 32 -77 14 -104
13 -98 -4z"/>
<path d="M2317 1730 c-39 -85 -19 -93 29 -12 38 64 42 82 18 82 -9 0 -30 -31
-47 -70z"/>
<path d="M2605 1732 c-25 -26 -45 -58 -45 -71 0 -13 -11 -17 -25 -8 -17 10
-16 4 2 -19 34 -41 61 -42 111 -4 31 24 34 34 13 59 -18 21 -19 31 -3 31 12 0
22 14 22 30 0 42 -23 37 -75 -18z"/>
<path d="M2713 1727 c-25 -25 -13 -67 19 -67 20 0 28 11 21 29 -6 15 0 33 13
38 14 6 11 10 -8 11 -17 1 -37 -4 -45 -11z"/>
<path d="M2880 1690 c0 -26 -36 -40 -84 -33 -8 2 -9 -11 -3 -27 14 -36 35 -36
127 2 39 16 50 25 25 20 -30 -5 -45 1 -45 21 0 24 19 27 95 16 113 -17 129
-27 69 -42 -24 -6 -44 -20 -44 -29 0 -10 -20 -19 -45 -20 -25 0 -35 -5 -22
-11 13 -5 76 6 140 24 64 18 149 40 187 48 l70 16 -84 3 c-46 1 -89 -7 -96
-18 -19 -31 -56 -24 -44 8 13 34 -42 51 -161 52 -62 0 -85 -8 -85 -30z"/>
<path d="M3320 1642 c-100 -28 -195 -80 -145 -81 25 -1 45 -12 45 -25 0 -13
12 -7 27 13 15 21 87 52 165 73 134 35 136 36 48 34 -49 0 -112 -7 -140 -14z"/>
<path d="M2280 1626 c0 -13 -139 -25 -375 -32 -370 -11 -596 -45 -652 -98 -45
-42 -16 -116 44 -113 47 2 48 3 8 11 -25 5 -45 15 -44 22 1 35 58 84 96 84 24
0 43 9 43 21 0 13 45 17 125 11 90 -7 106 -5 55 6 l-70 17 73 2 c100 4 120
-49 33 -86 l-63 -26 105 -15 c57 -8 110 -9 117 -2 6 7 -11 12 -38 12 -44 0
-48 7 -41 71 l9 71 207 -6 c201 -6 270 -33 176 -69 -46 -18 5 -46 84 -47 62 0
158 137 121 174 -7 7 -13 3 -13 -8z"/>
<path d="M3443 1599 c-143 -42 -173 -59 -101 -59 50 0 316 71 334 89 22 23
-111 5 -233 -30z"/>
<path d="M3726 1601 c-6 -22 -34 -34 -92 -37 -46 -2 -111 -13 -144 -24 -50
-17 -42 -19 55 -11 68 5 115 0 115 -12 0 -10 9 -14 20 -7 42 26 181 22 171 -4
-5 -14 2 -26 17 -26 15 0 32 25 38 55 11 60 0 87 -22 52 -25 -38 -104 -53
-104 -20 0 17 20 33 45 37 35 6 30 10 -23 19 -52 8 -69 3 -76 -22z"/>
<path d="M4006 1608 c-13 -6 -19 -24 -13 -39 7 -18 -1 -29 -20 -29 -17 0 -36
-9 -43 -20 -7 -11 7 -20 31 -20 26 0 47 16 53 40 9 34 27 40 123 40 l113 -1
-50 -39 c-27 -21 -81 -47 -120 -57 -40 -11 -53 -20 -30 -21 117 -6 250 85 199
135 -14 15 -216 23 -243 11z"/>
<path d="M1785 1546 c20 -5 35 -28 35 -54 0 -38 11 -46 70 -48 65 -3 70 2 70
57 0 32 -10 59 -22 59 -13 0 -17 -15 -9 -33 14 -38 -22 -69 -62 -53 -15 6 -27
27 -27 48 0 27 -13 37 -45 36 -34 -2 -36 -5 -10 -12z"/>
<path d="M4480 1526 c-27 -4 -68 -16 -90 -25 -22 -10 -67 -28 -100 -40 l-60
-21 65 7 c36 3 65 -1 65 -10 0 -10 9 -17 20 -17 11 0 20 14 20 30 0 17 19 31
45 32 25 1 90 13 145 28 l100 25 -80 0 c-44 0 -102 -4 -130 -9z"/>
<path d="M4560 1469 c-109 -34 -133 -47 -89 -48 34 0 133 21 220 48 122 37
143 48 89 47 -38 0 -137 -22 -220 -47z"/>
<path d="M4886 1481 c-6 -24 -25 -32 -62 -26 -30 4 -94 -6 -144 -22 -89 -29
-89 -29 -24 -31 37 -1 84 7 106 19 21 11 50 14 63 6 16 -10 8 -20 -25 -29
l-50 -14 54 -2 c29 -1 59 7 65 17 7 11 24 15 38 9 14 -5 50 0 80 11 42 16 53
14 53 -8 0 -16 -20 -33 -45 -38 -30 -6 -25 -8 15 -6 46 2 62 14 66 48 5 30 21
46 50 47 36 2 37 4 8 12 -20 5 -72 -5 -115 -22 -67 -27 -79 -27 -79 -3 0 15
16 31 35 36 23 5 16 11 -22 19 -44 9 -60 3 -67 -23z"/>
<path d="M1093 1486 c45 -6 123 -69 81 -66 -2 0 -40 14 -84 29 -44 16 -120 29
-170 28 -80 -1 -69 -6 99 -48 217 -54 201 -55 187 16 -10 50 -18 55 -93 52
-71 -3 -74 -5 -20 -11z"/>
<path d="M1430 1480 c-7 -11 -5 -21 4 -23 9 -1 -15 -8 -54 -15 l-70 -12 70
-21 c39 -11 102 -14 140 -7 l70 13 -65 2 c-56 3 -99 43 -45 43 11 0 20 9 20
20 0 11 -13 20 -29 20 -16 0 -34 -9 -41 -20z"/>
<path d="M609 1442 c6 -10 -49 -14 -124 -10 l-135 7 120 -28 c66 -15 126 -24
133 -19 17 10 45 -30 31 -44 -5 -6 -84 9 -174 32 -222 57 -311 49 -306 -25 4
-66 -28 -74 -38 -10 -4 34 -21 46 -66 50 -55 4 -56 3 -15 -15 56 -23 59 -60 4
-60 -23 0 -36 -9 -29 -20 28 -45 183 -23 182 25 -2 59 69 68 210 26 115 -34
258 -41 258 -13 0 9 56 14 125 11 l125 -7 -95 21 c-52 12 -95 29 -95 39 0 25
35 22 148 -12 54 -17 135 -29 180 -28 71 1 57 8 -98 49 -181 48 -362 64 -341
31z"/>
<path d="M5128 1425 c-46 -32 -47 -105 -1 -105 24 0 77 -6 119 -13 66 -11 78
-7 87 29 8 30 39 48 109 66 120 31 112 48 -13 29 -68 -10 -96 -25 -104 -53 -8
-31 -28 -38 -107 -38 -100 0 -131 27 -58 50 22 7 35 21 29 31 -14 23 -31 24
-61 4z"/>
<path d="M5500 1382 c-49 -19 -103 -40 -120 -48 -38 -18 76 -2 128 18 32 12
36 8 25 -20 -16 -43 104 -32 314 27 l122 34 -139 14 c-184 17 -223 14 -330
-25z m278 10 c-22 -21 -218 -67 -218 -51 0 10 29 26 65 37 66 19 168 28 153
14z"/>
<path d="M2136 1304 c-44 -103 -45 -104 -135 -106 l-91 -1 80 -28 80 -27 -90
11 c-138 17 -315 26 -270 14 22 -6 49 -20 60 -32 14 -14 4 -16 -30 -6 -27 8
-104 18 -170 21 -98 6 -106 4 -40 -8 58 -11 71 -19 47 -30 -18 -8 -77 -2 -130
13 -56 16 -122 22 -157 14 -33 -8 -100 -15 -148 -17 -118 -3 -84 -24 63 -40 8
-1 15 -11 15 -22 0 -36 -101 -21 -146 22 -34 32 -60 39 -114 30 -38 -6 -99
-12 -135 -12 -52 0 -65 -8 -65 -41 0 -42 -51 -75 -76 -49 -8 9 -3 19 11 24 58
21 18 46 -70 43 -59 -2 -74 -6 -40 -11 65 -10 74 -46 11 -46 -98 0 2 -40 125
-49 75 -6 113 -4 90 6 -56 24 -5 47 54 25 94 -36 206 -35 199 2 -4 29 4 31 60
15 90 -26 226 -24 161 2 -64 25 -61 99 5 99 28 0 50 -9 50 -20 0 -11 -20 -20
-44 -20 -104 0 6 -42 135 -51 96 -7 127 -4 99 9 -22 11 -69 20 -105 21 -60 1
-81 18 -54 45 5 6 70 -6 144 -27 74 -20 161 -36 195 -35 l60 3 -58 12 c-32 7
-63 25 -67 39 -10 29 86 14 130 -21 26 -21 32 -9 26 50 -2 20 10 35 27 35 20
0 26 -11 18 -32 -15 -41 27 -67 109 -68 77 0 75 8 25 -95 -22 -46 -40 -92 -40
-103 0 -32 -70 -62 -154 -65 -60 -2 -64 -5 -21 -11 30 -5 55 -21 55 -37 0 -23
-20 -21 -105 12 -285 111 -935 58 -935 -77 0 -28 -9 -41 -21 -33 -12 7 -17 26
-11 41 8 20 -5 27 -44 26 -33 -2 -41 -6 -19 -12 19 -5 35 -22 35 -38 0 -24
-10 -25 -65 -2 -58 23 -110 31 -275 41 -108 6 -78 -99 32 -114 134 -19 244
-16 211 5 -21 13 -20 19 7 29 19 7 43 8 54 1 54 -34 277 -28 288 7 6 19 19 51
30 70 15 28 10 35 -22 35 -22 0 -40 -13 -40 -28 0 -16 -11 -33 -25 -39 -15 -6
-11 -10 10 -11 52 -3 42 -42 -10 -42 -68 1 -103 30 -87 73 8 20 14 42 14 47
-6 58 619 79 679 23 38 -35 41 -43 13 -43 -19 0 -34 -9 -34 -20 0 -11 18 -20
40 -20 30 0 40 13 40 52 0 39 8 49 32 40 17 -7 35 -12 40 -12 4 0 8 -27 8 -60
0 -56 4 -60 55 -48 75 19 82 28 18 28 -29 0 -53 9 -53 20 0 30 87 24 131 -9
65 -49 50 -69 199 259 112 244 189 437 180 447 -6 6 -30 -36 -54 -93z m-139
-204 c47 -15 43 -17 -31 -18 -67 -2 -82 4 -73 28 6 16 20 24 31 18 10 -7 43
-20 73 -28z m-977 -63 c0 -28 -10 -37 -35 -30 -19 6 -73 21 -120 33 -112 29
-107 38 15 27 65 -6 100 -1 100 13 0 12 9 17 20 10 11 -7 20 -30 20 -53z
m-456 -389 c47 -29 4 -40 -89 -22 -147 27 -175 63 -36 45 60 -7 116 -18 125
-23z"/>
<path d="M5976 1369 c-8 -8 -80 -31 -160 -51 l-146 -37 110 8 c61 4 126 14
145 21 20 8 35 5 35 -6 0 -12 -16 -25 -35 -30 -26 -7 -23 -10 11 -12 25 -1 50
11 56 27 15 38 2 99 -16 80z"/>
<path d="M220 1339 c0 -8 14 -20 32 -27 35 -13 200 -17 186 -4 -17 17 -218 46
-218 31z"/>
<path d="M2418 1265 c-95 -102 -86 -178 14 -124 50 27 66 79 24 79 -13 0 -6
13 15 29 27 19 33 35 18 49 -14 15 -36 4 -71 -33z"/>
<path d="M2690 1221 c-7 -22 -25 -41 -39 -41 -15 0 -31 -12 -37 -27 -7 -19 3
-24 36 -18 26 5 51 26 56 47 10 39 111 53 181 26 36 -14 21 -68 -19 -68 -38 0
-35 -33 4 -48 41 -16 49 -15 46 3 -10 63 6 85 62 85 33 0 60 -9 60 -20 0 -11
-13 -20 -30 -20 -16 0 -30 -9 -30 -20 0 -40 60 -18 86 31 24 47 29 49 54 19
18 -22 20 -37 6 -47 -11 -7 -27 -35 -34 -63 -13 -45 -11 -46 13 -16 15 18 52
39 81 47 30 7 54 21 54 30 0 9 16 20 35 25 22 6 14 10 -20 12 -30 1 -55 -8
-55 -21 0 -13 -22 1 -49 30 -27 29 -56 54 -65 55 -9 1 -47 4 -86 7 -38 3 -121
11 -183 19 -104 13 -115 11 -127 -27z"/>
<path d="M3240 1090 c-116 -62 -84 -63 91 -1 122 42 131 48 69 49 -38 0 -110
-21 -160 -48z"/>
<path d="M3380 1072 c-100 -28 -134 -44 -102 -49 26 -3 87 9 136 27 106 41
134 29 42 -17 -83 -40 -33 -42 96 -3 114 35 128 36 128 13 0 -10 -29 -26 -65
-38 l-65 -20 75 1 c47 0 75 10 75 26 0 14 16 41 35 60 37 37 -22 35 -123 -4
-30 -11 -36 -8 -28 14 16 42 -29 40 -204 -10z"/>
<path d="M3794 1058 c-51 -52 -53 -58 -17 -58 23 0 46 18 53 40 13 42 45 48
148 28 72 -15 80 -39 20 -59 -32 -10 -36 -18 -19 -36 18 -17 33 -12 61 22 36
45 140 63 140 25 0 -11 -13 -20 -30 -20 -16 0 -30 -9 -30 -20 0 -41 62 -18 80
30 21 55 40 62 76 26 13 -13 29 -18 35 -11 28 27 -90 62 -231 68 -82 4 -168
10 -190 15 -26 6 -60 -12 -96 -50z"/>
<path d="M100 1040 c-78 -7 -97 -14 -65 -23 58 -17 59 -57 1 -46 -33 6 -38 3
-19 -16 12 -12 84 -25 158 -28 80 -3 113 1 81 9 -42 11 -50 21 -37 43 15 24
27 25 65 4 25 -13 73 -26 106 -29 33 -2 67 -13 75 -24 8 -11 15 -1 15 23 0 23
15 49 34 56 30 11 31 16 5 32 -38 24 -220 24 -258 0 -17 -11 -35 -13 -40 -5
-6 8 -60 10 -121 4z m360 -30 c0 -34 -9 -35 -97 -17 -89 17 -78 47 17 47 58 0
80 -8 80 -30z"/>
<path d="M4330 1005 c-63 -9 -89 -35 -89 -85 0 -26 2 -26 18 -1 10 16 80 44
155 63 137 34 86 48 -84 23z"/>
<path d="M4430 950 c-77 -27 -119 -49 -93 -49 48 -1 323 76 323 91 0 20 -102
1 -230 -42z"/>
<path d="M4694 973 c-6 -16 -68 -43 -138 -60 l-126 -31 130 10 c71 6 134 17
140 25 5 7 19 15 30 17 11 2 43 13 70 25 l50 22 -49 -10 c-27 -5 -60 0 -73 10
-16 14 -27 11 -34 -8z"/>
<path d="M4853 915 c-18 -64 -15 -89 5 -57 10 15 28 21 40 13 12 -7 17 -22 11
-33 -16 -25 15 -33 198 -54 153 -16 158 -16 178 30 12 25 33 46 48 46 15 0 27
9 27 20 0 36 -58 21 -80 -20 -22 -41 -120 -57 -120 -20 0 11 13 20 28 20 15 0
33 14 39 30 7 19 36 29 77 29 87 -2 151 -27 120 -47 -13 -8 -24 -34 -24 -58
l0 -43 29 42 c20 28 63 47 135 58 l106 16 -110 15 c-320 44 -313 44 -367 8
-29 -19 -53 -48 -53 -63 0 -37 -183 -29 -195 8 -5 14 6 25 23 25 49 0 38 27
-22 55 -73 34 -79 32 -93 -20z"/>
<path d="M5560 835 c-183 -60 -105 -65 100 -6 129 36 153 48 100 48 -38 1
-128 -18 -200 -42z"/>
<path d="M5850 845 c-76 -11 -110 -39 -110 -90 0 -28 9 -36 32 -27 17 7 35 12
40 12 4 0 8 13 8 29 0 35 12 42 95 60 37 8 65 6 65 -5 0 -10 -29 -28 -65 -39
l-65 -21 56 -2 c32 -1 51 -11 44 -22 -7 -11 0 -20 15 -20 16 0 29 27 32 70 5
76 1 77 -147 55z"/>
<path d="M2245 825 c-14 -4 -25 -18 -25 -29 0 -12 -13 -32 -28 -44 -48 -38
-61 -112 -18 -111 59 1 118 55 91 82 -18 18 -17 29 5 45 33 25 13 71 -25 57z"/>
<path d="M5590 780 c-57 -14 -55 -15 24 -18 46 -1 89 7 96 18 14 23 -31 23
-120 0z"/>
<path d="M1353 747 c-20 -21 -15 -107 6 -107 11 0 15 12 9 27 -6 15 4 33 22
40 18 7 27 22 20 33 -14 23 -37 26 -57 7z"/>
<path d="M2493 731 c-6 -17 -24 -31 -40 -31 -15 0 -40 -14 -54 -31 -23 -28
-19 -30 33 -17 32 8 65 26 74 41 18 30 154 38 154 9 0 -9 -40 -27 -90 -40
-118 -30 -115 -32 45 -33 74 0 115 3 91 7 -56 8 -39 64 21 65 42 1 42 2 3 17
-94 38 -225 45 -237 13z"/>
<path d="M1115 728 c-7 -7 -7 -25 -1 -40 7 -20 -8 -29 -57 -30 -63 -2 -64 -3
-17 -18 81 -26 100 -22 100 20 0 22 9 40 20 40 11 0 20 9 20 20 0 22 -46 27
-65 8z"/>
<path d="M2840 671 c0 -15 -20 -32 -45 -36 -43 -8 -43 -9 -6 -25 22 -10 41 -9
45 1 23 66 42 74 119 53 69 -18 72 -22 32 -34 -55 -18 -59 -50 -6 -50 48 0 77
78 38 102 -46 30 -177 22 -177 -11z"/>
<path d="M5 669 c28 -29 235 -42 235 -16 0 20 -34 27 -123 27 -68 0 -119 -5
-112 -11z"/>
<path d="M261 634 c-1 -44 -9 -54 -36 -46 -87 25 -225 35 -225 17 0 -11 20
-26 45 -32 64 -18 309 -15 284 2 -11 8 -30 38 -43 65 l-23 50 -2 -56z"/>
<path d="M3206 654 c-9 -16 -52 -48 -96 -71 -77 -40 -78 -41 -17 -30 36 6 68
2 76 -11 17 -28 113 -7 144 32 18 22 46 26 115 15 96 -14 117 -36 57 -57 -19
-6 -46 -17 -58 -23 -16 -7 -21 4 -15 35 5 25 3 35 -3 21 -7 -14 -25 -25 -41
-25 -15 0 -28 -8 -28 -17 0 -10 -25 -14 -55 -10 l-55 7 56 -22 c93 -36 232 -6
256 56 23 63 34 55 -122 84 -71 13 -145 29 -164 34 -18 5 -40 -3 -50 -18z m94
-49 c0 -20 -95 -63 -109 -49 -19 18 32 64 71 64 21 0 38 -7 38 -15z"/>
<path d="M1811 594 c-17 -25 -40 -75 -53 -111 -23 -65 -23 -65 -127 -52 -77 9
-124 4 -182 -22 -47 -20 -128 -34 -200 -34 l-121 0 8 -57 c5 -36 0 -58 -15
-58 -12 0 -21 11 -20 25 8 56 -4 68 -65 68 -58 0 -60 -2 -21 -19 66 -29 78
-81 16 -69 -27 5 -45 2 -39 -8 6 -9 57 -17 114 -17 74 1 95 6 74 20 -26 16
-25 24 10 57 49 46 210 38 210 -11 0 -28 -46 -27 -165 7 -19 5 -35 1 -35 -9 0
-29 76 -44 210 -41 66 2 95 7 65 11 -106 16 -26 144 90 145 46 1 55 -8 55 -49
0 -27 -9 -50 -20 -50 -11 0 -20 18 -20 40 0 22 -8 40 -18 40 -10 0 -14 -18 -8
-40 9 -35 3 -39 -57 -29 -62 9 -64 9 -17 -12 44 -20 108 -34 172 -38 11 0 -6
-59 -39 -130 -60 -129 -60 -129 -151 -136 -90 -8 -90 -8 18 -11 l110 -3 49
114 c26 63 81 187 122 275 106 230 129 325 50 204z"/>
<path d="M3763 520 c-26 -58 -123 -90 -123 -40 0 11 14 20 30 20 17 0 30 9 30
20 0 11 15 20 33 20 19 0 28 6 21 13 -24 23 -130 -36 -141 -79 -15 -55 -27
-50 175 -73 l176 -20 60 60 c52 52 54 59 20 59 -22 0 -45 -13 -51 -30 -7 -17
-36 -30 -67 -29 l-56 0 50 29 c50 29 50 29 4 29 -25 1 -50 -12 -57 -29 -6 -16
-33 -30 -59 -30 -29 0 -48 12 -48 30 0 17 14 30 30 30 17 0 30 10 30 23 0 16
38 19 125 11 132 -11 89 10 -65 33 -86 13 -91 11 -117 -47z"/>
<path d="M4148 505 c-32 -21 -55 -105 -29 -105 11 0 21 11 21 25 0 30 92 75
149 74 33 -1 30 -6 -19 -30 -33 -16 -42 -24 -20 -18 22 7 69 17 104 23 l64 11
-23 -62 c-30 -79 -31 -78 174 -118 165 -32 177 -32 200 1 14 19 36 34 48 34
13 0 23 9 23 20 0 11 -18 20 -40 20 -22 0 -40 -13 -40 -30 0 -32 -18 -37 -68
-18 -40 16 -42 48 -2 48 17 0 30 9 30 20 0 37 -64 20 -74 -20 -8 -29 -22 -37
-54 -29 -65 17 -118 26 -156 27 -42 2 -26 62 16 62 51 0 29 36 -35 58 -71 25
-236 29 -269 7z"/>
<path d="M4840 418 c-24 -16 -20 -18 15 -8 41 12 44 8 32 -54 -15 -80 23 -56
44 29 15 60 -30 76 -91 33z"/>
<path d="M5010 400 c-7 -11 -5 -20 4 -21 9 0 0 -9 -19 -21 -20 -11 -31 -29
-25 -38 18 -29 65 -1 77 44 8 32 21 38 57 29 25 -7 64 -13 86 -13 37 -1 37 -3
-8 -38 -36 -27 -41 -40 -22 -52 27 -17 80 37 80 81 0 45 -205 70 -230 29z"/>
<path d="M260 366 c-211 -7 -260 -18 -260 -58 0 -28 3 -28 31 1 52 51 89 38
91 -34 2 -41 6 -51 12 -26 25 96 169 137 151 43 -7 -39 -19 -47 -62 -41 -48 6
-46 4 13 -22 72 -33 120 -22 86 19 -15 17 -9 34 18 58 50 43 140 66 140 36 0
-12 -10 -22 -22 -22 -14 0 -18 -19 -10 -49 10 -41 4 -50 -43 -57 -52 -8 -52
-8 9 -11 51 -2 64 6 70 40 9 61 55 72 58 14 2 -41 4 -42 13 -7 5 21 24 50 42
64 28 21 23 25 -37 29 -60 3 -56 5 30 17 116 16 10 18 -330 6z"/>
<path d="M5391 355 c7 -20 -4 -34 -35 -42 -32 -8 -39 -18 -24 -33 31 -31 88
-2 88 44 0 29 9 37 32 28 17 -7 53 -12 80 -12 59 0 63 -32 6 -51 -26 -8 -35
-20 -23 -32 27 -27 79 0 92 49 15 55 16 55 -115 68 -96 10 -111 7 -101 -19z"/>
<path d="M712 348 c45 -19 8 -102 -44 -97 -26 3 -43 -3 -37 -13 26 -42 100
-17 126 42 30 69 83 80 83 18 0 -29 9 -39 30 -31 19 8 30 0 30 -23 0 -22 11
-13 31 24 39 76 16 92 -131 90 -60 -1 -100 -5 -88 -10z"/>
<path d="M5780 332 c0 -17 -19 -41 -42 -53 -55 -29 -18 -72 77 -91 61 -12 66
-9 78 50 9 49 22 62 61 62 97 0 34 50 -71 56 -81 5 -103 0 -103 -24z m100 -52
c0 -22 -13 -40 -28 -40 -16 0 -32 -9 -35 -19 -4 -11 -17 -13 -29 -5 -15 9 -17
30 -6 59 22 58 98 62 98 5z"/>
</g>
</svg>
