<?xml version="1.0" encoding="UTF-8" standalone="no"?>
<!DOCTYPE svg PUBLIC "-//W3C//DTD SVG 1.1//EN" "http://www.w3.org/Graphics/SVG/1.1/DTD/svg11.dtd">
<svg version="1.1" xmlns="http://www.w3.org/2000/svg" xmlns:xlink="http://www.w3.org/1999/xlink" preserveAspectRatio="xMidYMid meet" viewBox="0 0 640 640" width="640" height="640"><defs><path d="M320 136.25C192.96 136.25 89.98 223.49 89.98 331.12C89.98 438.75 192.96 526 320 526C447.04 526 550.02 438.75 550.02 331.12C550.02 223.49 447.04 136.25 320 136.25Z" id="a1VMXwqxkj"></path><path d="M320 136.25C192.96 136.25 89.98 223.49 89.98 331.12C89.98 438.75 192.96 526 320 526C447.04 526 550.02 438.75 550.02 331.12C550.02 223.49 447.04 136.25 320 136.25Z" id="c1mz324uVq"></path><path d="M320 71.29C150.62 71.29 13.31 187.62 13.31 331.12C13.31 474.62 150.62 590.95 320 590.95C489.38 590.95 626.69 474.62 626.69 331.12C626.69 187.62 489.38 71.29 320 71.29Z" id="b57dA831u"></path></defs><g><g><g><use xlink:href="#a1VMXwqxkj" opacity="1" fill="#ff0000" fill-opacity="1"></use><g><use xlink:href="#a1VMXwqxkj" opacity="1" fill-opacity="0" stroke="#ffffff" stroke-width="2" stroke-opacity="0"></use></g></g><g><use xlink:href="#c1mz324uVq" opacity="1" fill="#ff0000" fill-opacity="1"></use><g><use xlink:href="#c1mz324uVq" opacity="1" fill-opacity="0" stroke="#ffffff" stroke-width="2" stroke-opacity="0"></use></g></g><g><use xlink:href="#b57dA831u" opacity="1" fill="#ff0000" fill-opacity="1"></use><g><use xlink:href="#b57dA831u" opacity="1" fill-opacity="0" stroke="#ffffff" stroke-width="2" stroke-opacity="1"></use></g></g></g></g></svg>