<svg xmlns="http://www.w3.org/2000/svg" viewBox="0 0 900 900"><g fill="#fff"><path d="M8.3 39.7c-1.8.2-3.3.8-3.3 1.3 0 1.1 4.5 2.1 6.4 1.4 1.6-.6 2.3-3.6.9-3.2-.5 0-2.3.3-4 .5zM26.2 45.6c.3 1.6 1.3 1.9 5.3 2 2.8 0 6.2.4 7.8.8 2.1.6 2.7.5 2.7-.7 0-1-1.6-1.6-5.2-2.1-2.9-.3-6.6-.9-8.1-1.2-2.5-.6-2.8-.4-2.5 1.2zM49 49.8c0 .5 1.1 1.2 2.5 1.5 1.6.3 2.4 0 2.2-.7-.4-1.4-4.7-2.1-4.7-.8zM60.5 53c-.7 1.1 3.9 2.5 5.5 1.5.5-.3.8-1.1.5-1.6-.8-1.2-5.2-1.2-6 .1zM284.5 65.1c-.8 1.3-.6 1.5 2.3 2.3 2.4.8 2.9-.3 1-2.2-1.5-1.5-2.5-1.5-3.3-.1zM71.5 68.3c-.4 1.4-.3 3.6.1 4.9.4 1.3.6 7.2.5 13.1-.3 10.7-.2 10.9 1.8 10.2 1.7-.5 2.3-.1 3.1 2.1 1.3 3.4.4 8.4-1.6 8.4-1.3 0-1.7-1-2.7-6.5-.3-1.8-.5-1.7-1.7.8-1.1 2.2-1.1 3.5-.2 6.1 1.7 4.5 1.5 26.6-.2 35.1-.8 3.8-1.6 10.6-1.7 15-.2 6.8 0 8 1.4 8.3 1.1.2 1.7 1.3 1.7 3.1 0 2.6 2.2 5.2 6.5 7.8 3.1 1.9 3.7 2.1 8 2.9 2.2.3 3.4.9 2.8 1.1-2.7 1-1.1 2.2 2.5 2.1 2 0 7.5.2 12.2.6 4.7.4 10.5.9 13 1 4.9.3 7.6 1.2 10.2 3.3 1.2 1.1 2.1 1.2 3.7.4 1.4-.8 2.2-.8 2.7 0 .3.6 1.6.8 2.7.5 1.2-.3 2.7 0 3.4.6.7.5 2.1.7 3 .3 1-.5 2.4-.7 3.1-.6.6.1 1.2-.6 1.2-1.6s1-2.4 2.2-3.2c1.9-1.2 2.3-1.1 3.3.3.7.9 2 1.6 2.9 1.6 2.4 0 3.3 3 1.3 4.5-1 .7-1.7 1.7-1.7 2.4 0 .6-.8 1.1-1.7 1.1-.9 0-1.4.2-1.1.5.3.3 2.6 0 5.2-.7 3.7-1 5.1-1 6.6 0 2.5 1.6 3 1.5 3-.3 0-.8.3-1.5.6-1.5s1.2.7 2 1.5c.9.9 3.3 1.5 5.7 1.5 2.3 0 8.5.6 13.7 1.4 18.7 2.6 22.7 2.4 29.2-1.9 2.9-1.9 5.6-3.5 6-3.5 1.4 0 8.3 4.2 9.5 5.7.9 1.2 2.3 1.4 5.8.9 2.9-.3 5.5-.1 6.8.6 1.2.6 3.3 1.3 4.7 1.4 1.4.1 6.6.8 11.5 1.4 5 .7 11 1.3 13.5 1.4 7.9.4 16.4 1.7 18.7 2.8 1.7.8 3 .6 6.3-1.1 2.2-1.1 5.1-2.1 6.3-2.1 1.3 0 2.9-.6 3.5-1.2 1.8-1.8 3.2.6 3.2 5.4 0 3.7.1 3.8 3.8 3.9 2 .1 8.2.3 13.7.5s11.5.4 13.4.4c1.8-.1 3.9.4 4.6 1 1.1.9 5.9 1.4 23.7 2.4 5.3.3 5.9 0 9.6-3.3 5-4.6 6.2-6.9 6.2-12.4 0-2.8.6-4.9 1.5-5.7 1.4-1.1 1.3-1.4-.4-2.7-1.7-1.2-2-2.4-1.8-8.3.1-3.9.6-7 1.1-7 .4 0 .5-1 .2-2.3-.4-1.2-.9-3.5-1.2-5.2-.3-1.6-1.2-3.8-2-4.9-1.7-2.5-1.8-8.5-.1-10.7 1.5-2.1 1.4-14.6-.1-16.1-1.9-1.9-2.7 0-2.8 6.1-.1 3.2-.7 6.8-1.4 8.1-1.6 2.9-1.5 47.6.1 51.7.7 2 .6 3-.5 4.1-1.3 1.3-2.2 1.3-5.4.4-2.2-.7-5.7-1.2-7.9-1.2s-6-.7-8.3-1.5c-2.3-.8-7-1.5-10.4-1.5-3.4 0-8.8-.7-11.9-1.5-3.2-.8-9.1-1.5-13.2-1.5-9.7 0-10.5-.4-10.5-5.1V190l-4.5-.2c-2.5 0-5.1-.1-5.7-.2-.9-.1-1.2 1-1 3.1l.2 3.3h-4.9c-2.8 0-7.6-.7-10.8-1.5-3.1-.8-8.1-1.5-11.1-1.5-2.9 0-6.2-.5-7.3-1-1-.6-6.7-1.5-12.7-2-21.9-2-28.3-3.7-28.1-7.8 0-.9.6-6 1.3-11.2 1.1-7.9 1.1-9.9 0-11.7-1.7-2.7-1.8-6.5-.2-8.1.7-.7 1-4.3.9-10.4-.9-29.7-.6-38 1.2-40.1 1-1.2 1.5-2.7 1.2-3.5-.3-.7-.5-2-.5-2.8 0-.8-.4-1.4-1-1.4-.5 0-1 .5-1 1.1 0 .6-.6 2.5-1.4 4.2-.8 1.8-1.6 4.3-1.8 5.7-.4 3.4-2.2 3.2-2.6-.3-.4-3.1-4-7.9-5.4-7.1-.4.3-.1 1.8.9 3.4 1.4 2.4 1.5 3.3.4 5.6-1.6 3.6-2.6 38.9-1.1 39.9.8.5.8 1.1-.1 2.1-.8 1-1.4 7.4-1.6 19.4-.3 9.9-.8 19.2-1.2 20.7-.8 2.8-.9 2.8-7.7 2.5-3.8-.2-9.4-1-12.4-1.8s-7.2-1.4-9.5-1.4c-3.7 0-18.1-2.8-25-4.8-2.5-.7-3.1-1.4-3.5-4.8-.5-3.6-.8-3.9-4.5-4.6-7.6-1.3-7.8-1.2-7.3 3.2.4 4.8-.3 5.2-7.9 3.9-3.2-.5-8.4-1.4-11.5-1.9-3.2-.4-6.1-1.1-6.6-1.4-.5-.3-7.2-1-14.8-1.6-18.7-1.4-24.9-2.3-26.8-3.9-1.8-1.5-2.2-10-.6-14.7 1.2-3.6 3-45.4 2-47.3-.4-.8-.4-2.8.1-4.5.4-1.7.5-9 .1-16.1-.7-13-.7-13-3.2-13.1-1.7 0-2.4-.5-2.1-1.5.7-2.6.2-5.2-1.3-6.7-1.3-1.3-1.6-1.2-2.1 1.1zm4.2 60.9c-.2 2.9-.3.8-.3-4.7s.1-7.9.3-5.3c.2 2.6.2 7.1 0 10zm150.8 3.9c.9 1.4-.3 5.9-1.5 5.9-.5 0-1.2-1.1-1.6-2.4-.6-2.6.1-4.6 1.6-4.6.5 0 1.2.5 1.5 1.1zm-2 20.9c.8 2.4-.1 4-2.1 4-.8 0-1.4-1-1.4-2.3 0-4 2.4-5.1 3.5-1.7zm1.5 7c0 .5-.7 1-1.5 1s-1.5-.5-1.5-1c0-.6.7-1 1.5-1s1.5.4 1.5 1zm-73 18.8c0 1.4-1.1 2.1-2.6 1.5-2.1-.8-1.7-2.3.6-2.3 1.1 0 2 .4 2 .8z"/><path d="M92.5 72.8c-1.3 1.4-.2 2.2 3 2.2 1.9 0 3.5-.4 3.5-.9 0-1-5.7-2.1-6.5-1.3zM107 77.1c0 .5 1.8.9 4 .9 2.3 0 5.4.7 7 1.5 5.5 2.8 16.4 2.6 14.6-.3-1-1.7-25.6-3.7-25.6-2.1zM2 80c0 .5.9 1 2.1 1 1.1 0 1.7-.5 1.4-1-.3-.6-1.3-1-2.1-1S2 79.4 2 80zM278.2 80.4c.1 1 .8 1.7 1.3 1.7 1.5-.1 1.2-2.4-.3-2.9-.9-.3-1.3.2-1 1.2zM139.6 81.8c-1 1.6 1 2.4 8.3 3.4 12.6 1.8 18.1 2 18.1.9 0-.6-1.5-1.2-3.2-1.2-5.9-.3-6.3-.4-7.8-1.4-.8-.5-2.4-1.1-3.5-1.2-1.1-.1-4.1-.5-6.6-.9-2.9-.4-4.9-.2-5.3.4zM237.7 87.4c-2.1 1.6-1 2.7 2.1 2 1.2-.4 1.9-1.1 1.5-2-.6-1.7-1.3-1.7-3.6 0zM173.5 87.9c-1.9.8-1.9.9.5 2 1.7.8 3.8.9 6.5.3l4-.9-2.8-1.2c-3.2-1.3-5.3-1.3-8.2-.2zM192.3 89.8c-6.4.4-7.4 2.8-1.5 3.7 2 .3 6.1 1 9.1 1.5 7.2 1.3 17.4 1.3 16.6 0-.3-.6-1.8-1-3.3-1-1.5 0-4-.8-5.7-1.8-3.5-2.2-7.9-2.8-15.2-2.4zM264.9 94c2.5 2.1 4.4 1.8 3.4-.5-.3-.8-1.7-1.5-3.2-1.5l-2.6.1 2.4 1.9zM140 98.9c0 2.5 1.9 3.8 3.1 2 1.2-1.9.6-3.3-1.4-3.7-1.1-.2-1.7.3-1.7 1.7zM289.3 98.2c.2.8 1.9 1.2 4.2 1.1 2.1-.2 5.8.4 8.3 1.2 5.1 1.8 5.8 1.5 4.2-1.4-.9-1.9-2-2.1-9.1-2.1-6 0-8 .3-7.6 1.2zM315.2 101.7c.2 1.2 1.4 1.9 3.3 2.1l3 .2-2.4-2c-2.9-2.5-4.4-2.6-3.9-.3zM331.2 103.7c-1.8.7-.4 2.3 1.9 2.3 1.2 0 1.9-.5 1.7-1.2-.5-1.4-1.8-1.8-3.6-1.1zM111 107.1c0 3.5 1.5 3.1 2.2-.6.4-1.7.1-2.5-.8-2.5s-1.4 1.1-1.4 3.1zM251.3 107.3c-.7 1.4-2.2 2.7-3.5 3-1.6.3-1.3.5 1.2.6 4.7.2 6.4 1.4 5.5 4-.9 2.8.3 6.1 1.9 5.5 1-.4 1.1-1.5.2-5.3-.6-2.6-1.6-5.4-2.2-6.2-.6-.8-1.3-2-1.6-2.8-.2-.8-.8-.4-1.5 1.2zM341 106.9c0 1.1 3.8 2.1 5.6 1.4.8-.3 1.1-.9.8-1.4-.7-1.2-6.4-1.2-6.4 0zM349.7 106.6c-1.3 1.3 1.4 4.4 3.8 4.4 2.9 0 3.2-1.2.9-3.4-1.6-1.7-3.6-2.1-4.7-1zM117.6 110.5c-2.1 3.2-2 3.5.8 3.5 2.6 0 3.9-2 3-4.5-.9-2.1-1.9-1.9-3.8 1zM272.6 109.9c-.8 1.2.3 4.1 1.5 4.1 2 0 .7 2.7-2.6 5.4-3.4 2.8-3.8 4.6-1 4.6 2 0 7.5-5.9 7.5-8 0-1-.7-2-1.5-2.4-.8-.3-1.5-1.2-1.5-2 0-1.8-1.7-3-2.4-1.7zM370.7 111.6c-1.3 1.3-.7 2.4 1.4 2.4 1.1 0 1.9-.5 1.7-1.2-.5-1.4-2.2-2.1-3.1-1.2zM140.6 116.4c-.4 1.7-.3 3.3.3 3.9 1.5 1.5 2.6-1.9 1.4-4.6-.9-2.1-1-2-1.7.7zM196.5 115.4c-1.7 1.2-1.7 1.7-.5 4.5 1.2 2.9 1.1 3.4-1 5.6-3.3 3.5-5.4 1.6-4.5-4.1.7-4.8-1-6.9-3.2-3.9-1.5 2.2-1.8 8.5-.3 8.5.6 0 1 .6 1 1.4 0 .9 1.9 1.6 5.7 2.1 3.5.4 6.2 1.3 6.9 2.3 1.2 1.6 1.3 1.6 1.9-.1.5-1.1.1-2.5-.9-3.6-1.1-1.2-1.5-3.3-1.4-6.9.3-6-.9-7.9-3.7-5.8zM291 117c0 .5 1.6 1 3.5 1s3.5-.5 3.5-1c0-.6-1.6-1-3.5-1s-3.5.4-3.5 1zM173.5 118c-.4.6-1.8.9-3.3.8-2.3-.3-2.7.1-3.4 3.7-.8 4.4-.1 9.5 1.2 9.5 1.5 0 3-3.7 3-7.4 0-3.2.3-3.6 2.5-3.6 1.5 0 2.5-.6 2.5-1.4 0-1.9-1.7-2.9-2.5-1.6zM323.3 121.2c.5 1.5-3.3 5.8-5.2 5.8-1.8 0-7.1 3.5-7.1 4.7 0 1.8 2.7 1.6 3.4-.2.3-.8 1.4-1.5 2.4-1.5 2.1 0 9.4-6.9 8.9-8.4-.2-.5-.9-1.2-1.7-1.4-.8-.3-1.1.1-.7 1zM334.5 122c-.7 1.2.2 3 1.6 3 .5 0 .9-.9.9-2 0-2.1-1.5-2.7-2.5-1zM356 123.2c0 .7.4 1.9.9 2.7 1.1 1.7 2.3-.1 1.5-2.3-.7-1.9-2.4-2.1-2.4-.4zM236.7 123.7c-2 .3-2.7.9-2.5 2.1.2 1 1.1 1.6 2.2 1.4.9-.2 2.4.2 3.1.8.7.6 4.9 1.5 9.2 1.9 4.3.4 8.8 1.3 10 2 2.4 1.2 16.7 1.4 19.8.2 1.7-.7 1.4-1-2-2-2.2-.6-6.2-1.1-8.8-1.1-2.9 0-5-.5-5.2-1.3-.4-.8-3.3-1.3-9.1-1.4-6.2-.1-9.1-.6-10.3-1.7-1-.9-2.2-1.5-2.7-1.5-.5.1-2.2.4-3.7.6zM381 125.9c0 1.2.4 2.1 1 2.1.5 0 1.2 1.1 1.6 2.5.3 1.4 1 2.3 1.4 2 1.1-.7-1.3-7.8-2.8-8.3-.7-.2-1.2.6-1.2 1.7zM151.5 127.9c-.7 1.2 1.2 2.4 2.5 1.6 1.1-.7.4-2.5-1-2.5-.5 0-1.1.4-1.5.9zM281 133.5c0 1.9 3.7 2.7 10.9 2.5 5.9-.2 6.3 0 5.6 1.7-1.9 4.4-1.7 7 .8 9.7 3.1 3.3 4 2.2 3.5-4.1l-.3-4.7h8.7c7.8-.1 11-.8 9.7-2.1-1.1-1.1-17.7-1.6-18.4-.6-.9 1.6-2.5 1.3-2.5-.4 0-2.3-4.2-3.5-11.5-3.4-4.6.1-6.5.5-6.5 1.4zM6 135c0 .5.9 1 1.9 1 1.1 0 2.3-.5 2.6-1 .4-.6-.5-1-1.9-1s-2.6.4-2.6 1zM110.7 137.7c-1 .9-.9 5.3.1 5.3.8 0 3.2-4.3 3.2-5.5 0-.7-2.6-.6-3.3.2zM278.8 139.8c-.6 4 .4 5.8 2.1 3.8 1-1.2.9-2-.2-4.2l-1.4-2.7-.5 3.1zM322.6 138.8c-1 1.6.4 2.1 9.5 2.8 4.9.4 8.8 1.3 9.4 2 .6.8 3.7 1.4 8 1.5 4.3.1 7.6.7 8.6 1.6 2 1.7 15 1.4 15.6-.3.2-.6-2.5-1.5-6.4-2.1-12-2-18.7-3.4-21.8-4.4-4.6-1.5-22.1-2.4-22.9-1.1z"/><path d="M286.7 140.7c-.2.4-.7 2-1.1 3.4-.4 2-.1 2.9 1.1 3.3 2.3.9 3.5-.6 3.1-4-.3-2.7-2.2-4.3-3.1-2.7zM311.7 142.7c-.4.3-.7 1.3-.7 2.1 0 .9-.7 2.4-1.6 3.4-1.6 1.6-1.5 1.8 0 2.4 1.8.7 4.5-2 4.6-4.4 0-2.1 3.5-.9 3.6 1.3.2 4.1.4 4.5 2.3 4.5 1.1 0 2.3.4 2.6 1 1.1 1.7 4.3 1.1 6.5-1.2 2.5-2.7 2.6-5 .3-4.7-1 .1-2.6-.1-3.6-.6-1-.4-2.3-.2-3.2.5-1.3 1.1-1.7.8-2.8-1.9-.9-2.6-1.7-3.1-4.3-3.1-1.7 0-3.4.3-3.7.7zM335.4 147.4c.3 1.4.2 2.8-.4 3.1-1.7 1.1-1.1 3.5.9 3.5 2.5 0 3.6-1.7 2.2-3.3-.5-.7-.8-2.3-.4-3.5.4-1.6.1-2.2-1.2-2.2s-1.6.6-1.1 2.4zM236.7 149.5c-.7 1.8.1 4.5 1.4 4.5.5 0 .7 1.7.6 3.7-.2 3.4.1 3.8 2.3 4.1 1.4.2 3.3 1.1 4.3 1.9 1.6 1.5 1.7 1.4 1.7-.5 0-1.1-1.6-3.7-3.5-5.8-4.5-4.7-4.5-5.9 0-3.3 3 1.8 3.6 1.9 4.1.6.3-.9.4-2.6.2-3.9-.3-2-.9-2.3-5.4-2.6-3.9-.2-5.3.1-5.7 1.3zM268.7 150.1c-.9 1.3-1.7 1.6-2.2 1-.3-.6-1.3-1.1-2.1-1.1-1.9 0-1.8 3.6.1 4.4 1.1.4 1.5 2.3 1.5 7.7 0 5 .3 7 1.2 6.7 1.6-.6 2.9-5.7 2.3-8.9-.4-1.7 0-3 1-3.9 1.6-1.4 2.1-6.5.6-7.5-.5-.3-1.6.4-2.4 1.6zM341.1 150.2c-.9 2.4.2 5.8 1.9 5.8 1.3 0 1.3-6.7 0-7.5-.6-.3-1.4.4-1.9 1.7zM458.5 149c.3.5 1.7 1 3.1 1 1.3 0 2.4-.5 2.4-1 0-.6-1.4-1-3.1-1-1.7 0-2.8.4-2.4 1zM253.2 150.9c-.8.4-1.4 2.4-1.5 4.2-.2 2.9.1 3.4 2.1 3.4 1.2 0 2.7.7 3.2 1.5 1.3 2.1-.8 4.1-3.6 3.4-1.7-.5-2.4-.2-2.4.9 0 1 1.3 1.6 4.1 1.9 2.2.2 4.2.2 4.5-.1.2-.2.4-2.7.4-5.5 0-4.1-.5-5.7-2.5-7.9-2.9-3.1-2.6-2.9-4.3-1.8zM474.5 152c.3.5 2 1 3.6 1 1.8 0 2.8-.4 2.4-1-.3-.6-2-1-3.6-1-1.8 0-2.8.4-2.4 1zM486 152.4c0 .9 4 1.3 4.6.5.3-.5-.6-.9-2-.9s-2.6.2-2.6.4zM274.4 154.3c-.8.5-1.1 1.4-.7 2 .4.7.7 2.5.8 4.2 0 4 2.8 4 3.5 0 .5-2.7.9-3 4.2-3 4.3-.1 5.7-1 4-2.7-1.4-1.4-9.6-1.7-11.8-.5zM497 155c0 .5 1.4 1 3.1 1 1.7 0 2.8-.4 2.4-1-.3-.6-1.7-1-3.1-1-1.3 0-2.4.4-2.4 1zM8 156c0 .5 1.1 1.2 2.5 1.5 1.4.3 3.7.7 5.3 1 1.5.3 3.5.8 4.5 1.1 3.2 1 1.7-1.7-1.8-3.2-3.9-1.6-10.5-1.9-10.5-.4zM173.7 155.7c-1 .9-.9 4.1.1 4.7.4.3 1.3-.8 1.9-2.5.9-2.2.8-2.9-.1-2.9-.7 0-1.6.3-1.9.7zM292.7 156.2c-.2.7-.2 3.8 0 6.8.4 4.7.9 5.7 3 6.7 3 1.4 4.2-.5 2.4-4.3-.6-1.4-1.1-3.6-1.1-4.9 0-1.3-.3-3-.6-3.9-.7-1.9-3-2.1-3.7-.4zM515.2 156.2c-2.2 2.2-1.2 2.8 4.4 2.8 3.7 0 5.3-.4 4.8-1.1-.3-.6-1.6-.8-2.7-.5-1.2.3-2.8-.1-3.7-.9-1.3-1.1-1.9-1.2-2.8-.3zM302.1 157.4c-.9 1-.8 1.6.4 2.6.9.7 1.3 2.1 1 3.1-.4 1-.3 2.4.2 3.1.4.7.8 2.4.8 3.8 0 1.5.6 2.6 1.8 2.8 1.4.3 1.7-.4 1.7-3.7 0-2.3.6-5 1.2-6.1 1.1-1.8.9-2.3-1.7-4.5-3.5-2.9-3.9-2.9-5.4-1.1zM509.5 157c-.8 1.3 1.5 2.4 2.7 1.2.6-.6.4-1.1-.6-1.5-.8-.3-1.8-.2-2.1.3zM158.5 158.2c-1 2.6.2 5.5 1.7 4 .8-.8.8-1.8.1-3.4-1-2.1-1.2-2.1-1.8-.6zM29 159c.8.5 3.1 1 5 1 2.6 0 3.1-.3 2-1-.8-.5-3.1-1-5-1-2.6 0-3.1.3-2 1z"/><path d="M281.4 160.2c-2.4 3.9 1.4 11.7 5.8 11.8 3.9 0 4.4-1.9.8-3.1-2.9-1.1-3.1-1.4-2.8-5.2.2-3.2-.1-4.2-1.4-4.5-.9-.2-2 .3-2.4 1zM39 160.8c0 1.5 2.5 2.1 4.1 1.1.9-.5.9-.9.2-.9-.6 0-1.8-.3-2.7-.6-.9-.3-1.6-.2-1.6.4zM314.7 160.7c-1.2 1.1-.8 3.6 1 5.5 1.5 1.7 1.5 1.9-.2 3.2-1.2.8-1.6 1.9-1.2 3.1.6 1.4 1 1.5 2.3.4 2.9-2.4 5.4-9.9 3.2-9.9-.6 0-1.9-.7-2.8-1.5-.9-.8-2-1.2-2.3-.8zM49 161.5c0 .2 1.1 1.2 2.5 2.1 2 1.3 2.8 1.4 4 .4 2.5-2.1 1.7-3-2.5-3-2.2 0-4 .2-4 .5zM322.7 168.7c.1 4.1.5 5.8 1.5 5.8.9 0 1.4-1.8 1.6-5.8.3-4.9.1-5.7-1.5-5.7-1.5 0-1.8.8-1.6 5.7zM340 164.5c-1 1.2-1 2.1-.2 3.8.6 1.2 1.3 3.8 1.4 5.7.4 5.2 2.3 4.2 2.6-1.4.5-8.3-1-11.5-3.8-8.1zM347.4 165.5c-1.4 2.1-1.5 3.1-.5 5.1 1.5 3.4 3.7 2.5 3.3-1.5-.1-2.2.2-3.1 1.3-3.1.8 0 1.5.6 1.5 1.4 0 .7.7 2 1.6 2.7 1.1.9 1.4 2.3 1.1 4.6-.4 2.4-.2 3.3.8 3.3 4.6 0 3.6-11.2-1-12.4-1.4-.4-2.5-1.1-2.5-1.6 0-2-4-.9-5.6 1.5zM488.2 165.2c-1.6 1.6-1.5 2.8.3 2.8.8 0 1.5-.9 1.5-2 0-2.3-.2-2.4-1.8-.8zM365.8 165.6c-.4.5-.8 4-.9 7.9l-.4 7 3 .3c1.7.2 3.6.9 4.4 1.5 1.1 1 1.3.8.7-1-.4-1.2-.2-2.4.4-2.8.5-.3 1-2.7 1-5.2 0-4.3-.1-4.5-2.5-4.1-1.4.3-2.5.2-2.5-.1 0-1.5-2.7-4.4-3.2-3.5zm4.5 9c-.4 1-.9 1.2-1.5.6-1.2-1.2-.1-3.5 1.2-2.7.5.3.6 1.3.3 2.1zM173.6 166.7c-1.1 1.1-.6 2.3.9 2.3.8 0 1.5-.4 1.5-.9 0-1.3-1.6-2.2-2.4-1.4zM330.8 168.5c-2.2 2.9-2.3 6.5-.3 6.5.8 0 1.5-.6 1.5-1.4 0-2.4 2.1-3 2.7-.7.6 2.4 3.3 2.9 3.3.6 0-1.6-3.9-7.5-4.9-7.5-.3 0-1.4 1.1-2.3 2.5zM532.5 169.9c-.3.6.2 1.8 1.2 2.8 3.3 3.4 5.2 7 4.6 9.1-.9 3.4 4.8 11.2 8.2 11.2.3 0 1.1-1.4 1.6-3 1.3-3.7 2.9-3.9 2.9-.5 0 1.6.7 2.8 1.8 3.1.9.3 2.5 1 3.4 1.5 1 .5 2.8.9 4 .9 1.5.1 3 1.2 4.3 3.2 1.3 2.1 3.2 3.5 5.5 4.1 10.5 2.6 11.1 2 5.3-4.4-2.6-2.8-4.2-3.9-5.6-3.5-1.2.3-3.7-1-7.3-4-3.3-2.6-6.5-4.4-8-4.4-3.6 0-10.4-5.6-10.4-8.5 0-1.2-.7-2.6-1.6-2.9-.9-.3-1.4-1.3-1-2.1.6-1.7.2-2-4.6-2.9-2.1-.4-3.9-.2-4.3.3zM496.7 170.7c-.4.3-.7 1.4-.7 2.4 0 1.5 1 1.9 5.3 2.1 4.4.3 5.2.6 5.5 2.4.4 3-4.1 4.4-14.5 4.4-7.2 0-8.9.3-12.3 2.5-2.2 1.4-4.5 2.5-5.3 2.5-.7 0-2.2.6-3.3 1.4-1.1.8-3.6 1.7-5.6 2.1-4.1.8-11.5 6.4-8.5 6.5 1 0 3.6-.9 5.9-2 2.3-1.1 5.6-2.2 7.4-2.6 1.8-.3 3.8-1.2 4.5-2 .7-.9 3.3-1.4 7.3-1.4 3.3 0 8.3-.7 11-1.5 2.7-.8 6.3-1.5 8.1-1.5 1.7 0 3.6-.5 4.3-1.2 1-1 1.9-.8 4.5.6 1.7 1 3.8 2.6 4.4 3.4 1.8 2.1.5 6.3-2.6 8.9-2.6 2.1-2.6 2.1-.7 4.2 1.6 1.8 3 2.1 10.2 2.1 7.9 0 8.5.2 11.9 3.1 3.2 2.8 3.9 3 6.1 2 3.5-1.5 10.7-1.5 10.2.1-.3.7-1.9 1.7-3.6 2.3-3.6 1-3.8 1.6-1.6 5.3 1.6 2.8 1.1 5.3-1.8 9.4-1 1.4-1 2 0 3 1.1 1.1 1.5 1 2.4-.5.9-1.7 1.1-1.7 2.7-.2 1.7 1.4 1.9 1.4 3.2-.1 1.2-1.5 1.4-1.4 2 .3 1.2 2.9 1 8.8-.3 10.1-2 2-.3 2.3 3 .6 3-1.5 3.2-1.8 3.2-7.4 0-3.2-.4-6.2-1-6.5-.5-.3-1-1.8-1-3.2 0-2.2-.3-2.4-2.5-1.9-2.9.7-4.6-1.7-2.7-3.6 1.4-1.4 6.1.8 7 3.2.3.8 1.3 2.4 2.2 3.5 1.6 1.9 2.8 5.8 3.3 11.3.4 4.3 5.7 5 7.8 1 .8-1.5.7-2.4-.5-3.7-3.9-4.3-.9-5.4 4.6-1.6 2 1.4 4.4 2.5 5.3 2.5.8 0 1.9.8 2.2 1.7.4 1 3.3 4.3 6.4 7.3 3.1 3 6 6.5 6.4 7.7.4 1.4 1.4 2.3 2.6 2.3 1.5 0 1.9-.7 1.9-3.1 0-2.3-1.4-4.6-5.7-9.5-3.2-3.5-6.2-6.4-6.7-6.4-.6 0-1.9-.8-3-1.9-3-2.6-11-5.4-13.5-4.6-1.7.5-2.3.1-3.1-2.1-.8-1.9-.8-3 0-3.8 1.5-1.5 1.2-5.3-.6-6-.9-.3-2.5-.6-3.6-.6-2.4 0-7.8-5.5-7.8-7.9 0-2.5-4.1-4-12.6-4.8-6.2-.5-7.4-.9-7.4-2.4 0-2.8-1.9-3.3-10.2-3-7.5.3-7.8.2-8.9-2.3-1-2.1-.9-2.9.4-4.3 2.3-2.7 2.3-4.4.2-9.1-1.2-2.6-2.4-4.1-3.2-3.8-2.2.9-6.1-1.5-6.7-4-.6-2.2-1.2-2.4-6-2.4-2.9 0-5.6.3-5.9.7zM549.2 173.8c.9.4 2.6 1.9 3.8 3.5 2.1 2.6 4 2.8 4 .4 0-1.6-5.2-4.7-7.7-4.6-1.6 0-1.6.1-.1.7zM470 177c-.8.5-2.5 1-3.6 1-1.2 0-2.4.7-2.8 1.5-.3.8-1.3 1.5-2.3 1.5-1 0-3 1.6-4.5 3.4-3.2 4-3.4 4.6-1.3 4.6.8 0 1.5-.6 1.5-1.4 0-.8 1.3-1.7 2.8-2.1 1.6-.3 3.9-2 5.1-3.6 1.9-2.5 2.9-3 5.6-2.7 3.9.3 5.7-.9 3.5-2.2-1.9-1.2-2.1-1.2-4 0zM522 176.9c0 .5.9 1.1 2 1.4 1.1.3 2 1.2 2 2 0 1.6 4.8 5.2 5.7 4.3.9-.8-.6-5.3-2.3-7-1.6-1.7-7.4-2.2-7.4-.7zM563.3 184.5c-.3.9-.3 1.8 0 2.1.9.9 2.7-.6 2.7-2.2 0-1.9-1.9-1.8-2.7.1zM633 193.5c0 .9.5 1.5 1.1 1.3.6-.2 1.1-.8 1.1-1.3s-.5-1.1-1.1-1.3c-.6-.2-1.1.4-1.1 1.3z"/><path d="M507 194.5c-1.7 2.1.1 3.9 2.9 3 2.7-.8 2.8-4.5.2-4.5-1 0-2.4.7-3.1 1.5zM646.5 194c.3.5 1.3 1 2.1 1s1.2-.5.9-1c-.3-.6-1.3-1-2.1-1s-1.2.4-.9 1zM146.8 195.2c.9.9 1.5.9 2.4 0 .9-.9.7-1.2-1.2-1.2s-2.1.3-1.2 1.2zM658.5 197c.3.5 2.6 1 5.1 1 2.8 0 4.3-.4 3.9-1-.3-.6-2.6-1-5.1-1-2.8 0-4.3.4-3.9 1zM451.5 199.9c-.6 1.1.9 2.3 1.9 1.4.9-.9.7-2.3-.3-2.3-.6 0-1.2.4-1.6.9zM674.5 199.9c-.7 1.2 1.2 2.4 2.5 1.6 1.1-.7.4-2.5-1-2.5-.5 0-1.1.4-1.5.9zM463 202.6c-1.3 3.2-1.3 4.4 0 4.4.6 0 1-.5 1-1 0-.6.6-1 1.4-1 1.6 0 2.9-2.7 2-4.1-1-1.8-3.5-.9-4.4 1.7zM480.1 201.9c-1.6 1.2-2 2.1-1.2 2.5.6.4 1.1 1.8 1.1 3.2 0 2.1.5 2.4 3.4 2.4 1.9 0 3.6-.6 3.9-1.3.3-.8 2.1-2.2 4.1-3.1 4.6-2.2 3.8-3.6-1.9-3.6-2.4 0-4.7-.5-5-1-.9-1.4-1.6-1.2-4.4.9zM500 206.1c0 .5-2.5 2.1-5.5 3.5s-5.3 3-5 3.5c.9 1.4 6.7 1.1 9.9-.6 1.5-.8 4.4-1.5 6.2-1.5 4.3 0 4.3-1.3 0-3.9-3.7-2.3-5.6-2.7-5.6-1zM589.2 206.2c.6 1.8 2.8 2.1 2.8.4 0-.9-.7-1.6-1.6-1.6-.9 0-1.4.5-1.2 1.2zM579.5 208c-.3.5-.2 2.8.1 5.1 1.2 7.1 7.7 11.9 12.4 8.9 1.1-.7.9-1.1-1.3-1.9-1.6-.6-3.3-1.1-3.8-1.1-1.3 0-1.1-1.4.3-2.8.9-.9.9-1.5 0-2.4-.7-.7-1.2-2-1.2-2.9 0-1.9-5.6-4.4-6.5-2.9zM308 209.9c0 1.5 1.6 2.2 3.4 1.5 2.5-.9 1.9-2.4-.9-2.4-1.4 0-2.5.4-2.5.9zM665.4 215.5c.5 6.4 1.6 6.9 1.6.7 0-2.9-.5-5.2-1-5.2-.6 0-.9 1.9-.6 4.5zM476 213.6c0 2-2.8 4.3-5.2 4.4-2.3 0-3.2 1.8-1.8 3.5 1.3 1.6 3.6 1 6.8-1.8 2.3-2.1 3-6.1 1.2-7.2-.5-.3-1 .1-1 1.1zM652 216.5c0 .8.5 1.5 1 1.5.6 0 1-.7 1-1.5s-.4-1.5-1-1.5c-.5 0-1 .7-1 1.5zM594.6 216.9c-.7 1.1 2.3 5.1 3.7 5.1.5 0 .7-1.2.5-2.7-.3-2.8-3-4.3-4.2-2.4zM508.5 218.1c-.4.6.2 1.3 1.4 1.6 3.3.8 2.5 3.1-1.4 3.9-2.6.5-4.1.2-5.4-1-1.7-1.6-8.5-1.7-12.4-.1-1 .4-3.1.8-4.7.9-4.6.2-4.5 1.3.2 2.1 2.4.4 4.8 1.1 5.4 1.6.7.6 1.6.4 2.4-.6 1.7-2.1 4.5-1.9 9 .6 3.6 2 4 2.1 7 .5 1.8-.9 3.8-1.6 4.5-1.6 1.2 0 5.5-4.1 5.5-5.3 0-.4-1.5-.7-3.4-.7-2.1 0-3.6-.6-4-1.5-.6-1.7-3.2-2-4.1-.4zM528.2 221c-1.7 1.6-3.5 3-4 3s-1.7 1-2.8 2.1c-1 1.2-2.9 2.5-4.1 3-1.3.5-2.3 1.3-2.3 1.9 0 1.6 6.6 1.2 8-.5 1.4-1.7 4-2 4-.5 0 2.5 1.8.6 2.9-3 1.2-4.2 2-4.7 3.9-2.8 1.4 1.4 1.6-.1.6-4-.8-3-2.7-2.8-6.2.8zM463 222c0 .5.7 1 1.5 1s1.5-.5 1.5-1c0-.6-.7-1-1.5-1s-1.5.4-1.5 1zM155 223.6c0 1 1.6 1.4 6 1.4 3.3 0 6-.4 6-1 0-1.1-.2-1.1-7.2-1.5-3.5-.2-4.8.1-4.8 1.1zM599.6 226.2c.9 5.1 1.2 5.8 2.9 5.8 1.6 0 2-2.1.8-3.4-.5-.4-.8-1.7-.8-2.9 0-1.3-.7-2.3-1.7-2.5-1.5-.3-1.7.2-1.2 3zM475.5 226.2c-1.1.6-2.4 1.7-2.8 2.5-.4.7-1.4 1.3-2.2 1.3-2.4 0-3.6 3.2-1.7 4.6 1.3 1 1.8.8 2.7-1 .5-1.1 2.9-3 5.2-4.1 4.3-2 5.7-4.5 2.6-4.5-1 0-2.7.6-3.8 1.2zM588.4 227.1c-.3.5.6.9 2 .9 3.1 0 3.4-.6.6-1.3-1.1-.3-2.3-.1-2.6.4zM168.7 230.5c-2.1 14.1-2 15.1 1 17.1 2.2 1.5 5.4 2 15.3 2.6 6.9.3 19.3 1.4 27.5 2.3 8.3.9 18.8 2 23.5 2.5 4.7.4 10.2 1.3 12.3 2 2.9.8 4.6.8 7.3 0 2.6-.9 4.2-.9 6.2-.1 1.5.7 6.6 1.3 11.4 1.4 4.7.1 9.2.8 9.9 1.4 1.7 1.3 17.9 1.7 17.9.4 0-1.2-8.2-2.5-10.8-1.7-1.1.4-2.4.1-3.1-.8-.8-.9-4.7-1.6-12.4-2.1-6.2-.4-11.6-1-12.2-1.4-.5-.3-3.5-.6-6.5-.7-3-.1-11.8-1.1-19.5-2.3-16.1-2.5-25.6-3.7-40.5-5.1-14.9-1.4-18.1-2-21.3-4.2-2.3-1.7-2.7-2.5-2.2-4.8.4-1.9 0-4.1-1.3-6.6l-2-3.8-.5 3.9zM438 228.9c-.7 1.5-.7 2.1 0 2.1 1.2 0 2.5-2.8 1.7-3.6-.3-.3-1 .4-1.7 1.5zM149.7 229.6c-.3.3-.4 1.8-.1 3.3.6 2.8-3.6 11.5-5.9 12.4-3 1.1-29.9-3.2-31-5-.7-1.1-1.2-1.1-2.3-.2-.8.7-3 .9-5.6.5-2.4-.4-5.6-.7-7.3-.7-1.6.1-3.9-.6-5.1-1.4-1.8-1.2-2.3-1.2-3.7.2-1.4 1.4-2 1.4-6.4-.1s-17.3-3-36.3-4.3c-4.1-.3-8.1-.9-8.7-1.5-.8-.6-2.4-.7-4-.2-3.8 1-8.6 1.2-9.8.3-.5-.4-3.9-1.1-7.4-1.7-4.8-.7-7-.6-8.8.3-3 1.6-2.2 2.1 4.2 3 2.8.4 5.5 1.1 6 1.5.6.4 4.4 1 8.6 1.3 4.2.4 8.9 1.1 10.3 1.7 1.5.5 5.8 1 9.6 1s9.7.7 13.2 1.6c4.4 1.2 8.3 1.5 13.1 1 5.9-.5 7.2-.3 9.7 1.4 3.2 2.3 6 2.5 10.7.8 2.7-1 3.8-1 5.5.1 1.2.8 7.6 2 14.2 2.7 22.4 2.4 29.5 3.4 32.1 4.4 4.1 1.6 7.3 1.2 8.5-1 .6-1.2 1-6.1.8-11.7-.2-7.9-.6-9.8-1.8-10.1-.9-.1-1.9 0-2.3.4zM444 236c0 3.2 1.4 4 2.4 1.4 1-2.7.7-4.4-.9-4.4-1 0-1.5 1-1.5 3zM524.3 234.4c.4 1 .7 2.4.7 3.2 0 .8.5 1.4 1.1 1.4 1.5 0 .6-5.3-1-5.8-1-.3-1.2 0-.8 1.2zM680 234c0 .5.9 1 2 1s2-.5 2-1c0-.6-.9-1-2-1s-2 .4-2 1zM486.7 236.7c-.4.3-.2 1.2.3 1.9.8.9.4 1.7-1.5 3.2-2.9 2.3-3.5 5.9-.7 4.7.9-.4 2.9-1 4.4-1.3 4-.6 5.5-2.8 2.9-4.2-1.7-.9-1.9-1.5-1.1-3 .9-1.7.7-2-1.3-2-1.3 0-2.7.3-3 .7zM497 238c-.8 1.6-.8 2 .4 2 .9 0 2-.9 2.6-2 .8-1.6.8-2-.4-2-.9 0-2 .9-2.6 2zM546 239v3.5c0 .3.3.4.7.2 1.1-.3 1.2-6.7.1-6.7-.4 0-.8 1.3-.8 3zM477 238.5c0 1.5 3.8 4.1 4.7 3.2.2-.3 0-1.5-.7-2.6-1.2-2.4-4-2.8-4-.6zM532.6 241.2c-1.9 1.8-3.7 4.3-4.1 5.5-.5 1.9-.1 2.4 2.7 3.1 4.3 1.2 4.9.8 4.1-2.8-.5-2.6-.3-3 1.6-3 1.8 0 2.2-.5 1.9-2.7-.4-3.8-2.2-3.9-6.2-.1zM604 238.8c0 .4.5 1.3 1.2 2 1.8 1.8 2.8 1.5 2.8-.8 0-1.3-.7-2-2-2-1.1 0-2 .4-2 .8zM565.1 242.4c-1.8 1.9-2 2.9-1.3 6.2.8 3.9 1.8 4.4 5.5 2.9 1.6-.7 1.7-.2 1.1 6.1-.3 3.8-1.2 7.4-1.9 8-.8.5-1.6 4-1.8 7.8-.3 4.1-1.1 7.4-2.1 8.5-1.1 1.2-1.4 2.8-1 5.2.4 2.2 0 5-1 7.3-2.3 5.4-2.1 9.8.2 9.4 1.1-.2 2.6.3 3.4 1 2.1 1.7 4.5.6 6.2-2.9 1.3-2.6 1.3-2.9-.5-3.4-1-.4-1.9-1-1.9-1.5s-.9-1.2-2-1.5c-3.7-1.2-2.3-3.5 2-3.5 2.2 0 4-.5 4-1 0-.6-.9-1-2-1-3.1 0-3.6-2.7-.9-4.9 1.7-1.3 2.4-3.3 2.9-7.5.7-6.4 0-8.6-2.3-6.8-1.2 1-1.6.9-2.1-.4-.9-2.3-.8-2.4 1.9-2.4 1.8 0 2.6-.7 3.2-2.8 1.2-4.3.6-11.6-1.1-15-.9-1.7-1.6-4-1.6-5 0-1.1-1.1-2.7-2.4-3.5-2.2-1.5-2.5-1.4-4.5.7zM439.2 243.4c-2.2 1.1-2.5 2.7-.5 3.3.5.2 1.8-.8 2.7-2.2 1.8-2.7 1.4-2.9-2.2-1.1zM512.2 246.2c-3 1.3-4.2 2.4-3.8 3.4.9 2.2-3.4 7.5-5.5 6.9-2.2-.7-3.7 3.1-1.9 4.9.8.8 1.5.7 2.5-.7.7-1.1 1.6-1.4 1.9-.8.4.5 2.4.9 4.6.9 3.5 0 4.5-.6 8.1-4.9 3.2-3.8 3.8-5.2 3-6.6-.5-1-1.2-2.6-1.5-3.6-.7-2.1-2-2.1-7.4.5zM766.5 245c.3.5 1.5 1 2.6 1 1 0 1.9-.5 1.9-1 0-.6-1.2-1-2.6-1-1.4 0-2.3.4-1.9 1zM30 246c0 .5 2 1 4.5 1s4.5-.5 4.5-1c0-.6-2-1-4.5-1s-4.5.4-4.5 1zM615 246.5c-1.4.8-3.5 1.4-4.7 1.5-1.9 0-2.4.7-2.9 4-.4 2.4-1.2 4-2 4-1.7 0-1.7.8.1 4s1.8 4 0 4c-.9 0-4.3-2.9-7.6-6.5-6.7-7.1-9.4-8.3-8.3-3.8.4 1.6 1.3 3.8 2.1 5.1.7 1.2 1.1 2.7.8 3.2-.4.6.3 2.3 1.4 3.8 2.9 4.1 3.6 7.8 1.7 8.5-1.2.5-1.6 2-1.6 5.7 0 3-.7 6.1-1.6 7.5-1.5 2.2-1.5 2.6 0 4 .9 1 1.6 3.4 1.7 5.8.1 3.4.2 3.7.8 1.7.4-1.4 1.7-2.9 2.9-3.5 1.5-.6 2.2-1.9 2.2-3.6 0-3.5 2.8-10.1 4-9.4.5.3 1.2 2.8 1.6 5.5.7 5.3 2.5 6.5 4.4 3 .6-1.1 1.7-2 2.4-2s2.3-1.1 3.6-2.5c2.4-2.6 2.1-3-2.5-3.7-1.3-.2-2.1-1.2-2.3-2.8-.1-1.4-.7-4.9-1.4-7.9-1-4.7-1-5.4.5-6.3 1.3-.7 1.5-1.3.7-2.8-2.4-4.4-.3-8.3 4.5-8.3 1.4 0 3.5.9 4.5 1.8 2 1.8 2.1 1.7 4.6-.6l2.6-2.4-3.8-1.1c-3.3-.9-3.8-1.5-3.9-3.9 0-3.4-1.2-3.9-4.5-2zM553.1 251.1c-2.5 4.8-2.1 5.8 1.4 3.9 1.7-.9 2.5-2.2 2.5-4.1 0-4.4-1.6-4.3-3.9.2zM51 249c2 1.3 5 1.3 5 0 0-.6-1.5-1-3.2-1-2.5 0-2.9.3-1.8 1zM500.1 249.9c-2.2 4-.4 5.5 3.3 2.8 1.6-1.2 1.6-1.4-.3-3.1-1.9-1.7-2-1.7-3 .3zM488.1 250.3c-.9 1.2-.8 1.6.5 2.1 2.8 1.1 5.4.6 5.4-.9 0-.8-.4-1.5-.9-1.5s-1.6-.2-2.4-.5c-.7-.3-1.9.1-2.6.8zM581.5 250c-.7 1.2.2 3 1.6 3 1.2 0 1.2-2.7 0-3.5-.5-.3-1.2-.1-1.6.5zM631.7 249.7c-1.4 1.3-.6 2.3 1.8 2.3 1.6 0 2.5-.6 2.5-1.5 0-1.5-3.1-2.1-4.3-.8zM83 251.9c0 1 4.2 2.3 4.9 1.5.7-.6-2-2.4-3.6-2.4-.7 0-1.3.4-1.3.9zM153 254c0 .6 2.9 1 6.6 1 4.1 0 6.3-.4 5.9-1-.3-.6-3.3-1-6.6-1s-5.9.4-5.9 1zM642.5 255.1c-.7 2.2-3.2 6.1-7.7 12-1.6 2-2.8 4.1-2.8 4.7 0 .6-1.3 3.1-3 5.5-1.6 2.5-3 5-3 5.6 0 .6-.9 2.5-2 4.3-1.1 1.8-2 4-2 4.9 0 1.3-1.4 1.9-5.7 2.5-6.9 1.1-7.9 3-3.4 7 3 2.7 3 2.7 1.1 4.8-1.1 1.2-2.6 3-3.4 4-2 2.9-3.9 1.1-3.1-3 .3-2.1.2-3.4-.5-3.4-.5 0-1 1-1 2.3 0 1.2-.9 3.9-2 6-2.6 4.8-2.7 7.2-.5 12.2 1.5 3.5 1.8 3.8 3 2.2.7-.9 1.7-1.7 2.4-1.7.6 0 1.1-.9 1.1-2 0-2.3-1.5-2.7-2.4-.5-.7 2-3.6 1.9-3.6-.1 0-1.5 4.4-6.9 8.4-10.3 1-.9 2.7-2.4 3.8-3.4 1-.9 2.2-1.7 2.7-1.7 1.7 0 2-4.3.4-5.5-2.4-1.8-.9-4.5 2.6-4.5 2.5 0 3-.5 3.5-3.5.9-4.6 2.4-5.3 3.7-1.6 1.4 4.1 2.5 3.9 3.4-.6.5-2.9.3-4-1.1-5-1.7-1.3-1.7-1.5-.2-4.1 1.4-2.2 2.4-2.7 5.3-2.6 4 .1 4 .2 2-3.6-.9-1.8-1.3-4-.9-5.5.5-2 1.2-2.5 3.9-2.5 3 0 3.3.2 3.8 4.1.5 4-.5 8.7-2.2 9.9-1.4.9-5.1 9.6-5.1 11.8 0 1.3-.6 2.5-1.4 2.8-.8.3-1.7 2.6-2.1 5.1-.5 3.4-1 4.2-1.8 3.4-.6-.6-1.5-1.1-1.9-1.1-1.1 0-1 3.6.1 5.8.5.9 1.2 2.5 1.5 3.4.7 2.4 2.6 2.3 2.6-.2s2.9-4.1 5.2-2.9c1 .5 1.8 1.6 1.8 2.4 0 .8.5 1.5 1 1.5 1.4 0 1.3-5.6-.1-7.8-.8-1.3-.9-2.8-.2-4.8 1.3-3.8 4-4.4 4.9-1 .3 1.4 1.2 2.6 2 2.6 2.1 0 1.7 5.6-.5 7.7-1 1-3 3.7-4.5 6.1-1.5 2.4-3.3 4.5-4.1 4.9-1.9.7-1.9 2.7 0 4.3.8.7 1.5 2.3 1.5 3.6 0 1.8-.5 2.4-2.3 2.4-2.4 0-5.7-4.3-5.7-7.4 0-.9-.4-1.6-.9-1.6s-1.3-1-1.7-2.3c-.3-1.2-1.3-2.9-2-3.7-.7-.8-2.2-2.5-3.3-3.7-1-1.1-1.8-2.9-1.8-4 .1-1.2-.6-1.9-2-2.1-1.3-.2-2.3.2-2.3.8 0 .7-1.4 3-3.1 5.2-2 2.4-2.8 4.3-2.2 4.9.6.6 1.7-.2 3.1-2.1 2.2-2.9 5.2-4.1 5.2-1.9 0 .5-1.3 2.2-2.8 3.7-1.6 1.5-3.2 3.5-3.5 4.4-1.1 3 1.6 2 4.7-1.7 1.6-1.9 3.3-3.5 3.8-3.5 1.9 0 .6 3.9-2.2 6.6-3.5 3.4-3.7 4.7-1 8.1 1.1 1.4 2 3.5 2 4.6 0 1.1.7 2.5 1.6 3.2 1.3.9 1.4 1.6.7 3-.9 1.5-.3 2.8 2.9 6.9 2.2 2.8 4.4 5.2 4.9 5.4.5.2.9.9.9 1.5 0 .7 3.4 4.6 7.5 8.7 6.1 6.1 7.5 8 7.5 10.6 0 2.5-.7 3.4-3.5 5-4.4 2.3-6 1.5-9.3-4.7-1.2-2.4-3.9-6.1-6-8.2-3.5-3.6-3.8-3.7-10.1-3.5l-6.5.3-1.3-4c-.8-2.2-2.2-4.7-3.3-5.7-2.2-1.8-2.7-5.8-.7-5.8.7 0 2 1.8 3 4 1.5 3.6 2.1 4 5.3 4 3.1 0 3.5-.3 3.2-2.2-.4-2.9-11.4-9.6-13-8-.8.8-1.5.7-2.4-.6-1.1-1.6-1.4-1.5-3.8.7-1.4 1.4-2.6 3-2.6 3.8 0 .7-.7 1.3-1.5 1.3s-1.5.6-1.5 1.4c0 .7.7 1.9 1.5 2.6.8.7 1.5 1.8 1.5 2.5s.7 1.8 1.5 2.5 1.5 2.8 1.5 4.6c0 1.9.5 3.4 1.1 3.4.6 0 2.2.9 3.6 2 1.9 1.5 4.1 2 8.5 2 5.7 0 5.9-.1 5.6-2.5-.3-2.7-.1-2.9 2.7-2 4.5 1.4 5 2.2 4.8 6.8-.3 4.4-.1 4.7 4.2 7.7 4.9 3.4 5.7 5.9 2.9 9.8-2.2 3.2-7.6 3-9.8-.3-2.5-3.8-5.7-6.5-11-9.2l-4.9-2.5-1.8 2.3c-1.6 2.2-1.8 2.2-2.5.6-.3-1-1.9-2.4-3.5-3.2-4.2-2.2-5.2-4.7-3.4-8.3 1.5-2.9 1.4-3.1-1.7-6.7-1.8-2-3.3-4.1-3.3-4.7 0-2.5-2.4-1.6-5.9 2.2-2 2.2-3.6 4.5-3.6 5 0 2 3.3.9 5.6-1.8 1.7-1.9 2.4-2.2 2.4-1.1 0 .9-.9 2.4-2 3.4-2.3 2.1-2.7 5.5-.5 5.5 1 0 1.5 1 1.5 3 0 1.6.5 3 1.1 3 .8 0 1 1.2.6 3.5-.3 1.9-.2 3.5.3 3.5s1.7.8 2.7 1.8c1 1 4.4 3.8 7.7 6.2 3.2 2.4 6.4 5.2 7 6.2.6 1 1.6 1.8 2.3 1.8.7 0 1.3.6 1.3 1.4 0 1.8 4.6 6.6 6.3 6.6.7 0 3.3-2.2 5.8-5 4.4-5 5.9-6 5.9-3.8 0 1.8-3.3 8.8-4.2 8.8-1 0-3.9 5.7-4.9 9.5-.8 3.5-2.6 8.6-4.6 13.2-.7 1.7-1.3 4-1.3 5.1 0 1.2-.4 2.3-.9 2.6-.4.3-1.1 2.8-1.5 5.6-.4 2.7-1.1 5-1.6 5-.6 0-1 .6-1 1.4 0 2.1-4.9 7.6-6.8 7.6-1.8 0-4.9 2.3-7 5.1-1 1.3-.9 2.2.3 4.5.8 1.6 1.5 3.7 1.5 4.6 0 .9.4 1.9.9 2.2 1.5 1 2.2 11.1 2.4 38.2.2 21.2-.1 26.4-1.2 27.8-.9 1.1-1.8 1.3-2.4.7-.5-.5-1.1-11-1.4-23.8-.2-12.8-.8-23.2-1.3-23.7-.6-.6-1-7-1-14.3 0-7.3-.4-13.3-.9-13.3-.4 0-2 1.7-3.4 3.7-1.4 2.1-7 8.4-12.5 14-7.2 7.3-9.7 10.4-8.9 11.2 1.8 1.8 3.4 1.3 6-1.9 3.9-4.6 5.7-4 5.7 1.9 0 4.1-.4 5.1-2.5 6.5-2.2 1.4-3.1 1.5-6.8.4-2.3-.6-5.8-2.5-7.7-4-3.9-3.1-6.8-3.6-7.7-1.2-.8 2.2 1 3.6 5.4 4.3 5 .8 5 3.2.1 4.4-3.4.8-3.8 1.2-3.8 4.1 0 5.9 5.6 8.1 6.6 2.6.7-3.3 4.2-6 7.9-6 1.8 0 2.5.5 2.5 1.9 0 1 1.1 3 2.5 4.5 2.1 2.2 2.5 3.7 2.5 8.4 0 3.6-.6 6.6-1.6 8-1.7 2.4-1.6 11.2.1 11.2.6 0 1.1-1.9 1.3-4.2.2-2.4 1-5.1 1.9-6 1.3-1.4 1.5-3.4 1-10.5-.4-4.9-.9-10.6-1.3-12.9-.6-3.7-.4-4.2 1.6-4.7 2.2-.6 2.3-.9 1.7-9.2-.4-7-.2-9.3 1.2-11.6 2.9-5.2 4.7-3.8 5.5 4.3.3 4 .8 9.3 1.1 11.8.6 6.9 1.5 17.6 2 27 .5 8 2 27.6 3 38.5 1 11.2 1.7 15.5 2.6 15.5 1.2 0 1.2-.1 1-15.7-.2-12.7 0-13.4 2.4-17.3 2.3-3.6 5.9-7.6 10.9-11.8 2-1.6 14.8-4.3 16.1-3.3.5.5 2.6 1.1 4.7 1.5 3.4.6 14.1 5.7 16.3 7.7 1.6 1.5 2.5 1 2.5-1.4 0-2.6-4.3-7.1-7.9-8.2-1.3-.4-4-1.4-6-2.3-4.2-1.8-20.7-2.7-21.6-1.2-.3.5-2.8 1-5.4 1-5.2 0-6.1-1-6.1-7.2 0-1.5-.5-3-1-3.3-.8-.5-.7-1.1.1-2.1.8-.9.8-1.8.2-2.7-1.5-1.8-2.4-22.5-1-23 .8-.2.8-1.2-.2-3.3-1.8-3.6-1.5-14.3.5-16.5.8-.8 1.4-2.2 1.4-3 0-1.9 8.1-9.9 10-9.9 1.1 0 1.6-1.6 1.8-6.7.1-5.1.8-7.6 2.5-10.3 1.3-1.9 2.9-5.2 3.6-7.2.7-2.1 1.7-4 2.2-4.3.5-.4.9-1.7.9-3s.5-2.7 1.1-3.1c.6-.3.8-1.6.5-2.9-.3-1.3 0-2.7.8-3.4 1.3-1.1 2.8-5.6 3-9.1.1-.8 1.2-3.7 2.4-6.3 1.8-3.8 2.8-4.8 4.2-4.4 1.5.4 1.8-.1 1.7-2.2-.2-1.9.3-2.7 1.9-2.9 1.1-.2 3.4-2 4.9-4 1.5-2.1 4.5-4.5 6.7-5.4 4.3-1.9 5-3.8 1.3-3.8-3.5 0-4.5-2.9-1.7-4.8 2.9-1.9 2.8-3.6-.5-5.1l-2.7-1.3 2.3-1.7 2.4-1.8-4.7-1.2c-4.7-1.1-5.4-1.9-3.6-3.7 1.5-1.5-.9-5.9-4.3-7.9-2-1.2-2.6-2.2-2.2-3.5.5-1.5-.1-2.1-2.7-2.8-2.4-.6-3.3-1.4-3.3-2.9 0-1.2-.3-2.5-.7-2.9-1.8-1.7-.7-3.4 2.1-3.4 1.7 0 3.3-.5 3.6-1 .3-.6 1.5-1 2.6-1s2.2-.6 2.5-1.4c.3-.8 1.9-1.9 3.5-2.5 1.9-.7 2.9-1.7 2.9-3.1 0-2.3 3.4-4 7.8-4 2.1 0 2.4-.2 1.2-1-.8-.5-2.3-.7-3.2-.4-.9.3-2.1-.2-2.6-1.2-.8-1.4-1.2-1.1-3.1 2-2.3 3.6-7.3 7.1-8.5 5.9-1.2-1.2-.6-5.1.9-5.7.8-.3 1.5-1 1.5-1.5 0-1.7 7.8-12.8 9.4-13.4.9-.4 1.3-1.3 1-2.1-.3-.8.8-3.3 2.5-5.7 3.4-4.6 3.9-6.9 1.7-6.9-.8 0-2.1-.3-3-.6-1.3-.5-1.6.1-1.6 2.9 0 3.7-2.1 6.7-4.6 6.7-.8 0-1.4-1-1.4-2.4s-.4-2.8-1-3.1c-.5-.3-1-2.6-1-5.1 0-4 .2-4.4 2.5-4.4 1.4 0 2.5.4 2.5 1 0 .5.5 1 1 1 3.2 0-1.5-6.9-4.7-7-1.5 0-1.7-3.6-.3-4.5 1.5-.9 1.2-4.3-.4-5.2-1.9-1.1-3.6-4.7-3.6-7.7 0-1.4-.5-2.8-1.1-3.2-.7-.4-.9-2.1-.5-4.5.7-4.1-.8-6.3-1.9-2.8zm-13.7 76.7c.2.7-.3 1.2-1.2 1.2-.9 0-1.6-.7-1.6-1.6 0-1.7 2.2-1.4 2.8.4zm6 2.6c.4 1.8-2.4 5.6-4 5.6-1.8 0-2-3.1-.3-5.6 1.8-2.7 3.8-2.8 4.3 0zM604 350.5c0 1.5-3.3 5.4-4.1 4.9-1.5-.9-1-3.4.6-3.4.8 0 1.5-.5 1.5-1 0-.6.5-1 1-1 .6 0 1 .2 1 .5zm15.9 40.3c.6 1 .7 2.8.4 4-.4 1.9-.1 2.2 2.1 2.2 1.5 0 2.9.7 3.3 1.6.6 1.7-3.3 6.4-5.3 6.4-1.9 0-3.4-3.3-2.7-5.8.5-2 .1-2.2-3.1-2.2-4.1 0-4.4-1-1.5-5.1 2.3-3.3 5.4-3.8 6.8-1.1zM659 254c0 .5.7 1 1.5 1s1.5-.5 1.5-1c0-.6-.7-1-1.5-1s-1.5.4-1.5 1zM110.2 255.2c.6 1.8 2.8 2.1 2.8.4 0-.9-.7-1.6-1.6-1.6-.9 0-1.4.5-1.2 1.2zM16.5 256.1c-2.7.4-7.6.4-10.7.1-5.5-.5-5.8-.4-5.8 1.7s.3 2.2 11.3 2c6.1 0 14.4.4 18.2 1 3.9.6 10.6 1.1 15 1.1 5 .1 8.9.6 10.5 1.5 1.6.9 5.5 1.4 10.5 1.5 4.5 0 10.7.7 13.8 1.5 3.2.8 8.5 1.5 11.9 1.5 5.5 0 15.2 1 40.3 4.1 5 .6 14.9 1.5 22.2 1.9 7.2.5 14 1.3 15.1 1.9 1.2.6 7.4 1.1 14.2 1.1 7.3 0 13 .5 14.3 1.2 2.9 1.5 31.7 2.5 31.7 1 0-2.1-2.3-2.5-14.4-2.4-8.6 0-12.5-.3-13.6-1.2-1-.9-6-1.5-15.3-1.9-8.3-.3-14.3-.9-15-1.6-.6-.6-4.5-1.1-9-1.1-4.3 0-8.8-.5-10-1.2-2.2-1.1-10.2-1.8-20.5-1.7-3 0-6-.5-6.8-1.2-1.1-.9-1.8-.9-3 .1-1.3 1.1-1.6 1-2-.6-.5-1.8-1.6-1.9-14.2-2.2-19-.4-24.6-.7-26.2-1.7-.7-.5-5-.9-9.4-1-4.5-.1-10.6-.9-13.6-1.8s-8.2-1.5-11.5-1.4c-3.3.2-9.8-.4-14.5-1.3-5.2-.9-10.4-1.3-13.5-.9z"/><path d="M538.9 257c-.1.5-.2 1.4-.3 1.8 0 .5-.9 1.6-1.8 2.6-2.7 2.6-2.2 3.9 2.5 6.9 2.6 1.7 3.8 5.7 1.6 5.7-.7 0-.9 1.1-.6 2.7.6 3.3-.2 5-5.4 11.9-2.2 2.8-3.9 5.4-3.9 5.7 0 .4 1.6.7 3.5.7 3.1 0 3.5-.3 3.5-2.5 0-1.8.7-2.8 2.5-3.5 3.4-1.3 5.5-6.5 4.8-11.7-.5-3.5-.2-4.3 1.6-5.2 1.6-.9 1.9-1.8 1.4-4.1-.3-1.8-.1-3 .5-3 1.2 0 2.3 6.4 1.1 6.8-1.2.5-1.1 6.2.1 6.2.6 0 1 .6 1 1.4 0 .8 1 1.6 2.3 1.8 2.5.3 2.5.5.8 12.8-1.1 8.2-1.8 10.7-3.6 13-.7.8-1.8 4.2-2.5 7.4s-2 7.3-2.9 9c-1.2 2.1-1.6 4.6-1.3 7.8.4 5.1 1.1 5.7 3.6 3.3 1.2-1.2 1.3-2.2.5-4.2-.8-2.1-.5-3.7 1.1-7.4 1.1-2.6 2-5.7 2-6.8 0-1.1.8-2.6 1.8-3.3 1.1-.8 1.8-2.8 1.8-5.3.1-2.2.7-6.3 1.4-9 .6-2.8 1.3-5.7 1.4-6.5.1-.8.8-2.8 1.4-4.3.7-1.6 1.2-3.5 1.2-4.3 0-.7.5-3.3 1.2-5.7 1.4-5.5.5-9.7-2.2-9.7-2.4 0-2.5.8-.4 3.1.9 1 1.4 2.5 1.1 3.3-.7 1.8-5 3.1-7.2 2.2-2-.7-1.9-4 .1-5.6 1-.9 1.4-2.6 1.2-4.9-.3-3.6-.3-3.6-4.7-3.3-2.7.2-4.9.9-5.6 1.9-.7 1-1.9 1.4-2.9 1-2-.8-2.1-5.3-.1-6.1.8-.3 1.5-1.2 1.5-2.1 0-1.6-2.9-2.1-3.1-.5zM129.5 258.5c2.1 1.7 3.7 1.5 4.3-.3.2-.8-.8-1.2-3-1.2-3.1.1-3.2.1-1.3 1.5zM304.7 259.7c-1.6 1.6 5.6 4.2 12.7 4.7 6.9.4 7.6.3 8.2-1.6.8-2.8-1.4-4.9-2.7-2.6-1.3 2.3-9.2 2.4-13.3.3-3.2-1.7-4-1.8-4.9-.8zM524.2 263.1c-2.3 2.3-4.2 4.6-4.2 5.1 0 .6-.7.5-1.5-.2-1.1-.9-1.9-1-2.6-.3-.7.7.1 1.3 2.6 1.7 3.2.6 4.2.4 6.7-2.1 3.8-3.6 5.3-6.2 4.1-7.4-.6-.6-2.6.6-5.1 3.2zM581.3 260.6c-.9 2.3 2.2 10.9 4.1 11.2 2.1.4 2.2-4.5.1-7.2-.8-1.1-1.5-2.8-1.5-3.8 0-2.2-1.8-2.4-2.7-.2zM623.4 261.5c-.9 3.6.6 4.9 3.9 3.4 2.8-1.3 3.7-4.9 1.3-4.9-.8 0-2.1-.3-3-.6-1.1-.4-1.7.2-2.2 2.1zM653 261c.6 1.1 1.7 2 2.4 2 .8 0 1.9.7 2.6 1.5 1.4 1.7 7 2.1 7 .5 0-1-4.3-3.3-6.5-3.5-.5 0-1.4-.3-2-.6-.5-.3-1.8-.9-2.8-1.2-1.5-.6-1.6-.4-.7 1.3zM558 261c0 .5.7 1 1.5 1s1.5-.5 1.5-1c0-.6-.7-1-1.5-1s-1.5.4-1.5 1zM158.1 262c-1.6.9-.6 3 1.5 3 1.5 0 2-2.5.6-3.4-.4-.2-1.4-.1-2.1.4zM173 264c0 .5 1.5 1 3.4 1s3.8-.5 4.1-1c.4-.6-1-1-3.4-1-2.3 0-4.1.4-4.1 1zM185.2 266.2c.3.7 1.3 1.5 2.2 1.6 1.2.3 1.7-.1 1.4-1-.3-.7-1.3-1.5-2.2-1.6-1.2-.3-1.7.1-1.4 1zM614.7 265.6c-.3.3-.3 1.2 0 2 .4 1 1 1.1 2.5.3 1.7-.9 1.8-1.3.7-2-1.7-1-2.4-1.1-3.2-.3zM695.5 266c-.3.5.6 1.2 2 1.6 2.9.7 4.1.1 3-1.5-.8-1.4-4.2-1.4-5-.1zM348 267.3c0 .7-1.7 3.1-3.9 5.3-2.1 2.1-4.1 5-4.4 6.4-.8 3.3-8.2 5.7-10.7 3.5-2-1.8-6.8-.8-8.1 1.6-.7 1.5-2.1 1.9-5.9 1.9-2.7 0-6.4.6-8.2 1.4-5.2 2.1-9.5 3.6-20.6 6.9-8.8 2.6-10.5 3.5-11.8 5.8-.9 1.8-1.9 2.6-2.9 2.3-.9-.4-1.5 0-1.5.9 0 1.7-4.5 4.9-7.1 5.1-2.1.1-6.9 6.2-6.9 8.6 0 .9-.4 2-.9 2.6-.5.5-1.1 2.2-1.3 3.9-.3 3.3-.7 3.4-10.8 1.6-3-.5-9.4-1-14.2-1-4.8-.1-9.7-.5-11-1-1.3-.5-5.7-1.2-9.9-1.5-4.1-.3-11-1.2-15.4-2.1-4.4-.8-12-1.5-16.8-1.5-6.5 0-9.4-.4-11.3-1.6-2.2-1.5-4.4-1.6-16.7-1-11.2.5-15.4.3-20.1-.9-3.2-.9-8.7-1.7-12.2-2-3.4-.2-7.1-.8-8.1-1.3s-3.8-1-6.3-1.1c-2.5 0-13.7-1-25-2.1s-23-2.2-26-2.5c-3-.2-12-1.2-20-2-8-.9-18-1.9-22.2-2.2l-7.8-.6v6.2l9.8.4c5.3.2 14.4.9 20.2 1.6 26.7 3 37.8 4.1 42 4.1 2.5 0 9 .7 14.5 1.5s15.6 1.8 22.5 2.2l12.5.8.3 5c.2 2.7-.1 9.9-.8 16-.6 6-1.5 24.3-2 40.5-1.2 41.3-2.8 63.2-4.6 64.6-1.9 1.5-.8 4.2 1.9 4.6 1.5.2 2.3 1.1 2.5 2.8.6 4.6 1.1 5.4 2.7 4 2.3-1.9 4-8.6 2.7-10.3-1.6-1.9-.5-2.7 3.4-2.7h3.2l.5-6.8c1.1-16.9 2.9-38.9 4.2-51.7.8-7.7 1.5-19 1.5-25 0-13.3 2-37.6 3.2-39 1.1-1.2 17.4-.6 20.7.8 1.4.6 6.9 1.4 12.1 1.7 5.2.4 12.2 1.2 15.5 1.8 9.5 1.8 23.1 3.4 34.5 4.2 5.8.5 12.3 1.3 14.5 1.9 2.2.6 6.2 1.1 8.9 1.1h4.9l-.7 3.2c-1 5.1-2.4 6.1-7.6 5.4-2.5-.3-11.4-1.2-19.8-2.1-8.4-.8-15.7-1.7-16.2-2-.5-.3-5.1-1-10.2-1.5-10-.9-19.9-2.1-37.1-4.6-6-.9-11.3-1.2-11.7-.8-.5.5-1.1 2.5-1.5 4.5-.6 3.4-.5 3.7 2.7 4.8 1.8.6 6.7 1.4 10.8 1.7 4.1.3 10 .9 13 1.5s10.2 1.3 16 1.7l10.5.7v3c0 2.9-.2 3-4 2.8-2.2-.1-5.6 0-7.5.3-3 .5-3.2.7-1.6 1.6 1 .6 3.8.8 6.1.6 2.3-.3 5-.1 5.9.4 2 1.1 2.1 4.6 0 6.9-1.3 1.4-1.3 2.2-.4 3.9.9 1.7.9 2.9 0 5-1.1 2.7-.5 9.4 1 11.5.4.5 1 3 1.2 5.5.4 3.6 0 5-1.8 7.3-1.3 1.5-2.6 4.7-3 7.2-.3 2.5-1 4.5-1.5 4.5s-1.8.9-2.9 2c-2.5 2.5-3.9 2.6-3.4.2.2-.9.5-5.3.7-9.6.3-7.9.3-8 3.3-8.8 2-.5 3.3-1.7 4.1-3.9.7-1.8 1-3.6.7-4-.3-.5-3.8-.9-7.7-.9-4.3-.1-8.2-.6-9.7-1.5-1.7-1-5.8-1.4-13.2-1.5-5.9 0-11.9-.5-13.4-1-1.5-.6-3.1-.7-3.5-.3-2.2 2.2 1.5 3.2 15.1 4.2 21.2 1.6 21 1.5 21 6.2 0 2.8-.1 2.9-5.4 2.9-4.3 0-5.6-.4-6.7-2.1-2.4-3.5-14.4-5.2-17.3-2.4-1 1-3.5 1.5-7.5 1.5-3.4 0-6.1.4-6.1.9 0 1.4 2.7 2.1 7.6 2.1 4.3 0 4.5.1 4.2 2.7-.2 1.7-1.2 3.2-2.8 4-1.5.8-1.9 1.3-.9 1.3.8 0 2.4.6 3.4 1.4 1.8 1.3 1.8 1.4-.3 4.3-1.9 2.6-2 3.2-.7 4.9 1.3 1.9 1.4 1.9 2-.1.4-1.1 1.1-2.9 1.6-4s1.3-3.3 1.9-4.9c.9-2.6 1.3-2.8 4.8-2.2 8.7 1.3 11.2 1.9 11.2 2.6 0 .4 2.1 1 4.6 1.3 5.3.6 6.8 1.7 5.9 4.5-.5 1.7-1.6 2.2-5.6 2.4-6.2.4-6.8 2.1-.9 2.8 3.4.4 4.7 1 5.5 2.7.5 1.3 1.7 2.3 2.5 2.3 1.9-.1 5.4-2.9 6.8-5.6.6-1.2 2.7-4.1 4.7-6.5 2-2.4 4.3-5.3 5.2-6.4.9-1.1 2.3-2.8 3.2-3.8 1.4-1.7 1.4-2-.1-3.1s-1.6-1.7-.5-3.9c1.2-2.7 5-3.7 6.2-1.7 1.4 2.2 3.9.7 11.5-6.9l8-7.8 5.1.9c5.9 1.1 7.9.6 7.9-1.9-.1-2.2-8.6-7.6-10.3-6.6-.7.4-6.5.6-13.1.5-9.5-.3-11.7-.1-11.4 1 .3.9 3 1.4 9.1 1.6 9.3.3 10.4 1.1 7 5-1.6 1.7-2.7 1.9-10.8 1.3l-9-.6.3-3c.1-1.7.2-5.6.2-8.7-.1-4.3.3-5.9 1.6-6.6 1.1-.6 1.3-1.1.5-1.6-1.7-1.1-1.3-3.4.7-4 1-.3 5.4-.1 9.7.5 4.4.6 10.3 1.4 13 1.8 4.1.5 5 .9 5 2.6 0 1.9-.5 2-11.2 1.6-7.1-.2-11.3.1-11.3.7 0 1.7 2.9 2.2 12.8 2.2 6.6-.1 10.3-.5 11.5-1.4 1-.8 2.6-1.2 3.6-.9 2 .5 10.1-7.7 10.1-10.2 0-.8.4-1.5 1-1.5.5 0 1.3-1.2 1.6-2.8.8-3.2 5.7-10.7 9.3-14.1 6.5-6.2 14.9-6.7 25.2-1.6 7.6 3.8 9.9 4.3 9.9 2.2 0-2.6-9.1-8-16.2-9.6-5.4-1.2-12.5.6-17 4.4-2.1 1.8-4 2.5-6.1 2.3-3.4-.3-5-2.8-1.8-2.8 1.1 0 2.3-.5 2.6-1.1.4-.5 1.7-1.5 2.8-2 1.2-.5 3.6-1.8 5.2-2.8 1.7-1.1 5-3 7.5-4.2 2.5-1.3 4.8-2.6 5.1-3.1.8-1.2 8.1-4.8 9.9-4.8.8 0 2.4-.7 3.4-1.5 1.1-.8 3.2-1.5 4.6-1.5 1.4 0 3-.4 3.6-.9.5-.4 3.3-1.7 6.2-2.7 4.3-1.5 5.7-1.6 7.2-.6 2.7 1.6 6.5 1.5 8-.3 1.9-2.3 6.6-1.8 9.6 1 2.3 2.1 3.2 2.4 7.3 1.8 6.3-.8 7.1-1.6 6-6.1-.5-2-.9-6.1-.9-9V276l8.8.6c4.8.4 9.5 1.1 10.4 1.5.9.5 3.9.9 6.7.9h5.1v5.4c0 3-.4 5.8-1 6.1-.5.3-1 1.9-1 3.5 0 2-.6 3.1-2 3.5-2.5.8-2.6 4.2-.4 7.4.9 1.3 1.7 4.2 1.6 6.5 0 2.2.6 5 1.2 6.1 1.7 2.7 2.9 7.2 3.2 12 .3 5.7 1.5 10.8 2.8 12.5 1.8 2.3 3.6 6.8 3.6 9.3 0 1.2.9 3.3 2 4.7 1.1 1.4 2 3.4 2 4.5s.7 3.3 1.5 4.9c.8 1.5 1.5 3.6 1.5 4.5 0 .9 1.6 4.7 3.5 8.6 1.9 3.8 3.5 7.8 3.5 8.8 0 1.1.6 1.7 1.3 1.5.7-.3 1.2-2.3 1.3-4.8.1-3.3.6-4.7 2.2-5.8 2.5-1.6 3-6 1-8.1-1.1-1-1-1.5.5-2.5 2.5-1.9 2.1-3.4-2.4-8.5-4.6-5.2-4.3-4.9-10.9-13.7-6.2-8.2-6.7-10.2-1.4-6.8 1.3.9 2.7 1.4 3 1.2.6-.7-3.2-7.6-5.7-10.4-1.8-2-2.7-6.5-1.1-6.3.4 0 3.6 3.5 7.2 7.7 3.6 4.1 8.2 9.2 10.3 11.1 13.2 12.2 23.5 23 24.8 25.8.8 1.9 2.1 3.3 3.1 3.3 2.2 0 2.4-3.3.3-5-.8-.7-1.5-1.8-1.5-2.6 0-1.5-3.9-9-6.9-13.2-1.1-1.7-2.1-3.5-2.1-4.1 0-1.7-3.3-8.1-4.2-8.1-1.1 0-1 3.3.2 6.6 1.3 3.4.6 4.1-2.5 2.4-3.9-2.1-9.4-7.7-13-13.4-1.8-2.8-5.4-7.1-8-9.5-2.6-2.4-5.6-6.3-6.7-8.7-1.7-3.9-1.7-4.9-.7-7.9.7-1.9 1.9-3.5 2.6-3.5 2 0 1.6-2-1.1-5.4-1.3-1.7-2.6-4.1-3-5.4-.9-2.6-2.6-2-2.6.9 0 2.4-1.6 2.5-2.9 0-.8-1.5-.4-2.6 1.9-5.6 2.4-3 2.8-4.1 1.9-5.2-.9-1-.8-1.8.5-3.2 2.1-2.3.9-3.3-3.6-2.9-3.2.2-9.8-3.4-9.8-5.4 0-.4-1.3-.5-2.9-.2-2.3.5-3 .2-3.3-1.2-.2-1.5-1.4-1.8-6.7-2-3.5-.2-6.8-.7-7.4-1.3-1.5-1.5-2.7-1.4-2.7.2zm34.8 48.8c.2 1.3.9 3 1.4 3.7 1.7 2 .3 2.4-1.5.5-2.2-2.6-3.4-7.7-1.6-7.1.8.3 1.6 1.5 1.7 2.9zm-163.4 57.5c2.7 1 1.8 2.9-2.5 5.3-3.5 2-4.4 2.1-6.9 1.1-3.3-1.4-4.5-3.7-2.9-5.6 1.2-1.4 9.3-1.9 12.3-.8zm-53.6 15.1c.2.8-.5 1.3-1.7 1.3s-2.1-.6-2.1-1.6c0-1.8 3.1-1.5 3.8.3zm15.3 2.3c3.8 0 4 .2 3.7 2.7-.3 2.6-.7 2.8-5.5 3.1-4.9.3-5.3.1-5.9-2.2-.7-3 .3-4.9 2.3-4.2.8.3 3.3.6 5.4.6zM500.6 267.5c-3.3 2.5-.7 3.8 5.6 3l5.3-.8-4-1.8c-4.9-2.2-4.6-2.1-6.9-.4zM705 267c2 1.3 4 1.3 4 0 0-.6-1.2-1-2.7-1-2.2 0-2.5.2-1.3 1zM713.5 267c-.3.5.3 1 1.5 1s1.8-.5 1.5-1c-.3-.6-1-1-1.5-1s-1.2.4-1.5 1zM204.5 268c.3.5 1.3 1 2.1 1s1.2-.5.9-1c-.3-.6-1.3-1-2.1-1s-1.2.4-.9 1zM222.8 268.7c-1 .2-1.8.9-1.8 1.4 0 1.7 2.7 2.1 7.1.8 4.1-1.1 4.2-1.3 1.9-2-2.8-.8-4.7-.9-7.2-.2z"/><path d="M528.6 272.5c-2.4 2.5-4.8 4.5-5.4 4.5-2.2 0-1.2 2 1.4 3 3.7 1.4 4 1.3 5.4-2 .7-1.7 1.6-3 2-3 1.6 0 4-3.1 4-5.1 0-3.2-2.9-2.2-7.4 2.6zM372.5 270c.3.5 1.5 1 2.5 1s2.2-.5 2.5-1c.4-.6-.7-1-2.5-1s-2.9.4-2.5 1zM619 270.9c-1.4.4-2.5 1.2-2.4 1.9.1.7.2 1.9.3 2.7.2 2.3 3.3 1.8 5.9-1 3.6-3.7 2-5.2-3.8-3.6zM234 272c0 .5 1.1 1 2.5 1s2.5-.5 2.5-1c0-.6-1.1-1-2.5-1s-2.5.4-2.5 1zM753.5 272c-.3.5.3 1 1.4 1 1.2 0 2.1-.5 2.1-1 0-.6-.6-1-1.4-1-.8 0-1.8.4-2.1 1zM267 275.7c.8.3 2.1 1 2.8 1.6.8.7 1.2.5 1.2-.7 0-1.1-.8-1.6-2.7-1.5-1.6 0-2.2.3-1.3.6zM504 276c0 1.3 1.1 1.3 3 0 1.2-.8 1.1-1-.7-1-1.3 0-2.3.4-2.3 1zM435.5 276.9c-1.1.5-2.9 1.8-3.9 3-1.1 1.1-2.7 2.1-3.7 2.1-2.1 0-9.2 7.1-8.1 8.1.4.4 2.1 1 3.8 1.3 2.8.6 3.2.4 3.8-1.8.3-1.3 2.9-4.3 5.8-6.6 4.9-3.9 5.3-4 6.5-2.3.7 1 1.7 2.4 2.3 3 1.3 1.5 11.4 1.8 10.5.3-.3-.6-1.9-1-3.4-1-1.7 0-4.2-1.3-6.7-3.5-4.3-3.8-4-3.7-6.9-2.6zM490.2 277.3c-2.4 1.4-2 2.7 1 2.7 1.1 0 1.8-.7 1.8-2 0-2.3.2-2.3-2.8-.7zM282 277.9c0 1 3.6 2.1 4.4 1.4.3-.3.3-1 0-1.4-.7-1.2-4.4-1.2-4.4 0zM295 278.9c0 .6.5 1.3 1.2 1.7 2.7 1.7-8.7 3.3-19.8 2.9-6.9-.3-11.5-.1-11.9.5-.8 1.3-1.7 1.2 18.4 1.5 9.6.2 18.5-.1 19.8-.6 3-1.1 2.9-3.3-.2-5.3-2.6-1.7-7.5-2.2-7.5-.7zM509.6 281.4c-6.3 3.1-7.1 4-5.2 5.6 2.1 1.7 4.4.6 4.8-2.2.3-2 .8-2.3 3.7-2 4.9.4 6.7-.4 5.1-2.3-1.6-2-2.6-1.9-8.4.9zM231 280.8c0 1.5 9 2.4 19.5 2 14.3-.5 10.8-2.2-5.2-2.6-9.3-.3-14.3 0-14.3.6zM518.3 287.5c-.3.9-.3 1.9.1 2.2 1.2 1.2-3.7 5.3-7.1 5.9-3.8.7-3.5 2 .7 2.9 1.7.4 3 1.1 3 1.7 0 1.5 4.1-3.2 6.3-7.2 2.1-3.9 2.2-5.6.1-6.4-2.2-.8-2.4-.8-3.1.9zM659 287c0 .5.7 1 1.5 1s1.5-.5 1.5-1c0-.6-.7-1-1.5-1s-1.5.4-1.5 1zM113.4 289.1c-.3.6-.1 1.6.5 2.2.8.8 1.1.5 1.1-1.1 0-2.4-.5-2.8-1.6-1.1zM495 289.5c-1.5 1.8.1 2 1.8.3.8-.8 1.5-.8 2.6.1.8.7 1.7.8 2 .3.3-.6-.4-1.2-1.7-1.6-3.1-.8-3.3-.8-4.7.9zM664.1 289.4c-.8.9-1.1 1.9-.7 2.3.9.9 2.9-1.3 2.4-2.7-.2-.8-.8-.7-1.7.4zM357.5 292.2c-6.5 2.2-7.6 2.9-7.3 4.1.8 2.1 6 1.9 11-.4 4.7-2.2 6.2-3.9 3.4-3.9-.8 0-2-.2-2.8-.4-.7-.2-2.6.1-4.3.6zM587.5 295.3c-.8 3 .6 5.4 2.4 4.3 1.5-1 1.4-2.8-.3-5.2-1.4-1.8-1.5-1.8-2.1.9zM525 296c-.8.5-1.2 1.2-.8 1.5.8.8 5.8-.5 5.8-1.6 0-1.2-3.1-1.1-5 .1zM782 296c0 .5.6 1 1.4 1 .8 0 1.8-.5 2.1-1 .3-.6-.3-1-1.4-1-1.2 0-2.1.4-2.1 1zM499 297c0 .5 1.6 1 3.5 1s3.5-.5 3.5-1c0-.6-1.6-1-3.5-1s-3.5.4-3.5 1zM441.5 299c-.4.6.4 2.4 1.8 3.8 3 3.1 4.7 10.5 2.7 11.7-1.7 1-3.5-1.4-5.1-7.1-1-3.2-1.8-4.4-3.3-4.4-1.7 0-1.8.5-1.3 6.7.9 8.8 2.9 11.7 8.6 12.1 4.9.4 7.4-1.2 6.5-4-.9-3 .5-8.8 2.2-8.8 1 0 1.3-.7.8-2.5-.4-1.8-.1-2.7 1-3.1 1.6-.6 1.5-.8-.2-2.4-2.3-2.1-12.7-3.6-13.7-2zM539.2 301.2c-.7.7-1.2 2.2-1.2 3.5 0 1.3-.4 2.3-1 2.3-.5 0-1-.7-1-1.5s-.4-1.5-1-1.5c-1.4 0-1.2 1.7.5 4.4 1.5 2.2 1.2 5.6-.5 5.6-2 0-1.7 3.2.6 5.5 3.5 3.5 4.5 3.2 3.8-1.5-.5-2.9-.2-4.3 1-5.5 1-1.1 1.6-3.4 1.6-6.5 0-5.1-.9-6.7-2.8-4.8zM627 301.9c0 1.2.5 2.1 1 2.1.6 0 1-.6 1-1.4 0-.8-.4-1.8-1-2.1-.5-.3-1 .3-1 1.4zM721 302c2 1.3 4.3 1.3 3.5 0-.3-.6-1.6-1-2.8-1-1.8 0-1.9.2-.7 1zM578.8 302.6c-.5.4-.8 2.3-.8 4.3 0 2.5.3 3.2 1.1 2.4.6-.6.9-2.5.7-4.3-.2-1.7-.6-2.8-1-2.4zM590.9 304.4c-.7 1.4-.8 3.3-.5 4.3.7 1.7.8 1.7 2.2-.1 1.6-2.3 1.8-5.2.4-6.1-.5-.3-1.5.5-2.1 1.9zM563.6 307.9c-.8 1.3.4 4.2 1.5 3.5 1.2-.7 1.2-4.4 0-4.4-.6 0-1.2.4-1.5.9zM661.2 307.9c-2 1.2 1.4 3.5 5.4 3.7 3.9.1 4.3-.9 1.2-3-2.5-1.8-4.6-2-6.6-.7zM458 308.9c0 1 3 2.4 3.7 1.7.3-.3.2-.9-.2-1.5-.8-1.3-3.5-1.5-3.5-.2zM585 309.6c0 .9.5 1.4 1.2 1.2 1.8-.6 2.1-2.8.4-2.8-.9 0-1.6.7-1.6 1.6zM569.4 310.1c-.3.6-.1 1.6.5 2.2.8.8 1.1.5 1.1-1.1 0-2.4-.5-2.8-1.6-1.1zM757.5 314c.3.5 2 1 3.6 1 1.8 0 2.8-.4 2.4-1-.3-.6-2-1-3.6-1-1.8 0-2.8.4-2.4 1zM699.3 314.7c2.6.2 6.8.2 9.5 0 2.6-.2.4-.3-4.8-.3s-7.4.1-4.7.3zM567.3 320.7c.1 3.2.7 5.8 1.2 5.7 1.3-.1 6.4-7.5 6.5-9.3 0-.9-.7-1.1-2.4-.7-1.4.3-2.8.2-3.1-.4-1.5-2.5-2.4-.5-2.2 4.7zM0 320.4c0 4.3.1 4.4 4.3 5.5 2.3.6 8 1.3 12.7 1.5 4.7.3 8.6.5 8.8.5.1.1.2 1.1.2 2.4 0 1.6-1 2.8-3.2 4-1.9.9-2.6 1.6-1.7 1.6 2.9.2 4.1 2.6 2.7 5.6-1 2.3-1 2.9.5 4 1.8 1.3 2.3 6 .8 7-1.4.8 1.4 5.7 4.1 7.2 1.3.7 4.2 1.2 6.6 1.3 3 0 4.2.4 4.2 1.4 0 1.1 1.6 1.4 7.3 1.3 3.9 0 9.7 0 12.7.1 12.3.3 14 .2 14-.7 0-1.2-14-2.2-23.8-1.6-7.3.4-8.4.3-10.3-1.6-1.5-1.5-1.9-2.8-1.4-4.9.5-2.3.2-3.1-1.4-4-1.7-.8-2.1-2-2.1-5.7 0-4.2.2-4.5 2.3-3.9 1.2.3 4.7.9 7.7 1.2 5.2.5 5.4.4 3.5-1.1-1.2-.9-2.9-1.4-4.3-1-4.6 1.1-8.3-3.5-4.9-6.3 1.3-1.1 12.9-.4 28.7 1.7 4.1.6 13.2 1.1 20.2 1.1H101l.6 2.5c.3 1.4.1 3.1-.5 3.8-.7.9-.7 2.3.1 4.9 1.9 6.4 1.2 6.9-10.4 6.6-9.6-.3-10.3-.4-11.4-2.6-1.2-2.4-1.3-2.4-17.9-2.2-16.8.1-21.9 1-19.6 3.3.8.8 7.2 1.4 17.9 1.7 9.2.3 17.4.9 18.2 1.5.8.5 6.2 1.2 12 1.5l10.5.5.3 3.7c.2 2 .9 4.1 1.5 4.6 1.7 1.5 1.3 74.2-.4 75.3-.7.4-1.2 3.2-1.3 6.5l-.1 5.9-6.8.5c-5.7.4-7.1.9-8.8 3-1.7 2.2-1.9 3.5-1.4 10 .7 9.8.2 10.5-6.7 9.5-2.9-.4-6.8-.8-8.5-.8-3.3 0-3.3-.1-3.3-4.8 0-5.5 1.6-6.6 7.7-5.4 4.1.7 7-1 5.2-3.1-.6-.8-1.7-1.4-2.4-1.4-.8 0-2-1.4-2.9-3-.8-1.7-1.4-3-1.3-3 .1 0 1.7.4 3.5 1 4 1.1 7.2-.4 7.2-3.4 0-1.8-.1-1.8-1.9-.2-1.6 1.5-1.9 1.5-3.1.1-.7-.9-2.9-1.5-5.1-1.5-3.3 0-4.1-.4-4.9-2.4-.8-2.3-1.1-2.4-5-1.2-2.3.7-4.1 1.5-4.1 1.9.1.4.1 1.1.1 1.6s1.3 1.2 2.9 1.6c2.1.4 3.3 1.5 4 3.6 1.1 3.1.5 8.5-1 9.5-1.4.8-1.1 9.8.4 11.3 1 1 .8 1.6-1 2.8-1.3.9-2.3 1.9-2.3 2.3 0 1.1 4.8 3 7.5 3 5.6 0 7.2 3.5 3.9 8.5-2.1 3.2-1.1 4.5 3.8 4.5h4l-.6 3.4c-.5 2.5-.3 3.5.9 4 1.6.6 2.1 3.6.6 3.6-.5 0-.9 3.2-.9 7.1-.1 5.6-.5 7.6-2 9.3-1.1 1.1-2.2 3-2.6 4.1-.3 1.1-2.6 4.3-5.2 7l-4.5 5-7.9-.2c-8.9-.3-10 .4-10 7.1 0 1.9-.4 4.6-1 6-1.1 3.1-8.3 7.9-15 10.1-2.6.9-5.8 2.7-7 4-1.3 1.4-2.7 2.5-3 2.5-.4 0-1.9-1.9-3.4-4.3-2.6-4-7.3-7.8-11.3-9.1-1-.4-2.7-1.8-3.7-3.3-1.9-2.6-1.9-2.9-.3-10.9 1.7-8.3 2.4-31 .9-32.9-.4-.6-1.4-1.6-2.3-2.3-1.6-1.2-1.7-.3-1.4 11.5.2 7 .7 13.7 1.1 14.7.5 1.3.3 2.1-.4 2.4-.9.3-1.2 4.6-1.2 14.8C0 566.3.1 567 2 567c1.1 0 2 .4 2 1 0 .5 1.7 2.1 3.7 3.4 2.1 1.3 5.3 3.9 7.1 5.7 2.8 2.7 4 3.3 7 3 2-.2 4.5-.9 5.6-1.7 1.1-.8 3.1-1.4 4.3-1.4 1.7 0 2.3-.6 2.3-2 0-2.9 4.4-7 7.4-7 1.6 0 3.2-.9 4.1-2.4.9-1.4 3.1-3 4.8-3.6 2.9-1 3-1.2 1.5-2.4-1.4-1.1-1.6-2.1-.9-5.7.8-4.3.8-4.3 2-1.9 1 2.1 2 2.5 6.1 2.7 4.4.2 5.2-.1 7.8-3.1 2.9-3.3 8.6-5.4 9.7-3.6 1.5 2.4 2.3.4 2.7-7.2.3-5 1-8.4 1.7-8.6.6-.2 1.8-1 2.5-1.8.8-.8 1.7-1.4 2-1.4.2 0 .2 3.3-.1 7.4-.6 7.9.1 12.6 1.8 12.6.7 0 .9-1.5.5-4.3-.3-2.3.1-6.4.8-9.2 1.5-5.3 1.2-5.2 8.4-3.9l3.2.7v-7.4l.1-7.4 4.7-3.5c8.5-6.3 10.2-8.8 10.2-14.7 0-4.2.4-5.5 2-6.5 1.7-1.1 2-2.4 2-8.6 0-5.3.5-8.3 2-11.2 3.2-6.3 2-11.2-1.9-7.6-3.3 3-4.5.8-1.5-2.6 1.6-1.7 1.5-1.9-1.9-3.3-3.1-1.3-4-1.3-7.2.1-2 .8-3.9 2.2-4.2 3-.7 1.9 1.2 4.1 2.1 2.5 1.3-2 5.3-1.2 7 1.4 2.4 3.6 2.1 6.5-.6 6.2-1.7-.1-2.7.6-3.7 3.1-1.1 2.4-2.1 3.2-3.5 3-1.7-.2-2.2-1.1-2.4-5.1-.2-3.3-.7-4.7-1.8-4.7-1.7 0-1.7.5-.3 2.9.9 1.4.8 2.5-.4 5.1-1.5 2.9-1.5 3.5-.2 5.3 2 2.9 1.9 3.6-1 4.7-3.4 1.3-3.1 3.7.5 4.5 3.2.7 5 3 5 6.3 0 2.5-2.1 3.3-5.7 2.3-1.6-.5-4.2-.6-5.9-.4-1.8.3-3.5-.1-4.2-.9-1.2-1.5-.6-5.8.9-5.8 1.2 0 3-7.5 2.3-9.3-.3-.8-.1-1.8.5-2.2.6-.3 1.1-1.7 1.1-3.1 0-1.4 1.1-4 2.4-5.7 1.3-1.8 2.7-4.7 3.1-6.4.3-1.8 1.1-3.5 1.5-3.8.5-.3.7-2 .3-3.7-.4-2.2-.2-3.4.9-4.2.9-.7 1.8-2.3 2-3.6.2-1.7 1-2.6 2.6-2.8 1.2-.2 2.7-1.3 3.3-2.4 1.1-2 .6-2.9-2.2-4-.4-.2-.2-7.3.3-15.8.6-8.5 1.2-29.2 1.3-46 .2-16.8.8-31.6 1.3-33 .5-1.4 1.1-6.8 1.3-12l.4-9.5-12-.6c-14-.8-34-2.5-44-4-3.9-.5-13.5-1.4-21.5-2-8-.5-17.9-1.4-22-1.9-13.3-1.6-13-1.7-13 3.4zm92 153c0 2.6-.5 3.5-2.1 3.9-1.8.5-2 .2-1.5-1.6.3-1.2.6-3 .6-4 0-.9.7-1.7 1.5-1.7 1 0 1.5 1 1.5 3.4zm25 9.6c0 1.5-5.1 4.9-6.6 4.3-.8-.3-1.4-1.9-1.4-3.9 0-4.5 3.6-6.3 6.3-3.2.9 1.1 1.7 2.4 1.7 2.8zm-29-.5c0 .8-.9 1.5-2 1.5-2 0-2.6-1.1-1.3-2.3 1.2-1.3 3.3-.7 3.3.8zm-1.2 4.7c1.7 1.7 1.5 4.5-.4 5.2-4.4 1.7-6.9-1.1-3.9-4.4 2.1-2.3 2.7-2.4 4.3-.8zm2.4 15.1c2.2.8 1.3 3.7-1.2 3.7-2.2 0-3.6-1.7-4.5-5.3-.4-1.5-1.1-2.7-1.7-2.7-.5 0-.6-.5-.3-1.1.4-.6 1.7.1 3.4 1.9 1.4 1.6 3.4 3.1 4.3 3.5zm12.7 3.6c2.1 1.3-1.5 8.4-4 7.8-1-.3-2.3.1-3 .9-.6.8-1.9 1.4-2.8 1.4-.9 0-2.2.5-2.8 1.1-1.3 1.3-3.3.4-3.3-1.6 0-2.1 1.7-2.7 4-1.5 1.9 1 2.3.7 4-3.4 2.4-5.3 4.7-6.7 7.9-4.7zm-8.7 22.3c-.6.6-1.5.8-1.9.4-.4-.4-.1-1.1.7-1.6 1.9-1.2 2.7-.3 1.2 1.2zM63.5 549c0 1.8-3.3 2.6-4.7 1.2-.6-.6-.7-1.5-.3-2.2 1-1.6 5-.8 5 1zM15 570c0 .5-.7 1-1.5 1s-1.5-.5-1.5-1c0-.6.7-1 1.5-1s1.5.4 1.5 1zm11.1 6.5c-.1 1.5-2.4 1.2-2.9-.3-.3-.9.2-1.3 1.2-1 1 .1 1.7.7 1.7 1.3zM724.8 317.7c1.8.2 4.5.2 6 0s0-.4-3.3-.4-4.5.2-2.7.4zM467 321c0 .5 1 1.9 2.3 3l2.2 2.2-3.2 2.7c-1.8 1.5-3.3 3.3-3.3 3.9 0 1.5 2.5 1.5 5.2.1 1.4-.8 2.8-.7 4.9.1 1.6.7 3.6.9 4.5.6 1.6-.6 1.6-.8 0-2.4-.9-1-1.6-2.6-1.6-3.6 0-1.2-.5-1.6-1.9-1.1-1.4.4-2.4-.3-3.9-3-2-3.2-5.2-4.8-5.2-2.5zM477.2 321.1c.2.6.8 1 1.3 1s1.1-.4 1.3-1c.2-.6-.4-1.1-1.3-1.1s-1.5.5-1.3 1.1zM489 323c0 .5.7 1 1.5 1s1.5-.5 1.5-1c0-.6-.7-1-1.5-1s-1.5.4-1.5 1zM482.8 327.3c2.6 2.8 8.2 5.1 8.2 3.4 0-1.2-7.6-5.7-9.4-5.7-.5 0 0 1 1.2 2.3zM610.2 328.7c-1.2 1.5-2.2 3.1-2.2 3.4 0 .4-.9 1.1-2 1.4-2.2.7-2.4 1.3-1 3.5.9 1.3 1.3 1.1 2.9-.9 1.5-2 2-2.1 2.7-.9 1.5 2.3 10.6 8 12 7.4 1.8-.7 1.8-3.6 0-3.6-.8 0-1.7-.8-2-1.8-.4-1.1-1.7-2.9-3.1-4.2-2.2-2-2.5-2.1-3.1-.6-.7 2-3.4 2.2-3.4.2 0-.8.7-1.6 1.5-2 1.5-.6 2.1-4.6.7-4.6-.5 0-1.8 1.2-3 2.7zM598.3 330c-1.3 3.4-.5 4.3 3.2 3.4 2.1-.5 2.5-1.2 2.3-3.3-.5-3.9-4-4-5.5-.1zM719 330.4c0 .8.4 1.7.9 2 1.1.7 3.3-1.8 2.4-2.7-1.2-1.2-3.3-.7-3.3.7zM557 332.5c0 .8.5 1.5 1 1.5.6 0 1-.7 1-1.5s-.4-1.5-1-1.5c-.5 0-1 .7-1 1.5z"/><path d="M8 334.9c-3.3.6-3.2.7 2.3 1.4 5.9.7 8.2.3 7.2-1.4-.7-1-4.1-1-9.5 0zM508.6 336.6c-1 2.5-.8 2.5 2.4.9 3.6-1.9 3.8-2.5.6-2.5-1.3 0-2.7.7-3 1.6zM498 337.2c0 1 .5 1.8 1 1.8.6 0 1 .6 1 1.4 0 1.8 1.7 3 2.4 1.7.4-.5-.5-2.2-1.9-3.8-1.9-2.2-2.4-2.4-2.5-1.1zM596.7 337.7c-1.2 2.1-1.7 8.3-.7 8.3.6 0 1.3-.7 1.6-1.5.4-.8 1.2-1.5 1.9-1.5 1.4 0 2.7-3.8 1.9-5.2-.6-1-4.1-1.1-4.7-.1zM17.7 341.7c-.6.9-3.6 1.3-9.3 1.3-6.8 0-8.4.3-8.4 1.5s1.6 1.5 8.3 1.5c9 0 11.1-.8 10.5-3.6-.2-1.4-.6-1.5-1.1-.7zM52.8 344.2c1.6 1.6 18.8 2.3 28 1.2 6.6-.7 6.7-.7 2.7-1.5-2.2-.4-10.3-.8-17.9-.8-11-.1-13.7.2-12.8 1.1zM89.6 343.9c-1.8.7-1.8.8-.2 1.4 2.5 1 7.4.9 8-.2 1.2-1.8-4.1-2.6-7.8-1.2zM149.5 345.1c2.2.4 5.1.8 6.5.8 2 .1 2.2-.1 1-.9-.8-.5-3.7-.9-6.5-.9l-5 .1 4 .9zM503.3 346.5c-.5 1.6 9.5 12.5 11.6 12.5.5 0 1.1.5 1.3 1.2.3.7 1.1.9 2.4.3 1.5-.6 1.6-.9.4-1.2-.8-.2-3.1-2.4-5-4.9-1.9-2.4-3.9-4.4-4.3-4.4-.4 0-1.9-1.1-3.3-2.5-2-2-2.6-2.2-3.1-1zM159 347c0 1.4 3.3 1.9 14.7 2.2 10.2.3 12-.6 4.7-2.3-5.3-1.2-19.4-1.1-19.4.1zM588.7 351.7c-1.4 2.1-3.7 5.1-5.1 6.7-2.8 3.1-3.1 4.2-1.7 5 .5.3 1.7-.6 2.7-2.1 1.1-1.5 3.8-4.5 6.2-6.8 4.5-4.4 5.3-6.5 2.3-6.5-1 0-3 1.7-4.4 3.7zM572 350.5c-.9 1.1-1.6 1.3-2.4.5-1.6-1.6-3.4-1.2-4.1 1-.3 1.1-1.5 2-2.5 2-1.8 0-7 5.7-7 7.6 0 .5-1.6 2.2-3.5 3.7s-3.5 3.6-3.5 4.6c0 1-1 2.5-2.1 3.3-3.1 2-4 11.3-1.2 12 1.5.4 1.8 1.2 1.5 5.2-.3 3.8-.7 4.6-2 4.1-2.2-.8-3.2 1.4-1.9 4.2.8 1.9.7 3-.6 5.3-.9 1.5-1.7 4.4-1.7 6.4s-.5 3.6-1 3.6c-1.2 0-3 4.1-3.9 9-.5 2.6-1.2 3.6-2.9 3.8-1.2.2-2.7 1.2-3.2 2.3-.6 1-2.5 2.6-4.2 3.5-2.8 1.5-3.2 1.5-4 0-1.3-2.3-2.1-2-6.7 2.4-2.2 2.2-4.4 4-4.9 4-1 0-3.4 5.8-3 7.2.2.6 2.4-.9 4.8-3.5 2.5-2.6 4.8-4.7 5.2-4.7.3 0 .8 1 1 2.2.4 2.7 2.5 3.5 3.2 1.1.8-2.7 6.2-4.8 8.1-3.3 1.2 1 2 .8 4-1.1 1.3-1.3 2.5-3.4 2.5-4.7 0-1.2.8-2.6 1.8-2.9.9-.4 2.8-1.7 4.1-3 2.1-2 2.3-2.7 1.3-4.9-1.8-3.8-1.5-6.1 1.1-8.1 2.9-2.2 4.9-5.8 3.9-6.7-.4-.4-.8-3-.9-5.8l-.1-5 2.9.6c2.2.4 2.9.2 2.9-.9 0-.8.6-1.5 1.4-1.5.7 0 2.1-1.1 3-2.5 2.1-3.3.2-3.2-3 0-1.4 1.4-3 2.3-3.5 2-1.6-1-1-4.1 1.1-6 2.6-2.3 2.5-4.1-.1-4.8-1.7-.5-2-1.2-1.7-4.9.2-3.6.7-4.4 2.6-4.6 1.2-.2 2.2-.8 2.2-1.3s.7-.9 1.5-.9 1.5-.7 1.5-1.5.4-1.5.9-1.5 1.1-1.2 1.3-2.8c.2-2 .8-2.6 2.1-2.4 2.9.5 5.9-2.8 5.2-5.5-.3-1.5-.1-2.3.7-2.3.7 0 2.4-.9 3.8-2s3.3-2 4.3-2c.9 0 1.7-.5 1.7-1 0-1.6-4.6-1.2-6 .5zM579 352.9c-2.4 4.9-1 6.4 2.6 2.6 1.3-1.4 2.4-3 2.4-3.6 0-.5.5-.9 1-.9.6 0 1-.5 1-1 0-.6-1.1-1-2.5-1-1.9 0-2.9 1-4.5 3.9zM687.6 350.8c-.6 1 6.2 2.7 7.2 1.8.8-.9-.2-1.5-3.5-2.2-1.7-.3-3.3-.2-3.7.4zM0 353.1c0 1.7.8 1.9 9.9 1.9 5.6 0 10.3-.4 10.6-1 .9-1.4-.7-1.8-11.2-2.4-8.7-.4-9.3-.3-9.3 1.5zM144 353.7c0 1.8.4 3.3.9 3.3 1.7 0 1.8-1.4.5-4l-1.4-2.5v3.2zM701.2 352.2c.3.7 1.3 1.5 2.2 1.6 1.2.3 1.7-.1 1.4-1-.3-.7-1.3-1.5-2.2-1.6-1.2-.3-1.7.1-1.4 1zM500.3 355.2c-1.3.6-2.3 1.7-2.3 2.4 0 1 .7.9 3-.2 1.7-.9 3-2 3-2.5 0-1.1-.9-1.1-3.7.3zM148 356c0 1 3.4 1.7 13.8 2.5 4.1.3 8.2 1 9.3 1.5 2.4 1.4 23.4.9 23.4-.5 0-.6-4.4-1.3-10-1.6-5.5-.4-11.3-1.2-12.8-1.8-3.5-1.4-23.7-1.5-23.7-.1zM10 359.5c-1.4.8-4.2 1.4-6.2 1.5-2.8 0-3.8.4-3.8 1.6 0 1.2.9 1.5 3.7 1.2 3.3-.3 3.8 0 4.1 2 .5 3.3-1.3 4.9-4.8 4.4-2.3-.3-3-.1-3 1.3 0 1.4.6 1.6 3.5 1.1 3.1-.6 3.5-.4 4.1 1.8.8 3.5-.2 4.6-4.2 4.6-2.4 0-3.4.5-3.4 1.5s1.1 1.5 3.5 1.5c3 0 3.5.3 3.5 2.5 0 2-.6 2.5-3.5 3.1-4.3.8-4.8 3.4-.7 3.4 3.8 0 4.3.7 3.1 3.9-.6 1.4-1 8.2-1 15.1s-.4 13.2-.9 13.9c-.4.8-.4 2.4 0 3.6.6 1.5.4 3.2-.5 4.9-.8 1.5-1 2.8-.4 3.1 1.2.8 1.2 4.8-.1 6.1-.6.6-.6 3.2.1 7.4 1.1 7.2.6 11-1.6 11-.9 0-1.5 1-1.5 2.5 0 2.2.4 2.5 3.6 2.5 2.8 0 3.7.5 4.1 2 .3 1.2 1.1 1.9 1.7 1.7.7-.3 1-3 .8-8-.3-6.5-.1-8.1 1.7-10.6 2.8-3.9 2.7-6.9-.4-8.3-1.9-.8-2.2-1.5-1.5-2.8 1.2-2.3 2.6-38.7 2-49.3-.6-8.2.4-25.6 1.5-27.8 2.1-3.9.8-4.8-3.5-2.4zM19 359c-1.2.8-1.1 1 .8 1 1.2 0 2.2-.5 2.2-1 0-1.3-1.1-1.3-3 0zM664 359c0 .5.7 1 1.5 1s1.5-.5 1.5-1c0-.6-.7-1-1.5-1s-1.5.4-1.5 1z"/><path d="M570.3 364.3c-3.2 3.2-4.2 5.7-2.5 5.7 1.2 0 7.2-6.7 7.2-8 0-1.7-1.4-1.1-4.7 2.3zM680 363c0 .5.7 1 1.5 1s1.5-.5 1.5-1c0-.6-.7-1-1.5-1s-1.5.4-1.5 1zM688.5 363c.3.5 1.5 1 2.6 1s1.7-.5 1.4-1c-.3-.6-1.5-1-2.6-1s-1.7.4-1.4 1zM696 363c-1.1.7-.7 1 1.8 1 1.7 0 3.2-.5 3.2-1 0-1.3-3-1.3-5 0zM77.3 365.1c-.3 1.1-1.1 1.9-1.7 1.9-.7 0-2.3 1.1-3.5 2.4l-2.3 2.5 3.5.6c2 .4 4.3 1.6 5.3 2.6 1.9 2.1 4.4 2.5 4.4.8 0-.6-1.1-2.5-2.5-4.3-2.8-3.7-3.1-4.8-1.2-4.5 4.3.5 5.4-2.5 1.1-3.4-2-.3-2.8 0-3.1 1.4zM85.7 364.6c-.9 1 .2 2.4 1.9 2.4.8 0 1.4-.7 1.4-1.5 0-1.5-2.1-2.1-3.3-.9zM92.4 365.2c-.3.5-.2 1.4.4 2 1.2 1.2 4.2.4 4.2-1.1 0-1.3-3.9-2.1-4.6-.9zM143 365.5c0 1.2 1.4 1.5 6.3 1.5 3.5 0 8.5.6 11.1 1.4 4.9 1.5 29 2.5 30.2 1.3 1.3-1.3-4.4-2.4-15.1-3-6-.3-12.3-1-13.8-1.6-1.6-.6-6.4-1.1-10.8-1.1-6.4 0-7.9.3-7.9 1.5zM518 366.1c.7 1.1 1.4 1.8 1.7 1.5.8-.8-.5-3.6-1.7-3.6-.7 0-.7.6 0 2.1zM576.5 367.5c-1.1 1.3-2.5 2.4-3.1 2.5-1.3 0-4 4.8-3.2 5.6 1.2 1.1 4.8-1.7 4.8-3.6 0-1.1.7-2 1.5-2s1.5-.7 1.5-1.5.5-1.5 1-1.5c.6 0 1-.5 1-1 0-1.7-1.4-1.1-3.5 1.5zM50.5 367.9c-.9 1.6 2.1 2.4 4.2 1.2 1-.6 1.3-1.1.6-1.1-.6 0-1.8-.3-2.6-.6s-1.8-.1-2.2.5zM61.3 367.7c-.9.3-1 1-.3 2.4.8 1.4.6 2.5-.6 4.4-1.4 2.2-1.4 2.5-.1 3.1.8.3 1.8 1.6 2.1 3 .8 3.1 2.7 3 6.5-.2 3.8-3.1 3.8-3.7.5-5.3-2.2-1-3-.9-4.4.4-2.2 2-3 1.9-3-.5 0-1.1.7-2 1.6-2 1.1 0 1.4-.8 1.2-2.7-.3-2.7-1.4-3.5-3.5-2.6zM502.6 368.7c-1.1 2.7 1.3 4.2 3 1.9 1.9-2.7 1.8-3.6-.5-3.6-1 0-2.2.8-2.5 1.7zM43.3 369.7c-2.3.9-1.5 3.5 1 3.1 1.2-.2 2.2-.9 2.2-1.7 0-1.6-1.4-2.2-3.2-1.4zM95 370.8c0 1.4 1.1 2.1 2.6 1.5.8-.3 1.1-.9.8-1.4-.7-1.1-3.4-1.2-3.4-.1zM411.7 370.6c-1.3 1.3-.7 2.4 1.4 2.4 1.1 0 1.9-.5 1.7-1.2-.5-1.4-2.2-2.1-3.1-1.2zM320.7 371.7c-.4.3-.7 1.3-.7 2.1s-.6 2.8-1.4 4.5c-.8 1.8-2.4 6.3-3.7 10-1.2 3.7-2.6 7-3 7.3-.5.3-.9 1.3-.9 2.3 0 1.7-24.5 51.1-27.4 55.3-1.3 1.8-1.3 2.5-.1 4.8 2.1 4 4.4 4.5 5.6 1.2.5-1.5 1.9-4.4 3-6.5 1-2.1 1.9-4.4 1.9-5.2 0-.8.5-1.5 1-1.5.6 0 1.8-1.7 2.6-3.8.9-2 2.4-5.5 3.4-7.7s2.6-5.8 3.6-8c.9-2.2 3-6.6 4.5-9.9 1.6-3.2 2.9-6.2 2.9-6.7s1.1-3.2 2.5-6.1c1.4-2.8 2.5-5.8 2.5-6.6 0-.8.6-2.6 1.4-4 3-5.6 4.6-11.4 4.6-16.7 0-5.1-.7-6.5-2.3-4.8zM560.7 374.8c-3.8 3.8-4.7 6.2-2.4 6.1 1.3 0 7.7-7.5 7.7-9 0-1.7-1.6-.9-5.3 2.9zM578.2 373.5c-1.2 1.4-2.6 2.5-3.2 2.5-.5 0-1 1.2-1 2.6 0 2.1.4 2.4 2 1.9 1.4-.4 1.8-.2 1.5.7-.3.7.6 4.1 2 7.6 2.9 7.2 3 7.8 1 8.6-1 .4-1.9-.3-2.5-1.8-.5-1.3-1.4-2.7-1.9-3.1-.6-.3-1.1-1.5-1.1-2.6s-.7-2.2-1.5-2.5c-.8-.4-1.5-1.4-1.5-2.3 0-3.2-1.3-3.1-4.7.4-3.4 3.5-4.4 7.5-1.9 7.5.8 0 1.6 1 1.8 2.2.2 1.5.9 2.2 2 2 1.5-.2 1.7.2 1.1 2.9-.6 3-.4 3.2 1.7 2.6 2-.5 2.2-.3 1.6 2.5-.3 1.7-.6 3.4-.6 3.9s-.5.9-1.2.9c-1.7 0-7.8 7.2-7.8 9.3 0 1-.8 2-1.7 2.4-3 1-7.3 6.3-7.3 8.9 0 1.8-.5 2.4-2 2.4-2.4 0-7 4.5-7 6.9 0 .9-2 3.2-4.5 5.1-4.4 3.5-5.4 5.3-3.5 6.5 1.8 1.1 1 2.6-1.2 2.4-1.3-.2-3.4.1-4.7.5-2 .7-2.2 1.3-1.8 4.1.6 3.6-.7 5.7-3 4.8-1.8-.7-4.8 2.4-5.7 6-.5 2.1-1.2 2.7-3.4 2.7-2 0-3.3.9-5 3.5-2.6 4.1-3.9 4.4-4.8 1-.6-2.6-1.2-2.9-3-1.7-1.9 1.3-2.3 4.1-.9 5.6 1.7 1.7 1.9 3.5.5 5.6-.7 1.2-1.6.7-4.4-2.5-1.9-2.2-3.5-4.8-3.6-5.7 0-2.6-2-3.2-3.5-1.2-2.1 2.8-1.9 5.4.5 5.4 1.4 0 2 .7 2 2.3 0 1.3.7 3.2 1.5 4.3.8 1 1.5 2.9 1.5 4.2 0 3-3.1 2.6-4.5-.6-.5-1.2-1.5-2.2-2.2-2.2-.7 0-1.3-1.1-1.3-2.5 0-1.7-.7-2.8-2.2-3.4-1.5-.5-2.3-1.7-2.3-3.2 0-1.7-.6-2.4-2-2.4-2.5 0-3.4 4.2-1.1 5.1.9.3 1.6 1.6 1.6 2.9 0 2 2.3 5 3.9 5 .3 0 .4.8.3 1.7-.2.9.6 2.6 1.7 3.7 2.6 2.6 2.6 3.7.1 5.1-1.8 1-2.2.7-3.2-2-.7-2.1-1.5-2.9-2.5-2.6-.8.3-1.7.6-1.9.6-1.2 0-.2 4.9 1.1 5.4 1.8.7 2 3.7.3 5.4-1.8 1.8-2.6 1.5-3-1.1-.2-1.4-1.1-2.3-2.6-2.5-1.9-.3-2.3-.8-1.8-2.7.4-1.7-.1-3.1-1.9-4.9-1.4-1.4-2.5-3-2.5-3.6 0-.5-.7-1-1.6-1-1.2 0-1.5-.7-1.2-2.5.7-3.5-1.1-4.3-3.3-1.4-2.5 3.2-2.4 3.9.6 3.9 2 0 2.5.5 2.5 2.4 0 1.3.7 2.6 1.5 3 .8.3 1.5 1.7 1.5 3.2 0 1.7.6 2.8 2 3.1 1.3.3 2 1.4 2 2.9 0 1.3.9 2.8 1.9 3.4 2.5 1.3 1.7 4.6-1.5 6.7-1.8 1.1-2.4 2.5-2.4 5 0 3-.3 3.4-2.2 3.1-1.8-.2-2.4-1.1-2.8-4.2-.6-5-2.7-5.8-4.1-1.7-.6 1.7-2 3.6-3 4.2-1 .5-1.9 1.6-1.9 2.4 0 1.3-3.6 4.5-5.2 4.5-2.2 0-.2-3.8 4.3-8.3 2.8-2.8 5.6-6.3 6.1-7.9.6-1.6 2.1-3.3 3.4-3.8 1.3-.5 2.4-1.6 2.4-2.4 0-1.4-2.7-4.2-3.4-3.5-.2.2-3.2 4-6.7 8.4-7.3 9.2-10.5 12.5-11.9 12.5-.5 0-1 .4-1 1 0 .5-.7 1-1.6 1-1.2 0-.6-1.3 2.2-4.8 2.1-2.6 4.2-4.9 4.6-5 .5-.2.8-.8.8-1.3s2-2.9 4.5-5.3c2.5-2.5 4.5-5 4.5-5.7 0-.7.7-2.1 1.7-3.1.9-1 1.4-2.1 1-2.4-.6-.6-3.7 2.4-9.5 9.2-8.7 10.2-14.8 16.4-15.9 16.4-2.2 0-1.5-2.1 2-6 1.7-2 4.9-5.7 7-8.2 2.1-2.5 5.8-6.7 8.3-9.4 5.5-5.8 7.1-8.4 5.1-8.4-1.2 0-4.4 3.1-13.2 13.2-.8 1-1.5 2-1.5 2.2 0 .9-13.1 13.6-14.1 13.6-1.3 0-1.1 3.7.2 4.6.6.3 1.5.2 2.1-.4.7-.7 1.9-.3 3.7 1.4 8.9 8.3 12.9 11.5 15.3 12 1.5.4 2.9 1.2 3.2 2 .3.8 1.4 1.4 2.4 1.4 1.2 0 2.1-1.3 3.1-4.5.9-3.2 2.2-5 4.6-6.5 1.8-1.1 3.6-2.8 3.9-3.7.5-1.1 1-1.3 1.7-.6.6.6.7 4.4.3 10.3l-.7 9.4-3.2-3.7-3.3-3.8-.6 2.6c-.5 2.1-.1 3.1 1.9 4.6 1.4 1.1 2.5 2.9 2.5 3.9 0 2.3-3 8.2-4.7 9.3-.7.4-1.3 2.2-1.3 3.8 0 4.4 2.7 3.4 5.6-2 1.3-2.4 2.8-4.9 3.4-5.5.5-.5 1-2.2 1-3.6s.7-3.5 1.5-4.6c1.1-1.4 1.4-5 1.5-14.7V522l3.8-4.2c2-2.2 4.6-5.1 5.7-6.2 1.1-1.2 2.7-3.3 3.6-4.6 1.6-2.4 3.3-4.5 10.6-12.8 1.8-2 3.3-4.1 3.3-4.6 0-.4 1.1-1.7 2.5-2.8 1.3-1 3.2-3.5 4.1-5.4 2-4.3 4.8-4.5 6.3-.4.5 1.6 1.7 3 2.5 3 2.4 0 3 2 1 3.5-1.8 1.2-1.8 1.4-.1 4.9 1 2 2.5 5.3 3.3 7.3.9 2.1 2.3 5.1 3 6.6.8 1.6 1.4 3.9 1.4 5.2 0 3.2 2 4.2 3.7 2 .7-1.1 1.3-1.4 1.3-.7 0 .6.8 1.9 1.8 2.9 3.6 3.6 8.2 10.1 8.2 11.7 0 .8-1.1 2.3-2.5 3.2-2 1.3-2.8 1.4-4 .4-.8-.7-1.5-1.1-1.6-.9 0 .2-.5 6.5-1 13.9-.7 12.2-1.4 17.5-3.5 27.9-.9 4.3 1.5 3.9 3.5-.6.8-1.7 2.2-3.4 3.2-3.6 1.6-.4 1.9-1.5 1.9-7.5 0-3.9.4-8.2 1-9.6.7-1.9.6-2.9-.5-3.9-1.8-1.8-2.4-8.8-.8-9.4.6-.2 2.1.5 3.3 1.7 2.1 2.1 5 2.1 5 0 0-.6-.9-1.8-2-2.7-2.7-2.3-2.5-4.7.4-6.1 2.8-1.3 3.6-.7 3.6 2.5 0 1.4.6 2.3 1.5 2.3 1.8 0 2.1-5.6.3-6.2-1.7-.6 1.8-5.5 4.5-6.2 3.7-1-.1-2.6-5.7-2.4-4.5.2-5 0-8.7-4.2-5.6-6.4-5.5-6.3-7-10.3-.7-2-1.8-3.7-2.4-3.8-3.7-.2-8.1-12.4-6.9-18.9 1-4.6 2.7-5.5 7.1-3.7 3.6 1.4 4 1.4 8.5-1 2.6-1.4 5-3.4 5.3-4.4.7-2 3-2.5 4-.9.9 1.4 1.9 1.2 4.1-.8 2.9-2.6 10.1-7.3 14.1-9.1 1.1-.5 2.4-1.5 2.8-2 .3-.6 1.5-1.1 2.5-1.1s4.2-1.2 7.1-2.6c3.2-1.6 7.2-2.7 10.3-2.9 3.8-.2 6.3-1 9.6-3.3 7.8-5.2 10-9.2 5.1-9.2-3.5 0-6.9-5.1-7.6-11.6-.6-6-.6-6.1 1.8-6.6 1.4-.3 4.3.1 6.4.8 2.1.8 4.4 1.2 5.1.9 2.2-.8 1.3-3.3-1.7-4.3-2.7-1-2.9-1.3-2.4-5.1.5-3.6.2-4.3-3.3-7.5-2.2-2-4.2-3.6-4.6-3.6-.4 0-.9-.9-1.3-1.9-.3-1.1-2.2-2.9-4.1-4-7-4.2-7.2-2.2-.4 5.2 5.2 5.7 5.7 6.6 4 8.3-1.2 1.2-7.8-.2-11.7-2.4-2.4-1.3-4.9-.8-5.7 1.3-.7 2 1.2 8.2 2.9 8.8 1 .4 1.2 1.6.8 4.1-.3 2-.2 3.6.1 3.6 1.6 0 4.6-2.2 4.6-3.3 0-1.4 6.8-6.2 7.6-5.4.3.3.1 1.2-.5 1.9-4.3 5.1-6.1 9.2-6.3 14.7-.2 4.7.1 6.3 1.6 8 2.1 2.3 1.6 3.4-2.1 4.6-1.9.5-2.7 0-4.4-2.9-1.2-2-2.4-3.6-2.8-3.6-.4 0-3.2 2.5-6.3 5.5-3.1 3-6.2 5.5-6.8 5.5-.7 0-2.4 1.2-4 2.7-6.9 6.9-10.9 10.3-12 10.3-.7 0-2.9 1.3-5 3-2.1 1.6-4.2 3-4.8 3-.5 0-1.3.7-1.6 1.6-.8 2.1-10.1 1.6-10.1-.6 0-1 1.2-1.6 3.3-1.8 2.9-.3 3.2-.6 3.2-3.6 0-5.1 4.8-8.6 6.8-5 .7 1.3 1.1.9 1.6-1.9.4-2.4 1.7-4.3 3.7-5.8 2.7-1.9 2.9-2.5 2.4-6.3-.4-2.2-.1-5.4.5-7 1-2.7 1.2-2.8 2.7-1.4 1.4 1.5 1.8 1.4 4.8-1.5 1.8-1.8 4-4.7 4.9-6.5 1-1.9 2.4-3.2 3.6-3.2 1.4 0 1.8-.6 1.7-2.8-.2-2.3.2-2.8 2.6-3 3.1-.4 3.7-2.2.7-2.2-1.1 0-2-.7-2-1.5s.9-1.5 1.9-1.5c1.6 0 2.1-1 2.7-4.8.3-2.6 2-6.6 3.5-9 1.6-2.4 2.9-4.5 2.9-4.8 0-.3 1-1.4 2.1-2.3l2.2-1.7-2.7-2.7c-4.4-4.4-3.2-8.7 2.5-8.7 1 0 1.9-.7 1.9-1.5 0-.9-.9-1.5-2.4-1.5-1.9 0-2.2-.4-1.8-2.5.6-3.2-1.9-3.4-4.8-.3-1.7 1.8-2 1.9-2 .5 0-.9.4-1.7.8-1.7.8 0 3.2-4.3 3.2-5.5 0-1.4-2.9-.2-4.8 2zm-.2 25.4c0 .5-.7 1.4-1.5 2.1-1.6 1.4-1.8 1-.9-1.4.6-1.7 2.4-2.2 2.4-.7zM469.8 527.2c-.6 1.8-2.8 2.1-2.8.4 0-.9.7-1.6 1.6-1.6.9 0 1.4.5 1.2 1.2zm-3.8 3.6c0 .9-.9 2.3-1.9 2.9-1.9 1.2-1.9 1.2-.3-1.7 2-3.5 2.2-3.6 2.2-1.2zM88.4 374.9c-.4 1.8-1.6 3.3-3.2 4-1.9.9-2.2 1.5-1.4 2.3.7.7 1.2 2.1 1.2 3.2 0 1.2.5 2.8 1 3.6.9 1.3 1.1 1.3 2 0 .5-.8 1-2.9 1-4.7 0-1.8.6-3.6 1.3-4 2-1.2 2.9-4.4 1.6-5.9-1.8-2.2-2.9-1.7-3.5 1.5zM244.7 373.4c-2.7 1.2-2.7 2.6-.1 2.6.8 0 4.7 2.3 8.8 5.1 7.9 5.3 16.4 13.4 20.6 19.7 1.4 2 3.5 5 4.8 6.6 1.2 1.6 2.2 3.9 2.2 5.2 0 1.3.5 2.4 1 2.4.6 0 1-1.8 1-4.1 0-9.6-12-26.2-25.4-34.9-6.4-4.2-8.4-4.6-12.9-2.6zM48.7 374.8c-2.2 2.4-2.1 3.4.3 5 1.1.7 2 2.2 2 3.3 0 1.2-.8 2.3-2 2.6-1.2.3-2 1.4-2 2.7.1 4.9 3.6 6.2 8.4 3.1 2.6-1.7 2.7-2 1.1-3.2-1.3-.9-1.8-2.8-1.9-7-.3-8.3-2.3-10.5-5.9-6.5zM487.3 375.6c-2.9 1.4-5.3 3-5.3 3.5s-1.3.9-2.9.9c-1.6 0-3.4.7-4.1 1.5-.7.8-2.3 1.5-3.5 1.5-1.2 0-2.8-.7-3.5-1.5-.7-.9-2.9-1.5-5.4-1.5-2.3 0-4.7-.5-5.4-1.2-.9-.9-1.8-.9-3.7 0-3.1 1.4-3.3 3.2-.2 3.2 1.3 0 3.2.6 4.3 1.4 1 .8 3 1.2 4.4 1 3.2-.7 9.5 4.8 10.4 9.1 2.6 11.1 1.2 12.9-5.7 7.3-2.3-1.8-6.1-4.6-8.4-6.1-2.4-1.5-4.3-3.4-4.3-4.1 0-1.1-1-1.3-4.1-.9-3.8.5-4.1.4-3.5-1.4.8-2.7-1.3-4.3-5.5-4.3-8-.1-11.9-.6-13-1.8-.7-.6-2.3-1.2-3.5-1.2-1.3 0-2.6-.5-2.9-1-1-1.6-5.5-1.2-5.5.5 0 .9 1 1.5 2.6 1.5 1.5 0 2.4.5 2.2 1.2-.7 2.1-2.6 2-4.7-.3-2.3-2.5-2.7-3.9-1.1-3.9.6 0 1-.7 1-1.5 0-1.8-2.4-2-3.7-.3-.6.7-1.6 3.1-2.3 5.3-1.4 4.4-3.7 7.5-5.5 7.5-1.4 0-5.5 4.2-5.5 5.6 0 1.2-9.6 5.4-12.2 5.4-.9 0-2 .5-2.3 1.1-.4.5-1.9.7-3.4.4-2.3-.5-3.4.1-6.7 3.7-2.2 2.4-6.1 7.3-8.9 11-2.7 3.8-5.2 6.8-5.7 6.8-.4 0-.8.5-.8 1.1 0 1.8-7.2 7.7-10.1 8.3-3.5.7-7.9 5.4-7.9 8.4 0 1.3-2 5-4.5 8.2-2.5 3.2-4.5 6.2-4.5 6.5 0 .4-1.4 2.6-3.2 4.9-7.1 9.2-11.1 13.1-13.6 13.6-3.4.7-3.1 2.3.7 3.1 1.7.4 3.7 1.1 4.4 1.7 1 .9 1.7.8 2.6-.1 1.3-1.3 1.5-1.4 19.8-1.7 9.2-.2 13.8-.7 15-1.6 1-.7 2.7-1.4 3.8-1.4 2.1 0 12.5-9.9 12.5-11.9 0-.6.5-1.1 1-1.1.6 0 1-1.1 1-2.5 0-1.3.8-2.8 1.7-3.4 1.5-.8 1.6-1.4.5-4.3-.6-1.9-1.2-4-1.2-4.6 0-1.6 2.7-1.5 3.3 0 .2.7.8 1 1.2.6.4-.4.2-2.1-.5-3.8-.9-2.1-1-3.4-.3-4.1.8-.8 1.3-.7 1.7 0 1.5 2.4 2.7 1 2-2.5-.6-3.4-.5-3.6 1.6-2.9 2 .7 2.2.5 1.6-1.8-.5-2-.1-2.9 1.4-3.7 1.1-.6 2-1.7 2-2.4 0-3.3 16.2-24.4 18.8-24.5.6-.1 1.2-.8 1.2-1.6 0-.9 1.1-2 2.5-2.5s2.5-1.4 2.5-2c0-.5 1.3-1 2.8-1 1.6 0 3.7-.7 4.8-1.5 4.3-3.3 12.9-1.3 19.3 4.6 1.8 1.6 4.6 3.3 6.2 3.6 1.6.3 3.4 1.2 4 1.9.6.8 1.7 1.4 2.3 1.4 1.6 0 5.6 5.4 5.6 7.6 0 .9.9 1.8 2.1 2.1 1.1.3 3.5 2.9 5.4 5.8 3.6 5.6 8.5 9.1 10.4 7.2.8-.8 1.8-.4 3.6 1.3 1.4 1.3 2.5 2.8 2.5 3.2 0 .5.7 1.6 1.5 2.4 2.2 2.3 1.8 4.6-1.4 8.2-1.6 1.7-3.2 4.1-3.6 5.2-.3 1.1-1.3 2-2.1 2s-2.4 1.2-3.7 2.6c-1.2 1.5-3.7 4.1-5.4 5.7-1.8 1.7-3.3 3.5-3.3 4.1 0 .7-1.3 2-3 2.9-1.6 1-3 2.4-3 3.2 0 .7-1.3 2.3-3 3.5-1.6 1.2-3 2.8-3 3.6 0 .8-1.2 1.9-2.7 2.5-2.2.8-3 .6-5-1.2-2-2-3.4-2.3-11.8-2.3-7.4 0-9.8.4-11.3 1.7-1 .9-2.5 1.7-3.3 1.7-1.8 0-13.9 12.6-13.9 14.5 0 .7-.7 1.8-1.5 2.5s-1.5 2.3-1.5 3.5c0 1.2-.7 2.8-1.6 3.5-2 1.7-1.4 6.4.9 6.8 1 .2 1.7-.3 1.7-1.2 0-2.3 1.3-2 3.8.9 1.2 1.4 2.8 2.5 3.6 2.5.8 0 2.3 2 3.4 4.4 2.6 5.4 5 6.5 7.4 3.4 1-1.3 1.8-2.7 1.8-3.1 0-1 8-9.7 16.8-18.3 4.5-4.4 6.2-6.8 6.2-8.7 0-2.7-1.3-3.6-2.5-1.6-.4.6-1.3.8-2.1.5-.8-.3-2 .3-2.6 1.4-.9 1.4-2.4 2-5 2-2 0-4 .4-4.3 1-.3.5-1.4 1-2.3 1-2 0-9.6 6.7-10.5 9.2-.4 1-1.1 1.8-1.7 1.8-.5 0-1 1.1-1 2.4 0 1.4-.4 2.7-.9 3-1.6 1.1-7.1-6.9-7.1-10.4 0-2.3 1-2.6 2.9-.8 1 1.1 1.1.6.5-2.6-.6-3.5-.5-3.8 1-3.3 2.5 1 4-.1 2.6-1.8-.9-1-.6-1.9.9-3.4 1.2-1.2 2.8-2.1 3.6-2.1.9 0 1.8-.7 2.1-1.5.4-.8 1.4-1.5 2.4-1.5s2.3-.7 3-1.5c.9-1.1 3.5-1.5 10.6-1.5 8.9 0 9.4.1 9.9 2.3.6 2.2 5.7 5.1 6.9 3.9.3-.3.6-1.8.6-3.4 0-2.4.4-2.8 2.9-2.8 2.4 0 3.1-.5 3.6-2.9.4-2 1.4-3.1 3.1-3.5 1.6-.4 2.9-1.8 3.6-3.6.5-1.7 1.7-3 2.5-3 1.7 0 5.2-3.9 5.3-5.8 0-.6.4-1.2 1-1.2 1.8 0 5-3.4 5-5.3 0-.9.8-2 1.8-2.4 3.9-1.4 5.3-3.5 4.6-7.1-.6-3.3-.6-3.5 1.7-2.9 2 .6 3.9-.9 13.1-10.4 9.1-9.4 10.7-11.5 10.2-13.5-.7-2.6.5-3.1 2.4-1.2.9.9 1.2.8 1.2-.7 0-1 .7-2.7 1.7-3.7.9-1 1.3-2.1 1-2.4-1.1-1.1-7 3.4-14.1 10.6-6.2 6.2-7.4 7-10.8 7-2.7 0-3.8.4-3.8 1.5 0 3.3-2.6 1.2-4.8-3.9-1.8-4.1-2.3-7.1-2.3-13.7 0-8.8-1.1-13.4-4.3-18.1-2.3-3.6-1.4-6.2 1.9-5.6 1.4.3 3-.1 3.6-.8.9-1.1 1.6-1.1 4 .1 5.2 2.8 7.7 1.6 11.3-5.4.9-1.6 2.1-3.1 2.8-3.4.7-.3-.1-.6-1.8-.6-2.3-.1-3.3-.7-3.7-2.1-.7-2.7-4-2.5-10.4.6zM404 401c0 1.1-.3 2-.7 2-2.1 0-26 23.5-28 27.5-.9 1.6-2.2 3.8-3 4.7-.8.9-1.2 2.5-.9 3.6.4 1-.5 4.3-1.9 7.6-1.4 3.1-2.5 7-2.5 8.6 0 1.6-.5 3.2-1.1 3.6-.6.3-.9 1.7-.6 2.9.3 2-.1 2.4-2.9 2.9-1.7.4-3.4 1.3-3.7 2.1-.3.7-2.7 1.7-5.4 2.1-2.6.3-5.2 1-5.8 1.4-1.6 1.3-14.4 4.2-15.4 3.5-2.6-1.6 6.7-11.8 9.8-10.7 1 .3 1.2-.1.9-1.6-.3-1.2 0-2.6.7-3.2.7-.5 1.5-3.3 1.8-6.2.8-6.4 1.8-7.5 4.8-5.4 5 3.5 10.8.2 8.8-5.1-1.7-4.6-.9-6.7 4.7-12.8 3-3.2 6.3-7.2 7.2-8.8 1.7-2.8 10.5-8.7 15.3-10.2 5.5-1.7 9.9-4.6 9.9-6.5 0-2.2 2.5-3.9 5.8-4 1.5 0 2.2.6 2.2 2zM27.3 376.2c.4 1.2.7 2.9.7 3.5 0 .7.9 1.3 2.1 1.3 1.7 0 2-.5 1.7-3.3-.2-2.5-.8-3.3-2.7-3.5-2.1-.3-2.3-.1-1.8 2zM37 375.5c-2.2 2.7-.5 3.7 1.9 1.1 1.9-2 2.1-2.6.9-2.6-.9 0-2.1.7-2.8 1.5zM143.8 375.2c.9.9 1.5.9 2.4 0 .9-.9.7-1.2-1.2-1.2s-2.1.3-1.2 1.2zM23.7 376.6c-.3.3-.1 1.9.5 3.5 1.3 3.8.2 9.5-1.9 10.3-1.4.6-1 1.2 1.8 3.6 1.9 1.6 3.7 2.9 4.2 3 1.2 0 .7-9.3-.8-13.5-.8-2.2-1.5-4.8-1.5-5.8 0-1.7-1.1-2.3-2.3-1.1zM563.3 381c-3.5 3.9-4.2 6-2 5.9 1.3 0 7.7-7.5 7.7-9 0-2-2.7-.5-5.7 3.1zM41.4 380.1c-.3.6-.1 1.6.5 2.2.8.8 1.1.5 1.1-1.1 0-2.4-.5-2.8-1.6-1.1zM32 383.2c0 .7.5 2 1 2.8.9 1.3 1.1 1.3 2 0 1.6-2.4 1.2-4-1-4-1.1 0-2 .6-2 1.2zM74.7 382.7c-.4.3-.7 1.5-.7 2.5 0 2.6 2.4 1.7 2.8-1 .3-2.1-.8-2.9-2.1-1.5z"/><path d="M505.1 383.9c-1.1 1.1-2.2 3.5-2.5 5.3-1.2 7.4-1.6 11.6-1.9 16.5-.1 2.8-.6 5.5-.9 5.9-.4.4-2.3-.1-4.2-1-5.8-2.7-8-2-6.9 2.4.6 2.2.8 2.2 10.2 1.5 5.5-.4 9.9-1.2 10.3-1.8.5-.7.5-3 .2-5.2-1.1-6.4-1.1-15.9-.1-17.2 1-1.4 0-7-1.3-7.8-.5-.3-1.8.3-2.9 1.4zM304.1 391.7c-.7 4.9-1.5 10-1.7 11.5-1.1 5.7 1.4 2.5 3.1-4 2.7-10.4 2.8-11 2.1-13.7-1.2-4.6-2.3-2.6-3.5 6.2zM65 385.8c0 .9-1.4 3.5-3.1 5.5-2.2 2.6-2.8 4.2-2.1 4.9 1.1 1.1 5.2-.6 5.2-2.2 0-.6 1.3-1 2.9-1 3.5 0 4.8-3.3 2.5-6.7-1.7-2.8-5.4-3.1-5.4-.5zM210 390.3c0 2.1 2.2 3.7 5 3.7 5.3 0 26.5 8.9 34.5 14.4 4.7 3.2 9.6 7.9 10.6 10.1 3.6 7.9 7 10.8 9.5 8.4 1.4-1.4 1.4-2 .1-5-5-12.1-31.1-29.1-47.6-31-4.2-.5-8.6-1.1-9.8-1.4-1.5-.4-2.3-.1-2.3.8zM31.7 391.4c-.3.8 0 2.2.8 3.3 1.3 1.7 1.4 1.7 2 0 .8-2 0-4.7-1.4-4.7-.5 0-1.1.6-1.4 1.4zM701.4 392.2c-1.6 1.2-3.2 2.7-3.6 3.3-1.4 1.9-.8 5.2 1.2 7 1.1 1 2 2.8 2 4 0 1.3.7 2.6 1.6 2.9 2.5 1 9.2.7 9.9-.4.3-.6 1.9-1 3.5-1 3.6 0 4.7-1.6 2.5-4-1.4-1.5-2.1-1.6-4.6-.7-1.6.6-2.9 1.7-2.9 2.5 0 .9-1 1.2-2.7 1-2.4-.2-2.8-.7-2.6-3.1.2-2.4-.2-2.7-2.8-2.7-2.7 0-3-.3-2.7-2.8.3-2.5.6-2.7 4.8-2.4 2.6.2 4.8.9 5.3 1.7 1.1 2.1 2 1.8 3.4-1 1-2.2.9-2.5-.6-2.5-1 0-2.6-.9-3.6-2-2.3-2.6-4.5-2.5-8.1.2zM717.3 396.2c0 3.5.2 4.5.6 2.8.6-2.3 1.3-2.5 7.6-3 6-.4 6.6-.7 5.1-1.9-1.1-1-3.1-1.2-6.6-.8-3.8.5-5.1.3-5.8-.9-.6-1-.9.3-.9 3.8zM384.2 394.8c-3.1 2.8-4.2 5.2-2.3 5.2.5 0 1.1-.7 1.5-1.5.3-.9 1.8-1.5 3.5-1.5 2.6 0 4.1-1.4 4.1-4.1 0-1.9-3.7-.8-6.8 1.9zM467.4 394.4c-.4 1-.2 2.2.4 2.8.8.8 1.3.7 1.8-.6.4-1 .2-2.2-.4-2.8-.8-.8-1.3-.7-1.8.6zM44.7 394.6c-.4.4-.7 1.8-.7 3.1 0 1.6.6 2.3 2 2.3 1.1 0 2-.6 2-1.3 0-1.9-2.4-4.9-3.3-4.1zM73.4 395.5c-.4.9-.3 1.9 0 2.3.9.8 4.2-1.2 3.9-2.4-.4-1.6-3.3-1.6-3.9.1zM557 397c-3.4 3.5-3.6 4.3-1.6 6 .8.6 1.6 2.1 1.8 3.3.3 2.2 3.8 3.8 3.8 1.7 0-.6.9-2 2-3.2 2.6-2.8 2.5-4.8-.1-4.8-1.8 0-2-.4-1.4-3 .9-3.9-.7-3.9-4.5 0zM87 396.8c-1.3 1.1-2 2.4-1.6 3 1.1 1.8 2 1.4 3.8-1.8 1.9-3.4 1.1-3.9-2.2-1.2zM140.7 396.6c-.4.4-.7 7-.7 14.6 0 7.7-.4 14.7-.9 15.6-.5.9-1.2 4.7-1.6 8.4-.8 7.5-.4 8 4.8 5.5 2.6-1.1 2.7-1.5 2.7-8.9 0-6.3.3-7.9 1.7-8.7 1.7-.9 1.7-1 0-2.8-.9-1.1-1.7-2.4-1.7-2.9 0-1.1 4.7-3.4 6.9-3.4.9-.1.2-.7-1.4-1.4-1.7-.7-3.7-2.1-4.5-3-1.2-1.6-1.1-2 1-3.6l2.4-1.8-2.9-.4c-2.5-.2-3.1-.8-3.3-3.3-.4-3.3-1.4-4.9-2.5-3.9zM17.1 397.9c-1.2.8-.5 4.1 1 4.1.4 0 1.3-.9 1.8-1.9 1.2-2.1-.6-3.5-2.8-2.2zM32.7 398c-.3.8-.8 4.1-1.1 7.2-.5 4.9-.3 6.1 1.4 7.8 2.5 2.5 4.2 2.5 5.7.1 1-1.6.9-2.5-.2-4.8-.9-1.6-1.3-4-.9-5.6.4-2 .2-2.7-1-2.7-.8 0-1.9-.8-2.5-1.8-.8-1.4-1-1.5-1.4-.2zM52.6 399.5c-1.5 2.3-1.5 2.5.1 2.6 2.1.2 4.7-.2 5.1-.6.5-.4-2.2-4.5-2.9-4.5-.4 0-1.4 1.1-2.3 2.5zM67.5 400c1 1.1 1.9 1.9 1.9 1.8.1-.2.7-1 1.3-1.8.9-1.2.6-1.5-1.9-1.7-3-.2-3-.2-1.3 1.7zM74.6 401.6c-1 2.7-.7 4.4.9 4.4.9 0 1.5-.9 1.5-2.4 0-3-1.5-4.2-2.4-2zM727.2 404.9c-1.1.7-1 1 .3 1.5 2 .7 3.8-.1 3-1.5-.7-1.1-1.6-1.1-3.3 0zM60 407.7c0 1.6.8 3.7 1.8 4.7 1.8 1.5 1.9 1.5 3-.9 1.5-3.2 1.5-3.5 0-3.5-.6 0-2-.7-3-1.7-1.7-1.5-1.8-1.5-1.8 1.4zM84.7 408.6c-3.3 4.1-5.2 8.2-4.3 9.1.6.6 10.5-9.5 10.6-10.8 0-.4-.8-.9-1.9-1.2-1.2-.3-2.7.6-4.4 2.9zM563.6 407.1c-2.3 1.8-3.8 6.9-2 6.9 1.2 0 6.4-6.2 6.4-7.6 0-1.9-1.3-1.7-4.4.7zM49.5 406.9c-.3.5.9 1.6 2.5 2.5 2.6 1.3 3.2 1.3 3.6.1.3-.8.3-1.9-.1-2.5-.8-1.2-5.2-1.3-6-.1zM161.2 406.7c-4.7 1.9-8.2 15.1-4.6 17.1.9.5 1.4 1.8 1.2 3.3-.2 1.8-1.1 2.5-3.3 2.9-2.4.5-3 1-2.8 2.8.2 1.3-.4 3.4-1.3 4.7-2.3 3.6-1.2 5.5 3.3 5.5 3.5 0 4-.4 6.7-5.2 1.6-2.8 4.4-6.8 6.2-8.8 3.2-3.5 3.3-4 3.6-13.1l.3-9.4-4-.2c-2.2-.1-4.6.1-5.3.4zM44.7 407.7c-1.3 1.3-.7 5.3.8 5.3 1 0 1.5-1 1.5-3 0-2.9-.9-3.8-2.3-2.3zM67.5 408c-.8 1.3 1.2 4 3.1 4 .8 0 1.4.9 1.4 2 0 1 .5 3.1 1.2 4.5.9 2.1.9 3.1-.1 4.6-.6 1.1-.9 2.9-.6 4 .5 1.5 0 2.2-2.4 3-3.1 1.1-5.6 4.1-4.4 5.3 1.2 1.2 3.5.6 6.7-1.9 1.8-1.4 3.9-2.5 4.6-2.5.9 0 1.1-.9.6-3.1-.3-1.9-.1-3.8.5-4.6.9-1 .5-2.3-1.7-5.6-1.6-2.3-3.5-5.5-4.4-7.1-1.7-3.3-3.5-4.3-4.5-2.6zM95 408.5c-1 1.2-1 1.9-.2 2.7 1.7 1.7 3.7-.5 2.5-2.7-.9-1.5-1.1-1.5-2.3 0zM335.1 409.9c-1.4 3.3-1.2 6.2.6 6.8.6.2 1.4-1.3 1.8-3.7.9-5.3-.7-7.3-2.4-3.1zM23.7 409.6c-.4.4-.7 1.7-.7 3 0 2.7 3.8 4.1 4.7 1.7 1-2.6-2.3-6.4-4-4.7zM550.3 414.2c-1.1 1.3-1.8 3.1-1.6 4 .5 1.9 2.3 2.5 2.3.8 0-.5.9-1.8 2.1-2.9 1.2-1.1 1.8-2.4 1.4-3-.9-1.6-1.9-1.3-4.2 1.1zM176 415.8c0 1.5 5.2 3.4 6.3 2.3 1.4-1.4.9-1.7-3-2.6-1.9-.4-3.3-.3-3.3.3zM39 417.5c0 .8.5 1.5 1 1.5.6 0 1-.7 1-1.5s-.4-1.5-1-1.5c-.5 0-1 .7-1 1.5zM520.7 418.2c-1 1.1-1.6 2.2-1.3 2.5.7.8 5.6-2.5 5.6-3.7 0-1.6-2.4-1-4.3 1.2zM556 416.8c-2.4.8-3.9 3.4-4 6.6v2.8l2.9-3.1c4.4-4.7 4.9-7.7 1.1-6.3zM98.5 418.1c-.4.6-.5 1.3-.2 1.6.7.7 2.7-.6 2.7-1.8 0-1.2-1.7-1.2-2.5.2zM20.3 418.7c-1.8.6-1.6 2.3.2 2.3.8 0 1.5.4 1.5 1 0 .5-.4 1-1 1-.5 0-1 .9-1 2s.4 2 .9 2c1.8 0 6.3-2 7.7-3.5 1.4-1.3 1.3-1.5-1-1.5-1.4 0-3.3-.8-4.3-1.9-1-1-2.4-1.6-3-1.4zM56.7 418.6c-1.6 1.6-.5 2.5 2.6 2.2 1.7-.2 3.1-.8 3-1.3-.3-1.2-4.6-1.9-5.6-.9zM194 419c-5.9.7-13.2 2.2-16.9 3.6-2.2.8.3 2.7 4.1 3.2 12.2 1.4 23 1.3 29-.2 8.3-2.1 21.7-2.1 24.4-.1 1 .8 2.6 1.5 3.5 1.5.9 0 3.2 1.8 5.3 4 3.7 4 7.3 5.7 10.1 4.6 2.1-.8 8.5 5.9 8.5 8.9 0 2.4.9 3 4 2.5 2.2-.3 2.2-.3.5-6.4-1.8-6.3-5.6-10.1-9-9.2-1.4.4-3.4-.4-5.6-2-1.9-1.4-6.1-3.9-9.4-5.6-5.2-2.7-7.5-3.2-18-3.9-6.6-.5-14.7-1-18-1.2-3.3-.3-8.9-.1-12.5.3zM290.7 418.7c-.2.5-.5 3.2-.6 6.2-.2 4.8 0 5.3 1.3 4.2 1.1-.9 1.5-2.9 1.4-6.2-.1-4.4-1-6.2-2.1-4.2zM37.7 425.1c-.9.5-2.2.7-2.9.3-.8-.5-.9 0-.4 1.7.4 1.3.9 3.9 1.3 5.6.4 2.6 1 3.3 2.9 3.3 3.1 0 3.2-3.5.2-5.9-1.2-1-1.8-2.3-1.4-2.9 1.1-1.8 3.6-1.4 4.3.5.9 2.6 2.3 3.3 6.6 3.3 3 0 3.7-.4 3.7-1.9s-.7-1.9-3.5-1.8c-1.9.1-4.2-.6-5.3-1.6-2.1-1.9-3-2-5.5-.6zM83.3 424.7c-1.3.2-2.3.9-2.3 1.5 0 .5.6.8 1.4.5.7-.3 2.8.3 4.6 1.4 1.9 1.2 4 1.7 5.1 1.4 1.9-.6 1.9-.8-.6-3.1s-3.7-2.6-8.2-1.7zM512.2 426.3c-2.6 2.8-2.8 4.3-.6 5.1 1.8.7 5.3-3 5.4-5.7 0-2.4-2.2-2.1-4.8.6zM58.7 427.6c-1.6 1.6-.6 3.5 1.6 3.2 1.2-.2 2.2-1 2.2-1.8 0-1.6-2.6-2.5-3.8-1.4zM326.5 428.1c-.7 1.1 2.2 4.9 3.7 4.9 1.2 0 1-3.4-.4-4.8-1.5-1.5-2.5-1.5-3.3-.1zM545.7 430c-.3 1.1-.2 2 .2 2 .3 0 1.2-.9 1.9-2 1-1.6 1-2-.2-2-.7 0-1.6.9-1.9 2z"/><path d="M213.5 429.9c-1.7.4-4.4 1.6-6 2.7-2.9 1.9-2.9 1.9-.6 2.2 1.3.2 4.3-.1 6.7-.7 2.4-.6 6.1-.9 8.1-.5 2.1.3 5.2 0 6.8-.6 2.9-1.1 2.9-1.2 1.1-2.6-2.1-1.5-10.8-1.8-16.1-.5zM19.5 431c-.6 1 .5 4 1.5 4 .4 0 1.3-.7 2-1.5.7-.9 2.1-1.4 3.1-1.3 1 .2 1.7-.1 1.6-.7-.2-1.1-7.5-1.6-8.2-.5zM273.9 432.7c-1.5 1.7-1.7 8.3-.4 17.1 1 7.1 2.9 6.5 6.5-2.1 3.2-7.4 3-9.9-1.2-14.5-2.6-2.6-3.1-2.7-4.9-.5zM504.5 434.4c-1.4 1.4-2.5 3.7-2.5 5.1 0 1.8-.5 2.5-1.8 2.5-2.3 0-5.2 3-5.2 5.3 0 2.9 2.9 1.9 5.2-1.8 1.3-1.9 2.8-3.5 3.3-3.5 1.7-.1 5.5-4.6 5.7-7 .4-3.3-1.7-3.5-4.7-.6zM93 437c2.7 3.8 4 4.6 4 2.3-.1-2.5-2.4-5.3-4.4-5.3-1.5 0-1.5.3.4 3zM54 437.5c0 1-1 1.5-3.4 1.5-4.4 0-5.1 1.2-3.1 4.9.8 1.7 1.5 3.9 1.5 5.1 0 1.9-.6 2-11.1 2-10.9 0-11 0-10.7 2.2.3 2.2 1.1 2.5 5.3 1.7 1.8-.4 2 .1 2 4.8 0 3.8.5 5.6 1.8 6.5 1.5 1.1 1.5 1.8.5 5-.6 2.1-1.6 3.9-2.2 3.9-.6.1-2.9.2-5.1.3-3.4.1-4 .4-3.7 2.1.2 1.1.5 3.5.7 5.3.3 3.3 5.6 9.1 8.3 9.2.7 0 2 .9 2.9 2 3.4 3.9 5.7 1.5 3.2-3.2-1.6-3 .4-4.5 2.8-2.2 1.1 1.1 2.8 2.4 3.9 3 1.8 1.1 1.8 1.3-.8 4.1-1.6 1.6-2.8 3.3-2.8 3.9-.1 2.2-4.1 5.6-6 5.1-2.5-.6-2.6 1.3-.5 7.3.8 2.3 1.5 6 1.5 8.1 0 3.2.3 3.9 2 3.9 3.3 0 4.6-4.1 2.6-8.1-1.9-3.9-1.3-8.5 1.5-11.2 1.1-1 1.9-2.5 1.9-3.3 0-.9.6-1.4 1.3-1.2 1.7.6 2.2 17.5.6 19.4-.9 1.1-.9 1.8.1 2.9.7.8 1 2.5.6 3.9-.5 2.1-1.3 2.5-4.9 2.8-3.6.3-4.2.6-4.1 2.5.1 3.7-1.3 2.6-2.1-1.5-.4-2-1-4.2-1.5-4.7-.4-.6-1-3.9-1.3-7.4-.6-7.1-1.7-9-3.9-6.7-1.9 1.9-3.1 9.1-1.9 11.4.5 1 .5 5.7.1 11.2-2.1 24.4-2.1 27 0 27 1.1 0 2-.3 2-.8 0-.4 1.7-1.6 3.7-2.7 4.4-2.4 7.3-5.3 7.3-7.4 0-.9.6-2.8 1.4-4.2.7-1.4 1.6-3.7 2-5.2.3-1.5 1.9-3.3 3.4-4.1 1.5-.8 3.6-2.4 4.7-3.6 1.9-2.1 1.9-2.3.2-5.2-.9-1.6-1.7-4.2-1.7-5.8 0-2.7.1-2.7 4.3-2.3 3.2.4 4.8.1 6-1.2 2.7-2.6 2-3.3-2.8-2.7-3 .3-4.5.1-4.5-.7 0-.6.8-1.4 1.8-1.8 2.8-1 5.2-3.5 5.2-5.5 0-2.2-1.8-2.3-5.6-.3-2.2 1.1-3 1.2-3.6.2-1.4-2.2-.8-4.4 1.5-6l2.2-1.5-2.7-1.2c-2.2-1-2.5-1.6-1.8-3.1 1.3-2.3 1.3-5.5 0-8-.9-1.5-1.5-1.7-2.9-.9-1.3.7-2.2.6-2.9-.3-1.7-2 .1-3.9 2.9-3.2 1.4.3 3.6.2 4.9-.3l2.5-1-2.9-1.1c-1.5-.6-3.8-1.1-5-1-4.7.4-5.6 0-5.6-3 0-1.6.9-4.8 2-7.2 1.1-2.4 2-5.8 2-7.6 0-3.8 1.2-4.8 3.9-3.3 1.6.8 2.1.6 2.6-1 .8-2.6-.1-4-2.6-4s-2.4-1.6.1-3c1.4-.7 1.9-1.7 1.5-2.9-.3-1 .1-2.4 1-3.1.9-.7 1.3-2.1 1-3.1-.4-1.2.1-2.2 1.5-2.9 1.1-.6 1.8-1.5 1.5-2.1-1-1.5-4.5-1-4.5.6zm-12.6 43c2.1 1.6 1.3 3.5-1.4 3.5-2.3 0-7-2-7-3 0-2.3 5.5-2.7 8.4-.5zM77.5 437c-.8 1.3.4 3.2 1.6 2.5 1.2-.8 1.2-3.5 0-3.5-.6 0-1.3.4-1.6 1zM86.3 437.7c-.4 1-1.1 2.1-1.7 2.5-1.6 1.1 0 2.1 2.3 1.3 1.4-.4 2.1-1.5 2.1-3.1 0-2.8-1.8-3.2-2.7-.7zM29.6 438.7c-1.1 1.1-.6 2.3.9 2.3.8 0 1.5-.4 1.5-.9 0-1.3-1.6-2.2-2.4-1.4zM535.2 440.2c-1.2 1.2-1.7 4.8-.6 4.8.9 0 5.4-4.4 5.4-5.3 0-1.1-3.5-.8-4.8.5zM65 441.9c-1.3 2.5.7 4.1 4.5 3.8 4-.3 3.8-2.5-.2-4.2-3-1.3-3.4-1.2-4.3.4zM24.3 443.8c-2.1.2-3.3.9-3.3 1.8 0 2 2.6 2.8 6 1.8 2.4-.7 2.7-1.2 1.7-2.4-.7-.9-2.4-1.4-4.4-1.2zM174.8 445.3c-1.6 1.3-2.8 3.1-2.8 4 0 1.6.2 1.6 2.9.2 1.7-.8 4.2-2.6 5.7-4l2.7-2.5h-2.9c-1.6.1-4.1 1.1-5.6 2.3zM144.5 444.9c-1.1.5-2.2 2.1-2.5 3.7-.5 2.8-.7 2.9-7 3-10.5.2-10.8.3-8.7 1.5 2.3 1.4 2.2 4.5-.3 5.2-1.1.3-2 1-2 1.7 0 .8 1.3.4 3.6-.9 4-2.4 9.6-2.8 11.3-.7.8.9 1.1 5.3.9 13.2-.3 11.7-.3 11.8-2.8 12.4-3.3.8-3.2 3.4.1 3.8 3.1.4 5.9-2.1 5.9-5.2 0-1.2.7-3.1 1.5-4.2.8-1 1.5-4.1 1.5-6.9 0-2.8.7-5.9 1.5-6.9.8-1.1 1.5-3.3 1.5-4.8 0-1.6.7-3.1 1.5-3.4.8-.4 1.5-1.7 1.5-3s.9-3.2 2-4.2c3.2-2.9 1.6-5.2-3.4-5.1-2.2 0-5 .4-6.1.8zM250 444.7c-3.7 1.1-9 3.7-9 4.5 0 1.4 3.7.9 5-.7.7-.8 2.1-1.5 3.1-1.5s2.1-.5 2.4-1.1c.9-1.3.4-1.7-1.5-1.2z"/><path d="M36.5 446c-.3.5.3 1 1.4 1 1.2 0 2.1-.5 2.1-1 0-.6-.6-1-1.4-1-.8 0-1.8.4-2.1 1zM77.6 445.8c-.3.6-.1 1.4.5 1.7 1.5 1 2.5-.3 1.2-1.6-.7-.7-1.3-.7-1.7-.1zM522 447.1c0 1.8.2 1.9 1.5.9.8-.7 1.5-1.6 1.5-2.1s-.7-.9-1.5-.9c-.9 0-1.5.9-1.5 2.1zM317.7 446.9c-2.7 1-4.8 4.9-6.6 12.4-2.4 10.1-.6 14.3 2.8 6.4 1-2.3 2.6-4.8 3.5-5.6 1.9-1.6 2.1-5.2.4-7-1.1-1-.8-1.7 1.5-3.5 4-3.2 3.2-4.6-1.6-2.7zM511.8 447.4c-2.2 1.6-2.3 3.6-.4 3.6 1.6 0 4.6-2.6 4.6-4.1 0-1.3-2.2-1.1-4.2.5zM501.7 450c-2.1 2.5-2.2 4.6-.2 5.4.8.3 1.5 1.5 1.5 2.6s.7 2.3 1.5 2.6c.8.4 1.5 1.4 1.5 2.4s.3 2.6.6 3.5c.6 1.4.8 1.4 2.5-.1 2.5-2.3 3.6-1 1.9 2.1-1.6 2.9-.9 3.9 1.8 3.1 3-1 3.5-3.6 1.3-6-1-1.2-2.1-3-2.3-4.1-.2-1.1-1.2-2.1-2.4-2.3-1.7-.2-2-.8-1.6-2.9.4-2.3.2-2.5-1.7-2-2.4.6-3.8-1-2.2-2.6 1.3-1.3 1.5-3.7.3-3.7-.4 0-1.5.9-2.5 2zM527.6 451.1c-2.5 2.5-.8 2.4 2.4-.1 1.6-1.3 2-1.9 1-1.9-.8 0-2.4.9-3.4 2zM490.3 451.2c-2.5 1.2-3.4 3.8-2.1 6.2.9 1.6 1.2 1.6 3.4-.5 1.3-1.2 2.4-3.3 2.4-4.6 0-2.5-.5-2.7-3.7-1.1zM514.6 453.1c-1.8 2.1-1.7 2.2.7 4.3 1.4 1.1 2.7 3 2.9 4 .5 2.9 2.3 3 3.6.1 1.7-3.7 1.5-4.8-.8-4.2-2.4.6-3.7-1-2.1-2.6.6-.6 1.1-1.7 1.1-2.4 0-2-3.4-1.5-5.4.8zM254.3 452.7c-1.8.6-1.6 3.3.1 3.3 1.9 0 3.1-1.9 2-3-.5-.4-1.5-.5-2.1-.3zM27.7 458.2c-.4 1-.9 2.5-1.2 3.4-.4 1.2-1.2 1.4-3.4.9-1.7-.3-3.9-.1-5.1.5l-2.2 1.2 2.1 1.9c1.2 1.1 2.1 2.9 2.1 3.9 0 1.7-.7 2-4.5 2-3.9 0-4.6.4-6 3-.8 1.6-1.5 4.5-1.5 6.6 0 3.6.1 3.6 3.2 3 8.7-1.7 10.5 0 5.5 5-3.4 3.5-3.8 3.6-6.7 2.4-1.6-.7-3-1.8-3-2.6 0-.7-1.2-1.4-2.8-1.6-2.4-.3-2.7-.7-2.5-3.6 0-1.8.9-4.2 1.8-5.2 2-2.2 1.2-4-1.6-4-1.8 0-1.9.8-1.9 11.7.1 12.4.9 15.3 4.6 15.3 1 0 2.8-1.3 3.9-2.9 3.1-4.7 10.2-5.1 9.1-.6-.4 1.4 0 2.8.9 3.5.8.7 1.5 1.8 1.5 2.6 0 1.9 2 2.8 3.3 1.5.8-.8 1.4-.3 2.4 2 2.1 5 3.8 3.1 3.8-4.5.1-6-.2-7.1-2.6-9.6-1.5-1.5-3.3-3-3.9-3.2-.9-.3-1.4-3.1-1.5-9-.1-7.6.1-8.7 1.7-9.1 1.4-.4 1.7-1.1 1.2-3.5-.5-2.5-.2-3 1.8-3.5 1.2-.4 3.4-.7 4.8-.7l2.5-.1-2.2-1.8c-1.1-1-2.3-2.9-2.5-4.2-.4-2-.6-2.1-1.1-.7zM481.7 459c-2.1 2.5-2.2 4.4-.1 6.1 1.4 1.1 1.9.9 3.5-1.1 2.3-3.1 2.3-3.3.1-5.3-1.7-1.5-1.9-1.5-3.5.3zM494 458.5c0 .8-.4 1.5-.9 1.5-1 0-2.4 3-1.7 3.7.2.2 1.5.1 3-.3 2.1-.5 2.6-1.2 2.6-3.5 0-1.9-.5-2.9-1.5-2.9-.8 0-1.5.7-1.5 1.5zM153 462.1c0 1.4-.6 3.3-1.4 4.4-.7 1.1-1.6 4.4-1.9 7.4-.4 3-1.1 5.9-1.7 6.5-1.1 1.1-1.4 7.5-.4 10 .3.9 1.3 1.6 2.1 1.6 1.2 0 1.4-.8.9-3.9-.3-2.3-.2-4.2.4-4.6 1.8-1.1 4.1-7.9 3.6-10.7-.3-1.5 0-3.1.8-3.7 1.1-.9 1.1-1.8.2-4.6-1.6-4.5-2.6-5.4-2.6-2.4zM58.3 462.4c-1.3.6-2.3 1.4-2.3 1.8 0 .5-1.1 1.8-2.5 3-3.2 2.8-3.7 9.8-.6 9.8 1.5 0 2.1-1 2.6-4 .4-2.6 1.7-4.8 3.6-6.4 1.6-1.4 2.9-3.2 2.9-4 0-1.8-.5-1.8-3.7-.2zM496 465.5c-.7 1.4-1.1 2.8-.8 3.1.9.9 5.9-2.7 5.5-4-.7-2.1-3.3-1.7-4.7.9zM291 467.5c-.5 1.3-2.1 4.2-3.5 6.4-2.8 4.6-3.6 9.3-.8 5.3 1-1.4 2.6-2.2 4.4-2.2 3.6 0 3.8-.4 3.2-6.8-.6-5.6-1.8-6.7-3.3-2.7zM475.8 465.7c-1.9.5-3.4 4.5-2.4 6.1.3.5 1.7.7 3.1.4 2.1-.4 2.5-1 2.5-3.8 0-1.9-.3-3.3-.7-3.3-.5.1-1.6.3-2.5.6zM487.2 466.5c-2.4 1.7-3 5.5-.9 5.5 1.6 0 4.1-4.3 3.6-5.9-.3-.8-1.2-.6-2.7.4zM133 468.5c-1.5 1.6-2 3-1.6 4.2.7 1.7.8 1.7 1.8-.2.6-1.1 1.7-2.7 2.5-3.7 2.3-2.6-.2-3-2.7-.3zM499.6 470.2c-.8 3.3-.8 3.5 1 4.2 2 .8 4.4-1.1 4.4-3.4 0-1.6-1.8-3-4-3-.4 0-1 1-1.4 2.2zM489.6 472c-1.8 1.9-1.6 5 .3 5 1.2 0 4.1-4 4.1-5.7 0-1.9-2.2-1.5-4.4.7zM467 475.9c0 4.5 1.6 5.4 4.4 2.5 2-1.9 2.1-5.4.2-5.4-.8 0-2.1-.3-3-.6-1.3-.5-1.6.2-1.6 3.5zM481.4 473c-2.2.9-3.7 3.4-2.7 4.4 1.2 1.1 3.3.6 3.3-.8 0-.8.5-1.6 1.2-1.8.6-.2.9-.9.7-1.5-.2-.6-1.2-.8-2.5-.3zM790.5 473c-.3.5.3 1 1.4 1 1.2 0 2.1-.5 2.1-1 0-.6-.6-1-1.4-1-.8 0-1.8.4-2.1 1zM302 475.8c0 1-.5 2.3-1.2 3-.7.7-.8 1.2-.2 1.2.5 0 1.8-1.4 2.7-3 1.6-2.6 1.6-3 .3-3-.9 0-1.6.8-1.6 1.8zM185.7 475.7c-.4.3-.7 1.7-.7 3 0 3-2.3 3-4.8-.2-2.4-3-5.7-3.2-7.2-.5-1.5 2.8.5 6.7 2.5 5 1-.9 2-.7 4.1.6 2.5 1.7 2.7 1.7 3.9.1.7-.9 2.3-1.7 3.6-1.7 3.8 0 12-2.4 12-3.5-.1-.5-2.4-1.1-5.3-1.3-2.9-.1-5.7-.7-6.3-1.2-.7-.6-1.5-.7-1.8-.3zM461.2 483.2c.2 2.5.8 3.3 2.3 3.3 1.6 0 2-.7 2-3 0-2.4-.5-3.1-2.3-3.3-2.1-.3-2.3 0-2 3zM473 482.6c-1.2 3-.8 3.9 1.5 3.1 1.7-.7 2.1-4.2.5-5.2-.6-.3-1.5.6-2 2.1zM649.3 481.2c-1.6.8-2.3 2-2.3 4 0 1.7.4 2.7 1 2.3.6-.3 1-1.5 1-2.7 0-1.8.5-2 4.5-1.6 2.5.2 4.5 0 4.5-.3 0-.6-5.9-3.1-6.4-2.8-.1 0-1.1.5-2.3 1.1zM434 485c0 .5 1.1 1 2.5 1s2.5-.5 2.5-1c0-.6-1.1-1-2.5-1s-2.5.4-2.5 1zM541.5 486c-.3.5-.1 1.8.5 2.9.5 1.1 1 3.1 1 4.5 0 2.6 2.1 4.8 2.7 2.9.2-.6 1.2-.9 2.1-.7.9.2 2.4 0 3.2-.6 1.3-.8 1.2-1.2-.7-2.5-3.5-2.5-5.3-4.5-5.3-6.1 0-1.6-2.6-1.9-3.5-.4zM125 488.5c0 1.4-.7 4.1-1.5 6l-1.4 3.5 3.6 1.5c3.1 1.3 3.8 1.3 5.2.1 1.6-1.3 6.3-2.9 9.1-3 .9-.1 1.6-1.3 1.8-3.4.4-3.5-.1-3.7-6.5-3.3-2.1.2-4.3-.5-5.9-1.8-3.5-2.7-4.4-2.6-4.4.4zM476 488c0 1.1.6 2.3 1.4 2.6.8.3 1.7 2.1 2 4 .7 3.6 1.5 4.1 3.4 2.2 1.8-1.8 1.5-4.2-.8-5.6-1.1-.7-2-1.8-2-2.6s-.7-1.7-1.6-2c-2.3-.9-2.4-.8-2.4 1.4zM240.2 488.7c.5 2.4 5.6 4.9 7.1 3.4 1.8-1.8-.5-4.6-4.2-4.9-2.7-.3-3.2 0-2.9 1.5zM426 488c0 .5.9 1 2.1 1 1.1 0 1.7-.5 1.4-1-.3-.6-1.3-1-2.1-1s-1.4.4-1.4 1zM455.4 490c.5 2.8.3 3-2.4 3-1.6 0-3.3.7-3.7 1.5-2.1 3.7-19.7 22-24.3 25.2l-2.1 1.5 2.2 2.4c3 3.2 4.3 3 7.6-1.2 5.7-7.4 13.9-16.9 17.9-20.9 2.3-2.2 4.5-5 4.8-6.3.4-1.2 1.4-2.2 2.1-2.2 1.9 0 2.7-1.7 2-4-.4-1.1-1.5-2-2.7-2-1.7 0-2 .4-1.4 3zM651.2 488.7c-2.9.6-1.9 2.3 1.4 2.3 1.5 0 2.4-.6 2.4-1.5 0-.8-.3-1.4-.7-1.4-.5.1-1.8.4-3.1.6zM422.2 490.9c.2.7.7 1.2 1.1 1.2 1.2-.1.9-1.5-.3-2-.7-.2-1.1.2-.8.8zM224 494.6c0 .9.5 1.4 1.2 1.2 1.8-.6 2.1-2.8.4-2.8-.9 0-1.6.7-1.6 1.6zM169 495c0 .5.7 1 1.5 1s1.5-.5 1.5-1c0-.6-.7-1-1.5-1s-1.5.4-1.5 1zM366 495.9c0 1.1 4 5.3 7 7.2 3.4 2.2 5.4 10.1 4.6 17.7-.9 8.7.6 9.3 3.7 1.7 3.2-7.8 3.3-9.2.7-12.5-1.1-1.4-2-4-2-5.8 0-2.2-.6-3.5-1.7-3.9-1-.4-3.3-1.7-5.2-3-3.4-2.3-7.1-3.1-7.1-1.4zM38 500.5c0 .8.7 1.5 1.5 1.5s1.5-.7 1.5-1.5-.7-1.5-1.5-1.5-1.5.7-1.5 1.5zM181 502.2l-2.5.9 2.6 2.2c1.7 1.4 2.8 3.6 3.2 6.2.4 2.4 1.5 4.7 2.9 5.9 1.3 1 2.1 2.6 2 3.4-.3 1.4-.1 1.4 1.2.2 1.4-1.1 2-1 3.9.6 3.2 2.8 6.5 4.3 12.1 5.3 2.8.5 5.3 1.6 5.8 2.6.9 1.5 1.1 1.5 2.3-.2 1.3-1.7 1.4-1.7 3.2 0 1.7 1.8 1.7 1.9-.2 3.4-1.9 1.4-1.7 1.5 2.3.9 2.4-.4 5.1-1.2 6.2-1.8 2.4-1.5 5 .4 4.3 3.2-.3 1.1 0 2 .6 2 1.4 0 1.5-6.7.1-7.5-1.9-1.2.1-2.5 4-2.5 4.2 0 5.7-1.9 4-4.9-1.4-2.7-10-3.3-17.4-1.4-7.2 2-13.3 1-22.6-3.6-6.6-3.3-9.3-5.8-11.5-10.7-2-4.4-3.5-5.4-6.5-4.2zM268.6 506.4c-2.1 3.2-2 3.6.4 3.6 2 0 6.8-3.6 5.9-4.4-.2-.2-1.4-.6-2.5-1-1.6-.5-2.6 0-3.8 1.8zM119.3 507.5c-.7 1.7-.8 2.7-.1 3.1 1.2.8 2.8-1.4 2.8-3.9s-1.3-2.1-2.7.8zM67.4 512.5c-.3.8-.3 1.9.1 2.5 1.1 1.8 2.5 1.1 2.5-1.5 0-2.7-1.7-3.4-2.6-1zM671 512c0 .5.7 1 1.5 1s1.5-.5 1.5-1c0-.6-.7-1-1.5-1s-1.5.4-1.5 1zM254.6 513.6c-1 2.5.2 3.4 3.7 2.7 4-.7 3.9-.7 3.1-2.7-.8-2.1-6-2.1-6.8 0zM472.7 512.7c-1.2 1.1-.8 2.3.8 2.3.8 0 1.5-.7 1.5-1.5 0-1.6-1.2-2-2.3-.8zM115.6 516.5c-1.1.8-3.2 1.5-4.8 1.5-1.5 0-2.8.5-2.8 1.1 0 .5 1 .9 2.3.7 1.6-.2 2.3.3 2.5 1.9.2 1.3-.1 2.3-.7 2.3s-1.1.4-1.1.9c0 1 5.8 1.2 6.4.2.9-1.5 1.6-10.1.9-10.1-.4 0-1.7.7-2.7 1.5zM533 520.9c0 4.8 1.5 7.5 2.9 5.3 1.2-2 0-10.2-1.5-10.2-1 0-1.4 1.4-1.4 4.9zM69.2 520c0 1.9.2 2.7.5 1.7.2-.9.2-2.5 0-3.5-.3-.9-.5-.1-.5 1.8zM576 520.5c0 1.4-.9 3.4-2.1 4.6-1.5 1.5-1.9 2.8-1.5 4.5.8 3 2.6 2.2 2.6-1.1 0-1.3.4-2.6.9-2.9 1.1-.7 2-7.6.9-7.6-.4 0-.8 1.1-.8 2.5zM17 521.5c-.7.8-1.9 1.5-2.6 1.5-2 0-3.8 4.3-3.1 7.2.6 2.2 1.1 2.4 7.2 2.5H25v-4.1c0-3.5-.5-4.6-3-6.4-3.5-2.6-3.4-2.6-5-.7zM357.7 521.4c-1.5.7-3.4 2.2-4.3 3.4-.8 1.2-2.6 2.2-4 2.2s-2.4.6-2.4 1.4c0 1.6-9.7 6.6-12.8 6.6-1.1 0-2.3.4-2.7.9-.3.5-2 1.3-3.8 1.6-1.7.4-4.6 1.8-6.4 3.1-3.7 2.8-4.3 2.9-4.3 1s-1.7-2.9-3.2-2c-.6.4-3.9.9-7.2 1.1-7.5.4-8.6.8-8.6 3.1 0 1.3-.7 1.8-2.7 1.7-2.3 0-2.7.4-2.5 2.2.4 2.8-1.8 3-2.5.3-.5-1.7-1.1-1.9-4.1-1.4-1.9.4-4.7 1.3-6.1 2-3.2 1.7-6.3 1.8-7.8.3-.9-.9-1.9-.9-4-.1-4.3 1.8-22.3 1.8-23.4 0-.5-.8-1.6-.8-4.1.3-1.8.7-4.3 1.2-5.5 1.1-1.3-.2-2.3.1-2.3.7s1.1 1.1 2.5 1.1 4.3.9 6.5 2 4.8 2 5.8 2 2.2.3 2.6.7c.4.5 4.8.8 9.7.8 6.4 0 8.9-.3 8.9-1.3 0-.8 2-1.2 6.5-1.2 3.6 0 6.5.4 6.5 1 0 1.2 2.9.2 5.2-1.7 1.8-1.6 3.8-1 3.8 1.2 0 1.8 7 3.9 8.4 2.5.7-.7.5-1-.5-1-1.5 0-4.2-4.8-3.3-6.1.8-1.3 3.2-1.1 3.7.3.3 1 .7 1 1.8.1s2.5-.9 5.7 0c3.9 1 4.8.9 9.5-1.4 2.9-1.4 7.9-3.4 11.2-4.4 8.1-2.4 12.7-4.7 13.2-6.6.3-.9 2-2.3 3.9-3.2 1.9-.9 3.4-2.1 3.4-2.6s1.8-1.7 4-2.7c2.9-1.3 4-2.4 4-3.9 0-3.1 1.1-3.8 2.6-1.7 1.6 2.1 4.7.6 5.2-2.7.4-2.4-1.6-2.7-6.1-.7zM563 523.1c-.7 1.2-.9 3.3-.5 4.7.4 1.5.8 8 .9 14.4.1 6.5.5 12.1.9 12.5 1.2 1.1 3.9-2.3 3.8-4.8 0-1.3-.9-8-2-14.8-1.2-6.8-1.8-12.7-1.5-13.2.3-.5.3-.9 0-.9s-1 .9-1.6 2.1zM105 524c0 1.1.5 2 1 2 .6 0 1-.9 1-2s-.4-2-1-2c-.5 0-1 .9-1 2zM272.1 526.4c-.9 1-.9 1.6-.1 2.1 1.7 1 6.2-.4 5.7-1.8-.5-1.8-4.2-2-5.6-.3zM689.5 526.9c-1.4.5-2.2 2-2.5 4.7-.4 3.3-.9 3.9-3.2 4.2-2.8.3-4.6 3-2.5 3.7.6.2 2.6.6 4.2.7 2.8.3 3 .1 3.3-3.7.3-3.8 3.8-8.5 6.3-8.5.6 0 .7-.5.4-1-.7-1.2-3.1-1.2-6-.1zM61.2 528.2c-1.3 1.3-1.6 5.8-.4 5.8 1.5 0 4-2.5 4.7-4.8.5-1.7.2-2.2-1.2-2.2-1.1 0-2.4.5-3.1 1.2zM108.3 530.5c-.3.9-.3 1.9.1 2.2.8.9 3.7-1.8 3-2.8-.8-1.4-2.4-1.1-3.1.6zM116 531.4c0 .8.5 1.8 1 2.1.6.3 1-.3 1-1.4 0-1.2-.4-2.1-1-2.1-.5 0-1 .6-1 1.4zM179.8 531.6c-.5.4-.8 1.6-.8 2.8 0 1.4.3 1.7 1.1.9.6-.6.9-1.9.7-2.8-.1-.9-.6-1.3-1-.9zM64.5 536c.3.5 1.3 1 2.1 1s1.2-.5.9-1c-.3-.6-1.3-1-2.1-1s-1.2.4-.9 1zM759.5 536c-.4.6.7 1 2.5 1s2.9-.4 2.5-1c-.3-.6-1.5-1-2.5-1s-2.2.4-2.5 1zM584.7 541.2c-.3 2.3-1.3 4.8-2.3 5.5-1.3 1-1.6 2.4-1.2 7.8.2 3.7.9 6.9 1.5 7.3.6.4 1.3 2.5 1.5 4.7.4 5 2.2 5.3 2.6.4.2-2.3-.2-4-1.2-4.9-2-1.6-2-6-.1-13.3 1.7-6.5 1.9-10.3.6-11.1-.5-.3-1.1 1.3-1.4 3.6zM93 540.5c0 1.8.5 2.5 1.9 2.5 2.3 0 3.7-3 1.9-4.2-2.4-1.4-3.8-.8-3.8 1.7zM551.7 538.7c-1 1 1.3 3.3 3.3 3.3 1.8 0 3.4-2.3 2.3-3.4-.8-.8-4.8-.8-5.6.1zM834 541.5c0 .8.5 1.5 1 1.5.6 0 1-.7 1-1.5s-.4-1.5-1-1.5c-.5 0-1 .7-1 1.5zM15 541.9c-2.8.5-3.1.8-1.7 1.4 2.7 1 8.5.9 9.2-.3.3-.6.2-1-.4-1-.5 0-1.5-.2-2.3-.4-.7-.2-2.9 0-4.8.3zM573 547.8c0 2.8.4 5.3.8 5.6.5.3.9 2 1 3.7 0 1.7.6 3.7 1.2 4.3 1.3 1.2.9-5.7-.8-13.2-1.4-6.1-2.2-6.3-2.2-.4zM616.8 544.9c-1 1-1.8 2.3-1.8 2.9 0 .6-.7 1.8-1.7 2.7-1.3 1.3-1.6 3.7-1.6 11.5-.1 9 .4 12.2 1.8 10.8.3-.2.7-4.3.9-9.1.4-6.4 1.1-10 3-14.2 1.5-3 2.6-5.8 2.6-6 0-1-1.6-.3-3.2 1.4zM127 546c0 .5.7 1 1.5 1s1.5-.5 1.5-1c0-.6-.7-1-1.5-1s-1.5.4-1.5 1zM645.8 548.1c-1 1-1.8 2.6-1.8 3.4 0 .8-.4 1.5-1 1.5-.5 0-1-.9-1-2s-.6-2-1.3-2c-2.1 0-4.7 3.4-4.7 5.9 0 1.8.4 2.2 1.8 1.5 3.8-1.6 9.4-1.6 13.3.1 2.8 1.3 5.3 1.6 9.1 1.3 2.9-.3 4.5-.3 3.5-.1-4.9 1.2 2.4 4.8 7.6 3.7 3.4-.7 3.5-2.2.2-3-3.5-.9-3.1-2.4.5-2.4 1.7 0 3 .4 3 .9 0 1 3.6 2.1 4.4 1.4.3-.3-1.1-1.4-3.2-2.5-2.5-1.3-6.2-2-11.5-2.2-5.1-.2-8.2-.7-8.7-1.6-.4-.7-1.8-1.3-3.1-1.4-1.5-.1-2.8-1-3.4-2.4-1.2-2.6-1.5-2.6-3.7-.1zM107.5 550c-.7 2.3-2.5 2.6-4.3.8-.9-.9-1.2-.8-1.2.7 0 1-1.1 3.3-2.6 5.2-2 2.6-3 3.2-4.8 2.7-2.9-.7-4.4 1.2-1.6 2.1 1.3.4 2 1.5 2 3.1 0 2.7 2 3.4 2 .6.1-2.3 2.7-5.3 7.5-8.2 3.8-2.4 7.5-5.5 7.5-6.5 0-.2-.9-.9-1.9-1.5-1.6-.8-2.1-.6-2.6 1zM119.6 552.5c-1.9 3-2 3.5-.3 3.5s5.9-4.4 5-5.3c-1.3-1.3-3.1-.7-4.7 1.8zM361.2 552c-1.3 1.1-4.7 2.7-7.4 3.5-2.8.8-5.7 2-6.5 2.7-1.1.9-7.7 1.2-23.9 1.1-12.3 0-22.1.4-21.8.9.3.4 1.6.8 2.9.8 2.7 0 10.5 7 10.5 9.5 0 2.6 9.3 15.6 13.1 18.3 1.1.7 1.9 2.2 1.9 3.3 0 1.2.4 1.7 1.1 1.3 1.3-.8.4-6-1.4-7.8-.7-.7-3-3.6-5.2-6.4-2.1-2.9-4.2-5.2-4.6-5.2-1.2 0-3.9-6.1-3.9-8.5 0-2.9 2.7-3.9 5.5-2.1 1.5 1 4.8 1.4 10.6 1.4 8.4-.1 18.4 2 22.3 4.8 1.4.9 4.1 1.1 10.1.7 6.5-.5 8.9-.2 11.5 1.1 1.8.9 4.8 1.6 6.6 1.6 2.4 0 3.4.5 3.9 2 .7 2.2 3.4 2.7 5.2.9 1.4-1.4 5.1-.3 5.7 1.9.5 1.6 2.3 3.8 10.2 13 5.6 6.5 10.6 10.2 13.6 10.2 1.4 0 9.9 9.2 11.9 13 1 1.9 1.9 4.9 1.9 6.7 0 2.7.5 3.4 2.6 3.9 1.9.5 3.2 0 5.5-2.2 3.3-3.2 3.7-7.6.6-8.2-2.3-.5-7.9-5.6-7.1-6.5.4-.4 2.3-.7 4.3-.7 4 0 10.1-1.9 12.4-3.8 2-1.7 3.1-8.5 1.8-11-.9-1.8-.7-2.1 1.7-2.7 1.5-.3 5.1-2.7 8-5.3 4.5-4 5.3-5.3 5-7.7-.4-3.7-2.5-4.4-3.4-1.1-.4 1.6-2.6 3.9-6.1 6.2-3 2-5.7 4.3-6 5.2-2 6.4-3.3 7.9-7 8.6-2.9.4-4.4.1-6.5-1.4-1.5-1.1-3.6-2-4.7-2-1.9 0-1.9.1.2 3.8 3.4 6.3.4 9.8-5.8 6.9-2.6-1.3-3.4-2.3-3.8-5.4-1.3-8.4-2-10.1-6.3-14.3-3.1-3-4.4-5.1-4.4-7 0-3.7-8.9-13.4-11.3-12.4-.9.3-1.7 1.3-1.7 2.2 0 1.5-1.4.8-1.6-.9-.1-.5-.2-1.2-.3-1.7 0-.4-1.8-1.6-3.8-2.7-2.1-1.1-4.9-2.7-6.2-3.7-3.3-2.5-3.9-2.3-5.7 1.5-2.1 4.3-7.8 6.8-10.2 4.3-1.3-1.2-1.3-2-.4-4 1-2.2.8-2.9-1.6-5.5-3.2-3.7-8.4-4.2-12-1.1zm38.6 20.7c.2.8-.6 1.3-2.2 1.3-1.7 0-2.6-.5-2.6-1.6 0-1.9 4.1-1.6 4.8.3z"/><path d="M216.5 553c-.3.6 0 1.6.7 2.3.7.8 4.2 4.6 7.8 8.6 6.3 7.1 16.8 16.1 18.8 16.1.5 0 1.2.7 1.6 1.5.3.8 1.3 1.5 2.2 1.5 1 0 2.5.6 3.3 1.3.9.7 3.6 2.1 6.1 3.1 7.4 3 11.4 5 12.5 6.2.6.7 2.8 2.3 5 3.7 2.2 1.4 6.3 4.7 9 7.4 10.8 10.5 20.3 16.1 24.6 14.8 1.1-.4 3.1.8 5.5 3.2 5.5 5.4 8.8 7.3 12.7 7.3 2.6 0 4.4.9 7.3 3.8 4.4 4.2 10.4 11.6 10.4 12.7 0 .4 1.4 2.4 3 4.5 1.7 2.1 3 4.3 3 4.8 0 .6.6 1.5 1.3 1.9.7.4 2.5 2.8 4.1 5.3 1.6 2.4 4.3 5.8 6.1 7.5 1.7 1.6 5.2 5.7 7.7 9 6.6 8.5 17.6 19.7 18.8 19 .6-.3 1-1.3 1-2.2 0-.8 1.4-3.5 3-6 5.1-7.5 5-8.8-1.6-17.3-3.1-4.1-6.3-7.9-7.1-8.3-1.7-1-1.7-3.6.1-4.3.8-.3 2.5.1 3.8.9 1.3.8 5 1.8 8.2 2.2 3.3.4 7.4 1.4 9.1 2.2l3.3 1.6 5.6-5.9c3.1-3.2 5.6-6.2 5.6-6.7 0-.4 1-2.1 2.1-3.7 1.3-1.6 1.9-3.5 1.5-4.5-.6-1.6 2.1-11.5 3.4-12.5.3-.3 1.6-2.1 2.7-4 1.7-2.7 2-4.5 1.6-7.8-.3-2.3-1.2-4.7-1.9-5.3-.8-.6-1.4-2.5-1.4-4.1 0-2.3-.4-2.9-1.7-2.6-1.5.3-1.7 1.3-1.5 6.5.3 5.4.1 6.3-1.7 7.3-1.5.8-2 1.7-1.6 3.3.4 1.6-.2 3.1-1.9 5-1.4 1.6-2.7 3.6-2.7 4.5-.1.9-.3 2.6-.4 3.7-.1 1.1-.2 3-.3 4.3-.1 1.4-1.1 2.6-2.6 3.2-1.4.5-2.6 1.9-2.8 3.2-.5 3.6-5 5.1-16 5.3-6.1.1-10.3.7-11.3 1.5-1.2 1-1.6.9-2.2-.6-.9-2.6-2.5-4-5.1-4.8-1.2-.4-2.2-1.6-2.2-2.6s-1.6-4-3.5-6.6c-1.9-2.7-4.3-6.5-5.4-8.4-1-1.9-2.8-4.4-4-5.4-1.2-1.1-2.1-2.3-2.1-2.9 0-.5-1.3-2.6-3-4.7-1.6-2.1-3-4.3-3-4.9 0-.7-.7-1.4-1.5-1.7-.8-.4-1.5-1.5-1.5-2.5s-.4-1.9-1-1.9c-.5 0-1.2-1.1-1.6-2.5-.7-2.8-2.9-3.3-3.8-1-.8 2.2.1 3.9 2.7 5 1.6.7 2.3 2.1 2.7 5 .4 3.2.9 4.1 2.8 4.3 2.5.4 2.6.5 1.3 3-.5.9-1.2 2.6-1.6 3.7-.5 1.8-.8 1.7-3.6-1.3-2.9-3.1-4.9-3.5-4.9-.9 0 .7 1.8 2.9 3.9 5 3.1 3 4.4 3.7 6.4 3.2 2.9-.8 4.8.8 10.3 8.7 2.1 2.9 4 5.5 4.3 5.8.4.3 1.2 1.7 1.8 3.2.7 1.6 1.7 2.8 2.3 2.8.5 0 1 1.2 1 2.6 0 3.1-3.6 9.4-5.3 9.4-.7 0-2.3-1.7-3.7-3.8-1.4-2-2.9-4.2-3.5-4.9-.5-.7-1.5-1.8-2.1-2.6-.6-.7-1.3-1.8-1.5-2.3-.5-1.3-8.4-12.3-12.6-17.6-1.8-2.2-3.3-4.4-3.3-5 0-.6-1.1-1.9-2.5-3s-2.5-2.6-2.5-3.4c0-.8-1.1-1.9-2.4-2.4-1.4-.5-3.2-2-4.1-3.4-1.7-2.6-5.1-2.5-4.1 0 .8 2.2-2.2 1.6-3.4-.6-.6-1.1-1.9-2-2.8-2-1 0-3.5-1.2-5.7-2.7-4.9-3.3-10.5-6.3-12-6.3-.6 0-3-1.8-5.3-4-2.2-2.2-4.3-4-4.6-4-.3 0-1.6-.9-2.8-2-7.7-6.9-9.3-8-10.8-8s-3.7-1.7-6.9-5.5c-.9-1.1-2.2-1.5-3.7-1.1-1.8.5-3.2-.2-6.1-2.9-2-1.9-4.6-3.5-5.6-3.5-1.1 0-3.2-1.1-4.9-2.5-1.6-1.4-3.5-2.5-4.2-2.5-.7 0-3.4-2-5.9-4.5-2.6-2.5-5.5-4.5-6.6-4.5-1.1 0-2.8-1.1-3.9-2.5-1-1.3-4.1-3.5-6.7-5-5.5-2.9-5.2-2.8-6-1.5zm161.9 109.6c.5 1.6 1.2 3.8 1.7 4.9.4 1.1 1 3.2 1.3 4.7.3 1.4 1.7 4 3.1 5.6 1.4 1.7 2.5 3.5 2.5 4.1 0 2.4-2.6.8-8.7-5.4-6.4-6.5-8-10.6-4.8-11.9.8-.3 1.5-1.7 1.5-3.2 0-3.4 2.2-2.7 3.4 1.2zM686 557.1c0 1.5 5.8 5.9 7.7 5.9.6 0 1.3.6 1.6 1.4.4.9 1.9 1.2 5.4.9 7.2-.6 8.2.5 5.4 6.2-2.6 5.2-2.3 7.1 1.4 8.5 1.4.5 2.5 1.6 2.5 2.4 0 .8 1.1 2.3 2.4 3.4 1.7 1.3 2.6 3.3 3.1 6.6.8 5 2.1 5.1 2.7.2.4-3.7 4.3-5.1 8.3-3 1.5.8 4.4 1.4 6.4 1.4s4.9.7 6.5 1.5c3 1.6 4.6 1.2 4.6-1.1 0-1.3-1-1.9-7.5-4.4-1.1-.5-5.9-1.3-10.7-2-6.6-.9-9.1-1.7-10.6-3.3-3.3-3.7-3.7-6.6-1.1-9.3 2.6-2.8 4.7-3.1 6.3-.9.8 1.2 3.3 1.6 9.1 1.8l8 .2-.3 3.2c-.4 3.5.8 4.2 2.8 1.8.7-.8 2.2-1.5 3.5-1.5 3.6 0 3.7-1.3.3-2.8-1.8-.8-3.7-1.4-4.2-1.3-2.1.5-7.6-2.2-8.1-4-.6-1.9-.8-1.9-2.5-.4-2.2 2-7.1 1-7.7-1.6-.4-1.5-1.5-1.9-4.4-1.9-2.2 0-3.9-.4-3.9-.9 0-.4-2.1-1.1-4.6-1.4-2.6-.2-4.9-.9-5.3-1.5-.3-.5-2.2-1.2-4.1-1.5-7.9-1.3-10.6-2-11.7-2.9-.9-.7-1.3-.6-1.3.3zM109.5 562.5c-3.9 3.5-4.7 4.7-3.6 5.4 1 .6 2.9-.2 6.2-2.6 5.8-4.1 6.6-5.2 4.8-6.4-2-1.3-2-1.3-7.4 3.6zM211.1 561.1c-3.9 6.2-4.8 11.5-4 22.9.3 5.8.3 10.9-.1 11.5-1 1.3-.3 13.5.9 14.9 1.6 1.9 2.6 15.7 1.2 16.5-.8.6 0 2.9 2.9 7.9 2.3 3.9 3.9 7.6 3.6 8.1-.4.5.7 3 2.4 5.4 1.6 2.5 3 5.2 3 6.1 0 .8 1.6 4.9 3.5 9.1 3.1 6.4 3.9 7.5 6.1 7.5 2.2 0 2.4-.3 1.9-2.3-.9-3.2-3.8-8.9-5.2-10.5-.7-.7-1.3-2.2-1.3-3.2s-.7-3.1-1.5-4.6c-.8-1.6-1.5-3.7-1.5-4.7 0-.9-.4-2.5-.9-3.5-2-4-3.4-9.1-4.1-14.7-.4-3.3-1.3-7.3-1.9-8.9-1.6-4-1.8-43.3-.3-44.8 1.9-1.9 1.4-11-.7-13.7l-1.9-2.5-2.1 3.5zM553 561.2c0 4.4 2.3 7.8 4.1 6.1 1.8-1.8 0-8.7-2.3-9.1-1.4-.3-1.8.4-1.8 3zM565 561.8c0 .5.7 1.6 1.6 2.3 1.4 1.2 1.6 1.1 1.3-.5-.4-2-2.9-3.5-2.9-1.8zM633.4 562.5c-.7 1.7 1.4 7.5 2.7 7.5 1.4 0 2-3.7 1-6.4-1.2-2.9-2.9-3.4-3.7-1.1zM442.6 563.4c.7 1.9 3.8 2.2 3.2.3-.3-.6-1.2-1.3-2.1-1.5-1.2-.2-1.5.1-1.1 1.2zM450 569.3c0 2.6 6.1 6.7 9.9 6.6 3 0 3.3-.2 1.5-.9-1.2-.5-2.5-1.3-2.8-1.8-1.1-1.9-8.6-5.2-8.6-3.9zM300 571.5c0 .8.7 1.5 1.6 1.5 1.4 0 1.4-.3.4-1.5-.7-.8-1.4-1.5-1.6-1.5-.2 0-.4.7-.4 1.5zM553 572.7c-2.5.6-5.7 1.2-7.1 1.2-1.4.1-3.4.8-4.5 1.6-1 .8-3.1 1.5-4.7 1.5-1.5 0-3.5.4-4.5.9-.9.5-5.3 2.6-9.7 4.7-4.4 2.1-11.3 6.1-15.3 8.8-12 8-22.4 17.6-35.7 32.8-.8 1-1.5 2.4-1.5 3 0 .7-.7 2.2-1.5 3.2-.8 1.1-1.5 3.4-1.5 5.1 0 1.7-.5 3.6-1.1 4.2-1 1-4.5 23.9-5.2 34.3-.1 1.9-.5 3.9-.9 4.5-.3.5-.9 3.5-1.3 6.5-.6 5-2 11-6 25.5-1.6 6.1-3.9 12.2-4.8 13.1-.4.4-.7 1.4-.7 2.2 0 1.8-8.7 19.9-9.9 20.6-.5.3-1.8 2.4-3 4.7-3.5 6.7-8.2 12.5-17.2 21.7-9.9 9.9-13.3 13-17 15.4-1.4.9-3.4 2.4-4.3 3.3-.9.9-2.7 2-4.1 2.3-3.1.9-3.2 2.8-.2 2.4 1.2-.1 3.6-.3 5.3-.5 1.8-.1 3.8-.8 4.5-1.4.8-.6 3-1.5 4.9-2 2.8-.7 3.6-1.5 4-3.9 1.1-6.4 6.1-9.7 16.9-11.1 2.5-.3 5.3-1.2 6.2-1.9.9-.8 4.4-1.6 7.7-1.7 7-.4 9.7-1.7 3.5-1.7-5.1 0-10.3-1.8-10.3-3.6 0-.7 1.1-2.4 2.5-3.8s2.5-3.4 2.5-4.5 1.3-3 3-4.3c2.3-1.8 3.2-3.6 4-7.8.9-4.9 3-9.2 3-6.2 0 .7.7 1.2 1.5 1.2 1.8 0 2.1-5 .4-6.7-1.4-1.4-.3-3.4 1.6-2.7.8.4 2-.6 2.9-2.5 2-3.7 2-4.7.2-3.2-.9.7-1.7.8-2 .2-1-1.6.4-3.9 2.9-4.5 2.7-.7 5-4 3.9-5.7-.3-.6-1.2-.8-2-.5-2 .8-1.8-1.8.6-6.6 1.1-2.2 1.7-4.5 1.4-5-.3-.5-.1-1.5.5-2.2.6-.7 2-5.9 3.1-11.5s2.4-11 2.9-11.9c.5-.9 1.2-4 1.6-6.7.4-2.8 1.5-6.2 2.6-7.7 2.9-4.2 2.3-8.8-.8-5.7-1.6 1.6-2.5-.5-1.3-3.5.5-1.4 1.4-2.6 2-2.6 1.3 0 1.3-4.3 0-5.6-.6-.6-.4-1.9.5-3.8.8-1.6 1.5-3.4 1.5-4.1 0-.6 1.4-3.1 3-5.3 1.7-2.3 3-4.7 3-5.4 0-1.9 2.8-5.9 8.4-11.9 4.3-4.7 5-5.1 6.8-4 1.8 1.1 1.9 1 1.3-.8-.9-2.8 2.5-6.1 4.8-4.7 1.3.8 2 .8 2.5 0 .4-.6 1.5-1.3 2.4-1.7.9-.3 1.8-1.6 2-2.9.2-1.5 1.1-2.4 2.6-2.6 2-.3 2.2-.8 1.7-3.3-.8-3.3 1.3-4.2 2.2-.9.9 3.2 8.3 1.9 8.3-1.5 0-2.3 9.2-10.6 11.1-10 1 .3 2 .2 2.3-.4.3-.5 3.3-1.2 6.6-1.6 3.3-.4 6.3-1.1 6.6-1.6.3-.5 2.7-.9 5.3-.9 3 0 5.3-.6 6-1.4.7-.9 4.2-1.7 8.7-2.1 4.1-.4 7.4-1.1 7.4-1.5 0-1.7-3.2-4-5.8-4.1-9.5-.4-13.2-.3-17.2.8zm-32 19.2c0 1-2.5 2.1-4.8 2.1-1.5-.1-1.4-.3.2-1.5 2.2-1.7 4.6-2 4.6-.6zM345 572.8c0 .4 1.7 1.6 3.8 2.7 2 1.1 4.8 2.7 6.1 3.7 3.7 2.8 8.2 2.3 11.6-1.2 2.2-2.3 2.5-3 1.2-3-.9 0-2 .6-2.4 1.2-.4.7-1.8 1.9-3 2.5-2 1.1-2.4 1-3.9-1.2-1.3-1.9-2.5-2.5-5.4-2.5-2.1 0-4.3-.7-5-1.5-1.3-1.6-3-2-3-.7zM605 575.9c0 1.7.4 3.2.9 3.5.4.3 1.1 2.3 1.4 4.5.5 3.9 5.4 11.4 6.8 10.5.4-.2-.1-2.3-1.1-4.7-1.1-2.3-2-5.7-2-7.5 0-3.1-3.4-9.2-5.2-9.2-.4 0-.8 1.3-.8 2.9zM577.2 576.2c.7 2 6.8 2.3 6.8.4 0-1.2-1-1.6-3.6-1.6-2.4 0-3.4.4-3.2 1.2zM657 576.9c-2.4.7-2.3.8 1.5 1.9 2.2.7 5.1 1.2 6.5 1.2 3.1 0 5.6-1.5 4.2-2.4-1.8-1.1-9.6-1.5-12.2-.7zM372.6 578.8c-.3.6-.1 1.4.5 1.7 1.5 1 2.5-.3 1.2-1.6-.7-.7-1.3-.7-1.7-.1zM672 581.6c0 2.4 8.2 7.5 9.7 6 .3-.3.1-1.1-.4-1.8-.6-.7-1.2-2.2-1.4-3.3-.3-1.5-1.3-1.9-4.2-2-2.4-.1-3.7.3-3.7 1.1zM752.6 580.8c-.9 1.5 3.1 4.1 7.4 4.8 1.9.4 4.2 1.2 5 1.9.8.6 2.3 1.5 3.3 1.8 1.5.6 1.8 1.6 1.6 5.4l-.3 4.8 3.6.3c3.1.3 4 .9 6.1 4.5 1.3 2.3 3.5 6.9 4.8 10.2 1.3 3.3 2.9 6.4 3.6 6.8.7.4 1.3 1.6 1.3 2.5 0 2.5 4.3 10.2 5.7 10.2 1.7 0 1.6-.5-.3-4.1-.8-1.6-1.2-3.8-.9-4.8.3-1.1-.3-2.5-1.5-3.6-1.1-1-2-2.8-2-4.1 0-1.3-.4-2.5-.9-2.9-.5-.3-1.2-1.9-1.6-3.5-.4-1.7-1-3-1.5-3s-1.4-1.6-2-3.6c-.7-2-2.2-4-3.6-4.6-1.3-.6-2.4-1.9-2.4-2.9 0-3.3-2.3-6.9-4.9-7.6-1.4-.3-3.7-1.7-5.1-3-1.3-1.2-3-2.3-3.7-2.3-.6 0-1.9-.7-2.7-1.6-1.9-1.9-8.1-3-9-1.6zM369 582.5c0 .8-.7 1.5-1.5 1.5s-1.5.7-1.5 1.5.3 1.5.8 1.5c1.2 0 5.2-4.7 4.5-5.4-1.1-1.1-2.3-.6-2.3.9zM650.7 588.7c-.8 4.5-.6 7.2.4 7.8.5.4.9-1.7.9-4.9 0-6-.6-7.2-1.3-2.9z"/><path d="M396 591.6c-1.1 2.8-1.3 5.4-.4 5.4.3 0 1.4-.5 2.4-1 1.5-.8 2.1-.6 3 1 .6 1.2.8 3 .5 4-.7 2.3.3 2.5 2.8.6 2.1-1.6 2.2-3.5.2-4.2-.8-.4-1.5-1-1.5-1.5 0-1.4-4.2-6.9-5.2-6.9-.5 0-1.3 1.2-1.8 2.6zM749.7 590.4c-.4.9-1.3 1.6-2.2 1.6-.8 0-1.5.4-1.5.9s2.4 1.1 5.3 1.5c2.8.4 6.7 1.2 8.4 1.8 1.8.7 3.6.8 4 .4 1-1-3.9-4.7-5.5-4.1-1.5.5-6.4-1.2-7.3-2.6-.4-.7-.9-.4-1.2.5zM804 590.5c0 .8.7 1.5 1.5 1.5.9 0 1.2-.6.9-1.5-.4-.8-1-1.5-1.5-1.5s-.9.7-.9 1.5zM807.2 593.3c-.6.7-1.1 3.2-1 5.6 0 2.3-.5 4.8-1.1 5.4-.8.8-.7 1.5.3 2.6 1.7 2 3 11.5 3.5 25.8.1 1.8.6 3.3 1.1 3.3.6 0 1-4.8 1-12.5 0-9.8-.3-12.7-1.4-13.1-1-.4-1.3-2.2-1.1-7.2.2-3.7.6-7.4 1-8.3.8-2.1-.9-3.3-2.3-1.6zM615 596.5c0 .8.5 1.5 1 1.5.6 0 1-.7 1-1.5s-.4-1.5-1-1.5c-.5 0-1 .7-1 1.5zM3.5 597.3c-.4 1-.5 2.1-.1 2.4 1 1 1.8-.4 1.3-2.4-.4-1.7-.4-1.7-1.2 0zM333 596.9c0 1.7 4.1 7.9 5.5 8.5 2 .7 4.5-.3 4.5-1.9 0-2-5.9-7.5-8.1-7.5-1 0-1.9.4-1.9.9zM714 601.8c0 1.8.4 4 .9 5 2 3.9 4 8.9 4.8 11.7.7 2.6.8 2.2 1.1-2.9.3-5.2 0-6.2-2.2-8.5-1.5-1.5-2.6-3.4-2.6-4.2 0-.7-.5-2.1-1-2.9-.7-1.1-1-.7-1 1.8zM650 602.5c0 .8.5 1.5 1 1.5.6 0 1-.7 1-1.5s-.4-1.5-1-1.5c-.5 0-1 .7-1 1.5zM618.8 603.6c-1.4 1.3-.9 5.4.7 6 1 .4 1.5 2 1.5 4.5 0 4.1 1.4 5.2 2.5 1.9.7-2.3-.2-5.8-2-8-.7-.8-1.5-2.3-1.6-3.3-.2-1.1-.7-1.5-1.1-1.1zM897 612c0 5.6.3 7 1.5 7s1.5-1.4 1.5-7-.3-7-1.5-7-1.5 1.4-1.5 7zM708.2 607.2c.3.7 1.3 1.5 2.2 1.6 1.2.3 1.7-.1 1.4-1-.3-.7-1.3-1.5-2.2-1.6-1.2-.3-1.7.1-1.4 1zM680.5 611.1c-.4.6-.3 1.5.3 2.1.6.6 1.1.4 1.5-.6.7-1.8-.9-3.1-1.8-1.5zM571.8 613.7c-3.9 1-1.5 2.2 4.1 2.2 4-.1 6.9.5 9 1.7 3.6 2.1 5.3 1.2 2.5-1.5-2-1.8-12-3.4-15.6-2.4zM692.5 616c-.4.6-.3 1.6.3 2.2 1.3 1.3 2.3-.4 1.3-2.1-.7-1-1-1-1.6-.1zM496.7 621.4c-1.8 1.4-2.3 3.6-.7 3.6 1 0 3.4-3.9 2.8-4.5-.2-.2-1.1.2-2.1.9zM723 624c2 1.3 4.3 1.3 3.5 0-.3-.6-1.6-1-2.8-1-1.8 0-1.9.2-.7 1zM485.3 626.7c-.4 1-1.3 2.4-2 3.1-.7.7-1.3 1.8-1.3 2.3 0 1.8 1.6.8 3.5-2.4 2.7-4.5 2.8-4.7 1.6-4.7-.7 0-1.5.8-1.8 1.7zM896.7 625.7c-.8.7 1.1 3.3 2.4 3.3.5 0 .9-.9.9-2 0-1.9-2-2.7-3.3-1.3zM738 627c0 .5 1.9 1.1 4.3 1.2 7.5.3 8.2.4 9.3 1.1 1.6.9 13.6 2.7 14.5 2.1 2.3-1.4.3-2.4-4.8-2.4-3.2-.1-6.9-.7-8.3-1.5-2.9-1.6-15-2-15-.5zM706.5 631c-1.4 1.6-1.5 2-.4 2 1.6 0 3.9-1.9 3.9-3.2 0-1.4-1.6-.9-3.5 1.2zM777 633c0 .5 1.8 1 4 1s4-.5 4-1c0-.6-1.8-1-4-1s-4 .4-4 1zM479.1 635.3c-.6 1.4-1.5 2.7-2.2 2.9-.7.2-.9.9-.5 1.7 1 1.5 4.1-1 4.9-4 .8-2.9-1.2-3.4-2.2-.6zM819.5 639c.3.5 1.3 1 2.1 1s1.4-.5 1.4-1c0-.6-.9-1-2.1-1-1.1 0-1.7.4-1.4 1zM353 641.4c0 1.4 2.8 4.2 3.5 3.4.2-.2.2-1.4-.2-2.6-.6-2.4-3.3-3.1-3.3-.8zM842.5 640.9c-.7 1.2 1.2 2.4 2.5 1.6 1.1-.7.4-2.5-1-2.5-.5 0-1.1.4-1.5.9zM897.6 641.7c-1.2 1.2-.6 4.3.9 4.3.8 0 1.5-.9 1.5-1.9 0-2.1-1.3-3.4-2.4-2.4zM851.4 644.2c-1.6 2.5 4.5 3.7 9.1 1.8 1.6-.6 1.7-.9.5-1.3-2.7-1-9.1-1.3-9.6-.5zM359.2 649.6c.2 1.5.9 2.9 1.6 3.2 1 .3 1.3-.4 1-2.4-.2-1.5-.9-2.9-1.6-3.2-1-.3-1.3.4-1 2.4zM874.5 648c-.3.5.3 1 1.4 1 1.2 0 2.1-.5 2.1-1 0-.6-.6-1-1.4-1-.8 0-1.8.4-2.1 1zM378 650.5c0 .8.5 1.5 1 1.5.6 0 1-.7 1-1.5s-.4-1.5-1-1.5c-.5 0-1 .7-1 1.5zM883.5 651c.8 1.3 8.5 1.3 10.5 0 1.1-.7-.4-1-4.8-1-4 0-6.1.4-5.7 1zM95.3 655.7c-2.4.3-3.3.9-3.3 2.2 0 1-.9 2.1-2 2.4-1.1.3-2 1.3-2 2.2 0 1.3.7 1.5 3.5 1 1.9-.3 5.1-.8 7.1-1.1 5.2-.8 9.4.4 9.4 2.7 0 3-5 4.8-13.4 5-5.6.1-7.6.5-7.6 1.5 0 1.7 6.2 3.4 12.7 3.4 4.5 0 5.4-.4 7.6-3 3.6-4.2 4.3-7.1 2.3-8.5-.9-.7-1.6-2-1.6-2.9 0-.9-.6-1.6-1.4-1.6-.7 0-2.5-.9-3.9-2s-2.9-1.9-3.4-1.8c-.4 0-2.3.3-4 .5zM363.6 655.9c-.3.5.3 1.6 1.4 2.6 1.9 1.7 2 1.7 2-.2 0-2.1-2.5-3.9-3.4-2.4zM712.5 657.2c-2.3 1.3-3.5 2.8-3.5 4.5 0 1.8 5.7 1.6 6.4-.2.3-.9 1.8-1.5 3.4-1.5 3.5 0 4.5-.9 3.1-2.7-1.4-1.6-6.6-1.7-9.4-.1zM702.2 661.6c-1.3.9-3.1 1.3-4.3.9-1.5-.5-2.2-.2-2.6 1.4-.4 1.7-1.3 2.1-4.7 2.2-5.7 0-12.5 1.5-10.6 2.2.8.3 4.9.8 9.1 1.2 7 .5 7.7.4 8.2-1.4.4-1.5 1.5-2 4.7-2.3 4.8-.3 7.7-3.1 5-4.8-2-1.3-2.2-1.3-4.8.6zM723.2 662.8c-.9 2.6-2.5 3.6-8.4 5.6-2.9.9-2 2.6 1.3 2.6 4 0 9.9-4.5 9.9-7.6 0-3.4-1.7-3.8-2.8-.6zM232.3 672.5c-.3.9.2 2.3 1 3.3.8.9 1.8 2.9 2.2 4.4.9 3.6 4.2 6.5 5.6 5.1.8-.8.3-2.1-1.7-4.7-1.6-2-3.2-3.6-3.6-3.6-.5 0-.8-1.4-.8-3 0-3.2-1.7-4.1-2.7-1.5zM699.8 673.7c-2.1.3-2.8 1-2.8 2.7 0 1.2-.5 2.7-1.2 3.4-.6.6-.8 1.5-.4 1.9.4.5 1.3.1 1.9-.7.8-1 3.5-1.6 8.2-1.8 3.8-.2 7.1-.5 7.3-.7.2-.2-.5-1.2-1.7-2.4-2.1-2.1-6.9-3.1-11.3-2.4zM680 677c-.8.5-2.3.7-3.2.4-1-.3-1.8-.1-1.8.5 0 .5 1 1.1 2.3 1.3 1.6.2 2.3 1.1 2.7 3.6l.5 3.4 2.5-2.7c1.5-1.6 2.1-2.9 1.4-3.3-.6-.4-1.5-1.5-2-2.4-.7-1.2-1.4-1.4-2.4-.8zM77.3 678.5c-.8 1.4-2.9 2.3-7 3-4.8.9-5.9 1.4-6.1 3.2-.2 1.5-1.3 2.3-3.8 2.7-2.7.6-3.7 1.4-4.9 4.3-1.4 3.4-1.6 3.5-2.9 1.8-1.2-1.6-1.4-1-2 5.3-.8 8.2-.3 9.6 5.6 14.6 4.1 3.6 4.2 3.6 13.4 3.6 6.9 0 9.6-.4 10.8-1.5.8-.8 2.3-1.5 3.4-1.5 4.5 0 10.2-7.4 10.2-13.4 0-1.3.7-2.6 1.5-3 1.9-.7 2-5.5 0-6.2-.8-.3-1.7-1.6-2.1-2.7-1.1-3.6-5.5-7-9.4-7.2-4.9-.3-4.8-.3-5.2-2.8-.3-2.2-.3-2.2-1.5-.2zm10.3 12.1c.7 2.6-.1 11.9-1.2 14.7-.5 1.5-7.7 2.8-23.7 4.2-7.7.7-9-.4-6.3-5.2.9-1.5 2-4 2.6-5.5 1.3-3.8 8.1-7.8 15.3-8.9 3.4-.6 6.3-1.2 6.6-1.5.2-.2 1.7-.4 3.2-.4 2.2 0 3 .6 3.5 2.6zM677.5 688.3c-.4 1-.5 2.1-.1 2.4 1 1 1.8-.4 1.3-2.4-.4-1.7-.4-1.7-1.2 0zM245 693.7c.1 2 3.8 6.9 4.6 6.1.5-.5-3.4-7.8-4.2-7.8-.2 0-.4.8-.4 1.7zM252 704.8c0 1.6 2.8 4.7 3.6 3.9.4-.4-.2-1.6-1.4-2.7-1.2-1.2-2.2-1.7-2.2-1.2zM501.2 715.6c-1.2.8-3.1 1.3-4.1.9-1.2-.3-2.3 0-2.8.8-.4.8-6 4.5-12.3 8.3-6.3 3.7-14 9.2-17.1 12.1-3.2 3-6.5 5.3-7.7 5.3-2.5 0-2.7.9-.9 3.5 1.3 1.7 1.6 1.7 4.3.2 1.6-.9 4.9-2.5 7.5-3.6 2.5-1.1 6.9-3.6 9.9-5.6 3-2 6.6-3.9 8.1-4.2 1.4-.3 4.8-2.5 7.5-4.9 2.7-2.4 5.4-4.4 5.9-4.4 1.7 0 9.6-8 9-9-.9-1.5-4.8-1.2-7.3.6zM510 720.2c0 1.3-.7 3.3-1.5 4.5-.8 1.1-1.7 4-2.1 6.4-.3 2.4-1.3 5.4-2 6.6-.9 1.5-1.4 4.7-1.2 9.1.2 8.6-.6 10.1-3.8 7.1-1.9-1.8-4.1-2.4-11.2-3-4.8-.4-10.4-1-12.4-1.4-2-.4-4.5-.4-5.5 0-1.6.6-1.6.8.5 1.6 4.1 1.6 2.3 2.7-5.4 3.4-4.1.4-7.2 1.1-6.7 1.6 1 1 17.9 1.4 21.3.5 1.4-.4 6-.3 10.2.2 4.2.6 9.6.7 12.2.5 3.9-.5 4.8-1 6.6-4.1 1.2-2 2.2-5.7 2.4-8.6.2-2.8.5-5.8.8-6.6 2.1-5.9 2.5-10.4 1.4-14.8-1.3-4.9-3.6-6.9-3.6-3zM624.5 728c.3.5 1.9 1 3.6 1 1.6 0 2.9-.5 2.9-1 0-.6-1.6-1-3.6-1-2.1 0-3.3.4-2.9 1zM608.8 729.3c-1.2 3-1 9.3.3 8 .5-.5.9-3 .7-5.4-.2-3.1-.5-3.9-1-2.6z"/><path d="M488.5 739.9c-.7 1.2 1.2 2.4 2.5 1.6 1.1-.7.4-2.5-1-2.5-.5 0-1.1.4-1.5.9zM605 744.3c0 1.8-.7 4.2-1.5 5.3-1.5 2-2 7.4-.7 7.4 1 0 2.8-5.7 3.8-11.8.4-2.8.3-4.2-.5-4.2-.6 0-1.1 1.5-1.1 3.3zM0 757.7c0 6.8.5 6.7 1.3-.5.4-3 .2-5.2-.3-5.2-.6 0-1 2.5-1 5.7zM8.6 753.8c-.4.7-.9 3.4-1.1 6.1-.1 2.7-.6 5.5-1 6.1-1.2 1.9.2 2.3 4.2.9 2.1-.7 4.9-1.2 6.1-1.1 1.6.1 2.6-.4 2.9-1.8.4-1.5 1.4-2 3.6-2 3.7 0 2.5-1.5-1.9-2.3-1.8-.4-3.6-.1-4.3.6-1.3 1.2-1.2 1.3-6-5.2-1.2-1.6-2-2-2.5-1.3zM28 764c2 1.3 4 1.3 4 0 0-.6-1.2-1-2.7-1-2.2 0-2.5.2-1.3 1zM20.5 772c-.3.6-1.7.7-3 .4-1.7-.4-2.6 0-3.5 1.5-.6 1.2-1.6 2.1-2.3 2.1-1.5 0-8.1 3.3-10.2 5-1.9 1.6-2 6-.1 6 .7 0 1.9-.7 2.6-1.5.7-.8 2.9-1.5 4.9-1.5 2.9 0 4.1-.7 6.2-3.3 1.6-2 4.4-3.8 7-4.7 4.8-1.5 6.9-2.8 6.9-4.1 0-1.2-7.7-1.1-8.5.1zM441.5 785.2c-1.6.5-3.7 1.2-4.5 1.5-.8.2-4.6.6-8.3.9-7.1.4-8.7.8-8.7 2.5 0 1.6 16 .3 22.3-1.7 2.8-1 5.8-1.9 6.5-2.1 2.1-.5.3-2.3-2.1-2.2-1.2 0-3.5.5-5.2 1.1zM489.7 790.7c-.4 3.6.6 6.3 2.3 6.3.4 0 .7-2.3.7-5-.1-6-2.2-6.9-3-1.3zM498 792.3c0 5.5 1.2 8.1 2.4 5.1 1.1-2.9.6-8.1-.9-9.4-1.3-1.1-1.5-.5-1.5 4.3zM762.5 816.2c-.9 2.2.4 4.3 1.7 3 .7-.7.7-1.6 0-2.9-1-1.7-1.1-1.7-1.7-.1zM495.7 842.6c-.4.4-.7 4.6-.7 9.3.1 7.8.2 8.4 1.5 6.7 2.3-3.1 1.6-18.3-.8-16zM485 851.9c0 3.3.4 6.2.8 6.5.5.3 1.4-1.7 2.1-4.5 1-3.9 1-5.3.1-6.4-2.2-2.7-3-1.6-3 4.4zM426.1 855.4c-1.1 1.3-7.7 2.5-17.6 3.1-17.3 1.1-21.7 1.8-22.2 3.1-.3.8-1.5 1.4-2.8 1.4-1.2 0-2.8.6-3.5 1.4-.6.8-1.8 1.2-2.7.9-2.2-.9-11.7 9.4-10.7 11.6.4.9.8 3.2.9 5.1.3 4.1 2.3 12.5 3.8 15.8.6 1.2 1.8 2.2 2.7 2.2 1.5 0 1.6-.6 1-4.3-.4-2.3-1.1-9-1.5-15l-.7-10.7h2.4c4.4 0 4.8 1.5 4.8 16.2V900h34.8l34.7-.1 2.3-3.5c2.8-4.5 4.4-11.6 3.6-15.9-.4-2.3-.2-3.4.9-3.8 1.2-.5 1.3-1.3.5-4.4-.5-2.1-1.2-5.3-1.5-7.1-.3-1.8-2-4.9-3.8-6.8-3-3.2-3.8-3.5-8.7-3.4-2.9 0-7.6-.2-10.5-.4-3.5-.4-5.4-.1-6.2.8zm23 5.3c.2 4-.3 33.8-.5 34.1-.2.1-7.4.4-15.9.6-10 .2-16.1.7-17 1.5-2.7 2.2-3.6-.8-2.3-7.9.9-5.2 1.5-6.4 2.9-6.2 1.4.2 1.7-.5 1.7-4.3 0-2.8-.4-4.4-1-4-.5.3-1 1.7-1 3.1 0 5-2 2.2-2.2-3.1-.1-3-.2-6.3-.2-7.2-.1-1.4 1.3-2 6.9-2.9 3.9-.7 7.3-1 7.7-.8.4.3 1 0 1.3-.6.4-.6 3.3-1 6.5-.9 4 .1 6.7-.3 8.2-1.4 3-2.1 4.8-2.1 4.9 0zm-39.1 5.5c0 .7.1 8 .3 16.3l.2 15-4-.2c-8.1-.6-14.3-.3-16.7.6-1.4.5-2.9.6-3.5.3-1.4-.9-2.4-26.2-1.2-28.5.6-1.1 2.2-1.7 4.2-1.6 9.9.1 14.1-.3 16-1.6 2.6-1.8 4.7-1.9 4.7-.3z"/><path d="M438.3 872c0 2.5.2 3.5.4 2.2.2-1.2.2-3.2 0-4.5-.2-1.2-.4-.2-.4 2.3zM438 886.4c0 1 .9 1.6 2.1 1.6 2.4 0 2.1-2.3-.4-2.8-1-.2-1.7.3-1.7 1.2zM399 876c0 1.1.5 2 1 2 .6 0 1-.9 1-2s-.4-2-1-2c-.5 0-1 .9-1 2zM400 885.9c0 3 1.1 5.1 2.5 5.1 2 0 2.6-1.6 1.9-4.5-.8-3-4.4-3.5-4.4-.6z"/></g></svg>