<svg
	xmlns="http://www.w3.org/2000/svg"
	viewBox="0 0 300 300">
	
	<g transform="translate(0,300) scale(0.05,-0.05)" fill="#ffffff" stroke="none">
	
<path d="M260 5980 c25 -16 23 -20 -10 -21 -40 -2 -40 -2 0 -19 59 -26 94 -23
80 5 -7 14 -1 11 14 -7 21 -25 77 -32 284 -36 281 -5 341 -23 322 -97 -12 -52
38 -65 57 -15 14 36 115 30 162 -9 27 -23 31 -18 31 37 0 44 9 62 32 62 26 0
28 6 9 28 -35 43 -3 50 129 27 66 -11 156 -21 200 -22 44 -1 85 -8 90 -15 22
-29 146 -43 129 -15 -13 21 -10 22 12 6 38 -28 119 -21 139 11 20 33 80 11 80
-29 0 -19 12 -25 31 -18 17 7 49 -5 73 -26 30 -27 44 -30 51 -12 4 14 15 21
23 16 9 -5 15 3 15 18 0 21 -8 22 -36 5 -27 -17 -42 -17 -61 2 -19 19 -18 24
2 24 22 0 22 6 2 30 -20 25 -19 30 8 30 17 0 32 -10 32 -22 0 -16 9 -16 29 1
34 28 77 10 60 -25 -7 -13 1 -8 17 11 16 19 43 35 61 35 18 0 33 11 34 25 0
14 9 9 21 -10 11 -19 33 -35 48 -35 19 0 24 -12 17 -35 -10 -28 -6 -27 19 5
17 22 22 43 12 47 -11 4 -4 19 16 34 30 23 -144 27 -1114 28 -756 0 -1140 -6
-1120 -19z"/>
<path d="M2535 5950 c-12 -61 0 -74 47 -49 20 11 32 32 26 48 -8 19 7 31 45
37 43 6 37 9 -26 11 -73 3 -83 -3 -92 -47z"/>
<path d="M3225 5988 c17 -17 515 -23 585 -6 33 7 -88 14 -268 16 -181 1 -323
-3 -317 -10z"/>
<path d="M4180 5982 c0 -10 -5 -33 -12 -50 -8 -21 -1 -32 20 -32 19 0 38 12
44 27 10 28 188 36 188 8 0 -8 14 -15 30 -15 17 0 30 18 30 40 0 36 -13 40
-150 40 -82 0 -150 -8 -150 -18z"/>
<path d="M4561 5990 c-1 -23 95 -170 110 -170 13 0 -39 98 -79 150 -17 22 -31
31 -31 20z"/>
<path d="M4848 5986 c8 -8 66 -16 129 -17 64 -1 128 -9 142 -19 18 -10 22 -9
14 5 -7 12 2 26 22 31 19 5 -45 10 -143 12 -98 1 -172 -4 -164 -12z"/>
<path d="M5861 5784 c-1 -31 -85 -66 -107 -44 -25 23 -112 -25 -127 -69 -19
-61 -54 -89 -78 -62 -25 29 -35 77 -14 64 23 -14 71 18 76 51 4 23 -64 33
-111 16 -5 -2 -41 -3 -80 -2 -724 19 -740 17 -740 -80 0 -37 -40 -52 -66 -25
-27 26 -137 23 -148 -5 -16 -42 -40 -34 -99 32 -55 62 -364 94 -396 41 -7 -10
-30 -15 -51 -11 -25 5 -40 -3 -40 -21 0 -16 -9 -29 -20 -29 -11 0 -20 -14 -20
-31 0 -37 -138 -24 -162 14 -7 12 -25 15 -39 6 -16 -9 -20 -7 -12 7 8 11 5 27
-7 34 -18 11 -29 -15 -22 -55 5 -31 -34 -13 -61 28 -27 39 -31 40 -62 9 -30
-30 -40 -30 -104 -4 -52 22 -71 24 -71 6 0 -15 -8 -12 -20 6 -11 17 -20 20
-20 8 0 -14 -28 -19 -73 -14 -50 5 -85 -4 -113 -28 -29 -25 -36 -27 -25 -6 14
25 12 26 -11 4 -15 -14 -28 -37 -28 -50 0 -41 -104 -79 -149 -54 -33 17 -38
15 -28 -10 8 -21 -1 -30 -29 -30 -22 0 -45 11 -51 25 -8 20 -10 20 -11 0 -1
-14 -12 -25 -23 -25 -12 0 -16 9 -9 20 19 30 -3 24 -38 -11 -23 -23 -41 -26
-67 -11 -27 16 -29 21 -5 22 25 0 25 4 2 18 -40 26 39 47 109 30 39 -10 51 -7
41 9 -8 13 -27 23 -43 23 -15 0 -23 12 -18 26 6 16 -6 25 -36 23 -57 -2 -106
-30 -120 -69 -10 -24 -12 -23 -13 5 -2 30 -24 35 -167 37 -91 1 -187 4 -215 8
-218 27 -260 17 -245 -60 11 -56 -16 -64 -107 -29 -40 15 -59 14 -69 -3 -10
-16 -62 -11 -192 22 -230 57 -358 76 -474 72 -51 -2 -93 4 -93 12 0 24 -186
14 -219 -12 -23 -17 -25 -16 -12 6 13 21 10 24 -11 11 -15 -10 -40 -20 -55
-22 -14 -2 -37 -19 -50 -37 -20 -26 -35 -28 -80 -11 -75 28 -75 28 -52 -31 17
-45 15 -51 -13 -40 -29 11 -30 8 -7 -19 25 -30 29 -29 56 4 27 35 28 35 13 -3
-8 -22 -15 -56 -14 -76 1 -24 -10 -34 -32 -29 -19 4 -32 17 -29 30 3 15 -26
20 -87 14 -49 -5 -86 -2 -81 7 6 8 -39 15 -98 15 -77 0 -109 -7 -109 -26 0
-42 88 -67 102 -29 9 27 13 27 22 1 8 -19 45 -31 108 -34 115 -6 128 -13 128
-67 0 -34 5 -37 30 -16 16 14 52 21 78 15 55 -10 84 45 45 85 -17 17 -15 29 7
46 17 13 30 38 30 54 0 17 14 31 30 31 51 3 61 -12 38 -55 -15 -28 -15 -37 0
-27 11 7 40 3 64 -10 58 -31 174 -38 186 -11 6 13 18 8 32 -13 12 -19 36 -35
52 -35 17 0 25 9 18 20 -7 12 -21 15 -31 9 -11 -6 -19 -2 -19 10 0 19 11 23
85 29 14 1 26 -11 28 -28 1 -16 3 -42 5 -56 1 -19 21 -23 67 -14 36 7 90 18
120 24 73 14 50 46 -26 36 -32 -4 -59 2 -59 13 0 10 -9 14 -20 7 -11 -7 -20
-4 -20 6 0 26 186 4 204 -24 18 -27 96 -34 96 -8 0 11 11 16 25 11 14 -5 37 6
51 23 15 18 22 22 16 9 -6 -12 1 -33 16 -46 17 -13 31 -15 35 -3 4 11 42 12
96 2 115 -21 221 -4 221 35 0 21 7 24 25 10 14 -11 109 -22 211 -24 217 -4
251 -13 237 -64 -5 -20 -1 -37 9 -37 10 0 18 10 18 22 0 14 27 19 70 14 39 -4
70 0 70 9 0 53 63 78 159 65 132 -18 423 -15 566 6 63 10 115 12 115 6 0 -16
158 -11 174 5 7 7 24 3 39 -10 17 -14 27 -14 27 -2 0 12 20 21 45 20 25 0 65
5 90 11 25 7 45 4 45 -5 0 -20 39 -17 74 5 13 8 29 5 36 -7 9 -14 21 -14 38
-1 13 11 168 23 343 26 l319 6 7 -46 c5 -38 11 -42 35 -23 17 14 57 20 98 13
41 -7 70 -3 70 9 0 68 99 83 560 81 27 0 65 8 85 19 23 12 35 11 35 -2 0 -12
10 -21 22 -21 13 0 17 15 9 35 -11 28 -8 30 12 10 31 -31 64 -33 45 -2 -9 15
-5 18 10 8 28 -17 87 25 70 52 -6 10 -19 13 -28 7 -30 -19 -43 28 -20 71 19
35 28 37 53 16 25 -21 34 -19 50 9 21 38 97 47 97 12 0 -13 -18 -18 -40 -12
-22 6 -40 2 -40 -8 0 -10 14 -18 30 -18 17 0 30 -10 30 -21 0 -12 8 -16 18
-10 26 16 37 98 20 142 -8 22 -16 27 -17 13z m-2286 -224 c52 0 65 -8 65 -41
0 -49 -57 -75 -82 -37 -12 20 -17 21 -18 3 0 -14 -20 -25 -45 -25 -36 1 -39 4
-15 20 43 28 -271 26 -323 -1 -33 -18 -42 -15 -51 19 -9 34 -17 37 -50 20 -40
-22 -74 -10 -48 17 24 24 230 42 372 33 72 -4 159 -8 195 -8z"/>
<path d="M5940 5584 c-47 -22 -49 -71 -2 -59 30 8 36 3 28 -22 -10 -26 -7 -28
14 -9 21 19 21 31 2 53 -18 23 -18 31 2 39 14 6 17 11 6 11 -11 0 -33 -6 -50
-13z"/>
<path d="M340 5519 c0 -12 -11 -15 -25 -7 -14 8 -7 -4 15 -25 42 -42 109 -14
80 33 -16 27 -70 26 -70 -1z"/>
<path d="M5240 5320 c-261 -10 -270 -11 -276 -55 -8 -50 -19 -53 -92 -26 -39
15 -55 13 -68 -11 -15 -27 -27 -23 -81 23 -66 55 -226 60 -523 17 -174 -25
-234 -30 -350 -27 -44 2 -89 1 -100 -1 -11 -2 -199 -5 -418 -7 -370 -3 -398
-6 -404 -40 -7 -52 -16 -57 -75 -34 -30 11 -56 12 -63 2 -6 -10 -86 3 -179 28
-135 37 -209 45 -365 41 -264 -8 -252 -6 -238 -41 12 -32 -545 -31 -760 2 -72
11 -84 8 -93 -29 -15 -56 -147 -56 -445 0 -264 49 -570 72 -570 43 0 -13 -25
-15 -68 -5 l-69 15 2 -267 c2 -148 10 -268 18 -268 9 0 10 -14 4 -31 -7 -17
-4 -28 6 -25 23 8 27 -10 24 -99 l-2 -75 -15 70 -15 70 -2 -73 c-2 -49 7 -77
28 -85 17 -6 25 -22 18 -34 -10 -16 -19 -14 -32 5 -12 19 -15 15 -11 -16 3
-24 18 -58 33 -76 15 -17 21 -38 14 -45 -7 -7 -13 -2 -13 11 0 12 -7 23 -15
23 -8 0 -15 -44 -15 -97 0 -96 1 -98 76 -118 l76 -20 -12 193 c-7 105 -21 296
-31 422 -31 385 -27 493 18 453 20 -18 43 -27 51 -19 8 8 23 2 33 -15 16 -24
22 -24 37 -2 30 48 43 -7 43 -191 2 -284 11 -444 27 -460 8 -8 8 158 0 368
l-14 384 45 -12 c31 -8 41 -23 34 -49 -11 -44 -1 -52 89 -67 37 -6 97 -22 133
-35 70 -25 67 -14 73 -280 1 -63 7 -115 12 -115 8 0 24 -283 28 -515 0 -36 10
-62 21 -58 12 5 19 16 17 27 -2 10 -9 140 -15 287 -6 148 -15 288 -19 311 -5
23 -1 53 7 67 9 14 4 49 -10 77 -15 28 -21 61 -14 73 8 11 16 34 18 49 7 43
51 61 93 39 21 -11 57 -16 81 -10 24 6 56 4 71 -6 28 -17 101 0 211 49 33 15
69 21 80 14 40 -25 117 -26 132 -3 19 31 59 7 59 -35 0 -25 6 -26 30 -6 16 13
26 31 21 39 -5 8 17 13 49 11 33 -2 63 8 68 23 12 31 72 37 72 7 0 -29 33 -24
67 10 17 17 68 35 114 40 l83 11 -7 -89 c-4 -48 0 -84 8 -79 8 5 15 44 15 87
l0 77 180 0 c143 -1 180 -7 180 -30 0 -50 123 -90 163 -54 29 26 41 26 80 4
26 -15 74 -28 107 -28 140 -3 192 -10 183 -24 -5 -8 5 -28 21 -43 27 -24 29
-22 17 15 -10 30 -5 43 15 43 16 0 41 14 55 31 14 18 43 28 63 22 20 -5 42 1
49 13 9 13 19 7 28 -17 14 -36 16 -35 36 11 18 43 21 45 22 10 2 -37 4 -37 28
6 14 25 31 39 39 31 8 -7 14 -5 14 6 0 11 45 20 100 20 69 0 100 -9 100 -27 0
-14 8 -26 18 -26 10 0 14 16 9 36 -6 24 2 36 27 37 20 1 196 8 391 17 l355 15
2 -57 3 -58 12 52 c10 39 23 50 53 44 22 -5 50 -9 63 -11 13 -1 19 -13 14 -27
-7 -17 7 -23 41 -19 29 3 52 0 52 -8 0 -7 32 -9 70 -5 71 8 139 -25 119 -58
-6 -10 3 -12 20 -6 18 7 31 2 31 -12 0 -15 16 -20 40 -14 34 9 40 0 40 -56 0
-37 9 -70 20 -73 25 -9 44 -97 22 -97 -9 0 -10 -36 -2 -79 8 -44 8 -76 0 -71
-8 5 -10 -53 -5 -128 7 -98 3 -141 -16 -152 -16 -11 -20 -8 -11 7 8 13 4 23
-8 23 -34 0 -12 -50 22 -51 15 0 25 -13 22 -27 -20 -93 -4 -208 26 -179 9 9
70 858 70 972 0 26 8 42 19 36 10 -6 24 -2 31 9 7 11 20 16 28 11 8 -5 61 3
117 18 57 15 108 21 115 14 7 -7 24 1 37 17 32 42 354 90 428 64 36 -12 7
-702 -55 -1289 -29 -275 -26 -375 10 -375 17 0 46 -18 65 -40 61 -72 84 -50
54 50 -26 85 -23 99 18 92 10 -2 30 13 45 32 22 30 30 31 45 8 15 -22 23 -19
41 14 31 58 28 64 -28 64 -27 0 -50 9 -50 20 0 11 25 20 55 20 43 1 48 5 25
20 -20 13 -22 19 -5 20 49 0 24 40 -50 76 -199 97 -209 124 -45 124 66 0 120
7 120 15 0 9 -52 15 -115 15 -63 0 -117 9 -119 20 -3 12 43 18 115 14 132 -6
164 27 44 46 -104 17 -170 46 -155 69 15 25 148 22 197 -4 28 -14 35 -12 29 8
-5 14 -37 32 -70 39 -109 22 -139 38 -107 57 16 10 30 32 33 49 2 18 -5 26
-16 19 -12 -7 -17 -1 -13 13 5 15 25 29 45 32 48 7 67 28 26 28 -21 0 -29 11
-21 30 6 17 4 46 -4 65 -24 53 -26 105 -4 105 11 0 15 19 9 42 -8 30 -3 38 17
30 16 -6 29 -3 29 7 0 10 -8 21 -18 24 -38 14 -38 197 0 245 26 33 30 52 14
68 -16 16 -7 25 31 35 39 10 53 26 53 61 0 49 -22 54 -225 53 -19 0 -35 6 -35
13 0 15 -138 15 -500 2z m690 -1400 c8 -12 -23 -20 -78 -20 -49 0 -95 9 -102
20 -8 12 23 20 78 20 49 0 95 -9 102 -20z"/>
<path d="M4370 4620 c-14 -263 -18 -284 -57 -300 -40 -16 -40 -18 10 -19 l53
-1 14 291 c8 160 10 295 5 301 -6 5 -17 -117 -25 -272z"/>
<path d="M330 4400 c9 -14 23 -76 31 -138 l15 -112 -3 128 c-2 90 -11 132 -31
138 -18 6 -22 1 -12 -16z"/>
<path d="M5220 4262 c-144 -59 -173 -119 -187 -384 -6 -114 -6 -188 0 -164 5
24 27 50 48 56 22 7 39 22 39 33 0 12 -11 17 -25 12 -17 -7 -25 12 -26 57 -1
37 9 71 24 76 15 6 22 23 16 38 -6 14 7 67 29 115 21 49 40 73 41 53 1 -30 7
-32 46 -12 45 24 45 24 6 -20 -38 -42 -38 -44 4 -125 l41 -82 13 137 c8 76 15
155 17 176 4 40 -35 55 -86 34z"/>
<path d="M5442 4262 c-56 -36 -57 -331 -1 -316 26 7 59 2 74 -10 20 -16 33
-16 50 1 17 17 14 23 -14 23 -34 0 -36 13 -23 160 14 168 -2 195 -86 142z"/>
<path d="M1702 4222 c-15 -10 -22 -25 -16 -35 5 -9 -41 -17 -103 -17 l-113 0
-5 -80 c-14 -223 -28 -293 -58 -282 -22 9 -26 2 -17 -28 7 -22 6 -51 -2 -64
-9 -13 -14 -65 -12 -115 1 -50 -2 -80 -8 -67 -7 16 -23 11 -49 -15 -52 -52
-49 -95 6 -95 25 -1 106 -7 182 -15 l136 -15 -6 58 c-7 55 -13 58 -114 64 -86
5 -104 12 -95 37 7 17 12 68 12 114 1 61 6 75 20 53 14 -21 20 9 20 100 1 137
24 205 58 170 11 -12 13 -54 3 -104 -8 -46 -9 -94 -1 -106 19 -31 34 31 51
215 11 115 21 145 47 145 28 0 32 -41 29 -375 -6 -607 11 -789 75 -806 45 -12
50 -9 43 31 -7 39 0 44 53 42 34 -1 62 -8 62 -15 0 -8 42 -14 92 -14 51 0 102
-9 114 -21 16 -16 12 -22 -13 -22 -20 0 -30 -9 -23 -20 26 -42 93 -22 86 25
-3 25 3 44 14 42 11 -2 55 -9 97 -15 43 -7 85 -17 94 -23 9 -5 22 -1 29 11 7
11 55 20 107 20 52 0 106 11 119 24 19 19 24 19 24 0 0 -13 14 -24 30 -24 64
0 34 -132 -62 -281 -50 -78 -87 -146 -82 -151 5 -6 29 22 54 62 41 67 46 69
72 36 14 -20 27 -25 27 -12 1 13 -8 29 -19 36 -28 17 -25 36 11 81 29 36 31
32 23 -66 -7 -92 -3 -105 29 -105 20 0 37 14 37 30 0 17 9 30 20 30 11 0 20
-7 20 -16 0 -9 13 -34 30 -55 25 -33 25 -26 -2 41 -17 44 -41 89 -53 100 -14
14 -16 12 -7 -5 8 -14 5 -25 -7 -25 -26 0 -28 73 -2 89 10 7 25 52 32 101 7
50 23 90 34 90 11 0 8 16 -8 35 -25 32 -24 33 11 5 33 -26 36 -48 25 -183 -9
-127 -6 -155 19 -165 57 -22 62 -13 73 135 15 194 76 302 101 178 6 -30 18
-73 27 -95 11 -30 1 -25 -39 18 l-54 58 0 -73 c0 -55 8 -74 35 -75 19 -2 44
-5 55 -7 11 -3 28 -6 38 -8 10 -2 2 -21 -18 -43 -36 -40 -35 -40 32 -28 112
19 115 22 123 122 l8 96 3 -105 c3 -77 12 -105 33 -105 18 0 25 -12 18 -30 -7
-19 1 -30 23 -30 29 0 32 -12 21 -72 -9 -49 -7 -68 8 -59 11 7 21 36 21 63 0
64 72 144 102 114 15 -15 41 -2 90 47 53 53 94 73 175 87 125 20 253 70 253
98 0 39 -76 42 -162 4 -152 -66 -173 -68 -188 -23 -13 43 -85 93 -105 73 -6
-6 0 -24 12 -39 15 -18 18 -44 6 -74 l-17 -47 -35 54 c-20 30 -48 54 -64 54
-53 0 -81 100 -37 132 51 37 65 35 80 -12 22 -70 41 -43 38 55 -1 52 2 102 7
111 12 22 97 -66 113 -118 10 -32 31 -42 94 -45 45 -1 90 -8 100 -14 10 -6 18
9 19 35 0 43 4 41 67 -26 82 -89 172 -119 172 -59 0 46 60 84 143 89 43 3 57
-4 57 -32 0 -20 -13 -36 -30 -36 -16 0 -30 -8 -30 -18 0 -10 -20 -13 -45 -7
-57 14 -39 -6 91 -95 99 -69 159 -162 86 -134 -18 7 -32 3 -32 -9 0 -12 -12
-17 -26 -11 -26 10 -27 -7 -17 -272 3 -87 7 -95 43 -84 22 7 40 5 40 -5 0 -31
-186 -84 -365 -104 -185 -20 -279 -60 -311 -129 -16 -36 -12 -42 29 -45 26 -1
47 5 47 14 0 10 12 13 26 8 15 -6 58 17 95 50 78 68 110 78 89 26 -8 -19 -28
-73 -44 -120 -28 -80 -34 -85 -108 -85 -79 0 -95 -15 -57 -53 12 -12 25 -39
29 -59 4 -21 8 -41 8 -45 1 -5 14 2 29 14 15 13 33 16 42 8 8 -8 11 -3 8 12
-6 24 53 73 139 115 19 10 18 18 -6 35 -43 32 -19 153 30 153 20 0 41 14 47
30 15 39 65 39 81 -1 6 -18 3 -26 -8 -19 -11 7 -20 -4 -20 -24 0 -20 -13 -61
-29 -91 -33 -64 7 -80 62 -25 17 17 38 25 48 19 10 -6 37 28 61 75 23 47 55
100 69 116 15 17 33 102 40 190 7 88 27 183 42 210 l29 50 -42 -48 c-31 -36
-47 -43 -64 -26 -27 27 12 84 56 84 39 0 36 11 -34 113 -72 105 -74 99 45 117
84 13 96 9 118 -31 25 -47 -19 -50 -127 -8 -34 13 -34 11 -1 -64 68 -149 98
-167 192 -118 60 31 54 41 64 -99 3 -33 -3 -75 -12 -93 -17 -34 -112 -447
-124 -537 -4 -27 -8 -61 -10 -74 -13 -103 -85 -103 -179 1 -51 57 -95 106 -96
109 -2 3 -34 -13 -71 -35 -37 -23 -83 -47 -102 -54 -19 -6 -30 -19 -24 -29 6
-10 37 -4 69 12 32 17 62 30 66 30 4 0 10 -61 12 -135 l4 -135 -45 44 c-39 39
-41 51 -20 98 34 75 17 80 -63 20 -129 -99 -405 -100 -485 -2 -32 40 -32 40
-18 0 27 -73 35 -310 11 -310 -13 0 -22 39 -22 95 -1 134 -77 207 -80 75 -1
-38 -120 -201 -120 -164 0 19 -11 39 -25 43 -14 4 -68 18 -120 32 -60 15 -95
35 -95 54 0 41 149 21 202 -27 34 -31 43 -31 67 -7 30 33 151 314 151 354 0
14 7 25 16 25 9 0 40 48 70 108 36 70 83 126 137 161 45 30 75 43 66 29 -11
-18 -6 -21 19 -11 20 7 48 13 64 13 15 0 26 11 23 24 -5 25 59 64 189 114 72
28 128 112 59 87 -18 -6 -42 -18 -53 -25 -23 -17 -134 -48 -154 -44 -7 2 -40
-23 -73 -56 -51 -51 -60 -54 -68 -24 -13 51 18 123 60 136 19 6 62 23 95 37
33 15 89 38 124 51 71 27 140 93 118 114 -8 8 -29 4 -48 -9 -52 -37 -169 -88
-216 -94 -56 -7 -168 -57 -168 -76 0 -8 -13 -15 -30 -15 -16 0 -30 -9 -30 -19
0 -11 -12 -15 -26 -10 -20 8 -25 -9 -21 -65 l5 -76 -33 55 c-23 36 -46 51 -68
44 -18 -6 -40 -1 -47 11 -14 22 -50 9 -50 -20 0 -9 16 -22 35 -29 19 -6 62
-33 95 -61 l60 -49 -70 10 c-38 5 -59 4 -45 -2 14 -7 25 -22 25 -33 0 -37 -57
24 -66 70 -7 36 -9 34 -11 -11 -2 -30 -12 -55 -23 -55 -34 0 -22 -49 17 -73
71 -45 0 -227 -89 -227 -28 0 -46 8 -40 17 6 10 -19 14 -55 10 -39 -4 -81 5
-104 24 -22 18 -28 26 -14 19 17 -9 23 2 18 34 -5 29 -21 45 -42 43 -21 -2
-30 7 -23 25 10 27 -10 36 -61 30 -39 -5 -49 33 -18 64 33 33 -7 90 -46 66
-34 -21 -80 10 -100 68 -12 35 -37 60 -66 66 -26 5 -2 9 53 9 55 0 84 -4 65
-9 -28 -7 -31 -17 -14 -47 18 -34 43 -39 210 -39 188 0 189 0 189 -50 0 -45
-8 -50 -81 -50 -49 0 -76 -8 -69 -20 7 -11 52 -20 100 -20 97 0 95 -4 129 189
28 156 28 154 -29 127 -52 -23 -64 -48 -30 -59 11 -4 -118 -5 -287 -2 -255 5
-312 0 -333 -25 -33 -40 -55 -38 -66 5 -7 26 -10 24 -12 -10 -2 -53 -35 -60
-48 -10 -9 33 -9 33 -12 0 -2 -41 -42 -48 -42 -7 0 29 -69 23 -112 -11 -14
-10 -30 2 -44 33 -23 49 -64 69 -64 31 0 -69 100 -191 153 -188 100 4 192 24
214 46 32 32 133 25 146 -9 6 -17 40 -60 74 -96 159 -166 156 -134 32 -382
-143 -288 -187 -335 -305 -335 -156 0 -94 -83 96 -128 33 -8 71 -23 85 -34 36
-29 85 -3 85 46 0 31 11 40 44 35 35 -5 50 10 73 74 57 154 69 122 32 -87 -34
-196 -37 -203 -98 -203 -62 0 -101 -47 -65 -77 26 -21 162 -83 183 -83 5 0 52
85 104 189 52 105 97 187 101 184 12 -12 -122 -309 -188 -416 -87 -141 -84
-204 9 -213 42 -4 64 2 60 16 -3 13 68 45 165 74 256 77 248 80 263 -78 7 -73
19 -151 26 -173 10 -31 2 -42 -33 -48 -37 -6 -32 -11 28 -23 60 -13 122 0 344
73 256 85 340 91 269 20 -13 -13 -14 -25 -1 -33 65 -40 99 204 66 464 -11 85
-26 225 -34 313 -7 87 -20 182 -28 212 -15 53 -15 53 69 44 47 -5 103 0 126
12 58 31 129 -42 71 -74 -62 -35 -5 -62 180 -87 96 -13 174 -30 174 -38 0 -22
210 -118 258 -118 22 0 45 -8 51 -18 15 -25 94 -2 85 25 -4 13 -41 24 -82 25
-42 2 -85 13 -98 26 -12 12 -38 22 -58 22 -52 0 -44 30 19 73 42 28 89 36 202
35 153 -2 156 17 8 42 -47 7 -85 17 -85 21 0 19 129 189 144 189 9 0 16 9 16
20 0 27 140 220 159 220 15 0 8 142 -10 195 -14 45 -38 27 -131 -100 -246
-333 -428 -612 -410 -629 5 -5 20 12 34 37 37 70 180 256 195 254 35 -5 50 5
29 19 -15 9 -17 26 -6 43 14 24 22 24 50 1 29 -24 31 -21 21 32 -8 41 -7 47 5
19 12 -27 21 -31 32 -14 9 14 6 37 -7 51 -30 37 32 108 104 120 50 8 79 -15
39 -31 -9 -4 -77 -96 -150 -204 -132 -195 -320 -369 -365 -336 -11 7 -19 49
-19 93 -1 44 -8 120 -16 168 -12 71 -10 84 10 67 68 -56 170 -51 200 9 28 56
27 58 -20 62 -41 3 -45 -1 -24 -26 21 -26 16 -30 -37 -30 -122 0 -224 158
-123 190 31 10 37 24 28 61 -13 52 93 76 122 29 7 -12 20 -16 29 -11 9 6 59 3
110 -7 93 -17 94 -17 145 61 56 85 52 113 -11 78 -58 -31 -200 28 -225 93 -21
56 -8 89 29 74 14 -5 48 -1 74 9 39 15 59 10 94 -23 60 -55 78 -31 33 44 -42
71 -25 103 28 55 21 -18 44 -33 52 -33 18 0 72 -52 72 -70 0 -7 -8 -7 -19 -1
-10 6 -32 -7 -48 -31 -22 -31 -42 -38 -76 -29 l-47 13 48 -42 c56 -48 66 -41
174 120 71 105 104 166 62 115 -36 -44 -67 -45 -91 -2 -11 20 -31 28 -51 21
-22 -9 -32 -2 -32 22 0 50 56 124 96 125 28 2 27 4 -5 17 -32 12 -33 18 -10
33 28 18 37 21 77 27 23 3 43 82 20 82 -10 0 -18 -13 -18 -29 0 -69 -30 -39
-33 33 -5 120 -46 147 -44 29 1 -52 -4 -100 -10 -107 -7 -7 -13 7 -13 31 0 70
-34 49 -47 -29 -11 -70 -61 -148 -95 -148 -9 0 -12 14 -5 30 6 17 3 30 -8 30
-10 0 -19 -11 -20 -25 -12 -140 -76 -255 -114 -203 -29 39 -111 21 -111 -24 0
-32 -112 -22 -184 15 -18 9 -52 17 -75 17 -22 0 -41 9 -41 20 0 11 10 20 22
20 15 0 14 10 -3 32 -22 26 -22 34 2 49 24 15 23 18 -6 19 -19 0 -35 13 -35
28 0 18 -14 25 -37 19 -23 -7 -36 1 -36 21 0 16 7 26 15 21 8 -5 21 -1 28 11
20 33 210 25 210 -8 0 -52 -24 -92 -55 -92 -84 0 8 -25 114 -32 108 -6 121 -3
121 32 0 21 12 45 27 54 15 9 42 62 61 118 23 71 49 109 84 125 82 38 89 28
47 -70 -38 -87 -19 -171 23 -104 7 11 20 19 30 18 10 -1 21 23 25 53 3 31 20
64 38 74 42 23 -55 64 -163 68 -96 4 -110 16 -61 54 31 23 33 29 8 29 -17 1
-63 -38 -103 -86 l-73 -86 59 -35 c32 -19 53 -43 47 -54 -42 -68 -118 68 -112
201 7 144 -29 198 -90 136 -34 -33 -57 -202 -35 -249 12 -25 20 2 27 92 16
186 61 189 61 5 0 -160 0 -160 -117 -148 l-87 10 12 77 c15 95 4 99 -40 14
-50 -97 -188 -182 -188 -116 0 11 -8 20 -18 20 -10 0 -14 -20 -9 -45 9 -41 8
-42 -14 -8 -31 49 -3 75 95 91 95 16 245 235 211 310 -10 23 -15 100 -9 170 6
79 2 123 -10 116 -11 -7 -16 -42 -13 -78 l6 -66 -20 65 c-11 36 -32 65 -47 65
-44 0 -79 57 -91 147 -22 168 -223 200 -297 47 -15 -31 -43 -54 -65 -54 -22 0
-39 -14 -39 -31 0 -24 8 -26 40 -9 22 12 40 14 40 5 0 -9 31 -28 70 -42 39
-14 70 -39 70 -56 0 -20 -11 -27 -30 -20 -16 7 -30 3 -30 -8 0 -10 18 -19 41
-19 39 0 39 -2 -7 -45 -74 -70 -128 -159 -87 -143 23 8 39 -5 54 -45 21 -56
23 -56 52 -17 28 38 29 38 16 -14 -11 -48 -6 -56 44 -67 108 -24 127 -32 127
-50 0 -11 -9 -19 -21 -19 -11 0 -18 -11 -15 -25 3 -14 -1 -27 -9 -30 -35 -12
-53 -3 -61 30 -8 30 -10 31 -12 2 -2 -35 -82 -29 -82 6 0 30 -132 152 -172
160 -49 10 -60 71 -20 115 18 19 34 78 37 133 l5 99 -65 -7 c-66 -6 -73 23
-21 90 13 17 4 26 -26 30 -25 4 -59 36 -81 77 -20 39 -48 70 -61 70 -13 0 -30
23 -38 50 -9 32 -15 -3 -16 -95 -1 -90 6 -145 19 -145 12 0 16 8 10 19 -21 34
35 48 59 14 27 -37 60 -46 38 -10 -9 14 -5 18 9 9 33 -20 29 -52 -7 -52 -16 0
-30 -9 -30 -19 0 -11 14 -15 30 -8 17 6 30 1 30 -11 0 -12 -35 -22 -81 -22
-73 0 -80 -4 -69 -40 17 -53 -13 -51 -67 6 -26 28 -43 72 -43 112 0 161 -123
241 -195 127 -30 -48 -47 -55 -125 -53 -84 2 -140 -18 -140 -51 0 -21 66 -18
95 4 14 11 25 13 25 5 0 -8 13 -4 29 9 39 33 71 10 71 -50 0 -46 -7 -49 -110
-49 -97 0 -110 -5 -110 -41 0 -46 -55 -139 -83 -139 -26 0 -12 105 19 137 38
41 -7 89 -58 62 -45 -24 -49 -8 -8 34 16 16 39 24 50 17 23 -15 26 10 4 44
-17 27 -224 32 -224 5 0 -29 44 -45 59 -21 11 18 21 16 40 -7 41 -49 13 -86
-57 -76 -97 15 -103 -42 -13 -121 72 -62 73 -66 55 -149 -26 -112 56 -131 94
-22 32 91 42 64 28 -72 -11 -104 -15 -113 -39 -80 -26 35 -27 34 -27 -9 0 -24
14 -58 30 -75 49 -49 35 -67 -51 -67 -59 0 -83 9 -91 35 -20 62 -57 134 -83
161 -42 45 -28 64 40 59 74 -6 90 119 24 184 -28 28 -30 28 -18 -4 16 -42 -17
-46 -49 -7 -32 38 -162 0 -162 -47 0 -18 -10 -43 -22 -55 -16 -16 -13 -52 10
-132 38 -130 39 -140 11 -123 -11 7 -36 0 -55 -14 -31 -24 -31 -24 -6 9 45 57
-3 194 -69 194 -27 0 -49 10 -49 21 0 12 -9 16 -20 9 -45 -28 -19 -63 40 -54
50 7 63 0 80 -45 38 -100 28 -117 -55 -101 -106 20 -122 57 -29 72 62 10 65
13 18 15 -58 3 -122 48 -100 71 7 6 -1 12 -17 12 -31 0 -34 -43 -7 -106 21
-50 3 -61 -76 -46 -61 11 -71 23 -89 97 -15 62 -21 71 -23 35 l-3 -50 -30 50
c-28 48 -29 46 -25 -57 3 -83 -4 -111 -30 -126 -23 -13 -34 -12 -34 3 0 12 -9
17 -20 10 -12 -7 -19 11 -18 44 0 31 6 45 11 31 19 -47 47 -3 47 72 0 111 23
123 235 123 161 0 305 31 305 66 0 23 -139 9 -160 -16 -33 -39 -92 -39 -108 2
-21 55 -14 65 53 72 62 6 65 10 71 96 3 50 -2 80 -10 68 -48 -68 -106 -71
-106 -5 0 50 -6 59 -23 42 -18 -18 -30 -15 -49 11 -13 19 -32 27 -41 18 -9 -9
-6 -22 6 -30 28 -18 22 -92 -12 -132 -21 -26 -21 -38 -1 -62 41 -49 -10 -90
-112 -90 -106 0 -131 66 -32 86 45 9 56 23 60 74 l5 62 -111 -4 c-85 -4 -110
-12 -111 -36 0 -22 -8 -18 -26 14 -26 47 -53 40 -53 -14 1 -22 5 -25 16 -8 8
13 13 -67 10 -178 -6 -229 -24 -288 -29 -94 -2 76 -7 100 -12 59 -6 -50 -13
-61 -26 -40 -15 24 -18 23 -19 -6 0 -19 7 -35 17 -35 24 0 1 -125 -29 -154
-15 -16 -54 -22 -100 -17 -93 12 -128 42 -70 60 23 8 42 23 42 35 0 11 26 17
59 12 l59 -9 -4 122 c-2 66 4 162 12 212 l15 90 -140 -8 c-110 -6 -141 -1
-141 20 -1 37 -39 -22 -40 -60 0 -23 6 -23 30 -3 19 16 30 17 30 4 0 -12 -10
-28 -22 -36 -15 -9 -19 -50 -10 -121 8 -67 5 -107 -8 -107 -11 0 -20 -47 -20
-104 0 -62 -7 -96 -18 -85 -19 20 -62 312 -62 422 0 97 36 82 45 -18 8 -80 8
-79 12 21 4 137 28 184 88 170 43 -11 44 -10 7 19 -52 40 -65 256 -20 326 45
68 14 172 -36 122 -50 -50 -62 -40 -50 37 12 72 -7 88 -64 52z m2147 -639 c7
-21 5 -57 -4 -81 l-16 -44 -50 53 c-48 51 -48 53 -10 81 51 37 66 35 80 -9z
m-1775 -75 c-6 -7 -41 -19 -76 -26 -61 -12 -62 -15 -30 -47 19 -19 29 -43 23
-53 -6 -11 8 -33 31 -49 63 -44 37 -89 -45 -77 -60 9 -62 11 -21 26 53 20 56
47 9 82 -75 56 -49 156 42 156 44 0 74 -6 67 -12z m2581 -77 c-40 -29 -72
-151 -39 -151 12 0 24 24 28 54 4 40 21 57 66 69 52 13 56 12 25 -11 -35 -26
-49 -112 -19 -112 9 0 34 -14 55 -31 38 -30 37 -30 -5 -10 -25 12 -76 18 -114
13 -129 -16 -149 160 -23 208 54 20 70 3 26 -29z m-481 -71 c15 0 32 14 39 30
6 17 25 30 42 30 24 0 25 -6 6 -29 -13 -16 -26 -65 -30 -110 -8 -116 -71 -144
-71 -32 0 52 -47 101 -79 82 -13 -8 -21 8 -21 39 0 30 9 47 20 40 11 -7 21 -1
21 14 1 14 11 6 23 -19 12 -25 35 -45 50 -45z m-154 34 c-17 -14 -30 -57 -30
-102 0 -105 -37 -112 -70 -13 -14 45 -34 81 -43 81 -49 0 -8 39 48 46 129 15
128 16 95 -12z m-2292 -259 c9 -47 6 -75 -7 -75 -12 0 -21 38 -21 83 0 99 9
96 28 -8z m1455 -298 c-17 -58 -20 -60 -21 -17 -2 69 24 161 33 117 4 -18 -2
-63 -12 -100z m1799 -493 c-13 -4 -42 -27 -64 -51 -31 -33 -37 -35 -27 -8 14
37 -20 49 -41 15 -7 -12 -22 -15 -33 -8 -11 7 -19 -4 -16 -25 6 -62 0 -87 -22
-87 -12 0 -15 11 -6 25 9 14 13 41 10 60 -3 21 14 44 46 58 28 13 51 30 51 39
0 23 109 31 118 9 4 -10 -3 -23 -16 -27z m-645 -407 c75 -87 98 -141 53 -124
-14 5 -32 0 -39 -12 -28 -44 -71 -21 -71 38 0 32 -9 64 -20 71 -22 14 -28 110
-7 110 7 0 45 -37 84 -83z m428 -130 l11 -123 -70 -13 c-52 -10 -80 -5 -108
21 -44 40 -31 62 42 71 43 6 50 18 53 82 8 191 55 166 72 -38z m-1438 141 c20
-7 27 -29 20 -64 -12 -70 -19 -75 -56 -38 -39 39 -39 54 0 54 17 0 26 9 19 20
-7 12 -21 15 -31 9 -11 -6 -19 -2 -19 10 0 23 22 27 67 9z m959 -642 c20 -215
43 -379 56 -387 52 -33 -21 -94 -150 -126 -72 -18 -187 -53 -256 -78 -195 -71
-198 -68 -227 195 l-13 120 51 -47 50 -48 -11 45 c-7 25 -29 50 -49 55 -34 9
-33 15 15 71 62 74 255 454 231 454 -29 0 -54 -39 -171 -267 -61 -120 -115
-205 -120 -190 -21 71 -42 408 -26 414 10 5 6 16 -9 25 -19 12 -11 17 28 18
30 0 55 -9 55 -20 0 -11 14 -20 31 -20 17 0 26 9 19 20 -7 12 16 20 56 20 38
0 135 22 216 48 82 27 156 43 166 37 10 -6 12 -1 4 12 -8 13 -6 23 3 23 10 0
33 -168 51 -374z m-781 321 c-45 -18 -26 -64 32 -76 57 -13 57 -13 81 -245 27
-271 45 -243 -210 -324 -228 -71 -283 -68 -241 12 29 55 158 84 203 46 15 -13
36 -10 60 7 34 26 -73 70 -135 56 -26 -6 -16 75 25 197 72 215 144 342 189
338 12 0 10 -6 -4 -11z"/>
<path d="M3940 937 c0 -20 58 -45 155 -66 74 -16 91 16 20 38 -120 37 -175 45
-175 28z"/>
<path d="M30 3967 c0 -70 64 -126 133 -116 43 6 205 -124 176 -142 -12 -7 -18
-31 -13 -51 6 -21 2 -33 -8 -27 -10 6 -23 -2 -30 -18 -6 -17 -24 -26 -40 -20
-44 17 -33 -9 30 -71 40 -39 52 -65 40 -84 -14 -22 -17 -21 -18 7 0 19 -10 35
-21 35 -12 0 -16 -9 -9 -20 7 -11 5 -20 -4 -20 -9 0 -26 -20 -37 -45 -11 -25
-31 -43 -45 -40 -13 3 -24 -6 -24 -20 -1 -17 -6 -16 -19 4 -22 35 -76 45 -94
16 -8 -13 -4 -15 13 -5 18 11 21 8 11 -8 -8 -14 -26 -21 -39 -16 -13 6 -25 -9
-27 -31 -3 -39 4 -40 186 -27 171 12 191 9 203 -23 7 -19 28 -55 47 -80 l34
-45 10 50 c7 35 -1 52 -28 61 -47 15 -49 45 -2 42 42 -4 150 -208 137 -261 -5
-20 2 -56 17 -80 15 -23 38 -91 51 -152 34 -150 63 -235 49 -140 -8 49 -6 61
8 42 20 -29 26 -242 8 -242 -38 0 -292 180 -396 281 -122 118 -112 14 11 -119
55 -60 100 -115 100 -123 0 -26 238 -256 279 -269 22 -7 41 -21 41 -31 0 -10
-16 -12 -35 -5 -31 11 -31 8 3 -31 23 -25 62 -43 96 -43 43 0 62 -13 80 -55
18 -45 24 -48 31 -19 10 45 65 8 65 -43 0 -18 14 -72 31 -119 16 -48 26 -93
21 -100 -4 -8 33 -11 83 -7 68 6 98 -1 116 -25 21 -29 27 -28 69 8 25 22 59
40 74 40 15 0 72 22 126 50 88 44 100 46 116 18 34 -60 47 88 14 152 -37 71
-95 85 -345 79 -355 -8 -405 -2 -405 44 0 22 -18 64 -40 92 -22 28 -40 71 -40
97 0 25 -8 50 -17 56 -9 6 -15 65 -13 132 2 67 -4 126 -13 132 -35 21 -18 112
23 122 31 8 40 27 40 88 0 78 0 78 80 78 44 0 80 8 80 18 0 10 6 34 13 54 9
22 6 30 -8 21 -27 -17 -52 19 -34 48 18 30 68 -40 68 -96 1 -25 11 -43 23 -40
67 15 53 -83 -19 -133 -77 -53 -237 -232 -208 -232 9 0 28 11 41 24 19 19 24
16 24 -10 0 -19 9 -34 20 -34 11 0 14 -26 7 -61 -9 -42 -2 -72 22 -98 23 -25
30 -53 21 -82 -9 -28 -5 -50 13 -61 37 -24 82 -22 67 2 -7 12 11 19 44 19 49
-2 51 -4 16 -19 -74 -32 46 -23 172 12 113 32 176 88 99 88 -21 0 -56 23 -77
50 -50 64 -68 64 -52 0 19 -75 -19 -106 -126 -103 -115 4 -140 74 -45 124 127
65 330 383 288 451 -5 8 3 28 19 43 16 16 31 64 34 107 4 43 16 85 27 93 14 9
12 14 -4 15 -14 0 -25 9 -25 19 0 11 14 15 30 8 17 -6 30 -1 30 11 0 12 -18
22 -40 22 -56 0 -50 57 9 79 79 31 27 115 -79 126 -99 11 -120 1 -86 -41 19
-24 20 -28 1 -17 -14 9 -25 6 -25 -6 0 -11 10 -21 21 -21 12 0 17 -8 11 -17
-16 -25 -112 -3 -112 26 0 13 13 41 29 62 46 61 38 69 -68 69 l-98 0 11 -75
c6 -41 15 -79 19 -83 3 -5 -11 -36 -32 -70 -21 -34 -39 -71 -40 -82 -1 -22 -9
-24 -101 -27 -44 -2 -60 -13 -60 -40 0 -90 -131 -154 -152 -74 -6 27 -25 60
-40 73 -64 53 -32 78 101 78 l129 0 -10 135 c-14 179 -24 225 -51 225 -13 0
-16 -20 -9 -50 7 -29 4 -50 -8 -50 -11 0 -20 18 -20 39 0 61 -68 88 -151 61
-87 -29 -100 -160 -25 -261 47 -63 37 -101 -15 -58 -73 60 -94 143 -98 378 -6
361 -77 463 -327 471 l-134 4 0 -67z m270 -603 c0 -19 83 -17 116 4 33 20 30
-18 -3 -46 -20 -16 -44 -16 -90 0 -59 21 -87 58 -43 58 11 0 20 -7 20 -16z
m960 -214 c0 -14 -14 -31 -31 -38 -18 -6 -26 -3 -19 8 7 11 3 20 -9 20 -11 0
-21 13 -21 28 0 18 14 25 40 18 22 -6 40 -22 40 -36z m-6 -147 c20 17 26 14
26 -9 0 -18 -9 -37 -21 -45 -11 -7 -15 -32 -8 -56 13 -42 12 -42 -16 -3 -42
57 -68 148 -34 115 19 -17 33 -18 53 -2z m-25 -1022 c16 -25 -5 -35 -99 -50
-60 -9 -69 -7 -37 7 24 11 49 29 56 41 16 26 65 28 80 2z m148 -41 c33 0 28
-71 -7 -100 -24 -20 -36 -20 -62 1 -26 22 -34 22 -49 -2 -11 -18 -19 -20 -19
-6 0 13 -5 37 -11 53 -8 20 0 29 25 27 24 -2 38 13 43 46 6 46 9 47 32 15 14
-18 36 -34 48 -34z m-261 -81 c27 -43 15 -86 -21 -74 -23 8 -40 115 -18 115 7
0 25 -18 39 -41z"/>
<path d="M5320 3892 c0 -16 -6 -45 -13 -64 -11 -27 -6 -32 20 -22 18 7 33 4
33 -7 0 -36 35 -19 70 34 l35 52 -53 -13 c-39 -9 -52 -5 -52 18 0 16 -9 30
-20 30 -11 0 -20 -13 -20 -28z"/>
<path d="M5506 3855 c-39 -50 -40 -86 -3 -123 36 -38 37 -37 37 55 0 99 -4
107 -34 68z"/>
<path d="M1235 3760 c24 -22 58 -40 75 -40 25 0 27 8 10 40 -13 25 -42 40 -74
40 l-54 0 43 -40z"/>
<path d="M2892 3784 c-32 -53 -66 -192 -59 -247 9 -80 41 -119 65 -79 14 21
21 19 38 -11 43 -76 135 28 128 144 -11 160 -118 280 -172 193z m128 -172 c0
-55 -59 -82 -96 -45 -30 30 -30 37 -4 53 44 28 100 24 100 -8z"/>
<path d="M1920 3700 c0 -11 12 -20 27 -20 15 0 37 -24 51 -53 l24 -53 31 44
c20 29 43 40 67 32 20 -6 42 -3 49 8 14 23 -115 52 -158 35 -16 -6 -35 -3 -42
8 -15 25 -49 24 -49 -1z"/>
<path d="M5167 3684 c-86 -40 -153 -163 -136 -250 16 -88 135 -130 199 -69 21
20 49 32 63 27 13 -6 28 5 31 24 5 25 25 10 73 -55 60 -84 63 -92 30 -115 -54
-40 -67 -32 -69 49 l-2 75 -20 -75 c-18 -68 -43 -87 -101 -77 -8 1 -15 -8 -15
-19 0 -12 20 -19 45 -15 36 5 45 -4 45 -42 0 -56 44 -80 62 -34 7 18 33 32 59
32 26 0 51 8 57 17 6 10 -14 15 -44 12 -49 -6 -51 -4 -18 20 20 15 52 23 72
17 20 -5 51 6 69 24 29 29 33 29 33 1 0 -17 14 -31 30 -31 78 0 -10 93 -106
112 -57 12 -92 48 -46 48 9 0 22 18 28 40 11 44 56 38 119 -16 31 -27 35 -27
35 4 0 20 9 29 22 21 14 -9 19 0 15 24 -9 43 -132 62 -194 29 -35 -19 -37 -14
-30 64 13 138 -157 226 -306 158z"/>
<path d="M1040 3587 c0 -59 9 -107 20 -107 11 0 20 17 20 38 0 39 58 60 126
46 26 -5 32 -18 22 -51 -13 -42 -12 -42 28 -6 23 20 36 49 31 65 -7 17 1 28
20 28 38 0 64 38 40 59 -9 9 -82 21 -162 26 l-145 10 0 -108z"/>
<path d="M2320 3666 c0 -14 9 -26 20 -26 11 0 20 -13 20 -30 0 -32 18 -37 68
-18 18 7 27 20 22 29 -6 9 -2 22 10 29 45 28 15 51 -60 47 -50 -3 -80 -15 -80
-31z"/>
<path d="M4740 3620 c0 -11 8 -20 19 -20 10 0 32 -14 49 -31 46 -46 83 -15 40
33 -36 40 -108 52 -108 18z"/>
<path d="M132 3483 c-6 -9 -3 -43 5 -75 l16 -58 24 45 c20 37 20 45 -1 40 -15
-3 -24 10 -20 30 6 37 -7 47 -24 18z"/>
<path d="M5722 3433 c26 -57 90 -82 106 -41 6 15 25 28 43 28 77 0 7 51 -78
56 -93 6 -93 6 -71 -43z"/>
<path d="M5250 3320 c-14 -45 4 -86 31 -69 24 15 24 83 0 98 -10 6 -24 -6 -31
-29z"/>
<path d="M5820 3297 c-81 -67 -100 -71 -100 -17 0 44 -29 53 -52 17 -8 -13 0
-33 17 -46 109 -79 91 -603 -19 -562 -31 12 -53 -22 -35 -51 9 -14 19 -15 27
-3 24 39 168 125 210 126 23 0 63 18 88 39 58 48 54 130 -6 130 -23 0 -38 11
-34 27 3 14 -12 31 -34 37 -35 9 -36 13 -8 45 17 20 46 32 65 27 35 -9 39 7
48 192 4 100 -72 118 -167 39z"/>
<path d="M1622 3238 c-2 -42 -14 -55 -59 -64 -64 -13 -101 -103 -50 -122 15
-6 26 -36 24 -66 -2 -48 -4 -49 -11 -11 -11 58 -58 58 -73 1 -14 -55 -21 -51
102 -67 l105 -14 -2 131 c-2 139 -32 314 -36 212z m3 -128 c-10 -52 -35 -62
-83 -32 -41 26 -11 82 45 82 40 0 46 -8 38 -50z"/>
<path d="M328 3183 c70 -78 78 -167 19 -217 -48 -41 -42 -58 18 -48 8 1 15 -7
15 -18 0 -11 -9 -20 -20 -20 -11 0 -19 -16 -18 -35 1 -21 5 -25 11 -10 6 14
19 20 29 14 10 -6 18 4 18 24 0 27 5 30 24 11 13 -13 38 -24 55 -23 27 0 27 3
-2 19 -20 12 -37 60 -46 129 -13 106 -71 211 -116 211 -11 0 -6 -17 13 -37z"/>
<path d="M153 3105 c18 -50 104 -129 126 -116 26 16 18 88 -9 78 -12 -5 -43
10 -69 32 -57 50 -63 51 -48 6z"/>
<path d="M5580 3125 c0 -8 29 -31 64 -51 46 -27 57 -41 38 -53 -17 -10 -19
-20 -6 -29 40 -24 48 31 11 73 -36 41 -36 41 3 27 25 -9 33 -7 20 4 -27 25
-130 49 -130 29z"/>
<path d="M2560 2960 c22 -14 11 -19 -45 -20 -41 0 -75 -10 -75 -22 0 -12 14
-17 32 -10 17 7 69 13 115 14 45 2 66 7 45 12 -30 8 -32 14 -10 28 20 12 10
17 -32 17 -46 0 -53 -4 -30 -19z"/>
<path d="M2360 2890 c0 -41 -10 -50 -54 -50 -52 0 -53 -1 -15 -27 45 -31 83
-35 214 -20 112 13 108 47 -6 47 -71 0 -79 5 -79 50 0 31 -11 50 -30 50 -19 0
-30 -19 -30 -50z"/>
<path d="M4069 2842 c-43 -32 -101 -61 -127 -65 -27 -4 -52 -17 -56 -30 -6
-16 18 -17 84 -5 95 18 238 109 219 140 -18 28 -36 22 -120 -40z"/>
<path d="M1402 2816 c-23 -65 -7 -95 51 -96 26 0 13 74 -16 92 -11 7 -9 23 4
40 15 17 16 28 3 28 -11 0 -30 -29 -42 -64z"/>
<path d="M1555 2782 l11 -107 -63 9 c-76 11 -115 -57 -52 -93 187 -108 257
-231 228 -399 -19 -108 -17 -137 9 -189 39 -75 43 -203 6 -203 -20 0 -22 -32
-11 -145 21 -207 20 -291 -1 -257 -14 22 -21 18 -29 -20 -6 -26 -8 7 -6 75 l5
123 -45 -33 c-25 -18 -46 -43 -46 -56 -2 -48 -178 -111 -342 -122 -158 -11
-188 -35 -126 -104 8 -8 366 31 477 53 33 6 53 4 45 -4 -8 -9 3 -29 25 -44 36
-25 40 -51 40 -248 0 -279 -10 -284 -468 -245 l-154 13 5 62 c7 86 32 112 105
112 35 0 75 11 88 24 18 18 30 15 52 -14 25 -34 27 -27 25 71 -1 60 -5 93 -9
73 -4 -19 -18 -34 -31 -32 -70 9 -95 -3 -84 -40 12 -35 -30 -61 -101 -62 -37
0 -72 473 -46 626 7 41 8 71 2 65 -16 -16 -106 115 -96 140 24 63 -25 70 -80
11 -52 -55 -72 -62 -197 -69 -84 -4 -142 -16 -147 -31 -6 -17 -15 -18 -34 -2
-19 16 -30 16 -40 0 -26 -43 27 -51 180 -29 52 8 71 5 53 -7 -21 -15 -20 -21
7 -31 18 -7 27 -22 20 -33 -7 -12 11 -19 44 -18 31 0 45 6 32 11 -27 11 -12
67 17 67 11 0 13 -11 4 -25 -11 -20 -8 -20 17 0 25 21 35 20 54 -3 26 -32 -3
-64 -38 -42 -11 7 -20 5 -20 -5 0 -20 -173 -85 -227 -85 -30 0 -42 -42 -12
-44 10 0 235 64 274 79 16 6 26 -11 27 -48 0 -31 6 -46 11 -32 18 45 83 29 82
-20 0 -25 10 -147 23 -273 23 -225 20 -330 -5 -150 -18 129 -57 263 -67 233
-13 -35 -39 -31 -39 5 0 17 13 30 28 30 19 0 25 12 17 32 -7 17 -12 49 -12 70
0 21 -9 38 -20 38 -11 0 -19 -7 -17 -15 5 -32 -29 -145 -44 -145 -9 0 -13 -16
-8 -35 70 -290 106 -612 70 -634 -10 -7 -15 -70 -10 -142 7 -96 3 -129 -16
-130 -16 0 -13 -7 7 -19 45 -26 46 -140 2 -141 -25 -1 -21 -7 11 -20 25 -10
45 -32 45 -50 0 -17 -9 -26 -20 -19 -31 19 -24 1 17 -47 55 -63 173 -61 155 2
-7 25 -18 101 -25 169 l-12 125 286 5 286 6 37 67 c33 60 39 126 47 550 6 266
11 510 13 543 1 33 -4 88 -12 123 -19 85 6 96 133 56 145 -45 194 -23 274 125
106 195 113 326 24 446 l-41 56 42 28 c93 62 -10 195 -161 208 -129 11 -178
39 -194 112 l-15 66 -19 -56 c-13 -38 -29 -52 -52 -46 -18 6 -58 16 -88 23
-47 11 -55 24 -56 86 -1 40 -9 91 -19 113 -10 25 -12 -1 -5 -68z m469 -519
c15 -3 76 -110 76 -132 0 -6 -23 9 -52 34 -62 54 -123 79 -137 56 -6 -9 3 -28
19 -41 41 -34 39 -188 -2 -230 -52 -51 -98 -29 -97 45 1 36 -7 65 -16 65 -10
0 -10 11 -1 25 23 36 20 155 -4 157 -11 2 7 9 40 16 53 13 131 15 174 5z
m-784 -1544 c83 -2 197 2 254 9 87 11 106 8 123 -22 19 -33 22 -32 40 14 17
41 21 23 22 -93 1 -176 -10 -207 -72 -207 -28 0 -44 -9 -37 -20 8 -13 -37 -19
-124 -16 l-136 3 110 9 c70 5 97 13 73 22 -20 7 -113 6 -206 -4 -221 -22 -218
-24 -223 139 -3 75 -11 155 -17 177 -10 32 -8 35 15 16 16 -12 96 -25 178 -27z"/>
<path d="M1450 572 c-33 -27 -65 -45 -71 -41 -6 3 -23 -12 -37 -35 -23 -37
-22 -40 8 -29 18 7 40 13 48 13 19 0 142 110 142 127 0 25 -30 13 -90 -35z"/>
<path d="M1920 2830 c29 -35 160 -41 160 -7 0 14 -22 18 -59 10 -33 -6 -65 -3
-71 8 -7 10 -22 19 -34 19 -13 0 -12 -11 4 -30z"/>
<path d="M3 2725 c-3 -83 2 -102 25 -93 15 6 35 0 43 -14 10 -16 6 -20 -13
-10 -15 8 -1 -8 32 -36 74 -64 104 -67 65 -7 -16 25 -42 68 -57 95 -15 28 -33
55 -39 60 -5 6 -20 32 -31 59 -19 44 -22 38 -25 -54z"/>
<path d="M375 2808 c-13 -13 19 -53 135 -168 91 -90 110 -97 110 -40 0 24 -21
50 -51 64 -32 14 -46 34 -39 52 15 40 -52 87 -85 60 -18 -15 -25 -12 -25 12 0
32 -23 42 -45 20z"/>
<path d="M5604 2739 c-38 -35 -61 -99 -36 -99 13 0 132 115 132 128 0 26 -55
10 -96 -29z"/>
<path d="M3676 2713 c-75 -37 -89 -61 -61 -106 11 -17 28 -13 59 12 24 20 40
40 35 45 -5 5 27 20 71 34 44 13 80 32 80 43 0 29 -100 14 -184 -28z"/>
<path d="M5896 2727 c-117 -29 -184 -77 -230 -167 -19 -38 -57 -94 -83 -123
-37 -42 -42 -61 -26 -91 39 -73 19 -506 -23 -506 -20 0 -31 -9 -25 -19 7 -11
24 -15 39 -9 20 8 30 -19 40 -101 6 -61 17 -159 24 -219 l12 -108 -81 22 c-58
16 -83 34 -87 63 -5 35 -23 42 -121 47 -121 6 -159 -24 -60 -49 30 -7 69 -28
85 -46 17 -18 48 -32 70 -31 22 0 64 -11 94 -25 94 -44 165 -30 276 53 63 47
117 74 136 67 20 -8 26 -4 16 12 -8 12 -27 23 -42 23 -14 0 -30 10 -34 23 -5
15 -17 14 -37 -6 -49 -47 -144 -117 -159 -117 -24 0 -40 283 -18 323 13 24 13
37 0 37 -11 0 -25 32 -31 70 -6 39 -16 102 -22 140 -10 66 -7 71 51 83 34 7
56 17 50 23 -18 18 115 144 151 144 25 0 37 -25 47 -100 7 -55 23 -100 34
-100 11 0 15 17 9 38 -14 43 -28 162 -30 247 0 30 -11 55 -23 55 -13 0 -16
-23 -7 -63 9 -43 7 -58 -9 -48 -12 7 -22 35 -22 62 0 36 -11 49 -40 49 -37 0
-48 23 -45 95 0 14 -19 25 -42 25 -34 1 -37 4 -14 19 16 10 36 14 45 9 9 -6
16 0 16 12 0 12 9 17 19 11 10 -7 30 24 43 68 13 45 30 81 38 81 31 0 34 -26
8 -76 -15 -30 -28 -66 -28 -80 0 -15 -13 -40 -30 -57 -45 -45 -36 -82 20 -82
33 0 50 11 50 34 0 18 23 80 51 136 75 151 64 181 -55 152z m-171 -324 c32 -6
15 -103 -18 -103 -19 0 -28 6 -21 13 22 21 -26 66 -58 54 -19 -8 -25 -2 -17
18 9 25 41 30 114 18z"/>
<path d="M2201 2690 c-40 -21 -41 -26 -12 -37 92 -35 375 -4 328 36 -25 21
-277 22 -316 1z"/>
<path d="M2990 2680 c-8 -12 21 -19 74 -18 73 2 78 4 36 18 -71 23 -96 23
-110 0z"/>
<path d="M4513 2615 c-7 -25 -13 -85 -13 -135 0 -51 -30 -170 -68 -275 -37
-102 -59 -185 -48 -185 10 0 13 -18 6 -40 -7 -23 -4 -40 9 -40 20 0 31 63 26
155 -4 64 29 37 45 -36 26 -118 56 -51 52 115 -3 97 4 167 17 175 11 7 21 0
21 -17 0 -16 9 -35 20 -42 12 -7 6 23 -11 67 -22 54 -29 113 -21 181 11 103
-14 157 -35 77z m-15 -440 c-1 -85 -5 -95 -17 -52 -15 48 -7 157 11 157 5 0 7
-47 6 -105z"/>
<path d="M11 2539 c7 -11 48 -43 91 -70 74 -47 78 -55 78 -149 0 -81 7 -100
34 -100 26 0 28 -6 11 -23 -16 -16 -17 -35 -3 -60 14 -27 12 -37 -6 -38 -14 0
-3 -13 24 -29 28 -16 40 -29 27 -29 -13 -1 -19 -18 -13 -41 6 -22 19 -35 28
-29 10 6 18 0 18 -15 0 -14 6 -48 13 -74 9 -34 6 -44 -10 -34 -14 9 -23 1 -23
-18 0 -19 -10 -27 -25 -20 -14 7 -5 -5 20 -27 52 -45 59 -83 16 -83 -17 0 -25
-12 -19 -28 7 -18 -9 -30 -51 -36 -55 -8 -61 -4 -61 42 l0 52 -29 -56 c-16
-30 -43 -69 -60 -86 -17 -17 -31 -53 -31 -81 0 -27 -8 -44 -18 -38 -11 6 -17
-79 -15 -204 2 -173 9 -215 32 -215 16 0 35 -22 43 -50 8 -27 15 -43 16 -34 1
8 14 4 29 -10 16 -14 24 -36 19 -48 -4 -13 11 -28 35 -34 24 -6 37 -21 30 -33
-7 -11 -5 -21 4 -21 10 0 17 -58 17 -130 0 -71 -8 -130 -16 -130 -22 0 6 -187
30 -203 11 -7 20 -55 19 -105 -1 -84 11 -109 39 -82 5 6 2 58 -8 115 -41 248
-21 661 34 706 27 22 50 59 50 81 0 42 58 135 59 95 1 -13 17 -19 37 -14 31 8
46 84 24 127 -3 6 -3 17 -2 26 2 10 -6 12 -17 5 -10 -7 -14 -25 -9 -40 6 -15
-7 -37 -28 -49 -46 -24 -73 15 -66 93 3 25 -5 45 -17 45 -58 0 -13 59 54 71
119 20 138 28 138 58 0 21 -11 23 -48 9 -26 -10 -84 -18 -129 -18 l-82 0 43
37 c53 46 55 62 6 50 -46 -12 -72 61 -33 93 39 32 50 255 18 370 -73 265 -133
451 -143 442 -6 -6 -34 5 -63 25 -66 46 -128 70 -111 42z m199 -979 c7 -11 13
-47 14 -80 1 -33 10 -60 19 -60 9 0 17 -36 17 -80 0 -44 -9 -80 -20 -80 -11 0
-20 -10 -20 -21 0 -12 8 -16 19 -10 29 18 51 -207 22 -236 -30 -29 -92 46
-121 147 -52 183 5 526 70 420z"/>
<path d="M360 2419 c0 -25 60 -145 80 -159 8 -5 26 -32 40 -60 14 -27 56 -75
93 -106 37 -32 67 -70 67 -85 0 -16 14 -29 30 -29 17 0 30 -10 30 -21 0 -12 9
-16 20 -9 11 7 20 4 20 -6 0 -32 111 -67 167 -53 67 17 51 40 -98 139 -101 67
-369 320 -369 348 0 7 -18 24 -40 37 -26 16 -40 18 -40 4z"/>
<path d="M4120 2368 l-90 -28 96 10 c101 10 205 50 124 47 -22 0 -80 -13 -130
-29z"/>
<path d="M5951 2381 c-7 -10 -1 -105 11 -212 19 -158 18 -197 -4 -210 -22 -14
-21 -28 6 -83 32 -65 33 -62 31 164 -1 140 -10 236 -23 245 -15 10 -14 14 3
15 14 0 25 23 25 50 0 50 -27 67 -49 31z"/>
<path d="M2323 2325 c49 -62 58 -74 120 -161 67 -93 106 -101 46 -10 -57 89
-157 205 -176 206 -10 0 -6 -16 10 -35z"/>
<path d="M2660 2247 c0 -32 105 -146 124 -135 12 8 17 2 13 -12 -7 -19 -153
-88 -217 -102 -27 -6 -160 -80 -160 -90 0 -6 8 -5 18 1 28 17 42 -42 42 -180
l0 -128 -185 -216 c-101 -118 -196 -227 -210 -242 -30 -31 -16 -63 27 -63 17
0 25 8 19 18 -11 18 141 222 166 222 7 0 52 -23 100 -50 109 -62 102 -63 224
13 l102 62 99 -97 c54 -53 98 -108 98 -122 0 -14 8 -26 19 -26 58 0 19 56
-169 241 -116 114 -210 219 -210 233 0 14 -10 26 -21 26 -14 0 -20 62 -17 180
6 179 20 210 74 156 18 -18 24 -18 24 -1 0 13 14 19 30 12 17 -6 30 -4 30 6 0
9 36 34 80 55 44 21 76 43 70 48 -5 6 0 21 11 35 15 18 7 28 -29 37 -37 9 -48
23 -41 55 4 23 2 37 -5 30 -7 -7 -34 1 -59 17 -26 17 -47 25 -47 17z m-183
-849 l4 -142 -76 46 c-41 25 -78 47 -82 50 -7 5 136 188 146 188 2 0 6 -64 8
-142z m208 -39 c-8 -7 -49 -33 -90 -57 l-75 -45 0 146 0 145 90 -88 c49 -48
83 -94 75 -101z"/>
<path d="M5808 1955 c16 -237 35 -339 63 -349 14 -4 12 70 -4 219 -14 124 -25
250 -26 280 -1 30 -11 55 -24 55 -17 0 -19 -56 -9 -205z"/>
<path d="M3640 2019 c-31 -74 -13 -99 72 -99 39 0 65 8 59 19 -7 10 -29 15
-51 11 -54 -10 -74 30 -22 44 53 13 55 58 3 71 -28 8 -44 -5 -61 -46z"/>
<path d="M1507 1630 c-62 -57 -254 -170 -340 -200 -41 -14 -60 -29 -45 -34 35
-12 182 20 206 44 10 10 0 13 -25 7 -77 -21 -45 9 50 45 51 20 112 54 136 77
24 22 61 53 82 67 22 14 29 21 16 15 -13 -6 -27 -4 -30 4 -4 8 -26 -3 -50 -25z"/>
<path d="M1265 1587 c-25 -18 -45 -40 -45 -51 0 -10 25 -1 55 20 30 21 69 43
85 50 21 8 18 11 -10 11 -22 1 -60 -13 -85 -30z"/>
<path d="M4470 1460 c56 -24 170 -24 170 0 0 11 -47 19 -105 19 -77 -1 -94 -6
-65 -19z"/>
<path d="M1440 1256 c-113 -25 -106 -9 -71 -157 23 -100 24 -133 5 -157 -19
-23 -19 -26 1 -15 16 10 26 2 28 -21 6 -65 8 -76 23 -99 16 -27 83 -14 113 21
13 16 12 90 -3 220 -18 164 -17 199 6 214 34 21 16 20 -102 -6z"/>
<path d="M5405 1239 c-25 -10 -45 -30 -45 -46 0 -42 94 -17 106 29 11 42 5 44
-61 17z"/>
<path d="M1143 1226 c29 -5 69 -26 88 -47 47 -53 69 -49 69 11 0 52 -29 68
-47 25 -8 -20 -10 -20 -11 0 -1 16 -29 24 -77 22 -57 -2 -62 -5 -22 -11z"/>
<path d="M5192 1225 c-15 -14 -22 -17 -74 -22 -12 -2 -18 -15 -12 -31 6 -15 0
-39 -13 -54 -19 -21 -17 -22 11 0 19 14 33 35 30 46 -2 11 13 23 33 27 42 7
64 24 50 39 -6 6 -17 3 -25 -5z"/>
<path d="M5610 1185 c-22 -5 -48 -17 -58 -26 -10 -9 1 -12 24 -6 45 12 112
-37 88 -64 -8 -8 -4 -9 9 -2 53 30 1 111 -63 98z"/>
<path d="M4740 1140 c0 -12 -7 -18 -17 -12 -9 6 -17 -1 -17 -14 -1 -13 -8 -49
-16 -79 -11 -43 -8 -55 18 -55 25 0 30 12 19 53 -9 38 -3 60 21 78 22 16 27
30 13 38 -11 7 -21 3 -21 -9z"/>
<path d="M5867 1101 c-23 -60 24 -81 59 -26 9 14 26 20 37 13 14 -8 12 -19 -6
-30 -21 -14 -19 -17 8 -18 43 0 46 52 5 93 -27 27 -30 26 -30 0 0 -17 -11 -37
-23 -45 -16 -10 -20 -4 -11 18 7 18 5 37 -3 42 -8 5 -25 -16 -36 -47z"/>
<path d="M789 1124 c-23 -17 -23 -67 1 -174 10 -44 17 -86 15 -93 -2 -7 13 -8
34 -3 32 8 34 18 17 73 -11 35 -24 94 -29 132 -10 81 -12 83 -38 65z"/>
<path d="M2440 1047 c0 -24 82 -37 197 -32 15 1 23 -13 19 -32 -5 -18 8 -49
28 -68 20 -19 36 -29 36 -23 0 7 13 2 29 -11 21 -17 39 -18 65 -3 20 11 27 21
16 21 -11 1 -21 24 -23 52 -4 68 -15 77 -65 50 -35 -19 -43 -15 -53 26 -14 56
-249 75 -249 20z"/>
<path d="M4572 1031 c17 -54 21 -58 49 -41 17 11 16 20 -4 33 -22 14 -22 20 3
36 23 15 20 19 -15 16 -35 -3 -42 -12 -33 -44z"/>
<path d="M2241 841 c-36 -27 -59 -33 -85 -19 -27 15 -36 12 -36 -11 0 -17 7
-32 15 -33 8 -1 35 -4 59 -6 25 -3 39 3 32 15 -7 11 4 15 28 9 29 -8 40 -2 38
22 -1 17 10 30 24 27 15 -4 21 3 14 15 -17 28 -33 25 -89 -19z"/>
<path d="M5360 840 c-18 -11 -15 -21 13 -37 36 -22 -2 -20 -137 6 -21 4 -29
-3 -22 -21 5 -15 20 -22 33 -14 14 8 12 0 -3 -18 -14 -18 -48 -38 -76 -45 -27
-7 -46 -19 -42 -27 5 -8 -20 -41 -54 -74 -64 -62 -232 -97 -232 -49 0 12 -8
16 -18 10 -9 -6 -28 2 -41 18 -23 28 -101 35 -101 9 0 -8 25 -20 55 -27 30 -8
72 -32 93 -55 30 -32 41 -35 56 -13 15 21 21 22 29 2 6 -14 19 -20 29 -14 10
6 19 2 21 -10 1 -11 3 -32 5 -46 2 -14 -1 -29 -7 -35 -47 -44 -60 -102 -26
-113 57 -21 105 -71 91 -95 -8 -12 2 -9 21 6 44 36 59 20 36 -40 -32 -86 -16
-147 41 -154 48 -6 50 -3 37 81 -18 116 -7 147 36 109 27 -24 220 -74 558
-145 113 -24 252 207 241 398 l-6 103 -87 -127 c-81 -117 -85 -130 -62 -185
13 -33 19 -65 13 -71 -7 -6 -18 12 -25 41 -20 80 -89 20 -89 -79 0 -16 -10
-29 -21 -29 -40 0 -99 41 -99 70 0 73 -92 140 -153 111 l-57 -28 70 -14 c69
-13 69 -14 10 -16 -33 -1 -123 12 -200 29 -77 17 -180 37 -228 44 -96 15 -129
53 -63 74 22 7 67 50 99 96 32 46 94 119 138 161 l80 77 127 -13 c70 -7 190
-26 267 -41 77 -15 174 -32 215 -37 l75 -10 0 83 c-1 55 -7 75 -18 57 -14 -23
-21 -21 -37 7 -14 25 -36 33 -72 26 -29 -6 -53 -5 -53 2 0 15 -79 27 -185 29
-49 0 -75 10 -75 27 0 19 -14 14 -45 -15 -36 -33 -46 -35 -51 -12 -7 34 -69
54 -104 33z"/>
<path d="M3260 720 c0 -11 7 -18 15 -16 8 3 40 -12 71 -33 46 -30 61 -32 80
-11 16 17 16 21 1 13 -12 -7 -34 1 -47 17 -13 16 -32 25 -41 19 -9 -5 -22 -1
-29 11 -16 26 -50 26 -50 0z"/>
<path d="M2173 630 c7 -19 0 -30 -20 -30 -17 0 -40 -16 -52 -35 -18 -31 -23
-31 -40 -5 -17 25 -20 23 -21 -12 0 -47 52 -57 69 -12 10 24 17 24 45 1 29
-23 32 -23 21 7 -7 19 -5 40 6 47 25 15 25 69 0 69 -11 0 -15 -13 -8 -30z"/>
<path d="M577 556 c-8 -102 0 -176 20 -176 13 0 7 242 -6 256 -4 4 -10 -32
-14 -80z"/>
<path d="M2555 586 c-37 -9 -49 -46 -15 -46 11 0 20 -14 20 -31 0 -17 9 -26
20 -19 11 7 18 34 15 61 -2 27 -4 48 -4 47 -1 -2 -17 -7 -36 -12z"/>
<path d="M5405 520 c5 -19 38 -32 92 -36 45 -4 83 -15 83 -25 0 -38 4 -49 23
-73 11 -13 15 -33 9 -43 -7 -10 2 -24 20 -31 49 -19 68 -14 68 16 0 16 11 32
24 37 36 12 0 53 -75 84 -52 22 -65 37 -55 63 11 29 5 32 -36 20 -102 -29
-127 -30 -144 -7 -12 18 -15 17 -9 -5z"/>
<path d="M5317 446 c-28 -5 -73 -30 -98 -57 l-46 -49 52 0 c32 0 65 18 84 44
31 45 107 -3 78 -49 -12 -20 136 -19 168 1 15 10 -9 25 -67 40 -68 18 -89 33
-81 54 7 17 1 29 -13 27 -13 -2 -48 -7 -77 -11z"/>
<path d="M772 408 c-7 -17 -3 -46 7 -65 20 -33 22 -29 31 52 5 52 -20 60 -38
13z"/>
<path d="M3174 321 c-20 -34 -27 -61 -15 -61 11 0 21 14 21 30 0 48 79 -10 82
-60 2 -36 4 -36 12 -4 5 21 -4 52 -20 70 -16 19 -32 46 -37 60 -4 15 -22 0
-43 -35z"/>
<path d="M4210 343 c9 -16 4 -35 -12 -47 -19 -13 -5 -16 47 -11 41 4 75 -1 75
-10 0 -10 9 -12 20 -5 38 24 20 50 -36 50 -31 0 -68 11 -83 25 -22 20 -24 20
-11 -2z"/>
<path d="M260 117 c1 -15 19 -49 42 -77 23 -27 35 -38 27 -22 -8 15 -16 46
-17 68 -2 44 -52 74 -52 31z"/>
<path d="M5940 50 l-47 -50 54 0 c43 0 53 9 53 50 0 28 -3 50 -7 50 -3 0 -27
-22 -53 -50z"/>
</g>
</svg>
