<svg xmlns="http://www.w3.org/2000/svg" viewBox="0 0 300 300"><g fill="#fff"><path d="M4.5 1.7C6.15 2.55 7.75 3.6 8 4c.3.4 1.65 1.05 3 1.45 1.95.55 2.2.45 1-.4C9.75 3.35 3.2 0 2.3.05c-.45 0 .55.75 2.2 1.65zM43 1.5c4.45 1.45 7 1.35 7-.3 0-.45-2.6-.9-5.75-1L38.5.05 43 1.5zM56.55.95c-3.75 6.05 36.8 18.7 42.3 13.2 1.7-1.7 2.15-1.75 5.5-.4 4.2 1.7 4.6 2.7 1.4 3.75-2 .65-2.05.75-.4 1.2 1 .25 2.35-.3 3.05-1.25 1-1.4 1.65-1.5 3.2-.6 1.8 1.05 1.8 1.15-.35 1.75-2.45.7-3.1 2.4-.85 2.4 1.15 0 4.6-4 4.6-5.3 0-1.8-14.45-5.85-15.5-4.35-.7.9-1.75 1.65-2.35 1.65-.65 0-1.15.5-1.15 1.05 0 .6-.5.75-1.15.35-.65-.4-2.35-.85-3.75-1-9.4-1.1-11.65-2.85-8.15-6.35C84.05 5.95 84.5 4.8 84 4.5c-.5-.3-1.5.35-2.2 1.45C81.1 7.1 79.95 8 79.25 8c-1.95 0-1.45 1.75.95 3.45 2.9 2 2.35 1.95-5.65-.5-5.6-1.75-6.5-2.3-5.5-3.5.95-1.2.8-1.45-.85-1.45-1.1 0-2.2.45-2.4 1.05-.2.6-1.1.45-2.3-.5-1.8-1.35-1.8-1.5-.25-1.5.95-.05 1.75-.4 1.75-.8.05-2.4 1.8-3.4 3.9-2.3 1.2.65 1.95 1.5 1.65 1.95-.25.45.55.6 1.85.35 3-.55 4.6 1.7 1.7 2.45-2.4.6-2.85 2.3-.65 2.3C74.85 9 78 5.35 78 3.8 78 2.6 71.05 0 67.9 0 66 0 65 .5 65 1.5c0 .8-.65 1.5-1.5 1.5-.8 0-1.5.5-1.5 1.1 0 .6-.55.9-1.25.65S59.5 3.5 59.5 2.5c0-2.1-2-3.15-2.95-1.55zM173.45 3.05C171 7.85 160.3 25.65 156.1 32c-5 7.5-5.3 8-4.7 8 1.8 0 25.4-38.55 24.25-39.65-.25-.3-1.25.9-2.2 2.7zM188.6 1.6c-.85 2.25-.8 2.4 1 2.4 1.25 0 1.45.65 1 2.75L190 9.5l1.45-2.5c.8-1.4 1.5-1.95 1.5-1.25.05.7.75 1.25 1.65 1.25 1 0 1.4-.55 1.05-1.5-.35-.85-.15-1.5.35-1.5s.9 1.55.8 3.45c-.05 1.9-.5 3.25-.95 2.95-.45-.3-.85.2-.85 1.05 0 .85-.5 1.55-1.1 1.55-.6 0-.9-.6-.6-1.35.3-.7-.1-1.3-.9-1.3-.75 0-1.4.35-1.4.8 0 .45-.5.85-1.05.85-.6 0-.75-.5-.35-1.15.45-.75.25-.9-.55-.4-.95.6-1.1.2-.65-1.55.4-1.35-.9.75-2.85 4.6-3.65 7.35-4.2 9-2.55 8 .55-.35 1-.2 1 .3 0 .55 1.3.85 2.9.7 2.3-.2 2.85.1 2.5 1.4-.25.85.95-1.2 2.6-4.65 1.65-3.45 3.4-6.25 3.9-6.25 2.85 0 3.2-8 .5-10.75-1.75-1.75-3.45-1.55-2.75.25.35.95 0 1.5-1 1.5-2.15 0-3.2-2.05-1.55-3.1 1.15-.7 1.1-.85-.25-.9-.9 0-1.9.7-2.25 1.6zm-1.5 15.25c.7-1.05.85-1.1.9-.05 0 .75.45 1.05 1 .7 1.15-.7 1.25-.3.4 1.9-1.15 2.95-5.55.6-4.55-2.4.4-1.2.55-1.25.95-.15.35 1.15.6 1.15 1.3 0zM269.5 7.25c-2 4-4.1 7.25-4.7 7.25-.6 0-2.9 4.15-5.05 9.25-2.2 5.1-4.55 9.25-5.25 9.25-1.5 0-2.8 2.75-1.95 4.1.8 1.25-2.05 5.05-3.05 4.15-.45-.4-.5-.2-.1.5s.25 1.25-.25 1.25c-1.8 0-4.25 3.2-3.7 4.85.25.9 0 2.3-.55 3.15-.9 1.25-1 1.2-.55-.25.35-.95.35-1.75.05-1.75-.95 0-3.55 3-3.8 4.25-.35 2.4-7.25 13.75-7.95 13.1-.35-.4-.65.1-.65 1.05 0 1.85-5.55 11.05-8.4 13.85-.95.95-1.4 1.75-1 1.75.4 0-.3 1.1-1.6 2.5-1.3 1.35-1.95 2.5-1.4 2.5.5 0 .45.35-.15.75s-2.1 2.45-3.35 4.55c-1.25 2.05-2.8 4.3-3.45 5-1.35 1.4-8.65 12.2-10.2 15.2-.6 1.1-1.9 3.35-2.95 5-3.35 5.4.05 1.2 6.55-8 5.5-7.85 19.05-27.55 32.4-47 7-10.25 15.9-25.3 26.05-44 5.4-9.9 9.95-18.35 10.2-18.75.25-.4-.05-.75-.55-.75-.55 0-2.65 3.25-4.65 7.25zM0 4.45C0 5.3.65 6 1.5 6S3 6.65 3 7.5C3 8.3 2.35 9 1.5 9S0 9.45 0 10c0 1.95 3.1.95 3.9-1.25 1-2.6.7-3.35-1.95-4.8C.4 3.15 0 3.25 0 4.45zM132 6c0 1.05 2.95 2.45 7.55 3.6 1.8.45 2.45.2 2.45-.95 0-1.05-.55-1.4-1.65-.95-1.05.4-1.45.25-1.05-.4.4-.6-.65-1.3-2.45-1.7-4.2-.8-4.85-.75-4.85.4zM10.05 8.95c-.6 1.1-1.8 2.05-2.6 2.05S6 11.5 6 12.05c0 .65-.95.85-2.25.45-1.85-.5-1.95-.4-.6.45 2.05 1.3 6.25-.1 7.6-2.5 1.05-1.85 5.35-1.65 6 .3.25.7-.75 1.7-2.15 2.2-3.3 1.25-3.35 2.45-.1 1.8 1.4-.25 2.5-.15 2.5.25 0 1.5 7.95.9 8.85-.65.45-.9 1.8-1.4 3.15-1.2 3.1.45 3.85 2.85.9 2.85-1.2 0-1.95.3-1.6.65.4.35.2 1.25-.45 2-2.2 2.7.5 1.25 3.4-1.75 3.2-3.35 2.9-4.35-1.85-5.35-2.25-.45-3.3-.25-3.7.75-.6 1.55-4.7 3.05-4.7 1.7 0-.45-.9-.6-2-.3s-2 .1-2-.4c0-1.75 1.25-2.25 3.05-1.25 1.2.6 2.05.6 2.45-.05.9-1.5-.75-3.5-3-3.6-1.1-.05-3.45-.4-5.2-.8-2.6-.6-3.35-.35-4.25 1.35zM226.75 8.75c-.3.95-.8 2.45-1.2 3.35-.35.95-.1 1.6.65 1.65.7.05 2.45.4 3.8.75 2.45.65 2.45.65-.25-1.15-2.45-1.6-4.15-4.35-1.8-2.9.5.35 1.45-.2 2.05-1.2 1-1.55 1.1-1.5.65.45-.25 1.25-.15 2.15.2 2.1 2.4-.5 6.35 1.6 5.05 2.6-.75.65-1.9 2-2.5 3.05-1.1 2-6.4 4.05-6.4 2.5 0-.5-.9-1.35-2-1.95-1.65-.9-1.85-.8-1.35.75 1.5 4.1 5.35 6.8 5.35 3.7 0-1.05.6-1.4 1.75-1.05 1.25.35 2.7-.8 4.95-3.85 3.3-4.45 3.3-5.55.15-5.55-2.05 0-2.6-2.95-.6-3.1 1.75-.15-3.3-1.7-5.9-1.8-1.2-.05-2.35.65-2.6 1.65zM286 8.25c0 1.1 6.3 3.75 9 3.75 2.55 0 .65-2-2.5-2.55-1.95-.4-3.75-1.1-4.05-1.55-.85-1.35-2.45-1.1-2.45.35zM27 8.6C51 13.2 71.25 18.7 80.25 23 82.3 24 84 24.45 84 24c0-2.85-40.4-14.55-53.25-15.45-3.45-.25-5.1-.25-3.75.05z"/><path d="M91 9.6c-2.4 1.5-1.65 1.45 2.5-.2 1.75-.65 1.85-.55.7.8-1.9 2.35.15 3.05 2.1.75.95-1.05 1.25-1.95.75-1.95s-1.5-.2-2.2-.45c-.75-.25-2.45.2-3.85 1.05zM145 9.5c-.9 1.05-.9 1.55-.1 1.6 2.05.25 2.6.45 3.95 1.3.75.5 1.8.35 2.4-.25 1.2-1.2.65-2.2-1.4-2.5-.75-.1-1.85-.55-2.5-.9-.6-.4-1.7-.05-2.35.75zM280.95 12.8c-4.85 5.15-4.4 9.05.65 5.7 1.95-1.25 2.25-1.95 1.45-2.95-.8-1-.7-1.45.4-1.9 1.55-.6 2.2-3.7.8-3.6-.4 0-1.9 1.25-3.3 2.75zM120 13c11.65 2.5 30.9 9.75 26.45 9.95-.6.05-1.95.75-3 1.6-1.85 1.5-1.85 1.55.55.85 2.2-.6 2.35-.5 1.1.95-1.45 1.75-4.1 2.25-4.1.75 0-.5-.9-.7-2-.4-2.4.65-2.55-.5-.45-3.5.95-1.3 1.1-2.2.5-2.2-.6 0-1.35.65-1.7 1.5-.3.8-1.25 1.5-2.05 1.5-2.15 0-1.05 2.3 1.8 3.75 5.6 2.85 12.95-1.2 10.2-5.65-1.95-3.15-26.4-11.2-33.25-11.05-1.4.05 1.3.9 5.95 1.95zM36.5 14c-1.35.6-1.5.9-.5.95 1.1.1.85.65-.85 2.1-1.75 1.4-1.95 1.95-.8 1.95.85 0 1.9.65 2.35 1.45 1.05 1.85 5.4.95 4.65-1-.3-.75.7-2 2.3-2.95 1.6-.9 2.05-1.35 1-1.05-1 .3-2.2.55-2.65.55-.5 0-1.15.85-1.45 1.9-.4 1.25-1.25 1.75-2.55 1.4-1.55-.4-1.7-.8-.75-2.35.65-1 1.5-1.6 1.95-1.35.4.3.5-.2.2-1.05-.35-.85-.7-1.5-.75-1.5-.1.05-1.05.5-2.15.95zM286.15 16.55c-1.45 3.25-1.45 3.45.25 3.45.75 0 1.65-.8 2-1.75.3-.95.85-2.3 1.2-3 .3-.7-.05-1.25-.85-1.25-.8 0-1.95 1.15-2.6 2.55z"/><path d="M118 18c-.6 1.1-1.75 2-2.55 2-.8 0-1.45.45-1.45 1 0 1.75 2.45 1.1 3.75-1 1.35-2.15 3.75-2.65 4.75-1 .35.55-.4 1.4-1.6 1.85-1.65.6-1.9 1.05-.95 1.65.85.5 1.95 0 3.05-1.5 1.3-1.7 2.25-2.1 3.6-1.5 1.05.45 2.9.7 4.15.6 1.25-.15 2.25.2 2.25.7 0 .55-1 1.25-2.25 1.65-1.45.45-1.8.85-.95 1.2 1.45.6 5.2-2.35 5.2-4.1 0-.65-3.15-1.7-7-2.35-9-1.55-8.75-1.55-10 .8zM49.55 17.9c-6.1 2.4 1.15 8.95 10.05 9.05 1.75.05 5.1.9 7.5 1.95 4.85 2.05 13.9 3.35 13.9 2 0-.5.7-.9 1.5-.9.85 0 1.5-.9 1.5-2 0-2.3-1.8-2.7-2.6-.55-.55 1.45-6.1 3.2-7.05 2.2-.3-.25 1.2-1.4 3.3-2.55 2.1-1.1 3.4-2.05 2.85-2.05-.55 0-2.5.9-4.35 2-2.35 1.45-4.25 1.85-6.25 1.45-3.85-.85-3.65-1.65.85-3.75 3.45-1.6 2.55-1.65-1.5-.05-1.6.6-1.6.5-.25-1.2s1.35-1.8-.35-1.2c-1 .4-2.05.7-2.3.7s-.2.45.15 1 .2 1-.35 1-1.8.3-2.8.65c-1.5.55-1.4.15.55-2C65.25 22.2 65.85 21 65.25 21c-.6 0-1.7-.25-2.45-.5-.75-.3-2.25.15-3.35 1-1.85 1.45-1.8 1.45.8.55 2.9-1.05 4.1.5 1.25 1.6-.8.3-1.25.95-1 1.4.45.7-6.5-.75-7.35-1.6-.2-.15 1.4-1.2 3.5-2.35 2.1-1.1 3.25-2.05 2.5-2.05-.75-.05-2.65.9-4.25 2-1.6 1.15-3.7 1.9-4.65 1.65-1.25-.3-.7-.85 2-2.05 4.05-1.8 5.15-3.2 1.6-2.1-1.4.45-1.9.3-1.4-.45.75-1.25-.05-1.3-2.9-.2zM291.7 18.95l-2.85 1.8 2.75.7c1.45.35 3.15.2 3.7-.35.65-.65.2-.8-1.3-.4-1.65.45-2.1.25-1.55-.6.4-.65 1.7-1.15 2.9-1.05 4 .3 5.3-.1 3.15-1.05-2.8-1.2-3.6-1.1-6.8.95zM217.95 22.55c-.5 1.45-1.4 3.45-2 4.5-.55 1.1-.65 1.95-.15 1.95s1.4-1.15 2-2.5c1.25-2.75 4.85-3.6 3.8-.9-1.55 4-1.75 6.4-.6 6.4.65 0 .95-.65.65-1.4-.3-.8.2-1.7 1.15-2.05 1.4-.55 1.45-.8.15-1.6-1.2-.75-1.15-.9.3-.95 2.65 0 2.1-1.7-.75-2.4-2.9-.75-3.3-2.25-.75-2.9 1.3-.35 1.15-.5-.5-.6-1.6-.05-2.6.7-3.3 2.45zM0 24.5c0 .75.55 1.6 1.25 1.9 1 .5 1 .7 0 1.2-.7.3-1.25 1.1-1.2 1.75C.05 30.6 4 26.3 4 25c0-.4-.9-1-2-1.3-1.25-.3-2 0-2 .8zM180.6 24.6c-.25.7.05 1.5.7 1.75.75.3.6.5-.35.55-1.3.1-8.75 13.1-7.45 13.1.25 0 1.85-2.7 3.5-6 2.7-5.4 4.75-8.15 3.4-4.65-.55 1.5 1.7 2.85 5.25 3.15 1.5.1 2-.25 1.6-1.25-.3-.75-1.35-1.2-2.3-.95-1 .25-2.05-.1-2.3-.8-.7-1.75.25-2.5 2.75-2.4 1.85.1 1.8.2-.4.95-2.45.8-2.4.85.4.65 1.65-.1 3.15-.8 3.35-1.5.25-.7.05-1.2-.4-1.1-2.35.4-4.35-.25-4.35-1.45 0-1.7-2.75-1.75-3.4-.05zM6.3 27.35c-.45.7-1.7 1.65-2.8 2.1-1.4.55-1.6.95-.7 1.25.75.3 2.4-.5 3.7-1.7 1.6-1.5 3-2 4.4-1.55 1.95.65 3.1 2.7 1.35 2.45-2.55-.4-3.6.15-2.45 1.3 1.5 1.5 5.85-2.3 4.75-4.1-.95-1.55-7.3-1.35-8.25.25zM21 28.5c-.7.8-1.85 1.5-2.6 1.5-.8 0-1.4.45-1.4 1 0 1.5 2.6 1.2 3.9-.4.95-1.1 1.8-1.15 4.15-.3C28.2 31.5 29 33 26.5 33c-.8 0-1.5.45-1.5 1 0 1.55 2.15 1.15 3.5-.65.65-.9 1.7-1.35 2.35-.95 1.8 1.1 1.35 2.3-1.1 3.1-2.15.7-2.15.75-.25 1.2 1.1.3 2.25.9 2.55 1.4.3.45 1.4-.6 2.45-2.35 1.75-3.1 1.75-3.15.05-1.75-1.7 1.35-1.8 1.3-1.15-.6.55-1.8-.1-2.4-4.5-4.25-6.15-2.55-6.3-2.55-7.9-.65zM85.9 27.75c-.1.4-.2 1.35-.25 2.05-.1.7-.75 1.65-1.5 2.1-.95.6-.6 1 1.4 1.5 1.5.4 3.2.25 3.75-.3.65-.65.25-.8-1.15-.45-3.15.85-2.65-.4 1.1-2.7L92.5 28l-3.5.55c-2.65.45-3.15.35-2-.45 1-.75 1.1-1.05.25-1.1-.7 0-1.3.35-1.35.75zM271.3 30.25c-4.25 4.75-3.5 8.25 1.2 5.15 1.85-1.2 2.25-2 1.5-2.9-.75-.9-.6-1.45.45-1.85.85-.3 1.55-1.05 1.55-1.6 0-1.8-2.55-1.15-4.7 1.2zM92 30.5c-.7.8-.9 1.5-.5 1.5s.2.65-.45 1.4c-1.2 1.45 4.3 3.6 5.7 2.2.3-.35.05-.6-.6-.6-2 0-1.25-1.75 1.1-2.55 5.8-1.95 18.7-.05 31 4.55 5.4 2 9.55 5.05 4.9 3.55-1.45-.45-2.45-.05-3.35 1.4-1.35 2.15-4.8 2.85-4.8 1 0-.6-.45-.8-1-.45-1.25.75-8-.5-8-1.5 0-.4 1-1.05 2.25-1.45 1.6-.5 1.85-.85.8-1.25-1.5-.6-5.4 3.35-4.55 4.65 1.5 2.45 12.8 3.4 14.55 1.2 2.15-2.6 5.2-2.95 4.25-.5-.85 2.3 1.35.85 2.75-1.75C139.2 36 100.4 26.6 95 32c-2.2 2.2-2.55 1.85-.95-1.05 1.2-2.3-.25-2.6-2.05-.45zM279.25 31c-1.75 2.75-1.7 2.8 2.4 3.9 4 1.1 5.35.75 5.35-1.45 0-.8.6-1.15 1.5-.8 1.45.55 2.1-.75.9-1.9-.95-1-3.4.35-3.4 1.85s-1.8 1.8-4.4.8c-2-.8-2.1-2.4-.1-2.4.85 0 1.5-.45 1.5-1 0-1.75-2.45-1.1-3.75 1zM293.35 33.35l-2.15 4.3 4.4 1.6 4.4 1.65v-2.7c-.05-1.95-.3-2.3-.9-1.3-.6.9-1.75 1.15-3.5.7-2.95-.75-3.4-2.35-.95-3.3 3.2-1.2 5.4-4.05 3.7-4.7-2.45-.95-2.75-.75-5 3.75z"/><path d="M103.95 34.75c-.75 1.5-1.55 3.05-1.75 3.45-.9 1.8 7.8 3.15 9.65 1.45 1-.9 2.35-1.65 3-1.65.6 0 1.15-.45 1.15-1 0-1.5-2.6-1.2-4 .5-1.4 1.65-4.75 1.95-6.9.6-1.9-1.25-.45-3.1 2.45-3.1 1.35 0 2.45-.5 2.45-1.05 0-.6-.4-.8-.95-.5-.5.3-1.2.15-1.55-.45-1.05-1.65-2.1-1.15-3.55 1.75zM178.45 33.1c-.9 1.45.65 2.85 3.9 3.45 2.05.4 2.65.1 2.65-1.3-.05-1.5-.15-1.55-1-.25-.7 1.1-.95 1.15-1 .2 0-.75-.45-1.05-1-.7-.55.35-1-.1-1-.95 0-1.8-1.55-2.05-2.55-.45zM215.75 32.7c-1.95.5-5.05 5.65-4.05 6.65 1.5 1.55 4.1.6 3.6-1.25-.3-1.15.35-2.75 1.6-4 2.1-2.1 2-2.25-1.15-1.4zM4 34.7c4.3 1.9 20.4 5.3 24.5 5.2 1.65-.05-1.5-.9-7-1.9-5.5-1-12.25-2.5-15-3.4-6.2-1.95-7.1-1.9-2.5.1zM219.5 33.75c-.55.4-1 1.85-.95 3.25 0 1.35-.4 2.8-.95 3.2-1.9 1.25.1 1.85 2.75.85 2.8-1.05 3.6-4.35 1.4-5.7-.85-.5-.45-1 1.25-1.45l2.5-.7-2.5-.1c-1.35-.05-2.95.25-3.5.65zM38.25 36c-.7 1.1-2.05 2-2.95 2-1.35 0-1.45.25-.45 1.25 1.05 1 1.65.8 3.2-1.1 1.65-2 2.3-2.2 4.7-1.3 2.7 1 2.7 1.05.5 1.7-1.3.4-2.25 1.5-2.25 2.6 0 1.75.25 1.7 2.7-.55 1.95-1.8 3.1-2.25 4.35-1.6 1.6.9 2.95.4 2.95-1 0-.6-1.8-1.25-10-3.55-.85-.25-2.1.45-2.75 1.55zM189.6 36.65c-.35.9-.5 1.8-.25 2 .8.85 3.65-.95 3.65-2.25 0-1.95-2.65-1.75-3.4.25zM176.75 36.6c-1.25 1.2-.85 2.4.75 2.4.85 0 1.5.35 1.5.85 0 .45.65.8 1.4.8.8 0 1.2-.6.9-1.3-.3-.75-1.1-1.35-1.8-1.35-.75 0-1.5-.5-1.7-1.05-.2-.6-.65-.75-1.05-.35zM53.3 39.3c-.45.75-1.6 1.65-2.55 2-.95.35-1.75 1.1-1.75 1.65 0 1.7 1.9 1.2 3.75-.95C54.5 39.95 60 39.2 60 41c0 .55-.65 1-1.5 1-.8 0-1.5.5-1.5 1.05 0 1.6 3.1.7 4.35-1.25 1.35-2.1 1.05-2.35-3.55-3.2-2.6-.45-3.9-.25-4.5.7zM68.25 41c-.7 1.1-1.95 2-2.75 2-.85 0-1.5.45-1.5 1 0 1.6 3 1.15 3.65-.5.7-1.85 3.1-1.85 6.35 0l2.5 1.45-2.25.65c-1.2.35-1.95 1.05-1.65 1.6.35.5 1.35.25 2.35-.65 2.2-2 7.05-1.75 6.25.35-.3.85-.75 1-.95.4-.4-1.2-5.25.6-5.25 1.95 0 1.4 5.1.3 6.75-1.5 2.05-2.3.75-3.65-5.75-6.2a203 203 0 0 0-5.5-2.15c-.55-.25-1.55.5-2.25 1.6zM171 40.5c0 .8.8 1.55 1.75 1.55 1.35.05 1.2.3-.5 1-3 1.2-2.85 2.6.35 3.65l2.65.9-3.65 3.2c-2 1.75-3.05 3.2-2.3 3.2.7 0 2.4-1 3.75-2.25 1.3-1.25 2.75-2.15 3.15-2 .4.1 1.15-.55 1.7-1.55.8-1.5.5-1.8-1.7-2-1.45-.1-3.1-.7-3.65-1.35-.75-.8.15-.95 3.45-.55 2.5.3 3.65.3 2.6 0-1.55-.4-1.65-.7-.5-1.5 1.05-.7.85-.85-.85-.5-1.25.3-2.25.2-2.25-.15s-.9-1.25-2-1.9c-1.65-1.05-2-1-2 .25zM43.65 44.05c2.85 2.75 27 9.05 34 8.85C79.2 52.85 75.8 52 70 51c-5.75-1.05-14.25-3.2-18.85-4.8-4.55-1.65-7.95-2.6-7.5-2.15zM209.7 45.45c-2.15 3.5-3.6 7.3-2.95 7.95 1.05 1.1 2.45.6 2-.65-.4-.95.6-1.2 3.6-.95 2.45.2 3.65-.05 2.95-.55-.9-.6-.75-1.55.75-3.8 2.55-3.9 2.55-3.95-1.6-4-2.45 0-3.9.6-4.75 2zm3.65.65c2-.3 2.9 0 2.25.65-.45.4-1.7.75-2.85.75-1.15 0-2.3.65-2.55 1.4-.25.8 0 1.1.6.7.6-.35 1.35-.2 1.7.4.35.55-.05 1-.9 1-2.25 0-2.75-1.55-1.45-4.45.75-1.6 1.45-2.2 1.9-1.5.35.6.95 1.1 1.3 1.05zM0 45.75C0 46.45.65 47 1.5 47c2 0 1.9 1-.25 2.6-1.55 1.2-1.55 1.35-.1 1.35 1.65.05 5.55-4.85 4.1-5.1-.4-.05 1.05-.45 3.25-.9 3.5-.65 3.2-.7-2.25-.6-4.3.1-6.25.5-6.25 1.4zM261.7 47.1c-3.05 3.55-3.4 4.9-1.15 4.9 3.05 0 5.65-2.05 4.5-3.45-.8-1-.7-1.45.4-1.9.85-.3 1.55-1.05 1.55-1.6 0-2.05-2.6-1-5.3 2.05zM269.35 48.55c-2.05 3.15-1.55 3.65 6.6 6.3 5.65 1.9 6.55 1.95 7.3.65.45-.8 1.5-1.5 2.3-1.5.8 0 1.45-.7 1.45-1.55 0-1.2-.4-1.3-2-.45-1.1.6-2 1.45-2 1.95 0 .45-.9.65-2 .35-1.1-.3-2-.95-2-1.4 0-.5.9-.9 2-.9s2-.65 2-1.45c0-1.7-2.85-1-4.5 1.1-.8 1-1.8 1-4.75.05-3.65-1.15-5.2-3.7-2.3-3.7.8 0 1.7-.45 2.05-1 1.4-2.3-2.6-.8-4.15 1.55zM9.1 48.4c-.75.9-1.95 1.6-2.7 1.6-.8 0-1.4.45-1.4 1 0 1.6 2.2 1.15 4.45-.95 1.65-1.5 2.75-1.75 5.55-1.1l3.5.75-3 1.3c-1.85.75-2.5 1.45-1.65 1.75.75.25 2.4-.05 3.65-.75s2.9-1 3.65-.7c.95.35.8.55-.4.6-2.05.1-2.4 2.1-.35 2.1 2.8 0 4.85-4.7 2.3-5.35-7-1.7-12.3-1.8-13.6-.25zM37 50.55c7.45 1.85 13.95 3.2 14.5 3.05 1.2-.35-24.45-6.65-26.55-6.5-.8.05 4.65 1.6 12.05 3.45zM84.95 49.15c-.6 1.05-1.45 1.65-1.95 1.35-.45-.3-1.15-.1-1.5.5-1 1.6 1.65 1.15 3.6-.6 1.4-1.25 2.35-1.4 4.6-.55 2.75 1 2.75 1.05.55 1.7-2.55.8-3.05 2.45-.7 2.45.85 0 1.3.4 1 .95-.35.55.5.6 2.2.1 1.95-.55 3.15-.35 4.05.6 1.05 1.1.95 1.35-.5 1.45-1 .05-.2.5 1.7 1 4.4 1.1 10.65.2 11.4-1.65.6-1.65 3.4-1.85 5.6-.45 1.25.85 1.1 1.1-.8 1.65-1.5.4-2.1 1.15-1.75 2.05.3.8.55 1.65.55 1.9 0 .2.8.4 1.75.4 1.5-.05 1.55-.15.25-1-1.3-.8-1.2-1.15.5-2.45 2.3-1.7 4.5-2 4.5-.55 0 .55-.65 1-1.5 1-.8 0-1.5.45-1.5 1.05 0 .65.65.7 1.75.1.95-.45 2.25-.7 2.85-.5.6.25 1.9-.8 2.9-2.25 1.55-2.45 1.6-2.65.1-2.1-1.9.75-11.8-1.3-12.7-2.6-.35-.5-1.3 0-2.1 1.15-.85 1.25-3.05 2.35-5.5 2.7-4.4.7-6.25-.55-3.8-2.55.85-.7 1.5-1.7 1.5-2.3 0-.55-.8-.25-1.85.65-2.95 2.65-5.85 1.75-3.1-1 .75-.75-.7-1.5-5-2.6-5.85-1.45-6.15-1.45-7.1.4zM24.65 52.6c-1.3 1.75-1.45 2.45-.5 2.25.75-.15 2.85.55 4.65 1.5 4.75 2.55 15.7 3.7 18.25 1.9 1.6-1.1 2.65-1.15 5.7-.15 6.8 2.15 6.9 2.2 4.5 2.65-1.25.2-2.25.8-2.25 1.3 0 1.45 2.6 1.15 3.9-.45.65-.75 2.05-1.15 3.15-.9 2.3.6 2.65 2.3.45 2.3-.8 0-1.5.45-1.5 1 0 1.7 2.6 1.1 4.5-1 2.4-2.65 1.65-3.25-8-5.9-7.45-2.1-8.2-2.1-11-.65-3.25 1.7-8.95 2.15-8.05.6.35-.55-.75-.75-2.7-.45-4.95.7-6.9-1.1-3.9-3.6 2.8-2.35 1.55-2.6-2.45-.55-3.2 1.7-4.25 1.3-2.4-.95.7-.8.85-1.5.35-1.45-.45 0-1.7 1.15-2.7 2.55z"/><path d="M162 51.5c0 .8.35 1.5.8 1.5.4 0 .85.8.95 1.75.55 4.7 1.1 5.75 3.05 6.05 1.35.2 1.9.85 1.55 1.75-.6 1.6-3.35 2-3.35.5 0-.5-.85-.75-1.95-.55-1.35.25-1.75-.05-1.4-1.05.35-.9-.05-1.45-1.1-1.45-1.25 0-1.5.55-1.05 2 .35 1.15.2 2-.45 2-.55 0-1.05.45-1.05 1s.7 1 1.55 1c.95 0 1.3-.45.85-1.15-.5-.85.4-1 3.3-.5 3.3.5 4.3.25 6-1.6 2.7-2.95 4.6-6.75 3.45-6.75-.5 0-1.2.7-1.55 1.55-.3.85-1.05 1.3-1.6.95-.55-.35-.7.1-.35 1.05.55 1.4.35 1.5-1.35.6-3-1.6-3.7-5-.9-4.5 2.1.4 2.1.4-.05-.55-1.2-.55-2.45-1.9-2.85-3.05-.75-2.35-2.5-2.75-2.5-.55zM290.75 53.3c-1.5 1.25-2.75 2.6-2.75 3 0 1.4 2.05.65 3.75-1.3 2-2.4 7.25-2.75 7.25-.5 0 .85-.9 1.5-2 1.5-2.55 0-2.6 1.6-.05 2.95 2.6 1.45 2.5 1.55 2.75-2.85.2-3.25-.1-3.95-2-4.5-3.35-.9-3.95-.7-6.95 1.7zM210.6 54.15c.75 1.2-1.55 5-2.65 4.35-.5-.35-.65.15-.25 1.1.45 1.25.3 1.5-.7.9-.85-.55-1.05-.4-.6.35 1.2 1.9 2.3 1.35 4.5-2.2 2.45-4 2.65-5.3.65-5.3-.8 0-1.25.35-.95.8z"/><path d="M204.3 55.95c-.95 1.5-.95 2 0 2.4.65.25.3.55-.75.55-1.55.1-1.7.35-.7 1.35 1.5 1.5 3.45-.85 2.6-3.1-.35-1 .1-1.25 1.6-.85 1.7.45 1.85.3.9-.9-1.6-1.85-2.25-1.75-3.65.55zM1.5 55.95c1.1.5 8.8 2.5 17.1 4.55 8.3 2 17.75 4.45 21 5.45l5.9 1.85-3.7.7c-2 .4-4.45 1.55-5.4 2.6-2.1 2.35-.75 2.5 1.75.25 1.1-1 1.85-1.2 1.85-.5 0 .65.45 1.15 1 1.15s1-.75 1-1.6c0-1.35.75-1.5 4.65-.95 5.95.9 10.05 2.45 8.8 3.35-4.2 3.05-3.7 4.05 3.15 6.15 5.75 1.8 6.95 1.9 8.3.7.9-.75 2.3-1.65 3.1-1.95 1-.35.8-.55-.7-.6-1.2-.05-2.4.3-2.7.75-.6 1-7.6-.95-7.6-2.1 0-.4 1-.8 2.25-.85 1.85-.1 1.9-.2.4-.6-1.05-.25-2.35 0-2.95.6-1.35 1.35-3.7 1.45-3.7.1 0-.55.7-1 1.5-1 4.85 0 .7-3.15-8.5-6.45-11-3.95-53.1-14.4-46.5-11.6zM68.8 59.35c2.1 1.15 2.15 1.45.75 2.6-.85.7-1.55 1.75-1.55 2.35 0 .6 1.1 0 2.45-1.25 1.3-1.25 2.9-1.95 3.5-1.6 1.5.95.35 2.5-2.7 3.65-3.15 1.2-2.25 2.35 1.2 1.5 1.4-.35 2.55-1.3 2.55-2.15 0-.85.7-1.8 1.55-2.1 1.05-.4-.25-1.25-3.75-2.45-6.25-2.15-7.1-2.3-4-.55zM254.3 60.35c-.45.75-1.45 1.55-2.2 1.8-1.65.55-2.6 4.85-1.05 4.85 2.3 0 5.1-2.2 4.55-3.6-.3-.75-.1-1.4.45-1.4.5 0 .95-.7.95-1.5 0-1.85-1.65-1.95-2.7-.15z"/><path d="M6 61.5c-.7.8-2.45 1.5-3.85 1.55-3.45 0-1.05 1.45 3.95 2.35 2.65.45 3.95.2 4.9-.9.7-.8 1.85-1.5 2.6-1.5.8 0 1.4-.45 1.4-1 0-1.5-2.1-1.2-4.15.6-1.15 1.1-2.4 1.35-3.55.85-1.6-.7-1.55-.85.45-1.2 1.25-.2 2-.8 1.7-1.3-.8-1.35-2.05-1.15-3.45.55zM198.75 65.35c-3.25 5.2-3.3 5.3-.8 5.9 1.65.45 1.8.2 1-1.85-.5-1.3-.55-2.25-.15-2.15.4.15.8-.1.9-.55.5-1.8 3.4-3.75 4.55-3.05.85.5.85.2-.1-.95-1.95-2.4-2.3-2.2-5.4 2.65z"/><path d="M205.6 64.55c-.3.85-1.05 1.3-1.6.95-.6-.35-.7.1-.3 1.1.45 1.25.3 1.5-.7.9-.9-.55-1.05-.4-.55.4.4.65.2 1.85-.5 2.65-.65.8-.85 1.45-.45 1.45.95 0 3.05-2.6 5.05-6.25.8-1.5 1.1-2.75.6-2.75-.5 0-1.2.7-1.55 1.55zM261.9 66.45c-1.15 1.9-2.95 3.75-4.05 4.1-2.9.9-1.6 1.65 1.55.9 1.4-.35 2.35-1.05 2.05-1.55-.3-.5.4-.9 1.55-.9s1.85.4 1.55.9c-.3.5.25.7 1.2.45.95-.25 4.9.25 8.75 1.05 6.6 1.4 7.1 1.4 8.5-.35.85-1 2.2-2 3-2.3 1.75-.5-4.55-4.75-7-4.7-.8.05.15.75 2.15 1.6 4.5 1.85 2.95 5.45-1.95 4.55l-2.6-.5 2.45-.95 2.45-.95-2.5-1.05c-4.35-1.8-7-1.9-7.6-.3-.75 1.85-4.75 2.15-4.15.3.25-.7.9-1.25 1.5-1.25s1.45-.4 1.9-.9c.5-.5-.1-.65-1.4-.35-1.25.3-2.25.15-2.25-.35 0-2.2-3.25-.6-5.1 2.55zm12.65 1.45c-.3.5 0 1.15.7 1.45.7.25 0 .55-1.5.55-2.65.1-3.5-.8-2.1-2.25 1.05-1 3.55-.8 2.9.25zM16.3 66.9l-2.25 2.85 8.25 1.65c7.3 1.45 8.3 1.45 9.3.1.6-.8 1.85-1.5 2.75-1.5.9 0 1.65-.45 1.65-1 0-1.55-2.6-1.2-4.05.55-.7.85-1.95 1.25-2.85.9-.9-.35-2.65-.75-3.9-.9-3.25-.4-4-1.55-1.4-2.2 1.2-.3 2.2-1 2.2-1.45 0-1.45-1.2-1.05-3.55 1.15-1.25 1.2-2.8 1.75-3.8 1.35-1.95-.75-1.25-2.2 1.7-3.4 2.05-.8 2.05-.85.15-.9-1.1 0-3 1.25-4.2 2.8zM86.8 66.2c-1.55 1.55-1.8 2.3-.9 2.6.75.25 2.4-.75 3.75-2.2 3.1-3.3.45-3.7-2.85-.4zM93 66.45c0 .8-.8 1.9-1.75 2.45-.95.6-1.2 1.05-.55 1.05.65.05 2.35-1.1 3.7-2.45 2.3-2.3 2.35-2.5.55-2.5-1.05 0-1.95.65-1.95 1.45zM97.55 66.9c-.3.5 0 1.15.7 1.45.7.25.25.55-.95.55-1.2.05-2.5.6-2.9 1.25-.5.8-.05 1 1.45.6 1.2-.3 2.4-.15 2.7.35.95 1.5 3.7 1.05 3.15-.5-.35-.9.3-1.55 1.85-1.85 2.9-.55 3.35 1.6.7 3.15-1.6.95-1.55 1.05.4 1.05 1.2.05 2.85-1.05 3.75-2.45 1.8-2.75 2.15-2.5-4.6-2.95-.95-.05-2-.45-2.4-.85-1-1-3.15-.9-3.85.2zM154.3 66.65c1.15 1.1-1.25 4.3-2.8 3.7-.85-.3-1.5-.05-1.5.55 0 .6.35 1.1.8 1.1.4 0 .85.8.95 1.75.7 5.8 2.35 8 3.6 4.75.35-.9.25-1.35-.25-1.05-1.35.85-2-3.15-.75-4.5.9-.95.8-1.05-.25-.45-.9.55-1.2.35-.9-.6.3-.75 1.45-1.35 2.65-1.3 1.65.05 1.85-.25 1-1.25-.8-1-.8-1.35.1-1.35.65 0 .9-.45.55-1s-1.35-1-2.25-1c-.85 0-1.3.3-.95.65zM162.6 67.15c.5.8 0 1-1.5.6-1.85-.5-2-.35-1.05.85.7.85.8 1.4.2 1.4-.6 0-1.3.7-1.6 1.5-.7 1.75 2.7.4 3.85-1.5.35-.6 1.05-.8 1.5-.5.5.3 1.35-.25 1.85-1.25.85-1.5.6-1.85-1.5-2.05-1.65-.1-2.2.2-1.75.95zM288.4 70.55c-2 3-1.7 3.35 3.25 4.5 5.1 1.2 8.35 1.15 8.35-.05 0-.55-1.1-1-2.5-1-1.35 0-2.5-.45-2.5-1s.7-1 1.5-1c.85 0 1.5-.45 1.5-1 0-1.6-3-1.15-3.65.5-.65 1.75-3.9 2-4.9.45-.35-.6.3-1.35 1.45-1.65 2.4-.6 2.85-2.3.6-2.3-.8 0-2.2 1.15-3.1 2.55zM109.7 71c-2.05 2.45-2.1 3-.35 3 1.35 0 4.65-3.05 4.65-4.35 0-1.4-2.65-.55-4.3 1.35zM193.25 72.85c-.7.45-1.5 1.8-1.7 3-.25 1.2-.05 1.95.45 1.65.45-.3 1.15-.1 1.5.5.9 1.45 2.75 1.25 2.2-.25-.25-.7-.95-1.15-1.55-1-1.5.35-1.45-2.05.05-3.55 1.35-1.35.9-1.55-.95-.35z"/><path d="M195.65 73.45c-.3.8.05 2.15.85 2.9.75.8 1.2 1.7.95 2.05-.25.3-.15.4.2.1.35-.25 1.3.05 2.1.7 1.35 1.15 5.15-2.1 5.25-4.45.05-1.6-3-.65-4 1.3-1.35 2.45-3.2 1.6-2.8-1.3.35-2.45-1.7-3.5-2.55-1.3zM160 76.05c-.6 1.1-1.5 1.75-2.05 1.45-.5-.35-.65.15-.25 1.1.5 1.3.3 1.5-.8.9-.75-.45-1.1-.45-.7-.05.4.45.25 1.75-.3 2.95-.55 1.15.6.35 2.55-1.8 1.95-2.15 3.55-4.55 3.55-5.25 0-1.95-.75-1.65-2 .7zM243.35 75.9c-2.65 2.15-3.4 5.2-1.45 5.9.85.25 1.1 0 .7-.65-.4-.65-.15-.95.6-.65 2.05.75 4.65-1.3 2.95-2.35-1.05-.7-1-1 .25-1.5 1.9-.7 2.15-2.65.35-2.6-.7 0-2.25.85-3.4 1.85zM3 78.8c-1.4 1.5-2.1 2.35-1.55 1.95.5-.4 1.7-.75 2.65-.75s1.9-.55 2.1-1.15c.45-1.3 22.35 1.55 24.3 3.15 1.2.95 16.2 4 22.4 4.5 2.4.2 4.65.8 5 1.3.35.5 2.5 1.2 4.8 1.55 2.3.35 5.4 1.1 6.9 1.7l2.7 1-2.85 3c-1.55 1.6-2.5 2.95-2.1 2.95 1 0 7.6-4.4 7.65-5.05.05-2.4-26.35-9.45-50.5-13.4C15.7 78.05 7.85 76.7 7 76.5c-.8-.2-2.65.85-4 2.3zM85 76.65c.85.3 2.15.7 2.9.95 2.65.85-2.1 3.15-6.65 3.2-4.3.1-6.15-1.7-2-1.9 1.85-.1 1.9-.2.4-.6-1.05-.25-2.35 0-2.95.6-.6.6-2 1.05-3.15 1.05-1.8-.05-1.75-.2.45-1.15 1.65-.65 2.05-1.2 1.15-1.55-1.4-.5-5.95 3.3-5 4.2 1.6 1.6 15.55 1.75 16.15.2.35-.9 1.55-1.65 2.65-1.65 2.25 0 2.6.95 1.05 2.8-.75.85-.65.95.2.2.65-.55 1.95-1 2.9-1s1.9-.45 2.1-1.05c.45-1.4 4.2.15 4.6 1.9.15.75-.25 2-.9 2.8-.65.75-.95 1.65-.7 1.9.3.3 1.3-.65 2.2-2 1.2-1.9 1.3-2.55.35-2.6-.7-.05-.35-.45.75-.9 2.05-.8-12.5-6.15-16.3-5.95-1.35.05-1.4.15-.2.55zM259.7 77.65c-.35.35-1.85.7-3.3.75-3.05.1-6.95 4.6-4 4.6.85 0 1.6.45 1.6.95 0 .55.6.75 1.3.5.75-.3 4.2.15 7.75 1 6.1 1.45 6.55 1.45 8-.3.85-1 2.1-2.05 2.85-2.3 1-.3.85-.8-.5-1.9-.95-.8-1.5-.95-1.1-.35 1 1.75-2.55 4.5-4.3 3.35-1.25-.75-1.2-.9.25-.95 2.5 0 2.15-1.65-.5-2.35-2.8-.75-4.85 1.05-2.75 2.4 1.1.7.7.9-1.75.95-3.55 0-4.45-1.9-1.25-2.7 1.1-.3 2-1 2-1.5 0-.55-.65-.75-1.5-.45-.8.35-1.5.2-1.5-.3s.8-1.1 1.75-1.35c1.4-.4 1.35-.5-.35-.6-1.15-.05-2.35.2-2.7.55zm-.5 2.6c1.4-.35 1.9-.2 1.45.55-.75 1.2-6.65 1.35-6.65.15 0-1.05 2.45-1.85 2.8-.9.15.4 1.25.5 2.4.2zM119.5 79c-.35.6-1.15.75-1.8.35-.65-.35-.85-.3-.45.15.4.45-.95 2.65-3 4.95-14.85 16.5-18.9 21.1-21.5 24.35-1.6 2-3.25 3.9-3.65 4.2-.35.25-5.4 5.65-11.15 12-5.7 6.3-10.65 11.7-10.95 12-.35.25-3.45 3.85-6.95 8-3.5 4.1-6.65 7.7-7 8-.35.25-3.75 4.1-7.5 8.5-3.8 4.4-9.3 10.6-12.25 13.75L27.9 181l-4.2-.95c-2.3-.5-6.55-1.2-9.45-1.55-2.85-.35-6.7-1.05-8.5-1.55-4.7-1.4-5.75-1.2-5.75 1.05 0 1.1.45 2 1 2s1-.45 1-1 1.55-.4 3.75.4c4.05 1.55 12.25 2.85 18.75 3 2.2.05 4.3.5 4.65 1 .35.5 1.85-.3 3.3-1.75 1.65-1.65 3.8-2.7 5.85-2.75 1.75-.1 2.4-.35 1.45-.6-2.15-.55-2.25-2.15-.2-2.95.9-.35 2.2.2 3.05 1.25 1.4 1.8 1.45 1.8 1.2-.6-.15-1.4-.85-2.5-1.55-2.5-2.15 0-1.45-1.4 3.45-7 3.5-3.95 5.5-5.5 7.4-5.5 3.4 0 3.85-.6 2.9-3.95-.75-2.6-.55-2.9 2.2-3.45 8.4-1.65 12.95-.15 9.6 3.2-.95.95-.7 1.2 1 1.2 2.35 0 3.05-2.75 1.15-4.65-1.2-1.2 19.6-3.35 32.2-3.35 6.05 0 7.75.35 8.25 1.6 1 2.65.7 3.4-1.45 3.4-1.15 0-1.8-.45-1.5-.95 1-1.55-3.25-3.2-7.25-2.8l-3.7.35 4.75 1.3c2.6.75 4.75 1.75 4.75 2.2 0 .5 2.6.85 5.75.75 3.15-.1 4.5-.35 3-.55-3.25-.5-4-4.8-1-5.6 4.6-1.2-23.15-.5-37.55.95-8.95.9-16.55 1.35-16.85 1-.8-.75 5.75-8.45 7.3-8.55.6-.05 1.35-1 1.65-2.1.7-2.7 3.55-2.55 4.65.25.7 1.7.95 1.85 1 .5 0-.95.5-1.75 1.05-1.75s1-.45 1-1-1-.85-2.25-.75c-1.45.15-2.25-.3-2.25-1.25 0-1.7 8.15-2.65 25.1-2.85l10.1-.15 1.05 3.25c1.05 3.2 1.05 3.2 1.15.5.05-2.05.6-2.75 2.1-2.75 2.2 0 2.7 1.55.75 2.3-.7.25-.9.8-.5 1.25.4.4 1.8.3 3.05-.3 1.5-.65 2.95-.7 4.05-.1.95.55 2.7.85 3.95.65 2-.35 1.9-.5-1.15-2.15-1.85-1-4.2-1.6-5.2-1.35-1.05.25-2.05-.05-2.25-.65-.25-.8-6.1-1.1-20.05-1.05-10.85.05-19.6-.25-19.45-.65 1.15-3 10.2-10.95 12.6-11l2.7-.1-2.4-.95c-3.9-1.55-.15-4.9 5.55-4.9 5.05 0 5.45-.8 1.6-3.35-1.5-1-1.95-1.55-.95-1.25 1.1.35 1.7.1 1.6-.65-.3-2.65.15-3.85 1.25-3.15.65.4.9.25.55-.3-.35-.5 0-.95.8-.95 1.05 0 1.15.45.4 1.85-.55 1-1.35 1.65-1.75 1.4-.4-.25-.7.35-.7 1.35 0 1.05.5 1.6 1.25 1.35.7-.3 1.05-.85.8-1.3-.25-.4.6-1.9 1.9-3.3 1.8-1.9 2.1-2.85 1.25-3.75-.85-.95-.85-1.1 0-.6.7.4 3.65-3 7.4-8.55 3.45-5 7-9.9 7.85-10.8 3.4-3.55 5.4-6 4.8-6-.3 0-.85.45-1.2 1zM149.4 80.55c.3.85.15 1.3-.35 1-.5-.35-1.2-.15-1.55.45-.7 1.1 3.75 1.45 4.8.35.8-.8-1.15-3.35-2.55-3.35-.5 0-.7.7-.35 1.55zM188.95 81.35c-1.05 2.1-1 2.1.5.2.85-1.05 1.55-1.4 1.55-.75 0 .65.95 1.2 2.05 1.2 1.3 0 1.8.4 1.35 1.15-.45.7-.25.9.45.45 1.85-1.15 1.35-2.1-1.85-3.3-2.7-1-3.15-.9-4.05 1.05z"/><path d="M8.1 82.35l-2.2 2.4 2.2.55c1.3.35 2.7.05 3.3-.75.6-.7 2.45-1.65 4.1-2.1 2.8-.75 2.85-.85.65-1.2-1.5-.25-3.3.45-4.95 1.9L8.6 85.5l1.7-2.75c2.15-3.35.85-3.6-2.2-.4zM279.5 81.7c-1.85.45-5.45 4-5.5 5.4-.05 1.75 15.3 3.2 16.5 1.55.65-.9 2.05-1.65 3.1-1.7 1.6 0 1.5-.35-.9-2.5-1.55-1.35-3.8-2.4-5-2.35-1.65.05-1.35.3 1.05 1 1.8.55 3.25 1.3 3.25 1.75 0 1.5-2.45 3.15-4.45 3.05-1.7-.1-1.75-.2-.3-.6 2.15-.55 2.3-2.3.2-2.3-.8 0-1.75.65-2.1 1.5-.3.8-.9 1.3-1.3 1.05s-2.25-.75-4.1-1.05c-1.85-.35-3.55-.75-3.75-.95-.35-.35 4.5-2.75 7.8-3.9 1.95-.65-1.7-.6-4.5.05zM18 84.5c-1.3 1.35-1.95 2.5-1.4 2.5 1.3-.05 4.1-1.95 2.9-2-.55-.05.15-.7 1.5-1.5 1.65-.95 1.95-1.45.9-1.45-.85-.05-2.6 1.05-3.9 2.45zM24.35 84.5c-.3.8-1.15 1.5-1.9 1.5s-1.65.5-2.05 1.15c-1.15 1.85 4.75 0 6.2-1.95.95-1.3 1.45-1.4 2.7-.35 1.45 1.2 3.3.1 2-1.2-1.25-1.25-6.35-.65-6.95.85zM190.7 83.7c-1.05.25-1.65 1.05-1.35 1.7.25.7-.2 1.25-1 1.25-.85 0-1.2-.6-.9-1.55.35-1.05 0-.9-1 .4-.9 1.1-2.05 1.85-2.65 1.7-.55-.15-.8.4-.45 1.25.35 1 0 1.55-.95 1.55-.85 0-1.25.45-.9 1 1 1.65 2.1 1.15 3.3-1.5.65-1.35 1.7-2.25 2.4-2 3 1.05 6.8 1.3 6.25.45-.3-.55.25-.95 1.25-.95 1.5-.05 1.55-.2.35-.95-.95-.6-2-.5-2.95.25-1.2 1.05-1.25.9-.25-1.05.7-1.25 1.1-2.2.95-2.15-.15.1-1.1.35-2.1.6zM146.15 84.9c.25 1.95-.3 3.15-1.15 2.6-.55-.35-.7.05-.4.95.35.85 1.25 1.55 2.05 1.55.8 0 1.2-.45.85-1s-.25-1 .25-1c.45 0 .8-.85.8-1.85s-.55-1.8-1.2-1.8c-.7 0-1.2.25-1.2.55zM33.8 86.3c-.7.75-2.2 1.85-3.3 2.5-2 1.15-2 1.15.1 1.15 1.1.05 3.1-1.1 4.4-2.45 2.35-2.5 1.25-3.65-1.2-1.2z"/><path d="M155.5 88c-1 1.1-2.45 2-3.2 2-.8 0-1.15.4-.85.9.3.5-.8 1.05-2.4 1.3-1.9.3-3.15-.05-3.5-.9-.25-.7-1.15-1.3-2-1.3-.9 0-1.25.6-.9 1.5.3.8.95 1.25 1.45.95.5-.35 1.2.15 1.5 1 .35.85 1.25 1.55 2.05 1.55.8 0 1.2-.45.85-1s.4-1 1.75-1c1.4 0 3.75-1.45 5.75-3.5 1.85-1.95 2.9-3.5 2.35-3.5-.55 0-1.85.9-2.85 2zM51.5 88c-.3.5-1.15.7-1.85.45-.7-.3-2.3.65-3.6 2-1.35 1.4-1.9 2.55-1.3 2.55.65 0 1.4-.45 1.7-.95.35-.55 1.25-.7 2.1-.4.8.3 1.2.95.9 1.45-.3.5-.1.9.45.9s1.25-.45 1.6-1c.35-.55.1-1-.5-1s-.85-.45-.5-1.05c.35-.55 1.35-.9 2.2-.75.9.2 1.75-.2 2-.85.5-1.35-2.4-2.6-3.2-1.35zM235.3 89.35c-.45.7-1.55 1.55-2.4 1.9-2.35.85-3.2 4.75-1 4.75 2.6 0 4.9-2.15 5.65-5.25.7-2.9-.8-3.85-2.25-1.4zM297 90c-.9 1.7-.75 2 .95 2 1.4 0 2.05-.65 2.05-2 0-1.1-.45-2-.95-2-.55 0-1.45.9-2.05 2zM187.6 90.65c-.35.8-1.1 1.15-1.75.75-.7-.45-.9-.25-.45.4.4.65.15 2.15-.45 3.35-1.05 1.85-.95 2.05.5 1.5.95-.35 1.95-.65 2.2-.65.25 0 .2-.45-.15-1s-.05-1 .6-1c.7 0 .95-.3.6-.65-.4-.35.05-1.2.95-1.85 1.45-1.05 1.45-1.25.05-1.8-.9-.3-1.8.05-2.1.95zM254.95 90.05c-.8.5-1.05.95-.6.95.45 0-.35 1.45-1.85 3.15-2.95 3.55-2.55 4.15 3.7 5.25 3.1.55 3.95.35 5-1.35.7-1.15 2.05-2.05 3.05-2.05 1.9 0 2.35 1.5.75 2.5-.55.35-1 1.15-1 1.8.05.65.9.1 1.9-1.25 1.5-1.9 1.6-2.65.65-3.65-1.7-1.7-7.65-1-9.2 1.15-1.05 1.45-1.75 1.55-3.6.7l-2.25-1.05 2.5-1.05c1.4-.55 2.05-1.05 1.5-1.1-.55-.1.05-.7 1.3-1.4 1.9-1.05 2.1-1.5 1-2.4-.9-.75-1.9-.8-2.85-.2zM59.5 93.55c-2.75 2.2-2.8 2.45-.85 2.45 1.15 0 2.85-1.1 3.75-2.5 2.05-3.15.95-3.15-2.9.05zM240.5 93c-2.15 2.35-1.9 2.75 2.3 3.6 2.4.5 3.3.25 3.8-1 .35-.85 1.25-1.6 2-1.6s1.4-.45 1.4-1c0-1.8-2.7-1.05-4.2 1.15-1.2 1.8-1.75 1.95-3.35 1-1.9-1.1-1.9-1.15.3-1.75 1.25-.35 2.25-1.05 2.25-1.5 0-1.6-2.65-.95-4.5 1.1zM136.05 94.9c-2.45 3.45-2.45 3.7-.65 4.4.85.35 1.3-.1 1.25-1.15-.1-.9.45-1.55 1.15-1.4.75.2 1.05-.15.7-.75-.35-.55.05-1 .9-1 1.95 0 2.95 1.7 1.35 2.3-.7.2-.9.8-.4 1.3.45.5 1.15.25 1.65-.6 1.15-2.1 1.15-3.5 0-3.65-.55-.05-1.5-.15-2.05-.25-.6-.05-.8-.55-.45-1.1 1.5-2.4-1.55-.7-3.45 1.9zM179.75 93.25c-.3.7-.45 1.5-.35 1.8.05.35-.7 1.4-1.7 2.4s-1.6 2.4-1.3 3.2c.3.75-.1 1.35-1 1.35-.85 0-1.25.45-.9 1 1 1.65 2.3 1.15 3.05-1.2.4-1.2 1.35-2.85 2.15-3.65.75-.75 1.2-2 .9-2.8-.3-.75-.1-1.35.45-1.35.5 0 .95-.45.95-1 0-1.45-1.7-1.25-2.25.25zM270.45 93.9c.3.45-.45 2.05-1.6 3.55-2.6 3.3-1.8 4.15 4.8 5.05 4.6.6 5.25.45 5.8-1.35.35-1.1 1.65-2.2 2.85-2.4 1.2-.2.1-.45-2.45-.5-3.3-.05-4.85.35-5.25 1.4-.35.85-1.55 1.35-2.75 1.15-2.6-.35-3.75-2.8-1.35-2.8.9 0 1.35-.45 1-.95-.3-.55.6-1.3 2.05-1.65 1.95-.5 2.3-.9 1.3-1.5-1.8-1.15-5.1-1.15-4.4 0zM.55 94.9c-.3.45.5 1.15 1.7 1.45 3.35.9 4.75.8 4.75-.45 0-.65-.9-.9-2-.6-1.1.3-2 .1-2-.4 0-1.15-1.7-1.15-2.45 0z"/><path d="M11.15 96.45C8.55 98.3 7.2 98.65 5 98c-2.8-.8-4-.45-4 1.15 0 1.5 7.7.9 9-.65.7-.85 1.85-1.5 2.6-1.5.8 0 1.4-.45 1.4-1s1.2-1 2.7-1h2.65l-2.65 2.8-2.7 2.8 6.5 2.1c3.55 1.15 6.75 1.7 7.05 1.25.3-.5 2.15-1.65 4.1-2.6 4.25-2 3.75-2.4-6.7-5.3-9.15-2.55-9.65-2.5-13.8.4zM26.9 97.6c.2.2-.15 1-.8 1.8-1 1.2-.85 1.35.85.9 1.1-.3 2.05-.1 2.05.4 0 2.3-1.2 2.15-10.95-1.3-2.4-.8 3.05-3.25 5.95-2.65 1.4.3 2.7.7 2.9.85zM79.75 96.05c-2.85 1.7-2.25 4.3.85 3.5 1.65-.4 2.35-.25 1.9.4-1.15 1.95 4.15 1.1 6-.95 1-1.1 1.65-2.2 1.4-2.4-1.15-1.05-8.65-1.45-10.15-.55zM286.35 95.85c-.55.35-1.3 1.3-1.65 2.15-.35.8-1.35 2.45-2.2 3.6-1.5 2.05-1.4 2.15 4.2 3.3 5.4 1.1 5.9 1 7.15-.85.8-1.15 2-2.05 2.75-2.05.8 0 1.4-.45 1.4-1.05 0-1.5-7.25-.05-8.7 1.75-.9 1.15-1.8 1.3-4 .5-2.5-.85-2.6-1.05-.9-1.75 1.85-.75 5.6-4 5.6-4.85 0-.8-2.75-1.4-3.65-.75zM180.2 103c-1.25 2.2-1.9 4-1.45 4 1.2 0 4.2-3.75 3.5-4.4-.3-.3.2-.85 1.1-1.2.9-.35 1.4-1 1.1-1.5-1-1.6-1.9-.95-4.25 3.1zM36.3 100.6c.35.65-.25 1.95-1.3 2.9-2.6 2.35-1.9 3.15 3.5 3.95 5.15.75 8.45-.4 4.5-1.65-1.75-.5-1.35-.6 1.25-.25 2.85.4 3.95.15 4.35-1 .6-1.55 7.35-2.25 8.7-.9 1.05 1.05-3.95 4.35-6.45 4.3l-2.35-.1 2.25-1.05c1.25-.6 2.25-1.5 2.25-1.95 0-1.55-1.85-.9-4.7 1.6l-2.8 2.5h4.05c4.7.05 9.45-1.85 9.45-3.8 0-1 1.1-1.2 4.25-.75 3.7.5 3.85.45 1.25-.4-5.4-1.75-14.4-2.35-15.9-1.1-.75.65-2.5.9-3.85.6-1.55-.4-2.85-.1-3.7.95-1.45 1.75-4.6 2.05-5.55.55-.35-.55.05-1 .9-1 2.3 0 2.75-1.6.9-3.15-.95-.75-1.4-.85-1-.25zM130.5 105.05c-.85 1.6-1.2 3-.8 3.05.45 0 1.55.2 2.5.4 1.15.2 1.5-.15 1.05-1.25-.3-.9-.15-1.3.35-1 .55.35.95-.25.95-1.3 0-3.15-2.4-3.1-4.05.1zM136.9 102.9c-.1.35-.05 1.35.05 2.25.05.95-.35 1.95-.9 2.3-1.4.9-1.35 3.55.05 3.55.6 0 .85-.65.55-1.45-.35-.95-.05-1.25.9-.9.8.3 1.2 1.05.85 1.7-.3.65.35.1 1.45-1.15 1.25-1.4 1.8-2.95 1.4-4-.55-1.4-.8-1.3-1.45.8-.7 2.25-.75 2.2-.45-.6.2-2.55-2-4.8-2.45-2.5zM223.5 105.55c-1.65 1.35-2.55 2.45-2 2.45.55 0 .35.45-.45.95-1.3.8-1.25 1.05.15 1.55 2.25.9 6.1-1.3 5.4-3.1-.3-.75-.1-1.4.45-1.4.5 0 .95-.7.95-1.5 0-2.05-1-1.85-4.5 1.05zM231.15 107.25l-2.1 3.25 5.55 1.85c5.05 1.7 5.65 1.75 7.3.25.95-.9 2.3-1.6 2.95-1.6.6 0 1.15-.7 1.15-1.55 0-1.6-3.2-.5-4.5 1.55-.85 1.35-2.5 1.25-2.5-.1 0-.6.9-1.3 2-1.6 2.25-.6 2.7-2.3.6-2.3-.75 0-1.9-.7-2.6-1.5-2.15-2.55-5.6-1.8-7.85 1.75zm4.55.15c-1.15 1.3-2.7 2.15-3.4 1.9-1.65-.65-.7-2.2 2.05-3.3 3.4-1.4 3.65-1.15 1.35 1.4zm3.3 1.6c-1.1 2-2.15 2.5-3.25 1.4-1.15-1.15.45-3.4 2.4-3.4 1.6 0 1.75.3.85 2z"/><path d="M60.55 107.95c-3.2 3.55 6.7 7.95 10.4 4.6 2.7-2.45 4.35-2.05 2.95.7-1.1 2.15-1.05 2.15 1.55-.25l2.7-2.5-3.25-1.3c-1.8-.75-3.95-1.15-4.85-.9-.9.2-2.2-.2-2.85-.95-1.8-1.9-4.6-1.65-6.65.6zm4.45.55c-1.35 1.6-4 2.05-4 .65 0-1.35 1.2-2.15 3.3-2.15 1.6 0 1.75.25.7 1.5zm7 1.65c0 1.4-3.35 2.35-3.75 1.1-.2-.65-1.05-.9-1.8-.6-.8.3-1.45.1-1.45-.45s1.6-1 3.5-1c1.95 0 3.5.4 3.5.95zM174 107.3c-1.55.8-2.6 2.25-2.8 3.95-.2 1.5-.85 2.75-1.45 2.75-.85 0-.85.3 0 1.15 1.65 1.65 3.95-1 3.8-4.4-.05-1.55.4-2.75 1.1-2.75.7 0 1.5-.45 1.85-1 .8-1.25.55-1.25-2.5.3zM247.9 110.75c-1.4.95-2.4 2.35-2.15 3.1.35.95 1.2.6 3.15-1.25 2.45-2.35 2.95-2.45 6.4-1.4 4 1.25 4.95 2.8 1.65 2.8-1.15 0-1.8-.4-1.5-.9.3-.5-.35-.7-1.45-.4-1.1.3-2 1.2-2 2.05 0 1.15.35 1.25 1.3.4 1-.8 1.65-.8 2.5.05.85.85 1.65.7 3.2-.7 2.45-2.25 2.6-4.5.25-4.5-.95 0-3.3-.25-5.25-.5-2.3-.3-4.4.15-6.1 1.25zM176.55 111.1c.8 1.25-2.05 5.05-3.05 4.15-.45-.4-.5-.2-.1.5 1.25 2.2 4.1 1.35 5.95-1.75.95-1.65 1.4-3.05.95-3.1-.45 0-1.6-.2-2.55-.4-.95-.15-1.5.1-1.2.6zM130.45 112.05c-.5.9 1.2 1.35 4.35 1.2.7 0 1.1.45.85 1.1-.2.65-.95 1.05-1.55.9-.65-.15-2.3-.35-3.65-.5-1.7-.1-2.3-.65-1.95-1.6.45-1.2.25-1.2-1-.15-1.75 1.45-2.05 3.45-.35 2.4.8-.5 1-.2.55 1-.45 1.15-.3 1.45.5.95 2.35-1.4 5.9-1 5.3.6-.3.95.15.75 1.05-.45 1.8-2.25 4.1-6.35 3-5.35-.4.35-2 .3-3.6-.15-1.7-.5-3.15-.45-3.5.05zM267.15 113.1c-.7 1.15-1.05 2.35-.75 2.65.3.3.85-.2 1.2-1.1.35-.9 1.45-1.65 2.5-1.65 1.2 0 1.65.5 1.25 1.5-.3.8-.95 1.25-1.4 1-.45-.3-1.1-.1-1.4.45-.35.55-2.05.7-3.75.35-2.2-.45-2.9-.3-2.4.55 1 1.65 5.75 1.45 8.3-.35 1.3-.9 2.4-1.15 2.75-.55.7 1.05 3.55.3 3.55-.95 0-.45-.9-.6-2-.3s-2 .05-2-.5c0-.6 1.8-1.05 4-1 4.05.05 5.5 1.35 2.25 2-1.2.25-1.4.6-.55 1.1 1.35.85 5.55-3.1 4.7-4.45-1.25-2-14.85-.95-16.25 1.25zM7.5 114.95C7.2 116 5.95 117 4.8 117.2c-2.45.35-3.7 2.8-1.45 2.8.8 0 1.65-.45 1.8-1 .2-.55 1.95-1.1 3.85-1.25 1.95-.15 3.3-.75 3-1.3-.25-.5-.85-.85-1.25-.7-.4.15-.75-.45-.75-1.25 0-2.15-1.75-1.85-2.5.45zM20.65 117.5c-.9.85-1.65 1.05-1.85.45-.2-.65-1.55-.45-3.55.55-4.1 2.05-5.5 4.1-2.15 3.1 1.3-.35 3.5-.9 4.9-1.2 1.35-.3 3.3-1.4 4.25-2.45 2.1-2.25.6-2.7-1.6-.45zM292.25 117.55c-1.25.85-2.25 1.1-2.25.5 0-1.8-2.9-1.15-4.25.95-.65 1.1-2.15 1.95-3.25 1.9-1.7-.1-1.7-.2-.25-.6 2.1-.55 2.35-2.3.3-2.3-1.65 0-4 3.6-2.8 4.35 3.5 2.15 13.9.9 17-2.05 3.85-3.65 4.25-5.2.8-2.95-2.1 1.4-2.45 1.4-2.75.1-.25-1.3-.55-1.3-2.55.1zM23.5 119.7l-3 2.65 2.7-.7c2.35-.55 2.65-.4 2.1 1.1-.6 1.65-.55 1.65 1.35 0C29.7 120.1 35 119.3 35 121.5c0 1.1.5 1.5 1.5 1.15.85-.35 1.5-.2 1.5.3 0 1.8 6.5 2.95 12 2.15 3.05-.5 4.6-.95 3.5-1.1-2.65-.3-2.5-.35-6.4.5-2.05.45-3.1.35-2.75-.25.3-.5-1.25-1.5-3.5-2.15-2.2-.7-3.85-1.45-3.6-1.7s1.75.05 3.35.7c1.6.65 5.15 1.3 7.9 1.5 5.8.35 7.55.7 9.2 1.7.65.4 1.45.3 1.8-.3 1.25-2.05 2.25-.9 1.9 2.25l-.35 3.25 1.95-2.35c3.9-4.65.3-6.9-10-6.3-1.9.1-5.5-.35-8-1.05-2.65-.8-7.05-1.1-10.75-.8-4.6.35-6.25.15-6.25-.75 0-1.85-1.15-1.5-4.5 1.45z"/><path d="M123.25 117.7c-2.1.4-3.2 2.2-1.5 2.4 1.05.1 3.3.65 6.75 1.65 3.1.9 6.5.6 6.5-.6 0-1.4-3.6-2.8-5.5-2.15-2.35.85-4.75.2-3.95-1.1.3-.5.45-.85.25-.75-.15.05-1.3.3-2.55.55zM213.1 121.05c-2.45 2.25-3.05 3.4-2.25 4.2 1.55 1.55 6.55-.8 5.8-2.75-.3-.8-.15-1.7.4-2.05 1.15-.7 1.25-2.45.15-2.45-.4 0-2.25 1.4-4.1 3.05zM165.1 120.85c-.7 1.3-.65 1.85.2 1.95.65.05 3 .4 5.2.7 2.8.4 3.55.3 2.55-.4-.8-.5-1.9-.7-2.4-.35-.55.3-.7-.1-.35-1.05.5-1.35.2-1.45-1.95-.65-2.15.8-2.5.75-2-.55.8-2.1-.1-1.9-1.25.35z"/><path d="M222.05 120.95c-1.45 2.7-1.35 3.05 1.2 3.15 1.8.1 1.65.25-.75.85-3.3.85-13.3 6.7-15.95 9.35-.95.95-2.45 1.75-3.35 1.75-.95.05-12.5 6.5-25.7 14.35-15.9 9.5-24.4 14-25.15 13.4-.75-.55-1.45-.45-1.9.3-.5.75-.35.95.4.5.65-.4 1.15-.25 1.15.35 0 .55-.6 1.05-1.35 1.05-.75 0-2.45.9-3.75 2-1.3 1.05-2.85 2.3-3.4 2.75-.55.45-4.35 2.75-8.5 5.15-4.1 2.4-9.65 5.9-12.25 7.75-5.25 3.7-6.75 4.1-6.75 1.85 0-1-1-1.5-3-1.5-2.3 0-3 .45-3 1.9 0 1.05-.55 2.15-1.25 2.4s-.95.75-.55 1.15c1.05 1.2 2.8-.4 2.8-2.5 0-1.3.7-1.95 2-1.95 2.25 0 2.55 1.05.8 2.8-.95.95-.9 1.2.1 1.2.7 0-1.45 2.3-4.8 5.15-3.35 2.85-6.1 5.7-6.1 6.4 0 1.45-2.15 2.4-5.85 2.55-2.25.1-2.1.25 1.1 1.1 4.7 1.25 5.1 3.6.5 3.1l-3.25-.35 3.5 1.3c3 1.1 3.55 1.05 3.85-.25.2-.8.9-1.85 1.5-2.25.85-.55.75-1-.25-1.65-1.05-.7-.9-1.05.85-1.6 1.35-.4 2-1.25 1.65-2.1-.65-1.7 11.2-9.7 13.25-8.9.9.35 1.2 0 .8-.9-.55-1.5 1.9-3 3.45-2.05.45.3.65-.05.35-.8-.5-1.3 4.75-5 15.8-11.05 2.05-1.15 3.75-2.45 3.75-2.9 0-2.15 4-.6 4.6 1.75.8 3.1.6 3.3-7.6 7.7-3.55 1.95-9.55 5.35-13.25 7.65-3.75 2.3-9.15 5.05-12 6.1-2.9 1.1-5.9 2.45-6.75 3-3.3 2.15 4.95.95 12-1.75.85-.3 1.75-.65 2-.7 1.45-.35 6.1-3.25 10.5-6.55 2.75-2.1 7.6-5.15 10.75-6.8 3.15-1.7 6.95-4 8.5-5.2 5.5-4.35 26.2-16.15 27.2-15.5.6.35 1.45-.45 1.95-1.75 1.15-2.95 3.7-5.1 5.1-4.25.6.35 5.6-1.95 11.1-5.15s11-6.4 12.2-7.05c1.2-.65 2.6-1.8 3.2-2.5 3.65-4.65 12.75-8.4 9.6-3.95l-2.05 2.9 4.2 1.55c7.5 2.75 8.45 2.85 9.1 1.25.3-.85 1.3-1.55 2.1-1.55 2.85 0 1.6-1.85-1.7-2.55-1.8-.4-3.55-1.15-3.9-1.7-.75-1.2-3.85-.25-3.85 1.1 0 .55.9.75 2 .45 1.2-.3 2-.05 2 .7 0 .7.8 1.05 1.95.75 1.25-.35 1.75-.1 1.4.75-.35.95-1.2.95-4.15-.1-2.05-.7-4.45-1.35-5.4-1.35-2.4-.05-1.1-3.05 1.3-3.05 2.4 0 2.5-1.55.15-2.45-2.25-.9 6.05-8.6 9.15-8.5 2.05.1 2.05.1.1.85-1.25.5-.05.75 3.45.7 3.3-.1 5.55-.6 5.8-1.35.45-1.35 4.25-1.75 4.25-.45 0 .45-.55 1.35-1.2 2-.65.65-.9 1.4-.6 1.7.3.3 1.25-.55 2.15-1.95 1.95-2.95-1.95-4.95-4.9-2.5-.8.65-1.8.95-2.15.6-.35-.4.2-1.35 1.25-2.15 1.75-1.3 1.8-1.45.2-1.45-.95-.05-2.25.8-2.9 1.8-.75 1.2-1.95 1.65-3.5 1.35-2.85-.55-3.1-2.2-.35-2.9 1.1-.3 2-.95 2-1.4 0-1.3-2.4-1.1-3.75.25-.9.9-1.35.8-1.8-.5-.85-2.15-2.75-2.1-4.8.2-1.95 2.15-6.85 1.8-6-.4.3-.7 1.15-1.1 1.95-.8.75.3 1.4.05 1.4-.55 0-1.85-2.85-1.25-3.95.85zm2.3 6.55c-.4 1.1-.1 1.35 1.05.9.85-.35 1.6-.1 1.6.5s-.45 1.1-1 1.1-1 .55-1 1.25c0 1.15-6.85 6.3-7.45 5.55-3.45-4.05-2.9-5.6 2.95-8.7 4.75-2.5 4.6-2.5 3.85-.6zm-11.95 9.8c1.1 1.75-1.45 4.6-4.15 4.65-2.1.05-1.4-3.75.85-4.45 1.1-.4 1.85-.9 1.55-1.15-.25-.3-1.45 0-2.65.65s-2.4.9-2.75.6c-.65-.65 3.8-2.6 5.2-2.2.5.1 1.4.95 1.95 1.9zM92.75 124.75c-4.6.45-3.95 2.25.8 2.25 2.4 0 3.45-.45 3.45-1.5 0-.85-.1-1.4-.25-1.35-.15.1-1.95.35-4 .6zM107.5 124.7c1.05 1 16.5 3.65 17.2 2.9.25-.2-2.45-.9-5.9-1.55-3.45-.6-7.65-1.4-9.3-1.7-1.95-.4-2.65-.25-2 .35zM160.1 124.95c-1.3.8 1.2 2.75 3.2 2.5.95-.15 1.7 0 1.7.4 0 .35 2.05.7 4.5.8 2.5.1 4.5-.2 4.5-.6 0-1.35-5.2-3.1-7.25-2.45-1.1.35-1.75.2-1.45-.3.6-.95-3.75-1.25-5.2-.35zM54.55 125.9c-.7 1.15 4.15 2.4 5.7 1.45.75-.45.45-.95-.8-1.45-2.7-1.05-4.25-1.05-4.9 0zM251.65 127.45c-1.95 2.95-1.7 3.15 5.5 4.05 4.4.55 5.85.4 6.5-.7.45-.8 1.65-1.75 2.6-2.1.95-.35 1.75-1.1 1.75-1.65 0-.55-.7-.75-1.5-.4-.85.3-2.25 0-3.15-.75-1.35-1.15-1.9-.95-3.9 1.4-2.4 2.75-5.8 3.55-7 1.65-.35-.6.3-1.35 1.45-1.65 2.35-.6 2.85-2.3.7-2.3-.75 0-2.1 1.1-2.95 2.45zm12.1.8c-.2.7-1.4 1.4-2.55 1.55-1.65.25-2.05-.05-1.6-1.25.7-1.85 4.75-2.15 4.15-.3zM0 127c0 .55 1.7 1.05 3.75 1.05 2.95.05 3.3.25 1.75.9-2.45 1-6.25 5.05-4.7 5.05.6 0 1.35-.45 1.7-1 .95-1.5 2.5-1.2 1.9.35-.3.75.2 1.65 1.1 2 .9.35 1.35 1.1 1 1.65-.35.55-.15 1 .4 1s1.25-.45 1.65-1.05c.35-.55 1.4-.8 2.35-.5 3.5 1.15 8.5-2.35 6.5-4.55-.95-1.05-2.2-1.9-2.75-1.9-.55 0-.25.6.75 1.3 1.65 1.2 1.65 1.35-.2 3-1.9 1.75-5.75 1.35-4.65-.4.35-.5.9-.75 1.3-.5s1.4.05 2.2-.45c1.15-.75 1.1-.9-.45-.95-1.1 0-2.65.65-3.55 1.45-1.05.95-2.1 1.15-3.05.55-1.15-.7-.95-1.1 1-1.9 1.75-.7 2-1 .75-1.05-.95 0-1.75-.55-1.75-1.15 0-.65 1.1-.8 3-.4 4.35.95 3.7-.25-.75-1.35-8-2-9.25-2.15-9.25-1.15zM267.55 130.2c-1.9 2.75-1.45 3.2 5.45 5.15 4.75 1.35 5.55 1.4 6.3.1.45-.8 1.6-1.45 2.6-1.45.95 0 1.75-.7 1.75-1.5 0-1-.6-1.35-1.75-.95-.95.3-2 .1-2.35-.45-.35-.55-1.25-.75-2.1-.45-.8.3-1.45.05-1.45-.6 0-.75-.8-.95-2-.55-1.15.35-2 .2-2-.45 0-1.85-2.85-1.15-4.45 1.15zm8.6 2.05c.35.55 1.4.75 2.35.4 1.1-.45 1.5-.25 1.2.6-.25.7-1.05 1.05-1.8.85-.8-.2-3.3-.85-5.65-1.4-2.35-.55-4.25-1.45-4.25-2 0-1.2 7.3.15 8.15 1.55zM131.55 133.45c1.8 1.35 1.65 1.4-1.55.5-1.9-.5-5.3-.95-7.5-.9l-4 .05 3.75 1.95c5.45 2.9 13.3 3.85 12.4 1.55-.35-1-.65-2.4-.65-3.2 0-.75-.95-1.4-2.2-1.4-2.15 0-2.15.05-.25 1.45zM22.5 133.7c-5.9 1.5-5.55 3.9.95 6.4 4.7 1.75 8.45 1.15 7.05-1.1-.3-.45.35-.6 1.45-.3 1.05.25 1.7 1.05 1.45 1.75-.9 2.25 8.25 4.2 10.45 2.2 1-.9 2.35-1.65 3-1.65.6 0 1.15-.4 1.15-.9 0-1.55-2.85-3.3-4.7-2.8-1.45.4-1.35.5.4.6 1.2.05 2.45.55 2.8 1.1.35.6-.5.75-2.25.4-1.9-.4-3.3-.05-4.1.9-.65.85-2.1 1.25-3.2 1-2.55-.7-2.5-2.3.05-2.3 1.1 0 2-.5 2-1.1 0-.7-.95-.9-2.5-.5-1.5.4-2.5.2-2.5-.45 0-1.15-6.15-4-8.2-3.85-.7.1-2.2.35-3.3.6zm8 1.75l3 1.35-3.55-.5c-2.4-.35-3.95 0-4.8 1-1.15 1.4-5.15 1.25-5.15-.2 0-2.4 6.5-3.45 10.5-1.65zM289.5 133.75c-2 .5-4.4 3-4.45 4.65-.05.5.75.15 1.8-.75 1-.9 2.3-1.65 2.85-1.65.6 0 1.35-.7 1.65-1.5.35-.85.5-1.45.35-1.4-.1.1-1.1.35-2.2.65zM292.5 136.45c-1.65 1.35-2.6 2.5-2.1 2.5.55.05 1.75-.7 2.75-1.6 1.75-1.55 1.85-1.55 1.85.5 0 2.7 1.05 2.75 3.25.15 1.65-1.95 1.65-2-1-2-2.15-.05-2.4-.25-1.25-1 .85-.55 1.05-.95.5-1-.55 0-2.35 1.1-4 2.45zM87 136.15c0 .95-.55 1.9-1.25 2.15-2.45.85 0 1.7 6.35 2.2 5 .45 5.9.3 4-.5-1.35-.6-2.9-.9-3.5-.7-.6.2-2.1-.8-3.35-2.2-1.75-2-2.25-2.2-2.25-.95zM92.4 135.8c.9 1.45 7.15 3.2 11.55 3.2 3.45 0 3.5 0 1.25-1.55-2.75-1.95-13.85-3.35-12.8-1.65zM157.95 142.75c-2.8 3.2-3.55 6.25-1.5 6.25.75 0 2.9-.8 4.7-1.75 1.85-.95 3.5-1.85 3.7-1.95.2-.1 0-.7-.4-1.35-.5-.9-1-.75-1.65.45-.5.9-1.35 1.35-1.9 1.05-.65-.4-.55-1.15.2-2.1 2.4-2.9-.6-3.5-3.15-.6zM243.4 143c-1.15.45-2.4 1.6-2.8 2.55-.55 1.45-.4 1.55.9.45.9-.75 2.75-1 4.75-.65 2.65.5 2.9.4 1.4-.5-1.55-.85-1.65-1.25-.5-1.95 1.85-1.2-.8-1.1-3.75.1zM295.1 143.4l-2.4 1.35 3.15.45c2.55.35 3.15.1 3.15-1.35 0-2.15-.65-2.25-3.9-.45zM171.1 144.35c-.05 1-1 2.05-2.1 2.35-2.25.6-2.7 2.3-.6 2.3 2 0 3.85-2.6 3.3-4.7-.45-1.7-.45-1.7-.6.05zM253.3 146.6l-2.65 2.65 2.45 1.35c1.3.75 1.75 1.35 1 1.35-.8.05-1.15.35-.8.7.35.35 1.3.1 2.05-.5.75-.65 2.1-.9 2.95-.6.95.4 1.95-.2 2.65-1.5.65-1.15 1.55-1.85 2.05-1.55.45.3 1.15.1 1.5-.5.35-.55-.2-1-1.2-1-1.35-.05-1.5-.25-.45-.9 1-.6.75-1-1-1.45-4.15-1.1-5.9-.7-8.55 1.95zm7.4 1.75c-.25.65-1.05.95-1.8.75-.8-.2-2.2-.35-3.15-.3-.95.05-1.75-.3-1.75-.75s1.6-.85 3.55-.85c2.25 0 3.4.4 3.15 1.15zM271.85 146.65c-3.45.9-5.25 5.25-2.65 6.25 5.5 2.05 6.55 2.1 7.8.6 1.55-1.85 4.4-2 3.7-.2-.7 1.95 7.95 5.1 9.05 3.3.4-.7 1.55-1.55 2.55-1.9 5.15-1.9-2.45-6.45-8.8-5.25-2 .35-3.5.25-3.5-.3 0-.75-5.95-3.55-6.4-3.05-.05.1-.85.35-1.75.55zm5.6 4.45c-1.45 1.55-6.75 1.9-8.2.5-1-1.05 1-2.6 3.35-2.6 1.45 0 2.25-.45 1.9-1-.35-.6.45-.5 1.95.15 2.35 1.1 2.45 1.3 1 2.95zm12.9 2.45c-2.1 1.6-5.2 1.8-7.25.55-2.05-1.3-.2-3.35 2.5-2.85 1.35.25 2.4.05 2.4-.4 0-.5.95-.4 2.1.2 2 1.05 2 1.15.25 2.5zM4.75 149c-1.4 1.1-3.05 2-3.65 2-.6 0-1.1.65-1.1 1.4 0 1.15.55 1.2 3 .3 1.65-.65 3-1.7 3-2.35 0-.7.8-1.7 1.75-2.25.95-.6 1.25-1.05.65-1.05-.65-.05-2.25.85-3.65 1.95z"/><path d="M222.55 147.95c-.4.6.1 1.05 1.15 1.05 1 0 3.6.25 5.8.55 2.85.35 3.4.25 2-.4-3.75-1.7-8.3-2.3-8.95-1.2zM134.25 148.7c.95.25 1.75 1.1 1.75 1.95 0 1.25-.3 1.25-2.2-.1-1.35-.95-4.25-1.55-7.25-1.5l-5.05.05 4.15 1.7c5 2.05 6.4 3.2 3.75 3.2-2.3-.05-10.45-2.8-12-4.05-.7-.65-1.5-.05-2.25 1.65-1.2 2.6-1.15 2.6 2.3 2.2 1.95-.2 3.55.05 3.55.55 0 .9 15.9.1 16.85-.85 1.3-1.3-1.1-5.5-3.1-5.4-1.7.1-1.85.25-.5.6zM14.35 150.6c-.35.85-1.6 1.95-2.75 2.4l-2.1.85 2.1.1c1.9.05 5.4-2.7 5.4-4.3 0-1.3-2.1-.6-2.65.95zM235.7 149.65c-1.4 1.35-.65 1.95 2.8 2.2 1.95.1 3.5-.25 3.5-.8 0-.6-.65-1.05-1.4-1.05-.8 0-2.05-.25-2.8-.55-.8-.25-1.7-.2-2.1.2zM18.9 150.5c-.1.25-.2.85-.3 1.25-.35 1.9-1.9 3.25-3.75 3.25-1.2 0-1.85.5-1.55 1.25.25.7 1.05 1.05 1.85.85.75-.2 2.5-.6 3.85-.85 3.8-.65 9.3-5.25 6.25-5.25-1.2 0-2.8.9-3.5 2-.65 1.1-1.6 2-2.1 2s-.15-1.15.75-2.5c1.45-2.2 1.45-2.5.1-2.5-.8 0-1.55.2-1.6.5zM92.3 152.7c.4 1.9.1 2.2-2.4 2-1.6-.1-2.9-.75-2.9-1.45s-.5-1.25-1.1-1.25c-.7 0-.9.9-.55 2.25.35 1.25.65 2.65.65 3.1 0 .5 1.45.55 3.25.15s6.2-.75 9.75-.75c3.6 0 5.15-.2 3.5-.45-1.65-.25-3.45-.85-3.95-1.4-.5-.5-1.6-.9-2.4-.9-.8 0-2.1-.8-2.85-1.75-1.35-1.65-1.4-1.6-1 .45zM26 154.5c-3.65 2.7-3.1 3.15 1.75 1.45 3.15-1.1 5.25-3.95 2.9-3.95-.7 0-2.8 1.1-4.65 2.5zM295.25 154c-1.95 3.05-1.4 3.75.8 1.1 2.35-2.8 3.95-1.95 2.1 1.05-1.05 1.7-1.05 2 0 1.65.75-.25 1.5-1.65 1.65-3.15.4-3.25-2.65-3.75-4.55-.65zM34.5 154c.65 1-1.2 2.3-3.95 2.75-1.05.15-2.2.55-2.5.85-.3.35.35.45 1.45.25 1.1-.15 2.6.05 3.3.55 1.25.75 6.8-3.15 5.85-4.1-.85-.85-4.65-1.1-4.15-.3zM208.15 153.75c.5 2.25-1.4 3.85-4.05 3.5-1.6-.25-3.15 0-3.5.55-.35.6 2.85 1.5 8.05 2.2 7.75 1.1 8.75 1.1 9.55-.4.5-.85 1.55-1.6 2.35-1.6s1.45-.7 1.45-1.55c0-1.2-.4-1.3-2-.45-1.1.6-2 1.5-2 2.05 0 .5-1.1.95-2.45.95-1.8 0-2.35-.4-1.9-1.5.3-.85 1.4-1.5 2.45-1.5 1.05 0 1.9-.45 1.9-1 0-1.7-2.6-1.1-4.5 1s-5.5 2.75-5.5 1c0-.55.95-1 2.1-1 1.8 0 1.95-.25.9-1.5-1.3-1.55-3.1-2.05-2.85-.75zM235.1 155.85c-1.2 1.45-2.75 3.4-3.4 4.3-.95 1.35-2 1.55-5.2.9-2.2-.45-3.25-.85-2.3-.95 1.9-.1 4.65-4.1 2.85-4.1-.6 0-1.05.45-1.05 1s-.65 1-1.4 1c-1.35 0-2.6 2.05-2.6 4.2 0 1.5 11.75.45 13.25-1.15 1-1.1.9-1.25-.5-.7-1.55.5-1.65.3-.7-1.45.65-1.15 1.7-1.8 2.55-1.5.8.3 1.4-.05 1.4-.85 0-.75.55-1.55 1.2-1.8.8-.25.65-.6-.35-1-1-.35-2.4.4-3.75 2.1zM60 155.85c0 1.1-.55 2.2-1.25 2.45s-.95.75-.55 1.2c.4.4 1.4.5 2.25.15 1.75-.65 2.1-4.2.55-5.15-.55-.35-1 .25-1 1.35zM78.2 155.05c-1.3.5-2.05 1.4-1.7 1.95.35.55-.2 1.05-1.2 1.05-1.6.1-1.6.2.2.9 2.25.9 3.8.35 2.95-1-.3-.55-.15-.95.4-.95.5 0 1.2-.7 1.5-1.5.35-.85.5-1.45.35-1.45-.1.05-1.25.5-2.5 1zM246.2 158.05c-1.2 1.1-2.2 2.9-2.2 4 0 1.05-.5 1.95-1.15 1.95-.65 0-.9.3-.55.65.85.85 3.85-1.65 3.2-2.65-.25-.45.2-1.35 1-2 .85-.7 1.5-.9 1.5-.5s.65.2 1.45-.45c1.55-1.3 9.1-.6 10 .9.25.4-.15 1.6-.95 2.65-2.45 3.25-1.75 3.85 6.95 6.25 8.8 2.45 13.65 1.9 15-1.6.65-1.65-.1-1.6-3.45.4-1.7 1-3.5 1.35-4.65.9-1.7-.7-1.65-.8.45-1.65 1.3-.5 2.05-1.35 1.7-1.9-.65-1.1-4.05.25-4.65 1.85-.2.55-1.35.55-2.65.05-2.4-.9-2.15-2.9.35-2.9.8 0 1.45-.45 1.45-1 0-1.6-1.8-1.15-3.75.95-1.2 1.3-2.55 1.8-4.05 1.4-2.75-.75-2.85-2.35-.2-3.05 4.1-1.1 1.5-2.9-7.5-5.25-5.15-1.35-4.75-1.4-7.3 1zM240.2 160.85c-2.1 1.55-2.1 3.15-.05 3.15.85 0 3.2-3.95 2.65-4.5-.15-.2-1.35.4-2.6 1.35z"/><path d="M249.5 163.45c-3.1 1.9-3.5 2.5-1.9 2.5 1.1.05 3.1-1.1 4.4-2.45 2.95-3.1 2.55-3.1-2.5-.05zM119.1 166.4c1.75 1.75 16 4.3 15.7 2.8-.15-.9-1.45-1.9-2.8-2.3-2.7-.75-13.6-1.15-12.9-.5zM107.9 167.45c-3.15 3.15 1.75 6.7 7.7 5.55l3.9-.75-3.75-.15c-4.7-.15-5-2.1-.3-2.1 1.9 0 3.7.45 4.05 1 .35.55 3.2.95 6.3.9l5.7-.1-7-1.95c-12.15-3.45-14.35-3.5-13.75-.45.25 1.45 0 2.6-.55 2.6-.6 0-1.2-1.15-1.4-2.6-.15-1.4-.55-2.3-.9-1.95zM238.25 167.65c-.7.3-1.25.95-1.25 1.45 0 1.35 2.25 1.05 4.45-.65 2.1-1.55 0-2.1-3.2-.8zM282.1 169.65c-1.65 3.7-.85 3.85 1.75.35 1.55-2.15 1.8-3 .85-3-.75 0-1.9 1.2-2.6 2.65zM56.4 169.45c-10.05 1.85-14.65 5.4-10.4 8.05.55.35 1-.3 1-1.45 0-2.5 4.1-2.8 8-.55 1.4.8 4.9 1.4 8 1.35 5-.05 5.15-.15 2-.85-1.9-.4-5.2-1.5-7.25-2.4-2.05-.9-3.95-1.6-4.25-1.6-9.4.2 4.5-2 16.5-2.6 10.2-.55 13.4-.35 17.3.95 6.05 2.1 7.35 2.1 5.7.15-1.05-1.25-.9-1.5 1-1.5 1.75 0 2.1.45 1.7 1.95-.7 2.8 1.15 3.75 5.8 3l4-.65-3.85-.15c-3.3-.15-3.7-.4-2.7-1.6.85-1 2.25-1.25 4.4-.9 2.65.5 2.95.4 1.85-.75-1.85-1.95-38.85-2.3-48.8-.45zM287 169.3c-1.35.7-2.6 2.15-2.8 3.25-.25 1.8-.2 1.8.8.2.6-.95 2.05-1.75 3.25-1.75 2.1 0 2.1.05.2 1.45-1.85 1.4-1.85 1.4.55.8 4.25-1.05 9-4.25 6.3-4.25-1.2 0-2.45.45-2.75.95-.35.55-1.3.7-2.15.35-1.25-.45-1.3-.75-.25-1.4 2.1-1.35-.35-1-3.15.4z"/><path d="M73.7 171.9c.25 1.05-.1 2.2-.75 2.65-.85.5-1 .35-.55-.4.4-.65.4-1.1-.1-1-.45.1-2.05-.35-3.6-1-1.55-.65-4.95-1.1-7.5-1.05l-4.7.1 4.45 1.4c2.5.75 5.75 1.5 7.25 1.6 1.55.15 2.8.6 2.8 1 0 .45 2.05.8 4.55.8 2.9 0 4.35-.4 3.9-1.05-.35-.55-.05-1.7.6-2.5 1.5-1.8.8-2.7-1.4-1.85-.9.35-1.65 1.6-1.7 2.75 0 1.95-.1 2-1.05.4-.55-.95-.75-2.2-.4-2.75.35-.55-.05-1-.85-1-.95 0-1.3.65-.95 1.9zM294.5 172.55c-4 2.6-2.65 3 3 1 1.95-.7 1.95-.7.05.85-1.9 1.55-1.9 1.6.2 1.6 1.7 0 2.1-.6 2.05-3-.1-3.65-.25-3.65-5.3-.45zM82 171.6c0 1.65 3.8 3.35 7.5 3.3 4.05-.05 2.25-1.15-3.5-2.2-.8-.15-2.05-.6-2.75-1.05-.7-.4-1.25-.45-1.25-.05zM260.55 172.9c-1.5.6-.6.95 3.5 1.5 12.85 1.65 13.55 1.6 6.45-.4-7.85-2.2-7.3-2.15-9.95-1.1zM278.55 176.9c-.7 1.15 2.9 2.05 5.45 1.4 2.8-.75 1.45-2.3-2-2.3-1.6 0-3.15.4-3.45.9zM79.25 185.7c-1.35.25-2.25 1.15-2.25 2.3 0 1-.55 2.05-1.25 2.35-2.05.8 1.3 2.65 4.45 2.4 1.5-.1 2.5-.35 2.25-.6s0-1 .5-1.6c1-1.2.3-5.65-.8-5.4-.35.05-1.65.3-2.9.55zm2.7 2.05c-.15 3.4-3.95 5.05-3.95 1.75 0-1.85.55-2.5 2-2.5 1.1 0 2 .35 1.95.75zM99 187c0 1.1-.45 2-1 2-1.8 0-1.05 1.85 1.05 2.5 4 1.3 6.95-.25 6.95-3.5 0-2.75-.3-3-3.5-3-2.85 0-3.5.4-3.5 2zm6 .55c0 .95-2.8 3.45-3.85 3.45-.5 0-.75-.9-.45-2 .45-1.75 4.3-3 4.3-1.45zM90.55 187.05c.35.55.05 1.7-.6 2.55-.95 1.1-1 1.75-.1 2.65.85.85 1.3.35 1.75-2 .35-1.75 1.35-3.35 2.25-3.6.9-.2.4-.45-1.15-.55-1.75-.05-2.55.3-2.15.95zM65.7 187.7c-1.8.45-1.8.5 0 1.85 1.7 1.3 1.7 1.4.05 1.4-2.4.05-2.2 1.75.3 2.55 4 1.3 6.95-.25 6.95-3.5 0-3.1-1.9-3.7-7.3-2.3zm6.3 1.85c0 .95-2.8 3.45-3.85 3.45-.5 0-.75-.9-.45-2 .45-1.75 4.3-3 4.3-1.45zM139.4 189.75c-2.45 3.7-2.8 6.25-.8 6.25 2.2 0 4.7-2.8 4.05-4.5-.3-.8-.15-1.7.4-2.05 1.4-.85 1.15-2.45-.45-2.45-.75 0-2.2 1.25-3.2 2.75zM57.55 190.05c-.4 1.35-.7 2.8-.65 3.2.05.4-.55.75-1.4.75-.85 0-1.5-.9-1.5-1.95 0-1.45.5-1.85 1.75-1.4 1.5.45 1.5.35.25-.55-2.5-1.8-9.05-1.4-8.3.5.3.9 0 1.95-.7 2.4-.7.4-.95 1.3-.55 1.9 1.05 1.7 2.55.3 2.55-2.45 0-3.25 2.75-3.2 3.6.05.4 1.7 1.3 2.5 2.75 2.5 2.7 0 4.6-2.85 3.65-5.45-.6-1.8-.7-1.75-1.45.5zM253 192.05c18.85 4.4 46.35 9.95 46.85 9.45.7-.7-.65-1-29.05-6.95-28.45-5.9-38.5-7.3-17.8-2.5zM37.5 190.7c3.3.8 4.2 2.3 2.15 3.5-1.5.8-1.6 1.2-.55 1.85 1.75 1.1 2.9.25 2.9-2.1 0-1.3.7-1.95 2.05-1.95 1.15 0 1.8-.45 1.45-1-.35-.55-2.75-.95-5.3-.9-2.6.1-3.8.35-2.7.6zM153 191.65c0 1.25-2.05 1.85-4.5 1.4-.55-.1-.5.35.15.95 2.05 2.1 8.35 2.3 12.5.45 2.1-.95 4.2-1.45 4.55-1.05.4.35-.3.95-1.5 1.25-3.3.85-2.65 2.35 1.05 2.35 3.15-.05 11.75-3.3 11.75-4.45 0-.7-5.1.45-6.5 1.45-2.25 1.55-4.4 1.9-3.9.6.3-.75 1.95-1.8 3.7-2.35l3.2-1.05-3.6-.1c-1.95-.05-6.2.8-9.4 1.9-6.95 2.4-7.6 2.45-6.85.5.3-.85 1.75-1.55 3.2-1.55 1.45-.05 3.55-.5 4.65-.95 1.45-.65.55-.85-3.25-.8-3.65.1-5.25.5-5.25 1.45zM22 191.8c0 .45-1.6.6-3.5.4-1.95-.25-4.1.05-4.85.65-.7.6-3.05.9-5.2.65-2.2-.25-3.15-.2-2.2.1 2 .6 2.35 3.05.55 3.65-.6.2-.8.9-.4 1.6 1.1 1.75 2.6.4 2.6-2.4 0-2.35 2.55-2.5 4.1-.25.3.45 2.8 1.1 5.5 1.45l5 .6.2-3.65c.15-1.95-.2-3.6-.75-3.6-.6 0-1.05.35-1.05.8zm-2.5 1.95c1.75 1.3 1.6 3.25-.25 3.25-2.15-.05-3.65-1.1-4-2.75-.25-1.35 2.6-1.7 4.25-.5zM25.65 191.75c.6.4 1.3 1.65 1.5 2.75.3 1.6 1.25 2.05 4.85 2.2 3.6.15 4 0 2-.65-1.35-.45-1.9-.9-1.2-.95.75-.05 1.05-.55.7-1.1-.35-.55.2-1.05 1.2-1.1 1.25-.05 1.05-.35-.7-.9-3.2-1-9.85-1.2-8.35-.25zM179 193.35c0 .9-.1 1.65-.25 1.65s-2.05.7-4.25 1.45l-4 1.45 3.65.05c2.1.05 4.15-.6 4.9-1.5 1.05-1.3 6.95-1.55 10.7-.5 1 .25-.05 2.05-1.25 2.05-.8 0-1.5.45-1.5 1 0 1.9 3.75 1 4.3-1 .5-2.05 4.7-2.9 4.7-1 0 .55-.65 1-1.5 1-.8 0-1.5.45-1.5 1 0 3.75 4.9-.3 5-4.1 0-.35-2.95-.9-6.55-1.3-3.55-.35-7.85-.95-9.5-1.25-2.3-.45-2.95-.25-2.95 1zM204.2 197.5c-2.4 2.4-2.85 3.25-1.5 3 1-.2 2.1-.4 2.5-.4.35-.05.95-1 1.3-2.1.65-2.05 5.5-2.95 5.5-1 0 .55-.65 1-1.45 1-.8 0-1.7.45-2.05 1-.35.55.35 1 1.55 1 1.3 0 2.35-.8 2.65-2 .35-1.3 1.35-2 2.9-2 2.85 0 3.05.8.65 2.6-1.65 1.25-1.65 1.35-.05 1.35.95.05 2.2-.85 2.8-1.95 1.1-2.05 5-2.8 5-1 0 .55-.65 1-1.5 1-.8 0-1.5.45-1.5 1 0 1.75 2.9 1.05 3.95-.95 2-3.7 1.35-4.05-8.2-4-9.15.05-9.3.1-12.55 3.45zM228.15 198.85c-2.3 2.3-2.8 4.15-1.15 4.15.55 0 1-.7 1-1.5 0-.85.7-1.5 1.5-1.5.85 0 1.5-.45 1.5-1s1.25-.95 2.75-.95c2.65.05 2.65.1.5 1-3.35 1.35-2.7 1.95 1 .9 4.75-1.4 7.45-1.25 5.95.25-2.9 2.9-1.4 5.6 3.8 6.7 11.65 2.5 12.45 2.5 15.5-.3 2.25-2.1 2.45-2.6 1-2.6-1 0-2.3.7-2.9 1.55-.9 1.2-1.75 1.35-3.6.6l-2.5-.95 2.4-.95c1.85-.7 2.1-1.15 1.1-1.75-.85-.5-1.9-.15-2.9 1.1-1 1.15-2.55 1.75-4.05 1.55l-2.45-.35 2.45-1.85c2.4-1.9 2.4-1.9.25-1.95-1.25 0-2.4.8-2.75 1.85-.45 1.35-1.25 1.75-3.05 1.4-3.1-.6-3.2-1.65-.25-2.95l2.2-1-2.3-1.2c-4.6-2.5-12.65-2.6-15-.25zM116.55 201.9c-1.25 2.05-.1 6.1 1.75 6.1 1.65 0 1.7-.15.25-1.55-2.2-2.25-1.95-3.15 1.2-4.3l2.75-1-2.7-.05c-1.45-.05-2.95.3-3.25.8zM110.25 202.7c2.15.35 2.75 1 2.75 2.85 0 1.35.5 2.45 1.1 2.45.7 0 .9-.9.55-2.25-.35-1.25-.65-2.6-.65-3 0-.4-1.45-.7-3.25-.6-3 .15-3.05.2-.5.55zM271 203.1c0 .6-1 1.9-2.25 2.95-1.6 1.35-1.8 1.9-.75 1.9 1.95 0 3.5-1.1 4.2-3 .45-1.15 1.55-1.45 4.2-1.15 4.2.5 4.35.75 1.35 3.25-1.25 1.05-1.7 1.9-1.1 1.9 2.25.1 4.35-1.2 4.35-2.6 0-.75.8-1.7 1.75-2.1 1.25-.5.65-.9-2.25-1.4-5.95-1.1-9.5-1-9.5.25zM54.1 205.1c-5.55 1.05-9.1 3.4-9.1 5.9 0 1.1-.5 2-1.1 2-.65 0-.9-.9-.6-2 .65-2.5.5-2.6-6.9-3.4-7.05-.75-11.2 1.3-10 5 .5 1.7 1.5 2 6.35 2 3.15 0 4.95-.15 4-.4-2.7-.55-2.15-4.05.7-4.8 3-.75 4.7.2 4.35 2.45-.25 1.3.6 1.7 4.2 1.8 2.5.1 3.5-.05 2.25-.3-2.95-.65-2.85-1.75.3-3.8 2.45-1.6 2.9-1.6 8.7.4 3.4 1.1 8.2 2 10.7 1.95l4.55-.15-4.5-1c-2.45-.55-6.95-1.85-10-2.9L52.5 206l4.8.55c2.65.35 7.15 1.25 10 2.1 2.85.8 7.7 1.65 10.7 1.85 3.05.25 4.7.2 3.75-.1-2.1-.65-2.15-1.3-.3-3.7 1.7-2.3 7.9-2 8.35.35.2 1.25-.5 1.5-3.5 1.2-2.85-.3-3.45-.1-2.3.65.85.6 4 1.05 7 1 3.2-.05 4.65-.35 3.5-.75-2.55-.8-3.05-3.15-.75-3.2 1.45-.05 1.4-.2-.3-.9-2.7-1.1-33.75-1.05-39.35.05zm17.8.5c1.7.35 3.1 1.25 3.1 2 0 1.7-1.45 1.8-4.3.2-1.2-.7-4.65-1.5-7.7-1.85l-5.5-.65 5.65-.15c3.05-.1 7 .15 8.75.45zM34 210.5c0 2.1-.45 2.5-3 2.5-1.65 0-3-.45-3-1s.45-1 1-1 1-.7 1-1.5c0-.85.9-1.5 2-1.5 1.45 0 2 .65 2 2.5zM289.3 205.3c-.45.75-1.9 2.1-3.3 3.05l-2.5 1.75 3-.7c1.65-.4 3.1-1 3.25-1.3 1.25-2.8 2.2-3.2 5.6-2.55 3.55.65 5.15 2.45 2.2 2.45-.8 0-1.7.45-2.05 1-.35.55.3 1 1.35 1 2.5 0 4-3.85 2-5.1-2.1-1.35-8.65-1.05-9.55.4zM12.75 210.4c-.95.7-1.75 2.3-1.75 3.45 0 1.2-.1 2.15-.25 2.15s-1.7-.4-3.5-.95c-1.8-.5-3.25-.55-3.25-.1 0 3 14.8 2.7 15.95-.35.5-1.3 1.5-2.6 2.25-2.9.8-.25.2-.9-1.5-1.6-3.65-1.45-5.8-1.35-7.95.3zm6.25 2.1c0 2.2-.45 2.5-3.5 2.5-3.6 0-4.7-1.35-1.95-2.4.85-.3 1.3-1.05.95-1.6-.35-.55.5-1 1.95-1 2.05 0 2.55.5 2.55 2.5z"/><path d="M50.3 211.4c.2.6 2.8 1.25 5.75 1.4 6.6.4 6.25-.3-.85-1.6-3.85-.7-5.2-.65-4.9.2zM115.85 213.5c-1.95 4.25-.95 4.65 1.45.6 1.9-3.2 2.1-4.1.9-4.1-.45 0-1.5 1.55-2.35 3.5zM130.25 213.4c-1.25 1.3-2.25 2.9-2.25 3.55 0 .65-.55.85-1.25.4-.85-.5-.8-.2.1.95 1.7 2.05 3.05 2.1 5.55.2 1.55-1.2 1.7-1.7.65-2.95-.9-1.05-.95-1.55-.15-1.55.6 0 1.1-.7 1.1-1.5 0-2.1-1.15-1.85-3.75.9zM135.65 213.65c-1.25 1.25-.65 3.35.95 3.35 1 0 1.4-.55 1.05-1.45-.3-.75 0-1.65.65-1.9.7-.3.55-.5-.4-.55-.85-.05-1.85.2-2.25.55zM144 215.5c0 1.3-1.8 2-4.2 1.65-.4-.1-.45.55-.15 1.35.7 1.8 1.75 1.8 6.35-.1 1.95-.8 2.5-1.25 1.25-1-1.5.25-2.25-.05-2.25-1.05 0-1.2.95-1.35 4.75-.8 5.65.85 6.45 1.35 3.45 2.1-1.2.3-2.2 1-2.2 1.45 0 .5-1 .95-2.25 1-1.25 0-1.75.25-1.1.55.65.25 3.8-.3 7-1.2 3.2-.9 7.45-2 9.35-2.4l3.5-.8-4.2-.15c-2.3-.05-4.45.35-4.8.9-.95 1.55-2.8 1.2-2.2-.4.65-1.7-2.1-2.55-8.05-2.6-3.1 0-4.25.4-4.25 1.5zM166 217.9c-5 1.4-9.75 4-7.25 4.05 1.25.05 2.25.6 2.25 1.25s.6.35 1.35-.65c.75-1.05 4.35-2.6 8.25-3.65 6.7-1.75 6.8-1.8 2.4-1.7-2.45 0-5.6.35-7 .7zM114 218.7c0 .65-6.95 1.25-18.75 1.6-18.5.55-29.8 2.25-32.6 4.9-2.25 2.1-.8 5.8 2.2 5.65 2.35-.1 2.4-.15.4-.55-1.25-.25-2.25-.75-2.2-1.1.05-1.75 2.9-4.2 4.8-4.2 1.2 0 2.15-.45 2.15-1.05 0-.65 2.25-.85 6.25-.55 4.5.35 5.3.25 2.75-.3l-3.5-.85 3.65-.1c5-.2 6 2.45 1.65 4.3l-3.15 1.3 5.25.75c2.85.4 5.5.45 5.85.1.3-.35-.55-.6-1.9-.6-2.2 0-2.4-.35-2.05-3.55l.45-3.55 10.35.3c10.05.3 13.5 1.65 8.8 3.45-2.3.9.25 2.3 4.2 2.35 3.1 0 7.9-6.85 6.05-8.7-.35-.35-.65-.15-.65.4zM172.15 220.05c-7.15 2.1-8.65 2.95-5.05 2.95 2.5 0 15.8-3.55 16.7-4.45 1.1-1.15-5.55-.25-11.65 1.5zM186.3 219.95c-.3 1.1-1.7 1.7-4.6 1.85-2.3.1-5.55.65-7.2 1.2-2.5.85-2.1.95 2.75.55 3.4-.25 5.75 0 5.75.6 0 .5.45.7 1 .35 2.1-1.3 9.05-1.1 8.55.2-.25.7.1 1.3.85 1.3s1.6-1.25 1.9-2.75c.55-3 0-4.35-1.1-2.6-1.25 1.9-5.2 2.65-5.2 1 0-.85 1-1.65 2.25-1.85 1.75-.3 1.5-.5-1.15-.95-2.6-.4-3.45-.15-3.8 1.1zM200.3 219.6c-.65.3-.95 1.2-.65 1.95.35.9-.05 1.45-1 1.45-.85 0-1.8.45-2.15 1-.35.55.35 1 1.55 1 1.3 0 2.35-.8 2.65-2 .45-1.7 1.35-2 6.15-2l5.65.05L210 223c-1.35 1.05-4.05 2.35-6 2.85-2 .55-2.65 1-1.5 1.05 5.85.3 12.5-4.25 9.95-6.75-.7-.75-10.8-1.15-12.15-.55z"/><path d="M89.25 222.7c1 .25 1.75 1.4 1.75 2.7 0 1.9.55 2.3 3.5 2.4 3.25.15 3.5-.1 3.5-2.85 0-1.6-.5-2.95-1.1-2.95-.65 0-.85.75-.45 1.65.7 1.9-1.1 3.45-3.1 2.65-.75-.3-1.35-1.35-1.35-2.4 0-1.35-.65-1.85-2.25-1.8-1.7.1-1.8.25-.5.6zM224 223.7c-1.35.2-3.4.8-4.5 1.25-1.1.5-3.35 1.4-5 2l-3 1.05 3.25-.35c1.8-.15 3.25.05 3.25.5 0 .5.45.85 1 .85s1-.7 1-1.5c0-.85.95-1.55 2.25-1.6 1.25-.05 4.5-.65 7.25-1.4l5-1.25h-4c-2.2 0-5.1.2-6.5.45zM228 226.55c-5.45 1.7-6.65 2.35-4.45 2.4 1.7 0 6.65-1.05 11-2.4 6.1-1.85 7.15-2.4 4.45-2.35-1.9 0-6.85 1.1-11 2.35zM244.3 225.95c-.3 1.2-1.25 1.6-3.1 1.3-1.5-.2-4.7.3-7.2 1.1-4.45 1.45-4.45 1.45-1.2 1.55 1.85.05 4.2-.35 5.3-.95 1.05-.55 2.5-.7 3.15-.3.8.5.4 1-1.25 1.45l-2.5.7 2.7.1c1.45.05 2.95-.35 3.25-.85.35-.55 1.2-.75 1.9-.45.7.25 2.5 0 4-.55 2.1-.8 2.65-.7 2.65.4 0 .8-1 1.65-2.25 1.9-1.5.3-1.25.4.75.3 2.3-.1 3.1-.7 3.3-2.4.25-1.5 1.05-2.3 2.5-2.35 1.8-.1 1.85-.2.4-.6-1-.25-3.6.25-5.75 1.1-3.35 1.35-3.95 1.35-3.95.15 0-.75.8-1.55 1.75-1.8 1.15-.25.8-.55-1.1-.95-2.2-.45-3-.15-3.35 1.15zM54.65 225.7c2.25.3 6.15 3.45 4.05 3.3-.1 0-2-.7-4.2-1.45-2.2-.8-6-1.45-8.5-1.4-4 .05-3.45.3 4.95 2.4 10.85 2.7 10.05 2.75 9.35-.8-.5-2.5-.9-2.75-4.65-2.6-3.55.15-3.7.25-1 .55zM71.5 226c-.35.55-.25 1.05.2 1.15.45.05-.75.4-2.7.75l-3.5.6 3.5 1.05c1.95.55 5.1.7 7 .35l3.5-.65-3.25-.1C73.45 229 71.3 227 74 227c.55 0 1-.45 1-1s-.65-1-1.45-1c-.8 0-1.7.45-2.05 1zM30.45 227.9c.3.5-2.45.7-6.2.5l-6.75-.35 6 1.4c3.3.75 6.3 1.2 6.65.95.85-.5 2.25 1.5 1.55 2.2-.25.3-4.2-.45-8.7-1.6-11.1-2.85-15.55-2.45-15.3 1.25.2 3.3-1.4 3.7-1.9.5-.2-1.7-1.05-2.3-3.3-2.5-2.75-.2-2.8-.15-.75.75 2.8 1.15 2.95 3 .2 3-1.15 0-1.8.45-1.45 1 1.4 2.25 9.15 1.15 9.1-1.25-.1-2.95 3.45-3.4 10.5-1.3 5.75 1.7 12.9 2.05 12.9.65 0-.45 2.8-.7 6.25-.55l6.25.35-4.75-1.05c-2.6-.6-4.75-1.45-4.75-1.95 0-1.25 1.75-1.1 7.4.6 2.7.85 6.75 1.45 9 1.4 3.55-.05 2.85-.4-4.9-2.45-9.05-2.4-18.1-3.2-17.05-1.55zM256.4 228.75c-2.3 1.6-2.35 5.25-.05 5.25 1.2 0 3.85.3 5.95.65 3.3.55 3.9.35 4.35-1.45.4-1.5 1.95-2.4 5.45-3.3 6-1.55 5.6-2.4-.65-1.45-3.4.5-4.8 1.25-5.2 2.65-.4 1.55-1.4 1.9-5.35 1.9-5 0-6.55-1.35-2.9-2.5 1.1-.35 1.75-1.05 1.45-1.55-.7-1.15-1.55-1.2-3.05-.2z"/><path d="M275 230.9c-2.45.95-5.15 2-6 2.4-1.9.9 3.8.1 6.4-.9 1.6-.6 1.8-.4 1.25 1-.8 2.15 5.2 1.6 15.7-1.35l6.1-1.7-6.95-.7c-9.2-.85-11.15-.7-16.5 1.25zm13.9-.5c-1.1 1.05-10.9 3.35-10.9 2.55 0-.5 1.45-1.3 3.25-1.85 3.3-.95 8.4-1.4 7.65-.7zM106.8 234.8c-2.2 5.15-2.25 5.2-6.75 5.3l-4.55.05 4 1.4 4 1.35-4.5-.55c-6.9-.85-15.75-1.3-13.5-.7 1.1.3 2.45 1 3 1.6.7.7.2.8-1.5.3-1.35-.4-5.2-.9-8.5-1.05-4.9-.3-5.3-.2-2 .4 2.9.55 3.55.95 2.35 1.5-.9.4-3.85.1-6.5-.65-2.8-.8-6.1-1.1-7.85-.7-1.65.4-5 .75-7.4.85-5.9.15-4.2 1.2 3.15 2 .4.05.75.55.75 1.1 0 1.8-5.05 1.05-7.3-1.1-1.7-1.6-3-1.95-5.7-1.5-1.9.3-4.95.6-6.75.6-2.6 0-3.25.4-3.25 2.05 0 2.1-2.55 3.75-3.8 2.45-.4-.45-.15-.95.55-1.2 2.9-1.05.9-2.3-3.5-2.15-2.95.1-3.7.3-2 .55 3.25.5 3.7 2.3.55 2.3-4.9 0 .1 2 6.25 2.45 3.75.3 5.65.2 4.5-.3-2.8-1.2-.25-2.35 2.7-1.25 4.7 1.8 10.3 1.75 9.95-.1-.2-1.45.2-1.55 3-.75 4.5 1.3 11.3 1.2 8.05-.1-3.2-1.25-3.05-4.95.25-4.95 1.4 0 2.5.45 2.5 1s-1 1-2.2 1c-5.2 0 .3 2.1 6.75 2.55 4.8.35 6.35.2 4.95-.45-1.1-.55-3.45-1-5.25-1.05-3-.05-4.05-.9-2.7-2.25.25-.3 3.5.3 7.2 1.35 3.7 1 8.05 1.8 9.75 1.75l3-.15-2.9-.6c-1.6-.35-3.15-1.25-3.35-1.95-.5-1.45 4.3-.7 6.5 1.05 1.3 1.05 1.6.45 1.3-2.5-.1-1 .5-1.75 1.35-1.75 1 0 1.3.55.9 1.6-.75 2.05 1.35 3.35 5.45 3.4 3.85 0 3.75-.4 1.25 4.75-1.1 2.3-2 4.6-2 5.15 0 1.6-3.5 3.1-7.7 3.25-3 .1-3.2.25-1.05.55 1.5.25 2.75 1.05 2.75 1.85 0 1.15-1 1.05-5.25-.6C71.5 256.4 39 259.05 39 265.8c0 1.4-.45 2.05-1.05 1.65-.6-.35-.85-1.3-.55-2.05.4-1-.25-1.35-2.2-1.3-1.65.1-2.05.3-.95.6.95.25 1.75 1.1 1.75 1.9 0 1.2-.5 1.25-3.25.1-2.9-1.15-5.5-1.55-13.75-2.05-5.4-.3-3.9 4.95 1.6 5.7 6.7.95 12.2.8 10.55-.25-1.05-.65-1-.95.35-1.45.95-.35 2.15-.4 2.7-.05 2.7 1.7 13.85 1.4 14.4-.35.3-.95.95-2.55 1.5-3.5.75-1.4.5-1.75-1.1-1.75-1.1 0-2 .65-2 1.4 0 .8-.55 1.65-1.25 1.95-.75.3-.55.5.5.55 2.6.15 2.1 2.1-.5 2.1-3.4-.05-5.15-1.5-4.35-3.65.4-1 .7-2.1.7-2.35-.3-2.9 30.95-3.95 33.95-1.15 1.9 1.75 2.05 2.15.65 2.15-.95 0-1.7.45-1.7 1s.9 1 2 1c1.5 0 2-.65 2-2.6 0-1.95.4-2.45 1.6-2 .85.35 1.75.6 2 .6.2 0 .4 1.35.4 3 0 2.8.2 3 2.75 2.4 3.75-.95 4.1-1.4.9-1.4-1.45 0-2.65-.45-2.65-1 0-1.5 4.35-1.2 6.55.45 3.25 2.45 2.5 3.45 9.95-12.95 5.6-12.2 9.45-21.85 9-22.35-.3-.3-1.5 1.8-2.7 4.65zM99.85 245c2.35.75 2.15.85-1.55.9-3.35.1-4.1-.2-3.65-1.4.3-.8 1-1.2 1.55-.9.5.35 2.15 1 3.65 1.4zM51 248.15c0 1.4-.5 1.85-1.75 1.5-.95-.3-3.65-1.05-6-1.65-5.6-1.45-5.35-1.9.75-1.35 3.25.3 5 .05 5-.65 0-.6.45-.85 1-.5s1 1.5 1 2.65zM28.2 267.6c2.35 1.45.2 2-4.45 1.1-7.35-1.35-8.75-3.15-1.8-2.25 3 .35 5.8.9 6.25 1.15zM298.8 231.55c-.4.4-4 1.55-8 2.55l-7.3 1.85 5.5-.4c3.05-.2 6.3-.7 7.25-1.05 1-.4 1.75-.25 1.75.3 0 .6-.8 1.25-1.75 1.5-1.3.35-1.15.5.55.6 1.25.05 2.5-.55 2.8-1.35.75-1.9.1-4.95-.8-4zM11 233.05c0 .4.7 1 1.6 1.35 1.75.65 10 .85 9.3.2-.85-.85-10.9-2.3-10.9-1.55zM120.9 236.75c-4.75 5.1-4.3 8.9.7 6.2 2.5-1.35 3.3-3.95 1.2-3.95-.65 0-.3-.65.75-1.45 1.35-.95 1.65-1.75.9-2.45-.7-.75-1.8-.2-3.55 1.65zM134.5 238.95c-.35 1.1-1.25 2.05-1.95 2.05-.75 0-1.55.6-1.85 1.35-.35.95.15 1.2 1.8.9 1.3-.25 2.55-1.3 2.8-2.35.5-1.95 5.55-2.65 9.05-1.3 1.8.7 1.05 3.4-.95 3.4-1.9 0-1.75 1.65.2 2.4 2.05.8 2.45.75 2.3-.15-.5-3.15.3-4.25 3.1-4.25 1.65 0 3 .45 3 1s-.65 1-1.5 1c-.8 0-1.5.45-1.5 1 0 2 3 .9 4.3-1.55 1.2-2.35 1.45-2.45 2.7-.95.9 1.1 1 1.85.3 2.35-.55.35-1.35 1.75-1.7 3.15-.65 2.25-.55 2.3.65.8.75-.9 2.6-1.95 4.05-2.35 1.5-.35 2.7-1.05 2.7-1.5 0-.45.8-1 1.75-1.25 1.1-.3.7-.5-1-.6-1.5-.05-2.75.4-2.75 1.05s-1.1-.05-2.45-1.5-2.8-2.7-3.25-2.75c-.45-.05-2.35-.2-4.3-.35-1.9-.15-6.05-.55-9.15-.95-5.2-.65-5.75-.55-6.35 1.35zM162 245.5c-5.8 3.1-4.2 3.15 4.55.05 6.1-2.1 6.55-2.4 3.45-2.45-1.9 0-5.5 1.05-8 2.4zM169 246.4c-5 1.4-6.7 2.2-5.1 2.45 1.3.15 4.35-.45 6.8-1.35 5.3-2.05 6.7-1.45 2.1.85-4.15 2-1.65 2.1 4.8.15 5.7-1.75 6.4-1.8 6.4-.65 0 .5-1.45 1.3-3.25 1.9l-3.25 1 3.75-.05c2.35 0 3.75-.5 3.75-1.3 0-.7.8-2.05 1.75-3 1.85-1.85-1.1-1.75-6.15.2-1.5.55-1.8.4-1.4-.7.8-2.1-1.45-2-10.2.5zM189.7 247.1c-2.55 2.6-2.65 2.9-.85 2.9 1.15 0 2.3-.9 2.65-2 .65-2.1 2.25-2.4 7.4-1.4 3.6.75 4 1.95 1 2.95-1.6.5-1.8.9-.95 1.8.9.85 1.65.6 3.05-1.1 1.8-2.25 7-3.15 7-1.25 0 .55-.65 1-1.5 1-.8 0-1.5.45-1.5 1 0 2.05 3.1.9 4-1.5 1.05-2.75 2-3.1 3.8-1.3.65.65 1.45.9 1.75.55 1.4-1.35-4.5-3.1-11.55-3.4-4.1-.2-8.4-.5-9.5-.75-1.3-.3-3 .6-4.8 2.5z"/><path d="M5 248c-3.9.35-4.85.7-3.25 1.15 2.9.85 2.95 2.85.05 2.3-1.65-.3-1.9-.15-.95.8.6.6 4.2 1.25 7.9 1.4 4 .15 5.65-.05 4.05-.45-2.1-.55-2.5-1.05-1.85-2.15.75-1.2 1.35-1.25 3.25-.2 1.25.65 3.65 1.3 5.3 1.45 1.65.1 3.35.65 3.75 1.2.4.55.75.05.75-1.15 0-1.15.75-2.45 1.7-2.8 1.5-.55 1.55-.8.25-1.6-1.9-1.2-11-1.2-12.9 0-.85.55-1.75.65-2 .25-.3-.4-3-.5-6.05-.2zm18 1.5c0 1.7-.45 1.75-4.85.85-4.45-.85-3.9-2.35.85-2.35 2.9 0 4 .4 4 1.5zM216.5 249.75c-3.15.45-4.45 1.75-4.45 4.25 0 1.3.1 1.3.9.05.5-.8 4-2.2 7.75-3.15 6.85-1.7 4.3-2.4-4.2-1.15zM221.5 252.5c-3.85 1.35-5.95 2.45-4.65 2.45 2.4.05 16.15-3.8 16.15-4.55 0-1-5.1-.05-11.5 2.1zM234.7 251.35c-.3.8-3.4 2.15-6.9 3l-6.3 1.55 6.5-.5c3.55-.3 6.7-.85 7-1.25.25-.35.95-.75 1.5-.85.55-.1 2.15-.65 3.5-1.25l2.5-1.1-2.45.5c-1.35.25-3 0-3.65-.5-.8-.7-1.35-.55-1.7.4zM242.65 254.25c-.9 3.2-.75 4.45.25 2.85.5-.75 1.4-1.05 2-.65.6.35.85 1.1.55 1.65-.8 1.25.75 1.65 9.9 2.7 7.65.8 7.9.8 8.9-1.5.6-1.25 1.65-2.3 2.4-2.3s1.35-.45 1.35-1c0-1.8-2.9-1.05-4 1s-6 2.85-6 1c0-.55.65-1 1.4-1 .75 0 1.65-.7 1.95-1.5.35-.95 1.8-1.45 3.85-1.45 4.35.1 7.55 1.35 6 2.35-.65.4-1.2 1.7-1.2 2.9v2.15l1.45-2.1c1-1.4 3.15-2.35 6.75-2.9l5.3-.8-5.5-.75c-16-2.2-15.65-2.2-18.35-.4-1.45.95-2.65 2.4-2.65 3.15 0 1.85-9.15 1.45-9.75-.4-.25-.7.3-1.25 1.15-1.25 2.45 0 1.9-1.35-1.1-2.75-3.65-1.7-3.95-1.6-4.65 1z"/><path d="M278 258.25c-9.15 3-5.25 3.25 5 .3 6.45-1.8 7.65-2.4 5-2.4-1.9-.05-6.4.9-10 2.1zM292.5 257.75c-3.8.55-5.5 1.95-5.5 4.5 0 1.4.45 1.8 1.6 1.35.85-.35 1.75-.6 2-.6.2 0 .4-.65.4-1.45 0-1.75.6-2.1 4.75-3 1.85-.4 3.25-.3 3.25.25 0 .5-1.45 1.4-3.25 1.95l-3.25 1.05 2.8.1c1.6.05 2.55.55 2.2 1.1-.35.55 0 1 .75 1 .8 0 1.45-1.35 1.6-3.5.25-3.8.05-3.85-7.35-2.75zM112.25 258.75c-.7.2-1.25.9-1.25 1.45 0 .6-.65 1.6-1.4 2.2-2.4 1.9-3.05 5.6-.9 5.55 2.95-.05 5.9-2.75 4.55-4.1-.9-.9-.85-1.45.25-2.25 1.65-1.25.65-3.55-1.25-2.85zM279.5 261c-2.85.7-2.75.75 1.2.9 2.3.05 4.45-.35 4.8-.9.7-1.15-1.55-1.15-6 0zM67.65 262.65c-1 1.05-.75 5.35.3 5.35.55 0 .75-.6.45-1.35-.3-.75.2-1.65 1.1-2 .9-.35 1.35-1.1 1-1.65-.7-1.15-1.85-1.3-2.85-.35zM124.65 263.45c-.3.85-1.2 1.55-2 1.55-.75 0-2 .7-2.7 1.55-1.15 1.4-.95 1.5 1.65.85 1.6-.4 3.25-1.3 3.7-2.05.9-1.5 7.7-1.9 7.7-.45 0 .45-2 1.35-4.5 2-5.9 1.5-5.75 1.6 2.25 1.65 3.7 0 5.75-.15 4.55-.35-2.8-.4-1.95-3.2 1.05-3.25 2.1-.05 2.1-.1.15-.85-4.7-1.9-11.25-2.25-11.85-.65zM55.75 263.6c-.35.35-.35 1.25-.05 2 .35 1-.4 1.45-2.85 1.5-3.15.1-3.2.15-.85.9 4.05 1.3 5 1.1 5-1 0-1.1.45-2 1-2s1-.45 1-1c0-1.1-2.3-1.35-3.25-.4zM142 266.45c0 .75-1 1.6-2.25 1.8-2.15.4-2.15.45-.3 1.25 1.1.5 2.05.45 2.25-.05 1.15-3.3 2.1-3.7 5.95-2.65 3.45.9 3.6 1.1 1.6 1.7-2.75.9-2.95 2.5-.3 2.5 2.4 0 3.85-3.9 1.9-5.1-2.3-1.5-8.85-1.1-8.85.55zM.25 266.55c1.4 1.45 11.75 2.1 11.75.8 0-1-1.7-1.35-6.15-1.35-3.4 0-5.95.25-5.6.55z"/><path d="M13.05 268.3c-.05 2.2-.45 2.7-1.8 2.3C6.9 269.35 0 268.85 0 269.75c0 .55 1 1.3 2.25 1.6 3.2.9 15.45.75 14.2-.1-.55-.4-1.5-1.9-2.15-3.25l-1.15-2.5-.1 2.8zM160.3 267.3c-.45.8-2.6 2.4-4.8 3.55-3.85 2-3.9 2.05-.85 1.5 1.8-.3 3.4-.1 3.8.55.85 1.4 5.65.35 7.2-1.6.9-1.1 2.3-1.3 5.75-.75 4.8.7 5.85 1.8 2.85 2.85-.95.3-2.3.85-2.9 1.15-.8.35-1.05-.2-.75-1.75.25-1.25.15-1.75-.15-1.05-.35.7-1.25 1.25-2.05 1.25-.75 0-1.4.4-1.4.85 0 .5-1.25.7-2.75.5l-2.75-.35 2.8 1.1c4.65 1.8 11.6.3 12.8-2.8 1.15-3.15 1.7-2.75-6.1-4.2-3.55-.65-7.25-1.45-8.2-1.7-.9-.25-2 .15-2.5.9zm4.7 2.45c0 1-4.75 3.15-5.45 2.45-.95-.9 1.6-3.2 3.55-3.2 1.05 0 1.9.35 1.9.75zM90.55 270.3c-.85 1.25-2 3.75-2.65 5.55-1.15 3.25-1.15 3.25-6.35 2.6-3.85-.45-6.2-.2-9.1 1.1-2.35 1-6.4 1.7-10 1.7H56.4l.4 2.85c.25 1.8 0 2.9-.75 2.9-.6 0-1.05-.55-1-1.25.4-2.8-.2-3.4-3.25-3.4-2.9 0-3 .1-1.05.95 3.3 1.45 3.9 4.05.8 3.45-1.35-.25-2.25-.1-1.95.4.3.45 2.85.85 5.7.85 3.7-.05 4.75-.3 3.7-1-1.3-.8-1.25-1.2.5-2.85 2.45-2.3 10.5-1.9 10.5.55 0 1.4-2.3 1.35-8.25-.35-.95-.25-1.75-.05-1.75.45 0 1.45 3.8 2.2 10.5 2.05 3.3-.1 4.75-.35 3.25-.55-5.3-.8-1.3-7.2 4.5-7.25 2.3-.05 2.75.4 2.75 2.45 0 1.35-.45 2.5-1 2.5s-1-.9-1-2-.4-2-.9-2-.7.9-.4 2c.45 1.75.15 1.95-2.85 1.45-3.1-.45-3.2-.45-.85.6 2.2 1 5.4 1.7 8.6 1.9.55 0-.3 2.95-1.95 6.5-3 6.45-3 6.45-7.55 6.8-4.5.4-4.5.4.9.55l5.5.15 2.45-5.7c1.3-3.15 4.05-9.35 6.1-13.75 5.3-11.5 6.45-16.25 2.5-10.2zM188.15 274c-1.3 2.9-6.15 4.5-6.15 2 0-.55.7-1 1.5-1 .85 0 1.5-.45 1.5-1s.75-1 1.65-1c.95 0 1.4-.3 1.05-.65-1.2-1.15-6.5 1.8-7.05 3.95-.75 2.75-1.35 2.5 8.75 3.65l8.8 1 3-3c2.6-2.6 2.7-2.95 1-2.95-1.1 0-2.25.65-2.55 1.5-.35.85-1.8 1.5-3.35 1.45h-2.8l2.5-1.45c2.5-1.45 2.5-1.45.2-1.45-1.25-.05-2.5.6-2.85 1.45-.3.8-1.65 1.5-2.95 1.5-1.45 0-2.4-.6-2.4-1.5 0-.85.7-1.5 1.5-1.5.85 0 1.5-.5 1.5-1.15 0-.8 1.9-.95 6.25-.55 6.6.55 4.45-.5-3.25-1.65-4.3-.65-4.55-.55-5.85 2.35zM207.4 274.75c-1.6 1.05-2.75 5.25-1.45 5.25.55 0 1.05-.55 1.05-1.25 0-1.5 4.6-3.75 7.45-3.7 1.65.05 1.5.3-.95 1.5-1.65.8-2.1 1.2-1 .9 1.1-.35 3.45-.85 5.2-1.15l3.2-.55-1.15 3.1c-1.5 3.95-1.55 3.9 8.7 5.9 8.25 1.6 8.85 1.6 10-.05.7-.95 1.8-1.7 2.4-1.7.65 0 1.15-.45 1.15-1s-.9-1-2-1-2 .65-2 1.5c0 1.6-.9 1.85-3.4.9-2-.8-2.1-2.4-.1-2.4.85 0 1.5-.45 1.5-1 0-1.85-3.2-1-3.7 1-.4 1.45-1.1 1.85-2.7 1.45-3.25-.85-5.9-1.3-7.8-1.35-2.1-.1-1.3-3.1.8-3.1 2.55 0 1.45-1.8-1.75-2.9-3.55-1.25-11.8-1.45-13.45-.35zM242 279.1c-1.2.8-1 .9.75.4 2.05-.6 2.2-.4 1.6 2.7-.75 4 1.15 2.8 2.2-1.45.75-3-1.5-3.8-4.55-1.65zM250.5 280c-.35.55-.25 1 .2 1.05.45 0 0 .45-.95 1.05-1 .55-1.55 1.45-1.25 1.9.9 1.45 3.25.05 3.85-2.2.4-1.6 1.05-1.9 2.85-1.45 1.25.35 3.2.65 4.3.65 1.85.05 1.85.15-.4 1.9-1.8 1.35-2.05 2-1.1 2.6 1.35.85 4-1.85 4-4.05 0-2.25-10.25-3.5-11.5-1.45zM13 281.7c-10.55.35-13 .9-13 2.9 0 1.4.15 1.4 1.55-.05 2.6-2.55 4.45-1.9 4.55 1.7.1 2.05.3 2.55.6 1.3 1.25-4.8 8.45-6.85 7.55-2.15-.35 1.95-.95 2.35-3.1 2.05-2.4-.3-2.3-.2.65 1.1 3.6 1.65 6 1.1 4.3-.95-.75-.85-.45-1.7.9-2.9 2.5-2.15 7-3.3 7-1.8 0 .6-.5 1.1-1.1 1.1-.7 0-.9.95-.5 2.45.5 2.05.2 2.5-2.15 2.85-2.6.4-2.6.4.45.55 2.55.1 3.2-.3 3.5-2 .45-3.05 2.75-3.6 2.9-.7.1 2.05.2 2.1.65.35.25-1.05 1.2-2.5 2.1-3.2 1.4-1.05 1.15-1.25-1.85-1.45-3-.15-2.8-.25 1.5-.85 5.8-.8.5-.9-16.5-.3zM269.55 282.25c.35 1-.2 1.7-1.75 2.1-1.6.4-1.95.9-1.2 1.65 1.55 1.55 4.4.1 4.4-2.2 0-1.45.45-1.85 1.6-1.4.85.35 2.65.6 4 .6 2.95 0 3.15 1.6.3 2.55-1.3.4-1.75 1-1.15 1.6 1.35 1.35 3.95 0 4.6-2.45.75-2.75.8-2.75-5.75-3.4-4.8-.5-5.55-.35-5.05.95zM35.6 282.6c2.25.95.4 5.1-2.2 4.85-1.3-.15-2.15.15-1.85.65 1.3 2.1 5 .85 6.3-2.1 1.5-3.45 4.15-4 4.15-.9 0 1.45.45 1.95 1.5 1.55.95-.4 1.5 0 1.5 1.15 0 1.1.55.65 1.55-1.2 1.95-3.8.8-4.6-6.55-4.5-3 .05-5 .25-4.4.5zM289 283.4c0 .85-.95 2.05-2.1 2.65-2.75 1.45-.9 3.6 3.85 4.55 3.05.6 3.3.45 3.9-2.5.45-2.45 1.1-3.1 3.05-3.1 4.85 0 1.7-2.5-3.55-2.8-4.05-.25-5.15 0-5.15 1.2zm5 2.6c0 1.1-.65 2-1.4 2-.8 0-1.6.45-1.75.95-.2.55-.85.65-1.45.25-.75-.45-.85-1.5-.3-2.95 1.1-2.9 4.9-3.1 4.9-.25z"/></g></svg>