<svg version="1.0" xmlns="http://www.w3.org/2000/svg"
 width="300.000000pt" height="74.000000pt" viewBox="0 0 300.000000 74.000000"
 preserveAspectRatio="xMidYMid meet">
<g transform="translate(0.000000,74.000000) scale(0.050000,-0.050000)"
fill="#000000" stroke="none">
<path d="M377 1300 c-382 -202 -332 -1220 60 -1220 137 0 313 189 212 228 -18
7 -35 -2 -43 -23 -23 -66 -93 -125 -148 -125 -123 0 -118 -23 -118 532 l0 507
49 32 c110 72 181 -10 214 -246 17 -118 31 -165 51 -165 28 0 37 383 12 485
-12 50 -191 46 -289 -5z m-101 -846 l-6 -204 -39 80 c-55 114 -56 428 -1 620
l40 140 6 -216 c3 -119 3 -308 0 -420z"/>
<path d="M1019 1292 c-93 -63 -173 -181 -231 -342 -209 -576 316 -1175 600
-685 281 485 -3 1276 -369 1027z m292 -129 c259 -379 66 -1116 -259 -991 -36
14 -43 295 -19 794 13 271 13 273 65 290 76 26 156 -9 213 -93z m-367 -493
l-16 -400 -47 98 c-96 205 -88 419 24 679 57 132 59 118 39 -377z"/>
<path d="M1520 710 l0 -630 139 0 140 0 5 224 6 223 126 -192 c162 -245 178
-259 287 -251 l87 6 5 625 c5 519 1 625 -22 625 -35 0 -62 -556 -41 -859 10
-151 8 -203 -8 -193 -25 15 -268 379 -408 612 -162 269 -278 440 -297 440 -12
0 -19 -245 -19 -630z m149 325 l71 -104 0 -386 c0 -419 -1 -424 -110 -397
l-50 13 0 489 c0 270 4 490 9 490 6 0 42 -47 80 -105z"/>
<path d="M2404 1305 c5 -29 32 -36 151 -41 l145 -6 0 -590 0 -590 135 6 135 6
10 590 10 590 150 0 c126 0 150 5 156 35 6 33 -25 35 -446 35 -421 0 -452 -3
-446 -35z m500 -185 c0 -71 -1 -322 -2 -556 l-2 -427 -65 7 -65 6 -5 556 -6
556 73 -6 72 -6 0 -130z"/>
<path d="M3754 1326 c-39 -67 -423 -1095 -448 -1201 -10 -43 -6 -45 127 -45
l137 0 54 145 c29 80 65 180 79 222 l26 76 161 -14 c191 -16 153 18 248 -220
61 -152 90 -201 121 -205 45 -7 52 17 21 71 -27 48 -229 538 -257 625 -96 297
-242 592 -269 546z m65 -224 c28 -66 22 -89 -95 -402 -44 -115 -106 -282 -139
-370 -56 -149 -64 -160 -118 -160 -65 0 -65 -3 -1 170 26 72 105 285 174 475
134 366 142 378 179 287z m101 -233 c54 -141 52 -149 -39 -149 -60 0 -81 7
-74 25 6 14 21 59 35 100 28 88 51 95 78 24z"/>
<path d="M4606 1308 c-320 -158 -373 -981 -76 -1185 128 -88 385 14 366 145
-9 62 -47 51 -100 -28 -49 -72 -103 -93 -188 -71 l-48 12 0 508 c0 503 0 509
44 540 122 85 193 -7 226 -294 9 -80 22 -115 41 -115 33 0 36 57 16 337 l-13
183 -102 0 c-56 -1 -131 -15 -166 -32z m-110 -853 l-6 -205 -40 80 c-56 114
-56 450 0 620 l40 120 6 -205 c3 -113 3 -297 0 -410z"/>
<path d="M4964 1305 c5 -29 32 -36 151 -41 l145 -6 0 -590 0 -590 135 6 135 6
10 590 10 590 150 0 c126 0 150 5 156 35 6 33 -25 35 -446 35 -421 0 -452 -3
-446 -35z m502 -600 l-5 -555 -66 0 -65 0 -5 555 -6 555 76 0 76 0 -5 -555z"/>
</g>
</svg>
