<svg
	xmlns="http://www.w3.org/2000/svg"
	viewBox="0 0 900 900">

	<g transform="translate(0,900) scale(0.1,-0.1)" fill="#ffffff" stroke="none">
	
<path d="M2575 7640 c-71 -10 -114 -32 -178 -90 -59 -54 -76 -81 -108 -170
-19 -53 -19 -101 -19 -2010 1 -1676 3 -1961 15 -1995 8 -22 15 -48 15 -57 0
-32 80 -201 131 -278 31 -47 267 -281 659 -655 58 -55 130 -125 161 -155 50
-49 344 -333 654 -631 200 -193 263 -251 287 -265 175 -99 347 -111 533 -36
78 31 113 62 439 376 131 127 251 242 265 256 260 250 565 544 597 575 22 22
143 139 268 260 227 219 285 288 336 400 39 86 48 108 67 175 17 62 18 155 18
2045 l0 1980 -27 55 c-35 74 -66 113 -119 153 -77 57 -118 70 -227 70 -94 -1
-103 -3 -178 -39 -79 -39 -79 -39 -348 -299 -60 -58 -275 -265 -555 -535 -134
-129 -262 -253 -285 -275 -313 -305 -473 -451 -488 -446 -9 3 -63 51 -120 106
-130 125 -297 287 -607 585 -134 129 -262 253 -285 275 -38 38 -453 435 -541
518 -87 83 -231 125 -360 107z m217 -387 c46 -45 103 -100 128 -124 84 -79
285 -273 556 -535 148 -143 316 -305 373 -360 372 -355 501 -482 526 -519 28
-41 79 -150 99 -210 15 -45 16 -230 16 -1990 0 -1067 0 -1946 0 -1952 0 -32
-109 -5 -153 38 -8 8 -70 68 -138 134 -68 66 -230 221 -359 345 -128 124 -269
259 -311 300 -194 189 -340 330 -539 520 -287 274 -294 281 -339 371 -77 151
-71 -19 -71 2109 0 1382 3 1916 11 1934 30 66 89 48 201 -61z"/>
</g>
</svg>
