<svg version="1.0" xmlns="http://www.w3.org/2000/svg"
 width="900.000000pt" height="270.000000pt" viewBox="0 0 900.000000 270.000000"
 preserveAspectRatio="xMidYMid meet">
<g transform="translate(0.000000,270.000000) scale(0.100000,-0.100000)"
fill="White" stroke="none">
<path d="M2594 2308 c-11 -13 -32 -40 -48 -60 -22 -31 -33 -38 -61 -38 -19 0
-46 -5 -60 -12 -53 -24 -55 -38 -55 -406 l0 -340 29 -31 c27 -29 34 -31 95
-31 52 0 67 -3 73 -17 5 -10 6 -76 3 -148 l-5 -130 -55 -3 c-72 -4 -80 7 -80
114 0 111 -9 134 -54 134 -67 0 -80 -32 -74 -192 3 -89 8 -119 22 -141 l18
-27 292 0 c160 0 296 4 303 8 24 15 33 66 33 182 0 146 -7 170 -53 170 -63 0
-71 -15 -77 -137 l-5 -108 -55 -3 c-75 -4 -80 4 -80 149 0 94 3 121 16 133 13
14 49 16 238 16 159 0 225 -3 234 -12 22 -22 14 -104 -14 -145 -14 -21 -30
-47 -35 -58 -13 -26 -29 -54 -55 -90 -31 -45 -64 -113 -64 -134 0 -25 42 -61
72 -61 38 0 68 34 151 170 65 108 76 135 86 197 21 139 7 224 -41 237 -13 3
-181 6 -375 6 -204 0 -362 4 -377 10 -29 11 -35 44 -10 54 9 3 186 6 395 6
l379 0 16 25 c16 25 12 63 -10 77 -6 4 -183 8 -392 8 -325 0 -383 2 -394 15
-7 8 -10 22 -6 30 5 13 41 15 247 15 201 0 247 3 275 16 49 23 57 60 52 248
l-3 158 -28 24 c-27 23 -33 24 -188 24 l-159 0 0 43 c0 30 -6 49 -18 60 -27
24 -75 21 -98 -5z m338 -219 c12 -6 18 -19 16 -32 -3 -22 -5 -22 -218 -22
l-215 0 -3 27 c-2 19 2 28 15 31 38 10 386 6 405 -4z m16 -193 c2 -10 -2 -22
-10 -27 -15 -10 -388 -12 -412 -3 -16 6 -22 35 -9 48 4 3 101 5 217 4 197 -3
211 -4 214 -22z"/>
<path d="M607 2272 c-24 -27 -21 -74 6 -100 21 -20 34 -22 207 -24 l185 -3 3
-233 c1 -149 -1 -240 -8 -252 -10 -19 -22 -20 -220 -20 l-209 0 -20 -26 c-12
-15 -21 -32 -21 -39 0 -7 9 -24 21 -39 l20 -26 198 0 c162 0 200 -3 219 -16
22 -15 22 -17 22 -290 l0 -274 34 -16 c31 -15 35 -15 59 0 35 23 37 49 35 330
-2 224 -1 239 17 252 14 11 64 14 214 14 212 1 224 3 237 54 5 21 1 33 -17 52
-22 24 -23 24 -230 24 -133 0 -210 4 -214 10 -8 12 -14 468 -7 488 3 9 50 12
186 12 214 0 226 4 226 75 0 34 -5 47 -19 55 -13 6 -177 10 -464 10 -417 0
-445 -1 -460 -18z"/>
<path d="M4846 2271 c-15 -17 -16 -24 -5 -63 7 -23 19 -52 26 -63 15 -22 18
-65 4 -65 -5 0 -14 7 -21 15 -10 11 -36 15 -110 15 -54 0 -105 3 -114 6 -12 5
-16 20 -16 58 0 62 -27 96 -76 96 -47 0 -74 -35 -74 -97 0 -37 -4 -52 -16 -57
-9 -3 -75 -6 -148 -6 -94 0 -137 -4 -150 -13 -22 -16 -27 -90 -8 -109 9 -9 60
-15 165 -18 l152 -5 3 -131 3 -131 -32 -7 c-17 -3 -89 -6 -159 -6 -119 0 -128
-1 -148 -23 -26 -27 -28 -64 -6 -95 14 -21 22 -22 160 -22 81 0 154 -5 165
-10 18 -10 19 -24 19 -243 0 -260 5 -283 70 -321 48 -28 182 -35 226 -11 43
23 61 65 44 104 -21 52 -43 64 -102 59 -29 -3 -60 -7 -68 -9 -13 -3 -15 24
-18 200 -2 142 1 208 9 217 9 11 45 14 155 14 136 0 144 1 158 22 22 31 20 74
-4 98 -18 18 -33 20 -147 20 -189 0 -174 -12 -171 144 l3 131 112 3 c107 3
113 4 133 29 11 14 20 36 20 49 0 29 16 31 30 3 9 -16 19 -19 48 -17 36 3 37
4 40 49 2 32 -2 50 -13 59 -8 7 -15 20 -15 30 0 10 -7 23 -15 30 -8 7 -15 20
-15 29 0 21 -40 61 -62 61 -8 0 -23 -9 -32 -19z"/>
<path d="M4986 2268 c-20 -28 -20 -62 -1 -78 8 -7 15 -21 15 -32 0 -11 7 -26
15 -34 8 -9 15 -23 15 -32 1 -34 37 -64 72 -60 45 4 47 34 7 128 -54 128 -88
158 -123 108z"/>
<path d="M6148 2256 c-8 -8 -21 -29 -27 -48 -7 -18 -27 -67 -43 -108 -17 -41
-37 -93 -45 -115 -9 -22 -19 -49 -24 -60 -4 -11 -18 -45 -29 -75 -12 -30 -28
-67 -36 -82 -8 -14 -14 -34 -14 -45 0 -10 -9 -29 -20 -43 -15 -20 -26 -24 -55
-21 -47 4 -75 -20 -75 -66 0 -51 29 -73 95 -73 87 0 143 37 182 120 11 23 32
75 70 175 9 22 22 54 29 72 8 17 14 35 14 40 0 6 8 17 18 26 15 14 41 17 134
17 137 0 142 -4 108 -85 -5 -11 -19 -45 -31 -75 -61 -155 -53 -145 -101 -143
-24 0 -56 8 -73 17 -38 20 -79 20 -99 1 -20 -21 -30 -78 -18 -102 9 -16 65
-44 135 -67 18 -6 25 -63 9 -81 -4 -6 -17 -35 -29 -65 -92 -240 -106 -270
-128 -270 -7 0 -18 7 -25 15 -20 24 -83 19 -108 -8 -31 -33 -30 -90 3 -122 20
-21 34 -25 85 -25 33 0 79 6 101 12 56 17 118 88 147 169 13 35 27 73 32 84 5
11 19 45 30 75 12 30 30 74 40 97 l19 42 69 -6 c80 -7 102 7 102 62 0 38 -17
59 -66 80 -48 20 -47 27 21 190 7 17 21 53 31 80 10 28 24 61 31 75 7 14 13
33 13 42 0 9 4 19 9 22 12 8 41 99 41 129 0 31 -39 67 -73 67 -18 0 -40 -12
-63 -35 l-35 -35 -112 0 c-66 0 -117 4 -123 10 -8 8 -8 23 0 50 6 26 7 49 0
67 -8 24 -15 28 -55 31 -31 2 -52 -2 -61 -12z"/>
<path d="M715 2113 c-57 -14 -48 -76 34 -235 77 -150 101 -174 148 -148 57 32
54 55 -25 214 -40 79 -78 148 -85 154 -17 14 -49 20 -72 15z"/>
<path d="M1363 2112 c-15 -9 -135 -242 -152 -294 -9 -28 -9 -42 -1 -58 27 -51
105 -43 131 13 8 18 41 81 72 141 60 113 67 147 41 184 -15 22 -66 30 -91 14z"/>
<path d="M7522 1617 c-27 -29 -29 -78 -4 -100 17 -15 64 -17 466 -17 l448 0
19 23 c25 30 24 69 -4 95 -23 22 -25 22 -463 22 l-441 0 -21 -23z"/>
<path d="M3382 638 c-18 -18 -16 -352 1 -367 22 -18 27 -2 27 91 0 73 3 90 16
95 35 13 49 -11 54 -95 5 -86 10 -98 35 -89 12 5 15 23 15 83 0 93 -24 144
-69 144 -40 0 -51 18 -51 81 0 60 -8 77 -28 57z"/>
<path d="M4341 643 c-7 -3 -23 -15 -35 -27 -19 -19 -21 -34 -24 -152 -3 -128
-3 -131 22 -161 33 -39 67 -48 106 -28 40 21 52 46 48 108 -3 51 -4 52 -37 55
-53 5 -62 -14 -23 -46 l33 -28 -21 -27 c-17 -21 -27 -26 -43 -21 -39 12 -46
34 -47 140 0 84 3 106 18 124 28 35 65 21 86 -30 19 -48 36 -44 36 9 0 26 -7
44 -23 59 -24 23 -72 35 -96 25z"/>
<path d="M5513 629 c-30 -19 -33 -26 -33 -69 0 -47 2 -50 65 -106 73 -65 83
-85 61 -119 -21 -32 -56 -32 -85 -1 -23 25 -51 25 -51 1 0 -8 12 -27 26 -44
34 -41 88 -43 133 -5 27 22 31 32 31 76 0 53 1 52 -103 146 -43 38 -44 42 -18
73 20 24 20 24 51 6 47 -26 71 1 32 36 -30 28 -73 30 -109 6z"/>
<path d="M6523 643 c-10 -3 -13 -50 -13 -184 0 -153 2 -181 15 -186 9 -3 19
-2 23 2 9 9 16 318 8 351 -6 24 -11 27 -33 17z"/>
<path d="M2490 456 c0 -179 1 -186 20 -186 17 0 20 7 20 48 0 53 12 72 46 72
47 0 54 -9 54 -67 0 -46 3 -54 18 -51 15 3 17 20 17 183 0 153 -2 180 -15 180
-12 0 -16 -19 -18 -98 l-3 -98 -47 3 -47 3 -5 95 c-4 80 -8 95 -22 98 -17 3
-18 -11 -18 -182z"/>
<path d="M4847 634 c-4 -4 -7 -32 -7 -62 0 -38 -5 -61 -17 -74 -16 -18 -16
-21 0 -47 11 -19 17 -51 17 -94 0 -46 5 -70 16 -81 19 -20 38 -20 53 -2 10 11
8 18 -9 34 -18 16 -21 29 -18 78 3 50 6 61 26 69 31 14 29 45 -3 45 -23 0 -24
3 -27 67 -3 61 -14 84 -31 67z"/>
<path d="M5900 455 c0 -172 1 -186 18 -183 14 3 18 18 22 87 4 64 9 86 22 94
32 20 48 -8 48 -85 0 -70 13 -114 31 -103 5 4 9 49 9 101 0 81 -3 97 -20 114
-11 11 -31 20 -44 20 -34 0 -44 18 -48 80 -2 43 -7 56 -20 58 -17 3 -18 -11
-18 -183z"/>
<path d="M2730 554 c0 -33 33 -30 38 4 3 17 -2 22 -17 22 -16 0 -21 -6 -21
-26z"/>
<path d="M3574 565 c-4 -10 -1 -21 7 -26 20 -12 34 -5 34 17 0 24 -33 31 -41
9z"/>
<path d="M4713 564 c-6 -17 14 -36 32 -31 6 2 11 13 13 25 3 17 -2 22 -18 22
-11 0 -23 -7 -27 -16z"/>
<path d="M5013 503 c-23 -9 -14 -32 14 -35 38 -4 40 -24 4 -43 -71 -36 -78
-107 -15 -146 36 -22 81 -20 96 4 4 7 8 49 8 95 0 69 -3 85 -20 102 -11 11
-26 20 -34 20 -8 0 -20 2 -28 4 -7 3 -19 2 -25 -1z m77 -152 c0 -28 -28 -47
-48 -34 -24 15 -27 44 -7 59 22 17 55 1 55 -25z"/>
<path d="M2736 493 c-3 -4 -6 -55 -6 -115 0 -101 1 -108 20 -108 19 0 20 7 20
109 0 84 -3 110 -14 114 -8 3 -17 3 -20 0z"/>
<path d="M2833 493 c-9 -3 -13 -35 -13 -109 0 -87 3 -106 16 -111 24 -9 33 15
28 76 -5 61 3 111 17 111 5 0 18 -9 29 -20 11 -11 25 -20 30 -20 17 0 11 46
-8 63 -18 16 -72 21 -99 10z"/>
<path d="M3000 485 c0 -9 9 -15 24 -15 36 0 44 -21 15 -39 -44 -29 -59 -51
-59 -83 0 -18 4 -38 8 -44 14 -20 57 -44 79 -44 41 0 53 25 53 113 0 106 -13
127 -76 127 -32 0 -44 -4 -44 -15z m90 -141 c0 -23 -27 -36 -49 -24 -28 14
-27 48 2 59 23 9 47 -9 47 -35z"/>
<path d="M3197 482 c-10 -10 -17 -27 -17 -38 0 -20 34 -64 49 -64 5 0 20 -9
35 -21 21 -17 24 -24 15 -35 -16 -20 -39 -17 -66 8 -18 17 -26 19 -35 10 -16
-16 19 -63 56 -76 21 -8 32 -6 54 11 49 37 42 104 -13 124 -23 9 -38 22 -42
37 -8 33 3 39 37 18 43 -25 68 -5 34 28 -22 22 -87 21 -107 -2z"/>
<path d="M3582 488 c-14 -14 -16 -185 -3 -207 5 -8 16 -11 25 -8 13 5 15 22
12 108 -4 103 -12 129 -34 107z"/>
<path d="M3676 475 c-12 -18 -16 -48 -16 -115 0 -83 1 -90 20 -90 18 0 20 7
20 76 0 79 11 114 35 114 22 0 31 -29 29 -95 -1 -62 10 -100 27 -90 5 4 9 46
9 96 0 79 2 89 18 89 33 0 42 -21 42 -105 0 -86 3 -97 26 -88 18 7 20 163 3
196 -18 34 -28 37 -115 37 -76 0 -83 -2 -98 -25z"/>
<path d="M3960 485 c0 -9 9 -15 23 -15 23 0 55 -16 47 -23 -3 -2 -21 -13 -41
-25 -25 -15 -38 -32 -43 -52 -16 -80 71 -143 124 -90 16 16 20 33 20 94 0 96
-20 126 -86 126 -32 0 -44 -4 -44 -15z m78 -107 c30 -30 0 -78 -37 -58 -25 13
-27 33 -5 54 19 19 26 20 42 4z"/>
<path d="M4512 488 c-15 -15 -16 -109 -1 -160 7 -26 19 -43 39 -53 39 -20 43
-19 79 11 31 25 31 27 31 121 0 85 -2 94 -17 91 -15 -3 -18 -16 -21 -85 -3
-90 -15 -113 -51 -94 -17 10 -21 23 -23 93 -3 80 -12 100 -36 76z"/>
<path d="M4723 488 c-6 -7 -9 -51 -8 -98 3 -121 3 -120 25 -120 20 0 21 5 18
112 -3 109 -12 136 -35 106z"/>
<path d="M5173 493 c-9 -3 -13 -35 -13 -109 0 -85 3 -106 15 -111 25 -9 30 4
32 85 2 103 2 102 13 102 6 0 19 -9 30 -20 11 -11 25 -20 30 -20 17 0 11 46
-8 63 -18 16 -72 21 -99 10z"/>
<path d="M5724 475 c-21 -32 -20 -139 1 -172 33 -50 93 -50 117 2 15 33 -2 54
-25 31 -9 -9 -27 -16 -41 -16 -25 0 -26 3 -26 54 0 30 3 61 6 70 8 21 33 20
56 -1 27 -25 47 -3 28 32 -11 21 -21 25 -56 25 -35 0 -47 -5 -60 -25z"/>
<path d="M6134 492 c-21 -14 -34 -51 -34 -101 0 -63 12 -96 45 -117 25 -16 29
-16 61 -1 41 20 54 49 54 121 0 71 -26 106 -78 106 -20 0 -42 -4 -48 -8z m72
-49 c19 -25 18 -98 -2 -117 -18 -19 -20 -19 -45 -6 -15 9 -19 22 -19 63 0 72
34 102 66 60z"/>
<path d="M6337 488 c-34 -27 -47 -106 -26 -165 6 -18 24 -38 43 -48 33 -18 34
-18 69 4 39 24 47 43 47 117 0 69 -26 104 -79 104 -20 0 -45 -6 -54 -12z m81
-52 c14 -31 8 -94 -11 -113 -12 -12 -19 -13 -36 -4 -17 10 -21 21 -21 64 0 29
5 58 12 65 19 19 44 14 56 -12z"/>
</g>
</svg>
