<svg version="1.0" xmlns="http://www.w3.org/2000/svg"
 width="900.000000pt" height="270.000000pt" viewBox="0 0 900.000000 270.000000"
 preserveAspectRatio="xMidYMid meet">
<g transform="translate(0.000000,270.000000) scale(0.100000,-0.100000)"
fill="White" stroke="none">
<path d="M3153 2320 c-13 -5 -32 -24 -43 -42 -19 -32 -20 -50 -20 -658 0 -702
-3 -670 69 -670 73 0 71 -11 71 423 0 444 -9 407 104 407 72 0 82 -7 77 -58
-2 -21 4 -41 14 -52 28 -31 16 -54 -30 -57 -61 -4 -86 -51 -45 -88 16 -14 41
-20 103 -22 104 -5 107 -6 107 -43 l0 -30 -129 0 c-126 0 -129 -1 -145 -25
-21 -32 -20 -47 4 -73 19 -20 30 -22 145 -22 123 0 125 0 125 -23 0 -15 -33
-56 -105 -127 -90 -90 -105 -109 -105 -137 0 -24 7 -37 25 -49 36 -24 67 -8
155 81 45 45 83 75 95 75 11 -1 52 -33 94 -75 91 -90 117 -103 160 -81 57 30
45 57 -79 181 -147 146 -146 148 21 155 138 5 159 14 159 60 0 46 -21 55 -159
60 -124 5 -126 5 -129 29 -6 39 20 50 99 45 87 -6 129 12 129 55 0 34 -15 48
-55 53 -35 4 -45 31 -21 57 11 12 16 33 14 62 l-3 44 68 3 c42 2 74 -2 83 -9
12 -9 14 -77 14 -391 0 -430 0 -428 70 -428 74 0 70 -43 70 675 l0 643 -35 31
-36 31 -165 0 c-182 0 -227 -11 -245 -57 -12 -33 -12 -415 1 -448 6 -15 22
-30 40 -36 18 -7 30 -18 30 -28 0 -22 -125 -144 -142 -139 -6 2 -16 17 -21 33
-5 15 -25 41 -43 58 -37 32 -44 64 -16 74 9 3 27 15 40 26 21 20 22 25 22 234
l0 213 -29 32 -29 33 -179 2 c-98 1 -188 -2 -200 -7z m312 -160 l0 -45 -115 0
-115 0 -3 33 c-6 62 -4 63 120 60 l113 -3 0 -45z m550 0 l0 -45 -104 -3 c-129
-3 -146 7 -121 73 l10 26 107 -3 108 -3 0 -45z m-557 -172 c7 -7 12 -27 12
-45 0 -43 -24 -53 -134 -53 -91 0 -106 8 -106 55 0 49 14 55 120 55 61 0 100
-4 108 -12z m550 0 c7 -7 12 -26 12 -43 0 -48 -14 -55 -115 -55 -79 0 -94 3
-110 20 -19 21 -14 68 8 82 20 13 192 9 205 -4z"/>
<path d="M4838 2299 c-12 -7 -18 -22 -18 -49 0 -67 12 -70 257 -70 116 0 214
-3 217 -8 4 -7 -8 -47 -44 -139 l-12 -33 -149 0 c-138 0 -152 -2 -179 -22
l-30 -22 0 -477 0 -478 22 -21 c12 -11 31 -20 42 -21 12 0 205 0 429 0 397 1
410 2 438 22 l29 20 0 472 c0 260 -4 477 -8 482 -25 34 -48 40 -176 45 l-131
5 0 85 0 85 168 5 c162 5 170 6 188 29 24 30 24 56 -1 81 -19 19 -33 20 -522
20 -323 0 -509 -4 -520 -11z m326 -425 c22 -8 20 -27 -10 -109 -14 -38 -29
-83 -34 -100 -5 -16 -20 -61 -34 -100 -14 -38 -25 -77 -26 -86 0 -8 -11 -26
-25 -39 l-25 -23 0 209 c0 250 1 254 85 254 29 0 60 -3 69 -6z m526 -13 c14
-27 14 -358 -1 -366 -5 -4 -18 0 -28 9 -11 10 -36 16 -69 16 -40 0 -53 4 -62
19 -5 11 -10 84 -10 165 0 174 1 176 95 176 53 0 66 -3 75 -19z m-314 -5 c3
-7 6 -102 7 -211 l2 -197 30 -24 c27 -22 40 -24 127 -24 86 0 99 2 117 21 11
12 24 18 30 14 16 -9 15 -327 -1 -343 -9 -9 -97 -12 -335 -12 -376 0 -343 -12
-343 129 0 98 2 101 54 81 40 -15 71 5 95 61 12 26 21 52 21 58 0 6 6 25 14
43 7 18 21 58 31 88 9 30 21 64 26 75 5 11 23 63 40 115 17 52 35 105 40 117
9 25 37 31 45 9z"/>
<path d="M3007 674 c-4 -4 -7 -85 -7 -179 0 -131 3 -175 13 -184 22 -18 37 8
37 66 0 69 13 68 68 -8 42 -57 72 -75 72 -43 0 15 -47 88 -82 128 -27 30 -22
51 32 125 55 75 60 91 30 91 -12 0 -33 -20 -57 -55 -21 -30 -43 -54 -50 -55
-8 0 -13 21 -15 57 -2 43 -7 59 -18 61 -9 1 -19 0 -23 -4z"/>
<path d="M4256 673 c-3 -4 -6 -74 -6 -156 l0 -149 34 -34 c40 -40 61 -42 107
-11 l34 23 3 167 c2 144 0 167 -13 167 -13 0 -15 -21 -15 -140 0 -159 -10
-190 -60 -190 -41 0 -50 32 -50 184 0 106 -3 135 -14 139 -8 3 -17 3 -20 0z"/>
<path d="M5682 668 c-7 -7 -12 -37 -12 -67 0 -36 -5 -60 -16 -72 -15 -17 -15
-19 0 -34 12 -12 16 -35 16 -83 0 -74 17 -112 51 -112 28 0 35 28 13 49 -16
14 -18 28 -16 79 4 61 5 63 33 69 35 7 33 25 -2 33 -22 5 -24 12 -27 67 -3 64
-19 92 -40 71z"/>
<path d="M4024 605 c-7 -18 3 -35 21 -35 15 0 28 27 19 41 -8 14 -34 11 -40
-6z"/>
<path d="M4702 598 c2 -12 10 -23 18 -23 22 0 19 39 -3 43 -15 3 -18 -1 -15
-20z"/>
<path d="M5554 605 c-7 -18 3 -35 21 -35 15 0 28 27 19 41 -8 14 -34 11 -40
-6z"/>
<path d="M3678 534 c-56 -29 -45 -90 22 -124 50 -25 56 -60 11 -60 -16 0 -31
6 -35 15 -7 19 -46 20 -46 1 0 -20 50 -66 71 -66 33 0 68 22 78 50 12 35 -16
84 -53 94 -34 8 -54 44 -30 53 9 3 25 1 35 -5 28 -18 41 -14 37 10 -5 32 -55
50 -90 32z"/>
<path d="M5387 533 c-21 -10 -27 -21 -27 -47 0 -35 34 -76 63 -76 18 0 41 -35
32 -50 -10 -16 -53 -11 -63 7 -10 17 -42 12 -42 -7 0 -19 52 -60 75 -60 12 0
34 9 49 21 46 37 31 105 -29 123 -11 3 -26 15 -33 26 -10 17 -10 21 4 27 9 3
25 1 36 -6 21 -13 38 -7 38 14 0 30 -66 48 -103 28z"/>
<path d="M3255 530 c-9 -15 4 -27 34 -32 39 -5 34 -21 -11 -43 -45 -22 -57
-49 -44 -101 13 -49 104 -71 130 -31 17 26 11 166 -8 193 -15 20 -91 31 -101
14z m73 -119 c8 -4 12 -19 10 -32 -4 -33 -53 -40 -63 -9 -11 36 22 61 53 41z"/>
<path d="M3464 530 c-28 -11 -44 -59 -44 -131 0 -65 7 -89 25 -89 19 0 25 24
25 99 0 69 10 91 42 91 27 0 38 -32 38 -107 0 -71 10 -100 29 -89 12 7 15 154
5 192 -10 37 -71 54 -120 34z"/>
<path d="M3845 530 c-11 -17 5 -30 36 -30 19 0 29 -5 29 -15 0 -8 -5 -15 -11
-15 -6 0 -24 -9 -40 -21 -24 -17 -29 -27 -29 -64 0 -35 5 -48 26 -64 33 -26
76 -27 97 -3 13 14 17 38 17 96 0 68 -3 80 -25 101 -25 26 -88 35 -100 15z
m80 -145 c0 -39 -37 -48 -56 -14 -10 19 -9 25 7 36 29 21 49 12 49 -22z"/>
<path d="M4514 530 c-25 -10 -34 -46 -34 -140 0 -45 5 -71 14 -79 20 -16 26 6
26 93 0 74 9 96 42 96 28 0 49 -53 47 -119 -2 -60 5 -86 22 -76 11 7 12 185 1
201 -20 30 -75 41 -118 24z"/>
<path d="M4791 526 c-9 -11 -8 -27 9 -75 11 -33 20 -66 20 -73 0 -7 9 -28 21
-47 17 -29 22 -32 34 -20 14 14 48 102 65 169 7 26 6 39 -5 49 -15 15 -19 9
-48 -79 -7 -19 -16 -34 -21 -33 -5 1 -18 26 -29 55 -24 65 -30 73 -46 54z"/>
<path d="M5020 520 c-17 -17 -20 -33 -20 -99 0 -74 2 -81 26 -100 15 -12 34
-21 44 -21 26 0 70 39 70 61 0 23 -23 25 -40 4 -21 -25 -54 -15 -58 18 -3 26
-2 27 42 27 36 0 48 4 56 21 37 68 -65 144 -120 89z m74 -37 c9 -21 -16 -46
-37 -37 -20 7 -22 25 -5 42 17 17 35 15 42 -5z"/>
<path d="M5192 528 c-13 -13 -18 -209 -5 -221 3 -4 12 -2 20 4 9 8 13 37 13
95 0 79 1 84 21 84 12 0 28 -8 35 -17 11 -15 15 -16 23 -4 5 7 6 22 3 33 -8
33 -85 51 -110 26z"/>
<path d="M5810 517 c0 -13 6 -43 14 -68 30 -99 36 -137 25 -169 -8 -23 -8 -35
-1 -42 16 -16 39 7 47 45 3 18 12 48 19 67 46 123 59 196 34 188 -7 -3 -22
-28 -33 -56 -11 -29 -25 -52 -31 -52 -6 0 -18 25 -28 55 -18 57 -46 76 -46 32z"/>
<path d="M4027 524 c-9 -9 -9 -176 -1 -198 7 -19 34 -21 35 -3 6 129 1 202
-12 205 -8 1 -18 0 -22 -4z"/>
<path d="M4700 421 c0 -61 4 -112 9 -116 20 -11 32 38 30 118 -2 93 -5 107
-25 107 -11 0 -14 -23 -14 -109z"/>
<path d="M5557 523 c-9 -8 -9 -176 -1 -197 8 -20 34 -21 34 -1 1 8 1 53 1 100
0 47 0 90 -1 95 0 11 -23 14 -33 3z"/>
</g>
</svg>
