<svg version="1.0" xmlns="http://www.w3.org/2000/svg"
 width="900.000000pt" height="270.000000pt" viewBox="0 0 900.000000 270.000000"
 preserveAspectRatio="xMidYMid meet">
<g transform="translate(0.000000,270.000000) scale(0.100000,-0.100000)"
fill="White" stroke="none">
<path d="M4230 2310 c-24 -24 -29 -46 -32 -140 l-3 -75 -95 -5 c-111 -6 -140
-19 -140 -66 0 -51 26 -65 129 -69 49 -2 95 -6 100 -10 13 -7 15 -623 3 -641
-8 -13 -42 -54 -164 -198 -84 -98 -95 -129 -58 -166 28 -28 67 -25 98 8 40 42
130 147 223 258 46 55 88 104 94 110 6 6 26 30 45 53 19 22 40 41 46 41 6 0
33 -26 60 -57 26 -32 66 -79 88 -104 23 -25 50 -56 60 -70 34 -43 147 -173
183 -212 29 -30 43 -37 74 -37 41 0 69 26 69 66 0 17 -61 108 -90 134 -3 3
-36 41 -74 85 -38 44 -90 105 -116 135 -126 147 -150 176 -150 186 0 6 23 37
51 70 59 67 116 134 215 249 79 92 81 94 114 101 36 8 56 25 63 56 6 21 2 33
-18 52 l-26 26 -307 0 c-226 0 -311 3 -320 12 -8 8 -12 45 -12 100 0 75 -3 91
-20 108 -25 25 -64 26 -90 0z m468 -359 c24 -2 11 -36 -37 -90 -26 -31 -60
-69 -74 -86 -134 -158 -165 -194 -194 -223 -18 -18 -38 -30 -43 -27 -6 4 -10
84 -10 205 0 183 2 200 19 212 13 9 60 13 172 12 85 -1 160 -2 167 -3z"/>
<path d="M5855 2313 c-13 -12 -16 -30 -13 -72 l3 -56 -54 -5 c-82 -9 -91 -25
-91 -166 0 -105 1 -114 22 -128 28 -20 68 -20 94 -2 15 11 20 30 24 88 l5 73
371 3 372 2 6 -22 c3 -13 6 -43 6 -68 0 -25 4 -50 8 -57 24 -37 115 -31 126 9
3 13 6 67 6 120 0 91 -2 99 -25 123 -18 17 -37 25 -60 25 -31 0 -35 3 -35 25
0 14 5 33 11 43 9 14 8 26 -5 50 -14 28 -22 32 -57 32 -44 0 -71 -22 -111 -89
-30 -51 -46 -61 -94 -61 -46 0 -55 8 -73 60 -19 58 -58 90 -108 90 -35 0 -46
-5 -60 -26 -14 -22 -15 -31 -4 -58 23 -58 21 -61 -39 -61 -53 0 -54 1 -64 34
-15 51 -76 111 -114 111 -17 0 -38 -7 -47 -17z"/>
<path d="M8082 2307 c-14 -15 -22 -36 -22 -60 0 -24 -6 -39 -17 -45 -10 -5
-71 -12 -135 -14 l-118 -4 0 27 c0 14 -9 38 -21 53 -20 26 -21 26 -157 26
-146 0 -165 -6 -191 -57 -8 -15 -11 -205 -11 -643 l0 -621 25 -24 c28 -29 51
-31 83 -9 20 14 22 24 22 98 0 53 5 89 13 101 10 12 16 14 21 7 4 -7 33 -12
70 -12 53 0 66 4 85 24 21 23 22 27 18 257 -3 220 -11 290 -37 337 -5 9 -19
38 -30 64 -23 54 -21 72 21 163 15 33 29 69 31 80 2 11 11 21 21 23 14 3 17
-4 17 -38 0 -43 33 -90 64 -90 37 0 66 23 72 59 3 20 7 42 9 49 5 15 386 17
416 2 12 -7 19 -21 19 -40 0 -35 31 -70 60 -70 12 0 32 7 45 16 23 15 25 22
25 93 0 59 -5 81 -20 101 -18 23 -26 25 -135 30 -127 5 -135 9 -135 68 0 64
-66 94 -108 49z m-468 -150 c16 -12 16 -16 -7 -72 -14 -33 -28 -69 -31 -79
-11 -33 -27 -3 -33 61 -8 89 21 126 71 90z m-34 -425 c1 -9 9 -35 20 -57 17
-35 19 -63 20 -227 l0 -187 -31 -16 c-17 -9 -34 -14 -37 -10 -10 9 -9 486 0
508 9 21 28 14 28 -11z"/>
<path d="M701 2302 c-16 -12 -24 -34 -30 -75 -4 -33 -14 -63 -22 -68 -8 -5
-39 -9 -69 -9 -64 0 -80 -11 -80 -55 0 -55 22 -65 148 -65 91 0 112 -3 112
-14 0 -8 -28 -50 -62 -92 -35 -43 -87 -109 -116 -147 -30 -38 -62 -77 -73 -88
-46 -46 -48 -117 -2 -138 35 -16 62 -6 104 40 20 21 42 39 48 39 8 0 11 -91
11 -319 0 -199 4 -329 11 -349 15 -44 65 -56 99 -22 19 19 20 33 20 279 0 143
4 262 8 265 5 3 26 -13 47 -34 41 -42 74 -50 95 -25 19 23 40 18 40 -10 0 -34
18 -69 43 -85 12 -8 58 -16 102 -20 l80 -5 3 -175 c2 -164 3 -176 23 -192 26
-22 49 -23 75 -4 17 13 19 31 24 193 l5 178 75 5 c81 5 124 25 134 63 3 12 6
185 6 384 l0 362 -24 28 c-22 26 -32 28 -108 33 l-83 5 -5 53 c-4 45 -9 56
-33 70 -25 15 -30 15 -55 2 -20 -12 -28 -24 -30 -50 -6 -82 -4 -80 -93 -80
-78 0 -82 -1 -110 -31 -28 -30 -30 -31 -54 -15 -15 10 -46 16 -83 16 -32 0
-63 5 -70 12 -7 7 -12 38 -12 69 0 49 -3 59 -25 73 -31 21 -48 20 -74 -2z
m513 -258 c11 -29 7 -189 -6 -202 -19 -19 -66 -15 -78 7 -13 25 -13 151 0 185
8 21 16 26 44 26 22 0 36 -6 40 -16z m211 -99 c0 -106 -1 -110 -22 -113 -12
-2 -31 2 -42 8 -19 10 -21 20 -21 109 0 54 3 101 7 105 4 4 23 6 43 4 l35 -3
0 -110z m-435 -165 c0 -288 -2 -294 -57 -217 -17 23 -40 51 -50 62 -68 73 -83
102 -83 156 0 48 4 58 38 96 21 23 56 67 78 97 21 30 46 57 54 59 8 3 16 5 18
6 1 0 2 -116 2 -259z m228 -204 c3 -130 -2 -146 -49 -146 -22 0 -32 6 -39 26
-11 29 -14 227 -3 238 4 4 25 6 48 4 l40 -3 3 -119z m210 -8 l-3 -133 -40 0
-40 0 -3 133 -3 132 46 0 46 0 -3 -132z"/>
<path d="M2249 2284 c-7 -9 -13 -32 -13 -51 0 -66 -17 -64 537 -61 547 3 517
-1 517 65 0 65 21 63 -529 63 -444 0 -500 -2 -512 -16z"/>
<path d="M2354 2060 c-12 -4 -25 -17 -30 -27 -5 -10 -11 -198 -14 -418 l-5
-400 -28 -59 c-64 -136 -71 -183 -31 -215 67 -53 92 -23 185 229 7 20 15 106
18 205 l6 170 362 5 c361 5 363 5 385 28 22 22 23 27 23 232 0 205 -1 210 -23
232 l-23 23 -402 2 c-221 1 -411 -2 -423 -7z m714 -118 c9 -7 12 -41 10 -138
l-3 -129 -299 -3 c-212 -2 -303 1 -312 9 -19 16 -20 255 -1 262 21 9 591 7
605 -1z"/>
<path d="M5923 1980 c-23 -9 -37 -45 -31 -76 7 -36 45 -44 231 -44 172 0 177
-1 177 -20 0 -32 -45 -72 -73 -65 -15 4 -32 -1 -50 -15 -25 -20 -27 -27 -27
-94 0 -43 -5 -77 -12 -84 -9 -9 -69 -12 -211 -12 -109 0 -206 -4 -217 -10 -23
-12 -33 -52 -21 -83 15 -40 59 -48 259 -45 113 1 186 -2 192 -8 7 -7 9 -76 8
-185 l-3 -174 -65 -5 c-74 -6 -87 -12 -101 -47 -7 -18 -5 -32 8 -54 l17 -29
117 0 117 0 26 31 26 31 0 219 c0 120 3 219 8 219 4 0 99 2 210 3 l204 2 24
28 c29 34 30 47 3 81 l-20 26 -187 0 c-195 0 -226 6 -205 37 27 39 119 186
135 215 9 17 22 36 27 41 6 6 11 28 11 48 0 29 -6 43 -26 58 -25 20 -38 21
-278 20 -138 0 -261 -4 -273 -9z"/>
<path d="M7937 1963 c-9 -2 -24 -18 -32 -34 -16 -30 -8 -63 19 -81 6 -4 98 -8
204 -8 179 0 193 1 212 20 27 27 25 56 -5 85 -24 25 -26 25 -202 24 -98 -1
-186 -3 -196 -6z"/>
<path d="M7807 1712 c-20 -22 -22 -75 -4 -90 7 -6 46 -12 87 -14 70 -3 75 -5
78 -27 2 -12 -18 -73 -43 -135 -26 -61 -54 -127 -62 -146 -8 -19 -21 -48 -28
-65 -52 -115 -95 -231 -95 -254 0 -54 65 -80 108 -43 12 9 37 58 57 107 20 50
40 99 45 110 5 11 32 76 61 145 70 172 89 211 100 204 5 -3 9 -118 9 -260 l0
-256 29 -29 29 -29 130 0 c144 0 162 7 162 68 0 47 -29 62 -120 62 -46 0 -81
5 -88 12 -16 16 -17 490 -2 519 9 16 22 19 95 19 75 0 85 2 99 22 21 30 20 50
-4 76 -20 22 -25 22 -324 22 -281 0 -304 -1 -319 -18z"/>
<path d="M2330 474 c0 -171 1 -185 18 -182 13 2 18 16 22 58 4 42 9 54 20 52
8 -2 20 -10 25 -18 6 -9 22 -30 37 -47 15 -18 28 -35 28 -39 0 -12 28 -10 35
2 6 10 -50 103 -80 134 -28 28 -21 60 28 123 50 66 59 93 28 93 -12 0 -30 -17
-48 -44 -15 -25 -38 -49 -50 -55 -22 -10 -23 -9 -23 33 0 54 -8 76 -26 76 -11
0 -14 -34 -14 -186z"/>
<path d="M2775 648 c-3 -8 -4 -90 -3 -183 l3 -170 34 -3 c78 -8 111 27 111
119 0 45 -4 55 -34 85 -19 19 -43 34 -55 34 -18 0 -20 7 -23 62 -3 58 -21 89
-33 56z m100 -222 c9 -56 -8 -98 -38 -94 -20 3 -22 9 -25 67 -3 67 5 83 39 74
12 -4 20 -18 24 -47z"/>
<path d="M3416 644 c-3 -9 -6 -78 -6 -155 0 -138 0 -140 -25 -151 -19 -9 -29
-8 -50 6 -42 28 -64 -4 -26 -38 13 -12 32 -16 62 -14 36 3 47 8 66 37 21 31
23 45 23 170 0 93 -4 141 -12 149 -16 16 -25 15 -32 -4z"/>
<path d="M4095 638 c-3 -13 -4 -95 -3 -183 3 -143 5 -160 21 -163 13 -3 17 3
17 27 0 40 22 41 52 1 12 -16 27 -30 34 -30 27 0 25 23 -5 60 -38 48 -38 65
-1 110 17 19 30 40 30 47 0 23 -33 14 -67 -19 -39 -38 -42 -34 -45 81 -2 55
-7 86 -15 88 -7 3 -15 -6 -18 -19z"/>
<path d="M4934 647 c-3 -9 -4 -84 -2 -167 3 -146 4 -153 27 -171 35 -29 94
-25 125 8 29 31 34 61 35 208 1 115 -6 142 -33 132 -14 -5 -16 -27 -16 -147 0
-127 -2 -142 -20 -160 -25 -25 -42 -25 -63 -2 -13 14 -17 46 -19 162 -2 104
-6 145 -15 148 -7 2 -16 -3 -19 -11z"/>
<path d="M6346 645 c-3 -9 -6 -36 -6 -60 0 -23 -7 -55 -15 -71 -13 -25 -13
-30 0 -44 10 -11 15 -38 15 -79 0 -78 11 -101 50 -101 35 0 40 19 10 38 -18
11 -21 21 -18 74 3 57 5 63 28 68 14 3 25 11 25 18 0 7 -11 18 -25 25 -22 11
-26 21 -30 76 -5 62 -21 89 -34 56z"/>
<path d="M4485 590 c-8 -14 3 -30 21 -30 8 0 14 9 14 20 0 21 -24 28 -35 10z"/>
<path d="M5380 590 c-11 -7 -12 -12 -3 -21 14 -14 46 -4 41 13 -6 16 -20 19
-38 8z"/>
<path d="M6237 594 c-14 -14 -7 -35 11 -32 9 2 17 10 17 17 0 16 -18 25 -28
15z"/>
<path d="M2610 517 c-38 -19 -51 -54 -47 -124 4 -76 24 -103 77 -103 59 0 80
31 80 116 0 60 -3 74 -22 91 -32 29 -59 35 -88 20z m51 -47 c15 -9 19 -22 19
-64 0 -64 -17 -85 -55 -68 -22 10 -25 18 -25 66 0 42 4 57 18 65 21 13 20 13
43 1z"/>
<path d="M2989 501 c-26 -26 -29 -36 -29 -94 0 -80 23 -117 74 -117 36 0 70
29 64 54 -3 14 -6 14 -32 1 -37 -20 -43 -19 -57 6 -14 27 1 39 52 39 40 0 49
11 49 60 0 19 -10 36 -31 54 -39 33 -54 33 -90 -3z m70 -35 c9 -10 8 -16 -4
-26 -17 -14 -45 -7 -45 13 0 29 30 37 49 13z"/>
<path d="M3539 502 c-24 -21 -32 -38 -36 -74 -10 -89 21 -138 87 -138 53 0 80
37 80 110 0 61 -19 102 -55 118 -36 17 -41 16 -76 -16z m68 -30 c16 -10 25
-99 13 -123 -12 -21 -40 -25 -58 -7 -7 7 -12 35 -12 63 0 64 22 89 57 67z"/>
<path d="M3743 506 c-26 -22 -28 -30 -28 -94 0 -79 15 -106 66 -116 44 -8 35
-37 -15 -51 -44 -13 -56 -29 -30 -39 30 -11 84 5 105 32 19 24 20 38 17 150
-3 133 -7 142 -60 142 -15 0 -40 -11 -55 -24z m64 -42 c3 -8 6 -36 7 -61 0
-34 -4 -49 -17 -57 -36 -22 -60 48 -37 108 11 29 37 35 47 10z"/>
<path d="M3923 514 c-7 -18 4 -31 32 -36 27 -4 26 -32 -1 -36 -53 -8 -77 -90
-39 -132 15 -17 29 -20 69 -18 l51 3 3 80 c4 101 0 116 -37 138 -36 21 -70 22
-78 1z m77 -119 c20 -24 4 -65 -25 -65 -28 0 -41 30 -25 60 13 24 33 26 50 5z"/>
<path d="M4490 505 c-11 -29 -14 -174 -4 -199 3 -9 12 -16 20 -16 11 0 14 23
14 114 0 115 -11 151 -30 101z"/>
<path d="M4620 513 c-38 -26 -40 -31 -40 -130 0 -76 3 -93 15 -93 16 0 18 5
15 68 -3 90 25 136 70 112 16 -9 20 -23 22 -93 2 -65 6 -82 18 -82 12 0 16 18
18 88 3 86 2 88 -27 117 -34 34 -56 37 -91 13z"/>
<path d="M5183 506 c-27 -23 -28 -28 -28 -118 0 -76 3 -93 15 -93 12 0 16 17
20 77 5 85 22 115 58 104 24 -8 32 -33 32 -112 0 -65 4 -76 26 -67 20 7 19
144 -1 183 -28 54 -77 65 -122 26z"/>
<path d="M5689 501 c-26 -27 -29 -36 -29 -98 0 -60 3 -73 23 -91 42 -39 117
-19 117 31 0 21 -10 21 -36 2 -27 -20 -41 -19 -55 6 -14 27 1 39 52 39 38 0
48 14 49 63 0 23 -53 77 -75 77 -9 0 -30 -13 -46 -29z m70 -35 c9 -10 8 -16
-4 -26 -17 -14 -45 -7 -45 13 0 29 30 37 49 13z"/>
<path d="M5871 511 c-18 -18 -21 -33 -21 -110 0 -65 4 -92 15 -101 26 -22 35
0 35 84 0 45 3 86 6 89 4 3 18 -3 32 -13 32 -26 42 -25 42 3 0 51 -74 83 -109
48z"/>
<path d="M6055 505 c-14 -13 -25 -30 -25 -38 0 -23 37 -63 70 -77 21 -9 30
-19 30 -36 0 -31 -39 -33 -65 -4 -21 24 -31 25 -38 6 -3 -8 3 -26 15 -41 17
-22 27 -26 67 -23 38 2 48 7 58 29 23 47 -3 91 -69 115 -10 3 -18 15 -18 26 0
18 5 20 38 14 49 -7 58 1 30 31 -28 30 -63 29 -93 -2z"/>
<path d="M6237 524 c-12 -12 -8 -222 4 -230 22 -13 30 23 26 119 -4 91 -14
127 -30 111z"/>
<path d="M4274 495 c-3 -14 -4 -56 -2 -94 4 -85 23 -111 79 -111 61 0 79 32
79 142 0 80 -2 89 -17 86 -15 -3 -19 -17 -23 -78 -3 -41 -10 -84 -17 -95 -10
-16 -15 -17 -37 -7 -25 11 -26 15 -26 97 0 68 -3 85 -15 85 -8 0 -17 -11 -21
-25z"/>
<path d="M5376 504 c-3 -9 -6 -55 -6 -104 0 -66 4 -91 15 -100 9 -7 18 -11 21
-8 4 5 8 175 5 216 -1 17 -28 15 -35 -4z"/>
<path d="M5450 513 c0 -9 20 -72 53 -165 14 -43 24 -58 39 -58 10 0 20 6 22
13 16 56 41 134 47 142 4 6 10 25 14 43 6 31 5 33 -16 30 -22 -3 -29 -16 -43
-80 -4 -19 -13 -28 -25 -28 -15 0 -23 13 -36 55 -12 43 -20 55 -35 55 -11 0
-20 -3 -20 -7z"/>
<path d="M6480 508 c0 -7 10 -44 22 -83 13 -41 22 -99 22 -140 2 -92 21 -94
49 -5 11 36 33 102 48 147 15 45 24 84 21 87 -17 17 -41 4 -47 -26 -12 -60
-16 -68 -35 -68 -19 0 -21 4 -36 78 -5 23 -44 32 -44 10z"/>
</g>
</svg>
