<svg version="1.0" xmlns="http://www.w3.org/2000/svg"
 width="900.000000pt" height="270.000000pt" viewBox="0 0 900.000000 270.000000"
 preserveAspectRatio="xMidYMid meet">
<g transform="translate(0.000000,270.000000) scale(0.100000,-0.100000)"
fill="White" stroke="none">
<path d="M5271 2334 c-19 -14 -22 -22 -17 -53 13 -77 13 -76 -23 -79 -54 -5
-81 5 -81 31 0 40 -46 95 -87 103 -75 14 -115 -31 -82 -93 16 -30 8 -37 -54
-43 -45 -4 -54 -9 -74 -39 -19 -29 -23 -47 -23 -116 0 -45 5 -96 11 -114 19
-54 70 -67 107 -28 18 19 22 35 22 85 0 50 3 63 19 72 21 11 697 15 725 4 12
-5 16 -20 16 -64 0 -94 55 -138 118 -94 21 14 22 23 22 133 0 110 -1 119 -23
139 -14 13 -36 22 -55 22 -35 0 -53 23 -33 43 17 17 13 72 -7 90 -45 41 -103
13 -157 -74 -34 -54 -41 -59 -87 -59 -48 0 -68 8 -68 29 0 9 -12 36 -27 58
-40 62 -94 80 -142 47z"/>
<path d="M7215 2326 c-12 -9 -21 -31 -24 -62 l-6 -49 -115 -6 c-63 -3 -122 -7
-130 -10 -10 -3 -16 8 -20 39 -4 24 -13 48 -21 53 -8 5 -78 9 -155 9 -125 0
-145 -2 -165 -19 l-24 -19 -3 -619 c-2 -340 0 -633 3 -651 9 -52 70 -66 110
-26 11 12 15 39 15 106 l0 90 28 -7 c103 -26 165 -5 178 60 11 62 0 463 -14
477 -6 6 -12 18 -12 26 0 8 -7 30 -16 50 -54 126 -54 112 -11 217 59 144 89
166 85 64 -3 -57 13 -79 57 -79 39 0 65 26 65 66 0 17 5 35 12 42 14 14 394
17 415 4 7 -4 16 -27 22 -51 5 -24 15 -48 23 -52 17 -11 59 -11 76 0 20 12 33
80 26 139 -10 81 -30 92 -164 92 -117 0 -120 1 -120 61 0 56 -68 89 -115 55z
m-452 -152 c9 -9 -60 -164 -74 -164 -5 0 -9 38 -9 85 l0 85 38 0 c21 0 41 -3
45 -6z m-32 -470 c27 -66 28 -76 29 -241 l0 -172 -26 -20 c-54 -43 -54 -44
-54 245 0 196 3 265 12 262 6 -2 24 -35 39 -74z"/>
<path d="M1420 2314 c-52 -35 -50 -5 -50 -687 0 -421 4 -645 10 -658 8 -14 21
-19 50 -19 71 0 70 -5 70 421 0 442 -8 412 111 407 l74 -3 -3 -44 c-2 -26 3
-50 11 -60 21 -24 28 -51 14 -52 -80 -4 -97 -13 -97 -52 0 -50 20 -62 114 -64
45 -1 84 -2 88 -2 13 -2 28 -39 22 -55 -5 -13 -27 -16 -129 -16 -136 0 -155
-7 -155 -58 0 -53 9 -57 147 -62 169 -7 169 -8 24 -154 -70 -71 -111 -121
-111 -134 0 -29 53 -65 82 -56 13 4 62 44 109 90 48 46 90 84 94 84 4 0 46
-38 94 -84 47 -46 96 -86 108 -90 36 -11 83 19 83 53 0 23 -21 49 -105 132
-82 81 -105 110 -105 131 l0 27 126 3 c124 3 127 4 146 29 17 23 18 29 6 50
-7 13 -17 27 -23 31 -5 4 -65 8 -132 8 -110 0 -122 2 -128 19 -7 22 3 51 19
52 6 1 37 0 68 -1 75 -2 126 15 134 45 11 43 -21 74 -69 66 -16 -3 -18 30 -3
54 10 15 15 41 14 67 l-3 43 78 0 c58 0 80 -4 87 -15 6 -9 10 -174 10 -397 0
-427 -2 -413 70 -413 29 0 42 5 50 20 11 21 15 1255 4 1297 -4 13 -21 32 -39
43 -29 18 -49 20 -203 20 l-171 0 -36 -31 -35 -31 0 -218 0 -218 33 -26 c17
-15 37 -31 44 -36 17 -14 9 -27 -62 -93 -67 -62 -90 -66 -102 -18 -3 14 -21
40 -40 58 -41 39 -42 57 -4 72 15 7 33 24 40 37 15 34 15 414 0 448 -22 47
-61 56 -241 56 -135 0 -168 -3 -188 -16z m316 -128 c3 -13 4 -35 2 -47 -3 -23
-6 -24 -107 -27 -67 -2 -108 1 -117 9 -17 14 -18 43 -4 70 10 17 22 19 115 19
102 0 105 -1 111 -24z m552 12 c16 -16 15 -63 -2 -77 -9 -8 -50 -11 -117 -9
l-104 3 -3 33 c-6 60 -3 62 111 62 67 0 107 -4 115 -12z m-558 -217 c14 -26
13 -64 -2 -79 -8 -8 -46 -12 -104 -12 -101 0 -124 10 -124 55 0 45 23 55 125
55 83 0 96 -2 105 -19z m554 3 c18 -17 21 -51 6 -74 -7 -12 -32 -15 -117 -15
l-108 0 -3 39 c-6 65 -4 66 107 66 77 0 103 -4 115 -16z"/>
<path d="M3126 2305 c-27 -9 -31 -15 -34 -52 -5 -70 6 -73 255 -73 207 0 213
-1 213 -20 0 -30 -40 -144 -53 -152 -7 -4 -77 -8 -155 -8 l-144 0 -34 -34 -35
-35 3 -460 3 -461 26 -25 25 -26 410 0 c225 0 419 1 432 1 13 0 34 11 47 25
l25 24 0 466 0 467 -29 29 c-29 29 -30 29 -154 29 -142 0 -137 -4 -137 90 0
95 -10 90 170 90 138 0 161 2 181 18 25 21 31 74 10 95 -16 16 -978 27 -1025
12z m314 -440 c12 -14 6 -64 -11 -95 -12 -21 -100 -279 -106 -313 -3 -15 -9
-30 -14 -33 -19 -12 -27 49 -28 226 -1 225 1 230 88 230 39 0 63 -5 71 -15z
m520 -5 c19 -19 19 -34 19 -382 0 -319 -2 -364 -16 -380 -15 -17 -42 -18 -339
-18 -373 0 -344 -9 -344 109 0 81 14 131 32 113 7 -7 29 -12 49 -12 39 0 59
19 73 70 4 14 11 34 16 45 5 11 32 90 61 175 28 85 57 169 65 187 8 17 14 37
14 45 0 21 29 58 46 58 12 0 14 -30 14 -179 0 -204 4 -231 36 -266 22 -23 29
-25 122 -25 85 0 103 3 126 21 56 44 18 99 -69 99 -43 0 -56 4 -65 19 -5 11
-10 84 -10 165 0 173 2 176 91 176 45 0 64 -5 79 -20z"/>
<path d="M5036 1984 c-13 -34 -6 -83 13 -94 12 -6 96 -10 205 -10 112 0 187
-4 191 -10 3 -5 -6 -26 -21 -45 -23 -31 -32 -35 -70 -35 -54 0 -64 -16 -64
-100 0 -105 11 -100 -223 -100 -229 0 -247 -5 -247 -64 0 -63 12 -66 243 -66
194 0 207 -1 217 -19 13 -25 13 -330 0 -351 -6 -10 -32 -17 -82 -20 -72 -5
-72 -5 -80 -38 -7 -25 -5 -40 7 -58 15 -23 20 -24 133 -24 170 0 162 -14 162
266 0 158 3 223 12 232 9 9 71 12 218 12 188 0 208 2 223 18 21 23 22 62 3 88
-13 17 -30 19 -215 22 -136 2 -201 7 -201 14 0 14 37 78 108 187 64 99 78 140
61 173 -7 13 -17 26 -23 30 -6 4 -135 8 -287 8 -243 0 -278 -2 -283 -16z"/>
<path d="M7057 1968 c-26 -21 -31 -61 -10 -87 18 -22 23 -23 212 -22 213 0
231 5 231 62 0 53 -24 59 -230 59 -134 0 -191 -4 -203 -12z"/>
<path d="M6942 1730 c-13 -12 -22 -33 -22 -49 0 -42 35 -61 115 -61 47 0 67
-4 71 -14 5 -12 -7 -46 -46 -141 -5 -11 -25 -60 -46 -110 -20 -49 -43 -106
-51 -125 -8 -19 -19 -44 -25 -54 -6 -11 -14 -31 -18 -45 -5 -14 -18 -51 -29
-81 -12 -30 -18 -62 -15 -72 8 -27 42 -41 80 -33 31 5 38 13 60 63 14 31 29
66 34 77 38 85 50 115 50 124 0 5 6 22 14 38 8 15 22 46 31 68 9 22 20 49 25
60 5 11 20 47 34 80 13 33 28 60 33 60 4 0 10 -116 13 -258 l5 -259 28 -24
c27 -23 35 -24 162 -24 127 0 135 1 149 22 20 29 20 62 0 82 -11 12 -36 16
-98 16 -59 0 -87 4 -95 14 -8 9 -11 90 -9 272 l3 259 86 5 c98 6 119 17 119
65 0 63 -12 65 -343 65 -281 0 -294 -1 -315 -20z"/>
<path d="M2247 674 c-12 -13 -8 -362 4 -370 18 -11 29 17 29 74 0 28 5 52 10
52 13 0 37 -27 74 -79 26 -40 54 -51 63 -25 2 6 -19 41 -47 78 -29 39 -50 77
-50 92 0 15 19 50 45 84 44 57 54 83 37 94 -10 6 -64 -49 -81 -81 -7 -13 -20
-23 -31 -23 -16 0 -19 9 -22 52 -3 48 -15 68 -31 52z"/>
<path d="M3799 667 c-32 -24 -39 -56 -39 -171 0 -132 7 -159 49 -181 43 -21
62 -19 101 13 31 26 34 34 34 83 l1 54 -33 3 c-19 2 -41 1 -50 -3 -13 -5 -11
-10 11 -31 30 -27 32 -36 17 -65 -13 -24 -52 -25 -73 -1 -14 15 -17 40 -17
130 0 108 1 112 25 128 23 15 27 15 49 0 14 -9 26 -27 28 -43 4 -37 35 -43 44
-9 7 28 -25 90 -52 100 -26 10 -78 6 -95 -7z"/>
<path d="M4182 672 c-9 -7 -12 -50 -10 -183 3 -151 5 -174 19 -177 11 -2 21 8
28 30 l12 33 34 -40 c28 -32 36 -37 44 -26 11 18 0 44 -36 83 l-25 26 36 48
c28 37 34 50 24 61 -9 12 -17 8 -44 -18 -19 -18 -37 -30 -40 -26 -4 3 -6 42
-5 85 2 103 -5 123 -37 104z"/>
<path d="M5027 674 c-4 -4 -7 -75 -7 -158 0 -167 5 -183 60 -206 38 -16 81 0
107 39 15 22 18 47 17 174 -1 81 -4 150 -7 154 -4 3 -13 3 -22 0 -12 -5 -15
-29 -15 -144 0 -109 -3 -143 -16 -161 -17 -24 -58 -30 -71 -9 -4 6 -10 79 -13
161 -5 139 -12 171 -33 150z"/>
<path d="M6437 674 c-4 -4 -7 -34 -7 -67 0 -41 -5 -66 -16 -78 -15 -16 -15
-20 0 -41 10 -14 16 -44 16 -83 0 -67 18 -105 51 -105 30 0 37 31 11 48 -19
12 -22 24 -22 74 0 57 1 59 30 70 35 12 35 30 -1 38 -22 5 -24 12 -29 75 -5
63 -16 86 -33 69z"/>
<path d="M3532 598 c2 -12 10 -23 18 -23 22 0 19 39 -3 43 -15 3 -18 -1 -15
-20z"/>
<path d="M4575 610 c-8 -13 14 -52 26 -45 15 10 11 55 -5 55 -8 0 -18 -4 -21
-10z"/>
<path d="M5464 605 c-7 -18 3 -35 21 -35 15 0 28 27 19 41 -8 14 -34 11 -40
-6z"/>
<path d="M6322 598 c2 -12 10 -23 18 -23 22 0 19 39 -3 43 -15 3 -18 -1 -15
-20z"/>
<path d="M2566 518 c-9 -12 -16 -30 -16 -39 0 -9 -7 -22 -15 -29 -17 -14 -22
-5 -27 45 -2 23 -9 31 -27 33 -21 3 -23 1 -16 -25 4 -15 13 -55 20 -88 16 -73
32 -115 43 -115 10 0 25 29 38 75 13 41 27 38 35 -8 3 -21 11 -43 17 -49 16
-16 42 -2 42 22 0 12 7 43 16 69 16 51 16 121 -1 122 -5 0 -11 -8 -13 -18 -8
-50 -14 -63 -27 -63 -8 0 -19 17 -25 40 -13 49 -24 56 -44 28z"/>
<path d="M2760 531 c0 -6 -1 -14 -2 -18 -2 -4 10 -10 26 -13 40 -7 43 -25 6
-40 -64 -27 -78 -84 -31 -131 38 -38 91 -41 110 -5 16 29 11 180 -6 197 -16
16 -103 25 -103 10z m78 -149 c3 -31 2 -33 -25 -30 -17 2 -29 10 -31 21 -6 30
6 49 30 45 18 -2 24 -11 26 -36z"/>
<path d="M2955 515 c-23 -22 -25 -32 -25 -113 0 -93 5 -109 27 -91 8 8 13 36
13 83 1 72 14 106 42 106 29 0 38 -24 38 -99 0 -88 12 -117 35 -87 18 24 20
128 4 175 -19 54 -92 69 -134 26z"/>
<path d="M3160 520 c-11 -11 -20 -29 -20 -40 0 -20 47 -70 66 -70 17 0 47 -37
39 -49 -9 -16 -51 -13 -65 4 -17 21 -40 19 -40 -4 0 -44 66 -74 109 -50 53 30
49 111 -5 125 -33 8 -60 42 -46 56 9 9 18 9 37 0 34 -16 45 -15 45 1 0 44 -84
63 -120 27z"/>
<path d="M3355 515 c-21 -21 -25 -33 -25 -88 0 -98 46 -145 110 -112 21 11 30
23 30 40 0 27 -24 35 -34 10 -3 -8 -16 -15 -30 -15 -25 0 -39 20 -30 45 4 10
20 15 44 15 45 0 52 8 52 58 0 67 -70 95 -117 47z m70 -45 c0 -16 -6 -26 -18
-28 -19 -4 -32 20 -23 44 9 25 41 13 41 -16z"/>
<path d="M4017 533 c-17 -16 -5 -33 23 -33 42 0 38 -21 -10 -48 -37 -21 -40
-26 -40 -67 0 -37 5 -47 29 -64 35 -25 74 -27 95 -5 12 11 16 36 16 97 0 45
-4 87 -8 93 -18 27 -88 45 -105 27z m79 -139 c8 -31 -6 -47 -37 -42 -27 3 -37
32 -19 53 20 24 49 18 56 -11z"/>
<path d="M4372 528 c-15 -15 -16 -137 -2 -174 23 -60 75 -70 121 -24 29 28 30
32 27 112 -2 66 -6 83 -18 83 -12 0 -16 -17 -20 -75 -5 -82 -12 -100 -39 -100
-32 0 -41 22 -41 101 0 79 -7 98 -28 77z"/>
<path d="M4705 528 c-11 -6 -23 -16 -27 -22 -12 -17 -9 -194 3 -201 18 -12 22
2 20 70 -2 100 32 151 73 109 12 -11 16 -35 16 -84 0 -83 7 -105 26 -89 14 12
20 141 8 185 -10 38 -77 56 -119 32z"/>
<path d="M5282 530 c-30 -13 -42 -48 -42 -130 0 -83 7 -105 26 -89 9 8 14 34
14 79 0 79 21 117 57 106 26 -8 33 -33 33 -119 0 -60 2 -68 18 -65 14 3 18 16
20 77 2 43 -2 87 -9 104 -18 42 -66 57 -117 37z"/>
<path d="M5547 525 c-3 -7 0 -31 8 -52 7 -21 23 -66 36 -101 18 -53 25 -63 43
-60 13 2 23 13 27 33 4 17 17 55 28 85 24 62 28 114 9 108 -15 -5 -35 -42 -43
-80 -4 -19 -12 -28 -25 -28 -15 0 -22 11 -31 45 -12 48 -42 77 -52 50z"/>
<path d="M5775 515 c-22 -21 -25 -33 -25 -94 0 -72 8 -88 52 -112 25 -13 74 5
89 33 17 32 -4 43 -41 22 -31 -19 -32 -19 -46 1 -21 29 -12 40 37 43 48 4 59
13 59 55 0 35 -40 77 -75 77 -14 0 -37 -11 -50 -25z m73 -39 c4 -21 -14 -37
-35 -29 -14 5 -18 35 -6 47 12 12 38 1 41 -18z"/>
<path d="M5957 525 c-13 -13 -17 -35 -17 -100 0 -91 5 -115 25 -115 19 0 25
24 25 104 0 40 3 76 6 79 4 3 18 -3 32 -13 32 -26 42 -25 42 4 0 30 -19 45
-62 53 -25 3 -39 0 -51 -12z"/>
<path d="M6140 520 c-11 -11 -20 -28 -20 -37 0 -19 48 -73 65 -73 18 0 48 -37
40 -49 -9 -16 -51 -13 -65 4 -15 18 -36 19 -46 3 -10 -16 51 -68 79 -68 40 0
67 27 67 68 0 45 -6 55 -44 73 -59 28 -62 73 -4 51 44 -16 62 2 29 29 -30 25
-76 24 -101 -1z"/>
<path d="M6696 524 c-9 -8 -16 -24 -16 -34 0 -54 -45 -72 -56 -22 -12 56 -16
62 -35 62 -23 0 -23 8 3 -86 12 -44 22 -108 22 -144 1 -50 4 -65 15 -65 10 0
22 24 34 65 11 36 25 81 32 100 36 102 43 140 26 140 -5 0 -17 -7 -25 -16z"/>
<path d="M3530 421 c0 -60 4 -112 9 -116 21 -12 32 38 29 127 -3 79 -6 93 -20
96 -16 3 -18 -7 -18 -107z"/>
<path d="M4577 523 c-11 -10 -8 -183 4 -204 20 -38 29 -7 29 102 0 84 -3 109
-13 109 -8 0 -17 -3 -20 -7z"/>
<path d="M5467 524 c-4 -4 -7 -49 -7 -99 0 -71 4 -96 15 -105 9 -7 18 -10 21
-7 3 3 6 52 7 109 1 84 -2 103 -14 106 -8 1 -18 0 -22 -4z"/>
<path d="M6320 421 c0 -109 9 -140 29 -102 12 21 15 169 5 195 -3 9 -12 16
-20 16 -11 0 -14 -23 -14 -109z"/>
</g>
</svg>
