<svg
	xmlns="http://www.w3.org/2000/svg"
	viewBox="0 0 300 300">

	<g transform="translate(0,300) scale(0.05,-0.05)" fill="#ffffff" stroke="none">

<path d="M4187 5794 c-69 -81 -190 -238 -523 -684 -140 -187 -351 -467 -470
-623 l-216 -283 -244 -9 c-902 -32 -1481 -864 -1194 -1715 l42 -124 -305 -403
c-457 -604 -672 -887 -803 -1053 -199 -253 -222 -342 -112 -424 60 -46 1379
-83 1405 -40 8 12 -42 101 -110 198 -69 97 -174 247 -235 335 l-110 159 269
257 c148 141 315 297 371 346 l102 89 108 -59 c512 -274 1128 -166 1549 274
l120 126 710 -6 709 -5 6 -214 c10 -374 -95 -670 -314 -890 -203 -205 -147
-195 -1112 -206 l-840 -10 0 -70 c0 -57 8 -71 45 -76 64 -10 59 -80 -8 -105
-120 -46 -207 48 -207 225 0 217 204 296 300 116 21 -40 108 -56 128 -24 12
20 -27 187 -50 212 -29 33 -332 36 -393 5 -385 -200 -153 -798 255 -656 46 16
72 16 99 -1 57 -36 101 -6 101 68 0 36 6 86 12 110 l12 45 1013 5 c1147 7
1080 -3 1259 177 467 467 299 1584 -384 2559 -570 813 -744 1272 -770 2032
-15 427 -69 512 -215 342z m-5 -994 c54 -449 212 -918 402 -1192 291 -419 376
-558 453 -743 100 -241 166 -444 151 -468 -12 -20 -1198 -14 -1218 7 -8 7 2
65 22 130 54 178 50 572 -7 757 -103 330 -444 718 -700 798 -78 24 -66 41 685
1031 l160 210 14 -170 c8 -93 25 -255 38 -360z m-1079 -760 c791 -247 1092
-1220 578 -1867 -777 -977 -2307 -257 -2079 978 123 667 844 1095 1501 889z
m-1417 -1850 c27 -39 82 -107 123 -152 41 -44 72 -84 68 -87 -39 -36 -483
-292 -491 -283 -7 6 30 108 80 227 51 118 107 249 124 290 37 92 37 92 96 5z"/>
<path d="M2530 3891 c-773 -193 -1034 -1131 -472 -1693 806 -806 2076 121
1588 1158 -192 409 -681 643 -1116 535z m320 -771 c0 -368 -4 -769 -10 -890
l-10 -220 -85 -6 -85 -6 0 902 0 902 95 -6 95 -6 0 -670z m-270 -210 l0 -870
-49 0 c-27 0 -72 10 -100 23 l-50 23 9 472 c5 260 9 630 9 824 1 386 3 393
136 397 l45 1 0 -870z m474 846 l66 -24 0 -823 0 -822 -45 -24 c-25 -12 -67
-25 -95 -28 l-50 -5 -5 850 c-6 998 -17 928 129 876z m-754 -847 c0 -416 -5
-760 -10 -765 -4 -5 -45 20 -89 55 l-81 64 0 636 0 636 82 74 c45 41 86 70 91
65 5 -5 8 -349 7 -765z m1015 697 l65 -48 0 -645 c0 -697 4 -670 -114 -750
-95 -66 -89 -193 -67 1423 1 105 1 105 116 20z m256 -331 c108 -236 92 -586
-37 -820 -69 -125 -74 -94 -74 457 0 590 3 601 111 363z m-1532 -380 c0 -564
-4 -580 -94 -375 -117 267 -114 507 9 785 80 179 86 150 85 -410z"/>
<path d="M2080 1095 c-183 -122 -38 -395 208 -395 68 0 125 -77 82 -111 -59
-47 -147 -21 -240 71 -135 132 -175 111 -145 -75 l21 -125 82 1 c45 1 120 -5
166 -12 365 -57 428 323 71 430 -150 44 -193 75 -166 120 30 48 163 12 225
-61 58 -69 174 -73 148 -5 -7 17 -18 66 -25 109 -6 43 -22 78 -35 79 -12 1
-90 6 -172 11 -134 9 -158 5 -220 -37z"/>
</g>
</svg>
