<?xml version="1.0" standalone="no"?>
<!DOCTYPE svg PUBLIC "-//W3C//DTD SVG 20010904//EN"
 "http://www.w3.org/TR/2001/REC-SVG-20010904/DTD/svg10.dtd">
<svg version="1.0" xmlns="http://www.w3.org/2000/svg"
 width="300.000000pt" height="90.000000pt" viewBox="0 0 300.000000 90.000000"
 preserveAspectRatio="xMidYMid meet">
<metadata>
Created by potrace 1.10, written by Peter Selinger 2001-2011
</metadata>
<g transform="translate(0.000000,90.000000) scale(0.050000,-0.050000)"
fill="White" stroke="none">
<path d="M867 1620 c-384 -81 -658 -490 -591 -881 129 -753 1147 -895 1473
-206 275 581 -246 1223 -882 1087z m481 -87 c413 -189 565 -684 325 -1059
-402 -629 -1357 -351 -1362 396 -3 526 556 884 1037 663z"/>
<path d="M855 1546 c-32 -8 -32 -13 -5 -52 52 -74 35 -110 -21 -44 l-52 60 10
-85 c5 -47 6 -85 2 -85 -19 0 -63 113 -54 137 8 21 1 22 -32 5 -62 -33 -70
-59 -35 -112 31 -47 31 -48 -13 -31 -25 9 -43 27 -40 39 3 12 -5 22 -16 22
-39 0 -10 -69 36 -90 48 -21 57 -40 26 -59 -10 -6 -43 11 -73 39 -43 40 -60
45 -82 27 -24 -20 -18 -32 33 -72 66 -52 78 -85 31 -85 -16 0 -30 13 -30 29 0
18 -12 25 -30 18 -20 -7 -30 1 -31 26 0 36 -1 35 -29 -1 -22 -29 -24 -46 -7
-65 28 -34 65 -35 44 -2 -9 14 10 9 40 -11 60 -40 125 -15 105 39 -6 15 1 27
16 27 61 0 110 68 78 111 -50 67 -69 109 -49 109 11 0 38 -32 61 -71 43 -73
82 -77 82 -8 0 34 5 36 39 15 53 -33 62 -18 42 70 -9 41 -10 74 -1 74 8 0 21
-31 28 -68 13 -66 57 -104 94 -81 27 17 22 75 -12 123 -23 33 -24 45 -5 53 15
6 11 10 -10 11 -45 2 -45 -53 -2 -102 18 -20 28 -42 22 -48 -24 -23 -54 14
-66 83 -13 68 -23 74 -94 55z"/>
<path d="M1080 1532 c0 -16 -11 -34 -25 -40 -20 -10 -20 -14 0 -24 14 -6 25
-30 25 -53 0 -23 6 -36 13 -29 7 8 26 3 42 -10 23 -20 34 -18 54 10 33 44 51
43 51 -3 0 -58 22 -65 64 -17 l39 44 -12 -54 c-14 -65 47 -118 115 -100 39 10
41 7 17 -22 -43 -53 43 -162 114 -144 47 11 49 10 18 -14 -56 -42 -39 -224 21
-232 24 -4 44 -15 44 -26 0 -10 -25 -14 -55 -7 l-55 11 50 -30 50 -31 -50 -1
c-40 0 -44 -5 -20 -20 26 -17 25 -19 -5 -20 -37 0 -68 -83 -45 -119 7 -12 6
-21 -4 -19 -37 6 -66 -3 -66 -22 0 -11 -18 -38 -40 -60 -22 -22 -49 -40 -60
-40 -11 0 -20 -9 -20 -20 0 -11 -13 -20 -30 -20 -16 0 -40 -17 -53 -37 -14
-23 -38 -34 -60 -28 -20 5 -37 0 -37 -11 0 -11 -19 -15 -42 -9 -25 6 -49 -1
-60 -17 -12 -20 -17 -21 -18 -3 0 14 -9 25 -20 25 -12 0 -12 -18 1 -52 11 -29
12 -64 2 -82 -12 -22 -21 -7 -31 57 -11 67 -19 80 -33 54 -32 -57 16 -157 73
-152 41 3 48 12 39 54 -6 28 -3 63 6 77 26 40 70 -25 56 -81 -9 -37 -3 -46 28
-46 43 0 51 31 17 65 -12 12 -16 41 -8 65 19 62 70 15 70 -66 1 -44 6 -55 18
-35 10 15 28 21 40 13 34 -21 26 21 -9 50 -33 28 -32 102 2 113 11 4 40 -27
64 -69 49 -83 62 -56 16 33 -30 57 -24 82 19 82 43 0 83 -100 49 -121 -24 -16
-24 -18 4 -19 51 0 57 49 15 118 -45 75 -46 82 -11 82 45 0 95 -70 81 -112
-13 -35 -11 -35 20 -7 39 37 25 90 -30 120 -44 24 -51 79 -10 79 51 0 126 -77
95 -97 -19 -13 -21 -22 -5 -32 27 -16 51 37 35 79 -7 18 0 30 17 30 67 0 69
69 4 106 l-64 36 65 -8 c75 -8 85 10 20 42 -44 21 -44 21 10 23 54 1 81 41 27
41 -28 0 -57 69 -36 89 19 19 67 12 54 -9 -7 -11 -3 -20 9 -20 11 0 21 14 21
30 0 36 -81 41 -116 6 -13 -13 -30 -17 -37 -9 -22 21 17 50 77 58 30 4 62 14
70 24 9 9 -15 11 -52 4 -68 -13 -68 -13 -32 27 25 28 42 34 51 18 9 -15 18
-16 27 -2 7 12 3 27 -8 34 -25 15 -100 -6 -100 -29 0 -9 -13 -22 -30 -28 -61
-24 -28 48 35 75 36 16 53 29 39 30 -19 2 -20 12 -4 42 26 48 24 48 -66 10
-42 -17 -77 -22 -83 -11 -15 23 23 47 49 31 11 -7 20 2 20 20 0 24 11 29 40
20 30 -10 37 -5 28 19 -15 39 -11 39 -102 -12 l-76 -43 70 62 c39 34 59 63 46
63 -13 1 -29 -8 -36 -19 -7 -11 -31 -30 -54 -42 -45 -24 -38 -1 20 67 43 50
15 67 -45 27 -51 -33 -51 -33 -51 30 0 47 7 59 30 51 32 -12 42 17 13 35 -20
12 -86 -54 -81 -80 8 -49 -3 -75 -24 -54 -15 15 -12 39 10 83 37 71 42 112 7
53 -22 -38 -24 -37 -35 20 l-12 60 -44 -80 -44 -80 11 100 c11 108 16 110 -78
-20 -35 -47 -53 -35 -62 43 -3 31 -7 64 -9 72 -4 27 -42 15 -42 -13z m546
-906 c48 -25 55 -36 30 -41 -40 -9 -116 28 -116 56 0 26 12 24 86 -15z"/>
<path d="M920 1322 c-361 -118 -471 -532 -211 -793 319 -318 837 -77 808 377
-18 281 -335 502 -597 416z m249 -44 c181 -45 311 -219 311 -415 0 -453 -615
-602 -821 -200 -176 343 129 711 510 615z"/>
<path d="M1031 1182 c-7 -12 -44 -22 -82 -22 l-69 0 0 -100 c0 -70 -8 -100
-27 -100 -40 0 -99 -74 -86 -109 13 -34 -18 -62 -37 -31 -7 11 -22 20 -33 20
-11 0 -2 -30 21 -67 30 -48 35 -72 19 -88 -16 -16 2 -19 64 -10 62 8 91 3 107
-18 30 -40 254 -40 284 0 16 21 45 26 106 18 70 -10 80 -7 61 16 -17 21 -15
38 9 73 37 53 43 95 8 60 -34 -34 -62 -30 -48 7 16 43 -19 103 -68 119 -33 10
-40 30 -40 111 0 99 0 99 -66 99 -36 0 -76 10 -88 22 -15 15 -25 15 -35 0z
m-41 -97 c8 -19 18 -57 21 -85 4 -27 16 -52 28 -56 11 -4 21 -17 21 -30 0 -16
-6 -16 -22 0 -13 13 -35 18 -50 12 -18 -7 -28 4 -28 32 0 23 -11 42 -25 42
-17 1 -15 7 5 22 23 16 24 24 5 31 -34 14 -32 67 3 67 15 0 34 -16 42 -35z
m190 7 c0 -16 -11 -33 -25 -39 -19 -7 -18 -15 5 -31 20 -15 22 -21 5 -22 -14
0 -25 -18 -25 -40 0 -22 -13 -40 -30 -40 -32 0 -32 89 0 165 17 42 70 47 70 7z
m-292 -207 c-18 -73 -21 -75 -60 -36 -31 31 -31 34 9 45 24 6 43 19 43 28 0
10 5 18 10 18 6 0 5 -25 -2 -55z m380 8 c37 -14 37 -15 0 -42 -21 -15 -39 -26
-40 -24 -12 18 -25 118 -14 102 9 -12 33 -28 54 -36z m-299 -46 c7 -19 2 -40
-12 -49 -15 -9 -7 -17 23 -21 29 -4 49 -23 53 -50 7 -48 -163 -15 -196 38 -26
41 5 47 35 6 15 -21 29 -32 31 -25 1 8 4 23 7 34 3 11 6 38 8 60 3 49 33 53
51 7z m211 -37 c0 -72 27 -94 47 -40 7 17 21 30 32 30 41 0 -4 -58 -61 -78
-32 -11 -58 -16 -58 -10 0 5 -19 -1 -42 -13 -37 -20 -40 -17 -35 24 4 26 21
48 37 50 64 5 69 8 44 24 -14 9 -20 31 -13 50 22 57 49 36 49 -37z"/>
<path d="M388 1122 c-22 -23 -3 -37 37 -30 25 5 32 3 17 -4 -20 -10 -12 -21
30 -41 58 -26 30 -25 -75 5 -28 8 -37 5 -28 -10 7 -12 29 -22 47 -23 20 0 10
-12 -26 -28 -48 -22 -52 -28 -20 -31 40 -3 40 -3 0 -19 -44 -18 -4 -48 53 -40
49 7 77 -1 77 -21 0 -11 -38 -21 -85 -22 -47 -2 -67 -7 -45 -13 22 -5 47 -20
55 -32 10 -17 14 -16 15 2 0 14 17 25 39 25 77 0 63 119 -15 121 -19 0 -5 13
31 29 72 31 84 62 30 76 -24 7 -19 10 15 12 47 3 48 4 11 26 -39 22 -146 34
-163 18z"/>
<path d="M410 771 c-54 -25 -55 -28 -15 -29 25 -1 45 -10 45 -19 0 -9 -20 -27
-45 -39 -42 -20 -43 -21 -4 -23 67 -2 146 62 97 80 -35 14 -34 16 12 36 42 17
44 21 10 21 -22 0 -67 -12 -100 -27z"/>
<path d="M442 648 c-75 -53 -52 -65 38 -18 36 19 62 22 70 10 7 -11 -20 -35
-59 -54 -39 -18 -71 -41 -71 -49 0 -17 91 17 135 49 17 13 25 9 25 -12 0 -18
-27 -48 -60 -67 -33 -20 -60 -43 -60 -52 0 -19 20 -9 102 48 79 54 88 19 14
-57 -76 -79 -53 -89 28 -12 56 53 74 106 36 106 -11 0 -20 14 -20 30 0 17 -7
30 -15 30 -9 0 -24 20 -35 44 -27 59 -49 60 -128 4z"/>
<path d="M610 420 c-31 -33 -51 -65 -45 -72 7 -7 36 13 64 45 28 31 46 42 40
24 -7 -18 -2 -39 10 -46 11 -7 21 1 21 18 0 17 9 31 20 31 33 0 23 -51 -17
-87 -23 -21 -51 -29 -73 -20 -25 9 -32 7 -22 -10 21 -33 73 -28 118 12 39 34
39 34 15 -12 -13 -25 -20 -51 -14 -56 5 -6 24 15 41 46 l30 57 1 -55 c1 -30
-8 -55 -19 -55 -11 0 -20 -9 -20 -20 0 -29 59 -25 63 5 2 14 5 48 5 75 1 31
12 48 29 44 15 -3 23 5 19 19 -11 32 -81 40 -102 11 -12 -16 -14 -12 -7 10 7
22 -5 46 -32 65 -58 41 -58 41 -125 -29z"/>
<path d="M891 315 c-27 -87 -24 -137 8 -130 22 4 31 31 32 90 2 92 -18 112
-40 40z"/>
<path d="M4180 1378 l0 -123 -185 8 -185 7 -6 -55 -7 -55 182 0 c203 0 202 1
131 -139 -57 -113 -165 -226 -251 -261 -69 -29 -72 -40 -22 -101 l37 -45 91
63 c109 75 207 188 239 278 32 86 36 84 104 -46 53 -101 168 -223 256 -271 74
-40 115 79 45 128 -130 91 -309 314 -309 383 0 6 77 11 170 11 l170 0 0 59 0
59 -175 -4 -175 -4 7 115 6 115 -61 0 -62 0 0 -122z"/>
<path d="M4895 1468 c-54 -29 -54 -31 -25 -89 l31 -59 -75 0 -76 0 -1 -120 c0
-116 1 -120 51 -120 48 0 51 6 44 71 l-8 70 327 -5 327 -6 -3 -65 c-3 -59 2
-65 55 -65 58 0 58 1 58 120 l0 120 -80 0 c-89 0 -95 10 -48 77 18 25 29 48
25 50 -84 56 -111 49 -154 -39 -37 -77 -51 -88 -107 -88 -56 0 -60 3 -29 25
39 29 11 155 -35 155 -58 0 -98 -52 -75 -95 38 -71 27 -85 -62 -83 -47 0 -74
6 -60 11 31 13 31 64 -1 120 -22 41 -28 42 -79 15z"/>
<path d="M1965 1025 c5 -400 6 -415 45 -415 38 0 40 15 46 255 l5 255 140 0
139 0 0 160 0 160 -190 0 -191 0 6 -415z m290 310 c-5 -15 -43 -25 -95 -25
-52 0 -90 10 -95 25 -6 18 21 25 95 25 74 0 101 -7 95 -25z m0 -110 c6 -18
-21 -25 -93 -25 -79 0 -102 7 -102 31 0 39 182 33 195 -6z"/>
<path d="M2400 1280 l0 -160 140 0 140 0 0 -200 c0 -226 -3 -229 -138 -156
-105 56 -104 76 5 76 63 0 86 8 86 30 0 23 -25 30 -106 30 -82 0 -107 7 -107
30 0 23 24 30 100 30 87 0 100 5 100 40 0 26 -13 40 -38 40 -21 0 -43 14 -49
30 -7 17 -24 30 -40 30 -15 0 -39 -13 -53 -30 -14 -16 -45 -30 -70 -30 -25 0
-51 14 -57 30 -15 38 -93 39 -93 1 0 -16 -24 -31 -55 -35 -103 -12 -66 -65 50
-72 78 -5 105 -14 105 -37 0 -24 -22 -29 -105 -24 -86 4 -106 -1 -111 -29 -6
-28 9 -34 86 -34 129 0 98 -63 -53 -108 -23 -6 -30 -23 -23 -53 16 -60 114
-38 200 45 l64 62 65 -63 c36 -35 85 -63 111 -63 25 0 46 -9 46 -20 0 -34 154
-24 168 12 7 17 12 202 12 410 l0 378 -190 0 -190 0 0 -160z m275 55 c-13 -39
-175 -45 -175 -6 0 24 22 31 92 31 64 0 89 -7 83 -25z m5 -105 c0 -22 -23 -30
-90 -30 -67 0 -90 8 -90 30 0 22 23 30 90 30 67 0 90 -8 90 -30z"/>
<path d="M2860 1390 c0 -49 4 -50 141 -50 l142 0 -7 -54 c-6 -52 -9 -54 -121
-49 l-115 6 0 -292 c0 -160 -2 -298 -5 -306 -3 -8 20 -18 50 -21 30 -4 55 3
55 15 0 14 101 21 300 21 187 0 300 -8 300 -20 0 -11 23 -20 50 -20 l50 0 0
311 0 312 -125 -5 c-122 -5 -125 -4 -131 48 l-7 54 152 0 c148 0 151 1 151 50
l0 50 -440 0 -440 0 0 -50z m476 -105 c-9 -85 -96 -91 -96 -6 0 52 7 61 51 61
45 0 51 -8 45 -55z m-212 -215 c-4 -33 -24 -84 -45 -114 -47 -66 -48 -83 -9
-116 58 -48 131 56 159 225 25 149 111 106 111 -55 l0 -130 130 0 130 0 0 -60
0 -60 -299 0 -298 0 -7 65 c-3 36 -3 122 1 191 l7 126 63 -6 c57 -5 62 -12 57
-66z m472 -15 c-6 -83 -8 -85 -76 -85 -68 0 -70 2 -76 85 l-6 85 82 0 82 0 -6
-85z"/>
<path d="M4900 1120 c0 -37 13 -40 160 -40 153 0 217 -29 120 -54 -22 -6 -40
-23 -40 -38 0 -22 -43 -28 -200 -28 -200 0 -200 0 -200 -50 l0 -50 201 0 202
0 -7 -65 c-6 -63 -9 -65 -93 -61 -70 3 -84 -2 -75 -27 7 -17 12 -43 12 -59 0
-33 129 -39 209 -8 45 17 51 30 51 120 l0 100 188 0 c185 0 187 0 187 49 0 49
-3 50 -192 55 l-193 6 90 50 c185 104 144 140 -159 140 -248 0 -261 -2 -261
-40z"/>
<path d="M1999 491 c-11 -92 1 -241 19 -247 13 -4 22 19 22 59 l1 67 41 -65
c42 -65 78 -85 78 -43 0 12 -18 45 -40 73 l-41 51 44 47 c24 26 37 54 29 62
-9 8 -37 -10 -64 -41 -43 -50 -48 -52 -48 -16 0 34 -38 83 -41 53z"/>
<path d="M3214 485 c-23 -42 -15 -249 10 -240 17 5 26 47 26 124 0 106 -15
154 -36 116z"/>
<path d="M3500 396 c0 -117 23 -156 94 -156 62 0 110 80 102 169 -9 103 -44
89 -56 -23 -18 -169 -104 -130 -93 42 1 32 -8 62 -22 67 -18 6 -25 -22 -25
-99z"/>
<path d="M4062 369 c-2 -99 4 -130 23 -124 32 11 35 238 3 249 -15 5 -24 -37
-26 -125z"/>
<path d="M5254 453 c-18 -48 10 -196 40 -207 39 -15 58 10 30 38 -31 31 -31
90 1 102 19 7 19 18 4 45 -29 48 -61 58 -75 22z"/>
<path d="M2273 427 c-24 -24 -14 -52 15 -41 48 19 54 -11 7 -35 -75 -37 -59
-101 25 -101 70 0 70 1 63 80 -8 93 -64 142 -110 97z"/>
<path d="M2500 337 c0 -114 35 -131 44 -22 8 93 44 90 52 -5 8 -93 64 -98 64
-5 -1 89 -25 121 -98 125 -61 4 -62 2 -62 -93z"/>
<path d="M2774 427 c-25 -25 -15 -88 16 -100 43 -16 37 -40 -15 -57 l-45 -15
48 -9 c79 -16 124 47 67 93 -44 37 -60 66 -30 56 8 -3 18 4 21 15 7 24 -42 37
-62 17z"/>
<path d="M2985 427 c-14 -6 -20 -18 -14 -28 5 -9 23 -12 40 -6 16 6 29 2 29
-9 0 -10 -19 -24 -42 -30 -71 -19 -43 -103 37 -110 63 -6 65 -4 65 71 0 104
-40 142 -115 112z"/>
<path d="M3835 426 c-27 -7 -35 -30 -35 -97 0 -108 35 -119 44 -14 8 103 64
103 72 0 8 -98 44 -97 44 1 0 107 -32 135 -125 110z"/>
<path d="M4200 420 c0 -39 65 -180 83 -180 26 0 81 137 71 177 -5 23 -17 12
-39 -37 -33 -73 -34 -72 -66 35 -9 29 -49 34 -49 5z"/>
<path d="M4471 396 c-39 -57 -39 -85 0 -125 35 -34 129 -43 129 -11 0 11 -22
20 -50 20 -68 0 -64 36 5 44 43 5 53 15 48 46 -14 78 -85 92 -132 26z"/>
<path d="M4709 422 c-18 -18 -8 -182 11 -182 11 0 20 26 20 58 0 31 14 68 30
82 17 14 30 32 30 41 0 17 -75 18 -91 1z"/>
<path d="M4905 417 c-34 -34 -31 -70 5 -84 17 -7 30 -21 30 -32 0 -12 -13 -21
-30 -21 -16 0 -30 -9 -30 -20 0 -11 23 -20 51 -20 70 0 87 57 30 103 -25 20
-40 38 -33 40 7 1 21 3 32 5 30 3 26 41 -4 48 -15 3 -38 -6 -51 -19z"/>
<path d="M5420 422 c0 -9 14 -51 32 -93 29 -71 29 -79 -2 -102 -19 -13 -28
-34 -20 -47 28 -45 150 143 150 233 0 52 -39 27 -57 -38 l-18 -65 -25 65 c-22
59 -60 89 -60 47z"/>
<path d="M5100 330 c0 -49 9 -90 20 -90 11 0 20 41 20 90 0 50 -9 90 -20 90
-11 0 -20 -40 -20 -90z"/>
</g>
</svg>
