<?xml version="1.0" standalone="no"?>
<!DOCTYPE svg PUBLIC "-//W3C//DTD SVG 20010904//EN"
 "http://www.w3.org/TR/2001/REC-SVG-20010904/DTD/svg10.dtd">
<svg version="1.0" xmlns="http://www.w3.org/2000/svg"
 width="900.000000pt" height="270.000000pt" viewBox="0 0 900.000000 270.000000"
 preserveAspectRatio="xMidYMid meet">
<metadata>
Created by potrace 1.10, written by Peter Selinger 2001-2011
</metadata>
<g transform="translate(0.000000,270.000000) scale(0.100000,-0.100000)"
fill="White" stroke="none">
<path d="M1140 2363 c-26 -9 -40 -36 -40 -78 0 -23 -5 -46 -12 -53 -7 -7 -38
-12 -70 -12 -65 0 -98 -21 -98 -63 0 -40 35 -61 109 -67 l66 -5 0 -70 0 -70
-83 -6 c-69 -5 -86 -10 -102 -29 -52 -60 0 -110 115 -110 47 0 67 -4 71 -14 3
-8 -15 -44 -40 -81 -25 -36 -46 -68 -46 -69 0 -8 -127 -192 -135 -196 -6 -3
-12 101 -15 285 l-6 290 -31 59 c-34 64 -34 70 9 133 36 54 38 104 3 127 -35
23 -60 20 -98 -14 -19 -16 -37 -30 -40 -30 -3 0 -19 14 -37 30 -41 39 -81 40
-110 3 -26 -33 -22 -53 25 -123 19 -29 35 -56 35 -62 0 -5 -18 -36 -40 -68
-46 -68 -55 -133 -22 -163 35 -32 69 -22 109 34 l37 52 18 -23 c37 -46 23 -94
-62 -222 -33 -49 -60 -91 -60 -94 0 -2 -13 -23 -30 -46 -36 -49 -38 -87 -7
-116 33 -31 81 -29 104 4 27 39 52 64 63 64 15 0 13 -423 -2 -438 -7 -7 -34
-12 -60 -12 -79 0 -115 -58 -67 -109 20 -21 28 -23 121 -19 95 3 101 4 124 31
23 27 24 33 24 198 0 165 6 194 30 149 7 -14 21 -20 43 -20 39 0 53 11 91 67
16 24 32 40 37 37 5 -3 9 -93 9 -201 l0 -195 34 -34 34 -34 172 0 172 0 29 29
29 29 0 309 c-1 385 13 356 -162 363 l-123 5 -3 27 c-6 47 26 58 166 58 117 0
124 1 147 25 28 27 30 42 14 79 -9 19 -22 27 -56 32 -24 3 -59 4 -78 1 -19 -3
-40 0 -49 6 -18 13 -21 7 121 224 29 44 53 90 53 100 0 34 -29 63 -64 63 -38
0 -53 -11 -90 -67 -29 -43 -29 -43 -90 -43 -72 0 -86 10 -86 61 0 60 -49 100
-100 82z m140 -312 c-6 -12 -17 -20 -23 -18 -17 5 -21 36 -6 53 11 13 14 13
27 1 11 -12 12 -19 2 -36z m128 -530 c2 -30 -1 -58 -6 -63 -5 -5 -44 -11 -87
-14 -99 -6 -125 8 -125 65 0 72 1 72 114 69 l101 -3 3 -54z m-10 -213 c7 -7
12 -44 12 -98 0 -54 -5 -91 -12 -98 -19 -19 -173 -16 -192 4 -20 19 -23 173
-4 192 7 7 44 12 98 12 54 0 91 -5 98 -12z"/>
<path d="M2563 2355 c-21 -15 -23 -24 -23 -120 0 -125 0 -125 -118 -125 -69 0
-81 -3 -100 -23 -28 -29 -28 -57 -1 -88 18 -21 31 -25 117 -29 l97 -5 3 -164
c2 -112 -1 -168 -9 -177 -8 -10 -39 -14 -114 -14 -115 0 -135 -10 -135 -68 0
-48 29 -62 130 -62 113 0 130 -11 130 -86 0 -66 -13 -94 -88 -182 -118 -138
-130 -162 -96 -210 11 -16 25 -22 54 -22 33 0 43 6 72 43 18 23 38 47 44 52
23 20 116 150 126 174 5 14 12 66 15 114 4 56 11 94 20 103 21 21 186 20 207
-2 14 -13 16 -49 16 -233 0 -198 2 -219 18 -234 23 -21 71 -22 98 -3 18 13 19
31 24 248 l5 233 116 5 c77 3 122 10 133 19 22 19 20 67 -4 91 -18 18 -33 20
-135 20 l-115 0 0 180 0 180 98 0 c90 0 100 2 120 23 27 28 29 78 4 100 -13
12 -43 17 -117 19 l-100 3 -5 113 c-5 118 -8 125 -57 138 -12 3 -34 0 -50 -8
-28 -13 -28 -14 -31 -118 -1 -57 -8 -110 -14 -117 -14 -18 -201 -18 -216 0 -5
6 -12 58 -14 114 -1 56 -8 107 -13 112 -20 20 -69 23 -92 6z m345 -535 c2 -80
0 -160 -3 -177 l-6 -33 -104 0 c-93 0 -105 2 -115 19 -11 22 -14 323 -3 335 4
3 57 5 117 4 l111 -3 3 -145z"/>
<path d="M4845 2337 c-13 -21 -13 -28 1 -70 9 -26 20 -49 25 -53 5 -3 9 -18 9
-35 0 -16 5 -29 10 -29 6 0 15 -11 21 -24 13 -28 44 -39 71 -25 23 12 25 90 3
109 -8 7 -15 20 -15 30 0 10 -7 23 -15 30 -8 7 -15 20 -15 29 0 22 -41 61 -63
61 -9 0 -23 -10 -32 -23z"/>
<path d="M4992 2352 c-21 -14 -27 -76 -8 -91 9 -7 16 -24 16 -37 0 -13 4 -24
10 -24 5 0 13 -12 16 -27 13 -54 61 -91 94 -73 32 17 23 70 -31 180 -36 75
-62 94 -97 72z"/>
<path d="M4493 2330 c-30 -18 -32 -23 -35 -82 l-3 -63 -155 -5 c-152 -5 -155
-5 -167 -30 -16 -31 -9 -70 19 -92 17 -15 41 -18 148 -18 71 0 135 -3 144 -6
13 -5 16 -26 16 -128 0 -82 -4 -126 -12 -134 -8 -8 -58 -12 -160 -12 -135 0
-150 -2 -168 -20 -26 -26 -26 -71 1 -101 20 -23 26 -24 180 -27 l159 -3 0
-235 c0 -252 5 -279 54 -314 52 -37 170 -52 235 -29 33 12 61 53 61 90 0 11
-16 37 -35 56 -37 37 -36 37 -132 17 l-33 -6 0 211 0 211 145 0 c142 0 147 1
170 25 30 29 33 74 8 104 -17 19 -29 21 -168 23 l-150 3 -3 129 c-2 97 1 131
10 138 7 4 59 8 115 8 98 0 102 1 122 26 12 15 21 39 21 53 0 43 -32 55 -155
61 l-110 5 -3 35 c-6 83 -12 98 -46 114 -41 20 -35 20 -73 -4z"/>
<path d="M6147 2324 c-14 -14 -29 -40 -33 -57 -3 -18 -9 -36 -13 -42 -4 -5
-17 -37 -30 -70 -12 -33 -29 -72 -37 -87 -8 -14 -14 -33 -14 -42 0 -9 -4 -24
-10 -34 -5 -9 -26 -57 -45 -107 -68 -168 -59 -155 -109 -155 -54 0 -76 -19
-76 -64 0 -74 95 -100 190 -53 37 18 50 33 77 87 34 69 49 103 79 185 10 28
24 61 31 75 7 14 13 30 13 37 0 31 44 43 151 43 132 0 138 -5 109 -81 -11 -30
-25 -63 -30 -74 -11 -25 -46 -114 -54 -137 -7 -23 -52 -23 -96 -1 -39 19 -115
22 -133 4 -7 -7 -12 -32 -12 -56 0 -52 14 -66 92 -91 29 -9 57 -22 63 -29 10
-12 -6 -65 -45 -152 -8 -17 -15 -36 -15 -41 0 -6 -13 -40 -30 -77 -16 -37 -30
-72 -30 -79 0 -7 -9 -21 -20 -31 -16 -14 -24 -15 -51 -6 -47 16 -73 14 -103
-10 -32 -25 -35 -81 -6 -119 17 -23 25 -25 100 -25 102 1 150 24 198 97 17 28
32 56 32 63 0 6 6 25 14 41 8 16 35 83 61 149 26 66 51 124 55 128 4 5 28 2
54 -7 68 -23 116 2 116 60 0 34 -31 74 -56 74 -7 0 -20 7 -29 17 -18 18 -15
59 9 109 8 16 35 83 61 149 26 66 53 134 60 150 39 92 43 132 15 163 -32 34
-76 29 -114 -13 l-32 -35 -123 0 -123 0 7 64 c6 57 4 67 -14 85 -29 29 -73 27
-104 -5z"/>
<path d="M7530 1697 c-30 -15 -39 -71 -16 -102 14 -19 28 -20 460 -23 l446 -3
25 25 c32 32 32 60 0 91 l-24 25 -433 0 c-328 0 -439 -3 -458 -13z"/>
<path d="M5025 713 c-39 -10 -55 -34 -55 -82 1 -51 11 -66 83 -125 33 -27 47
-46 47 -63 0 -63 -52 -84 -92 -38 -27 31 -48 32 -48 2 0 -32 19 -53 61 -66 69
-22 129 21 129 94 0 45 -18 72 -74 114 -56 42 -76 85 -53 109 15 14 21 14 53
3 24 -9 39 -10 46 -3 14 14 -8 52 -32 52 -10 0 -24 2 -32 4 -7 2 -22 1 -33 -1z"/>
<path d="M5997 713 c-9 -8 -9 -358 0 -366 3 -4 12 -2 20 4 10 9 13 50 13 174
0 182 -6 216 -33 188z"/>
<path d="M3017 703 c-4 -3 -7 -82 -7 -173 0 -128 3 -170 13 -179 8 -6 17 -8
20 -4 4 3 7 87 7 185 0 142 -3 178 -13 178 -8 0 -17 -3 -20 -7z"/>
<path d="M3784 689 c-16 -18 -20 -40 -22 -137 -5 -151 5 -187 57 -203 25 -8
48 -8 66 -2 55 18 88 130 46 153 -49 26 -95 -6 -52 -36 26 -19 27 -38 1 -64
-25 -25 -34 -25 -60 2 -17 19 -20 35 -20 128 0 100 2 108 24 129 20 19 28 21
45 11 12 -6 24 -25 28 -41 6 -33 28 -48 45 -31 14 14 1 65 -23 91 -28 30 -108
30 -135 0z"/>
<path d="M4317 704 c-4 -4 -7 -35 -7 -69 0 -44 -5 -66 -15 -75 -14 -11 -14
-15 -1 -29 10 -11 16 -43 18 -96 l3 -79 33 -10 c46 -13 67 7 34 32 -21 16 -23
25 -20 82 3 58 5 65 26 70 30 6 30 19 0 34 -20 10 -24 21 -28 76 -4 48 -9 66
-20 68 -9 1 -19 0 -23 -4z"/>
<path d="M5387 704 c-4 -4 -7 -83 -7 -174 0 -128 3 -170 13 -179 22 -18 27 -2
27 91 l0 88 29 0 c35 0 41 -16 41 -113 0 -65 1 -68 23 -65 25 3 29 31 20 125
-6 64 -17 80 -68 97 -39 14 -40 15 -45 72 -5 53 -17 74 -33 58z"/>
<path d="M3522 633 c2 -10 10 -18 18 -18 8 0 16 8 18 18 2 12 -3 17 -18 17
-15 0 -20 -5 -18 -17z"/>
<path d="M4190 636 c0 -8 5 -18 10 -21 13 -8 42 14 34 26 -9 15 -44 10 -44 -5z"/>
<path d="M3138 566 c-26 -20 -38 -61 -38 -135 0 -45 5 -72 13 -80 22 -18 27
-3 27 79 0 81 9 100 46 100 32 0 38 -15 44 -105 3 -46 9 -79 15 -78 6 2 11 45
13 97 3 91 2 95 -24 115 -30 24 -71 27 -96 7z"/>
<path d="M3348 565 c-32 -18 -43 -60 -36 -137 7 -66 35 -93 88 -84 53 8 70 36
70 113 0 58 -3 67 -29 94 -33 32 -53 35 -93 14z m72 -54 c14 -27 12 -93 -4
-113 -15 -21 -37 -23 -54 -6 -13 13 -17 120 -5 131 13 14 53 6 63 -12z"/>
<path d="M4473 564 c-7 -19 13 -34 44 -34 38 0 35 -19 -6 -36 -88 -35 -68
-153 27 -154 53 0 62 14 62 104 0 77 -2 85 -26 110 -31 30 -91 37 -101 10z
m83 -129 c13 -52 -17 -72 -51 -35 -17 19 -17 21 0 40 24 27 43 25 51 -5z"/>
<path d="M4652 568 c-13 -13 -18 -209 -5 -221 3 -4 12 -2 20 4 9 8 13 37 13
91 0 87 13 106 51 72 13 -12 23 -14 30 -7 15 15 0 42 -32 58 -34 18 -61 19
-77 3z"/>
<path d="M5214 557 c-22 -19 -28 -34 -32 -82 -8 -99 39 -153 109 -125 30 13
47 46 32 61 -6 6 -20 1 -38 -13 l-28 -22 -18 23 c-21 26 -24 66 -9 105 11 29
41 34 60 11 16 -19 29 -19 37 1 8 20 -35 64 -63 64 -13 0 -35 -10 -50 -23z"/>
<path d="M5614 562 c-33 -26 -44 -55 -44 -112 0 -44 5 -56 29 -81 16 -16 38
-29 48 -29 65 1 93 38 93 124 0 48 -4 58 -31 85 -34 35 -64 39 -95 13z m76
-56 c5 -14 7 -37 6 -53 -2 -15 -4 -36 -5 -45 -1 -22 -38 -33 -56 -18 -15 13
-22 120 -8 133 16 17 54 6 63 -17z"/>
<path d="M5814 557 c-23 -20 -28 -34 -32 -84 -5 -78 14 -120 61 -128 52 -10
83 7 95 55 5 22 9 49 7 58 -2 9 -4 30 -4 45 -1 34 -44 77 -77 77 -13 0 -35
-11 -50 -23z m81 -96 c0 -51 -4 -66 -18 -75 -15 -9 -22 -7 -38 13 -21 26 -24
65 -9 106 8 21 16 26 38 23 26 -3 27 -5 27 -67z"/>
<path d="M3526 555 c-3 -9 -6 -56 -6 -105 0 -65 4 -91 15 -100 12 -10 16 -9
20 2 10 27 1 211 -11 215 -6 2 -14 -3 -18 -12z"/>
<path d="M3997 563 c-4 -3 -7 -43 -7 -87 1 -103 17 -131 80 -131 65 0 81 28
77 135 -2 69 -5 85 -18 88 -14 3 -17 -10 -20 -82 -4 -91 -14 -112 -48 -101
-19 6 -21 14 -21 73 0 37 -3 77 -6 90 -6 21 -24 29 -37 15z"/>
<path d="M4196 554 c-3 -9 -6 -56 -6 -105 0 -72 3 -91 15 -96 9 -3 18 -3 21 0
8 8 9 191 0 205 -10 17 -23 15 -30 -4z"/>
</g>
</svg>
