<?xml version="1.0" standalone="no"?>
<!DOCTYPE svg PUBLIC "-//W3C//DTD SVG 20010904//EN"
 "http://www.w3.org/TR/2001/REC-SVG-20010904/DTD/svg10.dtd">
<svg version="1.0" xmlns="http://www.w3.org/2000/svg"
 width="900.000000pt" height="333.000000pt" viewBox="0 0 900.000000 333.000000"
 preserveAspectRatio="xMidYMid meet">
<metadata>
Created by potrace 1.10, written by Peter Selinger 2001-2011
</metadata>
<g transform="translate(0.000000,333.000000) scale(0.100000,-0.100000)"
fill="White" stroke="none">
<path d="M1155 2750 c-147 -18 -275 -75 -275 -123 0 -13 -5 -17 -16 -13 -9 4
-34 -11 -67 -42 -66 -60 -76 -73 -77 -95 0 -11 -13 -31 -29 -47 -17 -15 -37
-45 -45 -66 -33 -89 -45 -251 -26 -354 6 -30 8 -61 5 -69 -7 -20 -70 -61 -93
-61 -25 -1 -112 -68 -112 -87 0 -15 -55 -73 -69 -73 -7 0 -54 -92 -71 -140
-24 -65 -34 -236 -21 -352 10 -92 16 -115 47 -170 20 -35 44 -71 54 -80 10
-10 21 -25 25 -35 9 -26 111 -107 143 -113 20 -4 27 -11 27 -29 0 -19 9 -25
60 -41 215 -64 285 -64 497 -2 76 23 85 28 77 44 -8 14 -3 19 33 28 53 15 89
1 85 -32 -2 -19 4 -23 40 -28 23 -4 47 -11 55 -17 18 -15 149 -36 228 -37 36
0 97 8 135 17 159 39 170 43 170 63 0 19 44 54 68 54 20 0 82 70 106 118 13
24 32 47 46 52 14 5 25 17 25 26 0 9 6 28 14 42 24 46 39 134 38 222 -1 107
-15 237 -29 270 -6 14 -16 44 -22 68 -9 31 -17 42 -31 42 -11 0 -20 4 -20 10
0 5 -13 25 -30 43 -16 19 -30 41 -30 49 0 20 -45 68 -63 68 -17 0 -75 28 -82
40 -3 5 -19 11 -36 15 -43 10 -55 41 -40 111 26 132 6 238 -75 395 -13 26 -24
52 -24 59 0 23 -64 101 -78 95 -16 -6 -62 38 -62 60 0 15 -70 50 -175 87 -78
28 -188 39 -280 28z m185 -155 c27 -3 58 -14 130 -46 76 -34 95 -47 99 -66 2
-10 17 -31 33 -48 17 -16 35 -42 40 -57 5 -15 18 -28 30 -30 30 -4 50 -81 55
-209 4 -89 2 -109 -12 -123 -28 -27 -73 -20 -111 18 -47 47 -43 78 11 88 14 2
22 14 27 43 10 58 0 98 -33 134 -24 27 -32 30 -49 21 -11 -6 -20 -17 -20 -24
0 -17 -22 -26 -60 -26 -41 0 -60 10 -60 31 0 11 -9 20 -22 23 -64 13 -117 16
-170 10 -47 -5 -65 -13 -86 -35 -30 -31 -98 -69 -124 -69 -9 0 -32 18 -51 40
-39 46 -53 49 -68 16 -10 -20 -8 -30 10 -55 12 -17 27 -31 32 -31 18 0 8 -65
-20 -124 -16 -34 -32 -88 -36 -119 -4 -31 -12 -57 -18 -57 -6 0 -18 -7 -28
-16 -24 -21 -54 -4 -68 38 -14 45 -31 154 -31 205 0 97 72 268 129 305 19 13
38 33 41 45 5 24 76 82 100 83 8 0 35 8 60 16 61 22 145 33 200 27 25 -3 56
-6 70 -8z m61 -410 c51 -34 55 -66 17 -132 -16 -29 -34 -56 -39 -59 -5 -3 -9
-13 -9 -24 0 -10 -6 -20 -13 -23 -17 -6 -77 19 -77 32 0 19 42 81 55 81 17 0
46 40 39 52 -3 4 -23 8 -45 8 -31 0 -44 -6 -66 -30 -52 -58 -128 -30 -121 45
3 34 7 39 48 55 25 10 74 18 110 19 54 1 72 -3 101 -24z m-315 -153 c48 -31
49 -188 3 -325 -27 -81 -25 -124 10 -179 38 -60 44 -82 36 -134 -5 -37 -10
-44 -29 -44 -42 0 -59 23 -71 96 -8 48 -15 69 -26 69 -8 0 -17 5 -21 10 -9 12
-10 360 -2 391 4 15 11 20 25 17 16 -4 19 0 19 25 0 63 25 95 56 74z m444 -21
c17 -33 12 -125 -9 -152 -27 -35 -51 -86 -44 -93 19 -19 103 2 103 26 0 6 7
19 16 29 9 10 18 39 19 65 4 56 31 90 64 79 18 -5 21 -13 19 -38 -2 -26 -9
-32 -36 -39 -38 -10 -38 -32 -1 -36 13 -1 61 -12 107 -24 61 -17 82 -27 82
-39 0 -9 13 -22 30 -29 31 -13 100 -82 100 -101 0 -6 9 -9 20 -6 14 3 21 -1
25 -17 9 -33 35 -98 52 -130 24 -44 23 -288 0 -314 -9 -10 -17 -32 -17 -49 0
-17 -6 -36 -14 -43 -8 -6 -16 -21 -18 -33 -2 -14 -11 -23 -26 -25 -12 -2 -29
-16 -36 -31 -29 -54 -90 -106 -156 -131 -56 -21 -82 -24 -181 -24 -126 1 -203
19 -247 59 -13 11 -32 19 -43 17 -11 -2 -22 4 -26 15 -9 26 -44 63 -59 63 -23
0 -94 -42 -104 -61 -31 -56 -199 -105 -325 -95 -117 10 -184 34 -235 86 -25
25 -52 49 -60 52 -21 8 -102 127 -95 139 4 5 -6 36 -21 69 -25 56 -26 67 -22
167 4 85 10 118 28 156 12 26 26 50 31 53 5 3 9 14 9 24 0 25 50 100 68 100 8
0 22 11 33 24 10 13 32 29 49 36 18 8 30 20 30 32 0 10 6 20 13 22 6 2 36 11
65 21 71 23 102 15 102 -28 0 -41 -23 -63 -107 -108 -73 -37 -82 -59 -24 -59
32 0 47 -8 90 -47 28 -26 51 -53 51 -60 0 -7 11 -18 25 -23 14 -5 26 -13 26
-17 1 -5 3 -19 4 -33 2 -22 41 -126 80 -217 13 -30 12 -34 -15 -68 -16 -20
-27 -42 -24 -49 6 -16 -41 -56 -66 -56 -21 0 -64 45 -56 59 11 18 -22 70 -56
87 -40 21 -102 13 -134 -17 -20 -19 -24 -32 -24 -78 0 -31 4 -61 8 -67 17 -27
79 -54 123 -54 50 0 65 -9 99 -58 19 -28 27 -32 49 -27 33 8 51 23 51 42 0 17
78 124 88 121 4 -1 19 6 35 16 27 18 30 18 141 -4 112 -22 191 -23 297 -5 32
6 38 3 71 -33 47 -52 77 -72 109 -72 15 0 32 -7 39 -15 20 -24 65 -19 84 9 8
14 24 27 35 31 28 9 47 60 33 90 -6 14 -9 30 -7 37 6 15 -78 59 -110 58 -11
-1 -36 -9 -55 -18 -26 -13 -36 -25 -38 -45 -5 -39 -33 -32 -44 11 -8 28 -5 38
16 63 14 16 28 45 32 64 7 37 13 42 31 24 17 -17 27 66 18 147 -6 58 -9 64
-26 59 -13 -4 -19 -2 -19 8 0 8 -9 26 -20 40 -24 30 -25 55 -5 81 27 35 19 46
-32 46 -78 0 -122 17 -129 48 -4 15 -13 36 -20 47 -30 43 -11 197 29 243 25
27 43 28 57 3z m-210 -111 c6 -11 17 -20 25 -20 22 0 28 -18 20 -66 -4 -27
-11 -44 -20 -44 -7 0 -23 -14 -35 -31 -15 -20 -29 -29 -44 -27 -18 3 -21 10
-24 62 -5 97 48 183 78 126z m-17 -254 c18 -8 39 -16 48 -19 36 -12 33 -202
-3 -202 -24 0 -42 -21 -34 -40 4 -11 13 -14 25 -10 23 7 71 -45 71 -77 0 -11
9 -36 21 -55 25 -40 20 -58 -16 -67 -19 -5 -33 -2 -47 11 -11 10 -27 18 -36
18 -19 0 -39 61 -51 151 -4 29 -12 58 -18 65 -6 8 -14 61 -18 118 -6 82 -5
105 6 112 18 11 16 11 52 -5z m254 -100 c37 -34 42 -258 6 -283 -41 -31 -62
-10 -79 78 -20 107 -19 205 4 218 19 11 50 5 69 -13z m-397 -237 c0 -7 12 -22
26 -36 28 -26 30 -66 2 -71 -9 -2 -32 4 -52 12 -30 12 -36 20 -36 44 0 19 8
35 23 45 27 19 37 21 37 6z"/>
<path d="M5367 2323 c-18 -17 -2 -71 38 -131 1 -1 16 -7 34 -12 27 -8 33 -6
47 15 20 31 9 53 -55 99 -52 39 -54 39 -64 29z"/>
<path d="M8296 2321 c-12 -18 5 -84 30 -117 15 -19 28 -34 30 -34 1 0 14 4 28
10 42 15 34 52 -21 105 -49 46 -58 51 -67 36z"/>
<path d="M2784 2306 c-4 -10 -4 -39 -1 -66 8 -69 -2 -122 -22 -118 -9 2 -17
12 -20 23 -5 27 -19 35 -63 35 -45 0 -53 -11 -35 -47 17 -33 31 -232 18 -252
-7 -11 -14 -10 -37 7 -35 25 -80 37 -88 24 -8 -13 31 -62 58 -72 11 -4 29 -4
39 2 15 7 17 4 17 -27 0 -20 -4 -44 -10 -54 -13 -25 14 -61 46 -61 37 0 60 59
46 120 -16 69 -10 259 8 270 20 13 37 12 45 0 3 -5 15 -10 26 -10 17 0 20 -6
17 -32 -2 -20 -9 -33 -17 -33 -33 0 -33 -94 0 -102 23 -6 27 -63 5 -63 -25 0
-28 -18 -32 -175 l-4 -153 37 -4 c21 -3 44 0 51 5 13 10 16 93 10 277 -1 19
-2 94 -2 165 l-1 130 27 3 c38 5 70 -30 62 -66 -4 -15 -11 -32 -15 -38 -5 -6
-2 -34 7 -64 15 -51 15 -55 -6 -100 -22 -46 -22 -48 -4 -75 20 -31 58 -48 86
-39 19 6 20 14 16 179 -3 164 -2 175 17 189 16 12 18 18 8 37 -6 13 -14 32
-17 42 -4 13 -16 17 -48 17 -50 0 -64 -7 -69 -35 -3 -13 -13 -21 -30 -23 -24
-3 -27 1 -32 40 -5 34 -2 47 14 64 25 26 24 36 -5 63 -31 30 -93 40 -102 17z"/>
<path d="M3852 2300 c-7 -11 -18 -17 -27 -14 -10 4 -18 -3 -24 -20 l-10 -25
-128 4 c-399 14 -431 14 -443 0 -32 -39 46 -78 112 -56 32 10 275 15 525 11
128 -2 138 9 72 76 -48 49 -59 53 -77 24z"/>
<path d="M5591 2277 c-42 -94 -51 -118 -51 -131 0 -8 -7 -17 -16 -20 -22 -9
-287 -7 -300 2 -7 4 -13 16 -15 27 -7 35 -42 25 -50 -14 -5 -23 -22 -47 -53
-73 -37 -32 -46 -46 -46 -72 0 -39 15 -56 51 -56 31 0 43 13 84 89 l30 56 225
0 c200 0 225 -2 228 -16 6 -30 -27 -52 -70 -45 -26 4 -48 1 -68 -9 -25 -13
-47 -14 -150 -4 -66 6 -128 8 -136 5 -10 -4 -14 -16 -12 -33 3 -27 5 -28 63
-27 33 0 90 4 126 8 61 8 68 7 77 -11 19 -34 -11 -63 -62 -63 -46 0 -56 -12
-56 -67 0 -32 -19 -38 -40 -15 -20 21 -42 25 -203 37 -89 7 -107 -1 -107 -46
0 -45 24 -51 173 -43 73 3 139 10 148 15 41 21 62 -60 37 -142 -9 -33 -16 -39
-38 -39 -14 0 -35 7 -46 15 -29 22 -51 18 -58 -11 -8 -29 8 -54 34 -54 9 0 32
-7 50 -16 30 -16 36 -16 86 0 71 22 78 37 70 146 -6 68 -4 88 6 92 7 3 83 2
168 -1 85 -4 161 -5 168 -3 7 2 12 21 12 42 0 31 -6 43 -29 59 -42 30 -83 27
-121 -9 -24 -22 -42 -30 -70 -30 -21 0 -52 -8 -69 -17 -39 -23 -56 -9 -47 41
5 28 16 41 56 65 28 17 54 30 58 30 23 -4 34 4 43 30 13 38 53 65 104 71 37 5
40 8 43 39 4 37 -9 51 -46 51 -19 0 -22 4 -17 20 5 16 2 20 -19 20 -19 0 -26
-5 -26 -19 0 -23 -19 -31 -76 -31 -40 0 -44 2 -44 24 0 28 7 34 65 57 65 26
56 83 -16 108 -28 10 -30 9 -48 -32z"/>
<path d="M6505 2310 c-3 -6 -7 -29 -7 -53 -1 -68 -13 -89 -45 -81 -16 4 -34
11 -41 17 -21 17 -62 -8 -62 -37 0 -15 -8 -30 -19 -36 -40 -21 -33 -90 8 -90
10 0 29 -8 42 -19 22 -17 37 -18 162 -13 145 5 167 12 167 53 0 21 57 53 95
54 16 0 21 8 23 38 3 31 0 37 -17 37 -10 0 -32 7 -48 17 -28 16 -31 15 -84
-11 -31 -15 -63 -24 -71 -21 -22 9 -30 56 -12 76 20 22 18 25 -23 54 -40 27
-58 31 -68 15z m183 -200 c2 -11 -18 -22 -65 -39 -60 -21 -129 -28 -220 -22
-20 1 -16 58 5 70 10 6 71 10 147 8 106 -2 130 -5 133 -17z"/>
<path d="M4391 2296 c-6 -7 -14 -53 -17 -101 -3 -53 -13 -103 -25 -128 -10
-23 -19 -63 -19 -89 0 -36 -4 -50 -19 -58 -11 -5 -23 -20 -26 -32 -4 -13 -12
-36 -20 -53 -7 -16 -19 -49 -26 -73 -11 -37 -10 -45 4 -59 14 -15 19 -15 52 1
21 10 40 29 46 44 6 15 17 41 26 59 8 18 12 36 9 41 -5 9 39 139 54 157 4 5
10 33 13 60 13 120 20 140 49 143 30 4 45 32 30 59 -6 9 -29 22 -53 30 -56 16
-64 16 -78 -1z"/>
<path d="M8511 2288 c-12 -34 -32 -89 -45 -126 -6 -19 -20 -35 -31 -38 -11 -3
-83 -3 -160 -2 l-139 3 -6 25 c-8 33 -45 35 -45 3 0 -13 -20 -42 -47 -70 -26
-26 -50 -60 -53 -75 -18 -71 64 -96 97 -29 9 18 26 43 37 55 12 12 21 27 21
33 0 7 8 14 18 16 37 9 411 7 417 -2 3 -6 3 -22 -1 -36 -6 -23 -10 -25 -39
-19 -21 4 -44 0 -64 -10 -28 -15 -47 -15 -158 -6 -107 9 -128 9 -141 -3 -16
-16 -9 -52 11 -60 7 -3 59 2 115 10 119 17 137 12 120 -37 -8 -24 -16 -29 -46
-32 -35 -3 -37 -5 -45 -48 -5 -25 -11 -47 -12 -49 -2 -2 -17 6 -33 17 -22 16
-56 23 -156 32 -70 7 -133 9 -141 6 -10 -3 -15 -20 -15 -45 0 -36 3 -41 26
-47 15 -4 93 -2 173 3 80 6 149 9 154 6 11 -6 8 -132 -3 -154 -14 -25 -50 -24
-83 1 -39 31 -57 26 -57 -14 0 -26 7 -39 28 -54 38 -27 104 -35 145 -19 55 24
62 40 60 140 -2 49 1 95 5 101 4 6 7 28 8 49 0 45 27 75 94 109 30 16 46 31
50 48 3 14 13 26 21 28 8 1 44 17 79 35 76 37 90 66 43 89 -16 8 -27 21 -25
30 1 9 -4 18 -13 22 -20 7 -46 -3 -44 -18 4 -32 -2 -36 -60 -36 -39 0 -61 4
-64 13 -8 22 42 70 82 76 33 6 36 9 36 41 0 30 -3 35 -21 32 -12 -1 -27 4 -34
13 -18 22 -49 18 -59 -7z"/>
<path d="M2426 2292 c-2 -4 -4 -39 -3 -77 1 -83 -6 -100 -34 -85 -10 6 -19 17
-19 25 0 17 -60 31 -69 17 -4 -6 -6 -28 -6 -49 l0 -38 55 1 c30 0 79 4 108 9
l53 8 -3 -39 c-2 -30 -8 -40 -24 -42 -13 -2 -29 -21 -47 -57 -27 -56 -73 -98
-120 -109 -27 -6 -70 -61 -64 -81 8 -23 87 -16 87 8 0 20 59 70 76 63 13 -5
14 -24 9 -138 -4 -73 -8 -139 -11 -146 -2 -7 1 -22 7 -33 8 -16 19 -19 52 -17
l42 3 -4 191 c-3 135 0 193 8 198 6 4 11 21 11 37 0 39 24 85 68 131 l36 38
-38 15 c-20 9 -34 20 -31 25 3 6 1 10 -4 10 -6 0 -11 -6 -11 -14 0 -8 -6 -16
-14 -19 -21 -8 -31 71 -11 93 20 22 19 43 -3 63 -19 17 -87 24 -96 9z"/>
<path d="M7337 2280 c-11 -16 -12 -32 -5 -72 5 -29 7 -77 4 -107 -4 -31 -8
-76 -9 -101 -2 -25 -4 -57 -5 -72 -1 -14 -18 -45 -37 -68 -19 -23 -38 -54 -41
-69 -4 -14 -16 -37 -28 -51 -12 -14 -33 -42 -47 -63 -16 -25 -30 -36 -44 -35
-13 2 -24 -5 -29 -19 -6 -11 -36 -34 -68 -49 -32 -15 -58 -33 -58 -40 0 -7 17
-16 37 -20 29 -5 46 -2 75 14 20 12 44 22 53 22 21 0 75 40 75 56 0 7 32 45
70 85 39 39 70 80 70 91 0 25 46 115 62 120 10 4 13 40 14 144 1 162 6 184 37
181 16 -1 22 3 22 18 0 13 -6 19 -18 18 -11 0 -27 7 -38 18 -25 25 -74 25 -92
-1z"/>
<path d="M5218 2279 c-27 -15 -22 -31 20 -72 38 -37 72 -46 101 -28 20 13 -1
58 -32 70 -12 5 -29 16 -36 25 -15 18 -29 20 -53 5z"/>
<path d="M8136 2271 c-17 -19 -16 -21 23 -61 28 -29 47 -41 63 -38 38 5 35 43
-5 83 -40 40 -57 43 -81 16z"/>
<path d="M6053 2265 c-3 -9 0 -35 7 -60 9 -32 11 -119 6 -332 -3 -158 -7 -301
-8 -317 -3 -24 2 -31 25 -39 20 -6 37 -6 54 2 l26 12 -7 104 c-4 58 -5 109 -2
114 4 5 19 5 39 -1 41 -13 107 11 107 39 0 10 9 33 20 51 15 24 27 32 50 32
39 0 54 -28 45 -88 -7 -48 -49 -142 -64 -142 -4 0 -12 -10 -18 -23 -7 -14 -33
-31 -69 -46 -75 -30 -81 -36 -54 -51 57 -30 186 25 205 88 5 19 16 32 26 32
20 0 59 108 59 162 0 45 19 63 45 44 18 -13 18 -20 5 -141 -13 -124 -12 -127
8 -147 28 -28 152 -41 201 -22 18 8 42 14 52 14 17 0 19 8 19 63 0 92 -5 103
-46 103 -36 0 -37 -2 -49 -68 -9 -56 -49 -74 -85 -38 -17 17 -20 33 -20 123 0
130 3 134 115 139 72 3 80 5 80 23 0 11 -8 21 -18 23 -11 2 -27 12 -38 23 -26
26 -48 24 -82 -8 -26 -26 -36 -28 -119 -32 -50 -1 -123 0 -163 4 -70 6 -74 8
-124 57 -63 61 -82 55 -51 -16 26 -62 25 -82 -5 -111 -28 -28 -60 -33 -69 -9
-3 9 -6 93 -6 188 0 131 3 177 14 191 12 17 10 22 -14 47 -32 32 -87 39 -97
13z"/>
<path d="M6227 2249 c-33 -18 -36 -22 -26 -41 7 -12 9 -39 5 -64 -4 -32 -2
-44 7 -44 20 0 45 23 49 44 1 11 17 27 33 36 39 21 44 48 14 71 -30 23 -35 23
-82 -2z"/>
<path d="M3320 2113 c0 -3 7 -42 16 -86 14 -66 15 -93 6 -146 -6 -36 -14 -85
-18 -109 -3 -23 -16 -55 -28 -70 -13 -15 -35 -48 -49 -73 -15 -25 -38 -56 -52
-69 -25 -24 -33 -54 -16 -65 5 -3 12 -1 16 5 3 5 14 10 24 10 23 0 121 77 121
95 0 8 14 35 31 60 20 30 33 65 38 101 4 30 12 59 18 65 7 7 38 6 97 -2 69
-10 101 -10 154 0 l67 13 36 -42 c65 -75 95 -37 84 107 -6 66 -4 87 9 105 23
33 20 74 -6 92 -31 22 -85 21 -99 -1 -10 -16 -28 -18 -171 -16 -126 1 -165 5
-183 17 -24 16 -95 23 -95 9z m173 -68 c45 -19 149 -19 202 0 53 19 62 19 70
-5 9 -28 13 -138 5 -150 -4 -7 -66 -10 -176 -8 l-169 3 -1 50 c0 41 20 125 31
125 1 0 19 -7 38 -15z"/>
<path d="M4713 2066 c-36 -34 -39 -35 -97 -30 -34 3 -64 8 -68 10 -3 2 -19 -1
-34 -6 -30 -12 -23 -26 16 -32 24 -3 25 -6 25 -68 -1 -78 -20 -124 -55 -128
-49 -6 -101 -23 -96 -31 3 -5 19 -11 36 -14 16 -4 30 -13 30 -20 0 -23 -39
-65 -85 -92 -24 -14 -45 -32 -48 -39 -3 -7 -37 -18 -76 -25 -39 -7 -73 -17
-77 -22 -3 -5 -29 -9 -58 -9 -59 0 -102 -22 -76 -40 25 -16 160 -11 246 10
102 24 164 55 164 81 0 11 10 23 24 29 14 5 35 23 47 39 28 38 34 38 65 2 13
-16 35 -32 49 -35 16 -4 25 -13 25 -26 0 -11 12 -38 26 -60 22 -33 32 -40 60
-40 45 0 57 24 40 76 -16 47 -123 144 -159 144 -27 0 -47 17 -47 41 0 29 40
109 55 109 22 0 38 38 29 68 -4 15 -8 31 -8 37 -1 6 39 9 107 7 84 -3 107 -1
108 10 5 59 -24 88 -87 88 -35 0 -50 -6 -81 -34z"/>
<path d="M7638 2081 c-9 -13 -35 -22 -82 -29 -80 -13 -102 -27 -65 -41 32 -11
250 -18 267 -8 19 12 14 55 -8 77 -27 27 -94 27 -112 1z"/>
<path d="M4092 2069 c-47 -18 -12 -89 43 -89 29 0 165 34 165 41 0 24 -168 62
-208 48z"/>
<path d="M7028 2069 c-30 -17 -22 -54 18 -84 32 -24 37 -25 52 -12 9 8 47 18
84 22 136 14 123 56 -21 66 -47 4 -93 9 -101 13 -8 3 -23 1 -32 -5z"/>
<path d="M7430 1871 c0 -51 13 -94 29 -98 9 -2 27 -23 40 -46 13 -23 37 -58
52 -78 16 -20 29 -41 29 -46 0 -5 19 -22 43 -37 40 -27 45 -28 117 -20 l75 9
0 35 c0 28 -4 35 -20 36 -11 0 -29 4 -40 8 -11 4 -33 13 -48 18 -15 6 -40 24
-55 39 -15 16 -32 29 -38 29 -15 0 -59 49 -79 90 -31 61 -58 90 -82 90 -19 0
-23 -5 -23 -29z"/>
<path d="M8631 1856 c-13 -14 -28 -23 -35 -21 -17 5 -139 -38 -143 -51 -2 -7
7 -14 20 -18 30 -7 297 -9 304 -2 3 3 2 21 -1 40 -5 25 -16 41 -40 55 -44 28
-77 26 -105 -3z"/>
<path d="M3472 1398 c-7 -9 -8 -44 -2 -113 5 -55 6 -132 3 -171 -7 -91 4 -115
50 -107 23 3 37 0 46 -11 17 -21 34 -20 80 3 49 26 76 82 68 147 -8 75 -42 96
-132 82 -18 -3 -20 4 -25 87 l-5 90 -36 3 c-21 2 -40 -2 -47 -10z m161 -215
c10 -6 9 -87 -2 -116 -11 -27 -47 -45 -62 -30 -16 16 -23 131 -9 148 11 13 47
13 73 -2z"/>
<path d="M5128 1396 c-22 -16 -23 -35 -3 -63 21 -29 32 -232 17 -288 -13 -46
-4 -57 43 -53 29 3 29 4 26 51 -1 26 1 47 6 47 5 0 22 -22 38 -50 26 -43 34
-50 63 -50 27 0 32 4 32 23 0 31 -27 67 -50 67 -24 0 -40 29 -40 69 0 25 5 32
28 37 47 10 54 14 50 26 -14 42 -88 29 -88 -16 0 -14 -5 -28 -11 -32 -25 -15
-34 19 -34 129 l0 112 -30 2 c-16 2 -38 -3 -47 -11z"/>
<path d="M5684 1396 c-3 -8 -4 -29 -2 -48 2 -26 8 -34 27 -36 29 -4 51 20 51
55 0 35 -64 60 -76 29z"/>
<path d="M8017 1403 c-14 -4 -17 -13 -15 -46 3 -38 6 -42 31 -45 37 -4 57 13
57 49 0 22 -6 32 -26 39 -14 6 -26 9 -27 9 -1 -1 -10 -3 -20 -6z"/>
<path d="M2891 1391 c-11 -7 -11 -15 -2 -41 6 -18 11 -92 11 -164 0 -104 -3
-136 -16 -154 -27 -39 -12 -52 48 -45 68 7 76 15 56 56 -21 41 -30 88 -20 105
10 15 42 5 42 -13 0 -7 15 -29 33 -48 17 -19 42 -48 54 -65 23 -30 71 -46 95
-31 17 11 -24 83 -49 88 -23 4 -53 36 -53 56 0 8 -13 27 -29 41 -17 15 -31 36
-33 48 -2 16 -9 21 -32 19 -31 -2 -30 -6 -10 108 5 32 3 37 -18 42 -32 9 -61
8 -77 -2z"/>
<path d="M3083 1388 c-6 -7 -15 -26 -21 -43 -5 -16 -13 -37 -16 -45 -3 -8 -2
-21 3 -29 7 -12 15 -8 41 17 17 18 42 32 55 32 29 0 47 22 43 52 -3 20 -10 23
-49 26 -29 2 -50 -2 -56 -10z"/>
<path d="M4209 1393 c0 -5 -2 -102 -2 -218 l-2 -210 -33 -3 c-39 -4 -58 -36
-48 -77 6 -25 10 -27 44 -22 79 13 112 97 112 286 0 72 5 151 12 175 9 36 9
48 -1 60 -13 16 -80 23 -82 9z"/>
<path d="M6270 1391 c-12 -9 -12 -15 4 -48 15 -31 18 -59 17 -152 l-2 -114 52
-48 c48 -46 54 -49 106 -49 48 0 58 4 94 38 l41 37 9 114 c6 73 15 123 25 138
8 13 14 38 12 56 -3 30 -5 32 -48 35 -67 3 -75 -5 -61 -65 7 -26 14 -88 16
-136 3 -81 1 -90 -21 -116 -32 -39 -78 -45 -113 -15 -26 22 -26 23 -26 176 l0
153 -45 3 c-25 1 -52 -2 -60 -7z"/>
<path d="M6944 1385 c-16 -41 14 -74 68 -75 23 0 41 36 34 66 -6 21 -12 24
-52 24 -30 0 -46 -5 -50 -15z"/>
<path d="M8165 1253 c-23 -42 -24 -49 -11 -59 12 -9 16 -31 16 -93 0 -69 3
-84 21 -102 16 -16 29 -20 51 -15 17 3 34 6 39 6 23 0 5 37 -24 50 -31 14 -32
17 -35 82 l-3 67 35 6 c45 9 73 -7 81 -47 4 -18 11 -38 16 -44 5 -6 16 -33 24
-60 14 -46 13 -49 -7 -71 -12 -13 -30 -23 -40 -23 -22 0 -39 -39 -31 -69 6
-25 39 -28 70 -6 12 8 29 36 39 62 10 27 28 55 39 65 14 11 25 39 34 84 10 46
21 75 37 89 28 26 31 51 7 63 -36 19 -88 -22 -66 -51 6 -6 13 -26 16 -44 5
-26 3 -33 -13 -38 -27 -9 -40 2 -40 31 0 13 -4 24 -10 24 -5 0 -10 14 -10 30
0 43 -35 58 -90 40 -52 -17 -85 -4 -93 39 -4 17 -11 31 -16 31 -5 0 -21 -21
-36 -47z"/>
<path d="M4991 1233 c-8 -15 -13 -15 -36 -5 -45 21 -69 -13 -44 -60 11 -20 11
-20 23 3 24 49 82 30 71 -23 -4 -17 -2 -35 5 -43 18 -22 -8 -75 -37 -75 -20 0
-23 5 -23 35 0 45 -23 56 -53 26 l-22 -22 21 -37 c15 -25 31 -39 50 -43 36 -7
54 -1 54 17 0 19 9 18 32 -3 15 -13 23 -15 36 -6 9 6 15 17 12 25 -2 7 -6 51
-8 98 -3 69 -7 89 -24 108 -26 26 -44 28 -57 5z"/>
<path d="M5382 1230 c-22 -18 -22 -21 -8 -36 12 -11 16 -35 16 -85 0 -64 3
-73 29 -99 27 -27 32 -28 101 -25 40 2 75 7 78 10 10 10 1 229 -10 242 -11 13
-34 7 -60 -15 -16 -13 -16 -17 -3 -35 22 -31 19 -100 -5 -128 l-20 -24 -26 30
c-24 27 -26 34 -21 92 6 56 4 64 -16 78 -27 19 -27 19 -55 -5z"/>
<path d="M5935 1240 c-5 -8 -23 -10 -54 -6 -25 4 -50 3 -56 -1 -6 -5 -10 -59
-10 -126 l0 -118 40 3 40 3 0 95 0 95 35 0 35 0 0 -95 0 -95 37 -9 c21 -5 40
-7 43 -4 11 11 -13 230 -27 244 -19 19 -74 29 -83 14z"/>
<path d="M6773 1235 c-14 -10 -24 -12 -28 -5 -9 15 -48 12 -73 -6 -22 -15 -22
-17 -6 -35 17 -19 16 -68 -2 -166 -5 -26 -2 -32 15 -38 12 -3 30 -3 41 0 18 6
20 15 20 105 0 54 3 101 8 104 4 2 23 1 42 -3 l35 -7 0 -93 c0 -90 1 -94 24
-103 36 -13 58 11 43 49 -6 15 -13 61 -15 102 -4 62 -8 78 -27 93 -27 22 -49
23 -77 3z"/>
<path d="M7840 1230 c-19 -10 -45 -24 -57 -29 -21 -9 -23 -18 -23 -80 0 -60 3
-72 20 -81 11 -6 31 -22 46 -35 15 -14 38 -25 51 -25 27 0 93 48 93 68 0 22
-30 25 -51 6 -23 -21 -46 -12 -67 27 -11 22 -9 89 3 110 3 4 25 1 50 -6 39
-12 47 -12 60 1 20 20 19 31 -3 43 -38 20 -86 21 -122 1z"/>
<path d="M3263 1234 c-12 -3 -32 -21 -44 -40 -36 -59 -10 -153 54 -193 87 -53
167 7 167 125 0 79 -23 104 -101 109 -30 2 -64 1 -76 -1z m97 -44 c56 -30 15
-177 -45 -154 -24 10 -35 38 -35 94 0 43 3 52 23 60 29 12 35 12 57 0z"/>
<path d="M3843 1233 c-57 -5 -73 -29 -73 -112 0 -101 35 -141 124 -141 29 0
84 69 65 81 -19 12 -25 11 -39 -6 -18 -21 -47 -19 -60 5 -6 11 -20 20 -30 20
-21 0 -24 13 -10 45 7 17 9 17 9 3 1 -25 21 -23 21 1 0 11 5 32 11 48 l11 28
15 -29 c8 -16 16 -36 17 -45 2 -9 14 -17 27 -19 20 -2 26 3 36 34 10 35 9 39
-17 66 -16 15 -37 27 -47 26 -10 -1 -37 -3 -60 -5z"/>
<path d="M4420 1233 c-32 -12 -49 -37 -56 -80 -9 -63 9 -115 52 -148 46 -35
96 -30 137 15 27 30 31 52 28 140 -3 51 -39 80 -99 79 -26 0 -54 -3 -62 -6z
m94 -52 c39 -43 9 -150 -42 -151 -17 0 -42 60 -42 101 0 60 49 88 84 50z"/>
<path d="M4653 1221 c-25 -12 -33 -23 -33 -43 0 -16 4 -28 9 -28 5 0 16 -11
25 -24 19 -30 12 -116 -10 -116 -7 0 -18 -9 -24 -19 -13 -25 -13 -88 0 -96 6
-3 53 -8 105 -11 91 -4 97 -3 120 20 18 18 25 36 25 65 0 48 -21 66 -94 80
-60 11 -72 24 -79 83 -5 56 13 82 39 56 13 -12 14 -20 5 -36 -16 -30 -14 -40
9 -47 21 -7 54 11 46 24 -6 9 3 22 41 53 44 36 28 47 -73 51 -58 3 -88 0 -111
-12z m112 -233 c30 -14 31 -27 4 -62 -27 -34 -45 -33 -69 7 l-20 32 21 18 c25
20 30 21 64 5z"/>
<path d="M5680 1225 c-11 -13 -11 -20 0 -40 9 -17 11 -47 6 -103 -7 -90 3
-110 46 -93 23 9 23 11 21 116 -2 62 -7 113 -14 121 -15 18 -43 18 -59 -1z"/>
<path d="M7088 1233 c-25 -6 -30 -31 -8 -43 14 -7 20 -21 20 -44 0 -31 25 -68
39 -56 3 3 9 -15 13 -39 9 -55 19 -66 46 -52 33 17 38 70 12 119 -12 23 -26
42 -31 42 -5 0 -9 13 -9 28 0 45 -26 60 -82 45z"/>
<path d="M7226 1224 c-12 -12 -13 -20 -6 -35 13 -23 12 -23 55 -5 39 17 44 30
16 46 -27 14 -47 13 -65 -6z"/>
<path d="M7398 1231 c-27 -8 -58 -46 -64 -78 -10 -54 4 -103 42 -140 28 -27
42 -33 79 -33 45 0 65 16 65 55 0 13 -7 15 -36 9 -28 -5 -40 -2 -59 16 -19 18
-22 28 -18 63 7 49 18 67 44 67 17 0 33 -29 34 -59 0 -27 20 -20 36 12 13 27
14 37 3 62 -11 28 -16 30 -63 30 -28 0 -57 -2 -63 -4z"/>
<path d="M7592 1229 c-23 -9 -29 -33 -11 -44 7 -5 9 -40 7 -98 l-3 -91 30 -6
c52 -10 68 -1 61 34 -24 128 -21 152 27 164 22 6 32 14 32 28 0 17 -8 19 -61
20 -33 0 -71 -3 -82 -7z"/>
<path d="M8006 1224 c-13 -12 -14 -20 -5 -36 8 -14 9 -50 5 -104 -7 -78 -6
-83 14 -94 12 -7 33 -9 46 -6 l24 6 -6 113 c-5 84 -10 115 -22 125 -21 16 -37
15 -56 -4z"/>
<path d="M6943 1215 c-3 -9 2 -25 12 -35 15 -16 17 -29 10 -77 -14 -104 -13
-107 20 -113 63 -12 64 -9 59 109 -3 58 -7 112 -10 119 -5 18 -83 16 -91 -3z"/>
</g>
</svg>
