<?xml version="1.0" standalone="no"?>
<!DOCTYPE svg PUBLIC "-//W3C//DTD SVG 20010904//EN"
 "http://www.w3.org/TR/2001/REC-SVG-20010904/DTD/svg10.dtd">
<svg version="1.0" xmlns="http://www.w3.org/2000/svg"
 width="300.000000pt" height="117.000000pt" viewBox="0 0 300.000000 117.000000"
 preserveAspectRatio="xMidYMid meet">
<metadata>
Created by potrace 1.10, written by Peter Selinger 2001-2011
</metadata>
<g transform="translate(0.000000,117.000000) scale(0.050000,-0.050000)"
fill="White" stroke="none">
<path d="M526 1788 c-239 -115 -391 -346 -403 -610 l-7 -152 137 0 c283 2 494
-203 496 -481 l1 -125 81 0 82 0 -1 125 c-1 275 213 483 495 482 l137 -1 -8
152 c-13 268 -156 489 -395 608 l-108 53 -98 -91 -98 -92 -53 47 c-29 26 -69
67 -90 92 -45 55 -40 55 -168 -7z m536 -210 c86 -43 192 -159 232 -254 34 -81
40 -72 -82 -102 -105 -26 -301 -144 -339 -205 -31 -50 -33 -49 -138 51 -88 85
-269 172 -356 172 -49 0 -49 12 3 110 135 256 428 354 680 228z"/>
<path d="M2258 1825 c-1 -8 0 -67 2 -131 l3 -117 -177 5 -176 4 -6 -54 -7 -55
167 3 c91 2 172 2 180 1 77 -7 -136 -311 -276 -393 -83 -49 -128 -148 -67
-148 88 0 303 174 359 290 53 109 50 108 98 14 62 -122 285 -304 371 -304 45
0 4 118 -46 136 -91 32 -197 138 -254 255 -73 149 -67 156 127 151 164 -5 164
-4 164 47 0 51 0 51 -178 51 l-177 0 10 130 10 130 -62 0 c-35 0 -64 -7 -65
-15z"/>
<path d="M4180 1709 l0 -131 -175 4 -175 4 -6 -53 -7 -53 172 0 c190 0 195 -5
143 -128 -39 -93 -164 -227 -256 -274 -73 -37 -113 -138 -55 -138 86 0 297
169 360 288 55 104 70 112 86 45 25 -100 225 -285 348 -322 74 -23 65 98 -10
124 -123 43 -264 213 -294 355 l-12 60 170 -6 171 -7 0 51 c0 50 -3 51 -174
56 l-173 6 5 125 5 125 -62 0 -61 0 0 -131z"/>
<path d="M4904 1775 c5 -50 15 -65 46 -65 31 0 41 15 46 65 6 58 1 65 -46 65
-47 0 -52 -7 -46 -65z"/>
<path d="M5104 1775 c5 -50 15 -65 46 -65 31 0 41 15 46 65 6 58 1 65 -46 65
-47 0 -52 -7 -46 -65z"/>
<path d="M5379 1778 c-45 -108 -89 -122 -360 -115 l-242 6 -5 -115 c-6 -113
-5 -114 51 -114 52 0 57 6 57 71 l0 70 305 -5 305 -6 6 -65 c13 -135 104 -89
104 53 l0 117 -90 -10 c-104 -12 -107 -5 -40 83 63 83 63 92 -8 92 -45 0 -63
-13 -83 -62z"/>
<path d="M2860 1370 l0 -430 53 0 53 0 -11 375 c-11 405 -9 425 43 425 57 0
61 -18 26 -112 -30 -82 -30 -92 2 -146 39 -67 44 -166 11 -220 -41 -65 -5
-119 47 -67 55 55 72 216 30 297 -27 53 -27 67 8 158 57 151 58 150 -112 150
l-150 0 0 -430z"/>
<path d="M3217 1595 c9 -258 -19 -390 -98 -466 -65 -62 -66 -66 -41 -106 46
-73 202 130 202 264 0 40 9 73 20 73 11 0 20 -8 20 -17 0 -10 23 -52 52 -94
l52 -76 -82 -68 c-55 -46 -82 -84 -82 -117 0 -59 18 -60 81 -5 27 24 68 61 92
82 42 38 43 37 136 -34 106 -80 151 -90 151 -32 0 24 -35 63 -90 101 -96 66
-106 89 -62 151 22 32 112 290 112 323 0 5 -83 7 -185 3 l-185 -5 0 69 0 69
185 -7 185 -7 0 52 0 52 -235 0 -235 0 7 -205z m332 -113 c16 -26 -55 -212
-80 -210 -26 3 -108 149 -109 193 0 39 166 53 189 17z"/>
<path d="M4940 1481 c0 -36 16 -40 165 -46 162 -6 164 -7 100 -35 -38 -17 -65
-43 -65 -64 0 -32 -21 -36 -190 -36 -184 0 -190 -1 -190 -45 0 -44 4 -45 190
-38 l190 7 0 -68 c0 -79 -30 -116 -94 -116 -36 0 -46 -11 -46 -50 0 -57 35
-64 137 -28 78 27 103 70 103 179 l0 84 190 -9 c187 -8 190 -7 190 38 0 45 -5
46 -190 46 -215 0 -225 8 -98 85 157 95 122 124 -157 131 -223 5 -235 3 -235
-35z"/>
<path d="M1909 731 c-100 -100 -44 -311 82 -311 82 0 129 66 129 180 0 165
-109 233 -211 131z m127 -35 c34 -34 30 -166 -6 -196 -74 -62 -142 79 -81 171
36 55 52 60 87 25z"/>
<path d="M2191 749 c-58 -59 -39 -124 49 -169 44 -22 80 -50 80 -61 0 -38 -62
-44 -100 -9 -37 34 -40 34 -53 0 -30 -79 119 -121 182 -51 53 58 26 134 -59
170 -39 16 -70 38 -70 49 0 37 43 46 77 15 55 -50 98 -8 45 45 -50 50 -107 54
-151 11z"/>
<path d="M2469 725 c-7 -30 -25 -101 -41 -158 -40 -148 -16 -223 32 -97 12 30
35 50 59 50 26 0 45 -17 53 -50 7 -28 25 -50 40 -50 35 0 35 19 0 147 -16 57
-34 128 -41 158 -8 37 -24 55 -51 55 -27 0 -43 -18 -51 -55z"/>
<path d="M2684 610 c6 -159 39 -242 52 -130 13 105 25 111 71 29 54 -96 177
-119 189 -34 9 63 99 63 108 0 6 -47 76 -76 76 -31 -2 146 -141 404 -168 312
-5 -14 -25 -87 -45 -161 -43 -160 -44 -160 -107 -46 l-48 90 44 47 c50 53 57
94 16 94 -16 0 -50 -34 -75 -75 l-47 -75 -6 75 c-14 170 -66 87 -60 -95z"/>
<path d="M3311 762 c-6 -11 -7 -67 -2 -125 5 -59 10 -118 10 -131 3 -82 135
-112 201 -46 52 52 60 320 10 320 -23 0 -30 -27 -30 -125 -1 -240 -106 -258
-116 -20 -5 138 -35 188 -73 127z"/>
<path d="M3617 630 c-2 -82 -4 -161 -5 -175 -1 -14 12 -25 28 -25 24 0 29 24
23 120 -8 139 13 133 73 -20 26 -67 51 -100 74 -100 44 0 57 331 14 345 -17 6
-25 -27 -26 -108 l-2 -117 -52 115 c-79 173 -123 160 -127 -35z"/>
<path d="M3909 755 c-25 -65 0 -325 31 -325 40 0 45 332 5 345 -14 5 -30 -5
-36 -20z"/>
<path d="M4016 769 c-27 -27 78 -339 114 -339 35 0 148 319 122 345 -30 30
-66 -25 -90 -138 l-28 -127 -33 129 c-30 118 -56 159 -85 130z"/>
<path d="M4296 765 c-4 -8 -6 -87 -6 -175 l0 -160 105 -6 c84 -5 105 0 105 25
0 22 -20 31 -70 31 -61 0 -70 6 -70 50 0 40 10 50 50 50 31 0 50 11 50 30 0
19 -19 30 -50 30 -37 0 -50 11 -50 40 0 32 13 40 70 40 49 0 70 9 70 30 0 32
-191 46 -204 15z"/>
<path d="M4540 601 c0 -189 42 -260 56 -94 8 92 37 94 75 4 15 -37 38 -74 50
-82 40 -24 47 11 15 77 -27 57 -28 71 -4 104 62 85 20 147 -111 164 l-81 11 0
-184z m150 69 c0 -26 -15 -42 -45 -46 -37 -6 -45 3 -45 46 0 43 8 52 45 46 30
-4 45 -20 45 -46z"/>
<path d="M4832 754 c-59 -43 -35 -138 43 -173 39 -17 65 -43 65 -65 0 -46 -71
-48 -96 -3 -18 32 -64 23 -64 -13 0 -36 65 -80 119 -80 121 0 140 148 26 199
-39 17 -65 43 -65 65 0 44 46 47 80 6 24 -29 60 -24 60 10 0 65 -106 99 -168
54z"/>
<path d="M5059 772 c-15 -122 0 -342 23 -342 38 0 41 332 3 345 -14 5 -26 3
-26 -3z"/>
<path d="M5153 767 c-25 -25 -13 -44 32 -51 42 -6 45 -17 47 -146 2 -112 9
-141 35 -146 28 -6 33 15 33 145 l0 151 57 0 c67 0 103 -60 121 -200 17 -128
82 -141 83 -16 0 56 18 114 50 166 59 96 60 110 11 110 -24 0 -46 -22 -59 -60
-12 -33 -28 -60 -38 -60 -9 0 -26 27 -39 60 -22 59 -284 96 -333 47z"/>
</g>
</svg>
