<?xml version="1.0" standalone="no"?>
<!DOCTYPE svg PUBLIC "-//W3C//DTD SVG 20010904//EN"
 "http://www.w3.org/TR/2001/REC-SVG-20010904/DTD/svg10.dtd">
<svg version="1.0" xmlns="http://www.w3.org/2000/svg"
 width="900.000000pt" height="360.000000pt" viewBox="0 0 900.000000 360.000000"
 preserveAspectRatio="xMidYMid meet">
<metadata>
Created by potrace 1.10, written by Peter Selinger 2001-2011
</metadata>
<g transform="translate(0.000000,360.000000) scale(0.100000,-0.100000)"
fill="White" stroke="none">
<path d="M5 1800 c0 -993 1 -1399 2 -902 2 496 2 1308 0 1805 -1 496 -2 90 -2
-903z"/>
<path d="M1884 2765 c-4 -9 10 -37 34 -68 37 -48 82 -134 82 -155 0 -5 7 -23
15 -38 8 -16 15 -37 15 -46 0 -9 7 -43 15 -75 32 -124 16 -325 -39 -487 -76
-222 -227 -398 -450 -525 -115 -65 -301 -111 -451 -111 -181 0 -414 68 -498
145 -28 27 -67 33 -67 12 0 -16 54 -93 147 -206 109 -134 280 -253 438 -304
155 -50 166 -52 335 -52 131 0 179 4 230 19 380 108 639 354 743 706 9 30 24
104 33 163 16 102 16 114 -1 230 -9 67 -24 137 -31 156 -8 18 -14 40 -14 48 0
26 -92 204 -138 267 -79 108 -229 240 -363 318 -26 16 -30 16 -35 3z m230
-218 c195 -198 296 -435 296 -694 0 -137 -37 -334 -68 -365 -7 -7 -12 -18 -12
-26 0 -22 -53 -108 -112 -182 -65 -81 -203 -210 -225 -210 -7 0 -13 -4 -13 -8
0 -10 -139 -82 -157 -82 -7 0 -13 10 -13 21 0 12 -16 43 -36 70 -20 27 -34 56
-31 64 3 7 21 17 40 20 43 8 100 -15 144 -57 l33 -32 20 22 c27 29 26 36 -17
69 -64 49 -116 67 -154 54 -50 -17 -56 -3 -36 81 19 82 22 138 7 138 -5 0 -20
-10 -32 -22 -18 -18 -25 -41 -33 -112 -6 -50 -15 -91 -22 -93 -6 -2 -23 21
-37 51 -22 46 -31 56 -51 56 -31 0 -33 16 -2 26 12 4 48 26 80 50 31 24 59 44
62 44 2 0 29 23 60 52 50 46 75 78 166 213 44 65 86 148 94 185 4 19 11 40 16
45 33 42 49 351 24 465 -16 71 -36 134 -56 172 -29 56 3 49 65 -15z m-544
-1256 c0 -10 26 -59 58 -107 32 -49 72 -113 88 -142 21 -39 36 -55 57 -59 15
-3 27 -9 27 -14 0 -5 -12 -11 -27 -14 -16 -3 -44 -10 -63 -15 -163 -41 -393
-33 -550 20 -159 53 -242 105 -387 241 -78 73 -85 100 -16 64 58 -30 171 -55
278 -61 110 -6 290 8 323 25 9 5 50 20 90 32 39 13 72 26 72 30 0 7 18 14 43
18 4 0 7 -8 7 -18z"/>
<path d="M1993 1674 c-13 -14 -23 -28 -23 -32 0 -3 -6 -13 -13 -21 -24 -29
-39 -91 -32 -129 17 -90 74 -146 163 -158 74 -10 124 9 171 64 23 26 41 54 41
63 0 8 4 19 9 25 5 5 12 19 15 30 5 18 -4 29 -54 65 -33 24 -60 47 -60 52 0 4
-10 7 -23 7 -17 0 -33 -16 -65 -64 -48 -73 -50 -82 -21 -89 26 -7 49 1 49 17
0 7 11 23 24 35 l25 23 30 -23 c16 -13 30 -28 30 -34 1 -18 -38 -74 -63 -90
-40 -26 -120 -22 -160 8 -66 51 -66 157 0 198 37 23 42 39 18 63 -22 22 -35
20 -61 -10z"/>
<path d="M2294 1685 c-10 -25 5 -62 26 -68 35 -9 59 28 44 67 -8 21 -63 21
-70 1z"/>
<path d="M2009 1229 c-9 -17 -7 -25 11 -44 26 -28 58 -22 66 11 9 37 -2 54
-35 54 -21 0 -34 -7 -42 -21z"/>
<path d="M2905 1944 l0 -426 54 5 c30 3 58 12 62 19 5 7 7 127 4 267 -3 177
-1 259 6 268 6 7 30 13 53 13 37 0 45 -5 74 -42 52 -67 36 -122 -32 -111 -36
6 -50 -5 -40 -32 6 -14 15 -16 48 -11 23 3 51 8 63 12 27 7 46 -24 37 -61 -6
-25 -7 -26 -78 -20 -72 6 -105 -3 -91 -25 5 -8 32 -11 84 -8 73 3 76 2 79 -20
4 -30 -35 -81 -101 -134 -55 -43 -64 -60 -33 -66 58 -12 226 98 226 148 0 38
29 20 61 -40 36 -68 74 -99 98 -81 45 32 52 28 60 -32 l6 -42 51 -3 c45 -3 55
1 82 27 l32 29 0 330 c0 281 2 331 15 342 26 22 16 44 -36 78 -61 38 -72 39
-96 9 -17 -22 -23 -23 -95 -17 -45 4 -87 13 -102 23 -52 34 -54 30 -49 -125 2
-79 9 -152 14 -163 14 -31 -12 -117 -41 -132 -38 -19 -53 -6 -46 38 5 34 3 41
-24 61 -35 26 -37 34 -10 41 18 5 20 14 20 89 0 59 4 90 15 104 23 30 18 41
-37 78 l-53 35 -30 -28 c-29 -28 -32 -29 -98 -20 -43 5 -78 16 -94 29 -14 11
-33 20 -42 20 -14 0 -16 -41 -16 -426z m234 328 c6 -10 7 -28 4 -40 -4 -19
-13 -22 -52 -22 -50 0 -71 13 -71 42 0 17 12 22 70 31 14 3 28 5 32 6 4 0 12
-7 17 -17z m446 -27 c0 -30 0 -30 -60 -30 -50 0 -60 3 -63 18 -8 39 5 48 65
45 57 -3 58 -3 58 -33z m-439 -80 c9 -36 -10 -54 -54 -50 -20 1 -45 3 -54 4
-13 1 -18 9 -18 30 0 34 9 39 72 40 43 1 48 -2 54 -24z m442 -17 c-3 -32 -5
-33 -48 -34 -70 -1 -80 4 -80 37 l0 29 66 0 65 0 -3 -32z m0 -286 c2 -209 1
-223 -15 -220 -10 2 -19 13 -21 25 -2 15 -13 24 -32 28 -15 3 -43 14 -62 23
-105 54 -103 78 6 80 42 1 81 4 86 7 15 9 -1 35 -32 51 -29 15 -31 15 -57 -10
-20 -20 -38 -26 -69 -26 l-42 0 0 40 c0 37 3 41 30 47 24 4 30 11 30 32 0 20
10 31 41 49 42 24 42 38 0 44 -26 3 -42 28 -18 28 8 0 20 7 27 15 10 12 28 15
69 13 l56 -3 3 -223z"/>
<path d="M3456 1946 c-16 -13 -26 -28 -22 -34 5 -8 46 -9 99 -3 14 2 7 23 -15
42 -29 23 -27 23 -62 -5z"/>
<path d="M5076 2361 c-4 -6 11 -32 33 -58 23 -25 41 -53 41 -62 0 -50 61 -79
92 -43 57 65 -5 149 -123 168 -22 4 -39 2 -43 -5z"/>
<path d="M5361 2352 c-5 -10 -14 -35 -21 -57 -16 -54 -51 -128 -64 -137 -13
-9 -220 -11 -229 -2 -3 4 0 16 8 28 42 59 -18 131 -128 151 -52 10 -61 -16
-20 -53 32 -29 85 -117 75 -126 -8 -8 -65 -7 -78 2 -7 4 -13 16 -15 27 -6 28
-39 33 -39 5 0 -32 -17 -58 -50 -75 -68 -35 -72 -109 -9 -136 44 -17 79 11
100 82 l16 54 272 2 c299 3 297 4 266 -56 -18 -37 -26 -38 -65 -10 -26 20 -32
21 -60 9 -21 -9 -89 -13 -208 -14 -170 -1 -177 -2 -177 -21 0 -19 6 -20 168
-18 186 1 193 -2 136 -58 -23 -23 -37 -29 -53 -24 -53 17 -61 12 -66 -35 l-5
-44 -176 3 c-185 3 -196 0 -184 -40 7 -20 12 -21 163 -16 87 2 166 6 177 8 18
4 20 -2 23 -70 2 -41 -1 -78 -6 -83 -4 -4 -29 -2 -55 6 -41 12 -49 12 -62 0
-21 -21 -8 -42 28 -46 28 -3 34 -9 45 -45 14 -43 14 -43 60 -43 30 0 58 7 77
20 30 20 30 20 35 137 l5 117 175 1 175 1 2 24 c2 19 -7 32 -42 58 -24 17 -49
32 -55 32 -6 0 -23 -13 -37 -30 -21 -25 -32 -30 -71 -30 -26 -1 -65 -4 -87 -9
-49 -9 -65 -5 -65 17 1 28 130 112 173 112 14 0 39 16 62 41 22 22 61 52 88
65 63 33 62 43 -13 93 -55 37 -58 37 -70 6 -9 -23 -15 -25 -70 -25 -47 0 -60
3 -60 15 0 8 4 15 9 15 4 0 24 13 42 30 19 16 53 38 76 47 43 18 54 38 31 61
-7 7 -21 12 -33 12 -11 0 -29 6 -40 13 -34 23 -64 27 -74 9z"/>
<path d="M5720 2363 c-6 -107 -3 -844 3 -846 5 -1 32 0 60 3 l52 5 -2 112 c-2
92 0 112 13 117 11 4 20 -5 30 -30 18 -43 33 -49 79 -34 57 19 65 33 65 116
l0 75 33 -3 32 -3 -1 -81 c-1 -78 -3 -83 -38 -130 -35 -46 -126 -113 -153
-114 -7 0 -13 -10 -13 -21 0 -20 4 -21 45 -16 57 8 160 59 203 100 47 45 65
90 71 182 6 75 8 80 30 83 13 2 27 -2 32 -9 4 -8 5 -79 2 -160 -7 -183 -11
-179 147 -179 115 0 135 8 158 63 17 39 16 40 -23 61 -32 17 -34 22 -37 75 -2
44 -7 57 -20 59 -15 3 -18 -4 -18 -35 0 -21 -5 -55 -11 -76 -9 -35 -13 -38
-42 -35 l-32 3 0 115 0 115 88 3 c82 3 87 4 87 25 0 15 -14 31 -44 50 -56 35
-69 34 -102 -8 l-26 -35 -184 0 -184 0 -17 28 c-20 30 -84 92 -95 92 -13 0 -9
30 6 58 8 15 25 49 37 76 12 27 35 64 52 83 33 38 31 56 -13 81 -16 9 -30 20
-30 25 0 4 -11 7 -24 7 -16 0 -31 -11 -44 -32 -19 -30 -20 -34 -5 -50 14 -16
14 -27 -2 -122 -17 -96 -17 -109 -2 -148 8 -24 23 -76 32 -116 20 -84 13 -102
-41 -102 -27 0 -35 5 -39 23 -8 32 -1 448 9 473 6 18 2 23 -26 34 -18 8 -44
22 -57 32 -25 19 -41 23 -41 11z"/>
<path d="M6181 2361 c-10 -6 -12 -23 -9 -59 3 -29 0 -56 -6 -62 -17 -17 -64
-11 -85 11 l-20 21 -14 -33 c-8 -19 -26 -47 -41 -62 -30 -33 -33 -67 -8 -90
38 -34 75 -12 101 60 l17 48 144 0 145 0 0 -29 c0 -24 -6 -31 -30 -39 -16 -5
-41 -20 -56 -33 -22 -22 -34 -24 -115 -24 -49 0 -99 -3 -111 -6 -27 -7 -30
-29 -6 -38 23 -9 352 5 358 15 3 4 1 18 -4 32 -8 20 -5 28 15 46 14 12 42 29
64 37 51 21 52 45 3 75 -21 13 -44 30 -51 39 -11 13 -14 12 -32 -8 -20 -24
-85 -38 -122 -26 -27 8 -22 45 9 70 43 34 26 54 -46 54 -33 0 -65 2 -73 5 -7
3 -19 1 -27 -4z"/>
<path d="M7935 2360 c-4 -7 7 -27 28 -48 19 -21 38 -48 42 -62 20 -66 51 -84
93 -54 27 19 30 79 4 109 -39 45 -150 82 -167 55z"/>
<path d="M6982 2241 c3 -66 2 -125 -2 -131 -6 -10 -23 -10 -76 0 -38 6 -109
10 -159 8 -89 -3 -90 -3 -93 -30 -3 -22 2 -27 27 -33 17 -3 34 -4 39 -1 11 6
261 11 267 4 8 -8 -11 -149 -25 -188 -25 -68 -56 -118 -103 -169 -46 -49 -138
-121 -154 -121 -5 0 -21 -11 -37 -23 -33 -26 -28 -47 9 -47 33 0 230 101 282
145 76 63 122 148 139 253 7 46 23 51 35 11 25 -88 36 -120 57 -163 29 -58
185 -216 213 -216 11 0 23 10 29 25 5 13 23 31 40 40 21 11 30 21 26 31 -3 9
-6 17 -6 19 0 1 -24 15 -52 30 -73 38 -162 117 -209 186 -21 32 -39 62 -39 67
0 5 -7 15 -15 22 -8 7 -15 20 -15 30 0 10 -7 23 -15 30 -9 7 -15 20 -13 28 3
13 30 16 183 16 175 1 180 2 183 22 2 14 -9 30 -35 50 -21 15 -44 34 -51 41
-19 18 -21 17 -62 -27 -35 -38 -39 -40 -99 -40 -34 0 -71 -5 -82 -11 -36 -19
-49 5 -49 88 0 67 2 76 26 98 38 36 26 50 -54 63 -125 21 -116 30 -110 -107z"/>
<path d="M8216 2348 c-12 -45 -42 -129 -58 -160 l-18 -38 -114 0 c-62 0 -115
3 -119 6 -3 4 3 19 14 34 20 26 20 29 4 59 -18 36 -62 66 -116 81 -72 20 -91
-11 -34 -55 21 -16 38 -39 42 -56 3 -16 12 -34 19 -40 21 -17 7 -29 -32 -29
-28 0 -36 5 -44 26 -14 37 -53 30 -60 -11 -3 -16 -14 -34 -25 -40 -59 -30 -79
-59 -69 -100 8 -33 64 -61 92 -46 30 16 54 55 61 99 l6 37 270 3 c149 1 276 0
283 -3 10 -3 8 -14 -8 -45 -21 -42 -39 -50 -59 -26 -17 21 -61 29 -78 15 -10
-9 -69 -13 -196 -13 -175 -1 -182 -2 -182 -21 0 -19 6 -20 168 -18 152 1 167
-1 167 -16 0 -10 -13 -30 -29 -45 -26 -25 -32 -27 -66 -17 -54 15 -67 6 -63
-42 l3 -41 -183 3 -183 3 3 -29 3 -28 180 0 180 0 3 -63 c4 -84 -4 -94 -68
-77 -54 14 -60 12 -60 -22 0 -17 6 -23 21 -23 35 0 58 -19 65 -55 6 -34 8 -35
51 -35 51 0 100 24 110 55 4 11 7 65 7 120 l1 99 175 1 175 0 3 25 c2 20 -6
32 -43 58 -25 17 -51 32 -57 32 -6 0 -23 -13 -37 -30 -25 -28 -29 -29 -125
-32 -64 -2 -100 1 -103 8 -7 20 140 114 179 114 14 0 39 17 62 41 22 22 64 51
93 65 62 30 61 41 -11 92 l-46 33 -24 -25 c-20 -22 -32 -26 -80 -26 -38 0 -56
4 -56 13 1 16 80 74 136 98 24 11 44 24 44 28 0 15 -36 41 -56 41 -11 0 -29 7
-40 15 -23 18 -73 20 -78 3z"/>
<path d="M4548 2308 l-31 -33 -346 0 c-339 0 -346 0 -346 -20 0 -19 7 -20 120
-20 l120 0 7 -64 c4 -35 5 -68 2 -73 -3 -4 -25 -8 -50 -8 -33 0 -54 7 -77 24
-63 48 -60 61 -61 -281 l-1 -313 35 0 c53 0 85 20 85 54 l0 28 243 2 242 1 0
-32 c0 -17 3 -34 8 -37 4 -2 32 1 62 8 l55 13 0 227 c0 209 1 229 18 241 23
17 19 46 -8 60 -11 5 -35 20 -52 33 -39 28 -47 28 -61 -3 -11 -23 -17 -25 -77
-25 l-66 0 3 73 3 72 140 2 c77 1 146 2 153 2 18 1 15 29 -7 49 -30 28 -64 52
-74 52 -5 0 -23 -15 -39 -32z m-290 -145 c3 -71 2 -73 -23 -79 -44 -11 -56 11
-48 89 l6 68 31 -3 31 -3 3 -72z m-10 -102 c11 -6 13 -37 10 -134 -3 -117 -1
-127 17 -141 23 -18 170 -22 180 -6 3 6 15 10 26 10 17 0 19 -7 19 -59 0 -33
-2 -65 -5 -73 -4 -10 -54 -13 -248 -12 -237 1 -242 2 -245 22 -4 25 14 62 29
62 20 0 89 61 107 94 28 51 42 108 42 168 0 44 4 59 18 67 21 13 33 13 50 2z
m-176 -91 c-1 -47 -10 -105 -19 -130 -16 -45 -40 -73 -53 -65 -7 4 -2 249 6
273 2 8 16 12 36 10 l33 -3 -3 -85z m422 73 c3 -10 6 -52 8 -93 3 -69 1 -75
-17 -75 -16 0 -21 8 -23 43 -4 56 -32 60 -32 4 0 -21 -5 -43 -12 -50 -16 -16
-48 -15 -49 1 -3 26 3 172 8 180 2 4 28 7 58 7 42 0 55 -4 59 -17z"/>
<path d="M2913 1313 c-10 -3 -13 -48 -13 -174 l0 -169 30 0 c33 0 33 0 30 86
-1 36 3 65 9 69 29 17 126 -74 133 -125 2 -17 10 -26 26 -28 20 -3 22 1 22 36
0 51 -44 113 -94 132 -14 5 -26 15 -26 22 0 13 103 128 114 128 7 0 56 -104
56 -119 0 -6 4 -11 9 -11 5 0 12 -12 16 -27 3 -16 15 -46 25 -68 10 -22 24
-53 30 -68 13 -37 32 -30 48 19 7 21 19 45 27 53 12 13 15 12 20 -5 16 -51 36
-84 50 -84 8 0 15 8 15 18 0 17 42 123 96 240 27 59 28 68 14 77 -22 14 -49
-7 -56 -41 -3 -19 -10 -37 -15 -40 -5 -3 -9 -13 -9 -22 0 -9 -7 -30 -15 -46
-8 -15 -15 -41 -15 -57 0 -15 -4 -30 -9 -34 -13 -7 -51 43 -51 66 0 11 -4 27
-9 37 -24 43 -41 86 -41 102 0 32 -31 49 -59 31 -11 -7 -7 -23 23 -83 31 -64
36 -81 30 -117 -4 -24 -11 -40 -18 -38 -6 2 -26 42 -44 88 -62 156 -59 152
-121 153 l-54 1 -48 -60 c-27 -33 -48 -66 -49 -72 0 -7 -7 -13 -15 -13 -11 0
-15 17 -17 72 -3 73 -11 86 -45 71z"/>
<path d="M3794 1309 c-3 -6 -5 -65 -3 -132 1 -67 2 -139 1 -160 -1 -26 3 -40
14 -44 32 -12 41 17 34 112 -11 134 -10 134 94 -4 73 -96 75 -98 129 -109 101
-20 162 20 162 106 0 38 -5 48 -41 80 -23 20 -52 44 -64 52 -17 12 -21 21 -15
39 6 21 11 23 45 17 30 -5 39 -2 44 10 10 25 -13 44 -51 44 -50 0 -71 -15 -79
-56 -7 -40 16 -104 39 -104 19 0 87 -65 87 -82 0 -8 -9 -25 -19 -37 -16 -19
-28 -22 -73 -19 l-53 3 -1 127 c-1 70 -4 135 -8 143 -3 8 -17 15 -32 15 l-27
0 6 -100 c5 -78 3 -100 -7 -100 -7 0 -46 47 -86 105 -41 58 -78 105 -82 105
-4 0 -10 -5 -14 -11z"/>
<path d="M4275 1311 l-30 -6 0 -163 c0 -141 2 -163 16 -167 9 -3 64 -5 123 -4
l106 2 0 167 0 167 -67 6 c-77 8 -106 7 -148 -2z m155 -167 c0 -68 -3 -125 -7
-127 -5 -2 -37 -1 -73 2 l-65 6 0 45 0 45 53 3 c28 2 52 7 52 13 0 5 1 12 3
17 1 4 -23 9 -53 12 -53 5 -55 6 -58 37 -6 59 9 72 83 71 l65 -1 0 -123z"/>
<path d="M4678 1291 c-60 -38 -82 -80 -82 -153 1 -119 106 -196 229 -168 54
12 65 31 65 116 l0 73 -33 6 c-18 4 -49 5 -68 3 -26 -2 -34 -8 -34 -23 0 -16
8 -21 42 -23 36 -3 44 -7 49 -28 10 -38 -3 -71 -29 -76 -51 -10 -98 4 -133 39
-28 28 -34 41 -34 78 0 61 26 101 79 121 37 14 50 15 79 4 40 -14 55 -4 50 31
-3 22 -8 24 -68 27 -58 2 -70 -1 -112 -27z"/>
<path d="M5234 1308 c-5 -7 -7 -84 -4 -173 5 -152 6 -160 25 -160 18 0 20 8
23 70 2 39 7 74 11 78 10 10 76 -24 102 -52 11 -11 23 -37 27 -58 6 -29 13
-39 30 -41 32 -5 37 21 13 70 -27 54 -38 68 -78 97 -18 12 -33 25 -33 29 0 4
23 31 50 61 50 53 59 74 40 86 -19 12 -45 -5 -70 -46 -31 -51 -90 -117 -91
-104 -1 6 -2 41 -3 80 -1 55 -4 70 -17 73 -9 1 -20 -3 -25 -10z"/>
<path d="M5487 1314 c-4 -4 -7 -66 -7 -137 0 -128 0 -129 30 -167 52 -65 149
-62 189 6 18 31 21 51 21 165 l0 130 -27 -3 -28 -3 4 -113 c4 -126 -7 -167
-45 -176 -36 -9 -72 3 -80 27 -4 12 -6 77 -5 145 1 75 -2 122 -8 122 -5 0 -16
2 -23 5 -8 3 -17 2 -21 -1z"/>
<path d="M5844 1307 c-2 -7 -3 -85 -2 -172 l3 -160 25 0 25 0 0 102 c0 57 4
103 9 104 9 1 96 -111 134 -174 19 -29 27 -35 40 -28 15 8 17 28 14 170 -3
137 -5 163 -19 168 -30 12 -39 -19 -32 -113 4 -49 3 -93 -1 -97 -8 -9 -48 37
-130 150 -46 64 -57 72 -66 50z"/>
<path d="M6218 1308 c-25 -20 -11 -262 17 -301 26 -35 82 -51 134 -37 62 16
71 40 75 193 4 132 -2 161 -30 150 -11 -4 -14 -31 -14 -132 0 -114 -2 -129
-20 -149 -25 -27 -60 -28 -91 -3 -23 18 -24 23 -21 146 3 98 0 130 -10 136
-17 12 -21 11 -40 -3z"/>
<path d="M6682 1308 c-7 -7 -9 -45 -5 -109 4 -59 2 -99 -3 -99 -6 0 -45 47
-88 105 -54 73 -84 105 -98 105 -18 0 -19 -4 -12 -37 8 -40 7 -193 -2 -255 -5
-34 -3 -38 21 -44 14 -3 29 -4 32 0 4 3 5 54 4 112 -1 63 1 105 7 103 10 -4
105 -127 133 -174 13 -20 28 -31 46 -32 16 -1 41 -4 58 -5 l29 -3 -3 165 c-1
91 -4 167 -6 169 -2 2 -16 1 -30 -3 -22 -6 -24 -10 -18 -34 5 -15 8 -75 8
-133 0 -79 -4 -110 -15 -124 -14 -17 -15 -15 -22 21 -4 21 -4 91 -1 155 5 98
4 117 -9 122 -9 3 -20 1 -26 -5z"/>
<path d="M6831 1306 c-13 -15 -8 -27 85 -222 19 -39 34 -79 34 -88 0 -26 54
-17 58 9 4 17 14 45 52 130 26 59 39 92 45 113 4 13 12 21 18 19 9 -3 11 -44
9 -145 -4 -165 -13 -155 131 -151 135 3 123 -11 119 139 -5 140 1 160 43 160
25 0 65 -42 65 -67 0 -8 -14 -27 -32 -43 -26 -24 -29 -31 -18 -44 7 -9 17 -16
22 -16 23 0 58 -46 58 -77 0 -35 28 -58 58 -49 10 3 33 1 52 -4 75 -22 140 25
140 102 0 58 -11 77 -66 113 -77 51 -70 95 12 79 31 -6 34 -4 34 19 0 29 -16
37 -70 37 -77 0 -109 -94 -49 -144 17 -14 34 -26 38 -26 19 0 61 -51 61 -73 0
-38 -30 -57 -88 -57 -39 0 -52 4 -56 18 -3 9 -22 35 -41 56 -38 43 -41 51 -24
62 7 4 10 27 7 60 -7 83 -59 116 -152 97 -30 -6 -58 -7 -68 -2 -9 5 -66 6
-127 2 -109 -6 -111 -7 -118 -32 -3 -14 -9 -30 -13 -36 -4 -5 -17 -39 -30 -75
-13 -36 -28 -71 -33 -77 -12 -16 -27 -17 -27 -2 0 6 -6 25 -14 42 -8 18 -24
55 -35 82 -44 103 -57 119 -80 91z m503 -186 c-3 -57 -6 -105 -7 -105 -1 0
-32 1 -69 3 l-68 4 0 49 0 49 44 0 c25 0 48 5 52 11 11 18 -15 34 -54 34 l-37
0 0 50 0 50 55 3 c30 2 59 8 65 13 17 17 25 -48 19 -161z"/>
<path d="M7845 1310 l-50 -5 0 -163 c0 -162 0 -163 23 -169 13 -3 26 -3 29 1
3 3 5 68 4 143 -1 76 2 143 7 150 5 8 17 10 37 4 l30 -7 5 -145 5 -144 25 0
25 0 -4 142 -3 142 26 6 c14 3 37 7 51 10 14 3 25 1 25 -4 0 -5 20 -36 45 -69
43 -59 44 -63 47 -144 3 -81 4 -83 28 -83 25 0 25 1 22 75 -4 81 -1 89 85 188
33 38 41 66 22 77 -15 10 -59 -3 -59 -18 0 -20 -60 -109 -71 -105 -5 2 -26 30
-47 62 l-37 59 -110 1 c-61 1 -132 -1 -160 -4z"/>
<path d="M3613 1302 c-6 -4 -15 -21 -18 -37 -4 -17 -20 -58 -36 -93 -16 -34
-29 -68 -29 -76 0 -7 -7 -19 -15 -26 -8 -7 -15 -20 -15 -30 0 -10 -7 -23 -15
-30 -12 -10 -13 -16 -4 -26 20 -24 48 -17 55 14 4 15 13 36 21 48 13 21 25 22
130 15 6 -1 15 -16 18 -33 9 -41 22 -58 46 -58 33 0 31 21 -6 98 -21 42 -44
92 -52 109 -7 18 -20 47 -28 65 -7 18 -16 41 -19 51 -6 18 -14 21 -33 9z m48
-154 c17 -33 11 -48 -20 -48 -51 0 -60 8 -50 42 4 17 16 39 26 50 17 19 18 19
26 -4 5 -13 13 -31 18 -40z"/>
<path d="M5025 1278 c-4 -18 -11 -39 -16 -48 -9 -17 -27 -60 -60 -145 -13 -33
-27 -61 -31 -63 -5 -2 -8 -15 -8 -28 0 -16 6 -24 18 -24 27 0 39 12 47 47 8
41 15 45 81 48 59 2 72 -6 89 -59 7 -21 17 -32 34 -34 30 -5 45 17 27 38 -15
16 -57 103 -101 210 -15 36 -32 71 -37 78 -18 21 -36 13 -43 -20z m62 -127
c17 -39 8 -51 -39 -51 -36 0 -39 8 -21 63 13 41 18 46 31 35 8 -7 21 -28 29
-47z"/>
<path d="M5750 1145 c0 -142 2 -167 16 -172 33 -12 39 17 36 180 l-3 157 -24
0 -25 0 0 -165z"/>
</g>
</svg>
