<?xml version="1.0" standalone="no"?>
<!DOCTYPE svg PUBLIC "-//W3C//DTD SVG 20010904//EN"
 "http://www.w3.org/TR/2001/REC-SVG-20010904/DTD/svg10.dtd">
<svg version="1.0" xmlns="http://www.w3.org/2000/svg"
 width="900.000000pt" height="900.000000pt" viewBox="0 0 900.000000 900.000000"
 preserveAspectRatio="xMidYMid meet">

<g transform="translate(0.000000,900.000000) scale(0.100000,-0.100000)"
fill="#000000" stroke="none">
<path d="M5600 7600 c0 -5 24 -47 53 -92 30 -46 73 -119 97 -163 24 -44 51
-93 60 -110 20 -36 111 -243 132 -300 24 -64 39 -108 48 -140 5 -16 18 -61 29
-100 27 -93 51 -197 61 -265 4 -30 13 -75 18 -100 6 -25 18 -133 28 -240 17
-203 15 -284 -11 -535 -13 -120 -69 -428 -83 -450 -3 -5 -9 -27 -13 -50 -4
-22 -24 -85 -44 -140 -20 -55 -40 -111 -45 -125 -11 -33 -64 -160 -77 -185 -6
-11 -23 -45 -37 -75 -150 -318 -410 -657 -701 -916 -82 -74 -327 -264 -339
-264 -3 0 -38 -21 -78 -47 -160 -104 -441 -236 -628 -294 -36 -12 -76 -26 -90
-31 -26 -11 -31 -13 -200 -51 -570 -130 -1089 -103 -1665 89 -188 62 -470 198
-638 308 -122 79 -127 77 -72 -30 104 -203 302 -495 429 -633 102 -111 288
-292 355 -346 79 -64 234 -182 267 -202 404 -259 750 -398 1214 -487 168 -33
280 -41 555 -41 372 0 518 18 840 105 139 38 144 39 305 100 246 93 523 244
740 404 245 181 483 417 662 658 74 99 103 142 180 266 65 105 216 412 236
482 6 19 20 60 32 90 12 30 25 69 30 85 4 17 20 73 35 125 58 209 68 261 95
475 42 337 20 780 -55 1085 -37 151 -95 342 -120 397 -8 17 -15 35 -15 40 0
18 -78 189 -142 314 -110 211 -235 401 -385 584 -56 67 -252 268 -342 349
-168 151 -435 332 -648 440 -56 28 -73 32 -73 16z m524 -494 c150 -121 329
-304 486 -496 50 -61 168 -231 180 -258 6 -13 21 -38 34 -55 22 -30 206 -397
206 -412 0 -4 6 -21 14 -38 8 -18 24 -63 36 -102 12 -38 26 -78 32 -88 5 -10
13 -37 18 -60 5 -23 23 -100 40 -172 60 -255 71 -337 77 -600 3 -138 1 -255
-6 -315 -7 -52 -16 -137 -21 -189 -4 -51 -13 -98 -19 -104 -6 -6 -11 -24 -11
-39 0 -26 -7 -60 -47 -213 -25 -96 -108 -341 -122 -360 -4 -5 -14 -26 -21 -45
-27 -73 -154 -319 -210 -408 -97 -153 -250 -350 -361 -466 -130 -137 -305
-293 -374 -336 -19 -12 -35 -25 -35 -29 0 -3 -17 -15 -37 -26 -20 -11 -41 -25
-47 -30 -21 -19 -121 -85 -130 -85 -5 0 -23 -11 -41 -24 -33 -26 -257 -143
-315 -165 -19 -8 -53 -22 -75 -31 -22 -10 -80 -32 -130 -50 -49 -18 -106 -38
-125 -45 -34 -12 -96 -29 -170 -45 -46 -11 -164 -37 -220 -49 -157 -34 -557
-51 -750 -31 -217 22 -255 27 -295 38 -22 6 -74 18 -115 28 -41 9 -96 23 -122
30 -26 8 -54 14 -63 14 -10 0 -31 6 -48 13 -44 19 -95 37 -137 48 -19 6 -44
14 -55 19 -11 5 -45 19 -75 30 -30 12 -75 32 -99 46 -24 13 -52 24 -62 24 -10
0 -20 4 -24 9 -3 6 -18 16 -33 24 -109 56 -141 73 -169 94 -17 12 -36 23 -41
23 -11 0 -190 125 -272 189 -98 77 -274 239 -359 332 -95 103 -211 245 -211
259 0 11 43 -1 100 -29 25 -12 74 -31 110 -43 36 -11 76 -25 90 -30 63 -27
194 -64 295 -83 39 -8 102 -21 140 -30 106 -24 436 -55 585 -55 118 1 460 34
557 55 40 9 103 22 140 29 38 7 84 18 103 24 19 6 82 25 140 43 58 17 119 37
135 44 17 7 53 21 80 30 28 10 57 24 66 32 8 7 23 13 32 13 20 0 237 108 325
162 34 21 64 38 66 38 21 0 326 223 431 314 116 102 305 297 382 396 16 20 34
42 41 50 111 130 402 622 402 681 0 8 6 23 13 34 36 53 157 425 171 525 4 25
11 59 16 75 34 115 70 442 70 647 0 194 -31 472 -75 663 -7 33 -21 96 -31 140
-10 44 -21 85 -25 90 -4 6 -10 25 -14 43 -4 18 -13 45 -21 60 -8 15 -14 37
-14 49 0 12 -4 25 -10 28 -5 3 -10 13 -10 22 0 8 -6 29 -14 46 -43 95 -66 148
-66 152 0 16 33 -4 114 -69z"/>
<path d="M5882 4154 c-92 -94 -117 -134 -178 -282 -26 -63 -26 -278 -1 -347
87 -237 212 -354 457 -426 251 -74 551 58 698 307 29 51 50 106 77 209 9 33
23 73 31 88 14 29 5 67 -15 67 -5 0 -105 72 -223 160 -117 88 -221 160 -230
160 -15 0 -88 -78 -88 -94 0 -7 -67 -94 -81 -106 -3 -3 -23 -30 -44 -60 -21
-30 -58 -75 -82 -100 -23 -25 -43 -50 -43 -56 0 -18 142 -124 167 -124 7 0 22
19 34 43 21 41 141 201 159 212 13 8 56 -16 112 -62 26 -21 59 -46 73 -56 35
-25 33 -67 -7 -146 -45 -89 -133 -176 -217 -213 -124 -57 -284 -49 -396 20
-73 46 -139 122 -165 192 -32 82 -34 221 -5 296 36 94 109 178 200 231 27 16
51 37 53 45 4 19 -148 138 -175 137 -10 0 -60 -43 -111 -95z"/>
<path d="M6885 4226 c-28 -23 -30 -28 -30 -95 0 -64 3 -73 28 -98 24 -24 35
-28 87 -28 54 0 62 3 94 34 32 31 36 40 36 88 0 47 -4 56 -35 88 -33 32 -41
35 -93 35 -45 0 -63 -5 -87 -24z"/>
<path d="M5198 3385 c-24 -19 -59 -46 -78 -59 -19 -14 -51 -38 -70 -55 -33
-28 -34 -31 -22 -63 16 -46 15 -117 -4 -273 -9 -71 -19 -161 -23 -199 -3 -38
-11 -71 -16 -73 -6 -2 -19 11 -29 29 -11 18 -44 71 -73 116 -30 46 -57 91 -60
100 -4 10 -17 31 -30 48 -12 17 -28 45 -34 62 -18 51 -58 43 -172 -36 -30 -21
-45 -38 -40 -45 4 -7 25 -37 48 -67 22 -30 46 -64 52 -75 7 -11 36 -58 65
-105 28 -47 55 -87 59 -90 4 -3 18 -25 31 -50 13 -25 42 -72 64 -105 22 -34
43 -67 48 -75 9 -19 23 -42 71 -115 22 -33 48 -76 58 -95 11 -19 26 -39 33
-43 8 -4 14 -13 14 -20 0 -7 14 -32 30 -57 16 -25 30 -56 30 -69 0 -21 3 -23
32 -17 18 4 51 16 73 28 22 12 57 30 78 41 43 22 43 39 -1 86 -15 16 -54 72
-87 126 -33 53 -74 118 -92 145 -48 74 -49 86 -13 103 81 41 257 46 339 11
146 -63 195 -99 248 -181 18 -29 40 -53 48 -53 8 0 36 14 62 31 26 18 63 41
81 53 56 37 53 50 -40 137 -45 44 -93 85 -105 92 -12 7 -46 28 -75 48 -29 20
-78 43 -108 52 -187 55 -206 56 -318 30 -82 -19 -96 -13 -86 37 23 110 34 192
55 435 5 61 16 136 24 168 23 89 5 100 -67 42z"/>
<path d="M6033 2824 c-40 -20 -73 -71 -73 -113 0 -90 94 -159 172 -126 57 23
78 58 78 126 0 65 -16 89 -77 115 -41 18 -60 17 -100 -2z"/>
</g>
</svg>
