<svg class="reload" version="1.1" xmlns="http://www.w3.org/2000/svg" xmlns:xlink="http://www.w3.org/1999/xlink" preserveAspectRatio="xMidYMid meet" viewBox="0 0 640 640" width="640" height="640">
<defs>
<style>
  .reload .arrow{
    transform-origin:320px 320px;
    animation: reload-roll 1s linear infinite;
  }
  @keyframes reload-roll {
      0% {transform:rotate(0deg);}
    100% {transform:rotate(360deg);}
  }
</style>

<path class="arrow" d="M453.66 10.8C456.86 15.71 461.45 23.49 464 28.18C466.56 32.87 469.44 38.09 470.4 39.9C472.53 43.74 482.23 65.81 484.47 71.88C487.03 78.7 488.63 83.39 489.59 86.81C490.12 88.51 491.51 93.31 492.68 97.47C495.56 107.38 498.11 118.46 499.18 125.71C499.61 128.91 500.57 133.71 501.1 136.37C501.74 139.04 503.02 150.55 504.08 161.95C505.9 183.59 505.68 192.23 502.91 218.98C501.53 231.77 495.56 264.61 494.06 266.95C493.74 267.48 493.1 269.83 492.68 272.28C492.25 274.62 490.12 281.34 487.99 287.2C485.86 293.07 483.72 299.04 483.19 300.53C482.02 304.04 476.37 317.58 474.98 320.25C474.34 321.42 472.53 325.04 471.04 328.24C455.05 362.14 427.34 398.27 396.32 425.88C387.58 433.77 361.46 454.02 360.18 454.02C359.86 454.02 356.13 456.26 351.87 459.03C334.81 470.12 304.86 484.19 284.93 490.37C281.09 491.65 276.83 493.14 275.33 493.68C272.56 494.85 272.03 495.06 254.01 499.11C193.26 512.97 137.93 510.09 76.53 489.63C56.49 483.02 26.44 468.52 8.53 456.79C-4.48 448.37 -5.01 448.59 0.85 459.99C11.94 481.63 33.04 512.76 46.58 527.47C57.45 539.3 77.28 558.59 84.42 564.35C92.84 571.17 109.37 583.75 112.88 585.88C155.95 613.49 192.83 628.3 242.29 637.79C260.2 641.31 272.14 642.16 301.45 642.16C341.1 642.16 356.66 640.24 390.99 630.97C405.8 626.92 406.34 626.81 423.5 620.31C449.72 610.4 479.25 594.3 502.38 577.25C528.49 557.95 553.86 532.8 572.94 507.11C580.83 496.55 583.92 491.97 592.13 478.75C599.06 467.56 615.16 434.84 617.29 427.37C617.93 425.35 619.42 420.98 620.7 417.78C621.98 414.58 623.36 410.43 623.9 408.72C624.32 406.91 626.03 400.94 627.63 395.4C633.81 373.12 634.88 367.58 637.75 344.76C642.23 308.84 639.89 261.62 631.89 229.11C627.95 213.01 621.76 192.65 619.1 186.79C618.25 184.98 617.5 183.06 617.5 182.53C617.5 180.61 609.19 162.38 602.36 149.06C590.64 126.57 577.31 106.31 561.33 86.81C555.36 79.66 534.46 58.24 524.87 49.6C506.96 33.51 478.5 14.22 455.8 2.7C449.83 -0.28 448.02 -0.71 448.02 1C448.02 1.53 450.57 6.01 453.66 10.8ZM555.68 106.53C561.01 113.03 573.58 131.15 574.86 134.03C575.5 135.41 577.1 138.08 578.49 139.89C580.83 143.09 600.45 182.21 600.45 183.81C600.45 184.23 601.08 186.05 601.94 187.86C602.79 189.78 604.5 194.57 605.77 198.73C607.05 202.78 608.55 207.04 609.19 208.11C609.72 209.18 610.57 212.05 611.1 214.51C611.64 216.96 613.56 225.17 615.37 232.84C621.76 260.02 622.94 268.76 623.58 296.8C623.9 311.51 623.68 323.98 622.94 330.37C622.19 335.92 621.23 344.98 620.7 350.52C620.27 355.96 619.31 360.97 618.67 361.61C618.03 362.25 617.5 364.16 617.5 365.76C617.5 368.53 616.75 372.16 612.49 388.47C609.83 398.7 600.98 424.82 599.49 426.84C599.06 427.37 597.99 429.61 597.25 431.64C594.37 439.42 580.83 465.64 574.86 475.13C564.52 491.44 548.21 512.44 536.38 524.8C522.52 539.4 503.87 556.03 496.52 560.62C494.49 561.9 492.79 563.28 492.79 563.71C492.79 564.03 490.97 565.31 488.84 566.48C486.71 567.65 484.47 569.14 483.83 569.68C481.59 571.7 470.93 578.74 469.97 578.74C469.44 578.74 467.52 579.91 465.6 581.3C462.09 584.07 438.21 596.54 432.03 598.88C430 599.74 426.38 601.23 424.03 602.19C421.69 603.25 415.5 605.6 410.17 607.52C404.95 609.44 398.88 611.57 396.85 612.32C393.23 613.59 386.62 615.41 378.73 617.11C373.83 618.28 361.25 621.06 355.28 622.34C338.54 625.96 295.91 627.77 275.33 625.64C252.2 623.29 248.15 622.76 243.89 621.59C241.54 620.95 236 619.67 231.63 618.6C227.26 617.65 221.4 616.15 218.62 615.41C215.85 614.55 212.87 613.91 211.91 613.91C210.84 613.91 208.6 613.27 206.79 612.53C202.1 610.5 196.67 608.58 192.19 607.41C190.16 606.77 187.5 605.92 186.33 605.39C185.15 604.85 181.53 603.36 178.33 602.19C175.13 600.91 170.34 598.78 167.78 597.29C165.22 595.9 162.24 594.73 161.17 594.73C160.1 594.73 159.04 594.3 158.61 593.77C158.29 593.13 156.69 592.06 155.09 591.21C143.48 585.24 140.06 583.43 137.08 581.19C135.27 579.91 133.24 578.74 132.71 578.74C131.54 578.74 112.46 565.41 103.72 558.59C93.27 550.38 74.51 533.12 65.45 523.2C55.32 512.22 42.96 497.09 42.96 495.59C42.96 494.42 47.54 495.7 53.62 498.69C56.28 499.97 61.5 501.99 65.34 503.27C69.18 504.44 73.44 505.93 74.94 506.47C81.65 509.35 95.61 513.29 106.38 515.31C110.54 516.17 117.25 517.55 121.3 518.51C132.6 521.07 167.78 524.38 183.66 524.38C196.24 524.27 232.7 520.75 243.03 518.51C247.3 517.55 254.01 516.17 257.96 515.42C262.01 514.68 266.91 513.5 268.94 512.86C270.96 512.22 277.68 510.2 283.86 508.28C290.04 506.47 296.55 504.34 298.25 503.59C300.06 502.84 303.9 501.35 306.78 500.39C309.76 499.33 312.85 497.83 313.81 496.98C314.67 496.23 316.27 495.59 317.22 495.59C319.36 495.59 342.49 484.08 351.87 478.33C355.49 476.09 358.69 474.28 358.9 474.28C361.14 474.28 393.65 450.51 404.84 440.81C417.21 429.93 437.36 409.15 445.56 398.59C447.27 396.46 449.19 394.12 449.93 393.26C461.77 379.41 492.79 326.96 492.79 320.67C492.79 319.82 493.42 318.22 494.17 317.05C498.01 311.4 510.91 271.75 512.4 261.09C512.82 258.42 513.57 254.8 514.1 253.09C517.73 240.83 521.57 205.98 521.57 184.13C521.57 163.45 518.26 133.81 513.57 113.45C512.82 109.94 511.33 103.22 510.27 98.53C509.2 93.84 508.03 89.47 507.6 88.94C507.18 88.3 506.54 86.27 506.11 84.35C505.68 82.44 504.72 79.56 503.87 77.96C503.02 76.36 502.38 74.01 502.38 72.74C502.38 71.46 501.95 70.07 501.31 69.75C500.78 69.43 500.25 68.37 500.25 67.41C500.25 66.55 499.61 64.31 498.75 62.5C494.17 52.38 491.72 46.73 491.72 46.3C491.72 44.59 495.24 46.73 503.87 53.66C519.86 66.55 538.94 86.06 555.68 106.53Z" id="b2Df9gEKyi">
</path>
<path class="arrow" d="M459.1 398.38C456.33 405.1 456.33 428.01 458.99 435.37C468.27 460.63 481.59 473.1 507.71 480.78C534.46 488.67 566.44 474.6 582.11 448.05C585.2 442.62 587.44 436.75 590.32 425.78C591.28 422.26 592.77 417.99 593.62 416.4C595.12 413.3 594.16 409.25 592.02 409.25C591.49 409.25 580.83 401.58 568.25 392.2C555.78 382.82 544.7 375.14 543.74 375.14C542.14 375.14 534.36 383.46 534.36 385.16C534.36 385.91 527.21 395.18 525.72 396.46C525.4 396.78 523.27 399.66 521.03 402.86C518.79 406.06 514.85 410.85 512.29 413.52C509.84 416.18 507.71 418.85 507.71 419.49C507.71 421.41 522.84 432.7 525.51 432.7C526.26 432.7 527.85 430.68 529.13 428.12C531.37 423.75 544.16 406.7 546.08 405.52C547.47 404.67 552.05 407.23 558.02 412.13C560.79 414.37 564.31 417.03 565.8 418.1C569.53 420.77 569.32 425.24 565.06 433.66C560.26 443.15 550.88 452.42 541.93 456.37C528.71 462.44 511.65 461.59 499.71 454.24C491.93 449.33 484.9 441.23 482.13 433.77C478.71 425.03 478.5 410.21 481.59 402.22C485.43 392.2 493.21 383.24 502.91 377.59C505.79 375.89 508.35 373.65 508.56 372.8C508.99 370.77 492.79 358.09 489.91 358.19C488.84 358.19 483.51 362.78 478.08 368.32C468.27 378.34 465.6 382.6 459.1 398.38Z" id="dI0l4gO5F">
</path>
<path class="arrow" d="M581.79 370.77C581.79 377.59 582.11 378.55 584.78 381.22C587.33 383.78 588.51 384.2 594.05 384.2C599.81 384.2 600.66 383.88 604.07 380.58C607.48 377.28 607.91 376.32 607.91 371.2C607.91 366.19 607.48 365.23 604.18 361.82C600.66 358.41 599.81 358.09 594.26 358.09C589.47 358.09 587.55 358.62 584.99 360.65C582 363.1 581.79 363.63 581.79 370.77Z" id="b43u1KTBg4">
</path>
<path class="arrow" d="M396.85 456.58C394.82 458.07 391.41 460.63 389.39 462.44C385.87 465.43 385.76 465.75 387.04 469.16C388.75 474.06 388.64 481.63 386.62 498.26C385.66 505.83 384.59 515.42 384.17 519.47C383.85 523.52 382.99 527.04 382.46 527.25C381.82 527.47 380.43 526.08 379.37 524.16C378.2 522.24 374.68 516.59 371.59 511.8C368.39 506.89 365.51 502.1 365.19 501.14C364.77 500.07 363.38 497.83 361.99 496.02C360.71 494.21 359.01 491.22 358.37 489.41C356.45 483.98 352.19 484.83 340.04 493.25C336.84 495.49 335.24 497.3 335.77 498.05C336.2 498.79 338.44 501.99 340.89 505.19C343.23 508.39 345.79 512.01 346.43 513.18C347.18 514.36 350.27 519.37 353.36 524.38C356.34 529.39 359.22 533.65 359.65 533.97C360.08 534.29 361.57 536.63 362.95 539.3C364.34 541.96 367.43 546.97 369.78 550.49C372.12 554.12 374.36 557.63 374.89 558.49C375.85 560.51 377.34 562.96 382.46 570.74C384.81 574.26 387.58 578.84 388.64 580.87C389.82 582.9 391.41 585.03 392.16 585.45C393.01 585.88 393.65 586.84 393.65 587.59C393.65 588.33 395.14 591 396.85 593.66C398.56 596.33 400.05 599.63 400.05 601.02C400.05 603.25 400.37 603.47 403.46 602.83C405.38 602.4 408.9 601.12 411.24 599.84C413.59 598.56 417.32 596.65 419.55 595.47C424.14 593.13 424.14 591.32 419.45 586.31C417.85 584.6 413.69 578.63 410.17 572.88C406.66 567.23 402.29 560.3 400.37 557.42C395.25 549.53 395.14 548.25 398.98 546.44C407.62 542.07 426.38 541.54 435.12 545.27C450.68 551.98 455.9 555.82 461.55 564.56C463.47 567.65 465.82 570.21 466.67 570.21C467.52 570.21 470.51 568.72 473.28 566.91C476.05 564.99 479.99 562.54 481.91 561.26C487.88 557.31 487.56 555.93 477.65 546.65C472.85 541.96 467.74 537.59 466.46 536.85C465.18 536.1 461.55 533.86 458.46 531.73C455.37 529.6 450.15 527.15 446.95 526.19C427.02 520.32 424.99 520.22 413.05 522.99C404.31 525.01 402.82 524.38 403.89 519.05C406.34 507.32 407.51 498.58 409.75 472.68C410.28 466.17 411.45 458.18 412.31 454.77C414.76 445.28 412.84 444.11 405.16 450.29C402.61 452.32 398.88 455.2 396.85 456.58Z" id="a22PmlSk3X">
</path>
<path class="arrow" d="M486.39 522.14C486.39 531.73 496.41 539.09 504.72 535.57C510.8 533.12 513.04 529.39 513.04 522.14C513.04 515.21 511.33 512.65 504.83 509.88C500.46 507.96 498.43 508.07 494.17 510.09C489.91 512.22 486.39 517.66 486.39 522.14Z" id="c7PFQUUh45">
</path>
</defs>
<g>
	<g>
		<g>
			<use xlink:href="#b2Df9gEKyi" opacity="1" fill="#000000" fill-opacity="1">
			</use>
			<g>
				<use xlink:href="#b2Df9gEKyi" opacity="1" fill-opacity="0" stroke="#000000" stroke-width="1" stroke-opacity="0">
				</use>
			</g>
		</g>
		<g>
			<use xlink:href="#dI0l4gO5F" opacity="1" fill="#000000" fill-opacity="1">
			</use>
			<g>
				<use xlink:href="#dI0l4gO5F" opacity="1" fill-opacity="0" stroke="#000000" stroke-width="1" stroke-opacity="0">
				</use>
			</g>
		</g>
		<g>
			<use xlink:href="#b43u1KTBg4" opacity="1" fill="#000000" fill-opacity="1">
			</use>
			<g>
				<use xlink:href="#b43u1KTBg4" opacity="1" fill-opacity="0" stroke="#000000" stroke-width="1" stroke-opacity="0">
				</use>
			</g>
		</g>
		<g>
			<use xlink:href="#a22PmlSk3X" opacity="1" fill="#000000" fill-opacity="1">
			</use>
			<g>
				<use xlink:href="#a22PmlSk3X" opacity="1" fill-opacity="0" stroke="#000000" stroke-width="1" stroke-opacity="0">
				</use>
			</g>
		</g>
		<g>
			<use xlink:href="#c7PFQUUh45" opacity="1" fill="#000000" fill-opacity="1">
			</use>
			<g>
				<use xlink:href="#c7PFQUUh45" opacity="1" fill-opacity="0" stroke="#000000" stroke-width="1" stroke-opacity="0">
				</use>
			</g>
		</g>
	</g>
</g>
</svg>