<?xml version="1.0" standalone="no"?>
<!DOCTYPE svg PUBLIC "-//W3C//DTD SVG 20010904//EN"
 "http://www.w3.org/TR/2001/REC-SVG-20010904/DTD/svg10.dtd">
<svg version="1.0" xmlns="http://www.w3.org/2000/svg"
 width="201.000000pt" height="92.000000pt" viewBox="0 0 201.000000 92.000000"
 preserveAspectRatio="xMidYMid meet">
<metadata>
Created by potrace 1.10, written by Peter Selinger 2001-2011
</metadata>
<g transform="translate(0.000000,92.000000) scale(0.050000,-0.050000)"
fill="White" stroke="none">
<path d="M345 935 l5 -765 417 -5 c389 -5 416 -4 409 30 -6 31 -36 36 -254 41
l-248 5 12 730 12 729 -179 0 -179 0 5 -765z m246 683 c7 -11 13 -324 13 -695
l-1 -673 -91 -6 -92 -6 0 688 c0 378 6 693 13 701 22 21 143 15 158 -9z"/>
<path d="M1225 935 l5 -765 160 0 160 0 5 765 5 765 -170 0 -170 0 5 -765z
m250 0 l6 -695 -98 0 -97 0 8 675 c10 781 3 729 101 721 l75 -6 5 -695z"/>
<path d="M1640 929 l0 -771 165 6 165 6 2 250 c2 138 4 258 5 268 2 10 86
-102 188 -250 l185 -268 125 -6 125 -6 5 551 c8 1007 9 980 -27 987 -40 7 -71
-704 -47 -1076 11 -168 9 -222 -8 -212 -27 17 -327 468 -553 832 -223 359
-291 460 -312 460 -10 0 -18 -326 -18 -771z m178 405 l82 -127 0 -484 0 -485
-95 6 -95 6 -2 605 c-1 333 5 605 13 605 8 0 51 -57 97 -126z"/>
<path d="M2747 935 l3 -765 155 -6 155 -6 0 251 c0 276 8 290 92 166 142 -207
274 -386 295 -400 26 -16 293 -21 293 -4 0 6 -148 208 -330 450 -181 242 -330
443 -330 447 0 4 146 133 326 287 393 338 399 345 321 344 -40 0 -88 -29 -160
-95 -311 -286 -465 -424 -476 -424 -6 0 -11 117 -11 260 l0 260 -168 0 -168 0
3 -765z m241 688 c12 -19 15 -441 6 -803 -3 -126 -8 -309 -10 -405 l-4 -175
-69 0 c-98 0 -95 -25 -79 720 l14 680 66 0 c36 0 70 -8 76 -17z"/>
</g>
</svg>
