<?xml version="1.0" standalone="no"?>
<!DOCTYPE svg PUBLIC "-//W3C//DTD SVG 20010904//EN"
 "http://www.w3.org/TR/2001/REC-SVG-20010904/DTD/svg10.dtd">
<svg version="1.0" xmlns="http://www.w3.org/2000/svg"
 width="900.000000pt" height="270.000000pt" viewBox="0 0 900.000000 270.000000"
 preserveAspectRatio="xMidYMid meet">
<metadata>
Created by potrace 1.10, written by Peter Selinger 2001-2011
</metadata>
<g transform="translate(0.000000,270.000000) scale(0.100000,-0.100000)"
fill="White" stroke="none">
<path d="M2942 2297 c-6 -7 -12 -42 -14 -77 l-3 -65 -36 -3 c-22 -2 -45 -12
-58 -26 -21 -22 -21 -31 -22 -280 0 -141 -2 -263 -5 -271 -5 -11 -11 -10 -37
6 -19 11 -50 19 -77 19 -58 0 -70 12 -70 73 0 75 11 87 75 87 42 0 60 5 75 20
25 25 25 41 1 71 -15 19 -32 25 -83 29 l-63 5 -3 47 c-4 65 10 88 54 88 55 0
74 15 74 57 0 43 -21 62 -70 63 -48 0 -60 15 -60 75 0 59 -19 85 -63 85 -35 0
-57 -34 -57 -90 0 -25 -5 -51 -12 -58 -7 -7 -39 -12 -73 -12 -69 0 -95 -17
-95 -63 0 -43 24 -57 95 -57 76 0 88 -13 83 -88 l-3 -47 -98 -5 c-83 -4 -101
-8 -113 -24 -18 -26 -18 -46 2 -74 14 -20 23 -22 104 -22 103 0 110 -6 110
-85 0 -59 -14 -85 -46 -85 -59 0 -66 -15 -140 -300 -36 -141 -46 -177 -60
-220 -15 -48 -18 -118 -6 -136 11 -16 51 -24 77 -14 22 9 36 42 65 157 10 41
12 42 33 28 12 -8 31 -31 42 -52 34 -65 64 -99 103 -117 33 -15 77 -16 387
-14 l350 3 13 28 c11 22 11 32 0 55 l-13 27 -336 3 -337 2 -6 23 c-10 38 -7
377 4 398 9 15 22 19 64 19 38 0 61 6 79 20 25 20 26 20 32 1 3 -11 5 -51 4
-90 -2 -80 9 -101 52 -101 29 0 117 47 157 83 24 22 29 68 9 85 -7 6 -30 12
-52 14 l-40 3 -3 263 c-2 228 0 263 13 268 23 9 42 -12 50 -54 3 -20 10 -50
15 -67 5 -16 16 -57 25 -90 27 -103 46 -168 61 -216 18 -59 18 -78 -2 -142 -8
-29 -21 -74 -29 -102 -7 -27 -21 -75 -29 -106 -22 -79 -21 -136 3 -149 30 -16
50 -12 76 15 17 16 25 35 25 58 0 39 30 84 48 73 7 -4 12 -20 12 -35 0 -40 35
-81 70 -81 59 0 68 54 30 192 -12 46 -26 92 -30 103 -27 71 -31 121 -14 180 9
33 22 85 29 115 7 30 18 69 25 86 6 18 10 54 8 80 -3 49 -3 49 -40 52 -30 3
-40 -1 -54 -23 -9 -14 -20 -40 -23 -58 -9 -44 -32 -40 -47 8 -28 90 -40 141
-36 153 2 8 31 12 96 12 113 0 139 13 134 68 -2 28 -10 39 -33 52 -22 12 -35
31 -50 75 -22 63 -46 82 -88 71 -33 -8 -39 -28 -25 -82 14 -50 5 -64 -39 -64
-24 0 -63 61 -63 100 0 46 -80 81 -108 47z m-442 -967 c0 -42 -17 -53 -40 -25
-9 11 -8 19 7 39 25 35 33 32 33 -14z"/>
<path d="M1038 2294 c-21 -7 -30 -27 -37 -89 l-6 -50 -208 -5 c-208 -5 -208
-5 -227 -30 -24 -31 -25 -58 -1 -89 18 -24 20 -24 219 -25 140 -1 205 -5 213
-13 19 -19 3 -55 -65 -149 -233 -320 -315 -431 -344 -468 -50 -63 -65 -103
-55 -144 6 -27 15 -37 37 -43 15 -4 38 -3 49 2 19 9 146 171 223 284 14 22 29
42 33 45 3 3 19 24 35 48 37 54 72 92 86 92 16 0 14 -345 -2 -358 -7 -5 -54
-12 -105 -14 -103 -3 -117 -11 -117 -62 0 -58 15 -66 118 -66 58 0 96 -4 104
-12 7 -7 12 -45 12 -99 0 -103 4 -115 41 -134 37 -20 42 -19 73 10 24 22 26
30 26 113 0 116 6 122 121 122 46 0 91 5 99 10 18 11 20 84 2 102 -8 8 -48 14
-105 16 -51 2 -98 9 -104 14 -20 16 -18 358 1 358 13 0 73 -78 271 -349 83
-115 104 -132 148 -124 21 4 29 14 37 44 17 61 34 33 -306 494 -175 237 -173
235 -155 264 8 12 49 15 211 17 176 2 204 4 221 20 24 22 24 65 0 95 -19 24
-23 24 -228 29 l-208 5 -6 58 c-4 32 -11 63 -16 68 -11 11 -63 19 -85 13z"/>
<path d="M4846 2271 c-15 -17 -16 -24 -5 -63 7 -23 19 -52 26 -63 15 -22 18
-65 4 -65 -5 0 -14 7 -21 15 -10 11 -36 15 -110 15 -54 0 -105 3 -114 6 -12 5
-16 20 -16 58 0 62 -27 96 -76 96 -47 0 -74 -35 -74 -97 0 -63 0 -63 -171 -63
-88 0 -131 -4 -143 -13 -22 -16 -27 -90 -8 -109 9 -9 60 -15 165 -18 l152 -5
3 -131 3 -131 -32 -7 c-17 -3 -89 -6 -159 -6 -119 0 -128 -1 -148 -23 -26 -27
-28 -64 -6 -95 14 -21 22 -22 160 -22 81 0 154 -5 165 -10 18 -10 19 -24 19
-243 0 -260 5 -283 70 -321 48 -28 182 -35 226 -11 43 23 61 65 44 104 -25 61
-53 69 -165 50 -19 -4 -20 2 -23 205 -2 161 1 211 10 218 7 4 77 8 155 8 135
0 143 1 157 22 22 31 20 74 -4 98 -18 18 -33 20 -147 20 -189 0 -174 -12 -171
144 l3 131 112 3 c107 3 113 4 133 29 11 14 20 36 20 49 0 29 16 31 30 3 9
-16 19 -19 48 -17 36 3 37 4 40 49 2 32 -2 50 -13 59 -8 7 -15 20 -15 30 0 10
-7 23 -15 30 -8 7 -15 20 -15 29 0 21 -40 61 -62 61 -8 0 -23 -9 -32 -19z"/>
<path d="M4987 2272 c-21 -23 -22 -65 -2 -82 8 -7 15 -21 15 -32 0 -11 7 -26
15 -34 8 -9 15 -23 15 -32 1 -34 37 -64 72 -60 45 4 47 34 7 128 -53 126 -84
154 -122 112z"/>
<path d="M6131 2228 c-11 -24 -34 -79 -51 -123 -18 -44 -39 -94 -46 -112 -8
-17 -14 -37 -14 -45 0 -8 -4 -18 -8 -23 -4 -6 -18 -37 -31 -70 -13 -33 -29
-74 -37 -92 -8 -17 -14 -37 -14 -45 0 -7 -9 -24 -20 -38 -15 -20 -26 -24 -55
-21 -47 4 -75 -20 -75 -66 0 -51 29 -73 95 -73 87 0 145 38 181 120 14 31 46
110 69 170 10 25 24 59 31 77 8 17 14 35 14 40 0 6 8 17 18 26 15 14 41 17
134 17 140 0 143 -3 103 -95 -7 -16 -20 -48 -28 -70 -53 -142 -52 -140 -100
-139 -24 1 -59 10 -77 19 -22 11 -43 15 -66 10 -28 -5 -35 -12 -45 -45 -20
-67 4 -91 134 -134 18 -6 25 -63 9 -81 -4 -6 -17 -35 -29 -65 -92 -240 -106
-270 -128 -270 -7 0 -18 7 -25 15 -18 22 -73 18 -104 -6 -36 -28 -37 -89 -1
-124 20 -21 34 -25 85 -25 33 0 79 6 101 12 56 17 118 88 147 169 13 35 27 73
32 84 5 11 19 45 30 75 12 30 30 74 40 97 l19 42 69 -6 c80 -7 102 7 102 62 0
38 -17 59 -66 80 -47 19 -45 36 17 180 4 11 24 63 44 115 20 52 40 103 45 112
18 33 40 103 40 129 0 14 -10 35 -23 47 -34 32 -72 28 -113 -13 l-35 -35 -112
0 c-66 0 -117 4 -123 10 -8 8 -8 23 0 50 6 26 7 49 0 67 -8 25 -15 28 -62 31
l-52 3 -19 -43z"/>
<path d="M7520 1618 c-25 -27 -26 -79 -2 -101 17 -15 64 -17 466 -17 l448 0
19 23 c25 30 24 69 -4 95 -23 22 -25 22 -465 22 -441 0 -441 0 -462 -22z"/>
<path d="M4380 637 c-43 -21 -60 -71 -60 -178 0 -112 14 -156 59 -182 62 -37
131 17 131 103 0 51 -9 60 -55 60 -36 0 -41 -19 -11 -46 31 -30 32 -38 6 -64
-24 -24 -29 -24 -58 -4 -21 14 -22 23 -22 128 0 97 3 115 18 129 35 32 64 18
77 -36 10 -36 45 -38 45 -2 0 41 -27 82 -61 94 -39 14 -38 14 -69 -2z"/>
<path d="M5580 637 c-34 -17 -52 -59 -44 -102 5 -27 20 -47 63 -82 31 -26 57
-48 58 -48 2 -1 6 -15 9 -32 11 -54 -60 -89 -88 -43 -15 24 -58 27 -58 4 0 -8
13 -29 29 -45 40 -40 89 -40 133 0 28 25 33 36 33 76 0 46 -2 50 -68 109 -69
63 -82 91 -51 117 14 11 21 10 46 -4 40 -23 48 -22 48 8 0 17 -9 29 -30 40
-35 18 -47 19 -80 2z"/>
<path d="M6564 637 c-2 -7 -3 -91 -2 -187 3 -167 4 -175 23 -175 19 0 20 8 23
179 2 137 -1 181 -10 188 -18 11 -28 10 -34 -5z"/>
<path d="M2450 455 c0 -158 2 -185 15 -185 12 0 15 14 15 68 0 74 13 111 25
71 16 -56 41 -109 51 -109 13 0 42 63 46 100 6 52 23 22 28 -49 3 -44 10 -76
17 -78 8 -3 12 43 15 169 4 186 3 198 -17 198 -13 0 -21 -19 -61 -144 -10 -32
-23 -58 -29 -58 -10 1 -39 84 -48 139 -7 39 -23 63 -43 63 -11 0 -14 -35 -14
-185z"/>
<path d="M2957 634 c-4 -4 -7 -32 -7 -62 0 -38 -5 -61 -17 -74 -16 -18 -16
-21 0 -47 11 -19 17 -51 17 -94 0 -46 5 -70 16 -81 19 -20 38 -20 53 -2 10 11
8 18 -9 34 -29 27 -26 129 5 146 41 23 41 46 0 46 -23 0 -24 4 -27 67 -3 61
-14 84 -31 67z"/>
<path d="M3300 456 c0 -161 2 -186 16 -186 8 0 20 14 25 30 6 17 14 30 17 30
4 0 20 -16 35 -35 51 -64 66 -15 16 53 l-31 42 31 39 c17 21 31 46 31 55 0 24
-26 19 -48 -9 -11 -14 -27 -25 -36 -25 -12 0 -16 16 -18 92 -3 79 -6 93 -20
96 -17 3 -18 -11 -18 -182z"/>
<path d="M3895 628 c-3 -8 -4 -90 -3 -183 3 -151 5 -170 20 -173 15 -3 18 8
20 84 2 69 7 89 20 98 13 8 22 6 37 -8 18 -16 21 -31 21 -97 0 -80 8 -100 30
-74 16 20 9 177 -9 199 -7 9 -31 21 -52 26 -41 11 -46 21 -51 94 -3 39 -23 60
-33 34z"/>
<path d="M4887 634 c-4 -4 -7 -32 -7 -62 0 -37 -5 -61 -16 -73 -15 -17 -15
-20 0 -43 10 -17 16 -47 16 -86 0 -65 10 -94 35 -104 40 -15 62 29 25 52 -15
9 -20 23 -20 60 0 53 5 64 38 81 30 16 28 27 -8 39 -27 10 -29 14 -32 73 -3
57 -14 80 -31 63z"/>
<path d="M5946 624 c-9 -25 -7 -327 3 -343 5 -8 16 -11 25 -8 13 5 16 23 16
92 0 94 13 114 50 80 17 -15 20 -31 20 -97 0 -71 2 -78 19 -78 16 0 21 10 27
46 16 107 -15 180 -80 186 -29 3 -31 6 -34 48 -3 66 -11 90 -26 90 -8 0 -17
-7 -20 -16z"/>
<path d="M4100 555 c0 -28 24 -34 34 -9 8 20 -1 34 -20 34 -8 0 -14 -10 -14
-25z"/>
<path d="M4767 567 c-8 -20 9 -41 27 -34 23 9 21 47 -3 47 -10 0 -21 -6 -24
-13z"/>
<path d="M5063 502 c-13 -2 -23 -10 -23 -18 0 -8 10 -14 23 -14 23 0 55 -16
47 -23 -3 -2 -22 -14 -42 -26 -65 -39 -60 -126 8 -151 37 -14 52 -12 74 10 16
16 20 33 20 94 0 102 -31 139 -107 128z m57 -127 c14 -16 6 -65 -11 -65 -20 0
-49 21 -49 35 0 15 26 45 39 45 5 0 14 -7 21 -15z"/>
<path d="M2736 478 c-11 -15 -16 -46 -16 -95 0 -61 3 -75 22 -92 34 -32 55
-34 93 -11 l35 22 0 79 c0 66 -3 82 -20 99 -29 29 -94 27 -114 -2z m86 -35
c34 -31 14 -133 -27 -133 -39 0 -60 97 -28 132 20 22 31 23 55 1z"/>
<path d="M3111 471 c-26 -36 -29 -130 -6 -165 21 -32 67 -51 92 -38 43 24 57
51 57 115 0 86 -21 117 -79 117 -37 0 -47 -5 -64 -29z m87 -23 c17 -17 15
-113 -3 -128 -26 -22 -53 -3 -60 43 -11 73 25 123 63 85z"/>
<path d="M3524 492 c-23 -15 -34 -52 -34 -112 0 -55 3 -65 30 -92 36 -35 71
-33 108 8 18 20 22 37 22 88 0 82 -23 116 -78 116 -20 0 -42 -4 -48 -8z m76
-51 c15 -30 12 -97 -6 -115 -18 -19 -20 -19 -45 -6 -15 9 -19 22 -19 63 0 29
5 58 12 65 18 18 46 14 58 -7z"/>
<path d="M3722 488 c-28 -28 -5 -108 32 -108 7 0 22 -10 34 -23 17 -18 19 -26
10 -35 -17 -17 -32 -15 -57 7 -20 18 -51 19 -51 2 0 -16 48 -61 71 -66 33 -8
89 36 89 69 0 27 -42 76 -64 76 -18 0 -40 36 -31 50 9 14 31 12 45 -4 15 -19
41 -9 33 12 -4 9 -11 20 -17 24 -17 12 -81 9 -94 -4z"/>
<path d="M4102 385 c4 -154 22 -156 26 -2 2 101 0 117 -13 117 -13 0 -15 -16
-13 -115z"/>
<path d="M4566 493 c-3 -4 -6 -44 -6 -90 0 -80 2 -86 29 -114 36 -36 58 -37
93 -4 35 32 40 53 36 140 -3 62 -5 70 -23 70 -18 0 -20 -8 -23 -87 l-3 -88
-28 0 c-36 0 -41 13 -41 100 0 49 -4 69 -14 73 -8 3 -17 3 -20 0z"/>
<path d="M4777 494 c-4 -4 -7 -56 -7 -116 0 -102 1 -108 20 -108 20 0 21 5 18
112 -3 103 -11 132 -31 112z"/>
<path d="M5215 478 c-3 -13 -5 -63 -3 -113 3 -82 5 -90 23 -90 18 0 20 8 23
85 3 96 14 117 42 82 21 -25 40 -22 40 7 0 29 -33 51 -78 51 -35 0 -43 -4 -47
-22z"/>
<path d="M5781 479 c-31 -34 -30 -148 2 -183 32 -35 59 -40 90 -15 27 20 36
53 18 63 -5 3 -14 -1 -21 -9 -16 -20 -56 -19 -64 1 -11 28 -6 90 8 110 14 18
15 18 45 1 29 -17 32 -17 38 -1 11 28 -11 49 -55 52 -31 2 -45 -2 -61 -19z"/>
<path d="M6165 480 c-20 -22 -30 -93 -21 -144 5 -25 16 -41 41 -56 40 -25 65
-20 95 17 26 33 29 146 4 181 -20 30 -93 31 -119 2z m83 -32 c7 -7 12 -36 12
-65 0 -44 -4 -54 -22 -64 -18 -10 -24 -8 -40 11 -45 56 2 166 50 118z"/>
<path d="M6380 478 c-30 -33 -29 -147 3 -182 36 -41 71 -43 107 -8 28 28 30
36 30 99 0 60 -3 73 -23 91 -31 30 -89 30 -117 0z m90 -37 c23 -43 6 -131 -25
-131 -25 0 -45 31 -45 71 0 50 15 79 40 79 11 0 24 -9 30 -19z"/>
</g>
</svg>
