<?xml version="1.0" standalone="no"?>
<!DOCTYPE svg PUBLIC "-//W3C//DTD SVG 20010904//EN"
 "http://www.w3.org/TR/2001/REC-SVG-20010904/DTD/svg10.dtd">
<svg version="1.0" xmlns="http://www.w3.org/2000/svg"
 width="900.000000pt" height="270.000000pt" viewBox="0 0 900.000000 270.000000"
 preserveAspectRatio="xMidYMid meet">
<metadata>
Created by potrace 1.10, written by Peter Selinger 2001-2011
</metadata>
<g transform="translate(0.000000,270.000000) scale(0.100000,-0.100000)"
fill="White" stroke="none">
<path d="M3577 2332 c-14 -15 -17 -40 -17 -126 0 -105 0 -107 -26 -116 -14 -6
-104 -10 -200 -10 -144 0 -179 -3 -199 -16 -35 -23 -34 -75 1 -103 25 -20 40
-21 219 -21 167 0 194 -2 199 -16 3 -9 6 -76 6 -151 0 -116 -3 -138 -19 -158
-18 -24 -87 -103 -176 -204 -27 -31 -78 -88 -111 -126 -167 -191 -164 -186
-164 -225 0 -43 30 -80 64 -80 29 0 51 20 167 155 52 60 101 116 109 125 8 9
40 44 70 80 121 141 134 149 169 104 12 -15 45 -54 75 -88 30 -33 91 -104 137
-156 198 -227 202 -231 249 -204 32 19 46 59 34 96 -4 12 -33 52 -65 88 -31
36 -99 112 -151 170 -51 58 -115 132 -143 165 -27 33 -62 73 -78 88 l-28 29 3
152 3 151 202 5 c187 5 203 6 217 25 21 28 20 78 -2 98 -16 15 -46 17 -208 17
-135 0 -194 4 -202 12 -8 8 -12 48 -12 113 0 93 -2 103 -23 123 -29 27 -78 29
-100 4z"/>
<path d="M4900 2332 c-73 -7 -70 29 -70 -693 0 -613 1 -647 18 -662 26 -24 65
-21 90 6 19 20 22 35 22 104 l0 80 93 -5 c139 -7 132 -22 132 302 l0 261 -47
98 c-36 73 -46 102 -38 115 5 9 39 77 75 151 67 136 82 204 52 229 -12 10
-255 20 -327 14z m160 -127 c10 -12 4 -31 -32 -102 -23 -48 -47 -87 -53 -86
-15 4 -18 172 -4 189 15 18 73 18 89 -1z m-64 -381 c4 -14 20 -51 37 -82 31
-57 31 -59 35 -236 4 -185 0 -226 -21 -226 -6 0 -25 -7 -41 -15 -15 -8 -32
-12 -37 -9 -10 6 -13 577 -2 587 13 13 23 7 29 -19z"/>
<path d="M5300 2298 l-30 -32 -2 -466 c-3 -456 -3 -466 -26 -520 -12 -30 -22
-60 -22 -65 0 -20 41 -55 64 -55 28 0 76 42 76 66 0 10 8 26 17 36 15 16 18
48 21 209 4 177 6 189 23 189 13 0 24 -13 35 -40 9 -22 25 -57 35 -77 24 -48
24 -61 -5 -120 -13 -26 -36 -73 -50 -103 -25 -50 -33 -66 -58 -110 -4 -8 -11
-22 -14 -30 -3 -8 -20 -42 -36 -75 -36 -72 -34 -110 5 -139 49 -36 70 -14 165
174 45 91 88 165 95 165 6 0 46 -70 88 -155 42 -85 85 -163 95 -172 23 -23 46
-23 74 0 37 30 30 82 -28 197 -89 179 -142 293 -142 306 0 6 28 69 61 138 34
69 65 135 70 146 5 11 13 27 18 35 19 31 41 89 41 108 0 46 -30 52 -245 52
-143 0 -204 3 -213 12 -15 15 -16 175 -2 212 l9 26 218 2 217 3 15 26 c12 22
12 29 0 55 l-14 29 -263 3 -263 2 -29 -32z m376 -481 c7 -18 -75 -179 -89
-174 -17 5 -90 156 -83 172 7 20 164 22 172 2z"/>
<path d="M3104 682 c-12 -9 -26 -32 -33 -51 -16 -48 -14 -204 3 -245 34 -82
125 -87 165 -9 6 12 11 73 11 142 l0 119 -31 31 c-35 36 -81 41 -115 13z m97
-59 c10 -27 12 -164 3 -211 -8 -39 -41 -55 -71 -34 -22 13 -23 21 -23 133 0
108 2 119 21 132 27 19 58 10 70 -20z"/>
<path d="M3682 513 c2 -138 6 -187 16 -191 7 -2 12 6 12 22 0 41 27 44 60 7
16 -17 34 -31 39 -31 20 0 11 38 -14 68 -14 17 -25 41 -25 54 0 14 11 35 25
48 24 23 35 70 16 70 -6 0 -25 -14 -43 -30 -18 -17 -37 -29 -43 -27 -6 2 -11
46 -13 100 -2 78 -6 97 -18 97 -12 0 -14 -27 -12 -187z"/>
<path d="M4190 536 l0 -164 31 -26 c41 -35 83 -34 120 3 l29 29 0 161 c0 136
-2 161 -15 161 -17 0 -17 0 -15 -152 1 -126 -14 -178 -53 -178 -49 0 -57 25
-57 167 0 139 -4 163 -26 163 -11 0 -14 -31 -14 -164z"/>
<path d="M5617 693 c-4 -3 -7 -32 -7 -64 0 -38 -5 -63 -15 -73 -8 -8 -15 -21
-15 -29 0 -8 7 -20 15 -27 11 -9 15 -32 15 -80 0 -52 4 -71 18 -83 37 -33 79
-12 47 24 -16 17 -21 58 -16 127 1 7 12 17 26 22 14 5 25 14 25 20 0 6 -11 15
-25 20 -26 10 -28 16 -25 63 4 62 -19 105 -43 80z"/>
<path d="M4647 633 c-13 -12 -7 -43 7 -43 19 0 28 14 20 34 -7 17 -16 20 -27
9z"/>
<path d="M5497 634 c-16 -16 -7 -44 14 -44 15 0 20 5 17 22 -3 22 -19 33 -31
22z"/>
<path d="M3320 541 c-25 -48 -10 -85 46 -113 45 -22 54 -38 32 -56 -14 -11
-52 0 -63 17 -10 18 -35 12 -35 -7 0 -28 42 -62 76 -62 35 0 74 35 74 66 0 30
-29 64 -66 80 -36 15 -45 40 -18 51 9 3 25 1 35 -5 25 -16 39 -15 39 1 0 43
-99 66 -120 28z"/>
<path d="M3512 543 c2 -10 13 -19 25 -21 12 -2 27 -10 33 -18 10 -11 6 -17
-24 -29 -86 -36 -63 -155 30 -155 49 0 64 25 64 108 0 61 -3 74 -26 101 -21
25 -33 31 -66 31 -32 0 -39 -3 -36 -17z m86 -128 c1 -11 -4 -29 -12 -40 -15
-20 -15 -20 -36 1 -19 18 -20 25 -10 43 14 28 54 25 58 -4z"/>
<path d="M3885 550 c-10 -16 4 -30 31 -30 32 0 33 -36 2 -46 -40 -12 -58 -35
-58 -75 0 -45 36 -79 84 -79 56 0 61 10 59 106 -1 74 -4 89 -24 110 -23 25
-82 34 -94 14z m83 -141 c2 -15 -4 -31 -13 -39 -14 -11 -19 -10 -37 7 -17 17
-18 24 -8 42 16 31 54 25 58 -10z"/>
<path d="M4441 534 c-25 -32 -33 -72 -29 -144 3 -47 6 -55 23 -55 18 0 20 8
25 84 4 74 7 85 27 92 36 13 52 -16 55 -106 2 -63 6 -80 18 -80 12 0 16 19 18
96 3 95 2 98 -24 118 -38 30 -87 28 -113 -5z"/>
<path d="M4645 548 c-10 -25 -1 -223 10 -223 13 0 19 215 6 228 -7 7 -12 5
-16 -5z"/>
<path d="M4730 537 c0 -33 47 -179 65 -203 15 -19 15 -18 35 5 11 13 20 30 20
38 0 8 12 49 26 90 21 61 24 77 13 84 -19 11 -29 -2 -48 -58 -9 -26 -22 -48
-29 -48 -7 0 -23 24 -35 54 -24 59 -47 78 -47 38z"/>
<path d="M4961 541 c-20 -20 -35 -106 -25 -148 9 -38 43 -73 69 -73 30 0 75
37 75 61 0 23 -23 25 -40 4 -7 -8 -20 -15 -30 -15 -10 0 -23 7 -30 15 -18 22
5 45 46 45 43 0 66 23 58 58 -15 64 -83 93 -123 53z m72 -45 c9 -23 -18 -39
-43 -26 -17 9 -19 14 -9 26 15 18 45 18 52 0z"/>
<path d="M5124 547 c-10 -28 1 -220 14 -225 9 -3 12 17 12 76 0 44 3 87 6 96
9 23 41 20 54 -4 13 -25 30 -17 30 14 0 14 -10 30 -25 40 -29 19 -84 21 -91 3z"/>
<path d="M5315 544 c-10 -11 -15 -29 -13 -52 2 -29 10 -39 38 -55 56 -30 63
-40 46 -62 -14 -20 -15 -20 -45 3 -17 12 -35 22 -41 22 -17 0 -11 -35 10 -58
43 -46 130 -13 130 50 0 27 -49 78 -75 78 -18 0 -26 15 -19 34 7 17 44 22 44
6 0 -13 27 -13 35 1 4 5 -1 19 -11 30 -21 24 -76 25 -99 3z"/>
<path d="M5754 547 c-3 -8 7 -54 22 -103 29 -96 31 -112 19 -161 -6 -26 -4
-33 7 -33 19 0 38 20 38 40 0 9 13 57 30 106 33 101 41 155 23 161 -7 3 -16
-4 -19 -14 -25 -82 -64 -126 -64 -72 0 28 -27 89 -40 89 -6 0 -13 -6 -16 -13z"/>
<path d="M5490 440 c0 -103 1 -110 20 -110 19 0 20 7 20 110 0 103 -1 110 -20
110 -19 0 -20 -7 -20 -110z"/>
</g>
</svg>
